<?xml version="1.0" encoding="UTF-8" standalone="no"?>
<!DOCTYPE svg PUBLIC "-//W3C//DTD SVG 1.1//EN"
 "http://www.w3.org/Graphics/SVG/1.1/DTD/svg11.dtd">
<!-- Generated by graphviz version 2.36.0 (20140111.2315)
 -->
<!-- Title: ui.TurtleView.setImage Pages: 1 -->
<svg width="802pt" height="38pt"
 viewBox="0.00 0.00 802.00 38.00" xmlns="http://www.w3.org/2000/svg" xmlns:xlink="http://www.w3.org/1999/xlink">
<g id="graph0" class="graph" transform="scale(1 1) rotate(0) translate(4 34)">
<title>ui.TurtleView.setImage</title>
<polygon fill="white" stroke="none" points="-4,4 -4,-34 798,-34 798,4 -4,4"/>
<!-- Node1 -->
<g id="node1" class="node"><title>Node1</title>
<polygon fill="#bfbfbf" stroke="black" points="0,-5.5 0,-24.5 122,-24.5 122,-5.5 0,-5.5"/>
<text text-anchor="middle" x="61" y="-12.5" font-family="Helvetica,sans-Serif" font-size="10.00">ui.TurtleView.setImage</text>
</g>
<!-- Node2 -->
<g id="node2" class="node"><title>Node2</title>
<g id="a_node2"><a xlink:href="../../df/d9f/classui_1_1elements_1_1_t_properties_element.html#a2bb678e529943bae624e017430738bb5" target="_top" xlink:title="ui.elements.TPropertiesElement.select\lAndChangeTurtleImage">
<polygon fill="white" stroke="black" points="158.5,-0 158.5,-30 359.5,-30 359.5,-0 158.5,-0"/>
<text text-anchor="start" x="166.5" y="-18" font-family="Helvetica,sans-Serif" font-size="10.00">ui.elements.TPropertiesElement.select</text>
<text text-anchor="middle" x="259" y="-7" font-family="Helvetica,sans-Serif" font-size="10.00">AndChangeTurtleImage</text>
</a>
</g>
</g>
<!-- Node1&#45;&gt;Node2 -->
<g id="edge1" class="edge"><title>Node1&#45;&gt;Node2</title>
<path fill="none" stroke="midnightblue" d="M132.278,-15C140.729,-15 149.479,-15 158.247,-15"/>
<polygon fill="midnightblue" stroke="midnightblue" points="132.138,-11.5001 122.138,-15 132.138,-18.5001 132.138,-11.5001"/>
</g>
<!-- Node3 -->
<g id="node3" class="node"><title>Node3</title>
<g id="a_node3"><a xlink:href="../../df/d9f/classui_1_1elements_1_1_t_properties_element.html#aa9783f0d27dd4082e08b8a23d60883fe" target="_top" xlink:title="ui.elements.TPropertiesElement.init">
<polygon fill="white" stroke="black" points="396.5,-5.5 396.5,-24.5 583.5,-24.5 583.5,-5.5 396.5,-5.5"/>
<text text-anchor="middle" x="490" y="-12.5" font-family="Helvetica,sans-Serif" font-size="10.00">ui.elements.TPropertiesElement.init</text>
</a>
</g>
</g>
<!-- Node2&#45;&gt;Node3 -->
<g id="edge2" class="edge"><title>Node2&#45;&gt;Node3</title>
<path fill="none" stroke="midnightblue" d="M369.802,-15C378.706,-15 387.647,-15 396.411,-15"/>
<polygon fill="midnightblue" stroke="midnightblue" points="369.777,-11.5001 359.777,-15 369.777,-18.5001 369.777,-11.5001"/>
</g>
<!-- Node4 -->
<g id="node4" class="node"><title>Node4</title>
<g id="a_node4"><a xlink:href="../../df/d9f/classui_1_1elements_1_1_t_properties_element.html#a6c665abf2d1d12f6cc29c03f0b428efb" target="_top" xlink:title="ui.elements.TPropertiesElement.\lTPropertiesElement">
<polygon fill="white" stroke="black" points="620.5,-0 620.5,-30 793.5,-30 793.5,-0 620.5,-0"/>
<text text-anchor="start" x="628.5" y="-18" font-family="Helvetica,sans-Serif" font-size="10.00">ui.elements.TPropertiesElement.</text>
<text text-anchor="middle" x="707" y="-7" font-family="Helvetica,sans-Serif" font-size="10.00">TPropertiesElement</text>
</a>
</g>
</g>
<!-- Node3&#45;&gt;Node4 -->
<g id="edge3" class="edge"><title>Node3&#45;&gt;Node4</title>
<path fill="none" stroke="midnightblue" d="M593.759,-15C602.662,-15 611.609,-15 620.354,-15"/>
<polygon fill="midnightblue" stroke="midnightblue" points="593.739,-11.5001 583.739,-15 593.739,-18.5001 593.739,-11.5001"/>
</g>
</g>
</svg>
