<?xml version="1.0" encoding="UTF-8" standalone="no"?>
<!DOCTYPE svg PUBLIC "-//W3C//DTD SVG 1.1//EN"
 "http://www.w3.org/Graphics/SVG/1.1/DTD/svg11.dtd">
<!-- Generated by graphviz version 2.36.0 (20140111.2315)
 -->
<!-- Title: ui.TurtleView.setTurtleVisible Pages: 1 -->
<svg width="592pt" height="38pt"
 viewBox="0.00 0.00 592.00 38.00" xmlns="http://www.w3.org/2000/svg" xmlns:xlink="http://www.w3.org/1999/xlink">
<g id="graph0" class="graph" transform="scale(1 1) rotate(0) translate(4 34)">
<title>ui.TurtleView.setTurtleVisible</title>
<polygon fill="white" stroke="none" points="-4,4 -4,-34 588,-34 588,4 -4,4"/>
<!-- Node1 -->
<g id="node1" class="node"><title>Node1</title>
<polygon fill="#bfbfbf" stroke="black" points="0.5,-5.5 0.5,-24.5 149.5,-24.5 149.5,-5.5 0.5,-5.5"/>
<text text-anchor="middle" x="75" y="-12.5" font-family="Helvetica,sans-Serif" font-size="10.00">ui.TurtleView.setTurtleVisible</text>
</g>
<!-- Node2 -->
<g id="node2" class="node"><title>Node2</title>
<g id="a_node2"><a xlink:href="../../df/d9f/classui_1_1elements_1_1_t_properties_element.html#aa9783f0d27dd4082e08b8a23d60883fe" target="_top" xlink:title="ui.elements.TPropertiesElement.init">
<polygon fill="white" stroke="black" points="186.5,-5.5 186.5,-24.5 373.5,-24.5 373.5,-5.5 186.5,-5.5"/>
<text text-anchor="middle" x="280" y="-12.5" font-family="Helvetica,sans-Serif" font-size="10.00">ui.elements.TPropertiesElement.init</text>
</a>
</g>
</g>
<!-- Node1&#45;&gt;Node2 -->
<g id="edge1" class="edge"><title>Node1&#45;&gt;Node2</title>
<path fill="none" stroke="midnightblue" d="M159.743,-15C168.49,-15 177.418,-15 186.257,-15"/>
<polygon fill="midnightblue" stroke="midnightblue" points="159.575,-11.5001 149.575,-15 159.575,-18.5001 159.575,-11.5001"/>
</g>
<!-- Node3 -->
<g id="node3" class="node"><title>Node3</title>
<g id="a_node3"><a xlink:href="../../df/d9f/classui_1_1elements_1_1_t_properties_element.html#a6c665abf2d1d12f6cc29c03f0b428efb" target="_top" xlink:title="ui.elements.TPropertiesElement.\lTPropertiesElement">
<polygon fill="white" stroke="black" points="410.5,-0 410.5,-30 583.5,-30 583.5,-0 410.5,-0"/>
<text text-anchor="start" x="418.5" y="-18" font-family="Helvetica,sans-Serif" font-size="10.00">ui.elements.TPropertiesElement.</text>
<text text-anchor="middle" x="497" y="-7" font-family="Helvetica,sans-Serif" font-size="10.00">TPropertiesElement</text>
</a>
</g>
</g>
<!-- Node2&#45;&gt;Node3 -->
<g id="edge2" class="edge"><title>Node2&#45;&gt;Node3</title>
<path fill="none" stroke="midnightblue" d="M383.759,-15C392.662,-15 401.609,-15 410.354,-15"/>
<polygon fill="midnightblue" stroke="midnightblue" points="383.739,-11.5001 373.739,-15 383.739,-18.5001 383.739,-11.5001"/>
</g>
</g>
</svg>
