<?xml version="1.0" encoding="UTF-8" standalone="no"?>
<!DOCTYPE svg PUBLIC "-//W3C//DTD SVG 1.1//EN"
 "http://www.w3.org/Graphics/SVG/1.1/DTD/svg11.dtd">
<!-- Generated by graphviz version 2.36.0 (20140111.2315)
 -->
<!-- Title: ui.TurtleView.updateRotation Pages: 1 -->
<svg width="442pt" height="47pt"
 viewBox="0.00 0.00 442.00 47.00" xmlns="http://www.w3.org/2000/svg" xmlns:xlink="http://www.w3.org/1999/xlink">
<g id="graph0" class="graph" transform="scale(1 1) rotate(0) translate(4 43)">
<title>ui.TurtleView.updateRotation</title>
<polygon fill="white" stroke="none" points="-4,4 -4,-43 438,-43 438,4 -4,4"/>
<!-- Node1 -->
<g id="node1" class="node"><title>Node1</title>
<polygon fill="#bfbfbf" stroke="black" points="0,-0.5 0,-19.5 150,-19.5 150,-0.5 0,-0.5"/>
<text text-anchor="middle" x="75" y="-7.5" font-family="Helvetica,sans-Serif" font-size="10.00">ui.TurtleView.updateRotation</text>
</g>
<!-- Node2 -->
<g id="node2" class="node"><title>Node2</title>
<g id="a_node2"><a xlink:href="../../d3/db6/classui_1_1_turtle_view.html#a3bcfd8b9b225b9082d34a55b7ebc90b7" target="_top" xlink:title="ui.TurtleView.draw">
<polygon fill="white" stroke="black" points="186,-19.5 186,-38.5 286,-38.5 286,-19.5 186,-19.5"/>
<text text-anchor="middle" x="236" y="-26.5" font-family="Helvetica,sans-Serif" font-size="10.00">ui.TurtleView.draw</text>
</a>
</g>
</g>
<!-- Node1&#45;&gt;Node2 -->
<g id="edge1" class="edge"><title>Node1&#45;&gt;Node2</title>
<path fill="none" stroke="midnightblue" d="M160.485,-20.0956C169.083,-21.1231 177.603,-22.1413 185.641,-23.1018"/>
<polygon fill="midnightblue" stroke="midnightblue" points="160.724,-16.5994 150.379,-18.8881 159.893,-23.55 160.724,-16.5994"/>
</g>
<!-- Node3 -->
<g id="node3" class="node"><title>Node3</title>
<g id="a_node3"><a xlink:href="../../d3/db6/classui_1_1_turtle_view.html#a08c1ab80fb36ee57f17dcdd42bcf9143" target="_top" xlink:title="ui.TurtleView.update">
<polygon fill="white" stroke="black" points="322.5,-0.5 322.5,-19.5 433.5,-19.5 433.5,-0.5 322.5,-0.5"/>
<text text-anchor="middle" x="378" y="-7.5" font-family="Helvetica,sans-Serif" font-size="10.00">ui.TurtleView.update</text>
</a>
</g>
</g>
<!-- Node1&#45;&gt;Node3 -->
<g id="edge3" class="edge"><title>Node1&#45;&gt;Node3</title>
<path fill="none" stroke="midnightblue" d="M160.2,-10C212.03,-10 276.972,-10 322.203,-10"/>
<polygon fill="midnightblue" stroke="midnightblue" points="160.018,-6.5001 150.018,-10 160.018,-13.5001 160.018,-6.5001"/>
</g>
<!-- Node2&#45;&gt;Node3 -->
<g id="edge2" class="edge"><title>Node2&#45;&gt;Node3</title>
<path fill="none" stroke="midnightblue" d="M296.356,-20.9446C304.986,-19.7733 313.837,-18.5721 322.368,-17.4143"/>
<polygon fill="midnightblue" stroke="midnightblue" points="295.797,-17.4882 286.359,-22.3013 296.739,-24.4246 295.797,-17.4882"/>
</g>
</g>
</svg>
