<?xml version="1.0" encoding="UTF-8" standalone="no"?>
<!DOCTYPE svg PUBLIC "-//W3C//DTD SVG 1.1//EN"
 "http://www.w3.org/Graphics/SVG/1.1/DTD/svg11.dtd">
<!-- Generated by graphviz version 2.36.0 (20140111.2315)
 -->
<!-- Title: ui.TurtleView.draw Pages: 1 -->
<svg width="510pt" height="66pt"
 viewBox="0.00 0.00 510.00 66.00" xmlns="http://www.w3.org/2000/svg" xmlns:xlink="http://www.w3.org/1999/xlink">
<g id="graph0" class="graph" transform="scale(1 1) rotate(0) translate(4 62)">
<title>ui.TurtleView.draw</title>
<polygon fill="white" stroke="none" points="-4,4 -4,-62 506,-62 506,4 -4,4"/>
<!-- Node1 -->
<g id="node1" class="node"><title>Node1</title>
<polygon fill="#bfbfbf" stroke="black" points="0,-19.5 0,-38.5 100,-38.5 100,-19.5 0,-19.5"/>
<text text-anchor="middle" x="50" y="-26.5" font-family="Helvetica,sans-Serif" font-size="10.00">ui.TurtleView.draw</text>
</g>
<!-- Node2 -->
<g id="node2" class="node"><title>Node2</title>
<g id="a_node2"><a xlink:href="../../dd/de0/classui_1_1_pen.html#a61ab673a4336e7a1a8ba62a8c8f8f1d3" target="_top" xlink:title="ui.Pen.draw">
<polygon fill="white" stroke="black" points="175.5,-38.5 175.5,-57.5 246.5,-57.5 246.5,-38.5 175.5,-38.5"/>
<text text-anchor="middle" x="211" y="-45.5" font-family="Helvetica,sans-Serif" font-size="10.00">ui.Pen.draw</text>
</a>
</g>
</g>
<!-- Node1&#45;&gt;Node2 -->
<g id="edge1" class="edge"><title>Node1&#45;&gt;Node2</title>
<path fill="none" stroke="midnightblue" d="M100.003,-34.8557C120.766,-37.3368 144.801,-40.2089 165.098,-42.6343"/>
<polygon fill="midnightblue" stroke="midnightblue" points="164.687,-46.11 175.031,-43.8214 165.517,-39.1595 164.687,-46.11"/>
</g>
<!-- Node4 -->
<g id="node4" class="node"><title>Node4</title>
<g id="a_node4"><a xlink:href="../../d3/db6/classui_1_1_turtle_view.html#adae75eb7b3a1cec778b25f6bb7be6648" target="_top" xlink:title="ui.TurtleView.updateRotation">
<polygon fill="white" stroke="black" points="136,-0.5 136,-19.5 286,-19.5 286,-0.5 136,-0.5"/>
<text text-anchor="middle" x="211" y="-7.5" font-family="Helvetica,sans-Serif" font-size="10.00">ui.TurtleView.updateRotation</text>
</a>
</g>
</g>
<!-- Node1&#45;&gt;Node4 -->
<g id="edge3" class="edge"><title>Node1&#45;&gt;Node4</title>
<path fill="none" stroke="midnightblue" d="M100.003,-23.1443C108.223,-22.162 116.957,-21.1184 125.768,-20.0654"/>
<polygon fill="midnightblue" stroke="midnightblue" points="126.212,-23.5374 135.726,-18.8755 125.382,-16.5868 126.212,-23.5374"/>
</g>
<!-- Node3 -->
<g id="node3" class="node"><title>Node3</title>
<g id="a_node3"><a xlink:href="../../d8/d1e/interfaceui_1_1artists_1_1_line_draw_helper.html#a51e28f4deb99580325465f22be1f91ed" target="_top" xlink:title="ui.artists.LineDrawHelper.drawLine">
<polygon fill="white" stroke="black" points="322,-38.5 322,-57.5 502,-57.5 502,-38.5 322,-38.5"/>
<text text-anchor="middle" x="412" y="-45.5" font-family="Helvetica,sans-Serif" font-size="10.00">ui.artists.LineDrawHelper.drawLine</text>
</a>
</g>
</g>
<!-- Node2&#45;&gt;Node3 -->
<g id="edge2" class="edge"><title>Node2&#45;&gt;Node3</title>
<path fill="none" stroke="midnightblue" d="M246.663,-48C264.803,-48 288.034,-48 311.282,-48"/>
<polygon fill="midnightblue" stroke="midnightblue" points="311.587,-51.5001 321.587,-48 311.587,-44.5001 311.587,-51.5001"/>
</g>
</g>
</svg>
