<?xml version="1.0" encoding="UTF-8" standalone="no"?>
<!DOCTYPE svg PUBLIC "-//W3C//DTD SVG 1.1//EN"
 "http://www.w3.org/Graphics/SVG/1.1/DTD/svg11.dtd">
<!-- Generated by graphviz version 2.36.0 (20140111.2315)
 -->
<!-- Title: ui.TurtleView.update Pages: 1 -->
<svg width="692pt" height="256pt"
 viewBox="0.00 0.00 692.00 256.00" xmlns="http://www.w3.org/2000/svg" xmlns:xlink="http://www.w3.org/1999/xlink">
<g id="graph0" class="graph" transform="scale(1 1) rotate(0) translate(4 252)">
<title>ui.TurtleView.update</title>
<polygon fill="white" stroke="none" points="-4,4 -4,-252 688,-252 688,4 -4,4"/>
<!-- Node1 -->
<g id="node1" class="node"><title>Node1</title>
<polygon fill="#bfbfbf" stroke="black" points="0.5,-114.5 0.5,-133.5 111.5,-133.5 111.5,-114.5 0.5,-114.5"/>
<text text-anchor="middle" x="56" y="-121.5" font-family="Helvetica,sans-Serif" font-size="10.00">ui.TurtleView.update</text>
</g>
<!-- Node2 -->
<g id="node2" class="node"><title>Node2</title>
<g id="a_node2"><a xlink:href="../../d3/db6/classui_1_1_turtle_view.html#a3bcfd8b9b225b9082d34a55b7ebc90b7" target="_top" xlink:title="ui.TurtleView.draw">
<polygon fill="white" stroke="black" points="165,-228.5 165,-247.5 265,-247.5 265,-228.5 165,-228.5"/>
<text text-anchor="middle" x="215" y="-235.5" font-family="Helvetica,sans-Serif" font-size="10.00">ui.TurtleView.draw</text>
</a>
</g>
</g>
<!-- Node1&#45;&gt;Node2 -->
<g id="edge1" class="edge"><title>Node1&#45;&gt;Node2</title>
<path fill="none" stroke="midnightblue" d="M64.2374,-133.502C78.4431,-151.557 111.764,-191.063 148,-214 154.664,-218.218 162.174,-221.837 169.678,-224.89"/>
<polygon fill="midnightblue" stroke="midnightblue" points="168.523,-228.195 179.114,-228.457 170.998,-221.647 168.523,-228.195"/>
</g>
<!-- Node5 -->
<g id="node5" class="node"><title>Node5</title>
<g id="a_node5"><a xlink:href="../../d3/db6/classui_1_1_turtle_view.html#adae75eb7b3a1cec778b25f6bb7be6648" target="_top" xlink:title="ui.TurtleView.updateRotation">
<polygon fill="white" stroke="black" points="318,-190.5 318,-209.5 468,-209.5 468,-190.5 318,-190.5"/>
<text text-anchor="middle" x="393" y="-197.5" font-family="Helvetica,sans-Serif" font-size="10.00">ui.TurtleView.updateRotation</text>
</a>
</g>
</g>
<!-- Node1&#45;&gt;Node5 -->
<g id="edge10" class="edge"><title>Node1&#45;&gt;Node5</title>
<path fill="none" stroke="midnightblue" d="M68.1449,-133.531C84.4464,-146.844 116.311,-170.546 148,-181 199.327,-197.932 259.888,-202.729 307.836,-203.269"/>
<polygon fill="midnightblue" stroke="midnightblue" points="307.849,-206.769 317.868,-203.323 307.887,-199.769 307.849,-206.769"/>
</g>
<!-- Node6 -->
<g id="node6" class="node"><title>Node6</title>
<g id="a_node6"><a xlink:href="../../d6/d34/classmodel_1_1_turtle.html#abc6be7d821691f3ac0c5377bcb4c1da4" target="_top" xlink:title="model.Turtle.getCleared">
<polygon fill="white" stroke="black" points="149.5,-152.5 149.5,-171.5 280.5,-171.5 280.5,-152.5 149.5,-152.5"/>
<text text-anchor="middle" x="215" y="-159.5" font-family="Helvetica,sans-Serif" font-size="10.00">model.Turtle.getCleared</text>
</a>
</g>
</g>
<!-- Node1&#45;&gt;Node6 -->
<g id="edge5" class="edge"><title>Node1&#45;&gt;Node6</title>
<path fill="none" stroke="midnightblue" d="M96.6177,-133.589C117.336,-138.604 142.888,-144.788 164.856,-150.105"/>
<polygon fill="midnightblue" stroke="midnightblue" points="164.124,-153.529 174.667,-152.48 165.771,-146.726 164.124,-153.529"/>
</g>
<!-- Node7 -->
<g id="node7" class="node"><title>Node7</title>
<g id="a_node7"><a xlink:href="../../d6/d34/classmodel_1_1_turtle.html#a1c5d07962ede5fbfacc59413274d4300" target="_top" xlink:title="model.Turtle.getHeading">
<polygon fill="white" stroke="black" points="148,-114.5 148,-133.5 282,-133.5 282,-114.5 148,-114.5"/>
<text text-anchor="middle" x="215" y="-121.5" font-family="Helvetica,sans-Serif" font-size="10.00">model.Turtle.getHeading</text>
</a>
</g>
</g>
<!-- Node1&#45;&gt;Node7 -->
<g id="edge6" class="edge"><title>Node1&#45;&gt;Node7</title>
<path fill="none" stroke="midnightblue" d="M111.911,-124C120.237,-124 128.953,-124 137.634,-124"/>
<polygon fill="midnightblue" stroke="midnightblue" points="137.784,-127.5 147.784,-124 137.784,-120.5 137.784,-127.5"/>
</g>
<!-- Node8 -->
<g id="node8" class="node"><title>Node8</title>
<g id="a_node8"><a xlink:href="../../d6/d34/classmodel_1_1_turtle.html#a39ac93a3d824905756d59839933c4b81" target="_top" xlink:title="model.Turtle.getVisibility">
<polygon fill="white" stroke="black" points="149,-76.5 149,-95.5 281,-95.5 281,-76.5 149,-76.5"/>
<text text-anchor="middle" x="215" y="-83.5" font-family="Helvetica,sans-Serif" font-size="10.00">model.Turtle.getVisibility</text>
</a>
</g>
</g>
<!-- Node1&#45;&gt;Node8 -->
<g id="edge7" class="edge"><title>Node1&#45;&gt;Node8</title>
<path fill="none" stroke="midnightblue" d="M96.6177,-114.411C117.336,-109.396 142.888,-103.212 164.856,-97.8947"/>
<polygon fill="midnightblue" stroke="midnightblue" points="165.771,-101.274 174.667,-95.5201 164.124,-94.4708 165.771,-101.274"/>
</g>
<!-- Node9 -->
<g id="node9" class="node"><title>Node9</title>
<g id="a_node9"><a xlink:href="../../d6/d34/classmodel_1_1_turtle.html#a5c92e7274d592bbd3df40913004dfa71" target="_top" xlink:title="model.Turtle.getX">
<polygon fill="white" stroke="black" points="165,-38.5 165,-57.5 265,-57.5 265,-38.5 165,-38.5"/>
<text text-anchor="middle" x="215" y="-45.5" font-family="Helvetica,sans-Serif" font-size="10.00">model.Turtle.getX</text>
</a>
</g>
</g>
<!-- Node1&#45;&gt;Node9 -->
<g id="edge8" class="edge"><title>Node1&#45;&gt;Node9</title>
<path fill="none" stroke="midnightblue" d="M69.619,-114.487C86.6249,-102.053 118.211,-80.3009 148,-67 153.104,-64.7212 158.551,-62.6399 164.045,-60.7602"/>
<polygon fill="midnightblue" stroke="midnightblue" points="165.466,-63.9802 173.921,-57.5953 163.33,-57.3141 165.466,-63.9802"/>
</g>
<!-- Node10 -->
<g id="node10" class="node"><title>Node10</title>
<g id="a_node10"><a xlink:href="../../d6/d34/classmodel_1_1_turtle.html#a60ba63667ad6fe29a4570821539db8c8" target="_top" xlink:title="model.Turtle.getY">
<polygon fill="white" stroke="black" points="165.5,-0.5 165.5,-19.5 264.5,-19.5 264.5,-0.5 165.5,-0.5"/>
<text text-anchor="middle" x="215" y="-7.5" font-family="Helvetica,sans-Serif" font-size="10.00">model.Turtle.getY</text>
</a>
</g>
</g>
<!-- Node1&#45;&gt;Node10 -->
<g id="edge9" class="edge"><title>Node1&#45;&gt;Node10</title>
<path fill="none" stroke="midnightblue" d="M63.5456,-114.312C77.0357,-95.098 109.884,-52.0349 148,-29 151.559,-26.8492 155.373,-24.9318 159.307,-23.2241"/>
<polygon fill="midnightblue" stroke="midnightblue" points="160.579,-26.485 168.639,-19.609 158.05,-19.9577 160.579,-26.485"/>
</g>
<!-- Node3 -->
<g id="node3" class="node"><title>Node3</title>
<g id="a_node3"><a xlink:href="../../dd/de0/classui_1_1_pen.html#a61ab673a4336e7a1a8ba62a8c8f8f1d3" target="_top" xlink:title="ui.Pen.draw">
<polygon fill="white" stroke="black" points="357.5,-228.5 357.5,-247.5 428.5,-247.5 428.5,-228.5 357.5,-228.5"/>
<text text-anchor="middle" x="393" y="-235.5" font-family="Helvetica,sans-Serif" font-size="10.00">ui.Pen.draw</text>
</a>
</g>
</g>
<!-- Node2&#45;&gt;Node3 -->
<g id="edge2" class="edge"><title>Node2&#45;&gt;Node3</title>
<path fill="none" stroke="midnightblue" d="M265.026,-238C290.746,-238 322.034,-238 347.115,-238"/>
<polygon fill="midnightblue" stroke="midnightblue" points="347.45,-241.5 357.45,-238 347.449,-234.5 347.45,-241.5"/>
</g>
<!-- Node2&#45;&gt;Node5 -->
<g id="edge4" class="edge"><title>Node2&#45;&gt;Node5</title>
<path fill="none" stroke="midnightblue" d="M260.412,-228.411C283.951,-223.329 313.057,-217.045 337.905,-211.68"/>
<polygon fill="midnightblue" stroke="midnightblue" points="338.871,-215.052 347.907,-209.52 337.394,-208.209 338.871,-215.052"/>
</g>
<!-- Node4 -->
<g id="node4" class="node"><title>Node4</title>
<g id="a_node4"><a xlink:href="../../d8/d1e/interfaceui_1_1artists_1_1_line_draw_helper.html#a51e28f4deb99580325465f22be1f91ed" target="_top" xlink:title="ui.artists.LineDrawHelper.drawLine">
<polygon fill="white" stroke="black" points="504,-228.5 504,-247.5 684,-247.5 684,-228.5 504,-228.5"/>
<text text-anchor="middle" x="594" y="-235.5" font-family="Helvetica,sans-Serif" font-size="10.00">ui.artists.LineDrawHelper.drawLine</text>
</a>
</g>
</g>
<!-- Node3&#45;&gt;Node4 -->
<g id="edge3" class="edge"><title>Node3&#45;&gt;Node4</title>
<path fill="none" stroke="midnightblue" d="M428.663,-238C446.803,-238 470.034,-238 493.282,-238"/>
<polygon fill="midnightblue" stroke="midnightblue" points="493.587,-241.5 503.587,-238 493.587,-234.5 493.587,-241.5"/>
</g>
</g>
</svg>
