<?xml version="1.0" encoding="UTF-8" standalone="no"?>
<!DOCTYPE svg PUBLIC "-//W3C//DTD SVG 1.1//EN"
 "http://www.w3.org/Graphics/SVG/1.1/DTD/svg11.dtd">
<!-- Generated by graphviz version 2.36.0 (20140111.2315)
 -->
<!-- Title: command.turtle.PenUpCommand.calculateValue Pages: 1 -->
<svg width="406pt" height="77pt"
 viewBox="0.00 0.00 406.00 77.00" xmlns="http://www.w3.org/2000/svg" xmlns:xlink="http://www.w3.org/1999/xlink">
<g id="graph0" class="graph" transform="scale(1 1) rotate(0) translate(4 73)">
<title>command.turtle.PenUpCommand.calculateValue</title>
<polygon fill="white" stroke="none" points="-4,4 -4,-73 402,-73 402,4 -4,4"/>
<!-- Node1 -->
<g id="node1" class="node"><title>Node1</title>
<polygon fill="#bfbfbf" stroke="black" points="0,-22 0,-52 224,-52 224,-22 0,-22"/>
<text text-anchor="start" x="8" y="-40" font-family="Helvetica,sans-Serif" font-size="10.00">command.turtle.PenUpCommand.calculate</text>
<text text-anchor="middle" x="112" y="-29" font-family="Helvetica,sans-Serif" font-size="10.00">Value</text>
</g>
<!-- Node2 -->
<g id="node2" class="node"><title>Node2</title>
<g id="a_node2"><a xlink:href="../../d6/d34/classmodel_1_1_turtle.html#a67661aa034ebab57b9f176d9d40891ae" target="_top" xlink:title="model.Turtle.setLine">
<polygon fill="white" stroke="black" points="272.5,-49.5 272.5,-68.5 385.5,-68.5 385.5,-49.5 272.5,-49.5"/>
<text text-anchor="middle" x="329" y="-56.5" font-family="Helvetica,sans-Serif" font-size="10.00">model.Turtle.setLine</text>
</a>
</g>
</g>
<!-- Node1&#45;&gt;Node2 -->
<g id="edge1" class="edge"><title>Node1&#45;&gt;Node2</title>
<path fill="none" stroke="midnightblue" d="M224.279,-48.3866C237.327,-49.7218 250.301,-51.0494 262.43,-52.2905"/>
<polygon fill="midnightblue" stroke="midnightblue" points="262.098,-55.7748 272.403,-53.311 262.811,-48.8111 262.098,-55.7748"/>
</g>
<!-- Node3 -->
<g id="node3" class="node"><title>Node3</title>
<g id="a_node3"><a xlink:href="../../d6/d34/classmodel_1_1_turtle.html#ab69148692c7de79ad6c276902b81553a" target="_top" xlink:title="model.Turtle.updateTurtle\lViewers">
<polygon fill="white" stroke="black" points="260.5,-0 260.5,-30 397.5,-30 397.5,-0 260.5,-0"/>
<text text-anchor="start" x="268.5" y="-18" font-family="Helvetica,sans-Serif" font-size="10.00">model.Turtle.updateTurtle</text>
<text text-anchor="middle" x="329" y="-7" font-family="Helvetica,sans-Serif" font-size="10.00">Viewers</text>
</a>
</g>
</g>
<!-- Node1&#45;&gt;Node3 -->
<g id="edge2" class="edge"><title>Node1&#45;&gt;Node3</title>
<path fill="none" stroke="midnightblue" d="M224.279,-25.6134C233.02,-24.7189 241.728,-23.8278 250.171,-22.9639"/>
<polygon fill="midnightblue" stroke="midnightblue" points="250.731,-26.4249 260.323,-21.9251 250.019,-19.4613 250.731,-26.4249"/>
</g>
</g>
</svg>
