<?xml version="1.0" encoding="UTF-8" standalone="no"?>
<!DOCTYPE svg PUBLIC "-//W3C//DTD SVG 1.1//EN"
 "http://www.w3.org/Graphics/SVG/1.1/DTD/svg11.dtd">
<!-- Generated by graphviz version 2.36.0 (20140111.2315)
 -->
<!-- Title: errors.SLogoException Pages: 1 -->
<svg width="195pt" height="96pt"
 viewBox="0.00 0.00 195.00 96.00" xmlns="http://www.w3.org/2000/svg" xmlns:xlink="http://www.w3.org/1999/xlink">
<g id="graph0" class="graph" transform="scale(1 1) rotate(0) translate(4 92)">
<title>errors.SLogoException</title>
<polygon fill="white" stroke="none" points="-4,4 -4,-92 191,-92 191,4 -4,4"/>
<!-- Node1 -->
<g id="node1" class="node"><title>Node1</title>
<polygon fill="#bfbfbf" stroke="black" points="34.5,-0.5 34.5,-19.5 159.5,-19.5 159.5,-0.5 34.5,-0.5"/>
<text text-anchor="middle" x="97" y="-7.5" font-family="Helvetica,sans-Serif" font-size="10.00">errors.SLogoException</text>
</g>
<!-- Node2 -->
<g id="node2" class="node"><title>Node2</title>
<polygon fill="white" stroke="#bfbfbf" points="0,-68.5 0,-87.5 102,-87.5 102,-68.5 0,-68.5"/>
<text text-anchor="middle" x="51" y="-75.5" font-family="Helvetica,sans-Serif" font-size="10.00">RuntimeException</text>
</g>
<!-- Node2&#45;&gt;Node1 -->
<g id="edge1" class="edge"><title>Node2&#45;&gt;Node1</title>
<path fill="none" stroke="midnightblue" d="M62.8919,-59.9377C71.8311,-47.112 83.7164,-30.0591 90.838,-19.8411"/>
<polygon fill="midnightblue" stroke="midnightblue" points="59.8603,-58.1664 57.0137,-68.3717 65.6031,-62.1689 59.8603,-58.1664"/>
</g>
<!-- Node3 -->
<g id="node3" class="node"><title>Node3</title>
<polygon fill="white" stroke="#bfbfbf" points="120.5,-68.5 120.5,-87.5 165.5,-87.5 165.5,-68.5 120.5,-68.5"/>
<text text-anchor="middle" x="143" y="-75.5" font-family="Helvetica,sans-Serif" font-size="10.00">Stage</text>
</g>
<!-- Node3&#45;&gt;Node1 -->
<g id="edge2" class="edge"><title>Node3&#45;&gt;Node1</title>
<path fill="none" stroke="#9a32cd" stroke-dasharray="5,2" d="M131.108,-59.9377C122.169,-47.112 110.284,-30.0591 103.162,-19.8411"/>
<polygon fill="#9a32cd" stroke="#9a32cd" points="128.397,-62.1689 136.986,-68.3717 134.14,-58.1664 128.397,-62.1689"/>
<text text-anchor="middle" x="156" y="-41.5" font-family="Helvetica,sans-Serif" font-size="10.00"> popupStage</text>
</g>
</g>
</svg>
