<?xml version="1.0" encoding="UTF-8" standalone="no"?>
<!DOCTYPE svg PUBLIC "-//W3C//DTD SVG 1.1//EN"
 "http://www.w3.org/Graphics/SVG/1.1/DTD/svg11.dtd">
<!-- Generated by graphviz version 2.36.0 (20140111.2315)
 -->
<!-- Title: parser.GroupStartCase.recurse Pages: 1 -->
<svg width="404pt" height="279pt"
 viewBox="0.00 0.00 404.00 279.00" xmlns="http://www.w3.org/2000/svg" xmlns:xlink="http://www.w3.org/1999/xlink">
<g id="graph0" class="graph" transform="scale(1 1) rotate(0) translate(4 275)">
<title>parser.GroupStartCase.recurse</title>
<polygon fill="white" stroke="none" points="-4,4 -4,-275 400,-275 400,4 -4,4"/>
<!-- Node1 -->
<g id="node1" class="node"><title>Node1</title>
<polygon fill="#bfbfbf" stroke="black" points="0,-137.5 0,-156.5 166,-156.5 166,-137.5 0,-137.5"/>
<text text-anchor="middle" x="83" y="-144.5" font-family="Helvetica,sans-Serif" font-size="10.00">parser.GroupStartCase.recurse</text>
</g>
<!-- Node2 -->
<g id="node2" class="node"><title>Node2</title>
<g id="a_node2"><a xlink:href="../../dc/d9e/classparser_1_1_command_tree_node.html#ad6cbb5376973ef15c1831187b297d071" target="_top" xlink:title="parser.CommandTreeNode.add">
<polygon fill="white" stroke="black" points="216,-251.5 216,-270.5 382,-270.5 382,-251.5 216,-251.5"/>
<text text-anchor="middle" x="299" y="-258.5" font-family="Helvetica,sans-Serif" font-size="10.00">parser.CommandTreeNode.add</text>
</a>
</g>
</g>
<!-- Node1&#45;&gt;Node2 -->
<g id="edge1" class="edge"><title>Node1&#45;&gt;Node2</title>
<path fill="none" stroke="midnightblue" d="M92.7094,-156.617C110.934,-176.095 155.287,-220.202 202,-242 207.375,-244.508 213.07,-246.686 218.897,-248.576"/>
<polygon fill="midnightblue" stroke="midnightblue" points="218.214,-252.024 228.796,-251.494 220.194,-245.31 218.214,-252.024"/>
</g>
<!-- Node3 -->
<g id="node3" class="node"><title>Node3</title>
<g id="a_node3"><a xlink:href="../../d9/dc0/interfaceparser_1_1_tree_wrapper.html#abf33b5a3ce13b389b9f69be49b18b998" target="_top" xlink:title="parser.TreeWrapper.getIndex">
<polygon fill="white" stroke="black" points="223,-213.5 223,-232.5 375,-232.5 375,-213.5 223,-213.5"/>
<text text-anchor="middle" x="299" y="-220.5" font-family="Helvetica,sans-Serif" font-size="10.00">parser.TreeWrapper.getIndex</text>
</a>
</g>
</g>
<!-- Node1&#45;&gt;Node3 -->
<g id="edge2" class="edge"><title>Node1&#45;&gt;Node3</title>
<path fill="none" stroke="midnightblue" d="M100.243,-156.5C122.492,-169.122 164.025,-191.302 202,-204 210.195,-206.74 218.923,-209.142 227.648,-211.231"/>
<polygon fill="midnightblue" stroke="midnightblue" points="226.944,-214.66 237.47,-213.458 228.492,-207.833 226.944,-214.66"/>
</g>
<!-- Node4 -->
<g id="node4" class="node"><title>Node4</title>
<g id="a_node4"><a xlink:href="../../dc/d9e/classparser_1_1_command_tree_node.html#a73e4ab6ebca47d41b993f0e66ee4c8d2" target="_top" xlink:title="parser.CommandTreeNode.getName">
<polygon fill="white" stroke="black" points="202.5,-175.5 202.5,-194.5 395.5,-194.5 395.5,-175.5 202.5,-175.5"/>
<text text-anchor="middle" x="299" y="-182.5" font-family="Helvetica,sans-Serif" font-size="10.00">parser.CommandTreeNode.getName</text>
</a>
</g>
</g>
<!-- Node1&#45;&gt;Node4 -->
<g id="edge3" class="edge"><title>Node1&#45;&gt;Node4</title>
<path fill="none" stroke="midnightblue" d="M137.725,-156.54C166.98,-161.735 203.369,-168.196 234.076,-173.649"/>
<polygon fill="midnightblue" stroke="midnightblue" points="233.795,-177.154 244.253,-175.456 235.019,-170.262 233.795,-177.154"/>
</g>
<!-- Node5 -->
<g id="node5" class="node"><title>Node5</title>
<g id="a_node5"><a xlink:href="../../dc/d9e/classparser_1_1_command_tree_node.html#a8bb8a112395f78809b0be06f1c3f5282" target="_top" xlink:title="parser.CommandTreeNode.getType">
<polygon fill="white" stroke="black" points="206.5,-137.5 206.5,-156.5 391.5,-156.5 391.5,-137.5 206.5,-137.5"/>
<text text-anchor="middle" x="299" y="-144.5" font-family="Helvetica,sans-Serif" font-size="10.00">parser.CommandTreeNode.getType</text>
</a>
</g>
</g>
<!-- Node1&#45;&gt;Node5 -->
<g id="edge4" class="edge"><title>Node1&#45;&gt;Node5</title>
<path fill="none" stroke="midnightblue" d="M166.126,-147C176.027,-147 186.229,-147 196.366,-147"/>
<polygon fill="midnightblue" stroke="midnightblue" points="196.469,-150.5 206.469,-147 196.469,-143.5 196.469,-150.5"/>
</g>
<!-- Node6 -->
<g id="node6" class="node"><title>Node6</title>
<g id="a_node6"><a xlink:href="../../d9/dc0/interfaceparser_1_1_tree_wrapper.html#a251d9d9bb7c3ea34688bfa30cc465270" target="_top" xlink:title="parser.TreeWrapper.increment\lIndex">
<polygon fill="white" stroke="black" points="219.5,-88 219.5,-118 378.5,-118 378.5,-88 219.5,-88"/>
<text text-anchor="start" x="227.5" y="-106" font-family="Helvetica,sans-Serif" font-size="10.00">parser.TreeWrapper.increment</text>
<text text-anchor="middle" x="299" y="-95" font-family="Helvetica,sans-Serif" font-size="10.00">Index</text>
</a>
</g>
</g>
<!-- Node1&#45;&gt;Node6 -->
<g id="edge5" class="edge"><title>Node1&#45;&gt;Node6</title>
<path fill="none" stroke="midnightblue" d="M130.435,-137.453C155.067,-132.388 186.083,-126.011 214.714,-120.124"/>
<polygon fill="midnightblue" stroke="midnightblue" points="215.637,-123.508 224.728,-118.065 214.228,-116.651 215.637,-123.508"/>
</g>
<!-- Node7 -->
<g id="node7" class="node"><title>Node7</title>
<g id="a_node7"><a xlink:href="../../d9/dc0/interfaceparser_1_1_tree_wrapper.html#a593548eb4ae82f686022f08f45908a1d" target="_top" xlink:title="parser.TreeWrapper.print\lTestStatements">
<polygon fill="white" stroke="black" points="233,-39 233,-69 365,-69 365,-39 233,-39"/>
<text text-anchor="start" x="241" y="-57" font-family="Helvetica,sans-Serif" font-size="10.00">parser.TreeWrapper.print</text>
<text text-anchor="middle" x="299" y="-46" font-family="Helvetica,sans-Serif" font-size="10.00">TestStatements</text>
</a>
</g>
</g>
<!-- Node1&#45;&gt;Node7 -->
<g id="edge6" class="edge"><title>Node1&#45;&gt;Node7</title>
<path fill="none" stroke="midnightblue" d="M97.897,-137.328C119.337,-122.8 162.179,-95.3117 202,-79 208.738,-76.2398 215.87,-73.7093 223.08,-71.4081"/>
<polygon fill="midnightblue" stroke="midnightblue" points="224.384,-74.6701 232.933,-68.4121 222.347,-67.973 224.384,-74.6701"/>
</g>
<!-- Node8 -->
<g id="node8" class="node"><title>Node8</title>
<g id="a_node8"><a xlink:href="../../d9/dc0/interfaceparser_1_1_tree_wrapper.html#a48f9f037c84b1fecfdefcb3268640f88" target="_top" xlink:title="parser.TreeWrapper.recurse">
<polygon fill="white" stroke="black" points="226,-0.5 226,-19.5 372,-19.5 372,-0.5 226,-0.5"/>
<text text-anchor="middle" x="299" y="-7.5" font-family="Helvetica,sans-Serif" font-size="10.00">parser.TreeWrapper.recurse</text>
</a>
</g>
</g>
<!-- Node1&#45;&gt;Node8 -->
<g id="edge7" class="edge"><title>Node1&#45;&gt;Node8</title>
<path fill="none" stroke="midnightblue" d="M90.6846,-137.262C106.877,-114.488 150.672,-57.5939 202,-30 207.235,-27.1855 212.828,-24.7667 218.584,-22.688"/>
<polygon fill="midnightblue" stroke="midnightblue" points="219.961,-25.9207 228.39,-19.501 217.797,-19.2635 219.961,-25.9207"/>
</g>
</g>
</svg>
