<?xml version="1.0" encoding="UTF-8" standalone="no"?>
<!DOCTYPE svg PUBLIC "-//W3C//DTD SVG 1.1//EN"
 "http://www.w3.org/Graphics/SVG/1.1/DTD/svg11.dtd">
<!-- Generated by graphviz version 2.36.0 (20140111.2315)
 -->
<!-- Title: command.turtle.HideTurtleCommand.calculateValue Pages: 1 -->
<svg width="346pt" height="77pt"
 viewBox="0.00 0.00 346.00 77.00" xmlns="http://www.w3.org/2000/svg" xmlns:xlink="http://www.w3.org/1999/xlink">
<g id="graph0" class="graph" transform="scale(1 1) rotate(0) translate(4 73)">
<title>command.turtle.HideTurtleCommand.calculateValue</title>
<polygon fill="white" stroke="none" points="-4,4 -4,-73 342,-73 342,4 -4,4"/>
<!-- Node1 -->
<g id="node1" class="node"><title>Node1</title>
<polygon fill="#bfbfbf" stroke="black" points="0,-22 0,-52 144,-52 144,-22 0,-22"/>
<text text-anchor="start" x="8" y="-40" font-family="Helvetica,sans-Serif" font-size="10.00">command.turtle.HideTurtle</text>
<text text-anchor="middle" x="72" y="-29" font-family="Helvetica,sans-Serif" font-size="10.00">Command.calculateValue</text>
</g>
<!-- Node2 -->
<g id="node2" class="node"><title>Node2</title>
<g id="a_node2"><a xlink:href="../../d6/d34/classmodel_1_1_turtle.html#afbb33ed0634e2119072cb853f96ae2aa" target="_top" xlink:title="model.Turtle.setTurtleVisibility">
<polygon fill="white" stroke="black" points="180.5,-49.5 180.5,-68.5 337.5,-68.5 337.5,-49.5 180.5,-49.5"/>
<text text-anchor="middle" x="259" y="-56.5" font-family="Helvetica,sans-Serif" font-size="10.00">model.Turtle.setTurtleVisibility</text>
</a>
</g>
</g>
<!-- Node1&#45;&gt;Node2 -->
<g id="edge1" class="edge"><title>Node1&#45;&gt;Node2</title>
<path fill="none" stroke="midnightblue" d="M144.261,-45.4743C152.748,-46.4835 161.486,-47.5227 170.17,-48.5554"/>
<polygon fill="midnightblue" stroke="midnightblue" points="169.977,-52.057 180.32,-49.7624 170.804,-45.1059 169.977,-52.057"/>
</g>
<!-- Node3 -->
<g id="node3" class="node"><title>Node3</title>
<g id="a_node3"><a xlink:href="../../d6/d34/classmodel_1_1_turtle.html#ab69148692c7de79ad6c276902b81553a" target="_top" xlink:title="model.Turtle.updateTurtle\lViewers">
<polygon fill="white" stroke="black" points="190.5,-0 190.5,-30 327.5,-30 327.5,-0 190.5,-0"/>
<text text-anchor="start" x="198.5" y="-18" font-family="Helvetica,sans-Serif" font-size="10.00">model.Turtle.updateTurtle</text>
<text text-anchor="middle" x="259" y="-7" font-family="Helvetica,sans-Serif" font-size="10.00">Viewers</text>
</a>
</g>
</g>
<!-- Node1&#45;&gt;Node3 -->
<g id="edge2" class="edge"><title>Node1&#45;&gt;Node3</title>
<path fill="none" stroke="midnightblue" d="M144.261,-28.5257C156.11,-27.1167 168.45,-25.6492 180.446,-24.2227"/>
<polygon fill="midnightblue" stroke="midnightblue" points="180.906,-27.6927 190.423,-23.0362 180.08,-20.7416 180.906,-27.6927"/>
</g>
</g>
</svg>
