<?xml version="1.0" encoding="UTF-8" standalone="no"?>
<!DOCTYPE svg PUBLIC "-//W3C//DTD SVG 1.1//EN"
 "http://www.w3.org/Graphics/SVG/1.1/DTD/svg11.dtd">
<!-- Generated by graphviz version 2.36.0 (20140111.2315)
 -->
<!-- Title: command.control.TurtlesCommand.calculateValue Pages: 1 -->
<svg width="414pt" height="38pt"
 viewBox="0.00 0.00 414.00 38.00" xmlns="http://www.w3.org/2000/svg" xmlns:xlink="http://www.w3.org/1999/xlink">
<g id="graph0" class="graph" transform="scale(1 1) rotate(0) translate(4 34)">
<title>command.control.TurtlesCommand.calculateValue</title>
<polygon fill="white" stroke="none" points="-4,4 -4,-34 410,-34 410,4 -4,4"/>
<!-- Node1 -->
<g id="node1" class="node"><title>Node1</title>
<polygon fill="#bfbfbf" stroke="black" points="0.5,-0 0.5,-30 231.5,-30 231.5,-0 0.5,-0"/>
<text text-anchor="start" x="8.5" y="-18" font-family="Helvetica,sans-Serif" font-size="10.00">command.control.TurtlesCommand.calculate</text>
<text text-anchor="middle" x="116" y="-7" font-family="Helvetica,sans-Serif" font-size="10.00">Value</text>
</g>
<!-- Node2 -->
<g id="node2" class="node"><title>Node2</title>
<g id="a_node2"><a xlink:href="../../d9/d88/classmodel_1_1_tree_interpreter.html#a3a8c43b61bf2582fe495cae3f27c2c06" target="_top" xlink:title="model.TreeInterpreter.get\lTurtleList">
<polygon fill="white" stroke="black" points="268,-0 268,-30 406,-30 406,-0 268,-0"/>
<text text-anchor="start" x="276" y="-18" font-family="Helvetica,sans-Serif" font-size="10.00">model.TreeInterpreter.get</text>
<text text-anchor="middle" x="337" y="-7" font-family="Helvetica,sans-Serif" font-size="10.00">TurtleList</text>
</a>
</g>
</g>
<!-- Node1&#45;&gt;Node2 -->
<g id="edge1" class="edge"><title>Node1&#45;&gt;Node2</title>
<path fill="none" stroke="midnightblue" d="M231.631,-15C240.46,-15 249.245,-15 257.754,-15"/>
<polygon fill="midnightblue" stroke="midnightblue" points="257.982,-18.5001 267.982,-15 257.982,-11.5001 257.982,-18.5001"/>
</g>
</g>
</svg>
