<?xml version="1.0" encoding="UTF-8" standalone="no"?>
<!DOCTYPE svg PUBLIC "-//W3C//DTD SVG 1.1//EN"
 "http://www.w3.org/Graphics/SVG/1.1/DTD/svg11.dtd">
<!-- Generated by graphviz version 2.36.0 (20140111.2315)
 -->
<!-- Title: command.turtle.BackwardCommand Pages: 1 -->
<svg width="249pt" height="164pt"
 viewBox="0.00 0.00 249.00 164.00" xmlns="http://www.w3.org/2000/svg" xmlns:xlink="http://www.w3.org/1999/xlink">
<g id="graph0" class="graph" transform="scale(1 1) rotate(0) translate(4 160)">
<title>command.turtle.BackwardCommand</title>
<polygon fill="white" stroke="none" points="-4,4 -4,-160 245,-160 245,4 -4,4"/>
<!-- Node1 -->
<g id="node1" class="node"><title>Node1</title>
<polygon fill="#bfbfbf" stroke="black" points="-0.5,-0.5 -0.5,-19.5 192.5,-19.5 192.5,-0.5 -0.5,-0.5"/>
<text text-anchor="middle" x="96" y="-7.5" font-family="Helvetica,sans-Serif" font-size="10.00">command.turtle.BackwardCommand</text>
</g>
<!-- Node2 -->
<g id="node2" class="node"><title>Node2</title>
<g id="a_node2"><a xlink:href="../../d7/d35/classcommand_1_1_command.html" target="_top" xlink:title="command.Command">
<polygon fill="white" stroke="black" points="-0.5,-68.5 -0.5,-87.5 118.5,-87.5 118.5,-68.5 -0.5,-68.5"/>
<text text-anchor="middle" x="59" y="-75.5" font-family="Helvetica,sans-Serif" font-size="10.00">command.Command</text>
</a>
</g>
</g>
<!-- Node2&#45;&gt;Node1 -->
<g id="edge1" class="edge"><title>Node2&#45;&gt;Node1</title>
<path fill="none" stroke="midnightblue" d="M68.7753,-59.563C75.9407,-46.7815 85.371,-29.9599 91.0436,-19.8411"/>
<polygon fill="midnightblue" stroke="midnightblue" points="65.6742,-57.9373 63.8371,-68.3717 71.7802,-61.3604 65.6742,-57.9373"/>
</g>
<!-- Node3 -->
<g id="node3" class="node"><title>Node3</title>
<g id="a_node3"><a xlink:href="../../d6/d34/classmodel_1_1_turtle.html" target="_top" xlink:title="model.Turtle">
<polygon fill="white" stroke="black" points="136.5,-68.5 136.5,-87.5 211.5,-87.5 211.5,-68.5 136.5,-68.5"/>
<text text-anchor="middle" x="174" y="-75.5" font-family="Helvetica,sans-Serif" font-size="10.00">model.Turtle</text>
</a>
</g>
</g>
<!-- Node3&#45;&gt;Node1 -->
<g id="edge2" class="edge"><title>Node3&#45;&gt;Node1</title>
<path fill="none" stroke="#9a32cd" stroke-dasharray="5,2" d="M156.006,-61.7744C140.653,-48.7837 119.111,-30.5551 106.449,-19.8411"/>
<polygon fill="#9a32cd" stroke="#9a32cd" points="153.908,-64.5841 163.803,-68.3717 158.43,-59.2403 153.908,-64.5841"/>
<text text-anchor="middle" x="163" y="-41.5" font-family="Helvetica,sans-Serif" font-size="10.00"> myTurtle</text>
</g>
<!-- Node4 -->
<g id="node4" class="node"><title>Node4</title>
<polygon fill="white" stroke="#bfbfbf" points="101.5,-136.5 101.5,-155.5 172.5,-155.5 172.5,-136.5 101.5,-136.5"/>
<text text-anchor="middle" x="137" y="-143.5" font-family="Helvetica,sans-Serif" font-size="10.00">Observable</text>
</g>
<!-- Node4&#45;&gt;Node3 -->
<g id="edge3" class="edge"><title>Node4&#45;&gt;Node3</title>
<path fill="none" stroke="midnightblue" d="M146.775,-127.563C153.941,-114.781 163.371,-97.9599 169.044,-87.8411"/>
<polygon fill="midnightblue" stroke="midnightblue" points="143.674,-125.937 141.837,-136.372 149.78,-129.36 143.674,-125.937"/>
</g>
<!-- Node5 -->
<g id="node5" class="node"><title>Node5</title>
<polygon fill="white" stroke="#bfbfbf" points="190.5,-136.5 190.5,-155.5 231.5,-155.5 231.5,-136.5 190.5,-136.5"/>
<text text-anchor="middle" x="211" y="-143.5" font-family="Helvetica,sans-Serif" font-size="10.00">Color</text>
</g>
<!-- Node5&#45;&gt;Node3 -->
<g id="edge4" class="edge"><title>Node5&#45;&gt;Node3</title>
<path fill="none" stroke="#9a32cd" stroke-dasharray="5,2" d="M201.225,-127.563C194.059,-114.781 184.629,-97.9599 178.956,-87.8411"/>
<polygon fill="#9a32cd" stroke="#9a32cd" points="198.22,-129.36 206.163,-136.372 204.326,-125.937 198.22,-129.36"/>
<text text-anchor="middle" x="218" y="-109.5" font-family="Helvetica,sans-Serif" font-size="10.00"> penColor</text>
</g>
</g>
</svg>
