<?xml version="1.0" encoding="UTF-8" standalone="no"?>
<!DOCTYPE svg PUBLIC "-//W3C//DTD SVG 1.1//EN"
 "http://www.w3.org/Graphics/SVG/1.1/DTD/svg11.dtd">
<!-- Generated by graphviz version 2.36.0 (20140111.2315)
 -->
<!-- Title: command.turtle.SetTowardsCommand.calculateValue Pages: 1 -->
<svg width="334pt" height="153pt"
 viewBox="0.00 0.00 334.00 153.00" xmlns="http://www.w3.org/2000/svg" xmlns:xlink="http://www.w3.org/1999/xlink">
<g id="graph0" class="graph" transform="scale(1 1) rotate(0) translate(4 149)">
<title>command.turtle.SetTowardsCommand.calculateValue</title>
<polygon fill="white" stroke="none" points="-4,4 -4,-149 330,-149 330,4 -4,4"/>
<!-- Node1 -->
<g id="node1" class="node"><title>Node1</title>
<polygon fill="#bfbfbf" stroke="black" points="0.5,-63 0.5,-93 151.5,-93 151.5,-63 0.5,-63"/>
<text text-anchor="start" x="8.5" y="-81" font-family="Helvetica,sans-Serif" font-size="10.00">command.turtle.SetTowards</text>
<text text-anchor="middle" x="76" y="-70" font-family="Helvetica,sans-Serif" font-size="10.00">Command.calculateValue</text>
</g>
<!-- Node2 -->
<g id="node2" class="node"><title>Node2</title>
<g id="a_node2"><a xlink:href="../../d6/d34/classmodel_1_1_turtle.html#a5c92e7274d592bbd3df40913004dfa71" target="_top" xlink:title="model.Turtle.getX">
<polygon fill="white" stroke="black" points="207,-125.5 207,-144.5 307,-144.5 307,-125.5 207,-125.5"/>
<text text-anchor="middle" x="257" y="-132.5" font-family="Helvetica,sans-Serif" font-size="10.00">model.Turtle.getX</text>
</a>
</g>
</g>
<!-- Node1&#45;&gt;Node2 -->
<g id="edge1" class="edge"><title>Node1&#45;&gt;Node2</title>
<path fill="none" stroke="midnightblue" d="M118.981,-93.007C139.67,-100.24 165.046,-108.871 188,-116 195.244,-118.25 202.959,-120.522 210.495,-122.675"/>
<polygon fill="midnightblue" stroke="midnightblue" points="209.668,-126.078 220.243,-125.424 211.568,-119.341 209.668,-126.078"/>
</g>
<!-- Node3 -->
<g id="node3" class="node"><title>Node3</title>
<g id="a_node3"><a xlink:href="../../d6/d34/classmodel_1_1_turtle.html#a60ba63667ad6fe29a4570821539db8c8" target="_top" xlink:title="model.Turtle.getY">
<polygon fill="white" stroke="black" points="207.5,-87.5 207.5,-106.5 306.5,-106.5 306.5,-87.5 207.5,-87.5"/>
<text text-anchor="middle" x="257" y="-94.5" font-family="Helvetica,sans-Serif" font-size="10.00">model.Turtle.getY</text>
</a>
</g>
</g>
<!-- Node1&#45;&gt;Node3 -->
<g id="edge2" class="edge"><title>Node1&#45;&gt;Node3</title>
<path fill="none" stroke="midnightblue" d="M151.616,-85.9201C166.746,-87.5261 182.459,-89.194 196.961,-90.7333"/>
<polygon fill="midnightblue" stroke="midnightblue" points="196.968,-94.2536 207.281,-91.8288 197.707,-87.2927 196.968,-94.2536"/>
</g>
<!-- Node4 -->
<g id="node4" class="node"><title>Node4</title>
<g id="a_node4"><a xlink:href="../../d6/d34/classmodel_1_1_turtle.html#a2b2a79e69080a0bacbefea42068da2dd" target="_top" xlink:title="model.Turtle.setHeading">
<polygon fill="white" stroke="black" points="190.5,-49.5 190.5,-68.5 323.5,-68.5 323.5,-49.5 190.5,-49.5"/>
<text text-anchor="middle" x="257" y="-56.5" font-family="Helvetica,sans-Serif" font-size="10.00">model.Turtle.setHeading</text>
</a>
</g>
</g>
<!-- Node1&#45;&gt;Node4 -->
<g id="edge3" class="edge"><title>Node1&#45;&gt;Node4</title>
<path fill="none" stroke="midnightblue" d="M151.616,-70.0799C161.056,-69.0779 170.723,-68.0517 180.182,-67.0478"/>
<polygon fill="midnightblue" stroke="midnightblue" points="180.768,-70.5053 190.343,-65.9692 180.029,-63.5444 180.768,-70.5053"/>
</g>
<!-- Node5 -->
<g id="node5" class="node"><title>Node5</title>
<g id="a_node5"><a xlink:href="../../d6/d34/classmodel_1_1_turtle.html#ab69148692c7de79ad6c276902b81553a" target="_top" xlink:title="model.Turtle.updateTurtle\lViewers">
<polygon fill="white" stroke="black" points="188.5,-0 188.5,-30 325.5,-30 325.5,-0 188.5,-0"/>
<text text-anchor="start" x="196.5" y="-18" font-family="Helvetica,sans-Serif" font-size="10.00">model.Turtle.updateTurtle</text>
<text text-anchor="middle" x="257" y="-7" font-family="Helvetica,sans-Serif" font-size="10.00">Viewers</text>
</a>
</g>
</g>
<!-- Node1&#45;&gt;Node5 -->
<g id="edge4" class="edge"><title>Node1&#45;&gt;Node5</title>
<path fill="none" stroke="midnightblue" d="M119.875,-62.9099C145.023,-54.059 176.984,-42.81 203.617,-33.4366"/>
<polygon fill="midnightblue" stroke="midnightblue" points="204.894,-36.6975 213.165,-30.076 202.57,-30.0945 204.894,-36.6975"/>
</g>
</g>
</svg>
