<?xml version="1.0" encoding="UTF-8" standalone="no"?>
<!DOCTYPE svg PUBLIC "-//W3C//DTD SVG 1.1//EN"
 "http://www.w3.org/Graphics/SVG/1.1/DTD/svg11.dtd">
<!-- Generated by graphviz version 2.36.0 (20140111.2315)
 -->
<!-- Title: parser.TreeGenerator.createCommands Pages: 1 -->
<svg width="614pt" height="352pt"
 viewBox="0.00 0.00 614.00 352.00" xmlns="http://www.w3.org/2000/svg" xmlns:xlink="http://www.w3.org/1999/xlink">
<g id="graph0" class="graph" transform="scale(1 1) rotate(0) translate(4 348)">
<title>parser.TreeGenerator.createCommands</title>
<polygon fill="white" stroke="none" points="-4,4 -4,-348 610,-348 610,4 -4,4"/>
<!-- Node1 -->
<g id="node1" class="node"><title>Node1</title>
<polygon fill="#bfbfbf" stroke="black" points="0.5,-248 0.5,-278 151.5,-278 151.5,-248 0.5,-248"/>
<text text-anchor="start" x="8.5" y="-266" font-family="Helvetica,sans-Serif" font-size="10.00">parser.TreeGenerator.create</text>
<text text-anchor="middle" x="76" y="-255" font-family="Helvetica,sans-Serif" font-size="10.00">Commands</text>
</g>
<!-- Node2 -->
<g id="node2" class="node"><title>Node2</title>
<g id="a_node2"><a xlink:href="../../d0/d05/classparser_1_1_tree_generator.html#a6c5a626cea851fb68c59f83a27ab56a5" target="_top" xlink:title="parser.TreeGenerator.create\lHandlerMap">
<polygon fill="white" stroke="black" points="209.5,-314 209.5,-344 360.5,-344 360.5,-314 209.5,-314"/>
<text text-anchor="start" x="217.5" y="-332" font-family="Helvetica,sans-Serif" font-size="10.00">parser.TreeGenerator.create</text>
<text text-anchor="middle" x="285" y="-321" font-family="Helvetica,sans-Serif" font-size="10.00">HandlerMap</text>
</a>
</g>
</g>
<!-- Node1&#45;&gt;Node2 -->
<g id="edge1" class="edge"><title>Node1&#45;&gt;Node2</title>
<path fill="none" stroke="midnightblue" d="M119.543,-278.077C140.144,-285.246 165.281,-293.802 188,-301 198.689,-304.386 210.094,-307.846 221.174,-311.127"/>
<polygon fill="midnightblue" stroke="midnightblue" points="220.22,-314.494 230.801,-313.957 222.195,-307.779 220.22,-314.494"/>
</g>
<!-- Node4 -->
<g id="node4" class="node"><title>Node4</title>
<g id="a_node4"><a xlink:href="../../dc/d9e/classparser_1_1_command_tree_node.html#a73e4ab6ebca47d41b993f0e66ee4c8d2" target="_top" xlink:title="parser.CommandTreeNode.getName">
<polygon fill="white" stroke="black" points="188.5,-272.5 188.5,-291.5 381.5,-291.5 381.5,-272.5 188.5,-272.5"/>
<text text-anchor="middle" x="285" y="-279.5" font-family="Helvetica,sans-Serif" font-size="10.00">parser.CommandTreeNode.getName</text>
</a>
</g>
</g>
<!-- Node1&#45;&gt;Node4 -->
<g id="edge3" class="edge"><title>Node1&#45;&gt;Node4</title>
<path fill="none" stroke="midnightblue" d="M151.732,-269.859C160.398,-270.655 169.357,-271.477 178.337,-272.302"/>
<polygon fill="midnightblue" stroke="midnightblue" points="178.193,-275.803 188.472,-273.232 178.833,-268.832 178.193,-275.803"/>
</g>
<!-- Node5 -->
<g id="node5" class="node"><title>Node5</title>
<g id="a_node5"><a xlink:href="../../d5/d30/classparser_1_1_command_case.html#a416a33e71d0a91f9d167980ff9779119" target="_top" xlink:title="parser.CommandCase.getRoot">
<polygon fill="white" stroke="black" points="203,-234.5 203,-253.5 367,-253.5 367,-234.5 203,-234.5"/>
<text text-anchor="middle" x="285" y="-241.5" font-family="Helvetica,sans-Serif" font-size="10.00">parser.CommandCase.getRoot</text>
</a>
</g>
</g>
<!-- Node1&#45;&gt;Node5 -->
<g id="edge4" class="edge"><title>Node1&#45;&gt;Node5</title>
<path fill="none" stroke="midnightblue" d="M151.732,-256.141C164.928,-254.929 178.802,-253.656 192.399,-252.408"/>
<polygon fill="midnightblue" stroke="midnightblue" points="193.088,-255.859 202.727,-251.46 192.448,-248.889 193.088,-255.859"/>
</g>
<!-- Node6 -->
<g id="node6" class="node"><title>Node6</title>
<g id="a_node6"><a xlink:href="../../d5/d30/classparser_1_1_command_case.html#a309ba0623929f8d96219c98de00023b0" target="_top" xlink:title="parser.CommandCase.initialize">
<polygon fill="white" stroke="black" points="202.5,-191.5 202.5,-210.5 367.5,-210.5 367.5,-191.5 202.5,-191.5"/>
<text text-anchor="middle" x="285" y="-198.5" font-family="Helvetica,sans-Serif" font-size="10.00">parser.CommandCase.initialize</text>
</a>
</g>
</g>
<!-- Node1&#45;&gt;Node6 -->
<g id="edge5" class="edge"><title>Node1&#45;&gt;Node6</title>
<path fill="none" stroke="midnightblue" d="M118.111,-247.995C138.921,-240.638 164.658,-231.9 188,-225 202.457,-220.727 218.282,-216.563 232.839,-212.936"/>
<polygon fill="midnightblue" stroke="midnightblue" points="233.807,-216.302 242.682,-210.516 232.136,-209.505 233.807,-216.302"/>
</g>
<!-- Node3 -->
<g id="node3" class="node"><title>Node3</title>
<g id="a_node3"><a xlink:href="../../d0/d22/classutil_1_1_pattern_mapper.html#a257efa051dc3d89b728922a22901fb7d" target="_top" xlink:title="util.PatternMapper.makePatterns">
<polygon fill="white" stroke="black" points="425.5,-322.5 425.5,-341.5 598.5,-341.5 598.5,-322.5 425.5,-322.5"/>
<text text-anchor="middle" x="512" y="-329.5" font-family="Helvetica,sans-Serif" font-size="10.00">util.PatternMapper.makePatterns</text>
</a>
</g>
</g>
<!-- Node2&#45;&gt;Node3 -->
<g id="edge2" class="edge"><title>Node2&#45;&gt;Node3</title>
<path fill="none" stroke="midnightblue" d="M360.609,-329.995C378.094,-330.228 396.962,-330.479 415.228,-330.723"/>
<polygon fill="midnightblue" stroke="midnightblue" points="415.256,-334.224 425.302,-330.857 415.349,-327.224 415.256,-334.224"/>
</g>
<!-- Node6&#45;&gt;Node3 -->
<g id="edge8" class="edge"><title>Node6&#45;&gt;Node3</title>
<path fill="none" stroke="midnightblue" d="M356.912,-210.525C366.043,-214.011 374.728,-218.702 382,-225 413.943,-252.664 385.463,-286.036 418,-313 419.998,-314.656 422.103,-316.18 424.293,-317.583"/>
<polygon fill="midnightblue" stroke="midnightblue" points="422.667,-320.683 433.121,-322.408 426.025,-314.541 422.667,-320.683"/>
</g>
<!-- Node7 -->
<g id="node7" class="node"><title>Node7</title>
<g id="a_node7"><a xlink:href="../../d9/dc0/interfaceparser_1_1_tree_wrapper.html#abf33b5a3ce13b389b9f69be49b18b998" target="_top" xlink:title="parser.TreeWrapper.getIndex">
<polygon fill="white" stroke="black" points="436,-284.5 436,-303.5 588,-303.5 588,-284.5 436,-284.5"/>
<text text-anchor="middle" x="512" y="-291.5" font-family="Helvetica,sans-Serif" font-size="10.00">parser.TreeWrapper.getIndex</text>
</a>
</g>
</g>
<!-- Node6&#45;&gt;Node7 -->
<g id="edge6" class="edge"><title>Node6&#45;&gt;Node7</title>
<path fill="none" stroke="midnightblue" d="M350.338,-210.518C361.478,-213.955 372.514,-218.634 382,-225 404.439,-240.059 395.315,-259.315 418,-274 421.847,-276.49 425.953,-278.676 430.216,-280.593"/>
<polygon fill="midnightblue" stroke="midnightblue" points="429.176,-283.946 439.762,-284.377 431.755,-277.438 429.176,-283.946"/>
</g>
<!-- Node8 -->
<g id="node8" class="node"><title>Node8</title>
<g id="a_node8"><a xlink:href="../../d9/dc0/interfaceparser_1_1_tree_wrapper.html#a251d9d9bb7c3ea34688bfa30cc465270" target="_top" xlink:title="parser.TreeWrapper.increment\lIndex">
<polygon fill="white" stroke="black" points="432.5,-235 432.5,-265 591.5,-265 591.5,-235 432.5,-235"/>
<text text-anchor="start" x="440.5" y="-253" font-family="Helvetica,sans-Serif" font-size="10.00">parser.TreeWrapper.increment</text>
<text text-anchor="middle" x="512" y="-242" font-family="Helvetica,sans-Serif" font-size="10.00">Index</text>
</a>
</g>
</g>
<!-- Node6&#45;&gt;Node8 -->
<g id="edge7" class="edge"><title>Node6&#45;&gt;Node8</title>
<path fill="none" stroke="midnightblue" d="M329.649,-210.506C358.611,-216.813 397.465,-225.275 431.78,-232.748"/>
<polygon fill="midnightblue" stroke="midnightblue" points="431.279,-236.221 441.795,-234.929 432.769,-229.381 431.279,-236.221"/>
</g>
<!-- Node9 -->
<g id="node9" class="node"><title>Node9</title>
<g id="a_node9"><a xlink:href="../../d5/d30/classparser_1_1_command_case.html#a7c49338f11e46369db6a009f6a07a837" target="_top" xlink:title="parser.CommandCase.obtain\lNumParams">
<polygon fill="white" stroke="black" points="433.5,-186 433.5,-216 590.5,-216 590.5,-186 433.5,-186"/>
<text text-anchor="start" x="441.5" y="-204" font-family="Helvetica,sans-Serif" font-size="10.00">parser.CommandCase.obtain</text>
<text text-anchor="middle" x="512" y="-193" font-family="Helvetica,sans-Serif" font-size="10.00">NumParams</text>
</a>
</g>
</g>
<!-- Node6&#45;&gt;Node9 -->
<g id="edge9" class="edge"><title>Node6&#45;&gt;Node9</title>
<path fill="none" stroke="midnightblue" d="M367.548,-201C385.694,-201 405.004,-201 423.382,-201"/>
<polygon fill="midnightblue" stroke="midnightblue" points="423.482,-204.5 433.482,-201 423.482,-197.5 423.482,-204.5"/>
</g>
<!-- Node10 -->
<g id="node10" class="node"><title>Node10</title>
<g id="a_node10"><a xlink:href="../../d5/d30/classparser_1_1_command_case.html#a37b719ff1e44b8c2539ec8a3d3dec65e" target="_top" xlink:title="parser.CommandCase.obtain\lSubCommand">
<polygon fill="white" stroke="black" points="433.5,-137 433.5,-167 590.5,-167 590.5,-137 433.5,-137"/>
<text text-anchor="start" x="441.5" y="-155" font-family="Helvetica,sans-Serif" font-size="10.00">parser.CommandCase.obtain</text>
<text text-anchor="middle" x="512" y="-144" font-family="Helvetica,sans-Serif" font-size="10.00">SubCommand</text>
</a>
</g>
</g>
<!-- Node6&#45;&gt;Node10 -->
<g id="edge10" class="edge"><title>Node6&#45;&gt;Node10</title>
<path fill="none" stroke="midnightblue" d="M329.649,-191.494C358.611,-185.187 397.465,-176.725 431.78,-169.252"/>
<polygon fill="midnightblue" stroke="midnightblue" points="432.769,-172.619 441.795,-167.071 431.279,-165.779 432.769,-172.619"/>
</g>
<!-- Node11 -->
<g id="node11" class="node"><title>Node11</title>
<g id="a_node11"><a xlink:href="../../d9/dc0/interfaceparser_1_1_tree_wrapper.html#a593548eb4ae82f686022f08f45908a1d" target="_top" xlink:title="parser.TreeWrapper.print\lTestStatements">
<polygon fill="white" stroke="black" points="446,-88 446,-118 578,-118 578,-88 446,-88"/>
<text text-anchor="start" x="454" y="-106" font-family="Helvetica,sans-Serif" font-size="10.00">parser.TreeWrapper.print</text>
<text text-anchor="middle" x="512" y="-95" font-family="Helvetica,sans-Serif" font-size="10.00">TestStatements</text>
</a>
</g>
</g>
<!-- Node6&#45;&gt;Node11 -->
<g id="edge11" class="edge"><title>Node6&#45;&gt;Node11</title>
<path fill="none" stroke="midnightblue" d="M300.462,-191.456C324.148,-176.188 373.079,-146.145 418,-128 424.145,-125.518 430.617,-123.205 437.167,-121.068"/>
<polygon fill="midnightblue" stroke="midnightblue" points="438.288,-124.385 446.791,-118.065 436.202,-117.703 438.288,-124.385"/>
</g>
<!-- Node12 -->
<g id="node12" class="node"><title>Node12</title>
<g id="a_node12"><a xlink:href="../../d9/dc0/interfaceparser_1_1_tree_wrapper.html#a48f9f037c84b1fecfdefcb3268640f88" target="_top" xlink:title="parser.TreeWrapper.recurse">
<polygon fill="white" stroke="black" points="439,-49.5 439,-68.5 585,-68.5 585,-49.5 439,-49.5"/>
<text text-anchor="middle" x="512" y="-56.5" font-family="Helvetica,sans-Serif" font-size="10.00">parser.TreeWrapper.recurse</text>
</a>
</g>
</g>
<!-- Node6&#45;&gt;Node12 -->
<g id="edge12" class="edge"><title>Node6&#45;&gt;Node12</title>
<path fill="none" stroke="midnightblue" d="M293.095,-191.46C311.103,-167.997 361.198,-107.271 418,-78 422.553,-75.654 427.37,-73.5976 432.322,-71.795"/>
<polygon fill="midnightblue" stroke="midnightblue" points="433.561,-75.0721 441.974,-68.6321 431.382,-68.4201 433.561,-75.0721"/>
</g>
<!-- Node13 -->
<g id="node13" class="node"><title>Node13</title>
<g id="a_node13"><a xlink:href="../../d5/d30/classparser_1_1_command_case.html#a9afa1f06d36261ade7169970904fabee" target="_top" xlink:title="parser.CommandCase.useResource\lBundle">
<polygon fill="white" stroke="black" points="418,-0 418,-30 606,-30 606,-0 418,-0"/>
<text text-anchor="start" x="426" y="-18" font-family="Helvetica,sans-Serif" font-size="10.00">parser.CommandCase.useResource</text>
<text text-anchor="middle" x="512" y="-7" font-family="Helvetica,sans-Serif" font-size="10.00">Bundle</text>
</a>
</g>
</g>
<!-- Node6&#45;&gt;Node13 -->
<g id="edge13" class="edge"><title>Node6&#45;&gt;Node13</title>
<path fill="none" stroke="midnightblue" d="M291.078,-191.261C306.259,-163.135 354.233,-81.173 418,-40 421.303,-37.8674 424.784,-35.9156 428.382,-34.1295"/>
<polygon fill="midnightblue" stroke="midnightblue" points="429.843,-37.31 437.533,-30.022 426.977,-30.9237 429.843,-37.31"/>
</g>
</g>
</svg>
