<?xml version="1.0" encoding="UTF-8" standalone="no"?>
<!DOCTYPE svg PUBLIC "-//W3C//DTD SVG 1.1//EN"
 "http://www.w3.org/Graphics/SVG/1.1/DTD/svg11.dtd">
<!-- Generated by graphviz version 2.36.0 (20140111.2315)
 -->
<!-- Title: parser.TreeGenerator.getMethodsList Pages: 1 -->
<svg width="2846pt" height="88pt"
 viewBox="0.00 0.00 2846.00 88.00" xmlns="http://www.w3.org/2000/svg" xmlns:xlink="http://www.w3.org/1999/xlink">
<g id="graph0" class="graph" transform="scale(1 1) rotate(0) translate(4 84)">
<title>parser.TreeGenerator.getMethodsList</title>
<polygon fill="white" stroke="none" points="-4,4 -4,-84 2842,-84 2842,4 -4,4"/>
<!-- Node1 -->
<g id="node1" class="node"><title>Node1</title>
<polygon fill="#bfbfbf" stroke="black" points="0,-36 0,-66 136,-66 136,-36 0,-36"/>
<text text-anchor="start" x="8" y="-54" font-family="Helvetica,sans-Serif" font-size="10.00">parser.TreeGenerator.get</text>
<text text-anchor="middle" x="68" y="-43" font-family="Helvetica,sans-Serif" font-size="10.00">MethodsList</text>
</g>
<!-- Node2 -->
<g id="node2" class="node"><title>Node2</title>
<g id="a_node2"><a xlink:href="../../d9/df7/classcontroller_1_1_controller.html#a3d81fb1a57114f96fb6c319f4c5df370" target="_top" xlink:title="controller.Controller.parse\lCommand">
<polygon fill="white" stroke="black" points="172,-36 172,-66 312,-66 312,-36 172,-36"/>
<text text-anchor="start" x="180" y="-54" font-family="Helvetica,sans-Serif" font-size="10.00">controller.Controller.parse</text>
<text text-anchor="middle" x="242" y="-43" font-family="Helvetica,sans-Serif" font-size="10.00">Command</text>
</a>
</g>
</g>
<!-- Node1&#45;&gt;Node2 -->
<g id="edge1" class="edge"><title>Node1&#45;&gt;Node2</title>
<path fill="none" stroke="midnightblue" d="M146.62,-51C154.99,-51 163.467,-51 171.729,-51"/>
<polygon fill="midnightblue" stroke="midnightblue" points="146.485,-47.5001 136.485,-51 146.485,-54.5001 146.485,-47.5001"/>
</g>
<!-- Node3 -->
<g id="node3" class="node"><title>Node3</title>
<g id="a_node3"><a xlink:href="../../d5/d06/classui_1_1_scene_updater.html#ab77a04f8b0038429b09237aac18906e8" target="_top" xlink:title="ui.SceneUpdater.sendCommands">
<polygon fill="white" stroke="black" points="348,-41.5 348,-60.5 526,-60.5 526,-41.5 348,-41.5"/>
<text text-anchor="middle" x="437" y="-48.5" font-family="Helvetica,sans-Serif" font-size="10.00">ui.SceneUpdater.sendCommands</text>
</a>
</g>
</g>
<!-- Node2&#45;&gt;Node3 -->
<g id="edge2" class="edge"><title>Node2&#45;&gt;Node3</title>
<path fill="none" stroke="midnightblue" d="M322.294,-51C330.713,-51 339.313,-51 347.825,-51"/>
<polygon fill="midnightblue" stroke="midnightblue" points="322.132,-47.5001 312.132,-51 322.132,-54.5001 322.132,-47.5001"/>
</g>
<!-- Node4 -->
<g id="node4" class="node"><title>Node4</title>
<g id="a_node4"><a xlink:href="../../dc/d3b/classui_1_1_g_u_i.html#ad8f08a79a20a498bcaafdc7e2e2ce0a9" target="_top" xlink:title="ui.GUI.parseCommand">
<polygon fill="white" stroke="black" points="562.5,-41.5 562.5,-60.5 687.5,-60.5 687.5,-41.5 562.5,-41.5"/>
<text text-anchor="middle" x="625" y="-48.5" font-family="Helvetica,sans-Serif" font-size="10.00">ui.GUI.parseCommand</text>
</a>
</g>
</g>
<!-- Node3&#45;&gt;Node4 -->
<g id="edge3" class="edge"><title>Node3&#45;&gt;Node4</title>
<path fill="none" stroke="midnightblue" d="M536.196,-51C545.132,-51 554.003,-51 562.479,-51"/>
<polygon fill="midnightblue" stroke="midnightblue" points="536.098,-47.5001 526.098,-51 536.098,-54.5001 536.098,-47.5001"/>
</g>
<!-- Node5 -->
<g id="node5" class="node"><title>Node5</title>
<g id="a_node5"><a xlink:href="../../d8/d3c/classui_1_1elements_1_1_i_o_element.html#a139a046f0c771f86696f2eee04047c64" target="_top" xlink:title="ui.elements.IOElement.init">
<polygon fill="white" stroke="black" points="740.5,-60.5 740.5,-79.5 883.5,-79.5 883.5,-60.5 740.5,-60.5"/>
<text text-anchor="middle" x="812" y="-67.5" font-family="Helvetica,sans-Serif" font-size="10.00">ui.elements.IOElement.init</text>
</a>
</g>
</g>
<!-- Node4&#45;&gt;Node5 -->
<g id="edge4" class="edge"><title>Node4&#45;&gt;Node5</title>
<path fill="none" stroke="midnightblue" d="M697.677,-58.3614C711.703,-59.8019 726.403,-61.3116 740.393,-62.7485"/>
<polygon fill="midnightblue" stroke="midnightblue" points="697.908,-54.8668 687.602,-57.3267 697.192,-61.8302 697.908,-54.8668"/>
</g>
<!-- Node7 -->
<g id="node7" class="node"><title>Node7</title>
<g id="a_node7"><a xlink:href="../../dc/d3b/classui_1_1_g_u_i.html#ab8ec2a37b3d5bd9e8c2abbb3642fb965" target="_top" xlink:title="ui.GUI.setupKeyboardCommands">
<polygon fill="white" stroke="black" points="724.5,-22.5 724.5,-41.5 899.5,-41.5 899.5,-22.5 724.5,-22.5"/>
<text text-anchor="middle" x="812" y="-29.5" font-family="Helvetica,sans-Serif" font-size="10.00">ui.GUI.setupKeyboardCommands</text>
</a>
</g>
</g>
<!-- Node4&#45;&gt;Node7 -->
<g id="edge6" class="edge"><title>Node4&#45;&gt;Node7</title>
<path fill="none" stroke="midnightblue" d="M697.694,-43.6368C706.41,-42.7417 715.385,-41.8199 724.289,-40.9054"/>
<polygon fill="midnightblue" stroke="midnightblue" points="697.192,-40.1698 687.602,-44.6733 697.908,-47.1332 697.192,-40.1698"/>
</g>
<!-- Node6 -->
<g id="node6" class="node"><title>Node6</title>
<g id="a_node6"><a xlink:href="../../d8/d3c/classui_1_1elements_1_1_i_o_element.html#a556e1a3ad292fe3ab731065eef59b187" target="_top" xlink:title="ui.elements.IOElement.IOElement">
<polygon fill="white" stroke="black" points="936,-60.5 936,-79.5 1114,-79.5 1114,-60.5 936,-60.5"/>
<text text-anchor="middle" x="1025" y="-67.5" font-family="Helvetica,sans-Serif" font-size="10.00">ui.elements.IOElement.IOElement</text>
</a>
</g>
</g>
<!-- Node5&#45;&gt;Node6 -->
<g id="edge5" class="edge"><title>Node5&#45;&gt;Node6</title>
<path fill="none" stroke="midnightblue" d="M893.922,-70C907.652,-70 921.971,-70 935.876,-70"/>
<polygon fill="midnightblue" stroke="midnightblue" points="893.553,-66.5001 883.553,-70 893.553,-73.5001 893.553,-66.5001"/>
</g>
<!-- Node8 -->
<g id="node8" class="node"><title>Node8</title>
<g id="a_node8"><a xlink:href="../../dc/d3b/classui_1_1_g_u_i.html#a765d554102f38969231261686f2f8e27" target="_top" xlink:title="ui.GUI.initialize">
<polygon fill="white" stroke="black" points="982,-22.5 982,-41.5 1068,-41.5 1068,-22.5 982,-22.5"/>
<text text-anchor="middle" x="1025" y="-29.5" font-family="Helvetica,sans-Serif" font-size="10.00">ui.GUI.initialize</text>
</a>
</g>
</g>
<!-- Node7&#45;&gt;Node8 -->
<g id="edge7" class="edge"><title>Node7&#45;&gt;Node8</title>
<path fill="none" stroke="midnightblue" d="M909.748,-32C935.016,-32 960.959,-32 981.724,-32"/>
<polygon fill="midnightblue" stroke="midnightblue" points="909.735,-28.5001 899.735,-32 909.735,-35.5001 909.735,-28.5001"/>
</g>
<!-- Node9 -->
<g id="node9" class="node"><title>Node9</title>
<g id="a_node9"><a xlink:href="../../d5/d06/classui_1_1_scene_updater.html#aeef5dd7a8ec2ad6179e33fdd71ea90d6" target="_top" xlink:title="ui.SceneUpdater.initGUI">
<polygon fill="white" stroke="black" points="1150.5,-22.5 1150.5,-41.5 1281.5,-41.5 1281.5,-22.5 1150.5,-22.5"/>
<text text-anchor="middle" x="1216" y="-29.5" font-family="Helvetica,sans-Serif" font-size="10.00">ui.SceneUpdater.initGUI</text>
</a>
</g>
</g>
<!-- Node8&#45;&gt;Node9 -->
<g id="edge8" class="edge"><title>Node8&#45;&gt;Node9</title>
<path fill="none" stroke="midnightblue" d="M1078.67,-32C1100.92,-32 1127.05,-32 1150.45,-32"/>
<polygon fill="midnightblue" stroke="midnightblue" points="1078.42,-28.5001 1068.42,-32 1078.42,-35.5001 1078.42,-28.5001"/>
</g>
<!-- Node10 -->
<g id="node10" class="node"><title>Node10</title>
<g id="a_node10"><a xlink:href="../../d9/df7/classcontroller_1_1_controller.html#a57e42ba83ee2145e6262cd72eac59570" target="_top" xlink:title="controller.Controller.init">
<polygon fill="white" stroke="black" points="1318.5,-22.5 1318.5,-41.5 1445.5,-41.5 1445.5,-22.5 1318.5,-22.5"/>
<text text-anchor="middle" x="1382" y="-29.5" font-family="Helvetica,sans-Serif" font-size="10.00">controller.Controller.init</text>
</a>
</g>
</g>
<!-- Node9&#45;&gt;Node10 -->
<g id="edge9" class="edge"><title>Node9&#45;&gt;Node10</title>
<path fill="none" stroke="midnightblue" d="M1292.04,-32C1300.81,-32 1309.68,-32 1318.26,-32"/>
<polygon fill="midnightblue" stroke="midnightblue" points="1291.82,-28.5001 1281.82,-32 1291.82,-35.5001 1291.82,-28.5001"/>
</g>
<!-- Node11 -->
<g id="node11" class="node"><title>Node11</title>
<g id="a_node11"><a xlink:href="../../dd/df2/classmain_1_1_workspace_manager.html#abc818b59211f6e14940b86a42bb868d0" target="_top" xlink:title="main.WorkspaceManager.create\lWorkspace">
<polygon fill="white" stroke="black" points="1482,-17 1482,-47 1652,-47 1652,-17 1482,-17"/>
<text text-anchor="start" x="1490" y="-35" font-family="Helvetica,sans-Serif" font-size="10.00">main.WorkspaceManager.create</text>
<text text-anchor="middle" x="1567" y="-24" font-family="Helvetica,sans-Serif" font-size="10.00">Workspace</text>
</a>
</g>
</g>
<!-- Node10&#45;&gt;Node11 -->
<g id="edge10" class="edge"><title>Node10&#45;&gt;Node11</title>
<path fill="none" stroke="midnightblue" d="M1455.92,-32C1464.39,-32 1473.08,-32 1481.69,-32"/>
<polygon fill="midnightblue" stroke="midnightblue" points="1455.72,-28.5001 1445.72,-32 1455.72,-35.5001 1455.72,-28.5001"/>
</g>
<!-- Node12 -->
<g id="node12" class="node"><title>Node12</title>
<g id="a_node12"><a xlink:href="../../d9/df7/classcontroller_1_1_controller.html#a3a9d672bb57047df70945ad1a9582c9a" target="_top" xlink:title="controller.Controller.create\lNewWorkspace">
<polygon fill="white" stroke="black" points="1688.5,-39 1688.5,-69 1831.5,-69 1831.5,-39 1688.5,-39"/>
<text text-anchor="start" x="1696.5" y="-57" font-family="Helvetica,sans-Serif" font-size="10.00">controller.Controller.create</text>
<text text-anchor="middle" x="1760" y="-46" font-family="Helvetica,sans-Serif" font-size="10.00">NewWorkspace</text>
</a>
</g>
</g>
<!-- Node11&#45;&gt;Node12 -->
<g id="edge11" class="edge"><title>Node11&#45;&gt;Node12</title>
<path fill="none" stroke="midnightblue" d="M1662.03,-42.8303C1670.88,-43.8503 1679.75,-44.8721 1688.34,-45.8608"/>
<polygon fill="midnightblue" stroke="midnightblue" points="1662.39,-39.3489 1652.05,-41.6815 1661.59,-46.3029 1662.39,-39.3489"/>
</g>
<!-- Node18 -->
<g id="node18" class="node"><title>Node18</title>
<g id="a_node18"><a xlink:href="../../d1/d0b/classmain_1_1_main.html#a9f1e5657b2f6f9bdd69a3b6412ceda74" target="_top" xlink:title="main.Main.start">
<polygon fill="white" stroke="black" points="1714,-0.5 1714,-19.5 1806,-19.5 1806,-0.5 1714,-0.5"/>
<text text-anchor="middle" x="1760" y="-7.5" font-family="Helvetica,sans-Serif" font-size="10.00">main.Main.start</text>
</a>
</g>
</g>
<!-- Node11&#45;&gt;Node18 -->
<g id="edge17" class="edge"><title>Node11&#45;&gt;Node18</title>
<path fill="none" stroke="midnightblue" d="M1662.09,-21.1629C1680.19,-19.0779 1698.36,-16.9851 1713.99,-15.1843"/>
<polygon fill="midnightblue" stroke="midnightblue" points="1661.59,-17.6971 1652.05,-22.3185 1662.39,-24.6511 1661.59,-17.6971"/>
</g>
<!-- Node13 -->
<g id="node13" class="node"><title>Node13</title>
<g id="a_node13"><a xlink:href="../../d5/d06/classui_1_1_scene_updater.html#a2858ad8edb0c0f59a21e2ae015f2fa1e" target="_top" xlink:title="ui.SceneUpdater.createNew\lWorkspace">
<polygon fill="white" stroke="black" points="1868,-39 1868,-69 2018,-69 2018,-39 1868,-39"/>
<text text-anchor="start" x="1876" y="-57" font-family="Helvetica,sans-Serif" font-size="10.00">ui.SceneUpdater.createNew</text>
<text text-anchor="middle" x="1943" y="-46" font-family="Helvetica,sans-Serif" font-size="10.00">Workspace</text>
</a>
</g>
</g>
<!-- Node12&#45;&gt;Node13 -->
<g id="edge12" class="edge"><title>Node12&#45;&gt;Node13</title>
<path fill="none" stroke="midnightblue" d="M1841.8,-54C1850.43,-54 1859.17,-54 1867.71,-54"/>
<polygon fill="midnightblue" stroke="midnightblue" points="1841.76,-50.5001 1831.76,-54 1841.76,-57.5001 1841.76,-50.5001"/>
</g>
<!-- Node14 -->
<g id="node14" class="node"><title>Node14</title>
<g id="a_node14"><a xlink:href="../../dc/d3b/classui_1_1_g_u_i.html#a2edc294ba07311e6c4b85c9fe749d1bf" target="_top" xlink:title="ui.GUI.createNewWorkspace">
<polygon fill="white" stroke="black" points="2054,-44.5 2054,-63.5 2204,-63.5 2204,-44.5 2054,-44.5"/>
<text text-anchor="middle" x="2129" y="-51.5" font-family="Helvetica,sans-Serif" font-size="10.00">ui.GUI.createNewWorkspace</text>
</a>
</g>
</g>
<!-- Node13&#45;&gt;Node14 -->
<g id="edge13" class="edge"><title>Node13&#45;&gt;Node14</title>
<path fill="none" stroke="midnightblue" d="M2028.07,-54C2036.65,-54 2045.34,-54 2053.81,-54"/>
<polygon fill="midnightblue" stroke="midnightblue" points="2028.04,-50.5001 2018.04,-54 2028.04,-57.5001 2028.04,-50.5001"/>
</g>
<!-- Node15 -->
<g id="node15" class="node"><title>Node15</title>
<g id="a_node15"><a xlink:href="../../d0/de6/classui_1_1elements_1_1_menu_bar_element.html#a98c13995a31d997aa10f2950583da6cc" target="_top" xlink:title="ui.elements.MenuBarElement.make\lMenuBar">
<polygon fill="white" stroke="black" points="2240,-39 2240,-69 2428,-69 2428,-39 2240,-39"/>
<text text-anchor="start" x="2248" y="-57" font-family="Helvetica,sans-Serif" font-size="10.00">ui.elements.MenuBarElement.make</text>
<text text-anchor="middle" x="2334" y="-46" font-family="Helvetica,sans-Serif" font-size="10.00">MenuBar</text>
</a>
</g>
</g>
<!-- Node14&#45;&gt;Node15 -->
<g id="edge14" class="edge"><title>Node14&#45;&gt;Node15</title>
<path fill="none" stroke="midnightblue" d="M2214.28,-54C2222.66,-54 2231.21,-54 2239.68,-54"/>
<polygon fill="midnightblue" stroke="midnightblue" points="2214.15,-50.5001 2204.15,-54 2214.15,-57.5001 2214.15,-50.5001"/>
</g>
<!-- Node16 -->
<g id="node16" class="node"><title>Node16</title>
<g id="a_node16"><a xlink:href="../../d0/de6/classui_1_1elements_1_1_menu_bar_element.html#a7bdb58f78cf8b61ba28498c5c86ab682" target="_top" xlink:title="ui.elements.MenuBarElement.init">
<polygon fill="white" stroke="black" points="2464,-44.5 2464,-63.5 2640,-63.5 2640,-44.5 2464,-44.5"/>
<text text-anchor="middle" x="2552" y="-51.5" font-family="Helvetica,sans-Serif" font-size="10.00">ui.elements.MenuBarElement.init</text>
</a>
</g>
</g>
<!-- Node15&#45;&gt;Node16 -->
<g id="edge15" class="edge"><title>Node15&#45;&gt;Node16</title>
<path fill="none" stroke="midnightblue" d="M2438.23,-54C2446.83,-54 2455.48,-54 2463.94,-54"/>
<polygon fill="midnightblue" stroke="midnightblue" points="2438.17,-50.5001 2428.17,-54 2438.17,-57.5001 2438.17,-50.5001"/>
</g>
<!-- Node17 -->
<g id="node17" class="node"><title>Node17</title>
<g id="a_node17"><a xlink:href="../../d0/de6/classui_1_1elements_1_1_menu_bar_element.html#ab4a4e6841c924a9d9c70b8073b56dffc" target="_top" xlink:title="ui.elements.MenuBarElement.\lMenuBarElement">
<polygon fill="white" stroke="black" points="2676.5,-39 2676.5,-69 2837.5,-69 2837.5,-39 2676.5,-39"/>
<text text-anchor="start" x="2684.5" y="-57" font-family="Helvetica,sans-Serif" font-size="10.00">ui.elements.MenuBarElement.</text>
<text text-anchor="middle" x="2757" y="-46" font-family="Helvetica,sans-Serif" font-size="10.00">MenuBarElement</text>
</a>
</g>
</g>
<!-- Node16&#45;&gt;Node17 -->
<g id="edge16" class="edge"><title>Node16&#45;&gt;Node17</title>
<path fill="none" stroke="midnightblue" d="M2650.47,-54C2659.19,-54 2667.95,-54 2676.5,-54"/>
<polygon fill="midnightblue" stroke="midnightblue" points="2650.27,-50.5001 2640.27,-54 2650.27,-57.5001 2650.27,-50.5001"/>
</g>
</g>
</svg>
