<?xml version="1.0" encoding="UTF-8" standalone="no"?>
<!DOCTYPE svg PUBLIC "-//W3C//DTD SVG 1.1//EN"
 "http://www.w3.org/Graphics/SVG/1.1/DTD/svg11.dtd">
<!-- Generated by graphviz version 2.36.0 (20140111.2315)
 -->
<!-- Title: command.turtle.ForwardCommand.calculateValue Pages: 1 -->
<svg width="412pt" height="191pt"
 viewBox="0.00 0.00 412.00 191.00" xmlns="http://www.w3.org/2000/svg" xmlns:xlink="http://www.w3.org/1999/xlink">
<g id="graph0" class="graph" transform="scale(1 1) rotate(0) translate(4 187)">
<title>command.turtle.ForwardCommand.calculateValue</title>
<polygon fill="white" stroke="none" points="-4,4 -4,-187 408,-187 408,4 -4,4"/>
<!-- Node1 -->
<g id="node1" class="node"><title>Node1</title>
<polygon fill="#bfbfbf" stroke="black" points="0,-82 0,-112 230,-112 230,-82 0,-82"/>
<text text-anchor="start" x="8" y="-100" font-family="Helvetica,sans-Serif" font-size="10.00">command.turtle.ForwardCommand.calculate</text>
<text text-anchor="middle" x="115" y="-89" font-family="Helvetica,sans-Serif" font-size="10.00">Value</text>
</g>
<!-- Node2 -->
<g id="node2" class="node"><title>Node2</title>
<g id="a_node2"><a xlink:href="../../d6/d34/classmodel_1_1_turtle.html#a1c5d07962ede5fbfacc59413274d4300" target="_top" xlink:title="model.Turtle.getHeading">
<polygon fill="white" stroke="black" points="268,-163.5 268,-182.5 402,-182.5 402,-163.5 268,-163.5"/>
<text text-anchor="middle" x="335" y="-170.5" font-family="Helvetica,sans-Serif" font-size="10.00">model.Turtle.getHeading</text>
</a>
</g>
</g>
<!-- Node1&#45;&gt;Node2 -->
<g id="edge1" class="edge"><title>Node1&#45;&gt;Node2</title>
<path fill="none" stroke="midnightblue" d="M152.959,-112.118C183.117,-124.193 226.966,-141.16 266,-154 272.965,-156.291 280.387,-158.549 287.672,-160.663"/>
<polygon fill="midnightblue" stroke="midnightblue" points="286.891,-164.08 297.467,-163.448 288.806,-157.347 286.891,-164.08"/>
</g>
<!-- Node3 -->
<g id="node3" class="node"><title>Node3</title>
<g id="a_node3"><a xlink:href="../../d6/d34/classmodel_1_1_turtle.html#a5c92e7274d592bbd3df40913004dfa71" target="_top" xlink:title="model.Turtle.getX">
<polygon fill="white" stroke="black" points="285,-125.5 285,-144.5 385,-144.5 385,-125.5 285,-125.5"/>
<text text-anchor="middle" x="335" y="-132.5" font-family="Helvetica,sans-Serif" font-size="10.00">model.Turtle.getX</text>
</a>
</g>
</g>
<!-- Node1&#45;&gt;Node3 -->
<g id="edge2" class="edge"><title>Node1&#45;&gt;Node3</title>
<path fill="none" stroke="midnightblue" d="M202.159,-112.019C226.516,-116.264 252.466,-120.788 274.844,-124.688"/>
<polygon fill="midnightblue" stroke="midnightblue" points="274.403,-128.164 284.856,-126.434 275.605,-121.268 274.403,-128.164"/>
</g>
<!-- Node4 -->
<g id="node4" class="node"><title>Node4</title>
<g id="a_node4"><a xlink:href="../../d6/d34/classmodel_1_1_turtle.html#a60ba63667ad6fe29a4570821539db8c8" target="_top" xlink:title="model.Turtle.getY">
<polygon fill="white" stroke="black" points="285.5,-87.5 285.5,-106.5 384.5,-106.5 384.5,-87.5 285.5,-87.5"/>
<text text-anchor="middle" x="335" y="-94.5" font-family="Helvetica,sans-Serif" font-size="10.00">model.Turtle.getY</text>
</a>
</g>
</g>
<!-- Node1&#45;&gt;Node4 -->
<g id="edge3" class="edge"><title>Node1&#45;&gt;Node4</title>
<path fill="none" stroke="midnightblue" d="M230.108,-97C245.623,-97 261,-97 274.978,-97"/>
<polygon fill="midnightblue" stroke="midnightblue" points="275.373,-100.5 285.373,-97 275.373,-93.5001 275.373,-100.5"/>
</g>
<!-- Node5 -->
<g id="node5" class="node"><title>Node5</title>
<g id="a_node5"><a xlink:href="../../d6/d34/classmodel_1_1_turtle.html#a964ce9be930d2ad7c46f0700564bf73c" target="_top" xlink:title="model.Turtle.setXY">
<polygon fill="white" stroke="black" points="283,-49.5 283,-68.5 387,-68.5 387,-49.5 283,-49.5"/>
<text text-anchor="middle" x="335" y="-56.5" font-family="Helvetica,sans-Serif" font-size="10.00">model.Turtle.setXY</text>
</a>
</g>
</g>
<!-- Node1&#45;&gt;Node5 -->
<g id="edge4" class="edge"><title>Node1&#45;&gt;Node5</title>
<path fill="none" stroke="midnightblue" d="M202.159,-81.9814C225.897,-77.8437 251.148,-73.4422 273.13,-69.6103"/>
<polygon fill="midnightblue" stroke="midnightblue" points="273.733,-73.0581 282.983,-67.8928 272.531,-66.1621 273.733,-73.0581"/>
</g>
<!-- Node6 -->
<g id="node6" class="node"><title>Node6</title>
<g id="a_node6"><a xlink:href="../../d6/d34/classmodel_1_1_turtle.html#ab69148692c7de79ad6c276902b81553a" target="_top" xlink:title="model.Turtle.updateTurtle\lViewers">
<polygon fill="white" stroke="black" points="266.5,-0 266.5,-30 403.5,-30 403.5,-0 266.5,-0"/>
<text text-anchor="start" x="274.5" y="-18" font-family="Helvetica,sans-Serif" font-size="10.00">model.Turtle.updateTurtle</text>
<text text-anchor="middle" x="335" y="-7" font-family="Helvetica,sans-Serif" font-size="10.00">Viewers</text>
</a>
</g>
</g>
<!-- Node1&#45;&gt;Node6 -->
<g id="edge5" class="edge"><title>Node1&#45;&gt;Node6</title>
<path fill="none" stroke="midnightblue" d="M155.434,-81.8817C185.659,-70.3259 228.423,-54.0466 266,-40 271.51,-37.9404 277.276,-35.7989 283.021,-33.6743"/>
<polygon fill="midnightblue" stroke="midnightblue" points="284.45,-36.8778 292.62,-30.1321 282.026,-30.3106 284.45,-36.8778"/>
</g>
</g>
</svg>
