<?xml version="1.0" encoding="UTF-8" standalone="no"?>
<!DOCTYPE svg PUBLIC "-//W3C//DTD SVG 1.1//EN"
 "http://www.w3.org/Graphics/SVG/1.1/DTD/svg11.dtd">
<!-- Generated by graphviz version 2.36.0 (20140111.2315)
 -->
<!-- Title: ui.elements.IOElement Pages: 1 -->
<svg width="402pt" height="96pt"
 viewBox="0.00 0.00 402.00 96.00" xmlns="http://www.w3.org/2000/svg" xmlns:xlink="http://www.w3.org/1999/xlink">
<g id="graph0" class="graph" transform="scale(1 1) rotate(0) translate(4 92)">
<title>ui.elements.IOElement</title>
<polygon fill="white" stroke="none" points="-4,4 -4,-92 398,-92 398,4 -4,4"/>
<!-- Node1 -->
<g id="node1" class="node"><title>Node1</title>
<polygon fill="#bfbfbf" stroke="black" points="133.5,-0.5 133.5,-19.5 258.5,-19.5 258.5,-0.5 133.5,-0.5"/>
<text text-anchor="middle" x="196" y="-7.5" font-family="Helvetica,sans-Serif" font-size="10.00">ui.elements.IOElement</text>
</g>
<!-- Node2 -->
<g id="node2" class="node"><title>Node2</title>
<polygon fill="white" stroke="#bfbfbf" points="-0.5,-68.5 -0.5,-87.5 40.5,-87.5 40.5,-68.5 -0.5,-68.5"/>
<text text-anchor="middle" x="20" y="-75.5" font-family="Helvetica,sans-Serif" font-size="10.00">VBox</text>
</g>
<!-- Node2&#45;&gt;Node1 -->
<g id="edge1" class="edge"><title>Node2&#45;&gt;Node1</title>
<path fill="none" stroke="#9a32cd" stroke-dasharray="5,2" d="M35.5838,-61.4802C44.6305,-53.3187 56.6535,-43.8255 69,-38 88.9783,-28.5735 112.272,-22.4074 133.415,-18.387"/>
<polygon fill="#9a32cd" stroke="#9a32cd" points="33.0602,-59.0493 28.1885,-68.4577 37.864,-64.1408 33.0602,-59.0493"/>
<text text-anchor="middle" x="91" y="-41.5" font-family="Helvetica,sans-Serif" font-size="10.00"> myNode</text>
</g>
<!-- Node3 -->
<g id="node3" class="node"><title>Node3</title>
<polygon fill="white" stroke="#bfbfbf" points="58.5,-68.5 58.5,-87.5 151.5,-87.5 151.5,-68.5 58.5,-68.5"/>
<text text-anchor="middle" x="105" y="-75.5" font-family="Helvetica,sans-Serif" font-size="10.00">ResourceBundle</text>
</g>
<!-- Node3&#45;&gt;Node1 -->
<g id="edge2" class="edge"><title>Node3&#45;&gt;Node1</title>
<path fill="none" stroke="#9a32cd" stroke-dasharray="5,2" d="M111.382,-59.145C114.766,-51.7809 119.575,-43.6635 126,-38 135.576,-29.5591 148.078,-23.624 159.863,-19.5132"/>
<polygon fill="#9a32cd" stroke="#9a32cd" points="108.137,-57.8359 107.635,-68.4188 114.627,-60.4586 108.137,-57.8359"/>
<text text-anchor="middle" x="159.5" y="-41.5" font-family="Helvetica,sans-Serif" font-size="10.00"> myResources</text>
</g>
<!-- Node4 -->
<g id="node4" class="node"><title>Node4</title>
<polygon fill="white" stroke="#bfbfbf" points="169,-68.5 169,-87.5 225,-87.5 225,-68.5 169,-68.5"/>
<text text-anchor="middle" x="197" y="-75.5" font-family="Helvetica,sans-Serif" font-size="10.00">TextField</text>
</g>
<!-- Node4&#45;&gt;Node1 -->
<g id="edge3" class="edge"><title>Node4&#45;&gt;Node1</title>
<path fill="none" stroke="#9a32cd" stroke-dasharray="5,2" d="M196.713,-58.0413C196.522,-45.4724 196.281,-29.5631 196.134,-19.8411"/>
<polygon fill="#9a32cd" stroke="#9a32cd" points="193.218,-58.4259 196.869,-68.3717 200.217,-58.3197 193.218,-58.4259"/>
<text text-anchor="middle" x="221.5" y="-41.5" font-family="Helvetica,sans-Serif" font-size="10.00"> inputField</text>
</g>
<!-- Node5 -->
<g id="node5" class="node"><title>Node5</title>
<polygon fill="white" stroke="#bfbfbf" points="243.5,-68.5 243.5,-87.5 292.5,-87.5 292.5,-68.5 243.5,-68.5"/>
<text text-anchor="middle" x="268" y="-75.5" font-family="Helvetica,sans-Serif" font-size="10.00">Button</text>
</g>
<!-- Node5&#45;&gt;Node1 -->
<g id="edge4" class="edge"><title>Node5&#45;&gt;Node1</title>
<path fill="none" stroke="#9a32cd" stroke-dasharray="5,2" d="M260.4,-58.7653C256.798,-51.669 251.964,-43.8544 246,-38 238.115,-30.2596 227.559,-24.124 218.179,-19.6707"/>
<polygon fill="#9a32cd" stroke="#9a32cd" points="257.437,-60.7019 264.784,-68.3362 263.802,-57.7869 257.437,-60.7019"/>
<text text-anchor="middle" x="288" y="-41.5" font-family="Helvetica,sans-Serif" font-size="10.00"> confirmInput</text>
</g>
<!-- Node6 -->
<g id="node6" class="node"><title>Node6</title>
<polygon fill="white" stroke="#bfbfbf" points="337.5,-68.5 337.5,-87.5 372.5,-87.5 372.5,-68.5 337.5,-68.5"/>
<text text-anchor="middle" x="355" y="-75.5" font-family="Helvetica,sans-Serif" font-size="10.00">Text</text>
</g>
<!-- Node6&#45;&gt;Node1 -->
<g id="edge5" class="edge"><title>Node6&#45;&gt;Node1</title>
<path fill="none" stroke="#9a32cd" stroke-dasharray="5,2" d="M345.239,-59.872C339.931,-52.0522 332.673,-43.3597 324,-38 304.584,-26.001 280.685,-19.2619 258.816,-15.5021"/>
<polygon fill="#9a32cd" stroke="#9a32cd" points="342.289,-61.7553 350.542,-68.3989 348.233,-58.0586 342.289,-61.7553"/>
<text text-anchor="middle" x="366" y="-41.5" font-family="Helvetica,sans-Serif" font-size="10.00"> outputField</text>
</g>
</g>
</svg>
