<?xml version="1.0" encoding="UTF-8" standalone="no"?>
<!DOCTYPE svg PUBLIC "-//W3C//DTD SVG 1.1//EN"
 "http://www.w3.org/Graphics/SVG/1.1/DTD/svg11.dtd">
<!-- Generated by graphviz version 2.36.0 (20140111.2315)
 -->
<!-- Title: ui.TurtleView Pages: 1 -->
<svg width="556pt" height="174pt"
 viewBox="0.00 0.00 556.00 174.00" xmlns="http://www.w3.org/2000/svg" xmlns:xlink="http://www.w3.org/1999/xlink">
<g id="graph0" class="graph" transform="scale(1 1) rotate(0) translate(4 170)">
<title>ui.TurtleView</title>
<polygon fill="white" stroke="none" points="-4,4 -4,-170 552,-170 552,4 -4,4"/>
<!-- Node1 -->
<g id="node1" class="node"><title>Node1</title>
<polygon fill="#bfbfbf" stroke="black" points="248.5,-0.5 248.5,-19.5 323.5,-19.5 323.5,-0.5 248.5,-0.5"/>
<text text-anchor="middle" x="286" y="-7.5" font-family="Helvetica,sans-Serif" font-size="10.00">ui.TurtleView</text>
</g>
<!-- Node2 -->
<g id="node2" class="node"><title>Node2</title>
<polygon fill="white" stroke="#bfbfbf" points="35,-68.5 35,-87.5 95,-87.5 95,-68.5 35,-68.5"/>
<text text-anchor="middle" x="65" y="-75.5" font-family="Helvetica,sans-Serif" font-size="10.00">Observer</text>
</g>
<!-- Node2&#45;&gt;Node1 -->
<g id="edge1" class="edge"><title>Node2&#45;&gt;Node1</title>
<path fill="none" stroke="midnightblue" d="M96.5435,-64.8503C118.383,-56.6775 148.226,-45.9799 175,-38 199.233,-30.7773 226.862,-24.0518 248.492,-19.1197"/>
<polygon fill="midnightblue" stroke="midnightblue" points="95.2328,-61.6039 87.1123,-68.4089 97.704,-68.1532 95.2328,-61.6039"/>
</g>
<!-- Node3 -->
<g id="node3" class="node"><title>Node3</title>
<polygon fill="white" stroke="#bfbfbf" points="113.5,-68.5 113.5,-87.5 204.5,-87.5 204.5,-68.5 113.5,-68.5"/>
<text text-anchor="middle" x="159" y="-75.5" font-family="Helvetica,sans-Serif" font-size="10.00">DoubleProperty</text>
</g>
<!-- Node3&#45;&gt;Node1 -->
<g id="edge2" class="edge"><title>Node3&#45;&gt;Node1</title>
<path fill="none" stroke="#9a32cd" stroke-dasharray="5,2" d="M169.998,-59.8659C175.718,-52.1835 183.328,-43.6088 192,-38 208.823,-27.1187 230.109,-20.5321 248.169,-16.5929"/>
<polygon fill="#9a32cd" stroke="#9a32cd" points="167.013,-58.0285 164.2,-68.2432 172.769,-62.012 167.013,-58.0285"/>
<text text-anchor="middle" x="221" y="-41.5" font-family="Helvetica,sans-Serif" font-size="10.00"> myHeading</text>
</g>
<!-- Node4 -->
<g id="node4" class="node"><title>Node4</title>
<g id="a_node4"><a xlink:href="../../dd/de0/classui_1_1_pen.html" target="_top" xlink:title="ui.Pen">
<polygon fill="white" stroke="black" points="223,-68.5 223,-87.5 269,-87.5 269,-68.5 223,-68.5"/>
<text text-anchor="middle" x="246" y="-75.5" font-family="Helvetica,sans-Serif" font-size="10.00">ui.Pen</text>
</a>
</g>
</g>
<!-- Node4&#45;&gt;Node1 -->
<g id="edge3" class="edge"><title>Node4&#45;&gt;Node1</title>
<path fill="none" stroke="#9a32cd" stroke-dasharray="5,2" d="M250.198,-58.6962C252.238,-51.8886 255.109,-44.295 259,-38 263.322,-31.0076 269.791,-24.4543 275.314,-19.5554"/>
<polygon fill="#9a32cd" stroke="#9a32cd" points="246.792,-57.8871 247.65,-68.4471 253.565,-59.6567 246.792,-57.8871"/>
<text text-anchor="middle" x="277.5" y="-41.5" font-family="Helvetica,sans-Serif" font-size="10.00"> myPen</text>
</g>
<!-- Node5 -->
<g id="node5" class="node"><title>Node5</title>
<g id="a_node5"><a xlink:href="../../d8/d1e/interfaceui_1_1artists_1_1_line_draw_helper.html" target="_top" xlink:title="ui.artists.LineDrawHelper">
<polygon fill="white" stroke="black" points="0,-146.5 0,-165.5 136,-165.5 136,-146.5 0,-146.5"/>
<text text-anchor="middle" x="68" y="-153.5" font-family="Helvetica,sans-Serif" font-size="10.00">ui.artists.LineDrawHelper</text>
</a>
</g>
</g>
<!-- Node5&#45;&gt;Node4 -->
<g id="edge4" class="edge"><title>Node5&#45;&gt;Node4</title>
<path fill="none" stroke="#9a32cd" stroke-dasharray="5,2" d="M84.5203,-139.375C96.9411,-128.461 114.87,-114.395 133,-106 166.071,-90.687 177.633,-96.7968 213,-88 216.227,-87.1973 219.622,-86.3151 222.956,-85.4266"/>
<polygon fill="#9a32cd" stroke="#9a32cd" points="81.9212,-137.007 76.8665,-146.319 86.6246,-142.192 81.9212,-137.007"/>
<text text-anchor="middle" x="155" y="-120" font-family="Helvetica,sans-Serif" font-size="10.00"> myArtist</text>
<text text-anchor="middle" x="155" y="-109" font-family="Helvetica,sans-Serif" font-size="10.00">artists</text>
</g>
<!-- Node6 -->
<g id="node6" class="node"><title>Node6</title>
<polygon fill="white" stroke="#bfbfbf" points="249,-146.5 249,-165.5 301,-165.5 301,-146.5 249,-146.5"/>
<text text-anchor="middle" x="275" y="-153.5" font-family="Helvetica,sans-Serif" font-size="10.00">Canvas</text>
</g>
<!-- Node6&#45;&gt;Node1 -->
<g id="edge9" class="edge"><title>Node6&#45;&gt;Node1</title>
<path fill="none" stroke="#9a32cd" stroke-dasharray="5,2" d="M290.443,-138.566C292.724,-135.284 294.73,-131.7 296,-128 308.981,-90.1651 303.057,-77.3726 296,-38 294.871,-31.7021 292.371,-24.9521 290.153,-19.7765"/>
<polygon fill="#9a32cd" stroke="#9a32cd" points="287.655,-136.447 284.086,-146.423 293.097,-140.851 287.655,-136.447"/>
<text text-anchor="middle" x="331" y="-75.5" font-family="Helvetica,sans-Serif" font-size="10.00"> myCanvas</text>
</g>
<!-- Node6&#45;&gt;Node4 -->
<g id="edge5" class="edge"><title>Node6&#45;&gt;Node4</title>
<path fill="none" stroke="#9a32cd" stroke-dasharray="5,2" d="M251.184,-140.015C247.464,-136.549 244.146,-132.528 242,-128 235.86,-115.042 239.501,-97.9889 242.73,-87.796"/>
<polygon fill="#9a32cd" stroke="#9a32cd" points="249.132,-142.854 259.139,-146.333 253.485,-137.373 249.132,-142.854"/>
<text text-anchor="middle" x="269" y="-114.5" font-family="Helvetica,sans-Serif" font-size="10.00"> myCanvas</text>
</g>
<!-- Node7 -->
<g id="node7" class="node"><title>Node7</title>
<polygon fill="white" stroke="#bfbfbf" points="154.5,-146.5 154.5,-165.5 195.5,-165.5 195.5,-146.5 154.5,-146.5"/>
<text text-anchor="middle" x="175" y="-153.5" font-family="Helvetica,sans-Serif" font-size="10.00">Color</text>
</g>
<!-- Node7&#45;&gt;Node4 -->
<g id="edge6" class="edge"><title>Node7&#45;&gt;Node4</title>
<path fill="none" stroke="#9a32cd" stroke-dasharray="5,2" d="M177.967,-136.276C180.349,-126.333 184.576,-114.456 192,-106 200.161,-96.7059 212.271,-90.2433 222.956,-85.9766"/>
<polygon fill="#9a32cd" stroke="#9a32cd" points="174.472,-135.909 175.989,-146.394 181.342,-137.251 174.472,-135.909"/>
<text text-anchor="middle" x="213.5" y="-114.5" font-family="Helvetica,sans-Serif" font-size="10.00"> myColor</text>
</g>
<!-- Node8 -->
<g id="node8" class="node"><title>Node8</title>
<polygon fill="white" stroke="#bfbfbf" points="382,-68.5 382,-87.5 450,-87.5 450,-68.5 382,-68.5"/>
<text text-anchor="middle" x="416" y="-75.5" font-family="Helvetica,sans-Serif" font-size="10.00">ImageView</text>
</g>
<!-- Node8&#45;&gt;Node1 -->
<g id="edge7" class="edge"><title>Node8&#45;&gt;Node1</title>
<path fill="none" stroke="#9a32cd" stroke-dasharray="5,2" d="M389.781,-63.6889C363.902,-50.5502 325.094,-30.8475 302.999,-19.6305"/>
<polygon fill="#9a32cd" stroke="#9a32cd" points="388.504,-66.9655 399.005,-68.3717 391.673,-60.7238 388.504,-66.9655"/>
<text text-anchor="middle" x="398" y="-41.5" font-family="Helvetica,sans-Serif" font-size="10.00"> myImageView</text>
</g>
<!-- Node9 -->
<g id="node9" class="node"><title>Node9</title>
<polygon fill="white" stroke="#bfbfbf" points="471.5,-68.5 471.5,-87.5 538.5,-87.5 538.5,-68.5 471.5,-68.5"/>
<text text-anchor="middle" x="505" y="-75.5" font-family="Helvetica,sans-Serif" font-size="10.00">StackPane</text>
</g>
<!-- Node9&#45;&gt;Node1 -->
<g id="edge8" class="edge"><title>Node9&#45;&gt;Node1</title>
<path fill="none" stroke="#9a32cd" stroke-dasharray="5,2" d="M484.467,-62.7296C471.426,-54.3125 453.878,-44.1388 437,-38 399.71,-24.4372 354.675,-17.5158 323.543,-14.0994"/>
<polygon fill="#9a32cd" stroke="#9a32cd" points="482.827,-65.8426 493.092,-68.4654 486.703,-60.0137 482.827,-65.8426"/>
<text text-anchor="middle" x="505.5" y="-41.5" font-family="Helvetica,sans-Serif" font-size="10.00"> myCanvasHolder</text>
</g>
</g>
</svg>
