<?xml version="1.0" encoding="UTF-8" standalone="no"?>
<!DOCTYPE svg PUBLIC "-//W3C//DTD SVG 1.1//EN"
 "http://www.w3.org/Graphics/SVG/1.1/DTD/svg11.dtd">
<!-- Generated by graphviz version 2.36.0 (20140111.2315)
 -->
<!-- Title: command.control.AskWithCommand.calculateValue Pages: 1 -->
<svg width="1094pt" height="348pt"
 viewBox="0.00 0.00 1094.00 348.00" xmlns="http://www.w3.org/2000/svg" xmlns:xlink="http://www.w3.org/1999/xlink">
<g id="graph0" class="graph" transform="scale(1 1) rotate(0) translate(4 344)">
<title>command.control.AskWithCommand.calculateValue</title>
<polygon fill="white" stroke="none" points="-4,4 -4,-344 1090,-344 1090,4 -4,4"/>
<!-- Node1 -->
<g id="node1" class="node"><title>Node1</title>
<polygon fill="#bfbfbf" stroke="black" points="0,-239 0,-269 238,-269 238,-239 0,-239"/>
<text text-anchor="start" x="8" y="-257" font-family="Helvetica,sans-Serif" font-size="10.00">command.control.AskWithCommand.calculate</text>
<text text-anchor="middle" x="119" y="-246" font-family="Helvetica,sans-Serif" font-size="10.00">Value</text>
</g>
<!-- Node2 -->
<g id="node2" class="node"><title>Node2</title>
<g id="a_node2"><a xlink:href="../../d9/d88/classmodel_1_1_tree_interpreter.html#a3a8c43b61bf2582fe495cae3f27c2c06" target="_top" xlink:title="model.TreeInterpreter.get\lTurtleList">
<polygon fill="white" stroke="black" points="297,-310 297,-340 435,-340 435,-310 297,-310"/>
<text text-anchor="start" x="305" y="-328" font-family="Helvetica,sans-Serif" font-size="10.00">model.TreeInterpreter.get</text>
<text text-anchor="middle" x="366" y="-317" font-family="Helvetica,sans-Serif" font-size="10.00">TurtleList</text>
</a>
</g>
</g>
<!-- Node1&#45;&gt;Node2 -->
<g id="edge1" class="edge"><title>Node1&#45;&gt;Node2</title>
<path fill="none" stroke="midnightblue" d="M169.507,-269.091C199.661,-278.208 238.996,-289.965 274,-300 282.353,-302.395 291.152,-304.87 299.852,-307.29"/>
<polygon fill="midnightblue" stroke="midnightblue" points="299.032,-310.695 309.604,-309.992 300.901,-303.949 299.032,-310.695"/>
</g>
<!-- Node3 -->
<g id="node3" class="node"><title>Node3</title>
<g id="a_node3"><a xlink:href="../../dc/d9e/classparser_1_1_command_tree_node.html#aea6176c10780becfc79a23924bb6fdc2" target="_top" xlink:title="parser.CommandTreeNode.get\lValue">
<polygon fill="white" stroke="black" points="284,-261 284,-291 448,-291 448,-261 284,-261"/>
<text text-anchor="start" x="292" y="-279" font-family="Helvetica,sans-Serif" font-size="10.00">parser.CommandTreeNode.get</text>
<text text-anchor="middle" x="366" y="-268" font-family="Helvetica,sans-Serif" font-size="10.00">Value</text>
</a>
</g>
</g>
<!-- Node1&#45;&gt;Node3 -->
<g id="edge2" class="edge"><title>Node1&#45;&gt;Node3</title>
<path fill="none" stroke="midnightblue" d="M238.194,-264.613C250.119,-265.684 262.098,-266.76 273.679,-267.8"/>
<polygon fill="midnightblue" stroke="midnightblue" points="273.47,-271.295 283.743,-268.703 274.096,-264.323 273.47,-271.295"/>
</g>
<!-- Node4 -->
<g id="node4" class="node"><title>Node4</title>
<g id="a_node4"><a xlink:href="../../d9/d88/classmodel_1_1_tree_interpreter.html#a501df6b8cfe1a8175a9da0ed96d30d6f" target="_top" xlink:title="model.TreeInterpreter.interpretTree">
<polygon fill="white" stroke="black" points="274.5,-222.5 274.5,-241.5 457.5,-241.5 457.5,-222.5 274.5,-222.5"/>
<text text-anchor="middle" x="366" y="-229.5" font-family="Helvetica,sans-Serif" font-size="10.00">model.TreeInterpreter.interpretTree</text>
</a>
</g>
</g>
<!-- Node1&#45;&gt;Node4 -->
<g id="edge3" class="edge"><title>Node1&#45;&gt;Node4</title>
<path fill="none" stroke="midnightblue" d="M238.194,-243.387C246.901,-242.605 255.637,-241.82 264.226,-241.049"/>
<polygon fill="midnightblue" stroke="midnightblue" points="264.584,-244.531 274.231,-240.151 263.958,-237.559 264.584,-244.531"/>
</g>
<!-- Node15 -->
<g id="node15" class="node"><title>Node15</title>
<g id="a_node15"><a xlink:href="../../d9/d88/classmodel_1_1_tree_interpreter.html#ab4691e1185423c138dc3b1af224cc107" target="_top" xlink:title="model.TreeInterpreter.set\lActiveTurtleIndex">
<polygon fill="white" stroke="black" points="297.5,-173 297.5,-203 434.5,-203 434.5,-173 297.5,-173"/>
<text text-anchor="start" x="305.5" y="-191" font-family="Helvetica,sans-Serif" font-size="10.00">model.TreeInterpreter.set</text>
<text text-anchor="middle" x="366" y="-180" font-family="Helvetica,sans-Serif" font-size="10.00">ActiveTurtleIndex</text>
</a>
</g>
</g>
<!-- Node1&#45;&gt;Node15 -->
<g id="edge18" class="edge"><title>Node1&#45;&gt;Node15</title>
<path fill="none" stroke="midnightblue" d="M175.901,-238.941C212.46,-229.092 260.391,-216.18 298.848,-205.821"/>
<polygon fill="midnightblue" stroke="midnightblue" points="300.17,-209.089 308.916,-203.108 298.349,-202.33 300.17,-209.089"/>
</g>
<!-- Node5 -->
<g id="node5" class="node"><title>Node5</title>
<g id="a_node5"><a xlink:href="../../dc/d9e/classparser_1_1_command_tree_node.html#a2700486f6a49c0a080114bee6e51f271" target="_top" xlink:title="parser.CommandTreeNode.get\lChildren">
<polygon fill="white" stroke="black" points="494,-261 494,-291 658,-291 658,-261 494,-261"/>
<text text-anchor="start" x="502" y="-279" font-family="Helvetica,sans-Serif" font-size="10.00">parser.CommandTreeNode.get</text>
<text text-anchor="middle" x="576" y="-268" font-family="Helvetica,sans-Serif" font-size="10.00">Children</text>
</a>
</g>
</g>
<!-- Node4&#45;&gt;Node5 -->
<g id="edge4" class="edge"><title>Node4&#45;&gt;Node5</title>
<path fill="none" stroke="midnightblue" d="M412.133,-241.547C435.969,-246.59 465.958,-252.933 493.685,-258.799"/>
<polygon fill="midnightblue" stroke="midnightblue" points="493.274,-262.289 503.782,-260.935 494.723,-255.441 493.274,-262.289"/>
</g>
<!-- Node6 -->
<g id="node6" class="node"><title>Node6</title>
<g id="a_node6"><a xlink:href="../../dc/d9e/classparser_1_1_command_tree_node.html#a8bb8a112395f78809b0be06f1c3f5282" target="_top" xlink:title="parser.CommandTreeNode.getType">
<polygon fill="white" stroke="black" points="896.5,-225.5 896.5,-244.5 1081.5,-244.5 1081.5,-225.5 896.5,-225.5"/>
<text text-anchor="middle" x="989" y="-232.5" font-family="Helvetica,sans-Serif" font-size="10.00">parser.CommandTreeNode.getType</text>
</a>
</g>
</g>
<!-- Node4&#45;&gt;Node6 -->
<g id="edge5" class="edge"><title>Node4&#45;&gt;Node6</title>
<path fill="none" stroke="midnightblue" d="M457.631,-232.438C571.71,-232.989 767.114,-233.933 886.218,-234.508"/>
<polygon fill="midnightblue" stroke="midnightblue" points="886.417,-238.009 896.433,-234.558 886.45,-231.009 886.417,-238.009"/>
</g>
<!-- Node7 -->
<g id="node7" class="node"><title>Node7</title>
<g id="a_node7"><a xlink:href="../../d9/d88/classmodel_1_1_tree_interpreter.html#a3e460e5ebe66f781afb480f0f0ec2ce7" target="_top" xlink:title="model.TreeInterpreter.update">
<polygon fill="white" stroke="black" points="498,-110.5 498,-129.5 654,-129.5 654,-110.5 498,-110.5"/>
<text text-anchor="middle" x="576" y="-117.5" font-family="Helvetica,sans-Serif" font-size="10.00">model.TreeInterpreter.update</text>
</a>
</g>
</g>
<!-- Node4&#45;&gt;Node7 -->
<g id="edge6" class="edge"><title>Node4&#45;&gt;Node7</title>
<path fill="none" stroke="midnightblue" d="M428.468,-222.46C438.596,-219.775 448.786,-216.353 458,-212 498.399,-192.915 537.601,-157.64 558.792,-136.752"/>
<polygon fill="midnightblue" stroke="midnightblue" points="561.422,-139.071 565.997,-129.515 556.461,-134.133 561.422,-139.071"/>
</g>
<!-- Node7&#45;&gt;Node6 -->
<g id="edge7" class="edge"><title>Node7&#45;&gt;Node6</title>
<path fill="none" stroke="midnightblue" d="M598.684,-129.523C621.94,-139.5 660.104,-155.195 694,-166 780.372,-193.534 803.61,-194.863 892,-215 904.443,-217.835 917.83,-220.724 930.541,-223.393"/>
<polygon fill="midnightblue" stroke="midnightblue" points="930.056,-226.867 940.56,-225.481 931.485,-220.015 930.056,-226.867"/>
</g>
<!-- Node8 -->
<g id="node8" class="node"><title>Node8</title>
<g id="a_node8"><a xlink:href="../../d9/d88/classmodel_1_1_tree_interpreter.html#af4d24e7867eb3a4a53f79f4a9288f9fd" target="_top" xlink:title="model.TreeInterpreter.execute\lCommand">
<polygon fill="white" stroke="black" points="694.5,-127 694.5,-157 855.5,-157 855.5,-127 694.5,-127"/>
<text text-anchor="start" x="702.5" y="-145" font-family="Helvetica,sans-Serif" font-size="10.00">model.TreeInterpreter.execute</text>
<text text-anchor="middle" x="775" y="-134" font-family="Helvetica,sans-Serif" font-size="10.00">Command</text>
</a>
</g>
</g>
<!-- Node7&#45;&gt;Node8 -->
<g id="edge8" class="edge"><title>Node7&#45;&gt;Node8</title>
<path fill="none" stroke="midnightblue" d="M654.012,-128.6C663.967,-129.712 674.23,-130.858 684.367,-131.99"/>
<polygon fill="midnightblue" stroke="midnightblue" points="684.119,-135.484 694.445,-133.116 684.896,-128.527 684.119,-135.484"/>
</g>
<!-- Node10 -->
<g id="node10" class="node"><title>Node10</title>
<g id="a_node10"><a xlink:href="../../dc/d9e/classparser_1_1_command_tree_node.html#a73e4ab6ebca47d41b993f0e66ee4c8d2" target="_top" xlink:title="parser.CommandTreeNode.getName">
<polygon fill="white" stroke="black" points="892.5,-88.5 892.5,-107.5 1085.5,-107.5 1085.5,-88.5 892.5,-88.5"/>
<text text-anchor="middle" x="989" y="-95.5" font-family="Helvetica,sans-Serif" font-size="10.00">parser.CommandTreeNode.getName</text>
</a>
</g>
</g>
<!-- Node7&#45;&gt;Node10 -->
<g id="edge14" class="edge"><title>Node7&#45;&gt;Node10</title>
<path fill="none" stroke="midnightblue" d="M654.306,-115.862C718.579,-112.422 810.709,-107.49 881.887,-103.68"/>
<polygon fill="midnightblue" stroke="midnightblue" points="882.432,-107.156 892.23,-103.126 882.058,-100.166 882.432,-107.156"/>
</g>
<!-- Node12 -->
<g id="node12" class="node"><title>Node12</title>
<g id="a_node12"><a xlink:href="../../dc/d9e/classparser_1_1_command_tree_node.html#a3d691b68da13689c03ebd9de665c379c" target="_top" xlink:title="parser.CommandTreeNode.set\lValue">
<polygon fill="white" stroke="black" points="907.5,-39 907.5,-69 1070.5,-69 1070.5,-39 907.5,-39"/>
<text text-anchor="start" x="915.5" y="-57" font-family="Helvetica,sans-Serif" font-size="10.00">parser.CommandTreeNode.set</text>
<text text-anchor="middle" x="989" y="-46" font-family="Helvetica,sans-Serif" font-size="10.00">Value</text>
</a>
</g>
</g>
<!-- Node7&#45;&gt;Node12 -->
<g id="edge15" class="edge"><title>Node7&#45;&gt;Node12</title>
<path fill="none" stroke="midnightblue" d="M635.617,-110.452C654.277,-107.42 675.004,-104.061 694,-101 762.14,-90.0207 839.181,-77.7083 897.301,-68.4404"/>
<polygon fill="midnightblue" stroke="midnightblue" points="897.868,-71.8942 907.192,-66.8633 896.766,-64.9816 897.868,-71.8942"/>
</g>
<!-- Node13 -->
<g id="node13" class="node"><title>Node13</title>
<g id="a_node13"><a xlink:href="../../db/d55/classmodel_1_1_variable_list.html#a09697cca38c12cf837ee40e71d02f78b" target="_top" xlink:title="model.VariableList.get">
<polygon fill="white" stroke="black" points="713.5,-6.5 713.5,-25.5 836.5,-25.5 836.5,-6.5 713.5,-6.5"/>
<text text-anchor="middle" x="775" y="-13.5" font-family="Helvetica,sans-Serif" font-size="10.00">model.VariableList.get</text>
</a>
</g>
</g>
<!-- Node7&#45;&gt;Node13 -->
<g id="edge16" class="edge"><title>Node7&#45;&gt;Node13</title>
<path fill="none" stroke="midnightblue" d="M589.341,-110.324C610.005,-94.4906 653.348,-62.8269 694,-43 705.219,-37.528 717.827,-32.7089 729.657,-28.7138"/>
<polygon fill="midnightblue" stroke="midnightblue" points="730.938,-31.9777 739.365,-25.5554 728.772,-25.3211 730.938,-31.9777"/>
</g>
<!-- Node8&#45;&gt;Node6 -->
<g id="edge10" class="edge"><title>Node8&#45;&gt;Node6</title>
<path fill="none" stroke="midnightblue" d="M819.206,-157.171C831.634,-162.503 844.836,-169.157 856,-177 875.036,-190.373 871.684,-203.665 892,-215 896.878,-217.722 902.083,-220.074 907.451,-222.108"/>
<polygon fill="midnightblue" stroke="midnightblue" points="906.658,-225.535 917.253,-225.434 908.908,-218.906 906.658,-225.535"/>
</g>
<!-- Node9 -->
<g id="node9" class="node"><title>Node9</title>
<g id="a_node9"><a xlink:href="../../db/d10/classmodel_1_1_command_factory.html#a3982ff8b4387b7e50c9ec4350ee01733" target="_top" xlink:title="model.CommandFactory.create\lCommand">
<polygon fill="white" stroke="black" points="905.5,-176 905.5,-206 1072.5,-206 1072.5,-176 905.5,-176"/>
<text text-anchor="start" x="913.5" y="-194" font-family="Helvetica,sans-Serif" font-size="10.00">model.CommandFactory.create</text>
<text text-anchor="middle" x="989" y="-183" font-family="Helvetica,sans-Serif" font-size="10.00">Command</text>
</a>
</g>
</g>
<!-- Node8&#45;&gt;Node9 -->
<g id="edge9" class="edge"><title>Node8&#45;&gt;Node9</title>
<path fill="none" stroke="midnightblue" d="M841.048,-157.035C863.839,-162.302 889.615,-168.26 913.144,-173.698"/>
<polygon fill="midnightblue" stroke="midnightblue" points="912.544,-177.152 923.075,-175.994 914.12,-170.332 912.544,-177.152"/>
</g>
<!-- Node8&#45;&gt;Node10 -->
<g id="edge11" class="edge"><title>Node8&#45;&gt;Node10</title>
<path fill="none" stroke="midnightblue" d="M848.365,-126.981C875.792,-121.288 906.57,-114.901 932.236,-109.574"/>
<polygon fill="midnightblue" stroke="midnightblue" points="933.087,-112.972 942.167,-107.512 931.665,-106.118 933.087,-112.972"/>
</g>
<!-- Node11 -->
<g id="node11" class="node"><title>Node11</title>
<g id="a_node11"><a xlink:href="../../d9/d88/classmodel_1_1_tree_interpreter.html#adc0cf2c5819ec7f42db4e37db51b1893" target="_top" xlink:title="model.TreeInterpreter.get\lConstructors">
<polygon fill="white" stroke="black" points="920,-127 920,-157 1058,-157 1058,-127 920,-127"/>
<text text-anchor="start" x="928" y="-145" font-family="Helvetica,sans-Serif" font-size="10.00">model.TreeInterpreter.get</text>
<text text-anchor="middle" x="989" y="-134" font-family="Helvetica,sans-Serif" font-size="10.00">Constructors</text>
</a>
</g>
</g>
<!-- Node8&#45;&gt;Node11 -->
<g id="edge12" class="edge"><title>Node8&#45;&gt;Node11</title>
<path fill="none" stroke="midnightblue" d="M855.544,-142C873.223,-142 891.951,-142 909.584,-142"/>
<polygon fill="midnightblue" stroke="midnightblue" points="909.823,-145.5 919.823,-142 909.823,-138.5 909.823,-145.5"/>
</g>
<!-- Node8&#45;&gt;Node12 -->
<g id="edge13" class="edge"><title>Node8&#45;&gt;Node12</title>
<path fill="none" stroke="midnightblue" d="M799.612,-126.952C822.488,-112.918 858.535,-92.2169 892,-79 898.296,-76.5134 904.922,-74.201 911.627,-72.068"/>
<polygon fill="midnightblue" stroke="midnightblue" points="912.931,-75.3299 921.48,-69.0718 910.894,-68.6327 912.931,-75.3299"/>
</g>
<!-- Node14 -->
<g id="node14" class="node"><title>Node14</title>
<g id="a_node14"><a xlink:href="../../db/d55/classmodel_1_1_variable_list.html#a0adb554303c7191db1da43ddb5fa2c45" target="_top" xlink:title="model.VariableList.add">
<polygon fill="white" stroke="black" points="926.5,-0.5 926.5,-19.5 1051.5,-19.5 1051.5,-0.5 926.5,-0.5"/>
<text text-anchor="middle" x="989" y="-7.5" font-family="Helvetica,sans-Serif" font-size="10.00">model.VariableList.add</text>
</a>
</g>
</g>
<!-- Node13&#45;&gt;Node14 -->
<g id="edge17" class="edge"><title>Node13&#45;&gt;Node14</title>
<path fill="none" stroke="midnightblue" d="M836.751,-14.2806C861.486,-13.5806 890.269,-12.766 916.047,-12.0364"/>
<polygon fill="midnightblue" stroke="midnightblue" points="916.24,-15.5325 926.137,-11.7509 916.042,-8.53526 916.24,-15.5325"/>
</g>
</g>
</svg>
