<?xml version="1.0" encoding="UTF-8" standalone="no"?>
<!DOCTYPE svg PUBLIC "-//W3C//DTD SVG 1.1//EN"
 "http://www.w3.org/Graphics/SVG/1.1/DTD/svg11.dtd">
<!-- Generated by graphviz version 2.36.0 (20140111.2315)
 -->
<!-- Title: ui.artists.LineDrawHelper.drawLine Pages: 1 -->
<svg width="580pt" height="28pt"
 viewBox="0.00 0.00 580.00 28.00" xmlns="http://www.w3.org/2000/svg" xmlns:xlink="http://www.w3.org/1999/xlink">
<g id="graph0" class="graph" transform="scale(1 1) rotate(0) translate(4 24)">
<title>ui.artists.LineDrawHelper.drawLine</title>
<polygon fill="white" stroke="none" points="-4,4 -4,-24 576,-24 576,4 -4,4"/>
<!-- Node1 -->
<g id="node1" class="node"><title>Node1</title>
<polygon fill="#bfbfbf" stroke="black" points="0,-0.5 0,-19.5 180,-19.5 180,-0.5 0,-0.5"/>
<text text-anchor="middle" x="90" y="-7.5" font-family="Helvetica,sans-Serif" font-size="10.00">ui.artists.LineDrawHelper.drawLine</text>
</g>
<!-- Node2 -->
<g id="node2" class="node"><title>Node2</title>
<g id="a_node2"><a xlink:href="../../dd/de0/classui_1_1_pen.html#a61ab673a4336e7a1a8ba62a8c8f8f1d3" target="_top" xlink:title="ui.Pen.draw">
<polygon fill="white" stroke="black" points="216.5,-0.5 216.5,-19.5 287.5,-19.5 287.5,-0.5 216.5,-0.5"/>
<text text-anchor="middle" x="252" y="-7.5" font-family="Helvetica,sans-Serif" font-size="10.00">ui.Pen.draw</text>
</a>
</g>
</g>
<!-- Node1&#45;&gt;Node2 -->
<g id="edge1" class="edge"><title>Node1&#45;&gt;Node2</title>
<path fill="none" stroke="midnightblue" d="M190.417,-10C199.58,-10 208.382,-10 216.301,-10"/>
<polygon fill="midnightblue" stroke="midnightblue" points="190.356,-6.5001 180.356,-10 190.356,-13.5001 190.356,-6.5001"/>
</g>
<!-- Node3 -->
<g id="node3" class="node"><title>Node3</title>
<g id="a_node3"><a xlink:href="../../d3/db6/classui_1_1_turtle_view.html#a3bcfd8b9b225b9082d34a55b7ebc90b7" target="_top" xlink:title="ui.TurtleView.draw">
<polygon fill="white" stroke="black" points="324,-0.5 324,-19.5 424,-19.5 424,-0.5 324,-0.5"/>
<text text-anchor="middle" x="374" y="-7.5" font-family="Helvetica,sans-Serif" font-size="10.00">ui.TurtleView.draw</text>
</a>
</g>
</g>
<!-- Node2&#45;&gt;Node3 -->
<g id="edge2" class="edge"><title>Node2&#45;&gt;Node3</title>
<path fill="none" stroke="midnightblue" d="M297.746,-10C306.19,-10 315.066,-10 323.642,-10"/>
<polygon fill="midnightblue" stroke="midnightblue" points="297.709,-6.5001 287.709,-10 297.709,-13.5001 297.709,-6.5001"/>
</g>
<!-- Node4 -->
<g id="node4" class="node"><title>Node4</title>
<g id="a_node4"><a xlink:href="../../d3/db6/classui_1_1_turtle_view.html#a08c1ab80fb36ee57f17dcdd42bcf9143" target="_top" xlink:title="ui.TurtleView.update">
<polygon fill="white" stroke="black" points="460.5,-0.5 460.5,-19.5 571.5,-19.5 571.5,-0.5 460.5,-0.5"/>
<text text-anchor="middle" x="516" y="-7.5" font-family="Helvetica,sans-Serif" font-size="10.00">ui.TurtleView.update</text>
</a>
</g>
</g>
<!-- Node3&#45;&gt;Node4 -->
<g id="edge3" class="edge"><title>Node3&#45;&gt;Node4</title>
<path fill="none" stroke="midnightblue" d="M434.637,-10C443.178,-10 451.93,-10 460.368,-10"/>
<polygon fill="midnightblue" stroke="midnightblue" points="434.359,-6.5001 424.359,-10 434.359,-13.5001 434.359,-6.5001"/>
</g>
</g>
</svg>
