<?xml version="1.0" encoding="UTF-8" standalone="no"?>
<!DOCTYPE svg PUBLIC "-//W3C//DTD SVG 1.1//EN"
 "http://www.w3.org/Graphics/SVG/1.1/DTD/svg11.dtd">
<!-- Generated by graphviz version 2.36.0 (20140111.2315)
 -->
<!-- Title: util.ButtonMaker.makeToggleButton Pages: 1 -->
<svg width="598pt" height="38pt"
 viewBox="0.00 0.00 598.00 38.00" xmlns="http://www.w3.org/2000/svg" xmlns:xlink="http://www.w3.org/1999/xlink">
<g id="graph0" class="graph" transform="scale(1 1) rotate(0) translate(4 34)">
<title>util.ButtonMaker.makeToggleButton</title>
<polygon fill="white" stroke="none" points="-4,4 -4,-34 594,-34 594,4 -4,4"/>
<!-- Node1 -->
<g id="node1" class="node"><title>Node1</title>
<polygon fill="#bfbfbf" stroke="black" points="0.5,-0 0.5,-30 155.5,-30 155.5,-0 0.5,-0"/>
<text text-anchor="start" x="8.5" y="-18" font-family="Helvetica,sans-Serif" font-size="10.00">util.ButtonMaker.makeToggle</text>
<text text-anchor="middle" x="78" y="-7" font-family="Helvetica,sans-Serif" font-size="10.00">Button</text>
</g>
<!-- Node2 -->
<g id="node2" class="node"><title>Node2</title>
<g id="a_node2"><a xlink:href="../../df/d9f/classui_1_1elements_1_1_t_properties_element.html#aa9783f0d27dd4082e08b8a23d60883fe" target="_top" xlink:title="ui.elements.TPropertiesElement.init">
<polygon fill="white" stroke="black" points="192.5,-5.5 192.5,-24.5 379.5,-24.5 379.5,-5.5 192.5,-5.5"/>
<text text-anchor="middle" x="286" y="-12.5" font-family="Helvetica,sans-Serif" font-size="10.00">ui.elements.TPropertiesElement.init</text>
</a>
</g>
</g>
<!-- Node1&#45;&gt;Node2 -->
<g id="edge1" class="edge"><title>Node1&#45;&gt;Node2</title>
<path fill="none" stroke="midnightblue" d="M165.848,-15C174.562,-15 183.435,-15 192.207,-15"/>
<polygon fill="midnightblue" stroke="midnightblue" points="165.707,-11.5001 155.707,-15 165.707,-18.5001 165.707,-11.5001"/>
</g>
<!-- Node3 -->
<g id="node3" class="node"><title>Node3</title>
<g id="a_node3"><a xlink:href="../../df/d9f/classui_1_1elements_1_1_t_properties_element.html#a6c665abf2d1d12f6cc29c03f0b428efb" target="_top" xlink:title="ui.elements.TPropertiesElement.\lTPropertiesElement">
<polygon fill="white" stroke="black" points="416.5,-0 416.5,-30 589.5,-30 589.5,-0 416.5,-0"/>
<text text-anchor="start" x="424.5" y="-18" font-family="Helvetica,sans-Serif" font-size="10.00">ui.elements.TPropertiesElement.</text>
<text text-anchor="middle" x="503" y="-7" font-family="Helvetica,sans-Serif" font-size="10.00">TPropertiesElement</text>
</a>
</g>
</g>
<!-- Node2&#45;&gt;Node3 -->
<g id="edge2" class="edge"><title>Node2&#45;&gt;Node3</title>
<path fill="none" stroke="midnightblue" d="M389.759,-15C398.662,-15 407.609,-15 416.354,-15"/>
<polygon fill="midnightblue" stroke="midnightblue" points="389.739,-11.5001 379.739,-15 389.739,-18.5001 389.739,-11.5001"/>
</g>
</g>
</svg>
