<?xml version="1.0" encoding="UTF-8" standalone="no"?>
<!DOCTYPE svg PUBLIC "-//W3C//DTD SVG 1.1//EN"
 "http://www.w3.org/Graphics/SVG/1.1/DTD/svg11.dtd">
<!-- Generated by graphviz version 2.36.0 (20140111.2315)
 -->
<!-- Title: command.control.RepeatCommand.calculateValue Pages: 1 -->
<svg width="1090pt" height="299pt"
 viewBox="0.00 0.00 1090.00 299.00" xmlns="http://www.w3.org/2000/svg" xmlns:xlink="http://www.w3.org/1999/xlink">
<g id="graph0" class="graph" transform="scale(1 1) rotate(0) translate(4 295)">
<title>command.control.RepeatCommand.calculateValue</title>
<polygon fill="white" stroke="none" points="-4,4 -4,-295 1086,-295 1086,4 -4,4"/>
<!-- Node1 -->
<g id="node1" class="node"><title>Node1</title>
<polygon fill="#bfbfbf" stroke="black" points="0.5,-239 0.5,-269 233.5,-269 233.5,-239 0.5,-239"/>
<text text-anchor="start" x="8.5" y="-257" font-family="Helvetica,sans-Serif" font-size="10.00">command.control.RepeatCommand.calculate</text>
<text text-anchor="middle" x="117" y="-246" font-family="Helvetica,sans-Serif" font-size="10.00">Value</text>
</g>
<!-- Node2 -->
<g id="node2" class="node"><title>Node2</title>
<g id="a_node2"><a xlink:href="../../dc/d9e/classparser_1_1_command_tree_node.html#aea6176c10780becfc79a23924bb6fdc2" target="_top" xlink:title="parser.CommandTreeNode.get\lValue">
<polygon fill="white" stroke="black" points="280,-261 280,-291 444,-291 444,-261 280,-261"/>
<text text-anchor="start" x="288" y="-279" font-family="Helvetica,sans-Serif" font-size="10.00">parser.CommandTreeNode.get</text>
<text text-anchor="middle" x="362" y="-268" font-family="Helvetica,sans-Serif" font-size="10.00">Value</text>
</a>
</g>
</g>
<!-- Node1&#45;&gt;Node2 -->
<g id="edge1" class="edge"><title>Node1&#45;&gt;Node2</title>
<path fill="none" stroke="midnightblue" d="M233.807,-264.485C245.814,-265.572 257.895,-266.665 269.581,-267.723"/>
<polygon fill="midnightblue" stroke="midnightblue" points="269.461,-271.227 279.736,-268.643 270.092,-264.255 269.461,-271.227"/>
</g>
<!-- Node3 -->
<g id="node3" class="node"><title>Node3</title>
<g id="a_node3"><a xlink:href="../../d9/d88/classmodel_1_1_tree_interpreter.html#a501df6b8cfe1a8175a9da0ed96d30d6f" target="_top" xlink:title="model.TreeInterpreter.interpretTree">
<polygon fill="white" stroke="black" points="270.5,-222.5 270.5,-241.5 453.5,-241.5 453.5,-222.5 270.5,-222.5"/>
<text text-anchor="middle" x="362" y="-229.5" font-family="Helvetica,sans-Serif" font-size="10.00">model.TreeInterpreter.interpretTree</text>
</a>
</g>
</g>
<!-- Node1&#45;&gt;Node3 -->
<g id="edge2" class="edge"><title>Node1&#45;&gt;Node3</title>
<path fill="none" stroke="midnightblue" d="M233.807,-243.515C242.593,-242.72 251.418,-241.921 260.1,-241.135"/>
<polygon fill="midnightblue" stroke="midnightblue" points="260.57,-244.607 270.213,-240.219 259.939,-237.635 260.57,-244.607"/>
</g>
<!-- Node4 -->
<g id="node4" class="node"><title>Node4</title>
<g id="a_node4"><a xlink:href="../../dc/d9e/classparser_1_1_command_tree_node.html#a2700486f6a49c0a080114bee6e51f271" target="_top" xlink:title="parser.CommandTreeNode.get\lChildren">
<polygon fill="white" stroke="black" points="490,-261 490,-291 654,-291 654,-261 490,-261"/>
<text text-anchor="start" x="498" y="-279" font-family="Helvetica,sans-Serif" font-size="10.00">parser.CommandTreeNode.get</text>
<text text-anchor="middle" x="572" y="-268" font-family="Helvetica,sans-Serif" font-size="10.00">Children</text>
</a>
</g>
</g>
<!-- Node3&#45;&gt;Node4 -->
<g id="edge3" class="edge"><title>Node3&#45;&gt;Node4</title>
<path fill="none" stroke="midnightblue" d="M408.133,-241.547C431.969,-246.59 461.958,-252.933 489.685,-258.799"/>
<polygon fill="midnightblue" stroke="midnightblue" points="489.274,-262.289 499.782,-260.935 490.723,-255.441 489.274,-262.289"/>
</g>
<!-- Node5 -->
<g id="node5" class="node"><title>Node5</title>
<g id="a_node5"><a xlink:href="../../dc/d9e/classparser_1_1_command_tree_node.html#a8bb8a112395f78809b0be06f1c3f5282" target="_top" xlink:title="parser.CommandTreeNode.getType">
<polygon fill="white" stroke="black" points="892.5,-225.5 892.5,-244.5 1077.5,-244.5 1077.5,-225.5 892.5,-225.5"/>
<text text-anchor="middle" x="985" y="-232.5" font-family="Helvetica,sans-Serif" font-size="10.00">parser.CommandTreeNode.getType</text>
</a>
</g>
</g>
<!-- Node3&#45;&gt;Node5 -->
<g id="edge4" class="edge"><title>Node3&#45;&gt;Node5</title>
<path fill="none" stroke="midnightblue" d="M453.631,-232.438C567.71,-232.989 763.114,-233.933 882.218,-234.508"/>
<polygon fill="midnightblue" stroke="midnightblue" points="882.417,-238.009 892.433,-234.558 882.45,-231.009 882.417,-238.009"/>
</g>
<!-- Node6 -->
<g id="node6" class="node"><title>Node6</title>
<g id="a_node6"><a xlink:href="../../d9/d88/classmodel_1_1_tree_interpreter.html#a3e460e5ebe66f781afb480f0f0ec2ce7" target="_top" xlink:title="model.TreeInterpreter.update">
<polygon fill="white" stroke="black" points="494,-110.5 494,-129.5 650,-129.5 650,-110.5 494,-110.5"/>
<text text-anchor="middle" x="572" y="-117.5" font-family="Helvetica,sans-Serif" font-size="10.00">model.TreeInterpreter.update</text>
</a>
</g>
</g>
<!-- Node3&#45;&gt;Node6 -->
<g id="edge5" class="edge"><title>Node3&#45;&gt;Node6</title>
<path fill="none" stroke="midnightblue" d="M380.734,-222.451C417.268,-202.779 501.104,-157.636 544.256,-134.4"/>
<polygon fill="midnightblue" stroke="midnightblue" points="546.166,-137.348 553.311,-129.525 542.847,-131.184 546.166,-137.348"/>
</g>
<!-- Node6&#45;&gt;Node5 -->
<g id="edge6" class="edge"><title>Node6&#45;&gt;Node5</title>
<path fill="none" stroke="midnightblue" d="M594.684,-129.523C617.94,-139.5 656.104,-155.195 690,-166 776.372,-193.534 799.61,-194.863 888,-215 900.443,-217.835 913.83,-220.724 926.541,-223.393"/>
<polygon fill="midnightblue" stroke="midnightblue" points="926.056,-226.867 936.56,-225.481 927.485,-220.015 926.056,-226.867"/>
</g>
<!-- Node7 -->
<g id="node7" class="node"><title>Node7</title>
<g id="a_node7"><a xlink:href="../../d9/d88/classmodel_1_1_tree_interpreter.html#af4d24e7867eb3a4a53f79f4a9288f9fd" target="_top" xlink:title="model.TreeInterpreter.execute\lCommand">
<polygon fill="white" stroke="black" points="690.5,-127 690.5,-157 851.5,-157 851.5,-127 690.5,-127"/>
<text text-anchor="start" x="698.5" y="-145" font-family="Helvetica,sans-Serif" font-size="10.00">model.TreeInterpreter.execute</text>
<text text-anchor="middle" x="771" y="-134" font-family="Helvetica,sans-Serif" font-size="10.00">Command</text>
</a>
</g>
</g>
<!-- Node6&#45;&gt;Node7 -->
<g id="edge7" class="edge"><title>Node6&#45;&gt;Node7</title>
<path fill="none" stroke="midnightblue" d="M650.012,-128.6C659.967,-129.712 670.23,-130.858 680.367,-131.99"/>
<polygon fill="midnightblue" stroke="midnightblue" points="680.119,-135.484 690.445,-133.116 680.896,-128.527 680.119,-135.484"/>
</g>
<!-- Node9 -->
<g id="node9" class="node"><title>Node9</title>
<g id="a_node9"><a xlink:href="../../dc/d9e/classparser_1_1_command_tree_node.html#a73e4ab6ebca47d41b993f0e66ee4c8d2" target="_top" xlink:title="parser.CommandTreeNode.getName">
<polygon fill="white" stroke="black" points="888.5,-88.5 888.5,-107.5 1081.5,-107.5 1081.5,-88.5 888.5,-88.5"/>
<text text-anchor="middle" x="985" y="-95.5" font-family="Helvetica,sans-Serif" font-size="10.00">parser.CommandTreeNode.getName</text>
</a>
</g>
</g>
<!-- Node6&#45;&gt;Node9 -->
<g id="edge13" class="edge"><title>Node6&#45;&gt;Node9</title>
<path fill="none" stroke="midnightblue" d="M650.306,-115.862C714.579,-112.422 806.709,-107.49 877.887,-103.68"/>
<polygon fill="midnightblue" stroke="midnightblue" points="878.432,-107.156 888.23,-103.126 878.058,-100.166 878.432,-107.156"/>
</g>
<!-- Node11 -->
<g id="node11" class="node"><title>Node11</title>
<g id="a_node11"><a xlink:href="../../dc/d9e/classparser_1_1_command_tree_node.html#a3d691b68da13689c03ebd9de665c379c" target="_top" xlink:title="parser.CommandTreeNode.set\lValue">
<polygon fill="white" stroke="black" points="903.5,-39 903.5,-69 1066.5,-69 1066.5,-39 903.5,-39"/>
<text text-anchor="start" x="911.5" y="-57" font-family="Helvetica,sans-Serif" font-size="10.00">parser.CommandTreeNode.set</text>
<text text-anchor="middle" x="985" y="-46" font-family="Helvetica,sans-Serif" font-size="10.00">Value</text>
</a>
</g>
</g>
<!-- Node6&#45;&gt;Node11 -->
<g id="edge14" class="edge"><title>Node6&#45;&gt;Node11</title>
<path fill="none" stroke="midnightblue" d="M632.324,-110.474C700.756,-99.4844 814.027,-81.295 893.481,-68.5359"/>
<polygon fill="midnightblue" stroke="midnightblue" points="894.166,-71.9709 903.484,-66.9296 893.056,-65.0594 894.166,-71.9709"/>
</g>
<!-- Node12 -->
<g id="node12" class="node"><title>Node12</title>
<g id="a_node12"><a xlink:href="../../db/d55/classmodel_1_1_variable_list.html#a09697cca38c12cf837ee40e71d02f78b" target="_top" xlink:title="model.VariableList.get">
<polygon fill="white" stroke="black" points="709.5,-6.5 709.5,-25.5 832.5,-25.5 832.5,-6.5 709.5,-6.5"/>
<text text-anchor="middle" x="771" y="-13.5" font-family="Helvetica,sans-Serif" font-size="10.00">model.VariableList.get</text>
</a>
</g>
</g>
<!-- Node6&#45;&gt;Node12 -->
<g id="edge15" class="edge"><title>Node6&#45;&gt;Node12</title>
<path fill="none" stroke="midnightblue" d="M585.341,-110.324C606.005,-94.4906 649.348,-62.8269 690,-43 701.219,-37.528 713.827,-32.7089 725.657,-28.7138"/>
<polygon fill="midnightblue" stroke="midnightblue" points="726.938,-31.9777 735.365,-25.5554 724.772,-25.3211 726.938,-31.9777"/>
</g>
<!-- Node7&#45;&gt;Node5 -->
<g id="edge9" class="edge"><title>Node7&#45;&gt;Node5</title>
<path fill="none" stroke="midnightblue" d="M815.206,-157.171C827.634,-162.503 840.836,-169.157 852,-177 871.036,-190.373 867.684,-203.665 888,-215 892.878,-217.722 898.083,-220.074 903.451,-222.108"/>
<polygon fill="midnightblue" stroke="midnightblue" points="902.658,-225.535 913.253,-225.434 904.908,-218.906 902.658,-225.535"/>
</g>
<!-- Node8 -->
<g id="node8" class="node"><title>Node8</title>
<g id="a_node8"><a xlink:href="../../db/d10/classmodel_1_1_command_factory.html#a3982ff8b4387b7e50c9ec4350ee01733" target="_top" xlink:title="model.CommandFactory.create\lCommand">
<polygon fill="white" stroke="black" points="901.5,-176 901.5,-206 1068.5,-206 1068.5,-176 901.5,-176"/>
<text text-anchor="start" x="909.5" y="-194" font-family="Helvetica,sans-Serif" font-size="10.00">model.CommandFactory.create</text>
<text text-anchor="middle" x="985" y="-183" font-family="Helvetica,sans-Serif" font-size="10.00">Command</text>
</a>
</g>
</g>
<!-- Node7&#45;&gt;Node8 -->
<g id="edge8" class="edge"><title>Node7&#45;&gt;Node8</title>
<path fill="none" stroke="midnightblue" d="M837.048,-157.035C859.839,-162.302 885.615,-168.26 909.144,-173.698"/>
<polygon fill="midnightblue" stroke="midnightblue" points="908.544,-177.152 919.075,-175.994 910.12,-170.332 908.544,-177.152"/>
</g>
<!-- Node7&#45;&gt;Node9 -->
<g id="edge10" class="edge"><title>Node7&#45;&gt;Node9</title>
<path fill="none" stroke="midnightblue" d="M840.966,-126.936C856.431,-123.614 872.768,-120.148 888,-117 899.959,-114.528 912.77,-111.947 925.012,-109.512"/>
<polygon fill="midnightblue" stroke="midnightblue" points="926.001,-112.884 935.13,-107.507 924.641,-106.017 926.001,-112.884"/>
</g>
<!-- Node10 -->
<g id="node10" class="node"><title>Node10</title>
<g id="a_node10"><a xlink:href="../../d9/d88/classmodel_1_1_tree_interpreter.html#adc0cf2c5819ec7f42db4e37db51b1893" target="_top" xlink:title="model.TreeInterpreter.get\lConstructors">
<polygon fill="white" stroke="black" points="916,-127 916,-157 1054,-157 1054,-127 916,-127"/>
<text text-anchor="start" x="924" y="-145" font-family="Helvetica,sans-Serif" font-size="10.00">model.TreeInterpreter.get</text>
<text text-anchor="middle" x="985" y="-134" font-family="Helvetica,sans-Serif" font-size="10.00">Constructors</text>
</a>
</g>
</g>
<!-- Node7&#45;&gt;Node10 -->
<g id="edge11" class="edge"><title>Node7&#45;&gt;Node10</title>
<path fill="none" stroke="midnightblue" d="M851.544,-142C869.223,-142 887.951,-142 905.584,-142"/>
<polygon fill="midnightblue" stroke="midnightblue" points="905.823,-145.5 915.823,-142 905.823,-138.5 905.823,-145.5"/>
</g>
<!-- Node7&#45;&gt;Node11 -->
<g id="edge12" class="edge"><title>Node7&#45;&gt;Node11</title>
<path fill="none" stroke="midnightblue" d="M795.612,-126.952C818.488,-112.918 854.535,-92.2169 888,-79 894.296,-76.5134 900.922,-74.201 907.627,-72.068"/>
<polygon fill="midnightblue" stroke="midnightblue" points="908.931,-75.3299 917.48,-69.0718 906.894,-68.6327 908.931,-75.3299"/>
</g>
<!-- Node13 -->
<g id="node13" class="node"><title>Node13</title>
<g id="a_node13"><a xlink:href="../../db/d55/classmodel_1_1_variable_list.html#a0adb554303c7191db1da43ddb5fa2c45" target="_top" xlink:title="model.VariableList.add">
<polygon fill="white" stroke="black" points="922.5,-0.5 922.5,-19.5 1047.5,-19.5 1047.5,-0.5 922.5,-0.5"/>
<text text-anchor="middle" x="985" y="-7.5" font-family="Helvetica,sans-Serif" font-size="10.00">model.VariableList.add</text>
</a>
</g>
</g>
<!-- Node12&#45;&gt;Node13 -->
<g id="edge16" class="edge"><title>Node12&#45;&gt;Node13</title>
<path fill="none" stroke="midnightblue" d="M832.751,-14.2806C857.486,-13.5806 886.269,-12.766 912.047,-12.0364"/>
<polygon fill="midnightblue" stroke="midnightblue" points="912.24,-15.5325 922.137,-11.7509 912.042,-8.53526 912.24,-15.5325"/>
</g>
</g>
</svg>
