<?xml version="1.0" encoding="UTF-8" standalone="no"?>
<!DOCTYPE svg PUBLIC "-//W3C//DTD SVG 1.1//EN"
 "http://www.w3.org/Graphics/SVG/1.1/DTD/svg11.dtd">
<!-- Generated by graphviz version 2.36.0 (20140111.2315)
 -->
<!-- Title: ui.artists.LineDrawHelper Pages: 1 -->
<svg width="307pt" height="164pt"
 viewBox="0.00 0.00 307.00 164.00" xmlns="http://www.w3.org/2000/svg" xmlns:xlink="http://www.w3.org/1999/xlink">
<g id="graph0" class="graph" transform="scale(1 1) rotate(0) translate(4 160)">
<title>ui.artists.LineDrawHelper</title>
<polygon fill="white" stroke="none" points="-4,4 -4,-160 303,-160 303,4 -4,4"/>
<!-- Node1 -->
<g id="node1" class="node"><title>Node1</title>
<polygon fill="#bfbfbf" stroke="black" points="81,-136.5 81,-155.5 217,-155.5 217,-136.5 81,-136.5"/>
<text text-anchor="middle" x="149" y="-143.5" font-family="Helvetica,sans-Serif" font-size="10.00">ui.artists.LineDrawHelper</text>
</g>
<!-- Node2 -->
<g id="node2" class="node"><title>Node2</title>
<g id="a_node2"><a xlink:href="../../d0/d3e/classui_1_1artists_1_1_dashed_line_draw_helper.html" target="_top" xlink:title="ui.artists.DashedLineDraw\lHelper">
<polygon fill="white" stroke="black" points="-0.5,-69 -0.5,-99 140.5,-99 140.5,-69 -0.5,-69"/>
<text text-anchor="start" x="7.5" y="-87" font-family="Helvetica,sans-Serif" font-size="10.00">ui.artists.DashedLineDraw</text>
<text text-anchor="middle" x="70" y="-76" font-family="Helvetica,sans-Serif" font-size="10.00">Helper</text>
</a>
</g>
</g>
<!-- Node1&#45;&gt;Node2 -->
<g id="edge1" class="edge"><title>Node1&#45;&gt;Node2</title>
<path fill="none" stroke="midnightblue" d="M129.705,-130.346C117.197,-120.846 100.99,-108.537 88.6187,-99.1408"/>
<polygon fill="midnightblue" stroke="midnightblue" points="127.601,-133.142 137.681,-136.403 131.835,-127.568 127.601,-133.142"/>
</g>
<!-- Node4 -->
<g id="node4" class="node"><title>Node4</title>
<g id="a_node4"><a xlink:href="../../da/def/classui_1_1artists_1_1_normal_line_draw_helper.html" target="_top" xlink:title="ui.artists.NormalLineDraw\lHelper">
<polygon fill="white" stroke="black" points="159,-69 159,-99 299,-99 299,-69 159,-69"/>
<text text-anchor="start" x="167" y="-87" font-family="Helvetica,sans-Serif" font-size="10.00">ui.artists.NormalLineDraw</text>
<text text-anchor="middle" x="229" y="-76" font-family="Helvetica,sans-Serif" font-size="10.00">Helper</text>
</a>
</g>
</g>
<!-- Node1&#45;&gt;Node4 -->
<g id="edge3" class="edge"><title>Node1&#45;&gt;Node4</title>
<path fill="none" stroke="midnightblue" d="M168.539,-130.346C181.205,-120.846 197.617,-108.537 210.146,-99.1408"/>
<polygon fill="midnightblue" stroke="midnightblue" points="166.362,-127.603 160.462,-136.403 170.562,-133.203 166.362,-127.603"/>
</g>
<!-- Node3 -->
<g id="node3" class="node"><title>Node3</title>
<g id="a_node3"><a xlink:href="../../d4/d33/classui_1_1artists_1_1_dotted_line_draw_helper.html" target="_top" xlink:title="ui.artists.DottedLineDraw\lHelper">
<polygon fill="white" stroke="black" points="1.5,-1 1.5,-31 138.5,-31 138.5,-1 1.5,-1"/>
<text text-anchor="start" x="9.5" y="-19" font-family="Helvetica,sans-Serif" font-size="10.00">ui.artists.DottedLineDraw</text>
<text text-anchor="middle" x="70" y="-8" font-family="Helvetica,sans-Serif" font-size="10.00">Helper</text>
</a>
</g>
</g>
<!-- Node2&#45;&gt;Node3 -->
<g id="edge2" class="edge"><title>Node2&#45;&gt;Node3</title>
<path fill="none" stroke="midnightblue" d="M70,-58.5322C70,-49.3606 70,-39.2449 70,-31.2931"/>
<polygon fill="midnightblue" stroke="midnightblue" points="66.5001,-58.6789 70,-68.679 73.5001,-58.679 66.5001,-58.6789"/>
</g>
</g>
</svg>
