<?xml version="1.0" encoding="UTF-8" standalone="no"?>
<!DOCTYPE svg PUBLIC "-//W3C//DTD SVG 1.1//EN"
 "http://www.w3.org/Graphics/SVG/1.1/DTD/svg11.dtd">
<!-- Generated by graphviz version 2.36.0 (20140111.2315)
 -->
<!-- Title: ui.Pen Pages: 1 -->
<svg width="300pt" height="106pt"
 viewBox="0.00 0.00 300.00 106.00" xmlns="http://www.w3.org/2000/svg" xmlns:xlink="http://www.w3.org/1999/xlink">
<g id="graph0" class="graph" transform="scale(1 1) rotate(0) translate(4 102)">
<title>ui.Pen</title>
<polygon fill="white" stroke="none" points="-4,4 -4,-102 296,-102 296,4 -4,4"/>
<!-- Node1 -->
<g id="node1" class="node"><title>Node1</title>
<polygon fill="#bfbfbf" stroke="black" points="157,-0.5 157,-19.5 203,-19.5 203,-0.5 157,-0.5"/>
<text text-anchor="middle" x="180" y="-7.5" font-family="Helvetica,sans-Serif" font-size="10.00">ui.Pen</text>
</g>
<!-- Node2 -->
<g id="node2" class="node"><title>Node2</title>
<g id="a_node2"><a xlink:href="../../d8/d1e/interfaceui_1_1artists_1_1_line_draw_helper.html" target="_top" xlink:title="ui.artists.LineDrawHelper">
<polygon fill="white" stroke="black" points="0,-78.5 0,-97.5 136,-97.5 136,-78.5 0,-78.5"/>
<text text-anchor="middle" x="68" y="-85.5" font-family="Helvetica,sans-Serif" font-size="10.00">ui.artists.LineDrawHelper</text>
</a>
</g>
</g>
<!-- Node2&#45;&gt;Node1 -->
<g id="edge1" class="edge"><title>Node2&#45;&gt;Node1</title>
<path fill="none" stroke="#9a32cd" stroke-dasharray="5,2" d="M86.3926,-71.8101C98.9163,-61.7472 116.053,-48.5145 132,-38 142.058,-31.3686 153.843,-24.7243 163.218,-19.6862"/>
<polygon fill="#9a32cd" stroke="#9a32cd" points="84.0847,-69.1756 78.5306,-78.198 88.4988,-74.6084 84.0847,-69.1756"/>
<text text-anchor="middle" x="154" y="-52" font-family="Helvetica,sans-Serif" font-size="10.00"> myArtist</text>
<text text-anchor="middle" x="154" y="-41" font-family="Helvetica,sans-Serif" font-size="10.00">artists</text>
</g>
<!-- Node3 -->
<g id="node3" class="node"><title>Node3</title>
<polygon fill="white" stroke="#bfbfbf" points="154,-78.5 154,-97.5 206,-97.5 206,-78.5 154,-78.5"/>
<text text-anchor="middle" x="180" y="-85.5" font-family="Helvetica,sans-Serif" font-size="10.00">Canvas</text>
</g>
<!-- Node3&#45;&gt;Node1 -->
<g id="edge2" class="edge"><title>Node3&#45;&gt;Node1</title>
<path fill="none" stroke="#9a32cd" stroke-dasharray="5,2" d="M180,-68.2239C180,-52.6974 180,-31.3582 180,-19.6165"/>
<polygon fill="#9a32cd" stroke="#9a32cd" points="176.5,-68.2818 180,-78.2818 183.5,-68.2819 176.5,-68.2818"/>
<text text-anchor="middle" x="207" y="-46.5" font-family="Helvetica,sans-Serif" font-size="10.00"> myCanvas</text>
</g>
<!-- Node4 -->
<g id="node4" class="node"><title>Node4</title>
<polygon fill="white" stroke="#bfbfbf" points="236.5,-78.5 236.5,-97.5 277.5,-97.5 277.5,-78.5 236.5,-78.5"/>
<text text-anchor="middle" x="257" y="-85.5" font-family="Helvetica,sans-Serif" font-size="10.00">Color</text>
</g>
<!-- Node4&#45;&gt;Node1 -->
<g id="edge3" class="edge"><title>Node4&#45;&gt;Node1</title>
<path fill="none" stroke="#9a32cd" stroke-dasharray="5,2" d="M252.084,-68.5371C248.648,-58.5114 243.185,-46.4706 235,-38 226.278,-28.9734 213.911,-22.5317 203.113,-18.2098"/>
<polygon fill="#9a32cd" stroke="#9a32cd" points="248.808,-69.7984 255.048,-78.3608 255.51,-67.776 248.808,-69.7984"/>
<text text-anchor="middle" x="270.5" y="-46.5" font-family="Helvetica,sans-Serif" font-size="10.00"> myColor</text>
</g>
</g>
</svg>
