<?xml version="1.0" encoding="UTF-8" standalone="no"?>
<!DOCTYPE svg PUBLIC "-//W3C//DTD SVG 1.1//EN"
 "http://www.w3.org/Graphics/SVG/1.1/DTD/svg11.dtd">
<!-- Generated by graphviz version 2.36.0 (20140111.2315)
 -->
<!-- Title: model.Variable.getName Pages: 1 -->
<svg width="422pt" height="126pt"
 viewBox="0.00 0.00 422.00 126.00" xmlns="http://www.w3.org/2000/svg" xmlns:xlink="http://www.w3.org/1999/xlink">
<g id="graph0" class="graph" transform="scale(1 1) rotate(0) translate(4 122)">
<title>model.Variable.getName</title>
<polygon fill="white" stroke="none" points="-4,4 -4,-122 418,-122 418,4 -4,4"/>
<!-- Node1 -->
<g id="node1" class="node"><title>Node1</title>
<polygon fill="#bfbfbf" stroke="black" points="0,-44.5 0,-63.5 136,-63.5 136,-44.5 0,-44.5"/>
<text text-anchor="middle" x="68" y="-51.5" font-family="Helvetica,sans-Serif" font-size="10.00">model.Variable.getName</text>
</g>
<!-- Node2 -->
<g id="node2" class="node"><title>Node2</title>
<g id="a_node2"><a xlink:href="../../d7/dae/classcommand_1_1control_1_1_do_times_command.html#a932eb0f99c5b2fecf8fd6939ef4b0c5b" target="_top" xlink:title="command.control.DoTimesCommand.calculate\lValue">
<polygon fill="white" stroke="black" points="172,-88 172,-118 414,-118 414,-88 172,-88"/>
<text text-anchor="start" x="180" y="-106" font-family="Helvetica,sans-Serif" font-size="10.00">command.control.DoTimesCommand.calculate</text>
<text text-anchor="middle" x="293" y="-95" font-family="Helvetica,sans-Serif" font-size="10.00">Value</text>
</a>
</g>
</g>
<!-- Node1&#45;&gt;Node2 -->
<g id="edge1" class="edge"><title>Node1&#45;&gt;Node2</title>
<path fill="none" stroke="midnightblue" d="M119.206,-65.9481C135.975,-69.8722 154.776,-74.1998 172,-78 186.962,-81.3013 203,-84.7231 218.326,-87.9365"/>
<polygon fill="midnightblue" stroke="midnightblue" points="119.596,-62.4443 109.06,-63.5653 117.995,-69.2589 119.596,-62.4443"/>
</g>
<!-- Node3 -->
<g id="node3" class="node"><title>Node3</title>
<g id="a_node3"><a xlink:href="../../da/db2/classcommand_1_1control_1_1_for_command.html#ad494f107c7c0e97f862dcfddc476a064" target="_top" xlink:title="command.control.ForCommand.calculate\lValue">
<polygon fill="white" stroke="black" points="185.5,-39 185.5,-69 400.5,-69 400.5,-39 185.5,-39"/>
<text text-anchor="start" x="193.5" y="-57" font-family="Helvetica,sans-Serif" font-size="10.00">command.control.ForCommand.calculate</text>
<text text-anchor="middle" x="293" y="-46" font-family="Helvetica,sans-Serif" font-size="10.00">Value</text>
</a>
</g>
</g>
<!-- Node1&#45;&gt;Node3 -->
<g id="edge2" class="edge"><title>Node1&#45;&gt;Node3</title>
<path fill="none" stroke="midnightblue" d="M146.573,-54C159.107,-54 172.273,-54 185.349,-54"/>
<polygon fill="midnightblue" stroke="midnightblue" points="146.21,-50.5001 136.21,-54 146.21,-57.5001 146.21,-50.5001"/>
</g>
<!-- Node4 -->
<g id="node4" class="node"><title>Node4</title>
<g id="a_node4"><a xlink:href="../../d4/d08/classmodel_1_1_variable.html#a0f13f44cbd73305f46ecf446ff18e8da" target="_top" xlink:title="model.Variable.toString">
<polygon fill="white" stroke="black" points="228.5,-0.5 228.5,-19.5 357.5,-19.5 357.5,-0.5 228.5,-0.5"/>
<text text-anchor="middle" x="293" y="-7.5" font-family="Helvetica,sans-Serif" font-size="10.00">model.Variable.toString</text>
</a>
</g>
</g>
<!-- Node1&#45;&gt;Node4 -->
<g id="edge3" class="edge"><title>Node1&#45;&gt;Node4</title>
<path fill="none" stroke="midnightblue" d="M117.342,-42.0653C134.545,-37.9963 154.089,-33.5756 172,-30 190.848,-26.2374 211.459,-22.6227 230.198,-19.526"/>
<polygon fill="midnightblue" stroke="midnightblue" points="116.427,-38.6852 107.513,-44.4115 118.053,-45.4939 116.427,-38.6852"/>
</g>
</g>
</svg>
