<?xml version="1.0" encoding="UTF-8" standalone="no"?>
<!DOCTYPE svg PUBLIC "-//W3C//DTD SVG 1.1//EN"
 "http://www.w3.org/Graphics/SVG/1.1/DTD/svg11.dtd">
<!-- Generated by graphviz version 2.36.0 (20140111.2315)
 -->
<!-- Title: model.Variable.toString Pages: 1 -->
<svg width="310pt" height="66pt"
 viewBox="0.00 0.00 310.00 66.00" xmlns="http://www.w3.org/2000/svg" xmlns:xlink="http://www.w3.org/1999/xlink">
<g id="graph0" class="graph" transform="scale(1 1) rotate(0) translate(4 62)">
<title>model.Variable.toString</title>
<polygon fill="white" stroke="none" points="-4,4 -4,-62 306,-62 306,4 -4,4"/>
<!-- Node1 -->
<g id="node1" class="node"><title>Node1</title>
<polygon fill="#bfbfbf" stroke="black" points="0.5,-19.5 0.5,-38.5 129.5,-38.5 129.5,-19.5 0.5,-19.5"/>
<text text-anchor="middle" x="65" y="-26.5" font-family="Helvetica,sans-Serif" font-size="10.00">model.Variable.toString</text>
</g>
<!-- Node2 -->
<g id="node2" class="node"><title>Node2</title>
<g id="a_node2"><a xlink:href="../../d4/d08/classmodel_1_1_variable.html#a4821e6ef8e0b15c009d8769642dac6b7" target="_top" xlink:title="model.Variable.getName">
<polygon fill="white" stroke="black" points="166,-38.5 166,-57.5 302,-57.5 302,-38.5 166,-38.5"/>
<text text-anchor="middle" x="234" y="-45.5" font-family="Helvetica,sans-Serif" font-size="10.00">model.Variable.getName</text>
</a>
</g>
</g>
<!-- Node1&#45;&gt;Node2 -->
<g id="edge1" class="edge"><title>Node1&#45;&gt;Node2</title>
<path fill="none" stroke="midnightblue" d="M129.612,-36.2373C138.158,-37.2096 147,-38.2156 155.75,-39.211"/>
<polygon fill="midnightblue" stroke="midnightblue" points="155.624,-42.7192 165.955,-40.3722 156.415,-35.7641 155.624,-42.7192"/>
</g>
<!-- Node3 -->
<g id="node3" class="node"><title>Node3</title>
<g id="a_node3"><a xlink:href="../../d4/d08/classmodel_1_1_variable.html#a49730c824ab9fe357246b60968a0c871" target="_top" xlink:title="model.Variable.getValue">
<polygon fill="white" stroke="black" points="167.5,-0.5 167.5,-19.5 300.5,-19.5 300.5,-0.5 167.5,-0.5"/>
<text text-anchor="middle" x="234" y="-7.5" font-family="Helvetica,sans-Serif" font-size="10.00">model.Variable.getValue</text>
</a>
</g>
</g>
<!-- Node1&#45;&gt;Node3 -->
<g id="edge2" class="edge"><title>Node1&#45;&gt;Node3</title>
<path fill="none" stroke="midnightblue" d="M129.612,-21.7627C138.683,-20.7307 148.086,-19.6609 157.359,-18.6059"/>
<polygon fill="midnightblue" stroke="midnightblue" points="157.807,-22.0775 167.347,-17.4695 157.016,-15.1224 157.807,-22.0775"/>
</g>
</g>
</svg>
