<?xml version="1.0" encoding="UTF-8" standalone="no"?>
<!DOCTYPE svg PUBLIC "-//W3C//DTD SVG 1.1//EN"
 "http://www.w3.org/Graphics/SVG/1.1/DTD/svg11.dtd">
<!-- Generated by graphviz version 2.36.0 (20140111.2315)
 -->
<!-- Title: model.Variable.getValue Pages: 1 -->
<svg width="420pt" height="175pt"
 viewBox="0.00 0.00 420.00 175.00" xmlns="http://www.w3.org/2000/svg" xmlns:xlink="http://www.w3.org/1999/xlink">
<g id="graph0" class="graph" transform="scale(1 1) rotate(0) translate(4 171)">
<title>model.Variable.getValue</title>
<polygon fill="white" stroke="none" points="-4,4 -4,-171 416,-171 416,4 -4,4"/>
<!-- Node1 -->
<g id="node1" class="node"><title>Node1</title>
<polygon fill="#bfbfbf" stroke="black" points="0.5,-68.5 0.5,-87.5 133.5,-87.5 133.5,-68.5 0.5,-68.5"/>
<text text-anchor="middle" x="67" y="-75.5" font-family="Helvetica,sans-Serif" font-size="10.00">model.Variable.getValue</text>
</g>
<!-- Node2 -->
<g id="node2" class="node"><title>Node2</title>
<g id="a_node2"><a xlink:href="../../d5/d8e/classcommand_1_1control_1_1_make_variable_command.html#a8f9ffb360b0bc51047bf673464598c90" target="_top" xlink:title="command.control.MakeVariable\lCommand.calculateValue">
<polygon fill="white" stroke="black" points="207,-137 207,-167 375,-167 375,-137 207,-137"/>
<text text-anchor="start" x="215" y="-155" font-family="Helvetica,sans-Serif" font-size="10.00">command.control.MakeVariable</text>
<text text-anchor="middle" x="291" y="-144" font-family="Helvetica,sans-Serif" font-size="10.00">Command.calculateValue</text>
</a>
</g>
</g>
<!-- Node1&#45;&gt;Node2 -->
<g id="edge1" class="edge"><title>Node1&#45;&gt;Node2</title>
<path fill="none" stroke="midnightblue" d="M93.6694,-92.486C113.867,-103.348 143.014,-117.858 170,-127 181.791,-130.994 194.46,-134.468 206.989,-137.452"/>
<polygon fill="midnightblue" stroke="midnightblue" points="95.2444,-89.3583 84.7906,-87.6357 91.8885,-95.5014 95.2444,-89.3583"/>
</g>
<!-- Node3 -->
<g id="node3" class="node"><title>Node3</title>
<g id="a_node3"><a xlink:href="../../d7/dae/classcommand_1_1control_1_1_do_times_command.html#a932eb0f99c5b2fecf8fd6939ef4b0c5b" target="_top" xlink:title="command.control.DoTimesCommand.calculate\lValue">
<polygon fill="white" stroke="black" points="170,-88 170,-118 412,-118 412,-88 170,-88"/>
<text text-anchor="start" x="178" y="-106" font-family="Helvetica,sans-Serif" font-size="10.00">command.control.DoTimesCommand.calculate</text>
<text text-anchor="middle" x="291" y="-95" font-family="Helvetica,sans-Serif" font-size="10.00">Value</text>
</a>
</g>
</g>
<!-- Node1&#45;&gt;Node3 -->
<g id="edge2" class="edge"><title>Node1&#45;&gt;Node3</title>
<path fill="none" stroke="midnightblue" d="M143.866,-86.5435C152.332,-87.4968 161.101,-88.4844 169.948,-89.4806"/>
<polygon fill="midnightblue" stroke="midnightblue" points="144.035,-83.0405 133.706,-85.3994 143.252,-89.9965 144.035,-83.0405"/>
</g>
<!-- Node4 -->
<g id="node4" class="node"><title>Node4</title>
<g id="a_node4"><a xlink:href="../../da/db2/classcommand_1_1control_1_1_for_command.html#ad494f107c7c0e97f862dcfddc476a064" target="_top" xlink:title="command.control.ForCommand.calculate\lValue">
<polygon fill="white" stroke="black" points="183.5,-39 183.5,-69 398.5,-69 398.5,-39 183.5,-39"/>
<text text-anchor="start" x="191.5" y="-57" font-family="Helvetica,sans-Serif" font-size="10.00">command.control.ForCommand.calculate</text>
<text text-anchor="middle" x="291" y="-46" font-family="Helvetica,sans-Serif" font-size="10.00">Value</text>
</a>
</g>
</g>
<!-- Node1&#45;&gt;Node4 -->
<g id="edge3" class="edge"><title>Node1&#45;&gt;Node4</title>
<path fill="none" stroke="midnightblue" d="M143.755,-69.8103C156.487,-68.4338 169.91,-66.9827 183.251,-65.5405"/>
<polygon fill="midnightblue" stroke="midnightblue" points="143.272,-66.342 133.706,-70.8966 144.025,-73.3014 143.272,-66.342"/>
</g>
<!-- Node5 -->
<g id="node5" class="node"><title>Node5</title>
<g id="a_node5"><a xlink:href="../../d4/d08/classmodel_1_1_variable.html#a0f13f44cbd73305f46ecf446ff18e8da" target="_top" xlink:title="model.Variable.toString">
<polygon fill="white" stroke="black" points="226.5,-0.5 226.5,-19.5 355.5,-19.5 355.5,-0.5 226.5,-0.5"/>
<text text-anchor="middle" x="291" y="-7.5" font-family="Helvetica,sans-Serif" font-size="10.00">model.Variable.toString</text>
</a>
</g>
</g>
<!-- Node1&#45;&gt;Node5 -->
<g id="edge4" class="edge"><title>Node1&#45;&gt;Node5</title>
<path fill="none" stroke="midnightblue" d="M93.6077,-63.5282C113.772,-52.7365 142.904,-38.4558 170,-30 187.944,-24.4002 207.915,-20.2767 226.335,-17.2798"/>
<polygon fill="midnightblue" stroke="midnightblue" points="91.8527,-60.4986 84.7456,-68.356 95.2015,-66.6456 91.8527,-60.4986"/>
</g>
</g>
</svg>
