<?xml version="1.0" encoding="UTF-8" standalone="no"?>
<!DOCTYPE svg PUBLIC "-//W3C//DTD SVG 1.1//EN"
 "http://www.w3.org/Graphics/SVG/1.1/DTD/svg11.dtd">
<!-- Generated by graphviz version 2.36.0 (20140111.2315)
 -->
<!-- Title: model.GhostView Pages: 1 -->
<svg width="383pt" height="118pt"
 viewBox="0.00 0.00 383.00 118.00" xmlns="http://www.w3.org/2000/svg" xmlns:xlink="http://www.w3.org/1999/xlink">
<g id="graph0" class="graph" transform="scale(1 1) rotate(0) translate(4 114)">
<title>model.GhostView</title>
<polygon fill="white" stroke="none" points="-4,4 -4,-114 379,-114 379,4 -4,4"/>
<!-- Node1 -->
<g id="node1" class="node"><title>Node1</title>
<polygon fill="#bfbfbf" stroke="black" points="125,-0.5 125,-19.5 225,-19.5 225,-0.5 125,-0.5"/>
<text text-anchor="middle" x="175" y="-7.5" font-family="Helvetica,sans-Serif" font-size="10.00">model.GhostView</text>
</g>
<!-- Node2 -->
<g id="node2" class="node"><title>Node2</title>
<polygon fill="white" stroke="#bfbfbf" points="-0.5,-90.5 -0.5,-109.5 90.5,-109.5 90.5,-90.5 -0.5,-90.5"/>
<text text-anchor="middle" x="45" y="-97.5" font-family="Helvetica,sans-Serif" font-size="10.00">IntegerProperty</text>
</g>
<!-- Node2&#45;&gt;Node1 -->
<g id="edge1" class="edge"><title>Node2&#45;&gt;Node1</title>
<path fill="none" stroke="#9a32cd" stroke-dasharray="5,2" d="M46.1082,-79.9502C47.9135,-66.4151 52.5003,-48.7935 64,-38 80.2685,-22.7306 103.675,-15.6674 124.804,-12.5467"/>
<polygon fill="#9a32cd" stroke="#9a32cd" points="42.6036,-79.8359 45.1551,-90.1189 49.5731,-80.4892 42.6036,-79.8359"/>
<text text-anchor="middle" x="117.5" y="-63.5" font-family="Helvetica,sans-Serif" font-size="10.00"> penColorIndex</text>
<text text-anchor="middle" x="117.5" y="-52.5" font-family="Helvetica,sans-Serif" font-size="10.00">penSize</text>
<text text-anchor="middle" x="117.5" y="-41.5" font-family="Helvetica,sans-Serif" font-size="10.00">backgroundColorIndex</text>
</g>
<!-- Node3 -->
<g id="node3" class="node"><title>Node3</title>
<polygon fill="white" stroke="#bfbfbf" points="127,-90.5 127,-109.5 223,-109.5 223,-90.5 127,-90.5"/>
<text text-anchor="middle" x="175" y="-97.5" font-family="Helvetica,sans-Serif" font-size="10.00">BooleanProperty</text>
</g>
<!-- Node3&#45;&gt;Node1 -->
<g id="edge2" class="edge"><title>Node3&#45;&gt;Node1</title>
<path fill="none" stroke="#9a32cd" stroke-dasharray="5,2" d="M175,-79.9784C175,-61.3096 175,-33.6696 175,-19.7241"/>
<polygon fill="#9a32cd" stroke="#9a32cd" points="171.5,-80.2405 175,-90.2405 178.5,-80.2405 171.5,-80.2405"/>
<text text-anchor="middle" x="193.5" y="-52.5" font-family="Helvetica,sans-Serif" font-size="10.00"> isDown</text>
</g>
<!-- Node4 -->
<g id="node4" class="node"><title>Node4</title>
<polygon fill="white" stroke="#bfbfbf" points="241,-90.5 241,-109.5 375,-109.5 375,-90.5 241,-90.5"/>
<text text-anchor="middle" x="308" y="-97.5" font-family="Helvetica,sans-Serif" font-size="10.00">ObservableList&lt; Color &gt;</text>
</g>
<!-- Node4&#45;&gt;Node1 -->
<g id="edge3" class="edge"><title>Node4&#45;&gt;Node1</title>
<path fill="none" stroke="#9a32cd" stroke-dasharray="5,2" d="M286.542,-84.7451C267.905,-72.3705 240.183,-53.9799 216,-38 206.614,-31.7978 196.007,-24.8131 187.933,-19.5019"/>
<polygon fill="#9a32cd" stroke="#9a32cd" points="284.64,-87.6832 294.906,-90.2997 288.512,-81.8519 284.64,-87.6832"/>
<text text-anchor="middle" x="312" y="-58" font-family="Helvetica,sans-Serif" font-size="10.00"> backgroundColors</text>
<text text-anchor="middle" x="312" y="-47" font-family="Helvetica,sans-Serif" font-size="10.00">penColors</text>
</g>
</g>
</svg>
