<?xml version="1.0" encoding="UTF-8" standalone="no"?>
<!DOCTYPE svg PUBLIC "-//W3C//DTD SVG 1.1//EN"
 "http://www.w3.org/Graphics/SVG/1.1/DTD/svg11.dtd">
<!-- Generated by graphviz version 2.36.0 (20140111.2315)
 -->
<!-- Title: ui_table.TableElements Pages: 1 -->
<svg width="273pt" height="84pt"
 viewBox="0.00 0.00 273.00 84.00" xmlns="http://www.w3.org/2000/svg" xmlns:xlink="http://www.w3.org/1999/xlink">
<g id="graph0" class="graph" transform="scale(1 1) rotate(0) translate(4 80)">
<title>ui_table.TableElements</title>
<polygon fill="white" stroke="none" points="-4,4 -4,-80 269,-80 269,4 -4,4"/>
<!-- Node1 -->
<g id="node1" class="node"><title>Node1</title>
<polygon fill="#bfbfbf" stroke="black" points="84,-56.5 84,-75.5 210,-75.5 210,-56.5 84,-56.5"/>
<text text-anchor="middle" x="147" y="-63.5" font-family="Helvetica,sans-Serif" font-size="10.00">ui_table.TableElements</text>
</g>
<!-- Node2 -->
<g id="node2" class="node"><title>Node2</title>
<g id="a_node2"><a xlink:href="../../dd/d5b/classui__table_1_1_previous_commands.html" target="_top" xlink:title="ui_table.PreviousCommands">
<polygon fill="white" stroke="black" points="-0.5,-0.5 -0.5,-19.5 152.5,-19.5 152.5,-0.5 -0.5,-0.5"/>
<text text-anchor="middle" x="76" y="-7.5" font-family="Helvetica,sans-Serif" font-size="10.00">ui_table.PreviousCommands</text>
</a>
</g>
</g>
<!-- Node1&#45;&gt;Node2 -->
<g id="edge1" class="edge"><title>Node1&#45;&gt;Node2</title>
<path fill="none" stroke="midnightblue" d="M127.41,-50.1008C114.632,-40.3824 98.3873,-28.0269 87.6149,-19.8339"/>
<polygon fill="midnightblue" stroke="midnightblue" points="125.514,-53.0561 135.593,-56.324 129.752,-47.4844 125.514,-53.0561"/>
</g>
<!-- Node3 -->
<g id="node3" class="node"><title>Node3</title>
<g id="a_node3"><a xlink:href="../../d1/d01/classui__table_1_1_variable.html" target="_top" xlink:title="ui_table.Variable">
<polygon fill="white" stroke="black" points="170.5,-0.5 170.5,-19.5 265.5,-19.5 265.5,-0.5 170.5,-0.5"/>
<text text-anchor="middle" x="218" y="-7.5" font-family="Helvetica,sans-Serif" font-size="10.00">ui_table.Variable</text>
</a>
</g>
</g>
<!-- Node1&#45;&gt;Node3 -->
<g id="edge2" class="edge"><title>Node1&#45;&gt;Node3</title>
<path fill="none" stroke="midnightblue" d="M166.59,-50.1008C179.368,-40.3824 195.613,-28.0269 206.385,-19.8339"/>
<polygon fill="midnightblue" stroke="midnightblue" points="164.248,-47.4844 158.407,-56.324 168.486,-53.0561 164.248,-47.4844"/>
</g>
</g>
</svg>
