<?xml version="1.0" encoding="UTF-8" standalone="no"?>
<!DOCTYPE svg PUBLIC "-//W3C//DTD SVG 1.1//EN"
 "http://www.w3.org/Graphics/SVG/1.1/DTD/svg11.dtd">
<!-- Generated by graphviz version 2.36.0 (20140111.2315)
 -->
<!-- Title: command.control.DoTimesCommand.DoTimesCommand Pages: 1 -->
<svg width="408pt" height="38pt"
 viewBox="0.00 0.00 408.00 38.00" xmlns="http://www.w3.org/2000/svg" xmlns:xlink="http://www.w3.org/1999/xlink">
<g id="graph0" class="graph" transform="scale(1 1) rotate(0) translate(4 34)">
<title>command.control.DoTimesCommand.DoTimesCommand</title>
<polygon fill="white" stroke="none" points="-4,4 -4,-34 404,-34 404,4 -4,4"/>
<!-- Node1 -->
<g id="node1" class="node"><title>Node1</title>
<polygon fill="#bfbfbf" stroke="black" points="0,-0 0,-30 200,-30 200,-0 0,-0"/>
<text text-anchor="start" x="8" y="-18" font-family="Helvetica,sans-Serif" font-size="10.00">command.control.DoTimesCommand.</text>
<text text-anchor="middle" x="100" y="-7" font-family="Helvetica,sans-Serif" font-size="10.00">DoTimesCommand</text>
</g>
<!-- Node2 -->
<g id="node2" class="node"><title>Node2</title>
<g id="a_node2"><a xlink:href="../../dc/d9e/classparser_1_1_command_tree_node.html#a2700486f6a49c0a080114bee6e51f271" target="_top" xlink:title="parser.CommandTreeNode.get\lChildren">
<polygon fill="white" stroke="black" points="236,-0 236,-30 400,-30 400,-0 236,-0"/>
<text text-anchor="start" x="244" y="-18" font-family="Helvetica,sans-Serif" font-size="10.00">parser.CommandTreeNode.get</text>
<text text-anchor="middle" x="318" y="-7" font-family="Helvetica,sans-Serif" font-size="10.00">Children</text>
</a>
</g>
</g>
<!-- Node1&#45;&gt;Node2 -->
<g id="edge1" class="edge"><title>Node1&#45;&gt;Node2</title>
<path fill="none" stroke="midnightblue" d="M200.149,-15C208.665,-15 217.254,-15 225.703,-15"/>
<polygon fill="midnightblue" stroke="midnightblue" points="225.926,-18.5001 235.926,-15 225.926,-11.5001 225.926,-18.5001"/>
</g>
</g>
</svg>
