<?xml version="1.0" encoding="UTF-8" standalone="no"?>
<!DOCTYPE svg PUBLIC "-//W3C//DTD SVG 1.1//EN"
 "http://www.w3.org/Graphics/SVG/1.1/DTD/svg11.dtd">
<!-- Generated by graphviz version 2.36.0 (20140111.2315)
 -->
<!-- Title: command.control.DoTimesCommand.calculateValue Pages: 1 -->
<!--zoomable 252 -->
<svg id="main" version="1.1" xmlns="http://www.w3.org/2000/svg" xmlns:xlink="http://www.w3.org/1999/xlink" xml:space="preserve" onload="init(evt)">
<style type="text/css"><![CDATA[
.edge:hover path { stroke: red; }
.edge:hover polygon { stroke: red; fill: red; }
]]></style>
<script type="text/javascript"><![CDATA[
var edges = document.getElementsByTagName('g');
if (edges && edges.length) {
  for (var i=0;i<edges.length;i++) {
    if (edges[i].id.substr(0,4)=='edge') {
      edges[i].setAttribute('class','edge');
    }
  }
}
]]></script>
        <defs>
                <circle id="rim" cx="0" cy="0" r="7"/>
                <circle id="rim2" cx="0" cy="0" r="3.5"/>
                <g id="zoomPlus">
                        <use xlink:href="#rim" fill="#404040">
                                <set attributeName="fill" to="#808080" begin="zoomplus.mouseover" end="zoomplus.mouseout"/>
                        </use>
                        <path d="M-4,0h8M0,-4v8" fill="none" stroke="white" stroke-width="1.5" pointer-events="none"/>
                </g>
                <g id="zoomMin">
                        <use xlink:href="#rim" fill="#404040">
                                <set attributeName="fill" to="#808080" begin="zoomminus.mouseover" end="zoomminus.mouseout"/>
                        </use>
                        <path d="M-4,0h8" fill="none" stroke="white" stroke-width="1.5" pointer-events="none"/>
                </g>
                <g id="dirArrow">
                        <path fill="none" stroke="white" stroke-width="1.5" d="M0,-3.0v7 M-2.5,-0.5L0,-3.0L2.5,-0.5"/>
                </g>
               <g id="resetDef">
                       <use xlink:href="#rim2" fill="#404040">
                               <set attributeName="fill" to="#808080" begin="reset.mouseover" end="reset.mouseout"/>
                       </use>
               </g>
        </defs>

<script type="text/javascript">
var viewWidth = 1098;
var viewHeight = 252;
var sectionId = 'dynsection-3';
</script>
<script xlink:href="../../svgpan.js"/>
<svg id="graph" class="graph">
<g id="viewport">
<title>command.control.DoTimesCommand.calculateValue</title>
<polygon fill="white" stroke="none" points="-4,4 -4,-248 1094,-248 1094,4 -4,4"/>
<!-- Node1 -->
<g id="node1" class="node"><title>Node1</title>
<polygon fill="#bfbfbf" stroke="black" points="0,-141 0,-171 242,-171 242,-141 0,-141"/>
<text text-anchor="start" x="8" y="-159" font-family="Helvetica,sans-Serif" font-size="10.00">command.control.DoTimesCommand.calculate</text>
<text text-anchor="middle" x="121" y="-148" font-family="Helvetica,sans-Serif" font-size="10.00">Value</text>
</g>
<!-- Node2 -->
<g id="node2" class="node"><title>Node2</title>
<g id="a_node2"><a xlink:href="../../db/d55/classmodel_1_1_variable_list.html#a09697cca38c12cf837ee40e71d02f78b" target="_top" xlink:title="model.VariableList.get">
<polygon fill="white" stroke="black" points="717.5,-222.5 717.5,-241.5 840.5,-241.5 840.5,-222.5 717.5,-222.5"/>
<text text-anchor="middle" x="779" y="-229.5" font-family="Helvetica,sans-Serif" font-size="10.00">model.VariableList.get</text>
</a>
</g>
</g>
<!-- Node1&#45;&gt;Node2 -->
<g id="edge1" class="edge"><title>Node1&#45;&gt;Node2</title>
<path fill="none" stroke="midnightblue" d="M154.017,-171.062C184.97,-184.806 233.58,-204.266 278,-213 428.651,-242.622 609.613,-240.398 707.222,-236.182"/>
<polygon fill="midnightblue" stroke="midnightblue" points="707.435,-239.676 717.267,-235.728 707.119,-232.683 707.435,-239.676"/>
</g>
<!-- Node4 -->
<g id="node4" class="node"><title>Node4</title>
<g id="a_node4"><a xlink:href="../../d4/d08/classmodel_1_1_variable.html#a4821e6ef8e0b15c009d8769642dac6b7" target="_top" xlink:title="model.Variable.getName">
<polygon fill="white" stroke="black" points="302,-184.5 302,-203.5 438,-203.5 438,-184.5 302,-184.5"/>
<text text-anchor="middle" x="370" y="-191.5" font-family="Helvetica,sans-Serif" font-size="10.00">model.Variable.getName</text>
</a>
</g>
</g>
<!-- Node1&#45;&gt;Node4 -->
<g id="edge3" class="edge"><title>Node1&#45;&gt;Node4</title>
<path fill="none" stroke="midnightblue" d="M219.621,-171.019C245.461,-174.994 272.883,-179.213 297.084,-182.936"/>
<polygon fill="midnightblue" stroke="midnightblue" points="296.828,-186.438 307.244,-184.499 297.893,-179.519 296.828,-186.438"/>
</g>
<!-- Node5 -->
<g id="node5" class="node"><title>Node5</title>
<g id="a_node5"><a xlink:href="../../d4/d08/classmodel_1_1_variable.html#a49730c824ab9fe357246b60968a0c871" target="_top" xlink:title="model.Variable.getValue">
<polygon fill="white" stroke="black" points="303.5,-146.5 303.5,-165.5 436.5,-165.5 436.5,-146.5 303.5,-146.5"/>
<text text-anchor="middle" x="370" y="-153.5" font-family="Helvetica,sans-Serif" font-size="10.00">model.Variable.getValue</text>
</a>
</g>
</g>
<!-- Node1&#45;&gt;Node5 -->
<g id="edge4" class="edge"><title>Node1&#45;&gt;Node5</title>
<path fill="none" stroke="midnightblue" d="M242.244,-156C259.554,-156 276.95,-156 293.07,-156"/>
<polygon fill="midnightblue" stroke="midnightblue" points="293.465,-159.5 303.465,-156 293.465,-152.5 293.465,-159.5"/>
</g>
<!-- Node6 -->
<g id="node6" class="node"><title>Node6</title>
<g id="a_node6"><a xlink:href="../../d9/d88/classmodel_1_1_tree_interpreter.html#a12974b618a919e80784499cde45d925e" target="_top" xlink:title="model.TreeInterpreter.get\lVariableList">
<polygon fill="white" stroke="black" points="301,-97 301,-127 439,-127 439,-97 301,-97"/>
<text text-anchor="start" x="309" y="-115" font-family="Helvetica,sans-Serif" font-size="10.00">model.TreeInterpreter.get</text>
<text text-anchor="middle" x="370" y="-104" font-family="Helvetica,sans-Serif" font-size="10.00">VariableList</text>
</a>
</g>
</g>
<!-- Node1&#45;&gt;Node6 -->
<g id="edge5" class="edge"><title>Node1&#45;&gt;Node6</title>
<path fill="none" stroke="midnightblue" d="M206.313,-140.981C233.575,-136.124 263.681,-130.761 290.505,-125.983"/>
<polygon fill="midnightblue" stroke="midnightblue" points="291.381,-129.382 300.612,-124.183 290.153,-122.491 291.381,-129.382"/>
</g>
<!-- Node7 -->
<g id="node7" class="node"><title>Node7</title>
<g id="a_node7"><a xlink:href="../../d9/d88/classmodel_1_1_tree_interpreter.html#a501df6b8cfe1a8175a9da0ed96d30d6f" target="_top" xlink:title="model.TreeInterpreter.interpretTree">
<polygon fill="white" stroke="black" points="278.5,-58.5 278.5,-77.5 461.5,-77.5 461.5,-58.5 278.5,-58.5"/>
<text text-anchor="middle" x="370" y="-65.5" font-family="Helvetica,sans-Serif" font-size="10.00">model.TreeInterpreter.interpretTree</text>
</a>
</g>
</g>
<!-- Node1&#45;&gt;Node7 -->
<g id="edge6" class="edge"><title>Node1&#45;&gt;Node7</title>
<path fill="none" stroke="midnightblue" d="M151.18,-140.863C181.989,-125.417 232.328,-101.687 278,-87 286.372,-84.3076 295.304,-81.9005 304.176,-79.7793"/>
<polygon fill="midnightblue" stroke="midnightblue" points="305.166,-83.1435 314.137,-77.5059 303.608,-76.319 305.166,-83.1435"/>
</g>
<!-- Node3 -->
<g id="node3" class="node"><title>Node3</title>
<g id="a_node3"><a xlink:href="../../db/d55/classmodel_1_1_variable_list.html#a0adb554303c7191db1da43ddb5fa2c45" target="_top" xlink:title="model.VariableList.add">
<polygon fill="white" stroke="black" points="930.5,-224.5 930.5,-243.5 1055.5,-243.5 1055.5,-224.5 930.5,-224.5"/>
<text text-anchor="middle" x="993" y="-231.5" font-family="Helvetica,sans-Serif" font-size="10.00">model.VariableList.add</text>
</a>
</g>
</g>
<!-- Node2&#45;&gt;Node3 -->
<g id="edge2" class="edge"><title>Node2&#45;&gt;Node3</title>
<path fill="none" stroke="midnightblue" d="M840.751,-232.573C865.486,-232.806 894.269,-233.078 920.047,-233.321"/>
<polygon fill="midnightblue" stroke="midnightblue" points="920.104,-236.822 930.137,-233.416 920.17,-229.822 920.104,-236.822"/>
</g>
<!-- Node8 -->
<g id="node8" class="node"><title>Node8</title>
<g id="a_node8"><a xlink:href="../../dc/d9e/classparser_1_1_command_tree_node.html#a2700486f6a49c0a080114bee6e51f271" target="_top" xlink:title="parser.CommandTreeNode.get\lChildren">
<polygon fill="white" stroke="black" points="498,-53 498,-83 662,-83 662,-53 498,-53"/>
<text text-anchor="start" x="506" y="-71" font-family="Helvetica,sans-Serif" font-size="10.00">parser.CommandTreeNode.get</text>
<text text-anchor="middle" x="580" y="-60" font-family="Helvetica,sans-Serif" font-size="10.00">Children</text>
</a>
</g>
</g>
<!-- Node7&#45;&gt;Node8 -->
<g id="edge7" class="edge"><title>Node7&#45;&gt;Node8</title>
<path fill="none" stroke="midnightblue" d="M461.627,-68C470.282,-68 479.063,-68 487.725,-68"/>
<polygon fill="midnightblue" stroke="midnightblue" points="487.823,-71.5001 497.823,-68 487.823,-64.5001 487.823,-71.5001"/>
</g>
<!-- Node9 -->
<g id="node9" class="node"><title>Node9</title>
<g id="a_node9"><a xlink:href="../../dc/d9e/classparser_1_1_command_tree_node.html#a8bb8a112395f78809b0be06f1c3f5282" target="_top" xlink:title="parser.CommandTreeNode.getType">
<polygon fill="white" stroke="black" points="900.5,-0.5 900.5,-19.5 1085.5,-19.5 1085.5,-0.5 900.5,-0.5"/>
<text text-anchor="middle" x="993" y="-7.5" font-family="Helvetica,sans-Serif" font-size="10.00">parser.CommandTreeNode.getType</text>
</a>
</g>
</g>
<!-- Node7&#45;&gt;Node9 -->
<g id="edge8" class="edge"><title>Node7&#45;&gt;Node9</title>
<path fill="none" stroke="midnightblue" d="M412.248,-58.4944C436.986,-53.1408 469.147,-46.7879 498,-43 632.92,-25.2876 789.889,-16.862 890.039,-13.0109"/>
<polygon fill="midnightblue" stroke="midnightblue" points="890.292,-16.504 900.153,-12.6301 890.029,-9.50893 890.292,-16.504"/>
</g>
<!-- Node10 -->
<g id="node10" class="node"><title>Node10</title>
<g id="a_node10"><a xlink:href="../../d9/d88/classmodel_1_1_tree_interpreter.html#a3e460e5ebe66f781afb480f0f0ec2ce7" target="_top" xlink:title="model.TreeInterpreter.update">
<polygon fill="white" stroke="black" points="502,-121.5 502,-140.5 658,-140.5 658,-121.5 502,-121.5"/>
<text text-anchor="middle" x="580" y="-128.5" font-family="Helvetica,sans-Serif" font-size="10.00">model.TreeInterpreter.update</text>
</a>
</g>
</g>
<!-- Node7&#45;&gt;Node10 -->
<g id="edge9" class="edge"><title>Node7&#45;&gt;Node10</title>
<path fill="none" stroke="midnightblue" d="M423.792,-77.5867C436.403,-80.2713 449.756,-83.4425 462,-87 491.358,-95.5301 523.835,-107.996 547.108,-117.483"/>
<polygon fill="midnightblue" stroke="midnightblue" points="545.904,-120.773 556.483,-121.347 548.571,-114.301 545.904,-120.773"/>
</g>
<!-- Node10&#45;&gt;Node2 -->
<g id="edge19" class="edge"><title>Node10&#45;&gt;Node2</title>
<path fill="none" stroke="midnightblue" d="M593.745,-140.505C614.635,-155.744 657.862,-185.871 698,-205 709.372,-210.419 722.124,-215.243 734.048,-219.26"/>
<polygon fill="midnightblue" stroke="midnightblue" points="733.229,-222.674 743.821,-222.44 735.395,-216.018 733.229,-222.674"/>
</g>
<!-- Node10&#45;&gt;Node9 -->
<g id="edge10" class="edge"><title>Node10&#45;&gt;Node9</title>
<path fill="none" stroke="midnightblue" d="M600.052,-121.317C622.878,-110.003 662.495,-91.272 698,-79 783.783,-49.3497 807.452,-48.9286 896,-29 907.282,-26.4609 919.35,-23.929 930.99,-21.5798"/>
<polygon fill="midnightblue" stroke="midnightblue" points="931.956,-24.9561 941.078,-19.5668 930.586,-18.0914 931.956,-24.9561"/>
</g>
<!-- Node11 -->
<g id="node11" class="node"><title>Node11</title>
<g id="a_node11"><a xlink:href="../../d9/d88/classmodel_1_1_tree_interpreter.html#af4d24e7867eb3a4a53f79f4a9288f9fd" target="_top" xlink:title="model.TreeInterpreter.execute\lCommand">
<polygon fill="white" stroke="black" points="698.5,-89 698.5,-119 859.5,-119 859.5,-89 698.5,-89"/>
<text text-anchor="start" x="706.5" y="-107" font-family="Helvetica,sans-Serif" font-size="10.00">model.TreeInterpreter.execute</text>
<text text-anchor="middle" x="779" y="-96" font-family="Helvetica,sans-Serif" font-size="10.00">Command</text>
</a>
</g>
</g>
<!-- Node10&#45;&gt;Node11 -->
<g id="edge11" class="edge"><title>Node10&#45;&gt;Node11</title>
<path fill="none" stroke="midnightblue" d="M650.455,-121.481C662.692,-119.804 675.586,-118.036 688.284,-116.296"/>
<polygon fill="midnightblue" stroke="midnightblue" points="688.977,-119.734 698.409,-114.908 688.027,-112.799 688.977,-119.734"/>
</g>
<!-- Node13 -->
<g id="node13" class="node"><title>Node13</title>
<g id="a_node13"><a xlink:href="../../dc/d9e/classparser_1_1_command_tree_node.html#a73e4ab6ebca47d41b993f0e66ee4c8d2" target="_top" xlink:title="parser.CommandTreeNode.getName">
<polygon fill="white" stroke="black" points="896.5,-186.5 896.5,-205.5 1089.5,-205.5 1089.5,-186.5 896.5,-186.5"/>
<text text-anchor="middle" x="993" y="-193.5" font-family="Helvetica,sans-Serif" font-size="10.00">parser.CommandTreeNode.getName</text>
</a>
</g>
</g>
<!-- Node10&#45;&gt;Node13 -->
<g id="edge17" class="edge"><title>Node10&#45;&gt;Node13</title>
<path fill="none" stroke="midnightblue" d="M622.004,-140.552C644.384,-145.566 672.628,-151.57 698,-156 765.138,-167.723 841.408,-178.013 899.437,-185.219"/>
<polygon fill="midnightblue" stroke="midnightblue" points="899.334,-188.733 909.687,-186.484 900.191,-181.786 899.334,-188.733"/>
</g>
<!-- Node15 -->
<g id="node15" class="node"><title>Node15</title>
<g id="a_node15"><a xlink:href="../../dc/d9e/classparser_1_1_command_tree_node.html#a3d691b68da13689c03ebd9de665c379c" target="_top" xlink:title="parser.CommandTreeNode.set\lValue">
<polygon fill="white" stroke="black" points="911.5,-137 911.5,-167 1074.5,-167 1074.5,-137 911.5,-137"/>
<text text-anchor="start" x="919.5" y="-155" font-family="Helvetica,sans-Serif" font-size="10.00">parser.CommandTreeNode.set</text>
<text text-anchor="middle" x="993" y="-144" font-family="Helvetica,sans-Serif" font-size="10.00">Value</text>
</a>
</g>
</g>
<!-- Node10&#45;&gt;Node15 -->
<g id="edge18" class="edge"><title>Node10&#45;&gt;Node15</title>
<path fill="none" stroke="midnightblue" d="M658.306,-134.95C727.264,-138.473 828.287,-143.635 901.097,-147.355"/>
<polygon fill="midnightblue" stroke="midnightblue" points="901.011,-150.855 911.177,-147.87 901.369,-143.865 901.011,-150.855"/>
</g>
<!-- Node11&#45;&gt;Node9 -->
<g id="edge13" class="edge"><title>Node11&#45;&gt;Node9</title>
<path fill="none" stroke="midnightblue" d="M830.7,-88.9097C840.91,-84.6464 851.197,-79.383 860,-73 880.455,-58.1677 874.331,-41.9956 896,-29 899.606,-26.8372 903.412,-24.915 907.346,-23.2072"/>
<polygon fill="midnightblue" stroke="midnightblue" points="908.647,-26.4568 916.723,-19.5986 906.133,-19.9239 908.647,-26.4568"/>
</g>
<!-- Node12 -->
<g id="node12" class="node"><title>Node12</title>
<g id="a_node12"><a xlink:href="../../db/d10/classmodel_1_1_command_factory.html#a3982ff8b4387b7e50c9ec4350ee01733" target="_top" xlink:title="model.CommandFactory.create\lCommand">
<polygon fill="white" stroke="black" points="909.5,-39 909.5,-69 1076.5,-69 1076.5,-39 909.5,-39"/>
<text text-anchor="start" x="917.5" y="-57" font-family="Helvetica,sans-Serif" font-size="10.00">model.CommandFactory.create</text>
<text text-anchor="middle" x="993" y="-46" font-family="Helvetica,sans-Serif" font-size="10.00">Command</text>
</a>
</g>
</g>
<!-- Node11&#45;&gt;Node12 -->
<g id="edge12" class="edge"><title>Node11&#45;&gt;Node12</title>
<path fill="none" stroke="midnightblue" d="M843.607,-88.9984C867.083,-83.4616 893.88,-77.1415 918.184,-71.4095"/>
<polygon fill="midnightblue" stroke="midnightblue" points="919.142,-74.7795 928.072,-69.0774 917.535,-67.9665 919.142,-74.7795"/>
</g>
<!-- Node11&#45;&gt;Node13 -->
<g id="edge14" class="edge"><title>Node11&#45;&gt;Node13</title>
<path fill="none" stroke="midnightblue" d="M799.384,-119.022C821.538,-135.453 859.467,-161.389 896,-176 903.783,-179.112 912.122,-181.768 920.517,-184.026"/>
<polygon fill="midnightblue" stroke="midnightblue" points="919.816,-187.458 930.368,-186.499 921.521,-180.669 919.816,-187.458"/>
</g>
<!-- Node14 -->
<g id="node14" class="node"><title>Node14</title>
<g id="a_node14"><a xlink:href="../../d9/d88/classmodel_1_1_tree_interpreter.html#adc0cf2c5819ec7f42db4e37db51b1893" target="_top" xlink:title="model.TreeInterpreter.get\lConstructors">
<polygon fill="white" stroke="black" points="924,-88 924,-118 1062,-118 1062,-88 924,-88"/>
<text text-anchor="start" x="932" y="-106" font-family="Helvetica,sans-Serif" font-size="10.00">model.TreeInterpreter.get</text>
<text text-anchor="middle" x="993" y="-95" font-family="Helvetica,sans-Serif" font-size="10.00">Constructors</text>
</a>
</g>
</g>
<!-- Node11&#45;&gt;Node14 -->
<g id="edge15" class="edge"><title>Node11&#45;&gt;Node14</title>
<path fill="none" stroke="midnightblue" d="M859.544,-103.625C877.223,-103.541 895.951,-103.453 913.584,-103.37"/>
<polygon fill="midnightblue" stroke="midnightblue" points="913.84,-106.869 923.823,-103.322 913.807,-99.8689 913.84,-106.869"/>
</g>
<!-- Node11&#45;&gt;Node15 -->
<g id="edge16" class="edge"><title>Node11&#45;&gt;Node15</title>
<path fill="none" stroke="midnightblue" d="M846.496,-119.056C868.498,-124.037 893.15,-129.619 915.82,-134.752"/>
<polygon fill="midnightblue" stroke="midnightblue" points="915.213,-138.203 925.739,-136.998 916.759,-131.376 915.213,-138.203"/>
</g>
</g>
</svg>
        <g id="navigator" transform="translate(0 0)" fill="#404254">
                <rect fill="#f2f5e9" fill-opacity="0.5" stroke="#606060" stroke-width=".5" x="0" y="0" width="60" height="60"/>
                <use id="zoomplus" xlink:href="#zoomPlus" x="17" y="9" onmousedown="handleZoom(evt,'in')"/>
                <use id="zoomminus" xlink:href="#zoomMin" x="42" y="9" onmousedown="handleZoom(evt,'out')"/>
                <use id="reset" xlink:href="#resetDef" x="30" y="36" onmousedown="handleReset()"/>
                <g id="arrowUp" xlink:href="#dirArrow" transform="translate(30 24)" onmousedown="handlePan(0,-1)">
                  <use xlink:href="#rim" fill="#404040">
                        <set attributeName="fill" to="#808080" begin="arrowUp.mouseover" end="arrowUp.mouseout"/>
                  </use>
                  <path fill="none" stroke="white" stroke-width="1.5" d="M0,-3.0v7 M-2.5,-0.5L0,-3.0L2.5,-0.5"/>
                </g>
                <g id="arrowRight" xlink:href="#dirArrow" transform="rotate(90) translate(36 -43)" onmousedown="handlePan(1,0)">
                  <use xlink:href="#rim" fill="#404040">
                        <set attributeName="fill" to="#808080" begin="arrowRight.mouseover" end="arrowRight.mouseout"/>
                  </use>
                  <path fill="none" stroke="white" stroke-width="1.5" d="M0,-3.0v7 M-2.5,-0.5L0,-3.0L2.5,-0.5"/>
                </g>
                <g id="arrowDown" xlink:href="#dirArrow" transform="rotate(180) translate(-30 -48)" onmousedown="handlePan(0,1)">
                  <use xlink:href="#rim" fill="#404040">
                        <set attributeName="fill" to="#808080" begin="arrowDown.mouseover" end="arrowDown.mouseout"/>
                  </use>
                  <path fill="none" stroke="white" stroke-width="1.5" d="M0,-3.0v7 M-2.5,-0.5L0,-3.0L2.5,-0.5"/>
                </g>
                <g id="arrowLeft" xlink:href="#dirArrow" transform="rotate(270) translate(-36 17)" onmousedown="handlePan(-1,0)">
                  <use xlink:href="#rim" fill="#404040">
                        <set attributeName="fill" to="#808080" begin="arrowLeft.mouseover" end="arrowLeft.mouseout"/>
                  </use>
                  <path fill="none" stroke="white" stroke-width="1.5" d="M0,-3.0v7 M-2.5,-0.5L0,-3.0L2.5,-0.5"/>
                </g>
        </g>
        <svg viewBox="0 0 15 15" width="100%" height="30px" preserveAspectRatio="xMaxYMin meet">
         <g id="arrow_out" transform="scale(0.3 0.3)">
          <a xlink:href="classcommand_1_1control_1_1_do_times_command_a932eb0f99c5b2fecf8fd6939ef4b0c5b_cgraph_org.svg" target="_base">
           <rect id="button" ry="5" rx="5" y="6" x="6" height="38" width="38"
                fill="#f2f5e9" fill-opacity="0.5" stroke="#606060" stroke-width="1.0"/>
           <path id="arrow"
             d="M 11.500037,31.436501 C 11.940474,20.09759 22.043105,11.32322 32.158766,21.979434 L 37.068811,17.246167 C 37.068811,17.246167 37.088388,32 37.088388,32 L 22.160133,31.978069 C 22.160133,31.978069 26.997745,27.140456 26.997745,27.140456 C 18.528582,18.264221 13.291696,25.230495 11.500037,31.436501 z"
             style="fill:#404040;"/>
          </a>
         </g>
        </svg>
</svg>
