<?xml version="1.0" encoding="UTF-8" standalone="no"?>
<!DOCTYPE svg PUBLIC "-//W3C//DTD SVG 1.1//EN"
 "http://www.w3.org/Graphics/SVG/1.1/DTD/svg11.dtd">
<!-- Generated by graphviz version 2.36.0 (20140111.2315)
 -->
<!-- Title: ui.elements.IOElement.getInputField Pages: 1 -->
<svg width="2620pt" height="153pt"
 viewBox="0.00 0.00 2620.00 153.00" xmlns="http://www.w3.org/2000/svg" xmlns:xlink="http://www.w3.org/1999/xlink">
<g id="graph0" class="graph" transform="scale(1 1) rotate(0) translate(4 149)">
<title>ui.elements.IOElement.getInputField</title>
<polygon fill="white" stroke="none" points="-4,4 -4,-149 2616,-149 2616,4 -4,4"/>
<!-- Node1 -->
<g id="node1" class="node"><title>Node1</title>
<polygon fill="#bfbfbf" stroke="black" points="0,-52 0,-82 144,-82 144,-52 0,-52"/>
<text text-anchor="start" x="8" y="-70" font-family="Helvetica,sans-Serif" font-size="10.00">ui.elements.IOElement.get</text>
<text text-anchor="middle" x="72" y="-59" font-family="Helvetica,sans-Serif" font-size="10.00">InputField</text>
</g>
<!-- Node2 -->
<g id="node2" class="node"><title>Node2</title>
<g id="a_node2"><a xlink:href="../../d0/de6/classui_1_1elements_1_1_menu_bar_element.html#a2fe6c8936d469e50e26a806b8660fc8b" target="_top" xlink:title="ui.elements.MenuBarElement.check\lLanguageMenuItems">
<polygon fill="white" stroke="black" points="180.5,-112 180.5,-142 369.5,-142 369.5,-112 180.5,-112"/>
<text text-anchor="start" x="188.5" y="-130" font-family="Helvetica,sans-Serif" font-size="10.00">ui.elements.MenuBarElement.check</text>
<text text-anchor="middle" x="275" y="-119" font-family="Helvetica,sans-Serif" font-size="10.00">LanguageMenuItems</text>
</a>
</g>
</g>
<!-- Node1&#45;&gt;Node2 -->
<g id="edge1" class="edge"><title>Node1&#45;&gt;Node2</title>
<path fill="none" stroke="midnightblue" d="M133.396,-85.0286C162.155,-93.6135 196.156,-103.763 223.518,-111.931"/>
<polygon fill="midnightblue" stroke="midnightblue" points="134.045,-81.5697 123.461,-82.0631 132.042,-88.2773 134.045,-81.5697"/>
</g>
<!-- Node7 -->
<g id="node7" class="node"><title>Node7</title>
<g id="a_node7"><a xlink:href="../../dc/d3b/classui_1_1_g_u_i.html#ad8f08a79a20a498bcaafdc7e2e2ce0a9" target="_top" xlink:title="ui.GUI.parseCommand">
<polygon fill="white" stroke="black" points="212.5,-57.5 212.5,-76.5 337.5,-76.5 337.5,-57.5 212.5,-57.5"/>
<text text-anchor="middle" x="275" y="-64.5" font-family="Helvetica,sans-Serif" font-size="10.00">ui.GUI.parseCommand</text>
</a>
</g>
</g>
<!-- Node1&#45;&gt;Node7 -->
<g id="edge6" class="edge"><title>Node1&#45;&gt;Node7</title>
<path fill="none" stroke="midnightblue" d="M154.178,-67C173.563,-67 193.945,-67 212.289,-67"/>
<polygon fill="midnightblue" stroke="midnightblue" points="154.148,-63.5001 144.148,-67 154.148,-70.5001 154.148,-63.5001"/>
</g>
<!-- Node19 -->
<g id="node19" class="node"><title>Node19</title>
<g id="a_node19"><a xlink:href="../../dc/d3b/classui_1_1_g_u_i.html#ada22074441d08ce00bb69499f8707fc3" target="_top" xlink:title="ui.GUI.setInputText">
<polygon fill="white" stroke="black" points="222,-16.5 222,-35.5 328,-35.5 328,-16.5 222,-16.5"/>
<text text-anchor="middle" x="275" y="-23.5" font-family="Helvetica,sans-Serif" font-size="10.00">ui.GUI.setInputText</text>
</a>
</g>
</g>
<!-- Node1&#45;&gt;Node19 -->
<g id="edge19" class="edge"><title>Node1&#45;&gt;Node19</title>
<path fill="none" stroke="midnightblue" d="M153.953,-50.4871C178.834,-45.4119 205.378,-39.9976 227.162,-35.5541"/>
<polygon fill="midnightblue" stroke="midnightblue" points="153.247,-47.0591 144.148,-52.4872 154.646,-53.9179 153.247,-47.0591"/>
</g>
<!-- Node3 -->
<g id="node3" class="node"><title>Node3</title>
<g id="a_node3"><a xlink:href="../../d0/de6/classui_1_1elements_1_1_menu_bar_element.html#a3ee62dedaa9a64b73d373f4e58ea5690" target="_top" xlink:title="ui.elements.MenuBarElement.makeMenu">
<polygon fill="white" stroke="black" points="1004.5,-125.5 1004.5,-144.5 1219.5,-144.5 1219.5,-125.5 1004.5,-125.5"/>
<text text-anchor="middle" x="1112" y="-132.5" font-family="Helvetica,sans-Serif" font-size="10.00">ui.elements.MenuBarElement.makeMenu</text>
</a>
</g>
</g>
<!-- Node2&#45;&gt;Node3 -->
<g id="edge2" class="edge"><title>Node2&#45;&gt;Node3</title>
<path fill="none" stroke="midnightblue" d="M380.057,-127.997C539.618,-129.526 843.133,-132.434 1004.28,-133.978"/>
<polygon fill="midnightblue" stroke="midnightblue" points="379.791,-124.494 369.758,-127.898 379.724,-131.494 379.791,-124.494"/>
</g>
<!-- Node4 -->
<g id="node4" class="node"><title>Node4</title>
<g id="a_node4"><a xlink:href="../../d0/de6/classui_1_1elements_1_1_menu_bar_element.html#a98c13995a31d997aa10f2950583da6cc" target="_top" xlink:title="ui.elements.MenuBarElement.make\lMenuBar">
<polygon fill="white" stroke="black" points="2014,-99 2014,-129 2202,-129 2202,-99 2014,-99"/>
<text text-anchor="start" x="2022" y="-117" font-family="Helvetica,sans-Serif" font-size="10.00">ui.elements.MenuBarElement.make</text>
<text text-anchor="middle" x="2108" y="-106" font-family="Helvetica,sans-Serif" font-size="10.00">MenuBar</text>
</a>
</g>
</g>
<!-- Node3&#45;&gt;Node4 -->
<g id="edge3" class="edge"><title>Node3&#45;&gt;Node4</title>
<path fill="none" stroke="midnightblue" d="M1229.71,-135C1313.99,-135 1430.53,-135 1533,-135 1533,-135 1533,-135 1718,-135 1819.28,-135 1935.18,-127.814 2013.94,-121.849"/>
<polygon fill="midnightblue" stroke="midnightblue" points="1229.59,-131.5 1219.59,-135 1229.59,-138.5 1229.59,-131.5"/>
</g>
<!-- Node5 -->
<g id="node5" class="node"><title>Node5</title>
<g id="a_node5"><a xlink:href="../../d0/de6/classui_1_1elements_1_1_menu_bar_element.html#a7bdb58f78cf8b61ba28498c5c86ab682" target="_top" xlink:title="ui.elements.MenuBarElement.init">
<polygon fill="white" stroke="black" points="2238,-104.5 2238,-123.5 2414,-123.5 2414,-104.5 2238,-104.5"/>
<text text-anchor="middle" x="2326" y="-111.5" font-family="Helvetica,sans-Serif" font-size="10.00">ui.elements.MenuBarElement.init</text>
</a>
</g>
</g>
<!-- Node4&#45;&gt;Node5 -->
<g id="edge4" class="edge"><title>Node4&#45;&gt;Node5</title>
<path fill="none" stroke="midnightblue" d="M2212.23,-114C2220.83,-114 2229.48,-114 2237.94,-114"/>
<polygon fill="midnightblue" stroke="midnightblue" points="2212.17,-110.5 2202.17,-114 2212.17,-117.5 2212.17,-110.5"/>
</g>
<!-- Node6 -->
<g id="node6" class="node"><title>Node6</title>
<g id="a_node6"><a xlink:href="../../d0/de6/classui_1_1elements_1_1_menu_bar_element.html#ab4a4e6841c924a9d9c70b8073b56dffc" target="_top" xlink:title="ui.elements.MenuBarElement.\lMenuBarElement">
<polygon fill="white" stroke="black" points="2450.5,-99 2450.5,-129 2611.5,-129 2611.5,-99 2450.5,-99"/>
<text text-anchor="start" x="2458.5" y="-117" font-family="Helvetica,sans-Serif" font-size="10.00">ui.elements.MenuBarElement.</text>
<text text-anchor="middle" x="2531" y="-106" font-family="Helvetica,sans-Serif" font-size="10.00">MenuBarElement</text>
</a>
</g>
</g>
<!-- Node5&#45;&gt;Node6 -->
<g id="edge5" class="edge"><title>Node5&#45;&gt;Node6</title>
<path fill="none" stroke="midnightblue" d="M2424.47,-114C2433.19,-114 2441.95,-114 2450.5,-114"/>
<polygon fill="midnightblue" stroke="midnightblue" points="2424.27,-110.5 2414.27,-114 2424.27,-117.5 2424.27,-110.5"/>
</g>
<!-- Node8 -->
<g id="node8" class="node"><title>Node8</title>
<g id="a_node8"><a xlink:href="../../d8/d3c/classui_1_1elements_1_1_i_o_element.html#a139a046f0c771f86696f2eee04047c64" target="_top" xlink:title="ui.elements.IOElement.init">
<polygon fill="white" stroke="black" points="422.5,-87.5 422.5,-106.5 565.5,-106.5 565.5,-87.5 422.5,-87.5"/>
<text text-anchor="middle" x="494" y="-94.5" font-family="Helvetica,sans-Serif" font-size="10.00">ui.elements.IOElement.init</text>
</a>
</g>
</g>
<!-- Node7&#45;&gt;Node8 -->
<g id="edge7" class="edge"><title>Node7&#45;&gt;Node8</title>
<path fill="none" stroke="midnightblue" d="M347.584,-76.8965C372.166,-80.2948 399.617,-84.09 423.99,-87.4595"/>
<polygon fill="midnightblue" stroke="midnightblue" points="347.988,-73.4191 337.603,-75.5166 347.029,-80.3531 347.988,-73.4191"/>
</g>
<!-- Node10 -->
<g id="node10" class="node"><title>Node10</title>
<g id="a_node10"><a xlink:href="../../dc/d3b/classui_1_1_g_u_i.html#ab8ec2a37b3d5bd9e8c2abbb3642fb965" target="_top" xlink:title="ui.GUI.setupKeyboardCommands">
<polygon fill="white" stroke="black" points="406.5,-49.5 406.5,-68.5 581.5,-68.5 581.5,-49.5 406.5,-49.5"/>
<text text-anchor="middle" x="494" y="-56.5" font-family="Helvetica,sans-Serif" font-size="10.00">ui.GUI.setupKeyboardCommands</text>
</a>
</g>
</g>
<!-- Node7&#45;&gt;Node10 -->
<g id="edge9" class="edge"><title>Node7&#45;&gt;Node10</title>
<path fill="none" stroke="midnightblue" d="M347.79,-64.3534C366.461,-63.665 386.777,-62.9161 406.134,-62.2024"/>
<polygon fill="midnightblue" stroke="midnightblue" points="347.467,-60.8628 337.603,-64.7289 347.725,-67.858 347.467,-60.8628"/>
</g>
<!-- Node9 -->
<g id="node9" class="node"><title>Node9</title>
<g id="a_node9"><a xlink:href="../../d8/d3c/classui_1_1elements_1_1_i_o_element.html#a556e1a3ad292fe3ab731065eef59b187" target="_top" xlink:title="ui.elements.IOElement.IOElement">
<polygon fill="white" stroke="black" points="618,-87.5 618,-106.5 796,-106.5 796,-87.5 618,-87.5"/>
<text text-anchor="middle" x="707" y="-94.5" font-family="Helvetica,sans-Serif" font-size="10.00">ui.elements.IOElement.IOElement</text>
</a>
</g>
</g>
<!-- Node8&#45;&gt;Node9 -->
<g id="edge8" class="edge"><title>Node8&#45;&gt;Node9</title>
<path fill="none" stroke="midnightblue" d="M575.922,-97C589.652,-97 603.971,-97 617.876,-97"/>
<polygon fill="midnightblue" stroke="midnightblue" points="575.553,-93.5001 565.553,-97 575.553,-100.5 575.553,-93.5001"/>
</g>
<!-- Node11 -->
<g id="node11" class="node"><title>Node11</title>
<g id="a_node11"><a xlink:href="../../dc/d3b/classui_1_1_g_u_i.html#a765d554102f38969231261686f2f8e27" target="_top" xlink:title="ui.GUI.initialize">
<polygon fill="white" stroke="black" points="664,-49.5 664,-68.5 750,-68.5 750,-49.5 664,-49.5"/>
<text text-anchor="middle" x="707" y="-56.5" font-family="Helvetica,sans-Serif" font-size="10.00">ui.GUI.initialize</text>
</a>
</g>
</g>
<!-- Node10&#45;&gt;Node11 -->
<g id="edge10" class="edge"><title>Node10&#45;&gt;Node11</title>
<path fill="none" stroke="midnightblue" d="M591.748,-59C617.016,-59 642.959,-59 663.724,-59"/>
<polygon fill="midnightblue" stroke="midnightblue" points="591.735,-55.5001 581.735,-59 591.735,-62.5001 591.735,-55.5001"/>
</g>
<!-- Node12 -->
<g id="node12" class="node"><title>Node12</title>
<g id="a_node12"><a xlink:href="../../d5/d06/classui_1_1_scene_updater.html#aeef5dd7a8ec2ad6179e33fdd71ea90d6" target="_top" xlink:title="ui.SceneUpdater.initGUI">
<polygon fill="white" stroke="black" points="834.5,-49.5 834.5,-68.5 965.5,-68.5 965.5,-49.5 834.5,-49.5"/>
<text text-anchor="middle" x="900" y="-56.5" font-family="Helvetica,sans-Serif" font-size="10.00">ui.SceneUpdater.initGUI</text>
</a>
</g>
</g>
<!-- Node11&#45;&gt;Node12 -->
<g id="edge11" class="edge"><title>Node11&#45;&gt;Node12</title>
<path fill="none" stroke="midnightblue" d="M760.538,-59C783.313,-59 810.205,-59 834.203,-59"/>
<polygon fill="midnightblue" stroke="midnightblue" points="760.389,-55.5001 750.389,-59 760.389,-62.5001 760.389,-55.5001"/>
</g>
<!-- Node13 -->
<g id="node13" class="node"><title>Node13</title>
<g id="a_node13"><a xlink:href="../../d9/df7/classcontroller_1_1_controller.html#a57e42ba83ee2145e6262cd72eac59570" target="_top" xlink:title="controller.Controller.init">
<polygon fill="white" stroke="black" points="1048.5,-49.5 1048.5,-68.5 1175.5,-68.5 1175.5,-49.5 1048.5,-49.5"/>
<text text-anchor="middle" x="1112" y="-56.5" font-family="Helvetica,sans-Serif" font-size="10.00">controller.Controller.init</text>
</a>
</g>
</g>
<!-- Node12&#45;&gt;Node13 -->
<g id="edge12" class="edge"><title>Node12&#45;&gt;Node13</title>
<path fill="none" stroke="midnightblue" d="M975.742,-59C999.487,-59 1025.49,-59 1048.29,-59"/>
<polygon fill="midnightblue" stroke="midnightblue" points="975.72,-55.5001 965.72,-59 975.72,-62.5001 975.72,-55.5001"/>
</g>
<!-- Node14 -->
<g id="node14" class="node"><title>Node14</title>
<g id="a_node14"><a xlink:href="../../dd/df2/classmain_1_1_workspace_manager.html#abc818b59211f6e14940b86a42bb868d0" target="_top" xlink:title="main.WorkspaceManager.create\lWorkspace">
<polygon fill="white" stroke="black" points="1256,-44 1256,-74 1426,-74 1426,-44 1256,-44"/>
<text text-anchor="start" x="1264" y="-62" font-family="Helvetica,sans-Serif" font-size="10.00">main.WorkspaceManager.create</text>
<text text-anchor="middle" x="1341" y="-51" font-family="Helvetica,sans-Serif" font-size="10.00">Workspace</text>
</a>
</g>
</g>
<!-- Node13&#45;&gt;Node14 -->
<g id="edge13" class="edge"><title>Node13&#45;&gt;Node14</title>
<path fill="none" stroke="midnightblue" d="M1185.71,-59C1208.07,-59 1232.85,-59 1255.9,-59"/>
<polygon fill="midnightblue" stroke="midnightblue" points="1185.63,-55.5001 1175.63,-59 1185.63,-62.5001 1185.63,-55.5001"/>
</g>
<!-- Node15 -->
<g id="node15" class="node"><title>Node15</title>
<g id="a_node15"><a xlink:href="../../d9/df7/classcontroller_1_1_controller.html#a3a9d672bb57047df70945ad1a9582c9a" target="_top" xlink:title="controller.Controller.create\lNewWorkspace">
<polygon fill="white" stroke="black" points="1462.5,-76 1462.5,-106 1605.5,-106 1605.5,-76 1462.5,-76"/>
<text text-anchor="start" x="1470.5" y="-94" font-family="Helvetica,sans-Serif" font-size="10.00">controller.Controller.create</text>
<text text-anchor="middle" x="1534" y="-83" font-family="Helvetica,sans-Serif" font-size="10.00">NewWorkspace</text>
</a>
</g>
</g>
<!-- Node14&#45;&gt;Node15 -->
<g id="edge14" class="edge"><title>Node14&#45;&gt;Node15</title>
<path fill="none" stroke="midnightblue" d="M1436.03,-74.7532C1444.88,-76.2367 1453.75,-77.7231 1462.34,-79.1612"/>
<polygon fill="midnightblue" stroke="midnightblue" points="1436.49,-71.2828 1426.05,-73.0822 1435.34,-78.1866 1436.49,-71.2828"/>
</g>
<!-- Node18 -->
<g id="node18" class="node"><title>Node18</title>
<g id="a_node18"><a xlink:href="../../d1/d0b/classmain_1_1_main.html#a9f1e5657b2f6f9bdd69a3b6412ceda74" target="_top" xlink:title="main.Main.start">
<polygon fill="white" stroke="black" points="1488,-37.5 1488,-56.5 1580,-56.5 1580,-37.5 1488,-37.5"/>
<text text-anchor="middle" x="1534" y="-44.5" font-family="Helvetica,sans-Serif" font-size="10.00">main.Main.start</text>
</a>
</g>
</g>
<!-- Node14&#45;&gt;Node18 -->
<g id="edge18" class="edge"><title>Node14&#45;&gt;Node18</title>
<path fill="none" stroke="midnightblue" d="M1436.09,-53.0888C1454.19,-51.9516 1472.36,-50.8101 1487.99,-49.8278"/>
<polygon fill="midnightblue" stroke="midnightblue" points="1435.81,-49.5989 1426.05,-53.7192 1436.25,-56.5851 1435.81,-49.5989"/>
</g>
<!-- Node16 -->
<g id="node16" class="node"><title>Node16</title>
<g id="a_node16"><a xlink:href="../../d5/d06/classui_1_1_scene_updater.html#a2858ad8edb0c0f59a21e2ae015f2fa1e" target="_top" xlink:title="ui.SceneUpdater.createNew\lWorkspace">
<polygon fill="white" stroke="black" points="1642,-76 1642,-106 1792,-106 1792,-76 1642,-76"/>
<text text-anchor="start" x="1650" y="-94" font-family="Helvetica,sans-Serif" font-size="10.00">ui.SceneUpdater.createNew</text>
<text text-anchor="middle" x="1717" y="-83" font-family="Helvetica,sans-Serif" font-size="10.00">Workspace</text>
</a>
</g>
</g>
<!-- Node15&#45;&gt;Node16 -->
<g id="edge15" class="edge"><title>Node15&#45;&gt;Node16</title>
<path fill="none" stroke="midnightblue" d="M1615.8,-91C1624.43,-91 1633.17,-91 1641.71,-91"/>
<polygon fill="midnightblue" stroke="midnightblue" points="1615.76,-87.5001 1605.76,-91 1615.76,-94.5001 1615.76,-87.5001"/>
</g>
<!-- Node17 -->
<g id="node17" class="node"><title>Node17</title>
<g id="a_node17"><a xlink:href="../../dc/d3b/classui_1_1_g_u_i.html#a2edc294ba07311e6c4b85c9fe749d1bf" target="_top" xlink:title="ui.GUI.createNewWorkspace">
<polygon fill="white" stroke="black" points="1828,-84.5 1828,-103.5 1978,-103.5 1978,-84.5 1828,-84.5"/>
<text text-anchor="middle" x="1903" y="-91.5" font-family="Helvetica,sans-Serif" font-size="10.00">ui.GUI.createNewWorkspace</text>
</a>
</g>
</g>
<!-- Node16&#45;&gt;Node17 -->
<g id="edge16" class="edge"><title>Node16&#45;&gt;Node17</title>
<path fill="none" stroke="midnightblue" d="M1802.07,-92.3706C1810.65,-92.5107 1819.34,-92.6522 1827.81,-92.7903"/>
<polygon fill="midnightblue" stroke="midnightblue" points="1802.1,-88.8708 1792.04,-92.2072 1801.99,-95.8699 1802.1,-88.8708"/>
</g>
<!-- Node17&#45;&gt;Node4 -->
<g id="edge17" class="edge"><title>Node17&#45;&gt;Node4</title>
<path fill="none" stroke="midnightblue" d="M1988.28,-102.303C1996.66,-103.129 2005.21,-103.971 2013.68,-104.806"/>
<polygon fill="midnightblue" stroke="midnightblue" points="1988.44,-98.8028 1978.15,-101.305 1987.76,-105.769 1988.44,-98.8028"/>
</g>
<!-- Node20 -->
<g id="node20" class="node"><title>Node20</title>
<g id="a_node20"><a xlink:href="../../d6/dd8/classui_1_1elements_1_1_info_element.html#a0751ba2956cfc8eb22668ac7dd5b1e88" target="_top" xlink:title="ui.elements.InfoElement.make\lTable">
<polygon fill="white" stroke="black" points="412.5,-0 412.5,-30 575.5,-30 575.5,-0 412.5,-0"/>
<text text-anchor="start" x="420.5" y="-18" font-family="Helvetica,sans-Serif" font-size="10.00">ui.elements.InfoElement.make</text>
<text text-anchor="middle" x="494" y="-7" font-family="Helvetica,sans-Serif" font-size="10.00">Table</text>
</a>
</g>
</g>
<!-- Node19&#45;&gt;Node20 -->
<g id="edge20" class="edge"><title>Node19&#45;&gt;Node20</title>
<path fill="none" stroke="midnightblue" d="M338.263,-22.8438C361.358,-21.6731 387.892,-20.3281 412.391,-19.0862"/>
<polygon fill="midnightblue" stroke="midnightblue" points="338.063,-19.3494 328.253,-23.3512 338.417,-26.3404 338.063,-19.3494"/>
</g>
<!-- Node21 -->
<g id="node21" class="node"><title>Node21</title>
<g id="a_node21"><a xlink:href="../../d6/dd8/classui_1_1elements_1_1_info_element.html#a903c163f8db1ff4a909d837c202c25ba" target="_top" xlink:title="ui.elements.InfoElement.init">
<polygon fill="white" stroke="black" points="632,-5.5 632,-24.5 782,-24.5 782,-5.5 632,-5.5"/>
<text text-anchor="middle" x="707" y="-12.5" font-family="Helvetica,sans-Serif" font-size="10.00">ui.elements.InfoElement.init</text>
</a>
</g>
</g>
<!-- Node20&#45;&gt;Node21 -->
<g id="edge21" class="edge"><title>Node20&#45;&gt;Node21</title>
<path fill="none" stroke="midnightblue" d="M585.735,-15C601.163,-15 617.02,-15 631.952,-15"/>
<polygon fill="midnightblue" stroke="midnightblue" points="585.673,-11.5001 575.673,-15 585.673,-18.5001 585.673,-11.5001"/>
</g>
<!-- Node22 -->
<g id="node22" class="node"><title>Node22</title>
<g id="a_node22"><a xlink:href="../../d6/dd8/classui_1_1elements_1_1_info_element.html#a74e5d4ca26d93950429bd7e287ac12e3" target="_top" xlink:title="ui.elements.InfoElement.\lInfoElement">
<polygon fill="white" stroke="black" points="832,-0 832,-30 968,-30 968,-0 832,-0"/>
<text text-anchor="start" x="840" y="-18" font-family="Helvetica,sans-Serif" font-size="10.00">ui.elements.InfoElement.</text>
<text text-anchor="middle" x="900" y="-7" font-family="Helvetica,sans-Serif" font-size="10.00">InfoElement</text>
</a>
</g>
</g>
<!-- Node21&#45;&gt;Node22 -->
<g id="edge22" class="edge"><title>Node21&#45;&gt;Node22</title>
<path fill="none" stroke="midnightblue" d="M792.179,-15C805.433,-15 818.981,-15 831.784,-15"/>
<polygon fill="midnightblue" stroke="midnightblue" points="792.119,-11.5001 782.119,-15 792.119,-18.5001 792.119,-11.5001"/>
</g>
</g>
</svg>
