<?xml version="1.0" encoding="UTF-8" standalone="no"?>
<!DOCTYPE svg PUBLIC "-//W3C//DTD SVG 1.1//EN"
 "http://www.w3.org/Graphics/SVG/1.1/DTD/svg11.dtd">
<!-- Generated by graphviz version 2.36.0 (20140111.2315)
 -->
<!-- Title: ui.elements.IOElement.init Pages: 1 -->
<!--zoomable 729 -->
<svg id="main" version="1.1" xmlns="http://www.w3.org/2000/svg" xmlns:xlink="http://www.w3.org/1999/xlink" xml:space="preserve" onload="init(evt)">
<style type="text/css"><![CDATA[
.edge:hover path { stroke: red; }
.edge:hover polygon { stroke: red; fill: red; }
]]></style>
<script type="text/javascript"><![CDATA[
var edges = document.getElementsByTagName('g');
if (edges && edges.length) {
  for (var i=0;i<edges.length;i++) {
    if (edges[i].id.substr(0,4)=='edge') {
      edges[i].setAttribute('class','edge');
    }
  }
}
]]></script>
        <defs>
                <circle id="rim" cx="0" cy="0" r="7"/>
                <circle id="rim2" cx="0" cy="0" r="3.5"/>
                <g id="zoomPlus">
                        <use xlink:href="#rim" fill="#404040">
                                <set attributeName="fill" to="#808080" begin="zoomplus.mouseover" end="zoomplus.mouseout"/>
                        </use>
                        <path d="M-4,0h8M0,-4v8" fill="none" stroke="white" stroke-width="1.5" pointer-events="none"/>
                </g>
                <g id="zoomMin">
                        <use xlink:href="#rim" fill="#404040">
                                <set attributeName="fill" to="#808080" begin="zoomminus.mouseover" end="zoomminus.mouseout"/>
                        </use>
                        <path d="M-4,0h8" fill="none" stroke="white" stroke-width="1.5" pointer-events="none"/>
                </g>
                <g id="dirArrow">
                        <path fill="none" stroke="white" stroke-width="1.5" d="M0,-3.0v7 M-2.5,-0.5L0,-3.0L2.5,-0.5"/>
                </g>
               <g id="resetDef">
                       <use xlink:href="#rim2" fill="#404040">
                               <set attributeName="fill" to="#808080" begin="reset.mouseover" end="reset.mouseout"/>
                       </use>
               </g>
        </defs>

<script type="text/javascript">
var viewWidth = 1646;
var viewHeight = 729;
var sectionId = 'dynsection-6';
</script>
<script xlink:href="../../svgpan.js"/>
<svg id="graph" class="graph">
<g id="viewport">
<title>ui.elements.IOElement.init</title>
<polygon fill="white" stroke="none" points="-4,4 -4,-725 1642,-725 1642,4 -4,4"/>
<!-- Node1 -->
<g id="node1" class="node"><title>Node1</title>
<polygon fill="#bfbfbf" stroke="black" points="0.5,-293.5 0.5,-312.5 143.5,-312.5 143.5,-293.5 0.5,-293.5"/>
<text text-anchor="middle" x="72" y="-300.5" font-family="Helvetica,sans-Serif" font-size="10.00">ui.elements.IOElement.init</text>
</g>
<!-- Node2 -->
<g id="node2" class="node"><title>Node2</title>
<g id="a_node2"><a xlink:href="../../d5/db7/classutil_1_1_button_maker.html#a3e5f904585878b756ee8079ed25c94b0" target="_top" xlink:title="util.ButtonMaker.makeButton">
<polygon fill="white" stroke="black" points="180.5,-312.5 180.5,-331.5 337.5,-331.5 337.5,-312.5 180.5,-312.5"/>
<text text-anchor="middle" x="259" y="-319.5" font-family="Helvetica,sans-Serif" font-size="10.00">util.ButtonMaker.makeButton</text>
</a>
</g>
</g>
<!-- Node1&#45;&gt;Node2 -->
<g id="edge1" class="edge"><title>Node1&#45;&gt;Node2</title>
<path fill="none" stroke="midnightblue" d="M143.732,-310.264C152.404,-311.155 161.345,-312.073 170.229,-312.986"/>
<polygon fill="midnightblue" stroke="midnightblue" points="169.911,-316.471 180.216,-314.011 170.626,-309.508 169.911,-316.471"/>
</g>
<!-- Node3 -->
<g id="node3" class="node"><title>Node3</title>
<g id="a_node3"><a xlink:href="../../dc/d3b/classui_1_1_g_u_i.html#ad8f08a79a20a498bcaafdc7e2e2ce0a9" target="_top" xlink:title="ui.GUI.parseCommand">
<polygon fill="white" stroke="black" points="196.5,-274.5 196.5,-293.5 321.5,-293.5 321.5,-274.5 196.5,-274.5"/>
<text text-anchor="middle" x="259" y="-281.5" font-family="Helvetica,sans-Serif" font-size="10.00">ui.GUI.parseCommand</text>
</a>
</g>
</g>
<!-- Node1&#45;&gt;Node3 -->
<g id="edge2" class="edge"><title>Node1&#45;&gt;Node3</title>
<path fill="none" stroke="midnightblue" d="M143.732,-295.736C157.686,-294.302 172.341,-292.797 186.326,-291.361"/>
<polygon fill="midnightblue" stroke="midnightblue" points="186.78,-294.833 196.371,-290.33 186.065,-287.87 186.78,-294.833"/>
</g>
<!-- Node4 -->
<g id="node4" class="node"><title>Node4</title>
<g id="a_node4"><a xlink:href="../../d8/d3c/classui_1_1elements_1_1_i_o_element.html#a3b1244fbac1fbbee1183143097b1e4ef" target="_top" xlink:title="ui.elements.IOElement.get\lInputField">
<polygon fill="white" stroke="black" points="391,-318 391,-348 535,-348 535,-318 391,-318"/>
<text text-anchor="start" x="399" y="-336" font-family="Helvetica,sans-Serif" font-size="10.00">ui.elements.IOElement.get</text>
<text text-anchor="middle" x="463" y="-325" font-family="Helvetica,sans-Serif" font-size="10.00">InputField</text>
</a>
</g>
</g>
<!-- Node3&#45;&gt;Node4 -->
<g id="edge3" class="edge"><title>Node3&#45;&gt;Node4</title>
<path fill="none" stroke="midnightblue" d="M299.427,-293.564C325.224,-299.822 359.688,-308.182 390.243,-315.594"/>
<polygon fill="midnightblue" stroke="midnightblue" points="389.468,-319.007 400.011,-317.963 391.118,-312.204 389.468,-319.007"/>
</g>
<!-- Node5 -->
<g id="node5" class="node"><title>Node5</title>
<g id="a_node5"><a xlink:href="../../d0/de6/classui_1_1elements_1_1_menu_bar_element.html#a28a30430354b4041a06e38088c201802" target="_top" xlink:title="ui.elements.MenuBarElement.get\lSelectedLanguage">
<polygon fill="white" stroke="black" points="374.5,-269 374.5,-299 551.5,-299 551.5,-269 374.5,-269"/>
<text text-anchor="start" x="382.5" y="-287" font-family="Helvetica,sans-Serif" font-size="10.00">ui.elements.MenuBarElement.get</text>
<text text-anchor="middle" x="463" y="-276" font-family="Helvetica,sans-Serif" font-size="10.00">SelectedLanguage</text>
</a>
</g>
</g>
<!-- Node3&#45;&gt;Node5 -->
<g id="edge4" class="edge"><title>Node3&#45;&gt;Node5</title>
<path fill="none" stroke="midnightblue" d="M321.704,-284C335.185,-284 349.772,-284 364.269,-284"/>
<polygon fill="midnightblue" stroke="midnightblue" points="364.277,-287.5 374.277,-284 364.277,-280.5 364.277,-287.5"/>
</g>
<!-- Node6 -->
<g id="node6" class="node"><title>Node6</title>
<g id="a_node6"><a xlink:href="../../d5/d06/classui_1_1_scene_updater.html#ab77a04f8b0038429b09237aac18906e8" target="_top" xlink:title="ui.SceneUpdater.sendCommands">
<polygon fill="white" stroke="black" points="374,-230.5 374,-249.5 552,-249.5 552,-230.5 374,-230.5"/>
<text text-anchor="middle" x="463" y="-237.5" font-family="Helvetica,sans-Serif" font-size="10.00">ui.SceneUpdater.sendCommands</text>
</a>
</g>
</g>
<!-- Node3&#45;&gt;Node6 -->
<g id="edge5" class="edge"><title>Node3&#45;&gt;Node6</title>
<path fill="none" stroke="midnightblue" d="M303.3,-274.47C324.592,-269.792 350.638,-264.084 374,-259 384.874,-256.634 396.507,-254.114 407.636,-251.709"/>
<polygon fill="midnightblue" stroke="midnightblue" points="408.642,-255.072 417.677,-249.54 407.164,-248.23 408.642,-255.072"/>
</g>
<!-- Node7 -->
<g id="node7" class="node"><title>Node7</title>
<g id="a_node7"><a xlink:href="../../d9/df7/classcontroller_1_1_controller.html#a3d81fb1a57114f96fb6c319f4c5df370" target="_top" xlink:title="controller.Controller.parse\lCommand">
<polygon fill="white" stroke="black" points="588,-225 588,-255 728,-255 728,-225 588,-225"/>
<text text-anchor="start" x="596" y="-243" font-family="Helvetica,sans-Serif" font-size="10.00">controller.Controller.parse</text>
<text text-anchor="middle" x="658" y="-232" font-family="Helvetica,sans-Serif" font-size="10.00">Command</text>
</a>
</g>
</g>
<!-- Node6&#45;&gt;Node7 -->
<g id="edge6" class="edge"><title>Node6&#45;&gt;Node7</title>
<path fill="none" stroke="midnightblue" d="M552.028,-240C560.581,-240 569.222,-240 577.682,-240"/>
<polygon fill="midnightblue" stroke="midnightblue" points="577.892,-243.5 587.892,-240 577.892,-236.5 577.892,-243.5"/>
</g>
<!-- Node8 -->
<g id="node8" class="node"><title>Node8</title>
<g id="a_node8"><a xlink:href="../../d5/d06/classui_1_1_scene_updater.html#ac93c2b014447efef3a09141521fb4d9e" target="_top" xlink:title="ui.SceneUpdater.addCommand\lHistory">
<polygon fill="white" stroke="black" points="772.5,-570 772.5,-600 939.5,-600 939.5,-570 772.5,-570"/>
<text text-anchor="start" x="780.5" y="-588" font-family="Helvetica,sans-Serif" font-size="10.00">ui.SceneUpdater.addCommand</text>
<text text-anchor="middle" x="856" y="-577" font-family="Helvetica,sans-Serif" font-size="10.00">History</text>
</a>
</g>
</g>
<!-- Node7&#45;&gt;Node8 -->
<g id="edge7" class="edge"><title>Node7&#45;&gt;Node8</title>
<path fill="none" stroke="midnightblue" d="M662.92,-255.106C674.05,-296.206 708.665,-412.493 764,-495 781.731,-521.438 808.115,-546.471 827.915,-563.392"/>
<polygon fill="midnightblue" stroke="midnightblue" points="825.773,-566.163 835.684,-569.906 830.27,-560.799 825.773,-566.163"/>
</g>
<!-- Node12 -->
<g id="node12" class="node"><title>Node12</title>
<g id="a_node12"><a xlink:href="../../d0/d05/classparser_1_1_tree_generator.html#acf44e3a80bec76756c2bb09124dc4c8d" target="_top" xlink:title="parser.TreeGenerator.create\lCommands">
<polygon fill="white" stroke="black" points="780.5,-456 780.5,-486 931.5,-486 931.5,-456 780.5,-456"/>
<text text-anchor="start" x="788.5" y="-474" font-family="Helvetica,sans-Serif" font-size="10.00">parser.TreeGenerator.create</text>
<text text-anchor="middle" x="856" y="-463" font-family="Helvetica,sans-Serif" font-size="10.00">Commands</text>
</a>
</g>
</g>
<!-- Node7&#45;&gt;Node12 -->
<g id="edge11" class="edge"><title>Node7&#45;&gt;Node12</title>
<path fill="none" stroke="midnightblue" d="M671.86,-255.157C705.363,-294.642 795.495,-400.869 835.46,-447.97"/>
<polygon fill="midnightblue" stroke="midnightblue" points="832.954,-450.427 842.093,-455.788 838.292,-445.898 832.954,-450.427"/>
</g>
<!-- Node25 -->
<g id="node25" class="node"><title>Node25</title>
<g id="a_node25"><a xlink:href="../../d0/d05/classparser_1_1_tree_generator.html#a6b0c994d90d372250a24f81f439de007" target="_top" xlink:title="parser.TreeGenerator.get\lMethodsList">
<polygon fill="white" stroke="black" points="788,-250 788,-280 924,-280 924,-250 788,-250"/>
<text text-anchor="start" x="796" y="-268" font-family="Helvetica,sans-Serif" font-size="10.00">parser.TreeGenerator.get</text>
<text text-anchor="middle" x="856" y="-257" font-family="Helvetica,sans-Serif" font-size="10.00">MethodsList</text>
</a>
</g>
</g>
<!-- Node7&#45;&gt;Node25 -->
<g id="edge25" class="edge"><title>Node7&#45;&gt;Node25</title>
<path fill="none" stroke="midnightblue" d="M728.102,-248.814C744.166,-250.863 761.367,-253.057 777.757,-255.148"/>
<polygon fill="midnightblue" stroke="midnightblue" points="777.477,-258.64 787.839,-256.434 778.363,-251.696 777.477,-258.64"/>
</g>
<!-- Node27 -->
<g id="node27" class="node"><title>Node27</title>
<g id="a_node27"><a xlink:href="../../dc/d9e/classparser_1_1_command_tree_node.html#aea6176c10780becfc79a23924bb6fdc2" target="_top" xlink:title="parser.CommandTreeNode.get\lValue">
<polygon fill="white" stroke="black" points="774,-201 774,-231 938,-231 938,-201 774,-201"/>
<text text-anchor="start" x="782" y="-219" font-family="Helvetica,sans-Serif" font-size="10.00">parser.CommandTreeNode.get</text>
<text text-anchor="middle" x="856" y="-208" font-family="Helvetica,sans-Serif" font-size="10.00">Value</text>
</a>
</g>
</g>
<!-- Node7&#45;&gt;Node27 -->
<g id="edge27" class="edge"><title>Node7&#45;&gt;Node27</title>
<path fill="none" stroke="midnightblue" d="M728.102,-231.538C739.64,-230.126 751.765,-228.641 763.755,-227.173"/>
<polygon fill="midnightblue" stroke="midnightblue" points="764.278,-230.635 773.778,-225.946 763.427,-223.687 764.278,-230.635"/>
</g>
<!-- Node28 -->
<g id="node28" class="node"><title>Node28</title>
<g id="a_node28"><a xlink:href="../../d9/d88/classmodel_1_1_tree_interpreter.html#a501df6b8cfe1a8175a9da0ed96d30d6f" target="_top" xlink:title="model.TreeInterpreter.interpretTree">
<polygon fill="white" stroke="black" points="764.5,-162.5 764.5,-181.5 947.5,-181.5 947.5,-162.5 764.5,-162.5"/>
<text text-anchor="middle" x="856" y="-169.5" font-family="Helvetica,sans-Serif" font-size="10.00">model.TreeInterpreter.interpretTree</text>
</a>
</g>
</g>
<!-- Node7&#45;&gt;Node28 -->
<g id="edge28" class="edge"><title>Node7&#45;&gt;Node28</title>
<path fill="none" stroke="midnightblue" d="M686.797,-224.869C707.554,-214.109 736.896,-200.019 764,-191 772.035,-188.326 780.599,-185.951 789.137,-183.863"/>
<polygon fill="midnightblue" stroke="midnightblue" points="790.168,-187.217 799.116,-181.544 788.583,-180.398 790.168,-187.217"/>
</g>
<!-- Node38 -->
<g id="node38" class="node"><title>Node38</title>
<g id="a_node38"><a xlink:href="../../d5/d06/classui_1_1_scene_updater.html#ab8b88b95b646266ee4a8ef3d77e4c3e3" target="_top" xlink:title="ui.SceneUpdater.setOutputText">
<polygon fill="white" stroke="black" points="773,-77.5 773,-96.5 939,-96.5 939,-77.5 773,-77.5"/>
<text text-anchor="middle" x="856" y="-84.5" font-family="Helvetica,sans-Serif" font-size="10.00">ui.SceneUpdater.setOutputText</text>
</a>
</g>
</g>
<!-- Node7&#45;&gt;Node38 -->
<g id="edge43" class="edge"><title>Node7&#45;&gt;Node38</title>
<path fill="none" stroke="midnightblue" d="M676.551,-224.868C697.175,-207.226 732.574,-177.375 764,-153 787.06,-135.114 814.228,-115.605 832.838,-102.471"/>
<polygon fill="midnightblue" stroke="midnightblue" points="835.063,-105.185 841.231,-96.5706 831.037,-99.4587 835.063,-105.185"/>
</g>
<!-- Node9 -->
<g id="node9" class="node"><title>Node9</title>
<g id="a_node9"><a xlink:href="../../dc/d3b/classui_1_1_g_u_i.html#a3c16c78e8d953dbf8ef41113ca03621e" target="_top" xlink:title="ui.GUI.addCommandHistory">
<polygon fill="white" stroke="black" points="1009,-641.5 1009,-660.5 1159,-660.5 1159,-641.5 1009,-641.5"/>
<text text-anchor="middle" x="1084" y="-648.5" font-family="Helvetica,sans-Serif" font-size="10.00">ui.GUI.addCommandHistory</text>
</a>
</g>
</g>
<!-- Node8&#45;&gt;Node9 -->
<g id="edge8" class="edge"><title>Node8&#45;&gt;Node9</title>
<path fill="none" stroke="midnightblue" d="M908.566,-600.059C948.339,-611.674 1002.7,-627.55 1040.11,-638.475"/>
<polygon fill="midnightblue" stroke="midnightblue" points="1039.61,-641.974 1050.19,-641.418 1041.57,-635.255 1039.61,-641.974"/>
</g>
<!-- Node10 -->
<g id="node10" class="node"><title>Node10</title>
<g id="a_node10"><a xlink:href="../../d6/dd8/classui_1_1elements_1_1_info_element.html#aa14d00daf19b5c3d7cd792c2590f23b3" target="_top" xlink:title="ui.elements.InfoElement.set\lBindCommandList">
<polygon fill="white" stroke="black" points="1238.5,-691 1238.5,-721 1389.5,-721 1389.5,-691 1238.5,-691"/>
<text text-anchor="start" x="1246.5" y="-709" font-family="Helvetica,sans-Serif" font-size="10.00">ui.elements.InfoElement.set</text>
<text text-anchor="middle" x="1314" y="-698" font-family="Helvetica,sans-Serif" font-size="10.00">BindCommandList</text>
</a>
</g>
</g>
<!-- Node9&#45;&gt;Node10 -->
<g id="edge9" class="edge"><title>Node9&#45;&gt;Node10</title>
<path fill="none" stroke="midnightblue" d="M1124.45,-660.517C1156.28,-668.194 1201.9,-679.2 1240.3,-688.463"/>
<polygon fill="midnightblue" stroke="midnightblue" points="1239.86,-691.958 1250.41,-690.901 1241.51,-685.153 1239.86,-691.958"/>
</g>
<!-- Node11 -->
<g id="node11" class="node"><title>Node11</title>
<g id="a_node11"><a xlink:href="../../d6/dd8/classui_1_1elements_1_1_info_element.html#a54dbeca14ae734678154142637d3c4ab" target="_top" xlink:title="ui.elements.InfoElement.update">
<polygon fill="white" stroke="black" points="1456,-696.5 1456,-715.5 1626,-715.5 1626,-696.5 1456,-696.5"/>
<text text-anchor="middle" x="1541" y="-703.5" font-family="Helvetica,sans-Serif" font-size="10.00">ui.elements.InfoElement.update</text>
</a>
</g>
</g>
<!-- Node10&#45;&gt;Node11 -->
<g id="edge10" class="edge"><title>Node10&#45;&gt;Node11</title>
<path fill="none" stroke="midnightblue" d="M1389.61,-706C1407.61,-706 1427.07,-706 1445.84,-706"/>
<polygon fill="midnightblue" stroke="midnightblue" points="1445.88,-709.5 1455.88,-706 1445.88,-702.5 1445.88,-709.5"/>
</g>
<!-- Node13 -->
<g id="node13" class="node"><title>Node13</title>
<g id="a_node13"><a xlink:href="../../d0/d05/classparser_1_1_tree_generator.html#a6c5a626cea851fb68c59f83a27ab56a5" target="_top" xlink:title="parser.TreeGenerator.create\lHandlerMap">
<polygon fill="white" stroke="black" points="1008.5,-500 1008.5,-530 1159.5,-530 1159.5,-500 1008.5,-500"/>
<text text-anchor="start" x="1016.5" y="-518" font-family="Helvetica,sans-Serif" font-size="10.00">parser.TreeGenerator.create</text>
<text text-anchor="middle" x="1084" y="-507" font-family="Helvetica,sans-Serif" font-size="10.00">HandlerMap</text>
</a>
</g>
</g>
<!-- Node12&#45;&gt;Node13 -->
<g id="edge12" class="edge"><title>Node12&#45;&gt;Node13</title>
<path fill="none" stroke="midnightblue" d="M931.627,-485.529C953.034,-489.697 976.527,-494.271 998.484,-498.546"/>
<polygon fill="midnightblue" stroke="midnightblue" points="997.967,-502.01 1008.45,-500.486 999.304,-495.139 997.967,-502.01"/>
</g>
<!-- Node15 -->
<g id="node15" class="node"><title>Node15</title>
<g id="a_node15"><a xlink:href="../../dc/d9e/classparser_1_1_command_tree_node.html#a73e4ab6ebca47d41b993f0e66ee4c8d2" target="_top" xlink:title="parser.CommandTreeNode.getName">
<polygon fill="white" stroke="black" points="1444.5,-295.5 1444.5,-314.5 1637.5,-314.5 1637.5,-295.5 1444.5,-295.5"/>
<text text-anchor="middle" x="1541" y="-302.5" font-family="Helvetica,sans-Serif" font-size="10.00">parser.CommandTreeNode.getName</text>
</a>
</g>
</g>
<!-- Node12&#45;&gt;Node15 -->
<g id="edge14" class="edge"><title>Node12&#45;&gt;Node15</title>
<path fill="none" stroke="midnightblue" d="M884.148,-455.812C943.096,-423.724 1088.13,-349.562 1220,-320 1290.17,-304.27 1371.09,-300.603 1434,-300.827"/>
<polygon fill="midnightblue" stroke="midnightblue" points="1434.31,-304.329 1444.34,-300.899 1434.36,-297.329 1434.31,-304.329"/>
</g>
<!-- Node16 -->
<g id="node16" class="node"><title>Node16</title>
<g id="a_node16"><a xlink:href="../../d5/d30/classparser_1_1_command_case.html#a416a33e71d0a91f9d167980ff9779119" target="_top" xlink:title="parser.CommandCase.getRoot">
<polygon fill="white" stroke="black" points="1002,-549.5 1002,-568.5 1166,-568.5 1166,-549.5 1002,-549.5"/>
<text text-anchor="middle" x="1084" y="-556.5" font-family="Helvetica,sans-Serif" font-size="10.00">parser.CommandCase.getRoot</text>
</a>
</g>
</g>
<!-- Node12&#45;&gt;Node16 -->
<g id="edge15" class="edge"><title>Node12&#45;&gt;Node16</title>
<path fill="none" stroke="midnightblue" d="M880.374,-486.222C905.146,-501.693 945.877,-525.28 984,-539 992.817,-542.173 1002.27,-544.893 1011.7,-547.21"/>
<polygon fill="midnightblue" stroke="midnightblue" points="1010.97,-550.633 1021.5,-549.482 1012.55,-543.814 1010.97,-550.633"/>
</g>
<!-- Node17 -->
<g id="node17" class="node"><title>Node17</title>
<g id="a_node17"><a xlink:href="../../d5/d30/classparser_1_1_command_case.html#a309ba0623929f8d96219c98de00023b0" target="_top" xlink:title="parser.CommandCase.initialize">
<polygon fill="white" stroke="black" points="1001.5,-461.5 1001.5,-480.5 1166.5,-480.5 1166.5,-461.5 1001.5,-461.5"/>
<text text-anchor="middle" x="1084" y="-468.5" font-family="Helvetica,sans-Serif" font-size="10.00">parser.CommandCase.initialize</text>
</a>
</g>
</g>
<!-- Node12&#45;&gt;Node17 -->
<g id="edge16" class="edge"><title>Node12&#45;&gt;Node17</title>
<path fill="none" stroke="midnightblue" d="M931.627,-471C950.678,-471 971.38,-471 991.182,-471"/>
<polygon fill="midnightblue" stroke="midnightblue" points="991.441,-474.5 1001.44,-471 991.441,-467.5 991.441,-474.5"/>
</g>
<!-- Node14 -->
<g id="node14" class="node"><title>Node14</title>
<g id="a_node14"><a xlink:href="../../d0/d22/classutil_1_1_pattern_mapper.html#a257efa051dc3d89b728922a22901fb7d" target="_top" xlink:title="util.PatternMapper.makePatterns">
<polygon fill="white" stroke="black" points="1227.5,-652.5 1227.5,-671.5 1400.5,-671.5 1400.5,-652.5 1227.5,-652.5"/>
<text text-anchor="middle" x="1314" y="-659.5" font-family="Helvetica,sans-Serif" font-size="10.00">util.PatternMapper.makePatterns</text>
</a>
</g>
</g>
<!-- Node13&#45;&gt;Node14 -->
<g id="edge13" class="edge"><title>Node13&#45;&gt;Node14</title>
<path fill="none" stroke="midnightblue" d="M1159.93,-525.286C1168.75,-528.888 1177.06,-533.669 1184,-540 1219.52,-572.395 1183.91,-610.241 1220,-642 1222.34,-644.061 1224.84,-645.927 1227.47,-647.615"/>
<polygon fill="midnightblue" stroke="midnightblue" points="1225.79,-650.684 1236.24,-652.423 1229.15,-644.546 1225.79,-650.684"/>
</g>
<!-- Node17&#45;&gt;Node14 -->
<g id="edge19" class="edge"><title>Node17&#45;&gt;Node14</title>
<path fill="none" stroke="midnightblue" d="M1166.73,-479.281C1173.07,-482.289 1178.96,-486.127 1184,-491 1233.62,-538.931 1170.68,-593.76 1220,-642 1221.73,-643.689 1223.56,-645.25 1225.48,-646.692"/>
<polygon fill="midnightblue" stroke="midnightblue" points="1224.08,-649.947 1234.42,-652.286 1227.8,-644.013 1224.08,-649.947"/>
</g>
<!-- Node18 -->
<g id="node18" class="node"><title>Node18</title>
<g id="a_node18"><a xlink:href="../../d9/dc0/interfaceparser_1_1_tree_wrapper.html#abf33b5a3ce13b389b9f69be49b18b998" target="_top" xlink:title="parser.TreeWrapper.getIndex">
<polygon fill="white" stroke="black" points="1238,-329.5 1238,-348.5 1390,-348.5 1390,-329.5 1238,-329.5"/>
<text text-anchor="middle" x="1314" y="-336.5" font-family="Helvetica,sans-Serif" font-size="10.00">parser.TreeWrapper.getIndex</text>
</a>
</g>
</g>
<!-- Node17&#45;&gt;Node18 -->
<g id="edge17" class="edge"><title>Node17&#45;&gt;Node18</title>
<path fill="none" stroke="midnightblue" d="M1093.35,-461.288C1113,-439.125 1164.66,-384.679 1220,-358 1225.01,-355.585 1230.32,-353.476 1235.75,-351.635"/>
<polygon fill="midnightblue" stroke="midnightblue" points="1237.11,-354.88 1245.64,-348.602 1235.05,-348.188 1237.11,-354.88"/>
</g>
<!-- Node19 -->
<g id="node19" class="node"><title>Node19</title>
<g id="a_node19"><a xlink:href="../../d9/dc0/interfaceparser_1_1_tree_wrapper.html#a251d9d9bb7c3ea34688bfa30cc465270" target="_top" xlink:title="parser.TreeWrapper.increment\lIndex">
<polygon fill="white" stroke="black" points="1234.5,-603 1234.5,-633 1393.5,-633 1393.5,-603 1234.5,-603"/>
<text text-anchor="start" x="1242.5" y="-621" font-family="Helvetica,sans-Serif" font-size="10.00">parser.TreeWrapper.increment</text>
<text text-anchor="middle" x="1314" y="-610" font-family="Helvetica,sans-Serif" font-size="10.00">Index</text>
</a>
</g>
</g>
<!-- Node17&#45;&gt;Node19 -->
<g id="edge18" class="edge"><title>Node17&#45;&gt;Node19</title>
<path fill="none" stroke="midnightblue" d="M1166.68,-480.08C1172.95,-482.931 1178.84,-486.514 1184,-491 1220.29,-522.533 1184.73,-560.335 1220,-593 1221.74,-594.615 1223.58,-596.128 1225.5,-597.545"/>
<polygon fill="midnightblue" stroke="midnightblue" points="1224.02,-600.755 1234.34,-603.164 1227.78,-594.847 1224.02,-600.755"/>
</g>
<!-- Node20 -->
<g id="node20" class="node"><title>Node20</title>
<g id="a_node20"><a xlink:href="../../d5/d30/classparser_1_1_command_case.html#a7c49338f11e46369db6a009f6a07a837" target="_top" xlink:title="parser.CommandCase.obtain\lNumParams">
<polygon fill="white" stroke="black" points="1235.5,-554 1235.5,-584 1392.5,-584 1392.5,-554 1235.5,-554"/>
<text text-anchor="start" x="1243.5" y="-572" font-family="Helvetica,sans-Serif" font-size="10.00">parser.CommandCase.obtain</text>
<text text-anchor="middle" x="1314" y="-561" font-family="Helvetica,sans-Serif" font-size="10.00">NumParams</text>
</a>
</g>
</g>
<!-- Node17&#45;&gt;Node20 -->
<g id="edge20" class="edge"><title>Node17&#45;&gt;Node20</title>
<path fill="none" stroke="midnightblue" d="M1162.76,-480.551C1170.27,-483.257 1177.5,-486.68 1184,-491 1207.71,-506.765 1196.8,-527.492 1220,-544 1222.72,-545.938 1225.59,-547.727 1228.56,-549.376"/>
<polygon fill="midnightblue" stroke="midnightblue" points="1227.23,-552.62 1237.74,-553.92 1230.33,-546.347 1227.23,-552.62"/>
</g>
<!-- Node21 -->
<g id="node21" class="node"><title>Node21</title>
<g id="a_node21"><a xlink:href="../../d5/d30/classparser_1_1_command_case.html#a37b719ff1e44b8c2539ec8a3d3dec65e" target="_top" xlink:title="parser.CommandCase.obtain\lSubCommand">
<polygon fill="white" stroke="black" points="1235.5,-505 1235.5,-535 1392.5,-535 1392.5,-505 1235.5,-505"/>
<text text-anchor="start" x="1243.5" y="-523" font-family="Helvetica,sans-Serif" font-size="10.00">parser.CommandCase.obtain</text>
<text text-anchor="middle" x="1314" y="-512" font-family="Helvetica,sans-Serif" font-size="10.00">SubCommand</text>
</a>
</g>
</g>
<!-- Node17&#45;&gt;Node21 -->
<g id="edge21" class="edge"><title>Node17&#45;&gt;Node21</title>
<path fill="none" stroke="midnightblue" d="M1133.13,-480.505C1149.31,-483.758 1167.45,-487.469 1184,-491 1201.26,-494.684 1219.8,-498.772 1237.28,-502.688"/>
<polygon fill="midnightblue" stroke="midnightblue" points="1236.91,-506.192 1247.44,-504.97 1238.45,-499.363 1236.91,-506.192"/>
</g>
<!-- Node22 -->
<g id="node22" class="node"><title>Node22</title>
<g id="a_node22"><a xlink:href="../../d9/dc0/interfaceparser_1_1_tree_wrapper.html#a593548eb4ae82f686022f08f45908a1d" target="_top" xlink:title="parser.TreeWrapper.print\lTestStatements">
<polygon fill="white" stroke="black" points="1248,-456 1248,-486 1380,-486 1380,-456 1248,-456"/>
<text text-anchor="start" x="1256" y="-474" font-family="Helvetica,sans-Serif" font-size="10.00">parser.TreeWrapper.print</text>
<text text-anchor="middle" x="1314" y="-463" font-family="Helvetica,sans-Serif" font-size="10.00">TestStatements</text>
</a>
</g>
</g>
<!-- Node17&#45;&gt;Node22 -->
<g id="edge22" class="edge"><title>Node17&#45;&gt;Node22</title>
<path fill="none" stroke="midnightblue" d="M1166.67,-471C1189.83,-471 1214.93,-471 1237.69,-471"/>
<polygon fill="midnightblue" stroke="midnightblue" points="1237.97,-474.5 1247.97,-471 1237.97,-467.5 1237.97,-474.5"/>
</g>
<!-- Node23 -->
<g id="node23" class="node"><title>Node23</title>
<g id="a_node23"><a xlink:href="../../d9/dc0/interfaceparser_1_1_tree_wrapper.html#a48f9f037c84b1fecfdefcb3268640f88" target="_top" xlink:title="parser.TreeWrapper.recurse">
<polygon fill="white" stroke="black" points="1241,-417.5 1241,-436.5 1387,-436.5 1387,-417.5 1241,-417.5"/>
<text text-anchor="middle" x="1314" y="-424.5" font-family="Helvetica,sans-Serif" font-size="10.00">parser.TreeWrapper.recurse</text>
</a>
</g>
</g>
<!-- Node17&#45;&gt;Node23 -->
<g id="edge23" class="edge"><title>Node17&#45;&gt;Node23</title>
<path fill="none" stroke="midnightblue" d="M1134.47,-461.453C1169.43,-454.707 1216.46,-445.631 1253.47,-438.489"/>
<polygon fill="midnightblue" stroke="midnightblue" points="1254.47,-441.86 1263.62,-436.529 1253.14,-434.987 1254.47,-441.86"/>
</g>
<!-- Node24 -->
<g id="node24" class="node"><title>Node24</title>
<g id="a_node24"><a xlink:href="../../d5/d30/classparser_1_1_command_case.html#a9afa1f06d36261ade7169970904fabee" target="_top" xlink:title="parser.CommandCase.useResource\lBundle">
<polygon fill="white" stroke="black" points="1220,-368 1220,-398 1408,-398 1408,-368 1220,-368"/>
<text text-anchor="start" x="1228" y="-386" font-family="Helvetica,sans-Serif" font-size="10.00">parser.CommandCase.useResource</text>
<text text-anchor="middle" x="1314" y="-375" font-family="Helvetica,sans-Serif" font-size="10.00">Bundle</text>
</a>
</g>
</g>
<!-- Node17&#45;&gt;Node24 -->
<g id="edge24" class="edge"><title>Node17&#45;&gt;Node24</title>
<path fill="none" stroke="midnightblue" d="M1102.91,-461.41C1128.38,-448.068 1176.75,-423.77 1220,-408 1226.8,-405.52 1233.97,-403.163 1241.17,-400.959"/>
<polygon fill="midnightblue" stroke="midnightblue" points="1242.4,-404.245 1251,-398.051 1240.42,-397.533 1242.4,-404.245"/>
</g>
<!-- Node26 -->
<g id="node26" class="node"><title>Node26</title>
<g id="a_node26"><a xlink:href="../../d5/d30/classparser_1_1_command_case.html#a0a36df1183543407fec197f435a5ba2c" target="_top" xlink:title="parser.CommandCase.getMethodsList">
<polygon fill="white" stroke="black" points="984,-253.5 984,-272.5 1184,-272.5 1184,-253.5 984,-253.5"/>
<text text-anchor="middle" x="1084" y="-260.5" font-family="Helvetica,sans-Serif" font-size="10.00">parser.CommandCase.getMethodsList</text>
</a>
</g>
</g>
<!-- Node25&#45;&gt;Node26 -->
<g id="edge26" class="edge"><title>Node25&#45;&gt;Node26</title>
<path fill="none" stroke="midnightblue" d="M924.196,-264.405C939.712,-264.268 956.615,-264.118 973.417,-263.97"/>
<polygon fill="midnightblue" stroke="midnightblue" points="973.884,-267.466 983.853,-263.877 973.822,-260.466 973.884,-267.466"/>
</g>
<!-- Node29 -->
<g id="node29" class="node"><title>Node29</title>
<g id="a_node29"><a xlink:href="../../dc/d9e/classparser_1_1_command_tree_node.html#a2700486f6a49c0a080114bee6e51f271" target="_top" xlink:title="parser.CommandTreeNode.get\lChildren">
<polygon fill="white" stroke="black" points="1002,-201 1002,-231 1166,-231 1166,-201 1002,-201"/>
<text text-anchor="start" x="1010" y="-219" font-family="Helvetica,sans-Serif" font-size="10.00">parser.CommandTreeNode.get</text>
<text text-anchor="middle" x="1084" y="-208" font-family="Helvetica,sans-Serif" font-size="10.00">Children</text>
</a>
</g>
</g>
<!-- Node28&#45;&gt;Node29 -->
<g id="edge29" class="edge"><title>Node28&#45;&gt;Node29</title>
<path fill="none" stroke="midnightblue" d="M906.039,-181.547C932.165,-186.634 965.093,-193.045 995.44,-198.953"/>
<polygon fill="midnightblue" stroke="midnightblue" points="995.134,-202.459 1005.62,-200.935 996.472,-195.588 995.134,-202.459"/>
</g>
<!-- Node30 -->
<g id="node30" class="node"><title>Node30</title>
<g id="a_node30"><a xlink:href="../../dc/d9e/classparser_1_1_command_tree_node.html#a8bb8a112395f78809b0be06f1c3f5282" target="_top" xlink:title="parser.CommandTreeNode.getType">
<polygon fill="white" stroke="black" points="1448.5,-109.5 1448.5,-128.5 1633.5,-128.5 1633.5,-109.5 1448.5,-109.5"/>
<text text-anchor="middle" x="1541" y="-116.5" font-family="Helvetica,sans-Serif" font-size="10.00">parser.CommandTreeNode.getType</text>
</a>
</g>
</g>
<!-- Node28&#45;&gt;Node30 -->
<g id="edge30" class="edge"><title>Node28&#45;&gt;Node30</title>
<path fill="none" stroke="midnightblue" d="M916.029,-162.472C937.406,-159.206 961.758,-155.698 984,-153 1088.58,-140.313 1114.88,-137.865 1220,-131 1292.78,-126.247 1375.01,-123.214 1437.89,-121.386"/>
<polygon fill="midnightblue" stroke="midnightblue" points="1438.31,-124.876 1448.2,-121.092 1438.11,-117.878 1438.31,-124.876"/>
</g>
<!-- Node31 -->
<g id="node31" class="node"><title>Node31</title>
<g id="a_node31"><a xlink:href="../../d9/d88/classmodel_1_1_tree_interpreter.html#a3e460e5ebe66f781afb480f0f0ec2ce7" target="_top" xlink:title="model.TreeInterpreter.update">
<polygon fill="white" stroke="black" points="1006,-162.5 1006,-181.5 1162,-181.5 1162,-162.5 1006,-162.5"/>
<text text-anchor="middle" x="1084" y="-169.5" font-family="Helvetica,sans-Serif" font-size="10.00">model.TreeInterpreter.update</text>
</a>
</g>
</g>
<!-- Node28&#45;&gt;Node31 -->
<g id="edge31" class="edge"><title>Node28&#45;&gt;Node31</title>
<path fill="none" stroke="midnightblue" d="M947.621,-172C963.436,-172 979.861,-172 995.588,-172"/>
<polygon fill="midnightblue" stroke="midnightblue" points="995.809,-175.5 1005.81,-172 995.809,-168.5 995.809,-175.5"/>
</g>
<!-- Node31&#45;&gt;Node15 -->
<g id="edge40" class="edge"><title>Node31&#45;&gt;Node15</title>
<path fill="none" stroke="midnightblue" d="M1162.12,-180.721C1169.83,-183.353 1177.29,-186.715 1184,-191 1207.08,-205.735 1196.98,-226.175 1220,-241 1240.84,-254.42 1382.73,-279.401 1470.43,-293.865"/>
<polygon fill="midnightblue" stroke="midnightblue" points="1469.88,-297.322 1480.32,-295.489 1471.02,-290.414 1469.88,-297.322"/>
</g>
<!-- Node31&#45;&gt;Node30 -->
<g id="edge41" class="edge"><title>Node31&#45;&gt;Node30</title>
<path fill="none" stroke="midnightblue" d="M1162.18,-163.009C1241.25,-153.8 1364.14,-139.484 1448.16,-129.698"/>
<polygon fill="midnightblue" stroke="midnightblue" points="1448.68,-133.161 1458.21,-128.528 1447.87,-126.208 1448.68,-133.161"/>
</g>
<!-- Node32 -->
<g id="node32" class="node"><title>Node32</title>
<g id="a_node32"><a xlink:href="../../d9/d88/classmodel_1_1_tree_interpreter.html#af4d24e7867eb3a4a53f79f4a9288f9fd" target="_top" xlink:title="model.TreeInterpreter.execute\lCommand">
<polygon fill="white" stroke="black" points="1233.5,-202 1233.5,-232 1394.5,-232 1394.5,-202 1233.5,-202"/>
<text text-anchor="start" x="1241.5" y="-220" font-family="Helvetica,sans-Serif" font-size="10.00">model.TreeInterpreter.execute</text>
<text text-anchor="middle" x="1314" y="-209" font-family="Helvetica,sans-Serif" font-size="10.00">Command</text>
</a>
</g>
</g>
<!-- Node31&#45;&gt;Node32 -->
<g id="edge32" class="edge"><title>Node31&#45;&gt;Node32</title>
<path fill="none" stroke="midnightblue" d="M1135.13,-181.527C1150.79,-184.528 1168.12,-187.875 1184,-191 1198.48,-193.849 1213.87,-196.915 1228.78,-199.908"/>
<polygon fill="midnightblue" stroke="midnightblue" points="1228.52,-203.425 1239.01,-201.965 1229.89,-196.562 1228.52,-203.425"/>
</g>
<!-- Node35 -->
<g id="node35" class="node"><title>Node35</title>
<g id="a_node35"><a xlink:href="../../dc/d9e/classparser_1_1_command_tree_node.html#a3d691b68da13689c03ebd9de665c379c" target="_top" xlink:title="parser.CommandTreeNode.set\lValue">
<polygon fill="white" stroke="black" points="1459.5,-148 1459.5,-178 1622.5,-178 1622.5,-148 1459.5,-148"/>
<text text-anchor="start" x="1467.5" y="-166" font-family="Helvetica,sans-Serif" font-size="10.00">parser.CommandTreeNode.set</text>
<text text-anchor="middle" x="1541" y="-155" font-family="Helvetica,sans-Serif" font-size="10.00">Value</text>
</a>
</g>
</g>
<!-- Node31&#45;&gt;Node35 -->
<g id="edge42" class="edge"><title>Node31&#45;&gt;Node35</title>
<path fill="none" stroke="midnightblue" d="M1162.18,-170.473C1241.61,-168.902 1365.28,-166.456 1449.32,-164.794"/>
<polygon fill="midnightblue" stroke="midnightblue" points="1449.44,-168.292 1459.37,-164.595 1449.3,-161.293 1449.44,-168.292"/>
</g>
<!-- Node36 -->
<g id="node36" class="node"><title>Node36</title>
<g id="a_node36"><a xlink:href="../../db/d55/classmodel_1_1_variable_list.html#a09697cca38c12cf837ee40e71d02f78b" target="_top" xlink:title="model.VariableList.get">
<polygon fill="white" stroke="black" points="1252.5,-49.5 1252.5,-68.5 1375.5,-68.5 1375.5,-49.5 1252.5,-49.5"/>
<text text-anchor="middle" x="1314" y="-56.5" font-family="Helvetica,sans-Serif" font-size="10.00">model.VariableList.get</text>
</a>
</g>
</g>
<!-- Node31&#45;&gt;Node36 -->
<g id="edge38" class="edge"><title>Node31&#45;&gt;Node36</title>
<path fill="none" stroke="midnightblue" d="M1104.44,-162.366C1144.74,-142.393 1237.54,-96.3972 1284.57,-73.0884"/>
<polygon fill="midnightblue" stroke="midnightblue" points="1286.2,-76.1866 1293.61,-68.6099 1283.1,-69.9147 1286.2,-76.1866"/>
</g>
<!-- Node32&#45;&gt;Node15 -->
<g id="edge35" class="edge"><title>Node32&#45;&gt;Node15</title>
<path fill="none" stroke="midnightblue" d="M1374.47,-232.106C1386.05,-236.332 1397.76,-241.577 1408,-248 1427.43,-260.196 1423.89,-273.955 1444,-285 1449.11,-287.809 1454.58,-290.224 1460.21,-292.301"/>
<polygon fill="midnightblue" stroke="midnightblue" points="1459.22,-295.659 1469.81,-295.486 1461.42,-289.015 1459.22,-295.659"/>
</g>
<!-- Node32&#45;&gt;Node30 -->
<g id="edge36" class="edge"><title>Node32&#45;&gt;Node30</title>
<path fill="none" stroke="midnightblue" d="M1334.81,-201.744C1359.17,-183.753 1402.42,-154.246 1444,-138 1450.8,-135.343 1458.02,-133.043 1465.33,-131.055"/>
<polygon fill="midnightblue" stroke="midnightblue" points="1466.49,-134.374 1475.32,-128.533 1464.77,-127.587 1466.49,-134.374"/>
</g>
<!-- Node33 -->
<g id="node33" class="node"><title>Node33</title>
<g id="a_node33"><a xlink:href="../../db/d10/classmodel_1_1_command_factory.html#a3982ff8b4387b7e50c9ec4350ee01733" target="_top" xlink:title="model.CommandFactory.create\lCommand">
<polygon fill="white" stroke="black" points="1457.5,-246 1457.5,-276 1624.5,-276 1624.5,-246 1457.5,-246"/>
<text text-anchor="start" x="1465.5" y="-264" font-family="Helvetica,sans-Serif" font-size="10.00">model.CommandFactory.create</text>
<text text-anchor="middle" x="1541" y="-253" font-family="Helvetica,sans-Serif" font-size="10.00">Command</text>
</a>
</g>
</g>
<!-- Node32&#45;&gt;Node33 -->
<g id="edge33" class="edge"><title>Node32&#45;&gt;Node33</title>
<path fill="none" stroke="midnightblue" d="M1391.8,-232.019C1411.61,-235.892 1433.05,-240.086 1453.32,-244.049"/>
<polygon fill="midnightblue" stroke="midnightblue" points="1452.68,-247.489 1463.16,-245.974 1454.02,-240.62 1452.68,-247.489"/>
</g>
<!-- Node34 -->
<g id="node34" class="node"><title>Node34</title>
<g id="a_node34"><a xlink:href="../../d9/d88/classmodel_1_1_tree_interpreter.html#adc0cf2c5819ec7f42db4e37db51b1893" target="_top" xlink:title="model.TreeInterpreter.get\lConstructors">
<polygon fill="white" stroke="black" points="1472,-197 1472,-227 1610,-227 1610,-197 1472,-197"/>
<text text-anchor="start" x="1480" y="-215" font-family="Helvetica,sans-Serif" font-size="10.00">model.TreeInterpreter.get</text>
<text text-anchor="middle" x="1541" y="-204" font-family="Helvetica,sans-Serif" font-size="10.00">Constructors</text>
</a>
</g>
</g>
<!-- Node32&#45;&gt;Node34 -->
<g id="edge34" class="edge"><title>Node32&#45;&gt;Node34</title>
<path fill="none" stroke="midnightblue" d="M1394.64,-215.23C1416.36,-214.748 1439.87,-214.225 1461.52,-213.744"/>
<polygon fill="midnightblue" stroke="midnightblue" points="1461.73,-217.24 1471.65,-213.519 1461.58,-210.242 1461.73,-217.24"/>
</g>
<!-- Node32&#45;&gt;Node35 -->
<g id="edge37" class="edge"><title>Node32&#45;&gt;Node35</title>
<path fill="none" stroke="midnightblue" d="M1377.68,-201.958C1405.47,-195.286 1438.36,-187.393 1467.24,-180.463"/>
<polygon fill="midnightblue" stroke="midnightblue" points="1468.36,-183.792 1477.27,-178.055 1466.73,-176.985 1468.36,-183.792"/>
</g>
<!-- Node37 -->
<g id="node37" class="node"><title>Node37</title>
<g id="a_node37"><a xlink:href="../../db/d55/classmodel_1_1_variable_list.html#a0adb554303c7191db1da43ddb5fa2c45" target="_top" xlink:title="model.VariableList.add">
<polygon fill="white" stroke="black" points="1478.5,-49.5 1478.5,-68.5 1603.5,-68.5 1603.5,-49.5 1478.5,-49.5"/>
<text text-anchor="middle" x="1541" y="-56.5" font-family="Helvetica,sans-Serif" font-size="10.00">model.VariableList.add</text>
</a>
</g>
</g>
<!-- Node36&#45;&gt;Node37 -->
<g id="edge39" class="edge"><title>Node36&#45;&gt;Node37</title>
<path fill="none" stroke="midnightblue" d="M1375.59,-59C1404,-59 1438.07,-59 1467.8,-59"/>
<polygon fill="midnightblue" stroke="midnightblue" points="1468.12,-62.5001 1478.12,-59 1468.12,-55.5001 1468.12,-62.5001"/>
</g>
<!-- Node39 -->
<g id="node39" class="node"><title>Node39</title>
<g id="a_node39"><a xlink:href="../../dc/d3b/classui_1_1_g_u_i.html#a203fbe4e50ca1066c5c0ea8cc182adc4" target="_top" xlink:title="ui.GUI.setOutputText">
<polygon fill="white" stroke="black" points="1026.5,-27.5 1026.5,-46.5 1141.5,-46.5 1141.5,-27.5 1026.5,-27.5"/>
<text text-anchor="middle" x="1084" y="-34.5" font-family="Helvetica,sans-Serif" font-size="10.00">ui.GUI.setOutputText</text>
</a>
</g>
</g>
<!-- Node38&#45;&gt;Node39 -->
<g id="edge44" class="edge"><title>Node38&#45;&gt;Node39</title>
<path fill="none" stroke="midnightblue" d="M900.041,-77.4777C936.917,-69.3193 990.18,-57.5354 1029.74,-48.784"/>
<polygon fill="midnightblue" stroke="midnightblue" points="1030.73,-52.1495 1039.74,-46.5719 1029.22,-45.3147 1030.73,-52.1495"/>
</g>
<!-- Node40 -->
<g id="node40" class="node"><title>Node40</title>
<g id="a_node40"><a xlink:href="../../d8/d3c/classui_1_1elements_1_1_i_o_element.html#a39ffe51bb8b4ef8ad25dd48e65c92ac6" target="_top" xlink:title="ui.elements.IOElement.get\lOutputField">
<polygon fill="white" stroke="black" points="1242,-0 1242,-30 1386,-30 1386,-0 1242,-0"/>
<text text-anchor="start" x="1250" y="-18" font-family="Helvetica,sans-Serif" font-size="10.00">ui.elements.IOElement.get</text>
<text text-anchor="middle" x="1314" y="-7" font-family="Helvetica,sans-Serif" font-size="10.00">OutputField</text>
</a>
</g>
</g>
<!-- Node39&#45;&gt;Node40 -->
<g id="edge45" class="edge"><title>Node39&#45;&gt;Node40</title>
<path fill="none" stroke="midnightblue" d="M1141.65,-31.5335C1168.91,-28.9039 1202.07,-25.7037 1231.94,-22.8219"/>
<polygon fill="midnightblue" stroke="midnightblue" points="1232.31,-26.3025 1241.93,-21.8581 1231.64,-19.3348 1232.31,-26.3025"/>
</g>
</g>
</svg>
        <g id="navigator" transform="translate(0 0)" fill="#404254">
                <rect fill="#f2f5e9" fill-opacity="0.5" stroke="#606060" stroke-width=".5" x="0" y="0" width="60" height="60"/>
                <use id="zoomplus" xlink:href="#zoomPlus" x="17" y="9" onmousedown="handleZoom(evt,'in')"/>
                <use id="zoomminus" xlink:href="#zoomMin" x="42" y="9" onmousedown="handleZoom(evt,'out')"/>
                <use id="reset" xlink:href="#resetDef" x="30" y="36" onmousedown="handleReset()"/>
                <g id="arrowUp" xlink:href="#dirArrow" transform="translate(30 24)" onmousedown="handlePan(0,-1)">
                  <use xlink:href="#rim" fill="#404040">
                        <set attributeName="fill" to="#808080" begin="arrowUp.mouseover" end="arrowUp.mouseout"/>
                  </use>
                  <path fill="none" stroke="white" stroke-width="1.5" d="M0,-3.0v7 M-2.5,-0.5L0,-3.0L2.5,-0.5"/>
                </g>
                <g id="arrowRight" xlink:href="#dirArrow" transform="rotate(90) translate(36 -43)" onmousedown="handlePan(1,0)">
                  <use xlink:href="#rim" fill="#404040">
                        <set attributeName="fill" to="#808080" begin="arrowRight.mouseover" end="arrowRight.mouseout"/>
                  </use>
                  <path fill="none" stroke="white" stroke-width="1.5" d="M0,-3.0v7 M-2.5,-0.5L0,-3.0L2.5,-0.5"/>
                </g>
                <g id="arrowDown" xlink:href="#dirArrow" transform="rotate(180) translate(-30 -48)" onmousedown="handlePan(0,1)">
                  <use xlink:href="#rim" fill="#404040">
                        <set attributeName="fill" to="#808080" begin="arrowDown.mouseover" end="arrowDown.mouseout"/>
                  </use>
                  <path fill="none" stroke="white" stroke-width="1.5" d="M0,-3.0v7 M-2.5,-0.5L0,-3.0L2.5,-0.5"/>
                </g>
                <g id="arrowLeft" xlink:href="#dirArrow" transform="rotate(270) translate(-36 17)" onmousedown="handlePan(-1,0)">
                  <use xlink:href="#rim" fill="#404040">
                        <set attributeName="fill" to="#808080" begin="arrowLeft.mouseover" end="arrowLeft.mouseout"/>
                  </use>
                  <path fill="none" stroke="white" stroke-width="1.5" d="M0,-3.0v7 M-2.5,-0.5L0,-3.0L2.5,-0.5"/>
                </g>
        </g>
        <svg viewBox="0 0 15 15" width="100%" height="30px" preserveAspectRatio="xMaxYMin meet">
         <g id="arrow_out" transform="scale(0.3 0.3)">
          <a xlink:href="classui_1_1elements_1_1_i_o_element_a139a046f0c771f86696f2eee04047c64_cgraph_org.svg" target="_base">
           <rect id="button" ry="5" rx="5" y="6" x="6" height="38" width="38"
                fill="#f2f5e9" fill-opacity="0.5" stroke="#606060" stroke-width="1.0"/>
           <path id="arrow"
             d="M 11.500037,31.436501 C 11.940474,20.09759 22.043105,11.32322 32.158766,21.979434 L 37.068811,17.246167 C 37.068811,17.246167 37.088388,32 37.088388,32 L 22.160133,31.978069 C 22.160133,31.978069 26.997745,27.140456 26.997745,27.140456 C 18.528582,18.264221 13.291696,25.230495 11.500037,31.436501 z"
             style="fill:#404040;"/>
          </a>
         </g>
        </svg>
</svg>
