<?xml version="1.0" encoding="UTF-8" standalone="no"?>
<!DOCTYPE svg PUBLIC "-//W3C//DTD SVG 1.1//EN"
 "http://www.w3.org/Graphics/SVG/1.1/DTD/svg11.dtd">
<!-- Generated by graphviz version 2.36.0 (20140111.2315)
 -->
<!-- Title: ui.elements.IOElement.getOutputField Pages: 1 -->
<svg width="3208pt" height="88pt"
 viewBox="0.00 0.00 3208.00 88.00" xmlns="http://www.w3.org/2000/svg" xmlns:xlink="http://www.w3.org/1999/xlink">
<g id="graph0" class="graph" transform="scale(1 1) rotate(0) translate(4 84)">
<title>ui.elements.IOElement.getOutputField</title>
<polygon fill="white" stroke="none" points="-4,4 -4,-84 3204,-84 3204,4 -4,4"/>
<!-- Node1 -->
<g id="node1" class="node"><title>Node1</title>
<polygon fill="#bfbfbf" stroke="black" points="0,-36 0,-66 144,-66 144,-36 0,-36"/>
<text text-anchor="start" x="8" y="-54" font-family="Helvetica,sans-Serif" font-size="10.00">ui.elements.IOElement.get</text>
<text text-anchor="middle" x="72" y="-43" font-family="Helvetica,sans-Serif" font-size="10.00">OutputField</text>
</g>
<!-- Node2 -->
<g id="node2" class="node"><title>Node2</title>
<g id="a_node2"><a xlink:href="../../dc/d3b/classui_1_1_g_u_i.html#a203fbe4e50ca1066c5c0ea8cc182adc4" target="_top" xlink:title="ui.GUI.setOutputText">
<polygon fill="white" stroke="black" points="180.5,-41.5 180.5,-60.5 295.5,-60.5 295.5,-41.5 180.5,-41.5"/>
<text text-anchor="middle" x="238" y="-48.5" font-family="Helvetica,sans-Serif" font-size="10.00">ui.GUI.setOutputText</text>
</a>
</g>
</g>
<!-- Node1&#45;&gt;Node2 -->
<g id="edge1" class="edge"><title>Node1&#45;&gt;Node2</title>
<path fill="none" stroke="midnightblue" d="M154.555,-51C163.18,-51 171.812,-51 180.069,-51"/>
<polygon fill="midnightblue" stroke="midnightblue" points="154.456,-47.5001 144.456,-51 154.456,-54.5001 154.456,-47.5001"/>
</g>
<!-- Node3 -->
<g id="node3" class="node"><title>Node3</title>
<g id="a_node3"><a xlink:href="../../d5/d06/classui_1_1_scene_updater.html#ab8b88b95b646266ee4a8ef3d77e4c3e3" target="_top" xlink:title="ui.SceneUpdater.setOutputText">
<polygon fill="white" stroke="black" points="332,-41.5 332,-60.5 498,-60.5 498,-41.5 332,-41.5"/>
<text text-anchor="middle" x="415" y="-48.5" font-family="Helvetica,sans-Serif" font-size="10.00">ui.SceneUpdater.setOutputText</text>
</a>
</g>
</g>
<!-- Node2&#45;&gt;Node3 -->
<g id="edge2" class="edge"><title>Node2&#45;&gt;Node3</title>
<path fill="none" stroke="midnightblue" d="M305.95,-51C314.385,-51 323.09,-51 331.727,-51"/>
<polygon fill="midnightblue" stroke="midnightblue" points="305.818,-47.5001 295.817,-51 305.817,-54.5001 305.818,-47.5001"/>
</g>
<!-- Node4 -->
<g id="node4" class="node"><title>Node4</title>
<g id="a_node4"><a xlink:href="../../d9/df7/classcontroller_1_1_controller.html#a3d81fb1a57114f96fb6c319f4c5df370" target="_top" xlink:title="controller.Controller.parse\lCommand">
<polygon fill="white" stroke="black" points="534,-36 534,-66 674,-66 674,-36 534,-36"/>
<text text-anchor="start" x="542" y="-54" font-family="Helvetica,sans-Serif" font-size="10.00">controller.Controller.parse</text>
<text text-anchor="middle" x="604" y="-43" font-family="Helvetica,sans-Serif" font-size="10.00">Command</text>
</a>
</g>
</g>
<!-- Node3&#45;&gt;Node4 -->
<g id="edge3" class="edge"><title>Node3&#45;&gt;Node4</title>
<path fill="none" stroke="midnightblue" d="M508.165,-51C516.828,-51 525.506,-51 533.901,-51"/>
<polygon fill="midnightblue" stroke="midnightblue" points="508.021,-47.5001 498.021,-51 508.021,-54.5001 508.021,-47.5001"/>
</g>
<!-- Node5 -->
<g id="node5" class="node"><title>Node5</title>
<g id="a_node5"><a xlink:href="../../d5/d06/classui_1_1_scene_updater.html#ab77a04f8b0038429b09237aac18906e8" target="_top" xlink:title="ui.SceneUpdater.sendCommands">
<polygon fill="white" stroke="black" points="710,-41.5 710,-60.5 888,-60.5 888,-41.5 710,-41.5"/>
<text text-anchor="middle" x="799" y="-48.5" font-family="Helvetica,sans-Serif" font-size="10.00">ui.SceneUpdater.sendCommands</text>
</a>
</g>
</g>
<!-- Node4&#45;&gt;Node5 -->
<g id="edge4" class="edge"><title>Node4&#45;&gt;Node5</title>
<path fill="none" stroke="midnightblue" d="M684.294,-51C692.713,-51 701.313,-51 709.825,-51"/>
<polygon fill="midnightblue" stroke="midnightblue" points="684.132,-47.5001 674.132,-51 684.132,-54.5001 684.132,-47.5001"/>
</g>
<!-- Node6 -->
<g id="node6" class="node"><title>Node6</title>
<g id="a_node6"><a xlink:href="../../dc/d3b/classui_1_1_g_u_i.html#ad8f08a79a20a498bcaafdc7e2e2ce0a9" target="_top" xlink:title="ui.GUI.parseCommand">
<polygon fill="white" stroke="black" points="924.5,-41.5 924.5,-60.5 1049.5,-60.5 1049.5,-41.5 924.5,-41.5"/>
<text text-anchor="middle" x="987" y="-48.5" font-family="Helvetica,sans-Serif" font-size="10.00">ui.GUI.parseCommand</text>
</a>
</g>
</g>
<!-- Node5&#45;&gt;Node6 -->
<g id="edge5" class="edge"><title>Node5&#45;&gt;Node6</title>
<path fill="none" stroke="midnightblue" d="M898.196,-51C907.132,-51 916.003,-51 924.479,-51"/>
<polygon fill="midnightblue" stroke="midnightblue" points="898.098,-47.5001 888.098,-51 898.098,-54.5001 898.098,-47.5001"/>
</g>
<!-- Node7 -->
<g id="node7" class="node"><title>Node7</title>
<g id="a_node7"><a xlink:href="../../d8/d3c/classui_1_1elements_1_1_i_o_element.html#a139a046f0c771f86696f2eee04047c64" target="_top" xlink:title="ui.elements.IOElement.init">
<polygon fill="white" stroke="black" points="1102.5,-60.5 1102.5,-79.5 1245.5,-79.5 1245.5,-60.5 1102.5,-60.5"/>
<text text-anchor="middle" x="1174" y="-67.5" font-family="Helvetica,sans-Serif" font-size="10.00">ui.elements.IOElement.init</text>
</a>
</g>
</g>
<!-- Node6&#45;&gt;Node7 -->
<g id="edge6" class="edge"><title>Node6&#45;&gt;Node7</title>
<path fill="none" stroke="midnightblue" d="M1059.68,-58.3614C1073.7,-59.8019 1088.4,-61.3116 1102.39,-62.7485"/>
<polygon fill="midnightblue" stroke="midnightblue" points="1059.91,-54.8668 1049.6,-57.3267 1059.19,-61.8302 1059.91,-54.8668"/>
</g>
<!-- Node9 -->
<g id="node9" class="node"><title>Node9</title>
<g id="a_node9"><a xlink:href="../../dc/d3b/classui_1_1_g_u_i.html#ab8ec2a37b3d5bd9e8c2abbb3642fb965" target="_top" xlink:title="ui.GUI.setupKeyboardCommands">
<polygon fill="white" stroke="black" points="1086.5,-22.5 1086.5,-41.5 1261.5,-41.5 1261.5,-22.5 1086.5,-22.5"/>
<text text-anchor="middle" x="1174" y="-29.5" font-family="Helvetica,sans-Serif" font-size="10.00">ui.GUI.setupKeyboardCommands</text>
</a>
</g>
</g>
<!-- Node6&#45;&gt;Node9 -->
<g id="edge8" class="edge"><title>Node6&#45;&gt;Node9</title>
<path fill="none" stroke="midnightblue" d="M1059.69,-43.6368C1068.41,-42.7417 1077.39,-41.8199 1086.29,-40.9054"/>
<polygon fill="midnightblue" stroke="midnightblue" points="1059.19,-40.1698 1049.6,-44.6733 1059.91,-47.1332 1059.19,-40.1698"/>
</g>
<!-- Node8 -->
<g id="node8" class="node"><title>Node8</title>
<g id="a_node8"><a xlink:href="../../d8/d3c/classui_1_1elements_1_1_i_o_element.html#a556e1a3ad292fe3ab731065eef59b187" target="_top" xlink:title="ui.elements.IOElement.IOElement">
<polygon fill="white" stroke="black" points="1298,-60.5 1298,-79.5 1476,-79.5 1476,-60.5 1298,-60.5"/>
<text text-anchor="middle" x="1387" y="-67.5" font-family="Helvetica,sans-Serif" font-size="10.00">ui.elements.IOElement.IOElement</text>
</a>
</g>
</g>
<!-- Node7&#45;&gt;Node8 -->
<g id="edge7" class="edge"><title>Node7&#45;&gt;Node8</title>
<path fill="none" stroke="midnightblue" d="M1255.92,-70C1269.65,-70 1283.97,-70 1297.88,-70"/>
<polygon fill="midnightblue" stroke="midnightblue" points="1255.55,-66.5001 1245.55,-70 1255.55,-73.5001 1255.55,-66.5001"/>
</g>
<!-- Node10 -->
<g id="node10" class="node"><title>Node10</title>
<g id="a_node10"><a xlink:href="../../dc/d3b/classui_1_1_g_u_i.html#a765d554102f38969231261686f2f8e27" target="_top" xlink:title="ui.GUI.initialize">
<polygon fill="white" stroke="black" points="1344,-22.5 1344,-41.5 1430,-41.5 1430,-22.5 1344,-22.5"/>
<text text-anchor="middle" x="1387" y="-29.5" font-family="Helvetica,sans-Serif" font-size="10.00">ui.GUI.initialize</text>
</a>
</g>
</g>
<!-- Node9&#45;&gt;Node10 -->
<g id="edge9" class="edge"><title>Node9&#45;&gt;Node10</title>
<path fill="none" stroke="midnightblue" d="M1271.75,-32C1297.02,-32 1322.96,-32 1343.72,-32"/>
<polygon fill="midnightblue" stroke="midnightblue" points="1271.74,-28.5001 1261.74,-32 1271.74,-35.5001 1271.74,-28.5001"/>
</g>
<!-- Node11 -->
<g id="node11" class="node"><title>Node11</title>
<g id="a_node11"><a xlink:href="../../d5/d06/classui_1_1_scene_updater.html#aeef5dd7a8ec2ad6179e33fdd71ea90d6" target="_top" xlink:title="ui.SceneUpdater.initGUI">
<polygon fill="white" stroke="black" points="1512.5,-22.5 1512.5,-41.5 1643.5,-41.5 1643.5,-22.5 1512.5,-22.5"/>
<text text-anchor="middle" x="1578" y="-29.5" font-family="Helvetica,sans-Serif" font-size="10.00">ui.SceneUpdater.initGUI</text>
</a>
</g>
</g>
<!-- Node10&#45;&gt;Node11 -->
<g id="edge10" class="edge"><title>Node10&#45;&gt;Node11</title>
<path fill="none" stroke="midnightblue" d="M1440.67,-32C1462.92,-32 1489.05,-32 1512.45,-32"/>
<polygon fill="midnightblue" stroke="midnightblue" points="1440.42,-28.5001 1430.42,-32 1440.42,-35.5001 1440.42,-28.5001"/>
</g>
<!-- Node12 -->
<g id="node12" class="node"><title>Node12</title>
<g id="a_node12"><a xlink:href="../../d9/df7/classcontroller_1_1_controller.html#a57e42ba83ee2145e6262cd72eac59570" target="_top" xlink:title="controller.Controller.init">
<polygon fill="white" stroke="black" points="1680.5,-22.5 1680.5,-41.5 1807.5,-41.5 1807.5,-22.5 1680.5,-22.5"/>
<text text-anchor="middle" x="1744" y="-29.5" font-family="Helvetica,sans-Serif" font-size="10.00">controller.Controller.init</text>
</a>
</g>
</g>
<!-- Node11&#45;&gt;Node12 -->
<g id="edge11" class="edge"><title>Node11&#45;&gt;Node12</title>
<path fill="none" stroke="midnightblue" d="M1654.04,-32C1662.81,-32 1671.68,-32 1680.26,-32"/>
<polygon fill="midnightblue" stroke="midnightblue" points="1653.82,-28.5001 1643.82,-32 1653.82,-35.5001 1653.82,-28.5001"/>
</g>
<!-- Node13 -->
<g id="node13" class="node"><title>Node13</title>
<g id="a_node13"><a xlink:href="../../dd/df2/classmain_1_1_workspace_manager.html#abc818b59211f6e14940b86a42bb868d0" target="_top" xlink:title="main.WorkspaceManager.create\lWorkspace">
<polygon fill="white" stroke="black" points="1844,-17 1844,-47 2014,-47 2014,-17 1844,-17"/>
<text text-anchor="start" x="1852" y="-35" font-family="Helvetica,sans-Serif" font-size="10.00">main.WorkspaceManager.create</text>
<text text-anchor="middle" x="1929" y="-24" font-family="Helvetica,sans-Serif" font-size="10.00">Workspace</text>
</a>
</g>
</g>
<!-- Node12&#45;&gt;Node13 -->
<g id="edge12" class="edge"><title>Node12&#45;&gt;Node13</title>
<path fill="none" stroke="midnightblue" d="M1817.92,-32C1826.39,-32 1835.08,-32 1843.69,-32"/>
<polygon fill="midnightblue" stroke="midnightblue" points="1817.72,-28.5001 1807.72,-32 1817.72,-35.5001 1817.72,-28.5001"/>
</g>
<!-- Node14 -->
<g id="node14" class="node"><title>Node14</title>
<g id="a_node14"><a xlink:href="../../d9/df7/classcontroller_1_1_controller.html#a3a9d672bb57047df70945ad1a9582c9a" target="_top" xlink:title="controller.Controller.create\lNewWorkspace">
<polygon fill="white" stroke="black" points="2050.5,-39 2050.5,-69 2193.5,-69 2193.5,-39 2050.5,-39"/>
<text text-anchor="start" x="2058.5" y="-57" font-family="Helvetica,sans-Serif" font-size="10.00">controller.Controller.create</text>
<text text-anchor="middle" x="2122" y="-46" font-family="Helvetica,sans-Serif" font-size="10.00">NewWorkspace</text>
</a>
</g>
</g>
<!-- Node13&#45;&gt;Node14 -->
<g id="edge13" class="edge"><title>Node13&#45;&gt;Node14</title>
<path fill="none" stroke="midnightblue" d="M2024.03,-42.8303C2032.88,-43.8503 2041.75,-44.8721 2050.34,-45.8608"/>
<polygon fill="midnightblue" stroke="midnightblue" points="2024.39,-39.3489 2014.05,-41.6815 2023.59,-46.3029 2024.39,-39.3489"/>
</g>
<!-- Node20 -->
<g id="node20" class="node"><title>Node20</title>
<g id="a_node20"><a xlink:href="../../d1/d0b/classmain_1_1_main.html#a9f1e5657b2f6f9bdd69a3b6412ceda74" target="_top" xlink:title="main.Main.start">
<polygon fill="white" stroke="black" points="2076,-0.5 2076,-19.5 2168,-19.5 2168,-0.5 2076,-0.5"/>
<text text-anchor="middle" x="2122" y="-7.5" font-family="Helvetica,sans-Serif" font-size="10.00">main.Main.start</text>
</a>
</g>
</g>
<!-- Node13&#45;&gt;Node20 -->
<g id="edge19" class="edge"><title>Node13&#45;&gt;Node20</title>
<path fill="none" stroke="midnightblue" d="M2024.09,-21.1629C2042.19,-19.0779 2060.36,-16.9851 2075.99,-15.1843"/>
<polygon fill="midnightblue" stroke="midnightblue" points="2023.59,-17.6971 2014.05,-22.3185 2024.39,-24.6511 2023.59,-17.6971"/>
</g>
<!-- Node15 -->
<g id="node15" class="node"><title>Node15</title>
<g id="a_node15"><a xlink:href="../../d5/d06/classui_1_1_scene_updater.html#a2858ad8edb0c0f59a21e2ae015f2fa1e" target="_top" xlink:title="ui.SceneUpdater.createNew\lWorkspace">
<polygon fill="white" stroke="black" points="2230,-39 2230,-69 2380,-69 2380,-39 2230,-39"/>
<text text-anchor="start" x="2238" y="-57" font-family="Helvetica,sans-Serif" font-size="10.00">ui.SceneUpdater.createNew</text>
<text text-anchor="middle" x="2305" y="-46" font-family="Helvetica,sans-Serif" font-size="10.00">Workspace</text>
</a>
</g>
</g>
<!-- Node14&#45;&gt;Node15 -->
<g id="edge14" class="edge"><title>Node14&#45;&gt;Node15</title>
<path fill="none" stroke="midnightblue" d="M2203.8,-54C2212.43,-54 2221.17,-54 2229.71,-54"/>
<polygon fill="midnightblue" stroke="midnightblue" points="2203.76,-50.5001 2193.76,-54 2203.76,-57.5001 2203.76,-50.5001"/>
</g>
<!-- Node16 -->
<g id="node16" class="node"><title>Node16</title>
<g id="a_node16"><a xlink:href="../../dc/d3b/classui_1_1_g_u_i.html#a2edc294ba07311e6c4b85c9fe749d1bf" target="_top" xlink:title="ui.GUI.createNewWorkspace">
<polygon fill="white" stroke="black" points="2416,-44.5 2416,-63.5 2566,-63.5 2566,-44.5 2416,-44.5"/>
<text text-anchor="middle" x="2491" y="-51.5" font-family="Helvetica,sans-Serif" font-size="10.00">ui.GUI.createNewWorkspace</text>
</a>
</g>
</g>
<!-- Node15&#45;&gt;Node16 -->
<g id="edge15" class="edge"><title>Node15&#45;&gt;Node16</title>
<path fill="none" stroke="midnightblue" d="M2390.07,-54C2398.65,-54 2407.34,-54 2415.81,-54"/>
<polygon fill="midnightblue" stroke="midnightblue" points="2390.04,-50.5001 2380.04,-54 2390.04,-57.5001 2390.04,-50.5001"/>
</g>
<!-- Node17 -->
<g id="node17" class="node"><title>Node17</title>
<g id="a_node17"><a xlink:href="../../d0/de6/classui_1_1elements_1_1_menu_bar_element.html#a98c13995a31d997aa10f2950583da6cc" target="_top" xlink:title="ui.elements.MenuBarElement.make\lMenuBar">
<polygon fill="white" stroke="black" points="2602,-39 2602,-69 2790,-69 2790,-39 2602,-39"/>
<text text-anchor="start" x="2610" y="-57" font-family="Helvetica,sans-Serif" font-size="10.00">ui.elements.MenuBarElement.make</text>
<text text-anchor="middle" x="2696" y="-46" font-family="Helvetica,sans-Serif" font-size="10.00">MenuBar</text>
</a>
</g>
</g>
<!-- Node16&#45;&gt;Node17 -->
<g id="edge16" class="edge"><title>Node16&#45;&gt;Node17</title>
<path fill="none" stroke="midnightblue" d="M2576.28,-54C2584.66,-54 2593.21,-54 2601.68,-54"/>
<polygon fill="midnightblue" stroke="midnightblue" points="2576.15,-50.5001 2566.15,-54 2576.15,-57.5001 2576.15,-50.5001"/>
</g>
<!-- Node18 -->
<g id="node18" class="node"><title>Node18</title>
<g id="a_node18"><a xlink:href="../../d0/de6/classui_1_1elements_1_1_menu_bar_element.html#a7bdb58f78cf8b61ba28498c5c86ab682" target="_top" xlink:title="ui.elements.MenuBarElement.init">
<polygon fill="white" stroke="black" points="2826,-44.5 2826,-63.5 3002,-63.5 3002,-44.5 2826,-44.5"/>
<text text-anchor="middle" x="2914" y="-51.5" font-family="Helvetica,sans-Serif" font-size="10.00">ui.elements.MenuBarElement.init</text>
</a>
</g>
</g>
<!-- Node17&#45;&gt;Node18 -->
<g id="edge17" class="edge"><title>Node17&#45;&gt;Node18</title>
<path fill="none" stroke="midnightblue" d="M2800.23,-54C2808.83,-54 2817.48,-54 2825.94,-54"/>
<polygon fill="midnightblue" stroke="midnightblue" points="2800.17,-50.5001 2790.17,-54 2800.17,-57.5001 2800.17,-50.5001"/>
</g>
<!-- Node19 -->
<g id="node19" class="node"><title>Node19</title>
<g id="a_node19"><a xlink:href="../../d0/de6/classui_1_1elements_1_1_menu_bar_element.html#ab4a4e6841c924a9d9c70b8073b56dffc" target="_top" xlink:title="ui.elements.MenuBarElement.\lMenuBarElement">
<polygon fill="white" stroke="black" points="3038.5,-39 3038.5,-69 3199.5,-69 3199.5,-39 3038.5,-39"/>
<text text-anchor="start" x="3046.5" y="-57" font-family="Helvetica,sans-Serif" font-size="10.00">ui.elements.MenuBarElement.</text>
<text text-anchor="middle" x="3119" y="-46" font-family="Helvetica,sans-Serif" font-size="10.00">MenuBarElement</text>
</a>
</g>
</g>
<!-- Node18&#45;&gt;Node19 -->
<g id="edge18" class="edge"><title>Node18&#45;&gt;Node19</title>
<path fill="none" stroke="midnightblue" d="M3012.47,-54C3021.19,-54 3029.95,-54 3038.5,-54"/>
<polygon fill="midnightblue" stroke="midnightblue" points="3012.27,-50.5001 3002.27,-54 3012.27,-57.5001 3012.27,-50.5001"/>
</g>
</g>
</svg>
