<?xml version="1.0" encoding="UTF-8" standalone="no"?>
<!DOCTYPE svg PUBLIC "-//W3C//DTD SVG 1.1//EN"
 "http://www.w3.org/Graphics/SVG/1.1/DTD/svg11.dtd">
<!-- Generated by graphviz version 2.36.0 (20140111.2315)
 -->
<!-- Title: ui.elements.IOElement.IOElement Pages: 1 -->
<svg width="1860pt" height="729pt"
 viewBox="0.00 0.00 1860.00 729.00" xmlns="http://www.w3.org/2000/svg" xmlns:xlink="http://www.w3.org/1999/xlink">
<g id="graph0" class="graph" transform="scale(1 1) rotate(0) translate(4 725)">
<title>ui.elements.IOElement.IOElement</title>
<polygon fill="white" stroke="none" points="-4,4 -4,-725 1856,-725 1856,4 -4,4"/>
<!-- Node1 -->
<g id="node1" class="node"><title>Node1</title>
<polygon fill="#bfbfbf" stroke="black" points="0,-293.5 0,-312.5 178,-312.5 178,-293.5 0,-293.5"/>
<text text-anchor="middle" x="89" y="-300.5" font-family="Helvetica,sans-Serif" font-size="10.00">ui.elements.IOElement.IOElement</text>
</g>
<!-- Node2 -->
<g id="node2" class="node"><title>Node2</title>
<g id="a_node2"><a xlink:href="../../d8/d3c/classui_1_1elements_1_1_i_o_element.html#a139a046f0c771f86696f2eee04047c64" target="_top" xlink:title="ui.elements.IOElement.init">
<polygon fill="white" stroke="black" points="214.5,-293.5 214.5,-312.5 357.5,-312.5 357.5,-293.5 214.5,-293.5"/>
<text text-anchor="middle" x="286" y="-300.5" font-family="Helvetica,sans-Serif" font-size="10.00">ui.elements.IOElement.init</text>
</a>
</g>
</g>
<!-- Node1&#45;&gt;Node2 -->
<g id="edge1" class="edge"><title>Node1&#45;&gt;Node2</title>
<path fill="none" stroke="midnightblue" d="M178.087,-303C186.792,-303 195.598,-303 204.225,-303"/>
<polygon fill="midnightblue" stroke="midnightblue" points="204.252,-306.5 214.252,-303 204.252,-299.5 204.252,-306.5"/>
</g>
<!-- Node3 -->
<g id="node3" class="node"><title>Node3</title>
<g id="a_node3"><a xlink:href="../../d5/db7/classutil_1_1_button_maker.html#a3e5f904585878b756ee8079ed25c94b0" target="_top" xlink:title="util.ButtonMaker.makeButton">
<polygon fill="white" stroke="black" points="394.5,-312.5 394.5,-331.5 551.5,-331.5 551.5,-312.5 394.5,-312.5"/>
<text text-anchor="middle" x="473" y="-319.5" font-family="Helvetica,sans-Serif" font-size="10.00">util.ButtonMaker.makeButton</text>
</a>
</g>
</g>
<!-- Node2&#45;&gt;Node3 -->
<g id="edge2" class="edge"><title>Node2&#45;&gt;Node3</title>
<path fill="none" stroke="midnightblue" d="M357.732,-310.264C366.404,-311.155 375.345,-312.073 384.229,-312.986"/>
<polygon fill="midnightblue" stroke="midnightblue" points="383.911,-316.471 394.216,-314.011 384.626,-309.508 383.911,-316.471"/>
</g>
<!-- Node4 -->
<g id="node4" class="node"><title>Node4</title>
<g id="a_node4"><a xlink:href="../../dc/d3b/classui_1_1_g_u_i.html#ad8f08a79a20a498bcaafdc7e2e2ce0a9" target="_top" xlink:title="ui.GUI.parseCommand">
<polygon fill="white" stroke="black" points="410.5,-274.5 410.5,-293.5 535.5,-293.5 535.5,-274.5 410.5,-274.5"/>
<text text-anchor="middle" x="473" y="-281.5" font-family="Helvetica,sans-Serif" font-size="10.00">ui.GUI.parseCommand</text>
</a>
</g>
</g>
<!-- Node2&#45;&gt;Node4 -->
<g id="edge3" class="edge"><title>Node2&#45;&gt;Node4</title>
<path fill="none" stroke="midnightblue" d="M357.732,-295.736C371.686,-294.302 386.341,-292.797 400.326,-291.361"/>
<polygon fill="midnightblue" stroke="midnightblue" points="400.78,-294.833 410.371,-290.33 400.065,-287.87 400.78,-294.833"/>
</g>
<!-- Node5 -->
<g id="node5" class="node"><title>Node5</title>
<g id="a_node5"><a xlink:href="../../d8/d3c/classui_1_1elements_1_1_i_o_element.html#a3b1244fbac1fbbee1183143097b1e4ef" target="_top" xlink:title="ui.elements.IOElement.get\lInputField">
<polygon fill="white" stroke="black" points="605,-318 605,-348 749,-348 749,-318 605,-318"/>
<text text-anchor="start" x="613" y="-336" font-family="Helvetica,sans-Serif" font-size="10.00">ui.elements.IOElement.get</text>
<text text-anchor="middle" x="677" y="-325" font-family="Helvetica,sans-Serif" font-size="10.00">InputField</text>
</a>
</g>
</g>
<!-- Node4&#45;&gt;Node5 -->
<g id="edge4" class="edge"><title>Node4&#45;&gt;Node5</title>
<path fill="none" stroke="midnightblue" d="M513.427,-293.564C539.224,-299.822 573.688,-308.182 604.243,-315.594"/>
<polygon fill="midnightblue" stroke="midnightblue" points="603.468,-319.007 614.011,-317.963 605.118,-312.204 603.468,-319.007"/>
</g>
<!-- Node6 -->
<g id="node6" class="node"><title>Node6</title>
<g id="a_node6"><a xlink:href="../../d0/de6/classui_1_1elements_1_1_menu_bar_element.html#a28a30430354b4041a06e38088c201802" target="_top" xlink:title="ui.elements.MenuBarElement.get\lSelectedLanguage">
<polygon fill="white" stroke="black" points="588.5,-269 588.5,-299 765.5,-299 765.5,-269 588.5,-269"/>
<text text-anchor="start" x="596.5" y="-287" font-family="Helvetica,sans-Serif" font-size="10.00">ui.elements.MenuBarElement.get</text>
<text text-anchor="middle" x="677" y="-276" font-family="Helvetica,sans-Serif" font-size="10.00">SelectedLanguage</text>
</a>
</g>
</g>
<!-- Node4&#45;&gt;Node6 -->
<g id="edge5" class="edge"><title>Node4&#45;&gt;Node6</title>
<path fill="none" stroke="midnightblue" d="M535.704,-284C549.185,-284 563.772,-284 578.269,-284"/>
<polygon fill="midnightblue" stroke="midnightblue" points="578.277,-287.5 588.277,-284 578.277,-280.5 578.277,-287.5"/>
</g>
<!-- Node7 -->
<g id="node7" class="node"><title>Node7</title>
<g id="a_node7"><a xlink:href="../../d5/d06/classui_1_1_scene_updater.html#ab77a04f8b0038429b09237aac18906e8" target="_top" xlink:title="ui.SceneUpdater.sendCommands">
<polygon fill="white" stroke="black" points="588,-230.5 588,-249.5 766,-249.5 766,-230.5 588,-230.5"/>
<text text-anchor="middle" x="677" y="-237.5" font-family="Helvetica,sans-Serif" font-size="10.00">ui.SceneUpdater.sendCommands</text>
</a>
</g>
</g>
<!-- Node4&#45;&gt;Node7 -->
<g id="edge6" class="edge"><title>Node4&#45;&gt;Node7</title>
<path fill="none" stroke="midnightblue" d="M517.3,-274.47C538.592,-269.792 564.638,-264.084 588,-259 598.874,-256.634 610.507,-254.114 621.636,-251.709"/>
<polygon fill="midnightblue" stroke="midnightblue" points="622.642,-255.072 631.677,-249.54 621.164,-248.23 622.642,-255.072"/>
</g>
<!-- Node8 -->
<g id="node8" class="node"><title>Node8</title>
<g id="a_node8"><a xlink:href="../../d9/df7/classcontroller_1_1_controller.html#a3d81fb1a57114f96fb6c319f4c5df370" target="_top" xlink:title="controller.Controller.parse\lCommand">
<polygon fill="white" stroke="black" points="802,-225 802,-255 942,-255 942,-225 802,-225"/>
<text text-anchor="start" x="810" y="-243" font-family="Helvetica,sans-Serif" font-size="10.00">controller.Controller.parse</text>
<text text-anchor="middle" x="872" y="-232" font-family="Helvetica,sans-Serif" font-size="10.00">Command</text>
</a>
</g>
</g>
<!-- Node7&#45;&gt;Node8 -->
<g id="edge7" class="edge"><title>Node7&#45;&gt;Node8</title>
<path fill="none" stroke="midnightblue" d="M766.028,-240C774.581,-240 783.222,-240 791.682,-240"/>
<polygon fill="midnightblue" stroke="midnightblue" points="791.892,-243.5 801.892,-240 791.892,-236.5 791.892,-243.5"/>
</g>
<!-- Node9 -->
<g id="node9" class="node"><title>Node9</title>
<g id="a_node9"><a xlink:href="../../d5/d06/classui_1_1_scene_updater.html#ac93c2b014447efef3a09141521fb4d9e" target="_top" xlink:title="ui.SceneUpdater.addCommand\lHistory">
<polygon fill="white" stroke="black" points="986.5,-570 986.5,-600 1153.5,-600 1153.5,-570 986.5,-570"/>
<text text-anchor="start" x="994.5" y="-588" font-family="Helvetica,sans-Serif" font-size="10.00">ui.SceneUpdater.addCommand</text>
<text text-anchor="middle" x="1070" y="-577" font-family="Helvetica,sans-Serif" font-size="10.00">History</text>
</a>
</g>
</g>
<!-- Node8&#45;&gt;Node9 -->
<g id="edge8" class="edge"><title>Node8&#45;&gt;Node9</title>
<path fill="none" stroke="midnightblue" d="M876.92,-255.106C888.05,-296.206 922.665,-412.493 978,-495 995.731,-521.438 1022.12,-546.471 1041.92,-563.392"/>
<polygon fill="midnightblue" stroke="midnightblue" points="1039.77,-566.163 1049.68,-569.906 1044.27,-560.799 1039.77,-566.163"/>
</g>
<!-- Node13 -->
<g id="node13" class="node"><title>Node13</title>
<g id="a_node13"><a xlink:href="../../d0/d05/classparser_1_1_tree_generator.html#acf44e3a80bec76756c2bb09124dc4c8d" target="_top" xlink:title="parser.TreeGenerator.create\lCommands">
<polygon fill="white" stroke="black" points="994.5,-456 994.5,-486 1145.5,-486 1145.5,-456 994.5,-456"/>
<text text-anchor="start" x="1002.5" y="-474" font-family="Helvetica,sans-Serif" font-size="10.00">parser.TreeGenerator.create</text>
<text text-anchor="middle" x="1070" y="-463" font-family="Helvetica,sans-Serif" font-size="10.00">Commands</text>
</a>
</g>
</g>
<!-- Node8&#45;&gt;Node13 -->
<g id="edge12" class="edge"><title>Node8&#45;&gt;Node13</title>
<path fill="none" stroke="midnightblue" d="M885.86,-255.157C919.363,-294.642 1009.49,-400.869 1049.46,-447.97"/>
<polygon fill="midnightblue" stroke="midnightblue" points="1046.95,-450.427 1056.09,-455.788 1052.29,-445.898 1046.95,-450.427"/>
</g>
<!-- Node26 -->
<g id="node26" class="node"><title>Node26</title>
<g id="a_node26"><a xlink:href="../../d0/d05/classparser_1_1_tree_generator.html#a6b0c994d90d372250a24f81f439de007" target="_top" xlink:title="parser.TreeGenerator.get\lMethodsList">
<polygon fill="white" stroke="black" points="1002,-250 1002,-280 1138,-280 1138,-250 1002,-250"/>
<text text-anchor="start" x="1010" y="-268" font-family="Helvetica,sans-Serif" font-size="10.00">parser.TreeGenerator.get</text>
<text text-anchor="middle" x="1070" y="-257" font-family="Helvetica,sans-Serif" font-size="10.00">MethodsList</text>
</a>
</g>
</g>
<!-- Node8&#45;&gt;Node26 -->
<g id="edge26" class="edge"><title>Node8&#45;&gt;Node26</title>
<path fill="none" stroke="midnightblue" d="M942.102,-248.814C958.166,-250.863 975.367,-253.057 991.757,-255.148"/>
<polygon fill="midnightblue" stroke="midnightblue" points="991.477,-258.64 1001.84,-256.434 992.363,-251.696 991.477,-258.64"/>
</g>
<!-- Node28 -->
<g id="node28" class="node"><title>Node28</title>
<g id="a_node28"><a xlink:href="../../dc/d9e/classparser_1_1_command_tree_node.html#aea6176c10780becfc79a23924bb6fdc2" target="_top" xlink:title="parser.CommandTreeNode.get\lValue">
<polygon fill="white" stroke="black" points="988,-201 988,-231 1152,-231 1152,-201 988,-201"/>
<text text-anchor="start" x="996" y="-219" font-family="Helvetica,sans-Serif" font-size="10.00">parser.CommandTreeNode.get</text>
<text text-anchor="middle" x="1070" y="-208" font-family="Helvetica,sans-Serif" font-size="10.00">Value</text>
</a>
</g>
</g>
<!-- Node8&#45;&gt;Node28 -->
<g id="edge28" class="edge"><title>Node8&#45;&gt;Node28</title>
<path fill="none" stroke="midnightblue" d="M942.102,-231.538C953.64,-230.126 965.765,-228.641 977.755,-227.173"/>
<polygon fill="midnightblue" stroke="midnightblue" points="978.278,-230.635 987.778,-225.946 977.427,-223.687 978.278,-230.635"/>
</g>
<!-- Node29 -->
<g id="node29" class="node"><title>Node29</title>
<g id="a_node29"><a xlink:href="../../d9/d88/classmodel_1_1_tree_interpreter.html#a501df6b8cfe1a8175a9da0ed96d30d6f" target="_top" xlink:title="model.TreeInterpreter.interpretTree">
<polygon fill="white" stroke="black" points="978.5,-162.5 978.5,-181.5 1161.5,-181.5 1161.5,-162.5 978.5,-162.5"/>
<text text-anchor="middle" x="1070" y="-169.5" font-family="Helvetica,sans-Serif" font-size="10.00">model.TreeInterpreter.interpretTree</text>
</a>
</g>
</g>
<!-- Node8&#45;&gt;Node29 -->
<g id="edge29" class="edge"><title>Node8&#45;&gt;Node29</title>
<path fill="none" stroke="midnightblue" d="M900.797,-224.869C921.554,-214.109 950.896,-200.019 978,-191 986.035,-188.326 994.599,-185.951 1003.14,-183.863"/>
<polygon fill="midnightblue" stroke="midnightblue" points="1004.17,-187.217 1013.12,-181.544 1002.58,-180.398 1004.17,-187.217"/>
</g>
<!-- Node39 -->
<g id="node39" class="node"><title>Node39</title>
<g id="a_node39"><a xlink:href="../../d5/d06/classui_1_1_scene_updater.html#ab8b88b95b646266ee4a8ef3d77e4c3e3" target="_top" xlink:title="ui.SceneUpdater.setOutputText">
<polygon fill="white" stroke="black" points="987,-77.5 987,-96.5 1153,-96.5 1153,-77.5 987,-77.5"/>
<text text-anchor="middle" x="1070" y="-84.5" font-family="Helvetica,sans-Serif" font-size="10.00">ui.SceneUpdater.setOutputText</text>
</a>
</g>
</g>
<!-- Node8&#45;&gt;Node39 -->
<g id="edge44" class="edge"><title>Node8&#45;&gt;Node39</title>
<path fill="none" stroke="midnightblue" d="M890.551,-224.868C911.175,-207.226 946.574,-177.375 978,-153 1001.06,-135.114 1028.23,-115.605 1046.84,-102.471"/>
<polygon fill="midnightblue" stroke="midnightblue" points="1049.06,-105.185 1055.23,-96.5706 1045.04,-99.4587 1049.06,-105.185"/>
</g>
<!-- Node10 -->
<g id="node10" class="node"><title>Node10</title>
<g id="a_node10"><a xlink:href="../../dc/d3b/classui_1_1_g_u_i.html#a3c16c78e8d953dbf8ef41113ca03621e" target="_top" xlink:title="ui.GUI.addCommandHistory">
<polygon fill="white" stroke="black" points="1223,-641.5 1223,-660.5 1373,-660.5 1373,-641.5 1223,-641.5"/>
<text text-anchor="middle" x="1298" y="-648.5" font-family="Helvetica,sans-Serif" font-size="10.00">ui.GUI.addCommandHistory</text>
</a>
</g>
</g>
<!-- Node9&#45;&gt;Node10 -->
<g id="edge9" class="edge"><title>Node9&#45;&gt;Node10</title>
<path fill="none" stroke="midnightblue" d="M1122.57,-600.059C1162.34,-611.674 1216.7,-627.55 1254.11,-638.475"/>
<polygon fill="midnightblue" stroke="midnightblue" points="1253.61,-641.974 1264.19,-641.418 1255.57,-635.255 1253.61,-641.974"/>
</g>
<!-- Node11 -->
<g id="node11" class="node"><title>Node11</title>
<g id="a_node11"><a xlink:href="../../d6/dd8/classui_1_1elements_1_1_info_element.html#aa14d00daf19b5c3d7cd792c2590f23b3" target="_top" xlink:title="ui.elements.InfoElement.set\lBindCommandList">
<polygon fill="white" stroke="black" points="1452.5,-691 1452.5,-721 1603.5,-721 1603.5,-691 1452.5,-691"/>
<text text-anchor="start" x="1460.5" y="-709" font-family="Helvetica,sans-Serif" font-size="10.00">ui.elements.InfoElement.set</text>
<text text-anchor="middle" x="1528" y="-698" font-family="Helvetica,sans-Serif" font-size="10.00">BindCommandList</text>
</a>
</g>
</g>
<!-- Node10&#45;&gt;Node11 -->
<g id="edge10" class="edge"><title>Node10&#45;&gt;Node11</title>
<path fill="none" stroke="midnightblue" d="M1338.45,-660.517C1370.28,-668.194 1415.9,-679.2 1454.3,-688.463"/>
<polygon fill="midnightblue" stroke="midnightblue" points="1453.86,-691.958 1464.41,-690.901 1455.51,-685.153 1453.86,-691.958"/>
</g>
<!-- Node12 -->
<g id="node12" class="node"><title>Node12</title>
<g id="a_node12"><a xlink:href="../../d6/dd8/classui_1_1elements_1_1_info_element.html#a54dbeca14ae734678154142637d3c4ab" target="_top" xlink:title="ui.elements.InfoElement.update">
<polygon fill="white" stroke="black" points="1670,-696.5 1670,-715.5 1840,-715.5 1840,-696.5 1670,-696.5"/>
<text text-anchor="middle" x="1755" y="-703.5" font-family="Helvetica,sans-Serif" font-size="10.00">ui.elements.InfoElement.update</text>
</a>
</g>
</g>
<!-- Node11&#45;&gt;Node12 -->
<g id="edge11" class="edge"><title>Node11&#45;&gt;Node12</title>
<path fill="none" stroke="midnightblue" d="M1603.61,-706C1621.61,-706 1641.07,-706 1659.84,-706"/>
<polygon fill="midnightblue" stroke="midnightblue" points="1659.88,-709.5 1669.88,-706 1659.88,-702.5 1659.88,-709.5"/>
</g>
<!-- Node14 -->
<g id="node14" class="node"><title>Node14</title>
<g id="a_node14"><a xlink:href="../../d0/d05/classparser_1_1_tree_generator.html#a6c5a626cea851fb68c59f83a27ab56a5" target="_top" xlink:title="parser.TreeGenerator.create\lHandlerMap">
<polygon fill="white" stroke="black" points="1222.5,-500 1222.5,-530 1373.5,-530 1373.5,-500 1222.5,-500"/>
<text text-anchor="start" x="1230.5" y="-518" font-family="Helvetica,sans-Serif" font-size="10.00">parser.TreeGenerator.create</text>
<text text-anchor="middle" x="1298" y="-507" font-family="Helvetica,sans-Serif" font-size="10.00">HandlerMap</text>
</a>
</g>
</g>
<!-- Node13&#45;&gt;Node14 -->
<g id="edge13" class="edge"><title>Node13&#45;&gt;Node14</title>
<path fill="none" stroke="midnightblue" d="M1145.63,-485.529C1167.03,-489.697 1190.53,-494.271 1212.48,-498.546"/>
<polygon fill="midnightblue" stroke="midnightblue" points="1211.97,-502.01 1222.45,-500.486 1213.3,-495.139 1211.97,-502.01"/>
</g>
<!-- Node16 -->
<g id="node16" class="node"><title>Node16</title>
<g id="a_node16"><a xlink:href="../../dc/d9e/classparser_1_1_command_tree_node.html#a73e4ab6ebca47d41b993f0e66ee4c8d2" target="_top" xlink:title="parser.CommandTreeNode.getName">
<polygon fill="white" stroke="black" points="1658.5,-295.5 1658.5,-314.5 1851.5,-314.5 1851.5,-295.5 1658.5,-295.5"/>
<text text-anchor="middle" x="1755" y="-302.5" font-family="Helvetica,sans-Serif" font-size="10.00">parser.CommandTreeNode.getName</text>
</a>
</g>
</g>
<!-- Node13&#45;&gt;Node16 -->
<g id="edge15" class="edge"><title>Node13&#45;&gt;Node16</title>
<path fill="none" stroke="midnightblue" d="M1098.15,-455.812C1157.1,-423.724 1302.13,-349.562 1434,-320 1504.17,-304.27 1585.09,-300.603 1648,-300.827"/>
<polygon fill="midnightblue" stroke="midnightblue" points="1648.31,-304.329 1658.34,-300.899 1648.36,-297.329 1648.31,-304.329"/>
</g>
<!-- Node17 -->
<g id="node17" class="node"><title>Node17</title>
<g id="a_node17"><a xlink:href="../../d5/d30/classparser_1_1_command_case.html#a416a33e71d0a91f9d167980ff9779119" target="_top" xlink:title="parser.CommandCase.getRoot">
<polygon fill="white" stroke="black" points="1216,-549.5 1216,-568.5 1380,-568.5 1380,-549.5 1216,-549.5"/>
<text text-anchor="middle" x="1298" y="-556.5" font-family="Helvetica,sans-Serif" font-size="10.00">parser.CommandCase.getRoot</text>
</a>
</g>
</g>
<!-- Node13&#45;&gt;Node17 -->
<g id="edge16" class="edge"><title>Node13&#45;&gt;Node17</title>
<path fill="none" stroke="midnightblue" d="M1094.37,-486.222C1119.15,-501.693 1159.88,-525.28 1198,-539 1206.82,-542.173 1216.27,-544.893 1225.7,-547.21"/>
<polygon fill="midnightblue" stroke="midnightblue" points="1224.97,-550.633 1235.5,-549.482 1226.55,-543.814 1224.97,-550.633"/>
</g>
<!-- Node18 -->
<g id="node18" class="node"><title>Node18</title>
<g id="a_node18"><a xlink:href="../../d5/d30/classparser_1_1_command_case.html#a309ba0623929f8d96219c98de00023b0" target="_top" xlink:title="parser.CommandCase.initialize">
<polygon fill="white" stroke="black" points="1215.5,-461.5 1215.5,-480.5 1380.5,-480.5 1380.5,-461.5 1215.5,-461.5"/>
<text text-anchor="middle" x="1298" y="-468.5" font-family="Helvetica,sans-Serif" font-size="10.00">parser.CommandCase.initialize</text>
</a>
</g>
</g>
<!-- Node13&#45;&gt;Node18 -->
<g id="edge17" class="edge"><title>Node13&#45;&gt;Node18</title>
<path fill="none" stroke="midnightblue" d="M1145.63,-471C1164.68,-471 1185.38,-471 1205.18,-471"/>
<polygon fill="midnightblue" stroke="midnightblue" points="1205.44,-474.5 1215.44,-471 1205.44,-467.5 1205.44,-474.5"/>
</g>
<!-- Node15 -->
<g id="node15" class="node"><title>Node15</title>
<g id="a_node15"><a xlink:href="../../d0/d22/classutil_1_1_pattern_mapper.html#a257efa051dc3d89b728922a22901fb7d" target="_top" xlink:title="util.PatternMapper.makePatterns">
<polygon fill="white" stroke="black" points="1441.5,-652.5 1441.5,-671.5 1614.5,-671.5 1614.5,-652.5 1441.5,-652.5"/>
<text text-anchor="middle" x="1528" y="-659.5" font-family="Helvetica,sans-Serif" font-size="10.00">util.PatternMapper.makePatterns</text>
</a>
</g>
</g>
<!-- Node14&#45;&gt;Node15 -->
<g id="edge14" class="edge"><title>Node14&#45;&gt;Node15</title>
<path fill="none" stroke="midnightblue" d="M1373.93,-525.286C1382.75,-528.888 1391.06,-533.669 1398,-540 1433.52,-572.395 1397.91,-610.241 1434,-642 1436.34,-644.061 1438.84,-645.927 1441.47,-647.615"/>
<polygon fill="midnightblue" stroke="midnightblue" points="1439.79,-650.684 1450.24,-652.423 1443.15,-644.546 1439.79,-650.684"/>
</g>
<!-- Node18&#45;&gt;Node15 -->
<g id="edge20" class="edge"><title>Node18&#45;&gt;Node15</title>
<path fill="none" stroke="midnightblue" d="M1380.73,-479.281C1387.07,-482.289 1392.96,-486.127 1398,-491 1447.62,-538.931 1384.68,-593.76 1434,-642 1435.73,-643.689 1437.56,-645.25 1439.48,-646.692"/>
<polygon fill="midnightblue" stroke="midnightblue" points="1438.08,-649.947 1448.42,-652.286 1441.8,-644.013 1438.08,-649.947"/>
</g>
<!-- Node19 -->
<g id="node19" class="node"><title>Node19</title>
<g id="a_node19"><a xlink:href="../../d9/dc0/interfaceparser_1_1_tree_wrapper.html#abf33b5a3ce13b389b9f69be49b18b998" target="_top" xlink:title="parser.TreeWrapper.getIndex">
<polygon fill="white" stroke="black" points="1452,-329.5 1452,-348.5 1604,-348.5 1604,-329.5 1452,-329.5"/>
<text text-anchor="middle" x="1528" y="-336.5" font-family="Helvetica,sans-Serif" font-size="10.00">parser.TreeWrapper.getIndex</text>
</a>
</g>
</g>
<!-- Node18&#45;&gt;Node19 -->
<g id="edge18" class="edge"><title>Node18&#45;&gt;Node19</title>
<path fill="none" stroke="midnightblue" d="M1307.35,-461.288C1327,-439.125 1378.66,-384.679 1434,-358 1439.01,-355.585 1444.32,-353.476 1449.75,-351.635"/>
<polygon fill="midnightblue" stroke="midnightblue" points="1451.11,-354.88 1459.64,-348.602 1449.05,-348.188 1451.11,-354.88"/>
</g>
<!-- Node20 -->
<g id="node20" class="node"><title>Node20</title>
<g id="a_node20"><a xlink:href="../../d9/dc0/interfaceparser_1_1_tree_wrapper.html#a251d9d9bb7c3ea34688bfa30cc465270" target="_top" xlink:title="parser.TreeWrapper.increment\lIndex">
<polygon fill="white" stroke="black" points="1448.5,-603 1448.5,-633 1607.5,-633 1607.5,-603 1448.5,-603"/>
<text text-anchor="start" x="1456.5" y="-621" font-family="Helvetica,sans-Serif" font-size="10.00">parser.TreeWrapper.increment</text>
<text text-anchor="middle" x="1528" y="-610" font-family="Helvetica,sans-Serif" font-size="10.00">Index</text>
</a>
</g>
</g>
<!-- Node18&#45;&gt;Node20 -->
<g id="edge19" class="edge"><title>Node18&#45;&gt;Node20</title>
<path fill="none" stroke="midnightblue" d="M1380.68,-480.08C1386.95,-482.931 1392.84,-486.514 1398,-491 1434.29,-522.533 1398.73,-560.335 1434,-593 1435.74,-594.615 1437.58,-596.128 1439.5,-597.545"/>
<polygon fill="midnightblue" stroke="midnightblue" points="1438.02,-600.755 1448.34,-603.164 1441.78,-594.847 1438.02,-600.755"/>
</g>
<!-- Node21 -->
<g id="node21" class="node"><title>Node21</title>
<g id="a_node21"><a xlink:href="../../d5/d30/classparser_1_1_command_case.html#a7c49338f11e46369db6a009f6a07a837" target="_top" xlink:title="parser.CommandCase.obtain\lNumParams">
<polygon fill="white" stroke="black" points="1449.5,-554 1449.5,-584 1606.5,-584 1606.5,-554 1449.5,-554"/>
<text text-anchor="start" x="1457.5" y="-572" font-family="Helvetica,sans-Serif" font-size="10.00">parser.CommandCase.obtain</text>
<text text-anchor="middle" x="1528" y="-561" font-family="Helvetica,sans-Serif" font-size="10.00">NumParams</text>
</a>
</g>
</g>
<!-- Node18&#45;&gt;Node21 -->
<g id="edge21" class="edge"><title>Node18&#45;&gt;Node21</title>
<path fill="none" stroke="midnightblue" d="M1376.76,-480.551C1384.27,-483.257 1391.5,-486.68 1398,-491 1421.71,-506.765 1410.8,-527.492 1434,-544 1436.72,-545.938 1439.59,-547.727 1442.56,-549.376"/>
<polygon fill="midnightblue" stroke="midnightblue" points="1441.23,-552.62 1451.74,-553.92 1444.33,-546.347 1441.23,-552.62"/>
</g>
<!-- Node22 -->
<g id="node22" class="node"><title>Node22</title>
<g id="a_node22"><a xlink:href="../../d5/d30/classparser_1_1_command_case.html#a37b719ff1e44b8c2539ec8a3d3dec65e" target="_top" xlink:title="parser.CommandCase.obtain\lSubCommand">
<polygon fill="white" stroke="black" points="1449.5,-505 1449.5,-535 1606.5,-535 1606.5,-505 1449.5,-505"/>
<text text-anchor="start" x="1457.5" y="-523" font-family="Helvetica,sans-Serif" font-size="10.00">parser.CommandCase.obtain</text>
<text text-anchor="middle" x="1528" y="-512" font-family="Helvetica,sans-Serif" font-size="10.00">SubCommand</text>
</a>
</g>
</g>
<!-- Node18&#45;&gt;Node22 -->
<g id="edge22" class="edge"><title>Node18&#45;&gt;Node22</title>
<path fill="none" stroke="midnightblue" d="M1347.13,-480.505C1363.31,-483.758 1381.45,-487.469 1398,-491 1415.26,-494.684 1433.8,-498.772 1451.28,-502.688"/>
<polygon fill="midnightblue" stroke="midnightblue" points="1450.91,-506.192 1461.44,-504.97 1452.45,-499.363 1450.91,-506.192"/>
</g>
<!-- Node23 -->
<g id="node23" class="node"><title>Node23</title>
<g id="a_node23"><a xlink:href="../../d9/dc0/interfaceparser_1_1_tree_wrapper.html#a593548eb4ae82f686022f08f45908a1d" target="_top" xlink:title="parser.TreeWrapper.print\lTestStatements">
<polygon fill="white" stroke="black" points="1462,-456 1462,-486 1594,-486 1594,-456 1462,-456"/>
<text text-anchor="start" x="1470" y="-474" font-family="Helvetica,sans-Serif" font-size="10.00">parser.TreeWrapper.print</text>
<text text-anchor="middle" x="1528" y="-463" font-family="Helvetica,sans-Serif" font-size="10.00">TestStatements</text>
</a>
</g>
</g>
<!-- Node18&#45;&gt;Node23 -->
<g id="edge23" class="edge"><title>Node18&#45;&gt;Node23</title>
<path fill="none" stroke="midnightblue" d="M1380.67,-471C1403.83,-471 1428.93,-471 1451.69,-471"/>
<polygon fill="midnightblue" stroke="midnightblue" points="1451.97,-474.5 1461.97,-471 1451.97,-467.5 1451.97,-474.5"/>
</g>
<!-- Node24 -->
<g id="node24" class="node"><title>Node24</title>
<g id="a_node24"><a xlink:href="../../d9/dc0/interfaceparser_1_1_tree_wrapper.html#a48f9f037c84b1fecfdefcb3268640f88" target="_top" xlink:title="parser.TreeWrapper.recurse">
<polygon fill="white" stroke="black" points="1455,-417.5 1455,-436.5 1601,-436.5 1601,-417.5 1455,-417.5"/>
<text text-anchor="middle" x="1528" y="-424.5" font-family="Helvetica,sans-Serif" font-size="10.00">parser.TreeWrapper.recurse</text>
</a>
</g>
</g>
<!-- Node18&#45;&gt;Node24 -->
<g id="edge24" class="edge"><title>Node18&#45;&gt;Node24</title>
<path fill="none" stroke="midnightblue" d="M1348.47,-461.453C1383.43,-454.707 1430.46,-445.631 1467.47,-438.489"/>
<polygon fill="midnightblue" stroke="midnightblue" points="1468.47,-441.86 1477.62,-436.529 1467.14,-434.987 1468.47,-441.86"/>
</g>
<!-- Node25 -->
<g id="node25" class="node"><title>Node25</title>
<g id="a_node25"><a xlink:href="../../d5/d30/classparser_1_1_command_case.html#a9afa1f06d36261ade7169970904fabee" target="_top" xlink:title="parser.CommandCase.useResource\lBundle">
<polygon fill="white" stroke="black" points="1434,-368 1434,-398 1622,-398 1622,-368 1434,-368"/>
<text text-anchor="start" x="1442" y="-386" font-family="Helvetica,sans-Serif" font-size="10.00">parser.CommandCase.useResource</text>
<text text-anchor="middle" x="1528" y="-375" font-family="Helvetica,sans-Serif" font-size="10.00">Bundle</text>
</a>
</g>
</g>
<!-- Node18&#45;&gt;Node25 -->
<g id="edge25" class="edge"><title>Node18&#45;&gt;Node25</title>
<path fill="none" stroke="midnightblue" d="M1316.91,-461.41C1342.38,-448.068 1390.75,-423.77 1434,-408 1440.8,-405.52 1447.97,-403.163 1455.17,-400.959"/>
<polygon fill="midnightblue" stroke="midnightblue" points="1456.4,-404.245 1465,-398.051 1454.42,-397.533 1456.4,-404.245"/>
</g>
<!-- Node27 -->
<g id="node27" class="node"><title>Node27</title>
<g id="a_node27"><a xlink:href="../../d5/d30/classparser_1_1_command_case.html#a0a36df1183543407fec197f435a5ba2c" target="_top" xlink:title="parser.CommandCase.getMethodsList">
<polygon fill="white" stroke="black" points="1198,-253.5 1198,-272.5 1398,-272.5 1398,-253.5 1198,-253.5"/>
<text text-anchor="middle" x="1298" y="-260.5" font-family="Helvetica,sans-Serif" font-size="10.00">parser.CommandCase.getMethodsList</text>
</a>
</g>
</g>
<!-- Node26&#45;&gt;Node27 -->
<g id="edge27" class="edge"><title>Node26&#45;&gt;Node27</title>
<path fill="none" stroke="midnightblue" d="M1138.2,-264.405C1153.71,-264.268 1170.61,-264.118 1187.42,-263.97"/>
<polygon fill="midnightblue" stroke="midnightblue" points="1187.88,-267.466 1197.85,-263.877 1187.82,-260.466 1187.88,-267.466"/>
</g>
<!-- Node30 -->
<g id="node30" class="node"><title>Node30</title>
<g id="a_node30"><a xlink:href="../../dc/d9e/classparser_1_1_command_tree_node.html#a2700486f6a49c0a080114bee6e51f271" target="_top" xlink:title="parser.CommandTreeNode.get\lChildren">
<polygon fill="white" stroke="black" points="1216,-201 1216,-231 1380,-231 1380,-201 1216,-201"/>
<text text-anchor="start" x="1224" y="-219" font-family="Helvetica,sans-Serif" font-size="10.00">parser.CommandTreeNode.get</text>
<text text-anchor="middle" x="1298" y="-208" font-family="Helvetica,sans-Serif" font-size="10.00">Children</text>
</a>
</g>
</g>
<!-- Node29&#45;&gt;Node30 -->
<g id="edge30" class="edge"><title>Node29&#45;&gt;Node30</title>
<path fill="none" stroke="midnightblue" d="M1120.04,-181.547C1146.17,-186.634 1179.09,-193.045 1209.44,-198.953"/>
<polygon fill="midnightblue" stroke="midnightblue" points="1209.13,-202.459 1219.62,-200.935 1210.47,-195.588 1209.13,-202.459"/>
</g>
<!-- Node31 -->
<g id="node31" class="node"><title>Node31</title>
<g id="a_node31"><a xlink:href="../../dc/d9e/classparser_1_1_command_tree_node.html#a8bb8a112395f78809b0be06f1c3f5282" target="_top" xlink:title="parser.CommandTreeNode.getType">
<polygon fill="white" stroke="black" points="1662.5,-109.5 1662.5,-128.5 1847.5,-128.5 1847.5,-109.5 1662.5,-109.5"/>
<text text-anchor="middle" x="1755" y="-116.5" font-family="Helvetica,sans-Serif" font-size="10.00">parser.CommandTreeNode.getType</text>
</a>
</g>
</g>
<!-- Node29&#45;&gt;Node31 -->
<g id="edge31" class="edge"><title>Node29&#45;&gt;Node31</title>
<path fill="none" stroke="midnightblue" d="M1130.03,-162.472C1151.41,-159.206 1175.76,-155.698 1198,-153 1302.58,-140.313 1328.88,-137.865 1434,-131 1506.78,-126.247 1589.01,-123.214 1651.89,-121.386"/>
<polygon fill="midnightblue" stroke="midnightblue" points="1652.31,-124.876 1662.2,-121.092 1652.11,-117.878 1652.31,-124.876"/>
</g>
<!-- Node32 -->
<g id="node32" class="node"><title>Node32</title>
<g id="a_node32"><a xlink:href="../../d9/d88/classmodel_1_1_tree_interpreter.html#a3e460e5ebe66f781afb480f0f0ec2ce7" target="_top" xlink:title="model.TreeInterpreter.update">
<polygon fill="white" stroke="black" points="1220,-162.5 1220,-181.5 1376,-181.5 1376,-162.5 1220,-162.5"/>
<text text-anchor="middle" x="1298" y="-169.5" font-family="Helvetica,sans-Serif" font-size="10.00">model.TreeInterpreter.update</text>
</a>
</g>
</g>
<!-- Node29&#45;&gt;Node32 -->
<g id="edge32" class="edge"><title>Node29&#45;&gt;Node32</title>
<path fill="none" stroke="midnightblue" d="M1161.62,-172C1177.44,-172 1193.86,-172 1209.59,-172"/>
<polygon fill="midnightblue" stroke="midnightblue" points="1209.81,-175.5 1219.81,-172 1209.81,-168.5 1209.81,-175.5"/>
</g>
<!-- Node32&#45;&gt;Node16 -->
<g id="edge41" class="edge"><title>Node32&#45;&gt;Node16</title>
<path fill="none" stroke="midnightblue" d="M1376.12,-180.721C1383.83,-183.353 1391.29,-186.715 1398,-191 1421.08,-205.735 1410.98,-226.175 1434,-241 1454.84,-254.42 1596.73,-279.401 1684.43,-293.865"/>
<polygon fill="midnightblue" stroke="midnightblue" points="1683.88,-297.322 1694.32,-295.489 1685.02,-290.414 1683.88,-297.322"/>
</g>
<!-- Node32&#45;&gt;Node31 -->
<g id="edge42" class="edge"><title>Node32&#45;&gt;Node31</title>
<path fill="none" stroke="midnightblue" d="M1376.18,-163.009C1455.25,-153.8 1578.14,-139.484 1662.16,-129.698"/>
<polygon fill="midnightblue" stroke="midnightblue" points="1662.68,-133.161 1672.21,-128.528 1661.87,-126.208 1662.68,-133.161"/>
</g>
<!-- Node33 -->
<g id="node33" class="node"><title>Node33</title>
<g id="a_node33"><a xlink:href="../../d9/d88/classmodel_1_1_tree_interpreter.html#af4d24e7867eb3a4a53f79f4a9288f9fd" target="_top" xlink:title="model.TreeInterpreter.execute\lCommand">
<polygon fill="white" stroke="black" points="1447.5,-202 1447.5,-232 1608.5,-232 1608.5,-202 1447.5,-202"/>
<text text-anchor="start" x="1455.5" y="-220" font-family="Helvetica,sans-Serif" font-size="10.00">model.TreeInterpreter.execute</text>
<text text-anchor="middle" x="1528" y="-209" font-family="Helvetica,sans-Serif" font-size="10.00">Command</text>
</a>
</g>
</g>
<!-- Node32&#45;&gt;Node33 -->
<g id="edge33" class="edge"><title>Node32&#45;&gt;Node33</title>
<path fill="none" stroke="midnightblue" d="M1349.13,-181.527C1364.79,-184.528 1382.12,-187.875 1398,-191 1412.48,-193.849 1427.87,-196.915 1442.78,-199.908"/>
<polygon fill="midnightblue" stroke="midnightblue" points="1442.52,-203.425 1453.01,-201.965 1443.89,-196.562 1442.52,-203.425"/>
</g>
<!-- Node36 -->
<g id="node36" class="node"><title>Node36</title>
<g id="a_node36"><a xlink:href="../../dc/d9e/classparser_1_1_command_tree_node.html#a3d691b68da13689c03ebd9de665c379c" target="_top" xlink:title="parser.CommandTreeNode.set\lValue">
<polygon fill="white" stroke="black" points="1673.5,-148 1673.5,-178 1836.5,-178 1836.5,-148 1673.5,-148"/>
<text text-anchor="start" x="1681.5" y="-166" font-family="Helvetica,sans-Serif" font-size="10.00">parser.CommandTreeNode.set</text>
<text text-anchor="middle" x="1755" y="-155" font-family="Helvetica,sans-Serif" font-size="10.00">Value</text>
</a>
</g>
</g>
<!-- Node32&#45;&gt;Node36 -->
<g id="edge43" class="edge"><title>Node32&#45;&gt;Node36</title>
<path fill="none" stroke="midnightblue" d="M1376.18,-170.473C1455.61,-168.902 1579.28,-166.456 1663.32,-164.794"/>
<polygon fill="midnightblue" stroke="midnightblue" points="1663.44,-168.292 1673.37,-164.595 1663.3,-161.293 1663.44,-168.292"/>
</g>
<!-- Node37 -->
<g id="node37" class="node"><title>Node37</title>
<g id="a_node37"><a xlink:href="../../db/d55/classmodel_1_1_variable_list.html#a09697cca38c12cf837ee40e71d02f78b" target="_top" xlink:title="model.VariableList.get">
<polygon fill="white" stroke="black" points="1466.5,-49.5 1466.5,-68.5 1589.5,-68.5 1589.5,-49.5 1466.5,-49.5"/>
<text text-anchor="middle" x="1528" y="-56.5" font-family="Helvetica,sans-Serif" font-size="10.00">model.VariableList.get</text>
</a>
</g>
</g>
<!-- Node32&#45;&gt;Node37 -->
<g id="edge39" class="edge"><title>Node32&#45;&gt;Node37</title>
<path fill="none" stroke="midnightblue" d="M1318.44,-162.366C1358.74,-142.393 1451.54,-96.3972 1498.57,-73.0884"/>
<polygon fill="midnightblue" stroke="midnightblue" points="1500.2,-76.1866 1507.61,-68.6099 1497.1,-69.9147 1500.2,-76.1866"/>
</g>
<!-- Node33&#45;&gt;Node16 -->
<g id="edge36" class="edge"><title>Node33&#45;&gt;Node16</title>
<path fill="none" stroke="midnightblue" d="M1588.47,-232.106C1600.05,-236.332 1611.76,-241.577 1622,-248 1641.43,-260.196 1637.89,-273.955 1658,-285 1663.11,-287.809 1668.58,-290.224 1674.21,-292.301"/>
<polygon fill="midnightblue" stroke="midnightblue" points="1673.22,-295.659 1683.81,-295.486 1675.42,-289.015 1673.22,-295.659"/>
</g>
<!-- Node33&#45;&gt;Node31 -->
<g id="edge37" class="edge"><title>Node33&#45;&gt;Node31</title>
<path fill="none" stroke="midnightblue" d="M1548.81,-201.744C1573.17,-183.753 1616.42,-154.246 1658,-138 1664.8,-135.343 1672.02,-133.043 1679.33,-131.055"/>
<polygon fill="midnightblue" stroke="midnightblue" points="1680.49,-134.374 1689.32,-128.533 1678.77,-127.587 1680.49,-134.374"/>
</g>
<!-- Node34 -->
<g id="node34" class="node"><title>Node34</title>
<g id="a_node34"><a xlink:href="../../db/d10/classmodel_1_1_command_factory.html#a3982ff8b4387b7e50c9ec4350ee01733" target="_top" xlink:title="model.CommandFactory.create\lCommand">
<polygon fill="white" stroke="black" points="1671.5,-246 1671.5,-276 1838.5,-276 1838.5,-246 1671.5,-246"/>
<text text-anchor="start" x="1679.5" y="-264" font-family="Helvetica,sans-Serif" font-size="10.00">model.CommandFactory.create</text>
<text text-anchor="middle" x="1755" y="-253" font-family="Helvetica,sans-Serif" font-size="10.00">Command</text>
</a>
</g>
</g>
<!-- Node33&#45;&gt;Node34 -->
<g id="edge34" class="edge"><title>Node33&#45;&gt;Node34</title>
<path fill="none" stroke="midnightblue" d="M1605.8,-232.019C1625.61,-235.892 1647.05,-240.086 1667.32,-244.049"/>
<polygon fill="midnightblue" stroke="midnightblue" points="1666.68,-247.489 1677.16,-245.974 1668.02,-240.62 1666.68,-247.489"/>
</g>
<!-- Node35 -->
<g id="node35" class="node"><title>Node35</title>
<g id="a_node35"><a xlink:href="../../d9/d88/classmodel_1_1_tree_interpreter.html#adc0cf2c5819ec7f42db4e37db51b1893" target="_top" xlink:title="model.TreeInterpreter.get\lConstructors">
<polygon fill="white" stroke="black" points="1686,-197 1686,-227 1824,-227 1824,-197 1686,-197"/>
<text text-anchor="start" x="1694" y="-215" font-family="Helvetica,sans-Serif" font-size="10.00">model.TreeInterpreter.get</text>
<text text-anchor="middle" x="1755" y="-204" font-family="Helvetica,sans-Serif" font-size="10.00">Constructors</text>
</a>
</g>
</g>
<!-- Node33&#45;&gt;Node35 -->
<g id="edge35" class="edge"><title>Node33&#45;&gt;Node35</title>
<path fill="none" stroke="midnightblue" d="M1608.64,-215.23C1630.36,-214.748 1653.87,-214.225 1675.52,-213.744"/>
<polygon fill="midnightblue" stroke="midnightblue" points="1675.73,-217.24 1685.65,-213.519 1675.58,-210.242 1675.73,-217.24"/>
</g>
<!-- Node33&#45;&gt;Node36 -->
<g id="edge38" class="edge"><title>Node33&#45;&gt;Node36</title>
<path fill="none" stroke="midnightblue" d="M1591.68,-201.958C1619.47,-195.286 1652.36,-187.393 1681.24,-180.463"/>
<polygon fill="midnightblue" stroke="midnightblue" points="1682.36,-183.792 1691.27,-178.055 1680.73,-176.985 1682.36,-183.792"/>
</g>
<!-- Node38 -->
<g id="node38" class="node"><title>Node38</title>
<g id="a_node38"><a xlink:href="../../db/d55/classmodel_1_1_variable_list.html#a0adb554303c7191db1da43ddb5fa2c45" target="_top" xlink:title="model.VariableList.add">
<polygon fill="white" stroke="black" points="1692.5,-49.5 1692.5,-68.5 1817.5,-68.5 1817.5,-49.5 1692.5,-49.5"/>
<text text-anchor="middle" x="1755" y="-56.5" font-family="Helvetica,sans-Serif" font-size="10.00">model.VariableList.add</text>
</a>
</g>
</g>
<!-- Node37&#45;&gt;Node38 -->
<g id="edge40" class="edge"><title>Node37&#45;&gt;Node38</title>
<path fill="none" stroke="midnightblue" d="M1589.59,-59C1618,-59 1652.07,-59 1681.8,-59"/>
<polygon fill="midnightblue" stroke="midnightblue" points="1682.12,-62.5001 1692.12,-59 1682.12,-55.5001 1682.12,-62.5001"/>
</g>
<!-- Node40 -->
<g id="node40" class="node"><title>Node40</title>
<g id="a_node40"><a xlink:href="../../dc/d3b/classui_1_1_g_u_i.html#a203fbe4e50ca1066c5c0ea8cc182adc4" target="_top" xlink:title="ui.GUI.setOutputText">
<polygon fill="white" stroke="black" points="1240.5,-27.5 1240.5,-46.5 1355.5,-46.5 1355.5,-27.5 1240.5,-27.5"/>
<text text-anchor="middle" x="1298" y="-34.5" font-family="Helvetica,sans-Serif" font-size="10.00">ui.GUI.setOutputText</text>
</a>
</g>
</g>
<!-- Node39&#45;&gt;Node40 -->
<g id="edge45" class="edge"><title>Node39&#45;&gt;Node40</title>
<path fill="none" stroke="midnightblue" d="M1114.04,-77.4777C1150.92,-69.3193 1204.18,-57.5354 1243.74,-48.784"/>
<polygon fill="midnightblue" stroke="midnightblue" points="1244.73,-52.1495 1253.74,-46.5719 1243.22,-45.3147 1244.73,-52.1495"/>
</g>
<!-- Node41 -->
<g id="node41" class="node"><title>Node41</title>
<g id="a_node41"><a xlink:href="../../d8/d3c/classui_1_1elements_1_1_i_o_element.html#a39ffe51bb8b4ef8ad25dd48e65c92ac6" target="_top" xlink:title="ui.elements.IOElement.get\lOutputField">
<polygon fill="white" stroke="black" points="1456,-0 1456,-30 1600,-30 1600,-0 1456,-0"/>
<text text-anchor="start" x="1464" y="-18" font-family="Helvetica,sans-Serif" font-size="10.00">ui.elements.IOElement.get</text>
<text text-anchor="middle" x="1528" y="-7" font-family="Helvetica,sans-Serif" font-size="10.00">OutputField</text>
</a>
</g>
</g>
<!-- Node40&#45;&gt;Node41 -->
<g id="edge46" class="edge"><title>Node40&#45;&gt;Node41</title>
<path fill="none" stroke="midnightblue" d="M1355.65,-31.5335C1382.91,-28.9039 1416.07,-25.7037 1445.94,-22.8219"/>
<polygon fill="midnightblue" stroke="midnightblue" points="1446.31,-26.3025 1455.93,-21.8581 1445.64,-19.3348 1446.31,-26.3025"/>
</g>
</g>
</svg>
