<?xml version="1.0" encoding="UTF-8" standalone="no"?>
<!DOCTYPE svg PUBLIC "-//W3C//DTD SVG 1.1//EN"
 "http://www.w3.org/Graphics/SVG/1.1/DTD/svg11.dtd">
<!-- Generated by graphviz version 2.36.0 (20140111.2315)
 -->
<!-- Title: command.control.AskCommand.calculateValue Pages: 1 -->
<svg width="1074pt" height="299pt"
 viewBox="0.00 0.00 1074.00 299.00" xmlns="http://www.w3.org/2000/svg" xmlns:xlink="http://www.w3.org/1999/xlink">
<g id="graph0" class="graph" transform="scale(1 1) rotate(0) translate(4 295)">
<title>command.control.AskCommand.calculateValue</title>
<polygon fill="white" stroke="none" points="-4,4 -4,-295 1070,-295 1070,4 -4,4"/>
<!-- Node1 -->
<g id="node1" class="node"><title>Node1</title>
<polygon fill="#bfbfbf" stroke="black" points="0,-195 0,-225 218,-225 218,-195 0,-195"/>
<text text-anchor="start" x="8" y="-213" font-family="Helvetica,sans-Serif" font-size="10.00">command.control.AskCommand.calculate</text>
<text text-anchor="middle" x="109" y="-202" font-family="Helvetica,sans-Serif" font-size="10.00">Value</text>
</g>
<!-- Node2 -->
<g id="node2" class="node"><title>Node2</title>
<g id="a_node2"><a xlink:href="../../d9/d88/classmodel_1_1_tree_interpreter.html#a501df6b8cfe1a8175a9da0ed96d30d6f" target="_top" xlink:title="model.TreeInterpreter.interpretTree">
<polygon fill="white" stroke="black" points="254.5,-222.5 254.5,-241.5 437.5,-241.5 437.5,-222.5 254.5,-222.5"/>
<text text-anchor="middle" x="346" y="-229.5" font-family="Helvetica,sans-Serif" font-size="10.00">model.TreeInterpreter.interpretTree</text>
</a>
</g>
</g>
<!-- Node1&#45;&gt;Node2 -->
<g id="edge1" class="edge"><title>Node1&#45;&gt;Node2</title>
<path fill="none" stroke="midnightblue" d="M218.214,-220.131C226.872,-220.941 235.598,-221.758 244.202,-222.564"/>
<polygon fill="midnightblue" stroke="midnightblue" points="243.952,-226.055 254.235,-223.503 244.605,-219.086 243.952,-226.055"/>
</g>
<!-- Node13 -->
<g id="node13" class="node"><title>Node13</title>
<g id="a_node13"><a xlink:href="../../d9/d88/classmodel_1_1_tree_interpreter.html#ab4691e1185423c138dc3b1af224cc107" target="_top" xlink:title="model.TreeInterpreter.set\lActiveTurtleIndex">
<polygon fill="white" stroke="black" points="277.5,-173 277.5,-203 414.5,-203 414.5,-173 277.5,-173"/>
<text text-anchor="start" x="285.5" y="-191" font-family="Helvetica,sans-Serif" font-size="10.00">model.TreeInterpreter.set</text>
<text text-anchor="middle" x="346" y="-180" font-family="Helvetica,sans-Serif" font-size="10.00">ActiveTurtleIndex</text>
</a>
</g>
</g>
<!-- Node1&#45;&gt;Node13 -->
<g id="edge16" class="edge"><title>Node1&#45;&gt;Node13</title>
<path fill="none" stroke="midnightblue" d="M218.214,-199.869C234.716,-198.324 251.464,-196.757 267.145,-195.289"/>
<polygon fill="midnightblue" stroke="midnightblue" points="267.652,-198.756 277.283,-194.34 267,-191.787 267.652,-198.756"/>
</g>
<!-- Node3 -->
<g id="node3" class="node"><title>Node3</title>
<g id="a_node3"><a xlink:href="../../dc/d9e/classparser_1_1_command_tree_node.html#a2700486f6a49c0a080114bee6e51f271" target="_top" xlink:title="parser.CommandTreeNode.get\lChildren">
<polygon fill="white" stroke="black" points="474,-261 474,-291 638,-291 638,-261 474,-261"/>
<text text-anchor="start" x="482" y="-279" font-family="Helvetica,sans-Serif" font-size="10.00">parser.CommandTreeNode.get</text>
<text text-anchor="middle" x="556" y="-268" font-family="Helvetica,sans-Serif" font-size="10.00">Children</text>
</a>
</g>
</g>
<!-- Node2&#45;&gt;Node3 -->
<g id="edge2" class="edge"><title>Node2&#45;&gt;Node3</title>
<path fill="none" stroke="midnightblue" d="M392.133,-241.547C415.969,-246.59 445.958,-252.933 473.685,-258.799"/>
<polygon fill="midnightblue" stroke="midnightblue" points="473.274,-262.289 483.782,-260.935 474.723,-255.441 473.274,-262.289"/>
</g>
<!-- Node4 -->
<g id="node4" class="node"><title>Node4</title>
<g id="a_node4"><a xlink:href="../../dc/d9e/classparser_1_1_command_tree_node.html#a8bb8a112395f78809b0be06f1c3f5282" target="_top" xlink:title="parser.CommandTreeNode.getType">
<polygon fill="white" stroke="black" points="876.5,-225.5 876.5,-244.5 1061.5,-244.5 1061.5,-225.5 876.5,-225.5"/>
<text text-anchor="middle" x="969" y="-232.5" font-family="Helvetica,sans-Serif" font-size="10.00">parser.CommandTreeNode.getType</text>
</a>
</g>
</g>
<!-- Node2&#45;&gt;Node4 -->
<g id="edge3" class="edge"><title>Node2&#45;&gt;Node4</title>
<path fill="none" stroke="midnightblue" d="M437.631,-232.438C551.71,-232.989 747.114,-233.933 866.218,-234.508"/>
<polygon fill="midnightblue" stroke="midnightblue" points="866.417,-238.009 876.433,-234.558 866.45,-231.009 866.417,-238.009"/>
</g>
<!-- Node5 -->
<g id="node5" class="node"><title>Node5</title>
<g id="a_node5"><a xlink:href="../../d9/d88/classmodel_1_1_tree_interpreter.html#a3e460e5ebe66f781afb480f0f0ec2ce7" target="_top" xlink:title="model.TreeInterpreter.update">
<polygon fill="white" stroke="black" points="478,-110.5 478,-129.5 634,-129.5 634,-110.5 478,-110.5"/>
<text text-anchor="middle" x="556" y="-117.5" font-family="Helvetica,sans-Serif" font-size="10.00">model.TreeInterpreter.update</text>
</a>
</g>
</g>
<!-- Node2&#45;&gt;Node5 -->
<g id="edge4" class="edge"><title>Node2&#45;&gt;Node5</title>
<path fill="none" stroke="midnightblue" d="M408.468,-222.46C418.596,-219.775 428.786,-216.353 438,-212 478.399,-192.915 517.601,-157.64 538.792,-136.752"/>
<polygon fill="midnightblue" stroke="midnightblue" points="541.422,-139.071 545.997,-129.515 536.461,-134.133 541.422,-139.071"/>
</g>
<!-- Node5&#45;&gt;Node4 -->
<g id="edge5" class="edge"><title>Node5&#45;&gt;Node4</title>
<path fill="none" stroke="midnightblue" d="M578.684,-129.523C601.94,-139.5 640.104,-155.195 674,-166 760.372,-193.534 783.61,-194.863 872,-215 884.443,-217.835 897.83,-220.724 910.541,-223.393"/>
<polygon fill="midnightblue" stroke="midnightblue" points="910.056,-226.867 920.56,-225.481 911.485,-220.015 910.056,-226.867"/>
</g>
<!-- Node6 -->
<g id="node6" class="node"><title>Node6</title>
<g id="a_node6"><a xlink:href="../../d9/d88/classmodel_1_1_tree_interpreter.html#af4d24e7867eb3a4a53f79f4a9288f9fd" target="_top" xlink:title="model.TreeInterpreter.execute\lCommand">
<polygon fill="white" stroke="black" points="674.5,-127 674.5,-157 835.5,-157 835.5,-127 674.5,-127"/>
<text text-anchor="start" x="682.5" y="-145" font-family="Helvetica,sans-Serif" font-size="10.00">model.TreeInterpreter.execute</text>
<text text-anchor="middle" x="755" y="-134" font-family="Helvetica,sans-Serif" font-size="10.00">Command</text>
</a>
</g>
</g>
<!-- Node5&#45;&gt;Node6 -->
<g id="edge6" class="edge"><title>Node5&#45;&gt;Node6</title>
<path fill="none" stroke="midnightblue" d="M634.012,-128.6C643.967,-129.712 654.23,-130.858 664.367,-131.99"/>
<polygon fill="midnightblue" stroke="midnightblue" points="664.119,-135.484 674.445,-133.116 664.896,-128.527 664.119,-135.484"/>
</g>
<!-- Node8 -->
<g id="node8" class="node"><title>Node8</title>
<g id="a_node8"><a xlink:href="../../dc/d9e/classparser_1_1_command_tree_node.html#a73e4ab6ebca47d41b993f0e66ee4c8d2" target="_top" xlink:title="parser.CommandTreeNode.getName">
<polygon fill="white" stroke="black" points="872.5,-88.5 872.5,-107.5 1065.5,-107.5 1065.5,-88.5 872.5,-88.5"/>
<text text-anchor="middle" x="969" y="-95.5" font-family="Helvetica,sans-Serif" font-size="10.00">parser.CommandTreeNode.getName</text>
</a>
</g>
</g>
<!-- Node5&#45;&gt;Node8 -->
<g id="edge12" class="edge"><title>Node5&#45;&gt;Node8</title>
<path fill="none" stroke="midnightblue" d="M634.306,-115.862C698.579,-112.422 790.709,-107.49 861.887,-103.68"/>
<polygon fill="midnightblue" stroke="midnightblue" points="862.432,-107.156 872.23,-103.126 862.058,-100.166 862.432,-107.156"/>
</g>
<!-- Node10 -->
<g id="node10" class="node"><title>Node10</title>
<g id="a_node10"><a xlink:href="../../dc/d9e/classparser_1_1_command_tree_node.html#a3d691b68da13689c03ebd9de665c379c" target="_top" xlink:title="parser.CommandTreeNode.set\lValue">
<polygon fill="white" stroke="black" points="887.5,-39 887.5,-69 1050.5,-69 1050.5,-39 887.5,-39"/>
<text text-anchor="start" x="895.5" y="-57" font-family="Helvetica,sans-Serif" font-size="10.00">parser.CommandTreeNode.set</text>
<text text-anchor="middle" x="969" y="-46" font-family="Helvetica,sans-Serif" font-size="10.00">Value</text>
</a>
</g>
</g>
<!-- Node5&#45;&gt;Node10 -->
<g id="edge13" class="edge"><title>Node5&#45;&gt;Node10</title>
<path fill="none" stroke="midnightblue" d="M615.617,-110.452C634.277,-107.42 655.004,-104.061 674,-101 742.14,-90.0207 819.181,-77.7083 877.301,-68.4404"/>
<polygon fill="midnightblue" stroke="midnightblue" points="877.868,-71.8942 887.192,-66.8633 876.766,-64.9816 877.868,-71.8942"/>
</g>
<!-- Node11 -->
<g id="node11" class="node"><title>Node11</title>
<g id="a_node11"><a xlink:href="../../db/d55/classmodel_1_1_variable_list.html#a09697cca38c12cf837ee40e71d02f78b" target="_top" xlink:title="model.VariableList.get">
<polygon fill="white" stroke="black" points="693.5,-6.5 693.5,-25.5 816.5,-25.5 816.5,-6.5 693.5,-6.5"/>
<text text-anchor="middle" x="755" y="-13.5" font-family="Helvetica,sans-Serif" font-size="10.00">model.VariableList.get</text>
</a>
</g>
</g>
<!-- Node5&#45;&gt;Node11 -->
<g id="edge14" class="edge"><title>Node5&#45;&gt;Node11</title>
<path fill="none" stroke="midnightblue" d="M569.341,-110.324C590.005,-94.4906 633.348,-62.8269 674,-43 685.219,-37.528 697.827,-32.7089 709.657,-28.7138"/>
<polygon fill="midnightblue" stroke="midnightblue" points="710.938,-31.9777 719.365,-25.5554 708.772,-25.3211 710.938,-31.9777"/>
</g>
<!-- Node6&#45;&gt;Node4 -->
<g id="edge8" class="edge"><title>Node6&#45;&gt;Node4</title>
<path fill="none" stroke="midnightblue" d="M799.206,-157.171C811.634,-162.503 824.836,-169.157 836,-177 855.036,-190.373 851.684,-203.665 872,-215 876.878,-217.722 882.083,-220.074 887.451,-222.108"/>
<polygon fill="midnightblue" stroke="midnightblue" points="886.658,-225.535 897.253,-225.434 888.908,-218.906 886.658,-225.535"/>
</g>
<!-- Node7 -->
<g id="node7" class="node"><title>Node7</title>
<g id="a_node7"><a xlink:href="../../db/d10/classmodel_1_1_command_factory.html#a3982ff8b4387b7e50c9ec4350ee01733" target="_top" xlink:title="model.CommandFactory.create\lCommand">
<polygon fill="white" stroke="black" points="885.5,-176 885.5,-206 1052.5,-206 1052.5,-176 885.5,-176"/>
<text text-anchor="start" x="893.5" y="-194" font-family="Helvetica,sans-Serif" font-size="10.00">model.CommandFactory.create</text>
<text text-anchor="middle" x="969" y="-183" font-family="Helvetica,sans-Serif" font-size="10.00">Command</text>
</a>
</g>
</g>
<!-- Node6&#45;&gt;Node7 -->
<g id="edge7" class="edge"><title>Node6&#45;&gt;Node7</title>
<path fill="none" stroke="midnightblue" d="M821.048,-157.035C843.839,-162.302 869.615,-168.26 893.144,-173.698"/>
<polygon fill="midnightblue" stroke="midnightblue" points="892.544,-177.152 903.075,-175.994 894.12,-170.332 892.544,-177.152"/>
</g>
<!-- Node6&#45;&gt;Node8 -->
<g id="edge9" class="edge"><title>Node6&#45;&gt;Node8</title>
<path fill="none" stroke="midnightblue" d="M828.365,-126.981C855.792,-121.288 886.57,-114.901 912.236,-109.574"/>
<polygon fill="midnightblue" stroke="midnightblue" points="913.087,-112.972 922.167,-107.512 911.665,-106.118 913.087,-112.972"/>
</g>
<!-- Node9 -->
<g id="node9" class="node"><title>Node9</title>
<g id="a_node9"><a xlink:href="../../d9/d88/classmodel_1_1_tree_interpreter.html#adc0cf2c5819ec7f42db4e37db51b1893" target="_top" xlink:title="model.TreeInterpreter.get\lConstructors">
<polygon fill="white" stroke="black" points="900,-127 900,-157 1038,-157 1038,-127 900,-127"/>
<text text-anchor="start" x="908" y="-145" font-family="Helvetica,sans-Serif" font-size="10.00">model.TreeInterpreter.get</text>
<text text-anchor="middle" x="969" y="-134" font-family="Helvetica,sans-Serif" font-size="10.00">Constructors</text>
</a>
</g>
</g>
<!-- Node6&#45;&gt;Node9 -->
<g id="edge10" class="edge"><title>Node6&#45;&gt;Node9</title>
<path fill="none" stroke="midnightblue" d="M835.544,-142C853.223,-142 871.951,-142 889.584,-142"/>
<polygon fill="midnightblue" stroke="midnightblue" points="889.823,-145.5 899.823,-142 889.823,-138.5 889.823,-145.5"/>
</g>
<!-- Node6&#45;&gt;Node10 -->
<g id="edge11" class="edge"><title>Node6&#45;&gt;Node10</title>
<path fill="none" stroke="midnightblue" d="M779.612,-126.952C802.488,-112.918 838.535,-92.2169 872,-79 878.296,-76.5134 884.922,-74.201 891.627,-72.068"/>
<polygon fill="midnightblue" stroke="midnightblue" points="892.931,-75.3299 901.48,-69.0718 890.894,-68.6327 892.931,-75.3299"/>
</g>
<!-- Node12 -->
<g id="node12" class="node"><title>Node12</title>
<g id="a_node12"><a xlink:href="../../db/d55/classmodel_1_1_variable_list.html#a0adb554303c7191db1da43ddb5fa2c45" target="_top" xlink:title="model.VariableList.add">
<polygon fill="white" stroke="black" points="906.5,-0.5 906.5,-19.5 1031.5,-19.5 1031.5,-0.5 906.5,-0.5"/>
<text text-anchor="middle" x="969" y="-7.5" font-family="Helvetica,sans-Serif" font-size="10.00">model.VariableList.add</text>
</a>
</g>
</g>
<!-- Node11&#45;&gt;Node12 -->
<g id="edge15" class="edge"><title>Node11&#45;&gt;Node12</title>
<path fill="none" stroke="midnightblue" d="M816.751,-14.2806C841.486,-13.5806 870.269,-12.766 896.047,-12.0364"/>
<polygon fill="midnightblue" stroke="midnightblue" points="896.24,-15.5325 906.137,-11.7509 896.042,-8.53526 896.24,-15.5325"/>
</g>
</g>
</svg>
