<?xml version="1.0" encoding="UTF-8" standalone="no"?>
<!DOCTYPE svg PUBLIC "-//W3C//DTD SVG 1.1//EN"
 "http://www.w3.org/Graphics/SVG/1.1/DTD/svg11.dtd">
<!-- Generated by graphviz version 2.36.0 (20140111.2315)
 -->
<!-- Title: parser.CommandCase.getMethodsList Pages: 1 -->
<!--zoomable 88 -->
<svg id="main" version="1.1" xmlns="http://www.w3.org/2000/svg" xmlns:xlink="http://www.w3.org/1999/xlink" xml:space="preserve" onload="init(evt)">
<style type="text/css"><![CDATA[
.edge:hover path { stroke: red; }
.edge:hover polygon { stroke: red; fill: red; }
]]></style>
<script type="text/javascript"><![CDATA[
var edges = document.getElementsByTagName('g');
if (edges && edges.length) {
  for (var i=0;i<edges.length;i++) {
    if (edges[i].id.substr(0,4)=='edge') {
      edges[i].setAttribute('class','edge');
    }
  }
}
]]></script>
        <defs>
                <circle id="rim" cx="0" cy="0" r="7"/>
                <circle id="rim2" cx="0" cy="0" r="3.5"/>
                <g id="zoomPlus">
                        <use xlink:href="#rim" fill="#404040">
                                <set attributeName="fill" to="#808080" begin="zoomplus.mouseover" end="zoomplus.mouseout"/>
                        </use>
                        <path d="M-4,0h8M0,-4v8" fill="none" stroke="white" stroke-width="1.5" pointer-events="none"/>
                </g>
                <g id="zoomMin">
                        <use xlink:href="#rim" fill="#404040">
                                <set attributeName="fill" to="#808080" begin="zoomminus.mouseover" end="zoomminus.mouseout"/>
                        </use>
                        <path d="M-4,0h8" fill="none" stroke="white" stroke-width="1.5" pointer-events="none"/>
                </g>
                <g id="dirArrow">
                        <path fill="none" stroke="white" stroke-width="1.5" d="M0,-3.0v7 M-2.5,-0.5L0,-3.0L2.5,-0.5"/>
                </g>
               <g id="resetDef">
                       <use xlink:href="#rim2" fill="#404040">
                               <set attributeName="fill" to="#808080" begin="reset.mouseover" end="reset.mouseout"/>
                       </use>
               </g>
        </defs>

<script type="text/javascript">
var viewWidth = 3082;
var viewHeight = 88;
var sectionId = 'dynsection-4';
</script>
<script xlink:href="../../svgpan.js"/>
<svg id="graph" class="graph">
<g id="viewport">
<title>parser.CommandCase.getMethodsList</title>
<polygon fill="white" stroke="none" points="-4,4 -4,-84 3078,-84 3078,4 -4,4"/>
<!-- Node1 -->
<g id="node1" class="node"><title>Node1</title>
<polygon fill="#bfbfbf" stroke="black" points="0,-41.5 0,-60.5 200,-60.5 200,-41.5 0,-41.5"/>
<text text-anchor="middle" x="100" y="-48.5" font-family="Helvetica,sans-Serif" font-size="10.00">parser.CommandCase.getMethodsList</text>
</g>
<!-- Node2 -->
<g id="node2" class="node"><title>Node2</title>
<g id="a_node2"><a xlink:href="../../d0/d05/classparser_1_1_tree_generator.html#a6b0c994d90d372250a24f81f439de007" target="_top" xlink:title="parser.TreeGenerator.get\lMethodsList">
<polygon fill="white" stroke="black" points="236,-36 236,-66 372,-66 372,-36 236,-36"/>
<text text-anchor="start" x="244" y="-54" font-family="Helvetica,sans-Serif" font-size="10.00">parser.TreeGenerator.get</text>
<text text-anchor="middle" x="304" y="-43" font-family="Helvetica,sans-Serif" font-size="10.00">MethodsList</text>
</a>
</g>
</g>
<!-- Node1&#45;&gt;Node2 -->
<g id="edge1" class="edge"><title>Node1&#45;&gt;Node2</title>
<path fill="none" stroke="midnightblue" d="M210.404,-51C219.055,-51 227.624,-51 235.854,-51"/>
<polygon fill="midnightblue" stroke="midnightblue" points="210.225,-47.5001 200.225,-51 210.225,-54.5001 210.225,-47.5001"/>
</g>
<!-- Node3 -->
<g id="node3" class="node"><title>Node3</title>
<g id="a_node3"><a xlink:href="../../d9/df7/classcontroller_1_1_controller.html#a3d81fb1a57114f96fb6c319f4c5df370" target="_top" xlink:title="controller.Controller.parse\lCommand">
<polygon fill="white" stroke="black" points="408,-36 408,-66 548,-66 548,-36 408,-36"/>
<text text-anchor="start" x="416" y="-54" font-family="Helvetica,sans-Serif" font-size="10.00">controller.Controller.parse</text>
<text text-anchor="middle" x="478" y="-43" font-family="Helvetica,sans-Serif" font-size="10.00">Command</text>
</a>
</g>
</g>
<!-- Node2&#45;&gt;Node3 -->
<g id="edge2" class="edge"><title>Node2&#45;&gt;Node3</title>
<path fill="none" stroke="midnightblue" d="M382.62,-51C390.99,-51 399.467,-51 407.729,-51"/>
<polygon fill="midnightblue" stroke="midnightblue" points="382.485,-47.5001 372.485,-51 382.485,-54.5001 382.485,-47.5001"/>
</g>
<!-- Node4 -->
<g id="node4" class="node"><title>Node4</title>
<g id="a_node4"><a xlink:href="../../d5/d06/classui_1_1_scene_updater.html#ab77a04f8b0038429b09237aac18906e8" target="_top" xlink:title="ui.SceneUpdater.sendCommands">
<polygon fill="white" stroke="black" points="584,-41.5 584,-60.5 762,-60.5 762,-41.5 584,-41.5"/>
<text text-anchor="middle" x="673" y="-48.5" font-family="Helvetica,sans-Serif" font-size="10.00">ui.SceneUpdater.sendCommands</text>
</a>
</g>
</g>
<!-- Node3&#45;&gt;Node4 -->
<g id="edge3" class="edge"><title>Node3&#45;&gt;Node4</title>
<path fill="none" stroke="midnightblue" d="M558.294,-51C566.713,-51 575.313,-51 583.825,-51"/>
<polygon fill="midnightblue" stroke="midnightblue" points="558.132,-47.5001 548.132,-51 558.132,-54.5001 558.132,-47.5001"/>
</g>
<!-- Node5 -->
<g id="node5" class="node"><title>Node5</title>
<g id="a_node5"><a xlink:href="../../dc/d3b/classui_1_1_g_u_i.html#ad8f08a79a20a498bcaafdc7e2e2ce0a9" target="_top" xlink:title="ui.GUI.parseCommand">
<polygon fill="white" stroke="black" points="798.5,-41.5 798.5,-60.5 923.5,-60.5 923.5,-41.5 798.5,-41.5"/>
<text text-anchor="middle" x="861" y="-48.5" font-family="Helvetica,sans-Serif" font-size="10.00">ui.GUI.parseCommand</text>
</a>
</g>
</g>
<!-- Node4&#45;&gt;Node5 -->
<g id="edge4" class="edge"><title>Node4&#45;&gt;Node5</title>
<path fill="none" stroke="midnightblue" d="M772.196,-51C781.132,-51 790.003,-51 798.479,-51"/>
<polygon fill="midnightblue" stroke="midnightblue" points="772.098,-47.5001 762.098,-51 772.098,-54.5001 772.098,-47.5001"/>
</g>
<!-- Node6 -->
<g id="node6" class="node"><title>Node6</title>
<g id="a_node6"><a xlink:href="../../d8/d3c/classui_1_1elements_1_1_i_o_element.html#a139a046f0c771f86696f2eee04047c64" target="_top" xlink:title="ui.elements.IOElement.init">
<polygon fill="white" stroke="black" points="976.5,-60.5 976.5,-79.5 1119.5,-79.5 1119.5,-60.5 976.5,-60.5"/>
<text text-anchor="middle" x="1048" y="-67.5" font-family="Helvetica,sans-Serif" font-size="10.00">ui.elements.IOElement.init</text>
</a>
</g>
</g>
<!-- Node5&#45;&gt;Node6 -->
<g id="edge5" class="edge"><title>Node5&#45;&gt;Node6</title>
<path fill="none" stroke="midnightblue" d="M933.677,-58.3614C947.703,-59.8019 962.403,-61.3116 976.393,-62.7485"/>
<polygon fill="midnightblue" stroke="midnightblue" points="933.908,-54.8668 923.602,-57.3267 933.192,-61.8302 933.908,-54.8668"/>
</g>
<!-- Node8 -->
<g id="node8" class="node"><title>Node8</title>
<g id="a_node8"><a xlink:href="../../dc/d3b/classui_1_1_g_u_i.html#ab8ec2a37b3d5bd9e8c2abbb3642fb965" target="_top" xlink:title="ui.GUI.setupKeyboardCommands">
<polygon fill="white" stroke="black" points="960.5,-22.5 960.5,-41.5 1135.5,-41.5 1135.5,-22.5 960.5,-22.5"/>
<text text-anchor="middle" x="1048" y="-29.5" font-family="Helvetica,sans-Serif" font-size="10.00">ui.GUI.setupKeyboardCommands</text>
</a>
</g>
</g>
<!-- Node5&#45;&gt;Node8 -->
<g id="edge7" class="edge"><title>Node5&#45;&gt;Node8</title>
<path fill="none" stroke="midnightblue" d="M933.694,-43.6368C942.41,-42.7417 951.385,-41.8199 960.289,-40.9054"/>
<polygon fill="midnightblue" stroke="midnightblue" points="933.192,-40.1698 923.602,-44.6733 933.908,-47.1332 933.192,-40.1698"/>
</g>
<!-- Node7 -->
<g id="node7" class="node"><title>Node7</title>
<g id="a_node7"><a xlink:href="../../d8/d3c/classui_1_1elements_1_1_i_o_element.html#a556e1a3ad292fe3ab731065eef59b187" target="_top" xlink:title="ui.elements.IOElement.IOElement">
<polygon fill="white" stroke="black" points="1172,-60.5 1172,-79.5 1350,-79.5 1350,-60.5 1172,-60.5"/>
<text text-anchor="middle" x="1261" y="-67.5" font-family="Helvetica,sans-Serif" font-size="10.00">ui.elements.IOElement.IOElement</text>
</a>
</g>
</g>
<!-- Node6&#45;&gt;Node7 -->
<g id="edge6" class="edge"><title>Node6&#45;&gt;Node7</title>
<path fill="none" stroke="midnightblue" d="M1129.92,-70C1143.65,-70 1157.97,-70 1171.88,-70"/>
<polygon fill="midnightblue" stroke="midnightblue" points="1129.55,-66.5001 1119.55,-70 1129.55,-73.5001 1129.55,-66.5001"/>
</g>
<!-- Node9 -->
<g id="node9" class="node"><title>Node9</title>
<g id="a_node9"><a xlink:href="../../dc/d3b/classui_1_1_g_u_i.html#a765d554102f38969231261686f2f8e27" target="_top" xlink:title="ui.GUI.initialize">
<polygon fill="white" stroke="black" points="1218,-22.5 1218,-41.5 1304,-41.5 1304,-22.5 1218,-22.5"/>
<text text-anchor="middle" x="1261" y="-29.5" font-family="Helvetica,sans-Serif" font-size="10.00">ui.GUI.initialize</text>
</a>
</g>
</g>
<!-- Node8&#45;&gt;Node9 -->
<g id="edge8" class="edge"><title>Node8&#45;&gt;Node9</title>
<path fill="none" stroke="midnightblue" d="M1145.75,-32C1171.02,-32 1196.96,-32 1217.72,-32"/>
<polygon fill="midnightblue" stroke="midnightblue" points="1145.74,-28.5001 1135.74,-32 1145.74,-35.5001 1145.74,-28.5001"/>
</g>
<!-- Node10 -->
<g id="node10" class="node"><title>Node10</title>
<g id="a_node10"><a xlink:href="../../d5/d06/classui_1_1_scene_updater.html#aeef5dd7a8ec2ad6179e33fdd71ea90d6" target="_top" xlink:title="ui.SceneUpdater.initGUI">
<polygon fill="white" stroke="black" points="1386.5,-22.5 1386.5,-41.5 1517.5,-41.5 1517.5,-22.5 1386.5,-22.5"/>
<text text-anchor="middle" x="1452" y="-29.5" font-family="Helvetica,sans-Serif" font-size="10.00">ui.SceneUpdater.initGUI</text>
</a>
</g>
</g>
<!-- Node9&#45;&gt;Node10 -->
<g id="edge9" class="edge"><title>Node9&#45;&gt;Node10</title>
<path fill="none" stroke="midnightblue" d="M1314.67,-32C1336.92,-32 1363.05,-32 1386.45,-32"/>
<polygon fill="midnightblue" stroke="midnightblue" points="1314.42,-28.5001 1304.42,-32 1314.42,-35.5001 1314.42,-28.5001"/>
</g>
<!-- Node11 -->
<g id="node11" class="node"><title>Node11</title>
<g id="a_node11"><a xlink:href="../../d9/df7/classcontroller_1_1_controller.html#a57e42ba83ee2145e6262cd72eac59570" target="_top" xlink:title="controller.Controller.init">
<polygon fill="white" stroke="black" points="1554.5,-22.5 1554.5,-41.5 1681.5,-41.5 1681.5,-22.5 1554.5,-22.5"/>
<text text-anchor="middle" x="1618" y="-29.5" font-family="Helvetica,sans-Serif" font-size="10.00">controller.Controller.init</text>
</a>
</g>
</g>
<!-- Node10&#45;&gt;Node11 -->
<g id="edge10" class="edge"><title>Node10&#45;&gt;Node11</title>
<path fill="none" stroke="midnightblue" d="M1528.04,-32C1536.81,-32 1545.68,-32 1554.26,-32"/>
<polygon fill="midnightblue" stroke="midnightblue" points="1527.82,-28.5001 1517.82,-32 1527.82,-35.5001 1527.82,-28.5001"/>
</g>
<!-- Node12 -->
<g id="node12" class="node"><title>Node12</title>
<g id="a_node12"><a xlink:href="../../dd/df2/classmain_1_1_workspace_manager.html#abc818b59211f6e14940b86a42bb868d0" target="_top" xlink:title="main.WorkspaceManager.create\lWorkspace">
<polygon fill="white" stroke="black" points="1718,-17 1718,-47 1888,-47 1888,-17 1718,-17"/>
<text text-anchor="start" x="1726" y="-35" font-family="Helvetica,sans-Serif" font-size="10.00">main.WorkspaceManager.create</text>
<text text-anchor="middle" x="1803" y="-24" font-family="Helvetica,sans-Serif" font-size="10.00">Workspace</text>
</a>
</g>
</g>
<!-- Node11&#45;&gt;Node12 -->
<g id="edge11" class="edge"><title>Node11&#45;&gt;Node12</title>
<path fill="none" stroke="midnightblue" d="M1691.92,-32C1700.39,-32 1709.08,-32 1717.69,-32"/>
<polygon fill="midnightblue" stroke="midnightblue" points="1691.72,-28.5001 1681.72,-32 1691.72,-35.5001 1691.72,-28.5001"/>
</g>
<!-- Node13 -->
<g id="node13" class="node"><title>Node13</title>
<g id="a_node13"><a xlink:href="../../d9/df7/classcontroller_1_1_controller.html#a3a9d672bb57047df70945ad1a9582c9a" target="_top" xlink:title="controller.Controller.create\lNewWorkspace">
<polygon fill="white" stroke="black" points="1924.5,-39 1924.5,-69 2067.5,-69 2067.5,-39 1924.5,-39"/>
<text text-anchor="start" x="1932.5" y="-57" font-family="Helvetica,sans-Serif" font-size="10.00">controller.Controller.create</text>
<text text-anchor="middle" x="1996" y="-46" font-family="Helvetica,sans-Serif" font-size="10.00">NewWorkspace</text>
</a>
</g>
</g>
<!-- Node12&#45;&gt;Node13 -->
<g id="edge12" class="edge"><title>Node12&#45;&gt;Node13</title>
<path fill="none" stroke="midnightblue" d="M1898.03,-42.8303C1906.88,-43.8503 1915.75,-44.8721 1924.34,-45.8608"/>
<polygon fill="midnightblue" stroke="midnightblue" points="1898.39,-39.3489 1888.05,-41.6815 1897.59,-46.3029 1898.39,-39.3489"/>
</g>
<!-- Node19 -->
<g id="node19" class="node"><title>Node19</title>
<g id="a_node19"><a xlink:href="../../d1/d0b/classmain_1_1_main.html#a9f1e5657b2f6f9bdd69a3b6412ceda74" target="_top" xlink:title="main.Main.start">
<polygon fill="white" stroke="black" points="1950,-0.5 1950,-19.5 2042,-19.5 2042,-0.5 1950,-0.5"/>
<text text-anchor="middle" x="1996" y="-7.5" font-family="Helvetica,sans-Serif" font-size="10.00">main.Main.start</text>
</a>
</g>
</g>
<!-- Node12&#45;&gt;Node19 -->
<g id="edge18" class="edge"><title>Node12&#45;&gt;Node19</title>
<path fill="none" stroke="midnightblue" d="M1898.09,-21.1629C1916.19,-19.0779 1934.36,-16.9851 1949.99,-15.1843"/>
<polygon fill="midnightblue" stroke="midnightblue" points="1897.59,-17.6971 1888.05,-22.3185 1898.39,-24.6511 1897.59,-17.6971"/>
</g>
<!-- Node14 -->
<g id="node14" class="node"><title>Node14</title>
<g id="a_node14"><a xlink:href="../../d5/d06/classui_1_1_scene_updater.html#a2858ad8edb0c0f59a21e2ae015f2fa1e" target="_top" xlink:title="ui.SceneUpdater.createNew\lWorkspace">
<polygon fill="white" stroke="black" points="2104,-39 2104,-69 2254,-69 2254,-39 2104,-39"/>
<text text-anchor="start" x="2112" y="-57" font-family="Helvetica,sans-Serif" font-size="10.00">ui.SceneUpdater.createNew</text>
<text text-anchor="middle" x="2179" y="-46" font-family="Helvetica,sans-Serif" font-size="10.00">Workspace</text>
</a>
</g>
</g>
<!-- Node13&#45;&gt;Node14 -->
<g id="edge13" class="edge"><title>Node13&#45;&gt;Node14</title>
<path fill="none" stroke="midnightblue" d="M2077.8,-54C2086.43,-54 2095.17,-54 2103.71,-54"/>
<polygon fill="midnightblue" stroke="midnightblue" points="2077.76,-50.5001 2067.76,-54 2077.76,-57.5001 2077.76,-50.5001"/>
</g>
<!-- Node15 -->
<g id="node15" class="node"><title>Node15</title>
<g id="a_node15"><a xlink:href="../../dc/d3b/classui_1_1_g_u_i.html#a2edc294ba07311e6c4b85c9fe749d1bf" target="_top" xlink:title="ui.GUI.createNewWorkspace">
<polygon fill="white" stroke="black" points="2290,-44.5 2290,-63.5 2440,-63.5 2440,-44.5 2290,-44.5"/>
<text text-anchor="middle" x="2365" y="-51.5" font-family="Helvetica,sans-Serif" font-size="10.00">ui.GUI.createNewWorkspace</text>
</a>
</g>
</g>
<!-- Node14&#45;&gt;Node15 -->
<g id="edge14" class="edge"><title>Node14&#45;&gt;Node15</title>
<path fill="none" stroke="midnightblue" d="M2264.07,-54C2272.65,-54 2281.34,-54 2289.81,-54"/>
<polygon fill="midnightblue" stroke="midnightblue" points="2264.04,-50.5001 2254.04,-54 2264.04,-57.5001 2264.04,-50.5001"/>
</g>
<!-- Node16 -->
<g id="node16" class="node"><title>Node16</title>
<g id="a_node16"><a xlink:href="../../d0/de6/classui_1_1elements_1_1_menu_bar_element.html#a98c13995a31d997aa10f2950583da6cc" target="_top" xlink:title="ui.elements.MenuBarElement.make\lMenuBar">
<polygon fill="white" stroke="black" points="2476,-39 2476,-69 2664,-69 2664,-39 2476,-39"/>
<text text-anchor="start" x="2484" y="-57" font-family="Helvetica,sans-Serif" font-size="10.00">ui.elements.MenuBarElement.make</text>
<text text-anchor="middle" x="2570" y="-46" font-family="Helvetica,sans-Serif" font-size="10.00">MenuBar</text>
</a>
</g>
</g>
<!-- Node15&#45;&gt;Node16 -->
<g id="edge15" class="edge"><title>Node15&#45;&gt;Node16</title>
<path fill="none" stroke="midnightblue" d="M2450.28,-54C2458.66,-54 2467.21,-54 2475.68,-54"/>
<polygon fill="midnightblue" stroke="midnightblue" points="2450.15,-50.5001 2440.15,-54 2450.15,-57.5001 2450.15,-50.5001"/>
</g>
<!-- Node17 -->
<g id="node17" class="node"><title>Node17</title>
<g id="a_node17"><a xlink:href="../../d0/de6/classui_1_1elements_1_1_menu_bar_element.html#a7bdb58f78cf8b61ba28498c5c86ab682" target="_top" xlink:title="ui.elements.MenuBarElement.init">
<polygon fill="white" stroke="black" points="2700,-44.5 2700,-63.5 2876,-63.5 2876,-44.5 2700,-44.5"/>
<text text-anchor="middle" x="2788" y="-51.5" font-family="Helvetica,sans-Serif" font-size="10.00">ui.elements.MenuBarElement.init</text>
</a>
</g>
</g>
<!-- Node16&#45;&gt;Node17 -->
<g id="edge16" class="edge"><title>Node16&#45;&gt;Node17</title>
<path fill="none" stroke="midnightblue" d="M2674.23,-54C2682.83,-54 2691.48,-54 2699.94,-54"/>
<polygon fill="midnightblue" stroke="midnightblue" points="2674.17,-50.5001 2664.17,-54 2674.17,-57.5001 2674.17,-50.5001"/>
</g>
<!-- Node18 -->
<g id="node18" class="node"><title>Node18</title>
<g id="a_node18"><a xlink:href="../../d0/de6/classui_1_1elements_1_1_menu_bar_element.html#ab4a4e6841c924a9d9c70b8073b56dffc" target="_top" xlink:title="ui.elements.MenuBarElement.\lMenuBarElement">
<polygon fill="white" stroke="black" points="2912.5,-39 2912.5,-69 3073.5,-69 3073.5,-39 2912.5,-39"/>
<text text-anchor="start" x="2920.5" y="-57" font-family="Helvetica,sans-Serif" font-size="10.00">ui.elements.MenuBarElement.</text>
<text text-anchor="middle" x="2993" y="-46" font-family="Helvetica,sans-Serif" font-size="10.00">MenuBarElement</text>
</a>
</g>
</g>
<!-- Node17&#45;&gt;Node18 -->
<g id="edge17" class="edge"><title>Node17&#45;&gt;Node18</title>
<path fill="none" stroke="midnightblue" d="M2886.47,-54C2895.19,-54 2903.95,-54 2912.5,-54"/>
<polygon fill="midnightblue" stroke="midnightblue" points="2886.27,-50.5001 2876.27,-54 2886.27,-57.5001 2886.27,-50.5001"/>
</g>
</g>
</svg>
        <g id="navigator" transform="translate(0 0)" fill="#404254">
                <rect fill="#f2f5e9" fill-opacity="0.5" stroke="#606060" stroke-width=".5" x="0" y="0" width="60" height="60"/>
                <use id="zoomplus" xlink:href="#zoomPlus" x="17" y="9" onmousedown="handleZoom(evt,'in')"/>
                <use id="zoomminus" xlink:href="#zoomMin" x="42" y="9" onmousedown="handleZoom(evt,'out')"/>
                <use id="reset" xlink:href="#resetDef" x="30" y="36" onmousedown="handleReset()"/>
                <g id="arrowUp" xlink:href="#dirArrow" transform="translate(30 24)" onmousedown="handlePan(0,-1)">
                  <use xlink:href="#rim" fill="#404040">
                        <set attributeName="fill" to="#808080" begin="arrowUp.mouseover" end="arrowUp.mouseout"/>
                  </use>
                  <path fill="none" stroke="white" stroke-width="1.5" d="M0,-3.0v7 M-2.5,-0.5L0,-3.0L2.5,-0.5"/>
                </g>
                <g id="arrowRight" xlink:href="#dirArrow" transform="rotate(90) translate(36 -43)" onmousedown="handlePan(1,0)">
                  <use xlink:href="#rim" fill="#404040">
                        <set attributeName="fill" to="#808080" begin="arrowRight.mouseover" end="arrowRight.mouseout"/>
                  </use>
                  <path fill="none" stroke="white" stroke-width="1.5" d="M0,-3.0v7 M-2.5,-0.5L0,-3.0L2.5,-0.5"/>
                </g>
                <g id="arrowDown" xlink:href="#dirArrow" transform="rotate(180) translate(-30 -48)" onmousedown="handlePan(0,1)">
                  <use xlink:href="#rim" fill="#404040">
                        <set attributeName="fill" to="#808080" begin="arrowDown.mouseover" end="arrowDown.mouseout"/>
                  </use>
                  <path fill="none" stroke="white" stroke-width="1.5" d="M0,-3.0v7 M-2.5,-0.5L0,-3.0L2.5,-0.5"/>
                </g>
                <g id="arrowLeft" xlink:href="#dirArrow" transform="rotate(270) translate(-36 17)" onmousedown="handlePan(-1,0)">
                  <use xlink:href="#rim" fill="#404040">
                        <set attributeName="fill" to="#808080" begin="arrowLeft.mouseover" end="arrowLeft.mouseout"/>
                  </use>
                  <path fill="none" stroke="white" stroke-width="1.5" d="M0,-3.0v7 M-2.5,-0.5L0,-3.0L2.5,-0.5"/>
                </g>
        </g>
        <svg viewBox="0 0 15 15" width="100%" height="30px" preserveAspectRatio="xMaxYMin meet">
         <g id="arrow_out" transform="scale(0.3 0.3)">
          <a xlink:href="classparser_1_1_command_case_a0a36df1183543407fec197f435a5ba2c_icgraph_org.svg" target="_base">
           <rect id="button" ry="5" rx="5" y="6" x="6" height="38" width="38"
                fill="#f2f5e9" fill-opacity="0.5" stroke="#606060" stroke-width="1.0"/>
           <path id="arrow"
             d="M 11.500037,31.436501 C 11.940474,20.09759 22.043105,11.32322 32.158766,21.979434 L 37.068811,17.246167 C 37.068811,17.246167 37.088388,32 37.088388,32 L 22.160133,31.978069 C 22.160133,31.978069 26.997745,27.140456 26.997745,27.140456 C 18.528582,18.264221 13.291696,25.230495 11.500037,31.436501 z"
             style="fill:#404040;"/>
          </a>
         </g>
        </svg>
</svg>
