<?xml version="1.0" encoding="UTF-8" standalone="no"?>
<!DOCTYPE svg PUBLIC "-//W3C//DTD SVG 1.1//EN"
 "http://www.w3.org/Graphics/SVG/1.1/DTD/svg11.dtd">
<!-- Generated by graphviz version 2.36.0 (20140111.2315)
 -->
<!-- Title: parser.CommandCase.makingInstructionsCase Pages: 1 -->
<svg width="400pt" height="241pt"
 viewBox="0.00 0.00 400.00 241.00" xmlns="http://www.w3.org/2000/svg" xmlns:xlink="http://www.w3.org/1999/xlink">
<g id="graph0" class="graph" transform="scale(1 1) rotate(0) translate(4 237)">
<title>parser.CommandCase.makingInstructionsCase</title>
<polygon fill="white" stroke="none" points="-4,4 -4,-237 396,-237 396,4 -4,4"/>
<!-- Node1 -->
<g id="node1" class="node"><title>Node1</title>
<polygon fill="#bfbfbf" stroke="black" points="0,-110 0,-140 162,-140 162,-110 0,-110"/>
<text text-anchor="start" x="8" y="-128" font-family="Helvetica,sans-Serif" font-size="10.00">parser.CommandCase.making</text>
<text text-anchor="middle" x="81" y="-117" font-family="Helvetica,sans-Serif" font-size="10.00">InstructionsCase</text>
</g>
<!-- Node2 -->
<g id="node2" class="node"><title>Node2</title>
<g id="a_node2"><a xlink:href="../../dc/d9e/classparser_1_1_command_tree_node.html#ad6cbb5376973ef15c1831187b297d071" target="_top" xlink:title="parser.CommandTreeNode.add">
<polygon fill="white" stroke="black" points="212,-213.5 212,-232.5 378,-232.5 378,-213.5 212,-213.5"/>
<text text-anchor="middle" x="295" y="-220.5" font-family="Helvetica,sans-Serif" font-size="10.00">parser.CommandTreeNode.add</text>
</a>
</g>
</g>
<!-- Node1&#45;&gt;Node2 -->
<g id="edge1" class="edge"><title>Node1&#45;&gt;Node2</title>
<path fill="none" stroke="midnightblue" d="M99.1626,-140.021C120.723,-158.063 159.569,-187.904 198,-204 204.212,-206.602 210.802,-208.853 217.504,-210.801"/>
<polygon fill="midnightblue" stroke="midnightblue" points="216.808,-214.238 227.373,-213.442 218.617,-207.476 216.808,-214.238"/>
</g>
<!-- Node3 -->
<g id="node3" class="node"><title>Node3</title>
<g id="a_node3"><a xlink:href="../../dc/d9e/classparser_1_1_command_tree_node.html#a73e4ab6ebca47d41b993f0e66ee4c8d2" target="_top" xlink:title="parser.CommandTreeNode.getName">
<polygon fill="white" stroke="black" points="198.5,-175.5 198.5,-194.5 391.5,-194.5 391.5,-175.5 198.5,-175.5"/>
<text text-anchor="middle" x="295" y="-182.5" font-family="Helvetica,sans-Serif" font-size="10.00">parser.CommandTreeNode.getName</text>
</a>
</g>
</g>
<!-- Node1&#45;&gt;Node3 -->
<g id="edge2" class="edge"><title>Node1&#45;&gt;Node3</title>
<path fill="none" stroke="midnightblue" d="M120.224,-140.079C142.632,-148.522 171.632,-158.772 198,-166 207.872,-168.706 218.414,-171.191 228.764,-173.409"/>
<polygon fill="midnightblue" stroke="midnightblue" points="228.098,-176.845 238.6,-175.451 229.521,-169.991 228.098,-176.845"/>
</g>
<!-- Node4 -->
<g id="node4" class="node"><title>Node4</title>
<g id="a_node4"><a xlink:href="../../dc/d9e/classparser_1_1_command_tree_node.html#a8bb8a112395f78809b0be06f1c3f5282" target="_top" xlink:title="parser.CommandTreeNode.getType">
<polygon fill="white" stroke="black" points="202.5,-137.5 202.5,-156.5 387.5,-156.5 387.5,-137.5 202.5,-137.5"/>
<text text-anchor="middle" x="295" y="-144.5" font-family="Helvetica,sans-Serif" font-size="10.00">parser.CommandTreeNode.getType</text>
</a>
</g>
</g>
<!-- Node1&#45;&gt;Node4 -->
<g id="edge3" class="edge"><title>Node1&#45;&gt;Node4</title>
<path fill="none" stroke="midnightblue" d="M162.148,-133.317C171.998,-134.339 182.164,-135.394 192.279,-136.444"/>
<polygon fill="midnightblue" stroke="midnightblue" points="192.054,-139.939 202.362,-137.49 192.777,-132.977 192.054,-139.939"/>
</g>
<!-- Node5 -->
<g id="node5" class="node"><title>Node5</title>
<g id="a_node5"><a xlink:href="../../d5/d30/classparser_1_1_command_case.html#a37b719ff1e44b8c2539ec8a3d3dec65e" target="_top" xlink:title="parser.CommandCase.obtain\lSubCommand">
<polygon fill="white" stroke="black" points="216.5,-88 216.5,-118 373.5,-118 373.5,-88 216.5,-88"/>
<text text-anchor="start" x="224.5" y="-106" font-family="Helvetica,sans-Serif" font-size="10.00">parser.CommandCase.obtain</text>
<text text-anchor="middle" x="295" y="-95" font-family="Helvetica,sans-Serif" font-size="10.00">SubCommand</text>
</a>
</g>
</g>
<!-- Node1&#45;&gt;Node5 -->
<g id="edge4" class="edge"><title>Node1&#45;&gt;Node5</title>
<path fill="none" stroke="midnightblue" d="M162.148,-116.683C176.534,-115.19 191.596,-113.627 206.185,-112.113"/>
<polygon fill="midnightblue" stroke="midnightblue" points="206.609,-115.588 216.195,-111.074 205.887,-108.625 206.609,-115.588"/>
</g>
<!-- Node6 -->
<g id="node6" class="node"><title>Node6</title>
<g id="a_node6"><a xlink:href="../../d9/dc0/interfaceparser_1_1_tree_wrapper.html#a593548eb4ae82f686022f08f45908a1d" target="_top" xlink:title="parser.TreeWrapper.print\lTestStatements">
<polygon fill="white" stroke="black" points="229,-39 229,-69 361,-69 361,-39 229,-39"/>
<text text-anchor="start" x="237" y="-57" font-family="Helvetica,sans-Serif" font-size="10.00">parser.TreeWrapper.print</text>
<text text-anchor="middle" x="295" y="-46" font-family="Helvetica,sans-Serif" font-size="10.00">TestStatements</text>
</a>
</g>
</g>
<!-- Node1&#45;&gt;Node6 -->
<g id="edge5" class="edge"><title>Node1&#45;&gt;Node6</title>
<path fill="none" stroke="midnightblue" d="M116.617,-109.979C139.464,-100.388 170.202,-88.0931 198,-79 205.681,-76.4875 213.771,-74.0562 221.862,-71.7607"/>
<polygon fill="midnightblue" stroke="midnightblue" points="223.004,-75.0763 231.706,-69.0317 221.134,-68.3307 223.004,-75.0763"/>
</g>
<!-- Node7 -->
<g id="node7" class="node"><title>Node7</title>
<g id="a_node7"><a xlink:href="../../d9/dc0/interfaceparser_1_1_tree_wrapper.html#a48f9f037c84b1fecfdefcb3268640f88" target="_top" xlink:title="parser.TreeWrapper.recurse">
<polygon fill="white" stroke="black" points="222,-0.5 222,-19.5 368,-19.5 368,-0.5 222,-0.5"/>
<text text-anchor="middle" x="295" y="-7.5" font-family="Helvetica,sans-Serif" font-size="10.00">parser.TreeWrapper.recurse</text>
</a>
</g>
</g>
<!-- Node1&#45;&gt;Node7 -->
<g id="edge6" class="edge"><title>Node1&#45;&gt;Node7</title>
<path fill="none" stroke="midnightblue" d="M95.76,-109.839C115.996,-88.5319 155.959,-50.0907 198,-30 204.141,-27.0655 210.705,-24.5598 217.41,-22.4205"/>
<polygon fill="midnightblue" stroke="midnightblue" points="218.678,-25.6965 227.302,-19.5411 216.722,-18.9755 218.678,-25.6965"/>
</g>
</g>
</svg>
