<?xml version="1.0" encoding="UTF-8" standalone="no"?>
<!DOCTYPE svg PUBLIC "-//W3C//DTD SVG 1.1//EN"
 "http://www.w3.org/Graphics/SVG/1.1/DTD/svg11.dtd">
<!-- Generated by graphviz version 2.36.0 (20140111.2315)
 -->
<!-- Title: parser.CommandCase.initialize Pages: 1 -->
<svg width="398pt" height="351pt"
 viewBox="0.00 0.00 398.00 351.00" xmlns="http://www.w3.org/2000/svg" xmlns:xlink="http://www.w3.org/1999/xlink">
<g id="graph0" class="graph" transform="scale(1 1) rotate(0) translate(4 347)">
<title>parser.CommandCase.initialize</title>
<polygon fill="white" stroke="none" points="-4,4 -4,-347 394,-347 394,4 -4,4"/>
<!-- Node1 -->
<g id="node1" class="node"><title>Node1</title>
<polygon fill="#bfbfbf" stroke="black" points="0.5,-166.5 0.5,-185.5 165.5,-185.5 165.5,-166.5 0.5,-166.5"/>
<text text-anchor="middle" x="83" y="-173.5" font-family="Helvetica,sans-Serif" font-size="10.00">parser.CommandCase.initialize</text>
</g>
<!-- Node2 -->
<g id="node2" class="node"><title>Node2</title>
<g id="a_node2"><a xlink:href="../../d9/dc0/interfaceparser_1_1_tree_wrapper.html#abf33b5a3ce13b389b9f69be49b18b998" target="_top" xlink:title="parser.TreeWrapper.getIndex">
<polygon fill="white" stroke="black" points="220,-323.5 220,-342.5 372,-342.5 372,-323.5 220,-323.5"/>
<text text-anchor="middle" x="296" y="-330.5" font-family="Helvetica,sans-Serif" font-size="10.00">parser.TreeWrapper.getIndex</text>
</a>
</g>
</g>
<!-- Node1&#45;&gt;Node2 -->
<g id="edge1" class="edge"><title>Node1&#45;&gt;Node2</title>
<path fill="none" stroke="midnightblue" d="M89.3824,-185.859C103.872,-211.394 146.397,-279.986 202,-313 206.5,-315.672 211.311,-317.988 216.286,-319.997"/>
<polygon fill="midnightblue" stroke="midnightblue" points="215.425,-323.407 226.02,-323.493 217.791,-316.819 215.425,-323.407"/>
</g>
<!-- Node3 -->
<g id="node3" class="node"><title>Node3</title>
<g id="a_node3"><a xlink:href="../../d9/dc0/interfaceparser_1_1_tree_wrapper.html#a251d9d9bb7c3ea34688bfa30cc465270" target="_top" xlink:title="parser.TreeWrapper.increment\lIndex">
<polygon fill="white" stroke="black" points="216.5,-274 216.5,-304 375.5,-304 375.5,-274 216.5,-274"/>
<text text-anchor="start" x="224.5" y="-292" font-family="Helvetica,sans-Serif" font-size="10.00">parser.TreeWrapper.increment</text>
<text text-anchor="middle" x="296" y="-281" font-family="Helvetica,sans-Serif" font-size="10.00">Index</text>
</a>
</g>
</g>
<!-- Node1&#45;&gt;Node3 -->
<g id="edge2" class="edge"><title>Node1&#45;&gt;Node3</title>
<path fill="none" stroke="midnightblue" d="M94.1602,-185.734C113.552,-203.791 157.854,-242.583 202,-264 206.889,-266.372 212.035,-268.544 217.295,-270.53"/>
<polygon fill="midnightblue" stroke="midnightblue" points="216.259,-273.876 226.854,-273.905 218.589,-267.275 216.259,-273.876"/>
</g>
<!-- Node4 -->
<g id="node4" class="node"><title>Node4</title>
<g id="a_node4"><a xlink:href="../../d0/d22/classutil_1_1_pattern_mapper.html#a257efa051dc3d89b728922a22901fb7d" target="_top" xlink:title="util.PatternMapper.makePatterns">
<polygon fill="white" stroke="black" points="209.5,-235.5 209.5,-254.5 382.5,-254.5 382.5,-235.5 209.5,-235.5"/>
<text text-anchor="middle" x="296" y="-242.5" font-family="Helvetica,sans-Serif" font-size="10.00">util.PatternMapper.makePatterns</text>
</a>
</g>
</g>
<!-- Node1&#45;&gt;Node4 -->
<g id="edge3" class="edge"><title>Node1&#45;&gt;Node4</title>
<path fill="none" stroke="midnightblue" d="M104.048,-185.645C127.199,-196.47 166.64,-213.957 202,-225 211.796,-228.059 222.316,-230.812 232.631,-233.226"/>
<polygon fill="midnightblue" stroke="midnightblue" points="231.903,-236.65 242.428,-235.436 233.443,-229.821 231.903,-236.65"/>
</g>
<!-- Node5 -->
<g id="node5" class="node"><title>Node5</title>
<g id="a_node5"><a xlink:href="../../d5/d30/classparser_1_1_command_case.html#a7c49338f11e46369db6a009f6a07a837" target="_top" xlink:title="parser.CommandCase.obtain\lNumParams">
<polygon fill="white" stroke="black" points="217.5,-186 217.5,-216 374.5,-216 374.5,-186 217.5,-186"/>
<text text-anchor="start" x="225.5" y="-204" font-family="Helvetica,sans-Serif" font-size="10.00">parser.CommandCase.obtain</text>
<text text-anchor="middle" x="296" y="-193" font-family="Helvetica,sans-Serif" font-size="10.00">NumParams</text>
</a>
</g>
</g>
<!-- Node1&#45;&gt;Node5 -->
<g id="edge4" class="edge"><title>Node1&#45;&gt;Node5</title>
<path fill="none" stroke="midnightblue" d="M164.372,-185.523C178.336,-187.177 192.923,-188.906 207.076,-190.582"/>
<polygon fill="midnightblue" stroke="midnightblue" points="206.947,-194.092 217.289,-191.793 207.771,-187.14 206.947,-194.092"/>
</g>
<!-- Node6 -->
<g id="node6" class="node"><title>Node6</title>
<g id="a_node6"><a xlink:href="../../d5/d30/classparser_1_1_command_case.html#a37b719ff1e44b8c2539ec8a3d3dec65e" target="_top" xlink:title="parser.CommandCase.obtain\lSubCommand">
<polygon fill="white" stroke="black" points="217.5,-137 217.5,-167 374.5,-167 374.5,-137 217.5,-137"/>
<text text-anchor="start" x="225.5" y="-155" font-family="Helvetica,sans-Serif" font-size="10.00">parser.CommandCase.obtain</text>
<text text-anchor="middle" x="296" y="-144" font-family="Helvetica,sans-Serif" font-size="10.00">SubCommand</text>
</a>
</g>
</g>
<!-- Node1&#45;&gt;Node6 -->
<g id="edge5" class="edge"><title>Node1&#45;&gt;Node6</title>
<path fill="none" stroke="midnightblue" d="M165.578,-166.721C179.296,-165.161 193.583,-163.536 207.445,-161.959"/>
<polygon fill="midnightblue" stroke="midnightblue" points="207.908,-165.429 217.448,-160.821 207.117,-158.474 207.908,-165.429"/>
</g>
<!-- Node7 -->
<g id="node7" class="node"><title>Node7</title>
<g id="a_node7"><a xlink:href="../../d9/dc0/interfaceparser_1_1_tree_wrapper.html#a593548eb4ae82f686022f08f45908a1d" target="_top" xlink:title="parser.TreeWrapper.print\lTestStatements">
<polygon fill="white" stroke="black" points="230,-88 230,-118 362,-118 362,-88 230,-88"/>
<text text-anchor="start" x="238" y="-106" font-family="Helvetica,sans-Serif" font-size="10.00">parser.TreeWrapper.print</text>
<text text-anchor="middle" x="296" y="-95" font-family="Helvetica,sans-Serif" font-size="10.00">TestStatements</text>
</a>
</g>
</g>
<!-- Node1&#45;&gt;Node7 -->
<g id="edge6" class="edge"><title>Node1&#45;&gt;Node7</title>
<path fill="none" stroke="midnightblue" d="M105.446,-166.338C128.864,-156.01 167.622,-139.563 202,-128 209.354,-125.526 217.098,-123.128 224.848,-120.859"/>
<polygon fill="midnightblue" stroke="midnightblue" points="225.989,-124.173 234.64,-118.058 224.063,-117.443 225.989,-124.173"/>
</g>
<!-- Node8 -->
<g id="node8" class="node"><title>Node8</title>
<g id="a_node8"><a xlink:href="../../d9/dc0/interfaceparser_1_1_tree_wrapper.html#a48f9f037c84b1fecfdefcb3268640f88" target="_top" xlink:title="parser.TreeWrapper.recurse">
<polygon fill="white" stroke="black" points="223,-49.5 223,-68.5 369,-68.5 369,-49.5 223,-49.5"/>
<text text-anchor="middle" x="296" y="-56.5" font-family="Helvetica,sans-Serif" font-size="10.00">parser.TreeWrapper.recurse</text>
</a>
</g>
</g>
<!-- Node1&#45;&gt;Node8 -->
<g id="edge7" class="edge"><title>Node1&#45;&gt;Node8</title>
<path fill="none" stroke="midnightblue" d="M92.6942,-166.238C110.891,-146.456 155.195,-101.605 202,-79 208.095,-76.0563 214.622,-73.5426 221.287,-71.3966"/>
<polygon fill="midnightblue" stroke="midnightblue" points="222.508,-74.6858 231.115,-68.5083 220.534,-67.9698 222.508,-74.6858"/>
</g>
<!-- Node9 -->
<g id="node9" class="node"><title>Node9</title>
<g id="a_node9"><a xlink:href="../../d5/d30/classparser_1_1_command_case.html#a9afa1f06d36261ade7169970904fabee" target="_top" xlink:title="parser.CommandCase.useResource\lBundle">
<polygon fill="white" stroke="black" points="202,-0 202,-30 390,-30 390,-0 202,-0"/>
<text text-anchor="start" x="210" y="-18" font-family="Helvetica,sans-Serif" font-size="10.00">parser.CommandCase.useResource</text>
<text text-anchor="middle" x="296" y="-7" font-family="Helvetica,sans-Serif" font-size="10.00">Bundle</text>
</a>
</g>
</g>
<!-- Node1&#45;&gt;Node9 -->
<g id="edge8" class="edge"><title>Node1&#45;&gt;Node9</title>
<path fill="none" stroke="midnightblue" d="M89.4995,-166.373C104.272,-141.411 147.42,-74.1717 202,-40 205.41,-37.8652 209,-35.9108 212.707,-34.1218"/>
<polygon fill="midnightblue" stroke="midnightblue" points="214.363,-37.2178 222.126,-30.0069 211.561,-30.8033 214.363,-37.2178"/>
</g>
</g>
</svg>
