<?xml version="1.0" encoding="UTF-8" standalone="no"?>
<!DOCTYPE svg PUBLIC "-//W3C//DTD SVG 1.1//EN"
 "http://www.w3.org/Graphics/SVG/1.1/DTD/svg11.dtd">
<!-- Generated by graphviz version 2.36.0 (20140111.2315)
 -->
<!-- Title: parser.CommandCase.obtainSubCommand Pages: 1 -->
<!--zoomable 113 -->
<svg id="main" version="1.1" xmlns="http://www.w3.org/2000/svg" xmlns:xlink="http://www.w3.org/1999/xlink" xml:space="preserve" onload="init(evt)">
<style type="text/css"><![CDATA[
.edge:hover path { stroke: red; }
.edge:hover polygon { stroke: red; fill: red; }
]]></style>
<script type="text/javascript"><![CDATA[
var edges = document.getElementsByTagName('g');
if (edges && edges.length) {
  for (var i=0;i<edges.length;i++) {
    if (edges[i].id.substr(0,4)=='edge') {
      edges[i].setAttribute('class','edge');
    }
  }
}
]]></script>
        <defs>
                <circle id="rim" cx="0" cy="0" r="7"/>
                <circle id="rim2" cx="0" cy="0" r="3.5"/>
                <g id="zoomPlus">
                        <use xlink:href="#rim" fill="#404040">
                                <set attributeName="fill" to="#808080" begin="zoomplus.mouseover" end="zoomplus.mouseout"/>
                        </use>
                        <path d="M-4,0h8M0,-4v8" fill="none" stroke="white" stroke-width="1.5" pointer-events="none"/>
                </g>
                <g id="zoomMin">
                        <use xlink:href="#rim" fill="#404040">
                                <set attributeName="fill" to="#808080" begin="zoomminus.mouseover" end="zoomminus.mouseout"/>
                        </use>
                        <path d="M-4,0h8" fill="none" stroke="white" stroke-width="1.5" pointer-events="none"/>
                </g>
                <g id="dirArrow">
                        <path fill="none" stroke="white" stroke-width="1.5" d="M0,-3.0v7 M-2.5,-0.5L0,-3.0L2.5,-0.5"/>
                </g>
               <g id="resetDef">
                       <use xlink:href="#rim2" fill="#404040">
                               <set attributeName="fill" to="#808080" begin="reset.mouseover" end="reset.mouseout"/>
                       </use>
               </g>
        </defs>

<script type="text/javascript">
var viewWidth = 3270;
var viewHeight = 113;
var sectionId = 'dynsection-11';
</script>
<script xlink:href="../../svgpan.js"/>
<svg id="graph" class="graph">
<g id="viewport">
<title>parser.CommandCase.obtainSubCommand</title>
<polygon fill="white" stroke="none" points="-4,4 -4,-109 3266,-109 3266,4 -4,4"/>
<!-- Node1 -->
<g id="node1" class="node"><title>Node1</title>
<polygon fill="#bfbfbf" stroke="black" points="0.5,-17 0.5,-47 157.5,-47 157.5,-17 0.5,-17"/>
<text text-anchor="start" x="8.5" y="-35" font-family="Helvetica,sans-Serif" font-size="10.00">parser.CommandCase.obtain</text>
<text text-anchor="middle" x="79" y="-24" font-family="Helvetica,sans-Serif" font-size="10.00">SubCommand</text>
</g>
<!-- Node2 -->
<g id="node2" class="node"><title>Node2</title>
<g id="a_node2"><a xlink:href="../../d5/d30/classparser_1_1_command_case.html#a309ba0623929f8d96219c98de00023b0" target="_top" xlink:title="parser.CommandCase.initialize">
<polygon fill="white" stroke="black" points="194.5,-66.5 194.5,-85.5 359.5,-85.5 359.5,-66.5 194.5,-66.5"/>
<text text-anchor="middle" x="277" y="-73.5" font-family="Helvetica,sans-Serif" font-size="10.00">parser.CommandCase.initialize</text>
</a>
</g>
</g>
<!-- Node1&#45;&gt;Node2 -->
<g id="edge1" class="edge"><title>Node1&#45;&gt;Node2</title>
<path fill="none" stroke="midnightblue" d="M156.802,-49.2412C182.94,-55.1089 211.191,-61.451 233.626,-66.4876"/>
<polygon fill="midnightblue" stroke="midnightblue" points="157.428,-45.7947 146.904,-47.0192 155.894,-52.6247 157.428,-45.7947"/>
</g>
<!-- Node21 -->
<g id="node21" class="node"><title>Node21</title>
<g id="a_node21"><a xlink:href="../../d5/d30/classparser_1_1_command_case.html#a02f0603f41bb9fa479d9608a195f203d" target="_top" xlink:title="parser.CommandCase.making\lInstructionsCase">
<polygon fill="white" stroke="black" points="196,-17 196,-47 358,-47 358,-17 196,-17"/>
<text text-anchor="start" x="204" y="-35" font-family="Helvetica,sans-Serif" font-size="10.00">parser.CommandCase.making</text>
<text text-anchor="middle" x="277" y="-24" font-family="Helvetica,sans-Serif" font-size="10.00">InstructionsCase</text>
</a>
</g>
</g>
<!-- Node1&#45;&gt;Node21 -->
<g id="edge20" class="edge"><title>Node1&#45;&gt;Node21</title>
<path fill="none" stroke="midnightblue" d="M167.792,-32C177.11,-32 186.552,-32 195.777,-32"/>
<polygon fill="midnightblue" stroke="midnightblue" points="167.746,-28.5001 157.746,-32 167.746,-35.5001 167.746,-28.5001"/>
</g>
<!-- Node22 -->
<g id="node22" class="node"><title>Node22</title>
<g id="a_node22"><a xlink:href="../../d5/d30/classparser_1_1_command_case.html#a65e1e45269c10f4611f02192244755c3" target="_top" xlink:title="parser.CommandCase.recurse">
<polygon fill="white" stroke="black" points="396.5,-0.5 396.5,-19.5 559.5,-19.5 559.5,-0.5 396.5,-0.5"/>
<text text-anchor="middle" x="478" y="-7.5" font-family="Helvetica,sans-Serif" font-size="10.00">parser.CommandCase.recurse</text>
</a>
</g>
</g>
<!-- Node1&#45;&gt;Node22 -->
<g id="edge22" class="edge"><title>Node1&#45;&gt;Node22</title>
<path fill="none" stroke="midnightblue" d="M146.943,-14.7992C162.3,-11.5582 178.632,-8.66527 194,-7 261.9,0.357726 339.497,-1.15902 396.244,-4.08229"/>
<polygon fill="midnightblue" stroke="midnightblue" points="146.033,-11.4152 137.011,-16.9698 147.528,-18.2538 146.033,-11.4152"/>
</g>
<!-- Node3 -->
<g id="node3" class="node"><title>Node3</title>
<g id="a_node3"><a xlink:href="../../d0/d05/classparser_1_1_tree_generator.html#acf44e3a80bec76756c2bb09124dc4c8d" target="_top" xlink:title="parser.TreeGenerator.create\lCommands">
<polygon fill="white" stroke="black" points="402.5,-61 402.5,-91 553.5,-91 553.5,-61 402.5,-61"/>
<text text-anchor="start" x="410.5" y="-79" font-family="Helvetica,sans-Serif" font-size="10.00">parser.TreeGenerator.create</text>
<text text-anchor="middle" x="478" y="-68" font-family="Helvetica,sans-Serif" font-size="10.00">Commands</text>
</a>
</g>
</g>
<!-- Node2&#45;&gt;Node3 -->
<g id="edge2" class="edge"><title>Node2&#45;&gt;Node3</title>
<path fill="none" stroke="midnightblue" d="M369.545,-76C380.523,-76 391.63,-76 402.329,-76"/>
<polygon fill="midnightblue" stroke="midnightblue" points="369.515,-72.5001 359.515,-76 369.515,-79.5001 369.515,-72.5001"/>
</g>
<!-- Node4 -->
<g id="node4" class="node"><title>Node4</title>
<g id="a_node4"><a xlink:href="../../d9/df7/classcontroller_1_1_controller.html#a3d81fb1a57114f96fb6c319f4c5df370" target="_top" xlink:title="controller.Controller.parse\lCommand">
<polygon fill="white" stroke="black" points="596,-61 596,-91 736,-91 736,-61 596,-61"/>
<text text-anchor="start" x="604" y="-79" font-family="Helvetica,sans-Serif" font-size="10.00">controller.Controller.parse</text>
<text text-anchor="middle" x="666" y="-68" font-family="Helvetica,sans-Serif" font-size="10.00">Command</text>
</a>
</g>
</g>
<!-- Node3&#45;&gt;Node4 -->
<g id="edge3" class="edge"><title>Node3&#45;&gt;Node4</title>
<path fill="none" stroke="midnightblue" d="M563.798,-76C574.52,-76 585.388,-76 595.827,-76"/>
<polygon fill="midnightblue" stroke="midnightblue" points="563.582,-72.5001 553.582,-76 563.582,-79.5001 563.582,-72.5001"/>
</g>
<!-- Node5 -->
<g id="node5" class="node"><title>Node5</title>
<g id="a_node5"><a xlink:href="../../d5/d06/classui_1_1_scene_updater.html#ab77a04f8b0038429b09237aac18906e8" target="_top" xlink:title="ui.SceneUpdater.sendCommands">
<polygon fill="white" stroke="black" points="772,-66.5 772,-85.5 950,-85.5 950,-66.5 772,-66.5"/>
<text text-anchor="middle" x="861" y="-73.5" font-family="Helvetica,sans-Serif" font-size="10.00">ui.SceneUpdater.sendCommands</text>
</a>
</g>
</g>
<!-- Node4&#45;&gt;Node5 -->
<g id="edge4" class="edge"><title>Node4&#45;&gt;Node5</title>
<path fill="none" stroke="midnightblue" d="M746.294,-76C754.713,-76 763.313,-76 771.825,-76"/>
<polygon fill="midnightblue" stroke="midnightblue" points="746.132,-72.5001 736.132,-76 746.132,-79.5001 746.132,-72.5001"/>
</g>
<!-- Node6 -->
<g id="node6" class="node"><title>Node6</title>
<g id="a_node6"><a xlink:href="../../dc/d3b/classui_1_1_g_u_i.html#ad8f08a79a20a498bcaafdc7e2e2ce0a9" target="_top" xlink:title="ui.GUI.parseCommand">
<polygon fill="white" stroke="black" points="986.5,-66.5 986.5,-85.5 1111.5,-85.5 1111.5,-66.5 986.5,-66.5"/>
<text text-anchor="middle" x="1049" y="-73.5" font-family="Helvetica,sans-Serif" font-size="10.00">ui.GUI.parseCommand</text>
</a>
</g>
</g>
<!-- Node5&#45;&gt;Node6 -->
<g id="edge5" class="edge"><title>Node5&#45;&gt;Node6</title>
<path fill="none" stroke="midnightblue" d="M960.196,-76C969.132,-76 978.003,-76 986.479,-76"/>
<polygon fill="midnightblue" stroke="midnightblue" points="960.098,-72.5001 950.098,-76 960.098,-79.5001 960.098,-72.5001"/>
</g>
<!-- Node7 -->
<g id="node7" class="node"><title>Node7</title>
<g id="a_node7"><a xlink:href="../../d8/d3c/classui_1_1elements_1_1_i_o_element.html#a139a046f0c771f86696f2eee04047c64" target="_top" xlink:title="ui.elements.IOElement.init">
<polygon fill="white" stroke="black" points="1164.5,-85.5 1164.5,-104.5 1307.5,-104.5 1307.5,-85.5 1164.5,-85.5"/>
<text text-anchor="middle" x="1236" y="-92.5" font-family="Helvetica,sans-Serif" font-size="10.00">ui.elements.IOElement.init</text>
</a>
</g>
</g>
<!-- Node6&#45;&gt;Node7 -->
<g id="edge6" class="edge"><title>Node6&#45;&gt;Node7</title>
<path fill="none" stroke="midnightblue" d="M1121.68,-83.3614C1135.7,-84.8019 1150.4,-86.3116 1164.39,-87.7485"/>
<polygon fill="midnightblue" stroke="midnightblue" points="1121.91,-79.8668 1111.6,-82.3267 1121.19,-86.8302 1121.91,-79.8668"/>
</g>
<!-- Node9 -->
<g id="node9" class="node"><title>Node9</title>
<g id="a_node9"><a xlink:href="../../dc/d3b/classui_1_1_g_u_i.html#ab8ec2a37b3d5bd9e8c2abbb3642fb965" target="_top" xlink:title="ui.GUI.setupKeyboardCommands">
<polygon fill="white" stroke="black" points="1148.5,-47.5 1148.5,-66.5 1323.5,-66.5 1323.5,-47.5 1148.5,-47.5"/>
<text text-anchor="middle" x="1236" y="-54.5" font-family="Helvetica,sans-Serif" font-size="10.00">ui.GUI.setupKeyboardCommands</text>
</a>
</g>
</g>
<!-- Node6&#45;&gt;Node9 -->
<g id="edge8" class="edge"><title>Node6&#45;&gt;Node9</title>
<path fill="none" stroke="midnightblue" d="M1121.69,-68.6368C1130.41,-67.7417 1139.39,-66.8199 1148.29,-65.9054"/>
<polygon fill="midnightblue" stroke="midnightblue" points="1121.19,-65.1698 1111.6,-69.6733 1121.91,-72.1332 1121.19,-65.1698"/>
</g>
<!-- Node8 -->
<g id="node8" class="node"><title>Node8</title>
<g id="a_node8"><a xlink:href="../../d8/d3c/classui_1_1elements_1_1_i_o_element.html#a556e1a3ad292fe3ab731065eef59b187" target="_top" xlink:title="ui.elements.IOElement.IOElement">
<polygon fill="white" stroke="black" points="1360,-85.5 1360,-104.5 1538,-104.5 1538,-85.5 1360,-85.5"/>
<text text-anchor="middle" x="1449" y="-92.5" font-family="Helvetica,sans-Serif" font-size="10.00">ui.elements.IOElement.IOElement</text>
</a>
</g>
</g>
<!-- Node7&#45;&gt;Node8 -->
<g id="edge7" class="edge"><title>Node7&#45;&gt;Node8</title>
<path fill="none" stroke="midnightblue" d="M1317.92,-95C1331.65,-95 1345.97,-95 1359.88,-95"/>
<polygon fill="midnightblue" stroke="midnightblue" points="1317.55,-91.5001 1307.55,-95 1317.55,-98.5001 1317.55,-91.5001"/>
</g>
<!-- Node10 -->
<g id="node10" class="node"><title>Node10</title>
<g id="a_node10"><a xlink:href="../../dc/d3b/classui_1_1_g_u_i.html#a765d554102f38969231261686f2f8e27" target="_top" xlink:title="ui.GUI.initialize">
<polygon fill="white" stroke="black" points="1406,-47.5 1406,-66.5 1492,-66.5 1492,-47.5 1406,-47.5"/>
<text text-anchor="middle" x="1449" y="-54.5" font-family="Helvetica,sans-Serif" font-size="10.00">ui.GUI.initialize</text>
</a>
</g>
</g>
<!-- Node9&#45;&gt;Node10 -->
<g id="edge9" class="edge"><title>Node9&#45;&gt;Node10</title>
<path fill="none" stroke="midnightblue" d="M1333.75,-57C1359.02,-57 1384.96,-57 1405.72,-57"/>
<polygon fill="midnightblue" stroke="midnightblue" points="1333.74,-53.5001 1323.74,-57 1333.74,-60.5001 1333.74,-53.5001"/>
</g>
<!-- Node11 -->
<g id="node11" class="node"><title>Node11</title>
<g id="a_node11"><a xlink:href="../../d5/d06/classui_1_1_scene_updater.html#aeef5dd7a8ec2ad6179e33fdd71ea90d6" target="_top" xlink:title="ui.SceneUpdater.initGUI">
<polygon fill="white" stroke="black" points="1574.5,-47.5 1574.5,-66.5 1705.5,-66.5 1705.5,-47.5 1574.5,-47.5"/>
<text text-anchor="middle" x="1640" y="-54.5" font-family="Helvetica,sans-Serif" font-size="10.00">ui.SceneUpdater.initGUI</text>
</a>
</g>
</g>
<!-- Node10&#45;&gt;Node11 -->
<g id="edge10" class="edge"><title>Node10&#45;&gt;Node11</title>
<path fill="none" stroke="midnightblue" d="M1502.67,-57C1524.92,-57 1551.05,-57 1574.45,-57"/>
<polygon fill="midnightblue" stroke="midnightblue" points="1502.42,-53.5001 1492.42,-57 1502.42,-60.5001 1502.42,-53.5001"/>
</g>
<!-- Node12 -->
<g id="node12" class="node"><title>Node12</title>
<g id="a_node12"><a xlink:href="../../d9/df7/classcontroller_1_1_controller.html#a57e42ba83ee2145e6262cd72eac59570" target="_top" xlink:title="controller.Controller.init">
<polygon fill="white" stroke="black" points="1742.5,-47.5 1742.5,-66.5 1869.5,-66.5 1869.5,-47.5 1742.5,-47.5"/>
<text text-anchor="middle" x="1806" y="-54.5" font-family="Helvetica,sans-Serif" font-size="10.00">controller.Controller.init</text>
</a>
</g>
</g>
<!-- Node11&#45;&gt;Node12 -->
<g id="edge11" class="edge"><title>Node11&#45;&gt;Node12</title>
<path fill="none" stroke="midnightblue" d="M1716.04,-57C1724.81,-57 1733.68,-57 1742.26,-57"/>
<polygon fill="midnightblue" stroke="midnightblue" points="1715.82,-53.5001 1705.82,-57 1715.82,-60.5001 1715.82,-53.5001"/>
</g>
<!-- Node13 -->
<g id="node13" class="node"><title>Node13</title>
<g id="a_node13"><a xlink:href="../../dd/df2/classmain_1_1_workspace_manager.html#abc818b59211f6e14940b86a42bb868d0" target="_top" xlink:title="main.WorkspaceManager.create\lWorkspace">
<polygon fill="white" stroke="black" points="1906,-42 1906,-72 2076,-72 2076,-42 1906,-42"/>
<text text-anchor="start" x="1914" y="-60" font-family="Helvetica,sans-Serif" font-size="10.00">main.WorkspaceManager.create</text>
<text text-anchor="middle" x="1991" y="-49" font-family="Helvetica,sans-Serif" font-size="10.00">Workspace</text>
</a>
</g>
</g>
<!-- Node12&#45;&gt;Node13 -->
<g id="edge12" class="edge"><title>Node12&#45;&gt;Node13</title>
<path fill="none" stroke="midnightblue" d="M1879.92,-57C1888.39,-57 1897.08,-57 1905.69,-57"/>
<polygon fill="midnightblue" stroke="midnightblue" points="1879.72,-53.5001 1869.72,-57 1879.72,-60.5001 1879.72,-53.5001"/>
</g>
<!-- Node14 -->
<g id="node14" class="node"><title>Node14</title>
<g id="a_node14"><a xlink:href="../../d9/df7/classcontroller_1_1_controller.html#a3a9d672bb57047df70945ad1a9582c9a" target="_top" xlink:title="controller.Controller.create\lNewWorkspace">
<polygon fill="white" stroke="black" points="2112.5,-64 2112.5,-94 2255.5,-94 2255.5,-64 2112.5,-64"/>
<text text-anchor="start" x="2120.5" y="-82" font-family="Helvetica,sans-Serif" font-size="10.00">controller.Controller.create</text>
<text text-anchor="middle" x="2184" y="-71" font-family="Helvetica,sans-Serif" font-size="10.00">NewWorkspace</text>
</a>
</g>
</g>
<!-- Node13&#45;&gt;Node14 -->
<g id="edge13" class="edge"><title>Node13&#45;&gt;Node14</title>
<path fill="none" stroke="midnightblue" d="M2086.03,-67.8303C2094.88,-68.8503 2103.75,-69.8721 2112.34,-70.8608"/>
<polygon fill="midnightblue" stroke="midnightblue" points="2086.39,-64.3489 2076.05,-66.6815 2085.59,-71.3029 2086.39,-64.3489"/>
</g>
<!-- Node20 -->
<g id="node20" class="node"><title>Node20</title>
<g id="a_node20"><a xlink:href="../../d1/d0b/classmain_1_1_main.html#a9f1e5657b2f6f9bdd69a3b6412ceda74" target="_top" xlink:title="main.Main.start">
<polygon fill="white" stroke="black" points="2138,-25.5 2138,-44.5 2230,-44.5 2230,-25.5 2138,-25.5"/>
<text text-anchor="middle" x="2184" y="-32.5" font-family="Helvetica,sans-Serif" font-size="10.00">main.Main.start</text>
</a>
</g>
</g>
<!-- Node13&#45;&gt;Node20 -->
<g id="edge19" class="edge"><title>Node13&#45;&gt;Node20</title>
<path fill="none" stroke="midnightblue" d="M2086.09,-46.1629C2104.19,-44.0779 2122.36,-41.9851 2137.99,-40.1843"/>
<polygon fill="midnightblue" stroke="midnightblue" points="2085.59,-42.6971 2076.05,-47.3185 2086.39,-49.6511 2085.59,-42.6971"/>
</g>
<!-- Node15 -->
<g id="node15" class="node"><title>Node15</title>
<g id="a_node15"><a xlink:href="../../d5/d06/classui_1_1_scene_updater.html#a2858ad8edb0c0f59a21e2ae015f2fa1e" target="_top" xlink:title="ui.SceneUpdater.createNew\lWorkspace">
<polygon fill="white" stroke="black" points="2292,-64 2292,-94 2442,-94 2442,-64 2292,-64"/>
<text text-anchor="start" x="2300" y="-82" font-family="Helvetica,sans-Serif" font-size="10.00">ui.SceneUpdater.createNew</text>
<text text-anchor="middle" x="2367" y="-71" font-family="Helvetica,sans-Serif" font-size="10.00">Workspace</text>
</a>
</g>
</g>
<!-- Node14&#45;&gt;Node15 -->
<g id="edge14" class="edge"><title>Node14&#45;&gt;Node15</title>
<path fill="none" stroke="midnightblue" d="M2265.8,-79C2274.43,-79 2283.17,-79 2291.71,-79"/>
<polygon fill="midnightblue" stroke="midnightblue" points="2265.76,-75.5001 2255.76,-79 2265.76,-82.5001 2265.76,-75.5001"/>
</g>
<!-- Node16 -->
<g id="node16" class="node"><title>Node16</title>
<g id="a_node16"><a xlink:href="../../dc/d3b/classui_1_1_g_u_i.html#a2edc294ba07311e6c4b85c9fe749d1bf" target="_top" xlink:title="ui.GUI.createNewWorkspace">
<polygon fill="white" stroke="black" points="2478,-69.5 2478,-88.5 2628,-88.5 2628,-69.5 2478,-69.5"/>
<text text-anchor="middle" x="2553" y="-76.5" font-family="Helvetica,sans-Serif" font-size="10.00">ui.GUI.createNewWorkspace</text>
</a>
</g>
</g>
<!-- Node15&#45;&gt;Node16 -->
<g id="edge15" class="edge"><title>Node15&#45;&gt;Node16</title>
<path fill="none" stroke="midnightblue" d="M2452.07,-79C2460.65,-79 2469.34,-79 2477.81,-79"/>
<polygon fill="midnightblue" stroke="midnightblue" points="2452.04,-75.5001 2442.04,-79 2452.04,-82.5001 2452.04,-75.5001"/>
</g>
<!-- Node17 -->
<g id="node17" class="node"><title>Node17</title>
<g id="a_node17"><a xlink:href="../../d0/de6/classui_1_1elements_1_1_menu_bar_element.html#a98c13995a31d997aa10f2950583da6cc" target="_top" xlink:title="ui.elements.MenuBarElement.make\lMenuBar">
<polygon fill="white" stroke="black" points="2664,-64 2664,-94 2852,-94 2852,-64 2664,-64"/>
<text text-anchor="start" x="2672" y="-82" font-family="Helvetica,sans-Serif" font-size="10.00">ui.elements.MenuBarElement.make</text>
<text text-anchor="middle" x="2758" y="-71" font-family="Helvetica,sans-Serif" font-size="10.00">MenuBar</text>
</a>
</g>
</g>
<!-- Node16&#45;&gt;Node17 -->
<g id="edge16" class="edge"><title>Node16&#45;&gt;Node17</title>
<path fill="none" stroke="midnightblue" d="M2638.28,-79C2646.66,-79 2655.21,-79 2663.68,-79"/>
<polygon fill="midnightblue" stroke="midnightblue" points="2638.15,-75.5001 2628.15,-79 2638.15,-82.5001 2638.15,-75.5001"/>
</g>
<!-- Node18 -->
<g id="node18" class="node"><title>Node18</title>
<g id="a_node18"><a xlink:href="../../d0/de6/classui_1_1elements_1_1_menu_bar_element.html#a7bdb58f78cf8b61ba28498c5c86ab682" target="_top" xlink:title="ui.elements.MenuBarElement.init">
<polygon fill="white" stroke="black" points="2888,-69.5 2888,-88.5 3064,-88.5 3064,-69.5 2888,-69.5"/>
<text text-anchor="middle" x="2976" y="-76.5" font-family="Helvetica,sans-Serif" font-size="10.00">ui.elements.MenuBarElement.init</text>
</a>
</g>
</g>
<!-- Node17&#45;&gt;Node18 -->
<g id="edge17" class="edge"><title>Node17&#45;&gt;Node18</title>
<path fill="none" stroke="midnightblue" d="M2862.23,-79C2870.83,-79 2879.48,-79 2887.94,-79"/>
<polygon fill="midnightblue" stroke="midnightblue" points="2862.17,-75.5001 2852.17,-79 2862.17,-82.5001 2862.17,-75.5001"/>
</g>
<!-- Node19 -->
<g id="node19" class="node"><title>Node19</title>
<g id="a_node19"><a xlink:href="../../d0/de6/classui_1_1elements_1_1_menu_bar_element.html#ab4a4e6841c924a9d9c70b8073b56dffc" target="_top" xlink:title="ui.elements.MenuBarElement.\lMenuBarElement">
<polygon fill="white" stroke="black" points="3100.5,-64 3100.5,-94 3261.5,-94 3261.5,-64 3100.5,-64"/>
<text text-anchor="start" x="3108.5" y="-82" font-family="Helvetica,sans-Serif" font-size="10.00">ui.elements.MenuBarElement.</text>
<text text-anchor="middle" x="3181" y="-71" font-family="Helvetica,sans-Serif" font-size="10.00">MenuBarElement</text>
</a>
</g>
</g>
<!-- Node18&#45;&gt;Node19 -->
<g id="edge18" class="edge"><title>Node18&#45;&gt;Node19</title>
<path fill="none" stroke="midnightblue" d="M3074.47,-79C3083.19,-79 3091.95,-79 3100.5,-79"/>
<polygon fill="midnightblue" stroke="midnightblue" points="3074.27,-75.5001 3064.27,-79 3074.27,-82.5001 3074.27,-75.5001"/>
</g>
<!-- Node21&#45;&gt;Node22 -->
<g id="edge21" class="edge"><title>Node21&#45;&gt;Node22</title>
<path fill="none" stroke="midnightblue" d="M368.226,-22.0253C377.631,-20.9855 387.147,-19.9335 396.435,-18.9067"/>
<polygon fill="midnightblue" stroke="midnightblue" points="367.636,-18.5691 358.081,-23.1469 368.405,-25.5267 367.636,-18.5691"/>
</g>
</g>
</svg>
        <g id="navigator" transform="translate(0 0)" fill="#404254">
                <rect fill="#f2f5e9" fill-opacity="0.5" stroke="#606060" stroke-width=".5" x="0" y="0" width="60" height="60"/>
                <use id="zoomplus" xlink:href="#zoomPlus" x="17" y="9" onmousedown="handleZoom(evt,'in')"/>
                <use id="zoomminus" xlink:href="#zoomMin" x="42" y="9" onmousedown="handleZoom(evt,'out')"/>
                <use id="reset" xlink:href="#resetDef" x="30" y="36" onmousedown="handleReset()"/>
                <g id="arrowUp" xlink:href="#dirArrow" transform="translate(30 24)" onmousedown="handlePan(0,-1)">
                  <use xlink:href="#rim" fill="#404040">
                        <set attributeName="fill" to="#808080" begin="arrowUp.mouseover" end="arrowUp.mouseout"/>
                  </use>
                  <path fill="none" stroke="white" stroke-width="1.5" d="M0,-3.0v7 M-2.5,-0.5L0,-3.0L2.5,-0.5"/>
                </g>
                <g id="arrowRight" xlink:href="#dirArrow" transform="rotate(90) translate(36 -43)" onmousedown="handlePan(1,0)">
                  <use xlink:href="#rim" fill="#404040">
                        <set attributeName="fill" to="#808080" begin="arrowRight.mouseover" end="arrowRight.mouseout"/>
                  </use>
                  <path fill="none" stroke="white" stroke-width="1.5" d="M0,-3.0v7 M-2.5,-0.5L0,-3.0L2.5,-0.5"/>
                </g>
                <g id="arrowDown" xlink:href="#dirArrow" transform="rotate(180) translate(-30 -48)" onmousedown="handlePan(0,1)">
                  <use xlink:href="#rim" fill="#404040">
                        <set attributeName="fill" to="#808080" begin="arrowDown.mouseover" end="arrowDown.mouseout"/>
                  </use>
                  <path fill="none" stroke="white" stroke-width="1.5" d="M0,-3.0v7 M-2.5,-0.5L0,-3.0L2.5,-0.5"/>
                </g>
                <g id="arrowLeft" xlink:href="#dirArrow" transform="rotate(270) translate(-36 17)" onmousedown="handlePan(-1,0)">
                  <use xlink:href="#rim" fill="#404040">
                        <set attributeName="fill" to="#808080" begin="arrowLeft.mouseover" end="arrowLeft.mouseout"/>
                  </use>
                  <path fill="none" stroke="white" stroke-width="1.5" d="M0,-3.0v7 M-2.5,-0.5L0,-3.0L2.5,-0.5"/>
                </g>
        </g>
        <svg viewBox="0 0 15 15" width="100%" height="30px" preserveAspectRatio="xMaxYMin meet">
         <g id="arrow_out" transform="scale(0.3 0.3)">
          <a xlink:href="classparser_1_1_command_case_a37b719ff1e44b8c2539ec8a3d3dec65e_icgraph_org.svg" target="_base">
           <rect id="button" ry="5" rx="5" y="6" x="6" height="38" width="38"
                fill="#f2f5e9" fill-opacity="0.5" stroke="#606060" stroke-width="1.0"/>
           <path id="arrow"
             d="M 11.500037,31.436501 C 11.940474,20.09759 22.043105,11.32322 32.158766,21.979434 L 37.068811,17.246167 C 37.068811,17.246167 37.088388,32 37.088388,32 L 22.160133,31.978069 C 22.160133,31.978069 26.997745,27.140456 26.997745,27.140456 C 18.528582,18.264221 13.291696,25.230495 11.500037,31.436501 z"
             style="fill:#404040;"/>
          </a>
         </g>
        </svg>
</svg>
