<?xml version="1.0" encoding="UTF-8" standalone="no"?>
<!DOCTYPE svg PUBLIC "-//W3C//DTD SVG 1.1//EN"
 "http://www.w3.org/Graphics/SVG/1.1/DTD/svg11.dtd">
<!-- Generated by graphviz version 2.36.0 (20140111.2315)
 -->
<!-- Title: parser.CommandCase.recurse Pages: 1 -->
<svg width="626pt" height="453pt"
 viewBox="0.00 0.00 626.00 453.07" xmlns="http://www.w3.org/2000/svg" xmlns:xlink="http://www.w3.org/1999/xlink">
<g id="graph0" class="graph" transform="scale(1 1) rotate(0) translate(4 449.068)">
<title>parser.CommandCase.recurse</title>
<polygon fill="white" stroke="none" points="-4,4 -4,-449.068 622,-449.068 622,4 -4,4"/>
<!-- Node1 -->
<g id="node1" class="node"><title>Node1</title>
<polygon fill="#bfbfbf" stroke="black" points="0.5,-223.5 0.5,-242.5 163.5,-242.5 163.5,-223.5 0.5,-223.5"/>
<text text-anchor="middle" x="82" y="-230.5" font-family="Helvetica,sans-Serif" font-size="10.00">parser.CommandCase.recurse</text>
</g>
<!-- Node2 -->
<g id="node2" class="node"><title>Node2</title>
<g id="a_node2"><a xlink:href="../../dc/d9e/classparser_1_1_command_tree_node.html#ad6cbb5376973ef15c1831187b297d071" target="_top" xlink:title="parser.CommandTreeNode.add">
<polygon fill="white" stroke="black" points="438,-424.5 438,-443.5 604,-443.5 604,-424.5 438,-424.5"/>
<text text-anchor="middle" x="521" y="-431.5" font-family="Helvetica,sans-Serif" font-size="10.00">parser.CommandTreeNode.add</text>
</a>
</g>
</g>
<!-- Node1&#45;&gt;Node2 -->
<g id="edge1" class="edge"><title>Node1&#45;&gt;Node2</title>
<path fill="none" stroke="midnightblue" d="M86.428,-242.792C97.4485,-272.634 135.087,-362.738 200,-401 269.105,-441.733 361.394,-447.147 429.101,-444.052"/>
<polygon fill="midnightblue" stroke="midnightblue" points="429.526,-447.535 439.327,-443.512 429.156,-440.544 429.526,-447.535"/>
</g>
<!-- Node3 -->
<g id="node3" class="node"><title>Node3</title>
<g id="a_node3"><a xlink:href="../../d9/dc0/interfaceparser_1_1_tree_wrapper.html#abf33b5a3ce13b389b9f69be49b18b998" target="_top" xlink:title="parser.TreeWrapper.getIndex">
<polygon fill="white" stroke="black" points="218,-147.5 218,-166.5 370,-166.5 370,-147.5 218,-147.5"/>
<text text-anchor="middle" x="294" y="-154.5" font-family="Helvetica,sans-Serif" font-size="10.00">parser.TreeWrapper.getIndex</text>
</a>
</g>
</g>
<!-- Node1&#45;&gt;Node3 -->
<g id="edge2" class="edge"><title>Node1&#45;&gt;Node3</title>
<path fill="none" stroke="midnightblue" d="M102.063,-223.349C124.9,-212.066 164.527,-193.364 200,-181 212.798,-176.539 226.845,-172.491 240.057,-169.044"/>
<polygon fill="midnightblue" stroke="midnightblue" points="241.132,-172.382 249.963,-166.529 239.409,-165.598 241.132,-172.382"/>
</g>
<!-- Node4 -->
<g id="node4" class="node"><title>Node4</title>
<g id="a_node4"><a xlink:href="../../dc/d9e/classparser_1_1_command_tree_node.html#a73e4ab6ebca47d41b993f0e66ee4c8d2" target="_top" xlink:title="parser.CommandTreeNode.getName">
<polygon fill="white" stroke="black" points="424.5,-386.5 424.5,-405.5 617.5,-405.5 617.5,-386.5 424.5,-386.5"/>
<text text-anchor="middle" x="521" y="-393.5" font-family="Helvetica,sans-Serif" font-size="10.00">parser.CommandTreeNode.getName</text>
</a>
</g>
</g>
<!-- Node1&#45;&gt;Node4 -->
<g id="edge3" class="edge"><title>Node1&#45;&gt;Node4</title>
<path fill="none" stroke="midnightblue" d="M87.9337,-242.736C101.613,-268.56 142.819,-338.811 200,-368 268.505,-402.97 356.077,-408.387 422.287,-405.944"/>
<polygon fill="midnightblue" stroke="midnightblue" points="422.47,-409.44 432.309,-405.509 422.166,-402.446 422.47,-409.44"/>
</g>
<!-- Node5 -->
<g id="node5" class="node"><title>Node5</title>
<g id="a_node5"><a xlink:href="../../dc/d9e/classparser_1_1_command_tree_node.html#a8bb8a112395f78809b0be06f1c3f5282" target="_top" xlink:title="parser.CommandTreeNode.getType">
<polygon fill="white" stroke="black" points="428.5,-347.5 428.5,-366.5 613.5,-366.5 613.5,-347.5 428.5,-347.5"/>
<text text-anchor="middle" x="521" y="-354.5" font-family="Helvetica,sans-Serif" font-size="10.00">parser.CommandTreeNode.getType</text>
</a>
</g>
</g>
<!-- Node1&#45;&gt;Node5 -->
<g id="edge4" class="edge"><title>Node1&#45;&gt;Node5</title>
<path fill="none" stroke="midnightblue" d="M89.8429,-242.632C106.034,-264.52 149.174,-317.742 200,-339 274.95,-370.349 368.496,-371.794 435.047,-367.249"/>
<polygon fill="midnightblue" stroke="midnightblue" points="435.363,-370.735 445.077,-366.505 434.845,-363.754 435.363,-370.735"/>
</g>
<!-- Node6 -->
<g id="node6" class="node"><title>Node6</title>
<g id="a_node6"><a xlink:href="../../d9/dc0/interfaceparser_1_1_tree_wrapper.html#a251d9d9bb7c3ea34688bfa30cc465270" target="_top" xlink:title="parser.TreeWrapper.increment\lIndex">
<polygon fill="white" stroke="black" points="214.5,-98 214.5,-128 373.5,-128 373.5,-98 214.5,-98"/>
<text text-anchor="start" x="222.5" y="-116" font-family="Helvetica,sans-Serif" font-size="10.00">parser.TreeWrapper.increment</text>
<text text-anchor="middle" x="294" y="-105" font-family="Helvetica,sans-Serif" font-size="10.00">Index</text>
</a>
</g>
</g>
<!-- Node1&#45;&gt;Node6 -->
<g id="edge5" class="edge"><title>Node1&#45;&gt;Node6</title>
<path fill="none" stroke="midnightblue" d="M92.0239,-223.343C110.461,-204.182 154.564,-161.212 200,-138 204.536,-135.683 209.31,-133.563 214.201,-131.626"/>
<polygon fill="midnightblue" stroke="midnightblue" points="215.542,-134.862 223.718,-128.124 213.125,-128.293 215.542,-134.862"/>
</g>
<!-- Node7 -->
<g id="node7" class="node"><title>Node7</title>
<g id="a_node7"><a xlink:href="../../d5/d30/classparser_1_1_command_case.html#a02f0603f41bb9fa479d9608a195f203d" target="_top" xlink:title="parser.CommandCase.making\lInstructionsCase">
<polygon fill="white" stroke="black" points="213,-300 213,-330 375,-330 375,-300 213,-300"/>
<text text-anchor="start" x="221" y="-318" font-family="Helvetica,sans-Serif" font-size="10.00">parser.CommandCase.making</text>
<text text-anchor="middle" x="294" y="-307" font-family="Helvetica,sans-Serif" font-size="10.00">InstructionsCase</text>
</a>
</g>
</g>
<!-- Node1&#45;&gt;Node7 -->
<g id="edge6" class="edge"><title>Node1&#45;&gt;Node7</title>
<path fill="none" stroke="midnightblue" d="M103.018,-242.679C126.101,-253.655 165.326,-271.745 200,-285 210.663,-289.076 222.146,-293.082 233.281,-296.773"/>
<polygon fill="midnightblue" stroke="midnightblue" points="232.355,-300.153 242.947,-299.93 234.528,-293.499 232.355,-300.153"/>
</g>
<!-- Node8 -->
<g id="node8" class="node"><title>Node8</title>
<g id="a_node8"><a xlink:href="../../d5/d30/classparser_1_1_command_case.html#a37b719ff1e44b8c2539ec8a3d3dec65e" target="_top" xlink:title="parser.CommandCase.obtain\lSubCommand">
<polygon fill="white" stroke="black" points="442.5,-296 442.5,-326 599.5,-326 599.5,-296 442.5,-296"/>
<text text-anchor="start" x="450.5" y="-314" font-family="Helvetica,sans-Serif" font-size="10.00">parser.CommandCase.obtain</text>
<text text-anchor="middle" x="521" y="-303" font-family="Helvetica,sans-Serif" font-size="10.00">SubCommand</text>
</a>
</g>
</g>
<!-- Node1&#45;&gt;Node8 -->
<g id="edge14" class="edge"><title>Node1&#45;&gt;Node8</title>
<path fill="none" stroke="midnightblue" d="M127.652,-242.543C149.438,-247.101 176.05,-252.524 200,-257 278.329,-271.638 367.782,-286.584 432.158,-297.03"/>
<polygon fill="midnightblue" stroke="midnightblue" points="431.839,-300.524 442.27,-298.667 432.958,-293.614 431.839,-300.524"/>
</g>
<!-- Node9 -->
<g id="node9" class="node"><title>Node9</title>
<g id="a_node9"><a xlink:href="../../d9/dc0/interfaceparser_1_1_tree_wrapper.html#a593548eb4ae82f686022f08f45908a1d" target="_top" xlink:title="parser.TreeWrapper.print\lTestStatements">
<polygon fill="white" stroke="black" points="455,-244 455,-274 587,-274 587,-244 455,-244"/>
<text text-anchor="start" x="463" y="-262" font-family="Helvetica,sans-Serif" font-size="10.00">parser.TreeWrapper.print</text>
<text text-anchor="middle" x="521" y="-251" font-family="Helvetica,sans-Serif" font-size="10.00">TestStatements</text>
</a>
</g>
</g>
<!-- Node1&#45;&gt;Node9 -->
<g id="edge15" class="edge"><title>Node1&#45;&gt;Node9</title>
<path fill="none" stroke="midnightblue" d="M163.662,-237.799C243.909,-242.574 366.081,-249.842 444.478,-254.507"/>
<polygon fill="midnightblue" stroke="midnightblue" points="444.575,-258.019 454.765,-255.119 444.99,-251.031 444.575,-258.019"/>
</g>
<!-- Node10 -->
<g id="node10" class="node"><title>Node10</title>
<g id="a_node10"><a xlink:href="../../d9/dc0/interfaceparser_1_1_tree_wrapper.html#a48f9f037c84b1fecfdefcb3268640f88" target="_top" xlink:title="parser.TreeWrapper.recurse">
<polygon fill="white" stroke="black" points="448,-198.5 448,-217.5 594,-217.5 594,-198.5 448,-198.5"/>
<text text-anchor="middle" x="521" y="-205.5" font-family="Helvetica,sans-Serif" font-size="10.00">parser.TreeWrapper.recurse</text>
</a>
</g>
</g>
<!-- Node1&#45;&gt;Node10 -->
<g id="edge16" class="edge"><title>Node1&#45;&gt;Node10</title>
<path fill="none" stroke="midnightblue" d="M154.369,-223.485C169.416,-221.753 185.212,-220.137 200,-219 280.625,-212.802 372.947,-210.096 437.64,-208.915"/>
<polygon fill="midnightblue" stroke="midnightblue" points="437.842,-212.412 447.779,-208.738 437.72,-205.413 437.842,-212.412"/>
</g>
<!-- Node11 -->
<g id="node11" class="node"><title>Node11</title>
<g id="a_node11"><a xlink:href="../../d5/d30/classparser_1_1_command_case.html#a7c49338f11e46369db6a009f6a07a837" target="_top" xlink:title="parser.CommandCase.obtain\lNumParams">
<polygon fill="white" stroke="black" points="215.5,-49 215.5,-79 372.5,-79 372.5,-49 215.5,-49"/>
<text text-anchor="start" x="223.5" y="-67" font-family="Helvetica,sans-Serif" font-size="10.00">parser.CommandCase.obtain</text>
<text text-anchor="middle" x="294" y="-56" font-family="Helvetica,sans-Serif" font-size="10.00">NumParams</text>
</a>
</g>
</g>
<!-- Node1&#45;&gt;Node11 -->
<g id="edge13" class="edge"><title>Node1&#45;&gt;Node11</title>
<path fill="none" stroke="midnightblue" d="M87.8317,-223.461C101.55,-197.385 143.436,-124.432 200,-88 202.58,-86.3381 205.27,-84.791 208.041,-83.351"/>
<polygon fill="midnightblue" stroke="midnightblue" points="209.549,-86.5096 217.128,-79.1063 206.586,-80.1674 209.549,-86.5096"/>
</g>
<!-- Node12 -->
<g id="node12" class="node"><title>Node12</title>
<g id="a_node12"><a xlink:href="../../d5/d30/classparser_1_1_command_case.html#a9afa1f06d36261ade7169970904fabee" target="_top" xlink:title="parser.CommandCase.useResource\lBundle">
<polygon fill="white" stroke="black" points="200,-0 200,-30 388,-30 388,-0 200,-0"/>
<text text-anchor="start" x="208" y="-18" font-family="Helvetica,sans-Serif" font-size="10.00">parser.CommandCase.useResource</text>
<text text-anchor="middle" x="294" y="-7" font-family="Helvetica,sans-Serif" font-size="10.00">Bundle</text>
</a>
</g>
</g>
<!-- Node1&#45;&gt;Node12 -->
<g id="edge17" class="edge"><title>Node1&#45;&gt;Node12</title>
<path fill="none" stroke="midnightblue" d="M85.9641,-223.109C96.0944,-191.066 132.504,-89.288 200,-39 201.847,-37.6239 203.765,-36.3265 205.742,-35.1032"/>
<polygon fill="midnightblue" stroke="midnightblue" points="207.635,-38.0578 214.742,-30.2006 204.286,-31.9106 207.635,-38.0578"/>
</g>
<!-- Node7&#45;&gt;Node2 -->
<g id="edge7" class="edge"><title>Node7&#45;&gt;Node2</title>
<path fill="none" stroke="midnightblue" d="M309.71,-330.246C332.165,-352.553 377.324,-393.74 424,-415 429.631,-417.565 435.604,-419.785 441.706,-421.706"/>
<polygon fill="midnightblue" stroke="midnightblue" points="440.793,-425.085 451.371,-424.485 442.728,-418.358 440.793,-425.085"/>
</g>
<!-- Node7&#45;&gt;Node4 -->
<g id="edge8" class="edge"><title>Node7&#45;&gt;Node4</title>
<path fill="none" stroke="midnightblue" d="M321.9,-330.027C347.471,-343.749 387.359,-363.713 424,-376 433.322,-379.126 443.323,-381.859 453.223,-384.218"/>
<polygon fill="midnightblue" stroke="midnightblue" points="452.533,-387.65 463.06,-386.453 454.084,-380.824 452.533,-387.65"/>
</g>
<!-- Node7&#45;&gt;Node5 -->
<g id="edge9" class="edge"><title>Node7&#45;&gt;Node5</title>
<path fill="none" stroke="midnightblue" d="M375.277,-329.985C402.797,-335.122 433.126,-340.783 458.88,-345.591"/>
<polygon fill="midnightblue" stroke="midnightblue" points="458.404,-349.062 468.876,-347.457 459.688,-342.181 458.404,-349.062"/>
</g>
<!-- Node7&#45;&gt;Node8 -->
<g id="edge10" class="edge"><title>Node7&#45;&gt;Node8</title>
<path fill="none" stroke="midnightblue" d="M375.277,-313.573C393.784,-313.244 413.562,-312.892 432.365,-312.558"/>
<polygon fill="midnightblue" stroke="midnightblue" points="432.459,-316.057 442.395,-312.38 432.334,-309.058 432.459,-316.057"/>
</g>
<!-- Node7&#45;&gt;Node9 -->
<g id="edge11" class="edge"><title>Node7&#45;&gt;Node9</title>
<path fill="none" stroke="midnightblue" d="M355.296,-299.993C384.3,-292.774 419.252,-284.075 449.482,-276.551"/>
<polygon fill="midnightblue" stroke="midnightblue" points="450.679,-279.86 459.538,-274.048 448.988,-273.067 450.679,-279.86"/>
</g>
<!-- Node7&#45;&gt;Node10 -->
<g id="edge12" class="edge"><title>Node7&#45;&gt;Node10</title>
<path fill="none" stroke="midnightblue" d="M315.446,-299.778C340.075,-282.059 383.238,-252.942 424,-235 437.261,-229.163 452.111,-224.257 466.094,-220.297"/>
<polygon fill="midnightblue" stroke="midnightblue" points="467.356,-223.581 476.088,-217.581 465.52,-216.826 467.356,-223.581"/>
</g>
</g>
</svg>
