<?xml version="1.0" encoding="UTF-8" standalone="no"?>
<!DOCTYPE svg PUBLIC "-//W3C//DTD SVG 1.1//EN"
 "http://www.w3.org/Graphics/SVG/1.1/DTD/svg11.dtd">
<!-- Generated by graphviz version 2.36.0 (20140111.2315)
 -->
<!-- Title: parser.CommandCase.useResourceBundle Pages: 1 -->
<svg width="3288pt" height="88pt"
 viewBox="0.00 0.00 3288.00 88.00" xmlns="http://www.w3.org/2000/svg" xmlns:xlink="http://www.w3.org/1999/xlink">
<g id="graph0" class="graph" transform="scale(1 1) rotate(0) translate(4 84)">
<title>parser.CommandCase.useResourceBundle</title>
<polygon fill="white" stroke="none" points="-4,4 -4,-84 3284,-84 3284,4 -4,4"/>
<!-- Node1 -->
<g id="node1" class="node"><title>Node1</title>
<polygon fill="#bfbfbf" stroke="black" points="0,-17 0,-47 188,-47 188,-17 0,-17"/>
<text text-anchor="start" x="8" y="-35" font-family="Helvetica,sans-Serif" font-size="10.00">parser.CommandCase.useResource</text>
<text text-anchor="middle" x="94" y="-24" font-family="Helvetica,sans-Serif" font-size="10.00">Bundle</text>
</g>
<!-- Node2 -->
<g id="node2" class="node"><title>Node2</title>
<g id="a_node2"><a xlink:href="../../d5/d30/classparser_1_1_command_case.html#a309ba0623929f8d96219c98de00023b0" target="_top" xlink:title="parser.CommandCase.initialize">
<polygon fill="white" stroke="black" points="224.5,-41.5 224.5,-60.5 389.5,-60.5 389.5,-41.5 224.5,-41.5"/>
<text text-anchor="middle" x="307" y="-48.5" font-family="Helvetica,sans-Serif" font-size="10.00">parser.CommandCase.initialize</text>
</a>
</g>
</g>
<!-- Node1&#45;&gt;Node2 -->
<g id="edge1" class="edge"><title>Node1&#45;&gt;Node2</title>
<path fill="none" stroke="midnightblue" d="M198.352,-41.3066C207.053,-42.0901 215.773,-42.8753 224.276,-43.6409"/>
<polygon fill="midnightblue" stroke="midnightblue" points="198.436,-37.8 188.162,-40.389 197.808,-44.7718 198.436,-37.8"/>
</g>
<!-- Node21 -->
<g id="node21" class="node"><title>Node21</title>
<g id="a_node21"><a xlink:href="../../d5/d30/classparser_1_1_command_case.html#a65e1e45269c10f4611f02192244755c3" target="_top" xlink:title="parser.CommandCase.recurse">
<polygon fill="white" stroke="black" points="225.5,-3.5 225.5,-22.5 388.5,-22.5 388.5,-3.5 225.5,-3.5"/>
<text text-anchor="middle" x="307" y="-10.5" font-family="Helvetica,sans-Serif" font-size="10.00">parser.CommandCase.recurse</text>
</a>
</g>
</g>
<!-- Node1&#45;&gt;Node21 -->
<g id="edge20" class="edge"><title>Node1&#45;&gt;Node21</title>
<path fill="none" stroke="midnightblue" d="M198.342,-22.6943C207.379,-21.8806 216.437,-21.0649 225.251,-20.2712"/>
<polygon fill="midnightblue" stroke="midnightblue" points="197.808,-19.2282 188.162,-23.611 198.436,-26.2 197.808,-19.2282"/>
</g>
<!-- Node3 -->
<g id="node3" class="node"><title>Node3</title>
<g id="a_node3"><a xlink:href="../../d0/d05/classparser_1_1_tree_generator.html#acf44e3a80bec76756c2bb09124dc4c8d" target="_top" xlink:title="parser.TreeGenerator.create\lCommands">
<polygon fill="white" stroke="black" points="426.5,-36 426.5,-66 577.5,-66 577.5,-36 426.5,-36"/>
<text text-anchor="start" x="434.5" y="-54" font-family="Helvetica,sans-Serif" font-size="10.00">parser.TreeGenerator.create</text>
<text text-anchor="middle" x="502" y="-43" font-family="Helvetica,sans-Serif" font-size="10.00">Commands</text>
</a>
</g>
</g>
<!-- Node2&#45;&gt;Node3 -->
<g id="edge2" class="edge"><title>Node2&#45;&gt;Node3</title>
<path fill="none" stroke="midnightblue" d="M399.669,-51C408.651,-51 417.688,-51 426.469,-51"/>
<polygon fill="midnightblue" stroke="midnightblue" points="399.57,-47.5001 389.57,-51 399.57,-54.5001 399.57,-47.5001"/>
</g>
<!-- Node4 -->
<g id="node4" class="node"><title>Node4</title>
<g id="a_node4"><a xlink:href="../../d9/df7/classcontroller_1_1_controller.html#a3d81fb1a57114f96fb6c319f4c5df370" target="_top" xlink:title="controller.Controller.parse\lCommand">
<polygon fill="white" stroke="black" points="614,-36 614,-66 754,-66 754,-36 614,-36"/>
<text text-anchor="start" x="622" y="-54" font-family="Helvetica,sans-Serif" font-size="10.00">controller.Controller.parse</text>
<text text-anchor="middle" x="684" y="-43" font-family="Helvetica,sans-Serif" font-size="10.00">Command</text>
</a>
</g>
</g>
<!-- Node3&#45;&gt;Node4 -->
<g id="edge3" class="edge"><title>Node3&#45;&gt;Node4</title>
<path fill="none" stroke="midnightblue" d="M587.701,-51C596.424,-51 605.213,-51 613.739,-51"/>
<polygon fill="midnightblue" stroke="midnightblue" points="587.512,-47.5001 577.512,-51 587.512,-54.5001 587.512,-47.5001"/>
</g>
<!-- Node5 -->
<g id="node5" class="node"><title>Node5</title>
<g id="a_node5"><a xlink:href="../../d5/d06/classui_1_1_scene_updater.html#ab77a04f8b0038429b09237aac18906e8" target="_top" xlink:title="ui.SceneUpdater.sendCommands">
<polygon fill="white" stroke="black" points="790,-41.5 790,-60.5 968,-60.5 968,-41.5 790,-41.5"/>
<text text-anchor="middle" x="879" y="-48.5" font-family="Helvetica,sans-Serif" font-size="10.00">ui.SceneUpdater.sendCommands</text>
</a>
</g>
</g>
<!-- Node4&#45;&gt;Node5 -->
<g id="edge4" class="edge"><title>Node4&#45;&gt;Node5</title>
<path fill="none" stroke="midnightblue" d="M764.294,-51C772.713,-51 781.313,-51 789.825,-51"/>
<polygon fill="midnightblue" stroke="midnightblue" points="764.132,-47.5001 754.132,-51 764.132,-54.5001 764.132,-47.5001"/>
</g>
<!-- Node6 -->
<g id="node6" class="node"><title>Node6</title>
<g id="a_node6"><a xlink:href="../../dc/d3b/classui_1_1_g_u_i.html#ad8f08a79a20a498bcaafdc7e2e2ce0a9" target="_top" xlink:title="ui.GUI.parseCommand">
<polygon fill="white" stroke="black" points="1004.5,-41.5 1004.5,-60.5 1129.5,-60.5 1129.5,-41.5 1004.5,-41.5"/>
<text text-anchor="middle" x="1067" y="-48.5" font-family="Helvetica,sans-Serif" font-size="10.00">ui.GUI.parseCommand</text>
</a>
</g>
</g>
<!-- Node5&#45;&gt;Node6 -->
<g id="edge5" class="edge"><title>Node5&#45;&gt;Node6</title>
<path fill="none" stroke="midnightblue" d="M978.196,-51C987.132,-51 996.003,-51 1004.48,-51"/>
<polygon fill="midnightblue" stroke="midnightblue" points="978.098,-47.5001 968.098,-51 978.098,-54.5001 978.098,-47.5001"/>
</g>
<!-- Node7 -->
<g id="node7" class="node"><title>Node7</title>
<g id="a_node7"><a xlink:href="../../d8/d3c/classui_1_1elements_1_1_i_o_element.html#a139a046f0c771f86696f2eee04047c64" target="_top" xlink:title="ui.elements.IOElement.init">
<polygon fill="white" stroke="black" points="1182.5,-60.5 1182.5,-79.5 1325.5,-79.5 1325.5,-60.5 1182.5,-60.5"/>
<text text-anchor="middle" x="1254" y="-67.5" font-family="Helvetica,sans-Serif" font-size="10.00">ui.elements.IOElement.init</text>
</a>
</g>
</g>
<!-- Node6&#45;&gt;Node7 -->
<g id="edge6" class="edge"><title>Node6&#45;&gt;Node7</title>
<path fill="none" stroke="midnightblue" d="M1139.68,-58.3614C1153.7,-59.8019 1168.4,-61.3116 1182.39,-62.7485"/>
<polygon fill="midnightblue" stroke="midnightblue" points="1139.91,-54.8668 1129.6,-57.3267 1139.19,-61.8302 1139.91,-54.8668"/>
</g>
<!-- Node9 -->
<g id="node9" class="node"><title>Node9</title>
<g id="a_node9"><a xlink:href="../../dc/d3b/classui_1_1_g_u_i.html#ab8ec2a37b3d5bd9e8c2abbb3642fb965" target="_top" xlink:title="ui.GUI.setupKeyboardCommands">
<polygon fill="white" stroke="black" points="1166.5,-22.5 1166.5,-41.5 1341.5,-41.5 1341.5,-22.5 1166.5,-22.5"/>
<text text-anchor="middle" x="1254" y="-29.5" font-family="Helvetica,sans-Serif" font-size="10.00">ui.GUI.setupKeyboardCommands</text>
</a>
</g>
</g>
<!-- Node6&#45;&gt;Node9 -->
<g id="edge8" class="edge"><title>Node6&#45;&gt;Node9</title>
<path fill="none" stroke="midnightblue" d="M1139.69,-43.6368C1148.41,-42.7417 1157.39,-41.8199 1166.29,-40.9054"/>
<polygon fill="midnightblue" stroke="midnightblue" points="1139.19,-40.1698 1129.6,-44.6733 1139.91,-47.1332 1139.19,-40.1698"/>
</g>
<!-- Node8 -->
<g id="node8" class="node"><title>Node8</title>
<g id="a_node8"><a xlink:href="../../d8/d3c/classui_1_1elements_1_1_i_o_element.html#a556e1a3ad292fe3ab731065eef59b187" target="_top" xlink:title="ui.elements.IOElement.IOElement">
<polygon fill="white" stroke="black" points="1378,-60.5 1378,-79.5 1556,-79.5 1556,-60.5 1378,-60.5"/>
<text text-anchor="middle" x="1467" y="-67.5" font-family="Helvetica,sans-Serif" font-size="10.00">ui.elements.IOElement.IOElement</text>
</a>
</g>
</g>
<!-- Node7&#45;&gt;Node8 -->
<g id="edge7" class="edge"><title>Node7&#45;&gt;Node8</title>
<path fill="none" stroke="midnightblue" d="M1335.92,-70C1349.65,-70 1363.97,-70 1377.88,-70"/>
<polygon fill="midnightblue" stroke="midnightblue" points="1335.55,-66.5001 1325.55,-70 1335.55,-73.5001 1335.55,-66.5001"/>
</g>
<!-- Node10 -->
<g id="node10" class="node"><title>Node10</title>
<g id="a_node10"><a xlink:href="../../dc/d3b/classui_1_1_g_u_i.html#a765d554102f38969231261686f2f8e27" target="_top" xlink:title="ui.GUI.initialize">
<polygon fill="white" stroke="black" points="1424,-22.5 1424,-41.5 1510,-41.5 1510,-22.5 1424,-22.5"/>
<text text-anchor="middle" x="1467" y="-29.5" font-family="Helvetica,sans-Serif" font-size="10.00">ui.GUI.initialize</text>
</a>
</g>
</g>
<!-- Node9&#45;&gt;Node10 -->
<g id="edge9" class="edge"><title>Node9&#45;&gt;Node10</title>
<path fill="none" stroke="midnightblue" d="M1351.75,-32C1377.02,-32 1402.96,-32 1423.72,-32"/>
<polygon fill="midnightblue" stroke="midnightblue" points="1351.74,-28.5001 1341.74,-32 1351.74,-35.5001 1351.74,-28.5001"/>
</g>
<!-- Node11 -->
<g id="node11" class="node"><title>Node11</title>
<g id="a_node11"><a xlink:href="../../d5/d06/classui_1_1_scene_updater.html#aeef5dd7a8ec2ad6179e33fdd71ea90d6" target="_top" xlink:title="ui.SceneUpdater.initGUI">
<polygon fill="white" stroke="black" points="1592.5,-22.5 1592.5,-41.5 1723.5,-41.5 1723.5,-22.5 1592.5,-22.5"/>
<text text-anchor="middle" x="1658" y="-29.5" font-family="Helvetica,sans-Serif" font-size="10.00">ui.SceneUpdater.initGUI</text>
</a>
</g>
</g>
<!-- Node10&#45;&gt;Node11 -->
<g id="edge10" class="edge"><title>Node10&#45;&gt;Node11</title>
<path fill="none" stroke="midnightblue" d="M1520.67,-32C1542.92,-32 1569.05,-32 1592.45,-32"/>
<polygon fill="midnightblue" stroke="midnightblue" points="1520.42,-28.5001 1510.42,-32 1520.42,-35.5001 1520.42,-28.5001"/>
</g>
<!-- Node12 -->
<g id="node12" class="node"><title>Node12</title>
<g id="a_node12"><a xlink:href="../../d9/df7/classcontroller_1_1_controller.html#a57e42ba83ee2145e6262cd72eac59570" target="_top" xlink:title="controller.Controller.init">
<polygon fill="white" stroke="black" points="1760.5,-22.5 1760.5,-41.5 1887.5,-41.5 1887.5,-22.5 1760.5,-22.5"/>
<text text-anchor="middle" x="1824" y="-29.5" font-family="Helvetica,sans-Serif" font-size="10.00">controller.Controller.init</text>
</a>
</g>
</g>
<!-- Node11&#45;&gt;Node12 -->
<g id="edge11" class="edge"><title>Node11&#45;&gt;Node12</title>
<path fill="none" stroke="midnightblue" d="M1734.04,-32C1742.81,-32 1751.68,-32 1760.26,-32"/>
<polygon fill="midnightblue" stroke="midnightblue" points="1733.82,-28.5001 1723.82,-32 1733.82,-35.5001 1733.82,-28.5001"/>
</g>
<!-- Node13 -->
<g id="node13" class="node"><title>Node13</title>
<g id="a_node13"><a xlink:href="../../dd/df2/classmain_1_1_workspace_manager.html#abc818b59211f6e14940b86a42bb868d0" target="_top" xlink:title="main.WorkspaceManager.create\lWorkspace">
<polygon fill="white" stroke="black" points="1924,-17 1924,-47 2094,-47 2094,-17 1924,-17"/>
<text text-anchor="start" x="1932" y="-35" font-family="Helvetica,sans-Serif" font-size="10.00">main.WorkspaceManager.create</text>
<text text-anchor="middle" x="2009" y="-24" font-family="Helvetica,sans-Serif" font-size="10.00">Workspace</text>
</a>
</g>
</g>
<!-- Node12&#45;&gt;Node13 -->
<g id="edge12" class="edge"><title>Node12&#45;&gt;Node13</title>
<path fill="none" stroke="midnightblue" d="M1897.92,-32C1906.39,-32 1915.08,-32 1923.69,-32"/>
<polygon fill="midnightblue" stroke="midnightblue" points="1897.72,-28.5001 1887.72,-32 1897.72,-35.5001 1897.72,-28.5001"/>
</g>
<!-- Node14 -->
<g id="node14" class="node"><title>Node14</title>
<g id="a_node14"><a xlink:href="../../d9/df7/classcontroller_1_1_controller.html#a3a9d672bb57047df70945ad1a9582c9a" target="_top" xlink:title="controller.Controller.create\lNewWorkspace">
<polygon fill="white" stroke="black" points="2130.5,-39 2130.5,-69 2273.5,-69 2273.5,-39 2130.5,-39"/>
<text text-anchor="start" x="2138.5" y="-57" font-family="Helvetica,sans-Serif" font-size="10.00">controller.Controller.create</text>
<text text-anchor="middle" x="2202" y="-46" font-family="Helvetica,sans-Serif" font-size="10.00">NewWorkspace</text>
</a>
</g>
</g>
<!-- Node13&#45;&gt;Node14 -->
<g id="edge13" class="edge"><title>Node13&#45;&gt;Node14</title>
<path fill="none" stroke="midnightblue" d="M2104.03,-42.8303C2112.88,-43.8503 2121.75,-44.8721 2130.34,-45.8608"/>
<polygon fill="midnightblue" stroke="midnightblue" points="2104.39,-39.3489 2094.05,-41.6815 2103.59,-46.3029 2104.39,-39.3489"/>
</g>
<!-- Node20 -->
<g id="node20" class="node"><title>Node20</title>
<g id="a_node20"><a xlink:href="../../d1/d0b/classmain_1_1_main.html#a9f1e5657b2f6f9bdd69a3b6412ceda74" target="_top" xlink:title="main.Main.start">
<polygon fill="white" stroke="black" points="2156,-0.5 2156,-19.5 2248,-19.5 2248,-0.5 2156,-0.5"/>
<text text-anchor="middle" x="2202" y="-7.5" font-family="Helvetica,sans-Serif" font-size="10.00">main.Main.start</text>
</a>
</g>
</g>
<!-- Node13&#45;&gt;Node20 -->
<g id="edge19" class="edge"><title>Node13&#45;&gt;Node20</title>
<path fill="none" stroke="midnightblue" d="M2104.09,-21.1629C2122.19,-19.0779 2140.36,-16.9851 2155.99,-15.1843"/>
<polygon fill="midnightblue" stroke="midnightblue" points="2103.59,-17.6971 2094.05,-22.3185 2104.39,-24.6511 2103.59,-17.6971"/>
</g>
<!-- Node15 -->
<g id="node15" class="node"><title>Node15</title>
<g id="a_node15"><a xlink:href="../../d5/d06/classui_1_1_scene_updater.html#a2858ad8edb0c0f59a21e2ae015f2fa1e" target="_top" xlink:title="ui.SceneUpdater.createNew\lWorkspace">
<polygon fill="white" stroke="black" points="2310,-39 2310,-69 2460,-69 2460,-39 2310,-39"/>
<text text-anchor="start" x="2318" y="-57" font-family="Helvetica,sans-Serif" font-size="10.00">ui.SceneUpdater.createNew</text>
<text text-anchor="middle" x="2385" y="-46" font-family="Helvetica,sans-Serif" font-size="10.00">Workspace</text>
</a>
</g>
</g>
<!-- Node14&#45;&gt;Node15 -->
<g id="edge14" class="edge"><title>Node14&#45;&gt;Node15</title>
<path fill="none" stroke="midnightblue" d="M2283.8,-54C2292.43,-54 2301.17,-54 2309.71,-54"/>
<polygon fill="midnightblue" stroke="midnightblue" points="2283.76,-50.5001 2273.76,-54 2283.76,-57.5001 2283.76,-50.5001"/>
</g>
<!-- Node16 -->
<g id="node16" class="node"><title>Node16</title>
<g id="a_node16"><a xlink:href="../../dc/d3b/classui_1_1_g_u_i.html#a2edc294ba07311e6c4b85c9fe749d1bf" target="_top" xlink:title="ui.GUI.createNewWorkspace">
<polygon fill="white" stroke="black" points="2496,-44.5 2496,-63.5 2646,-63.5 2646,-44.5 2496,-44.5"/>
<text text-anchor="middle" x="2571" y="-51.5" font-family="Helvetica,sans-Serif" font-size="10.00">ui.GUI.createNewWorkspace</text>
</a>
</g>
</g>
<!-- Node15&#45;&gt;Node16 -->
<g id="edge15" class="edge"><title>Node15&#45;&gt;Node16</title>
<path fill="none" stroke="midnightblue" d="M2470.07,-54C2478.65,-54 2487.34,-54 2495.81,-54"/>
<polygon fill="midnightblue" stroke="midnightblue" points="2470.04,-50.5001 2460.04,-54 2470.04,-57.5001 2470.04,-50.5001"/>
</g>
<!-- Node17 -->
<g id="node17" class="node"><title>Node17</title>
<g id="a_node17"><a xlink:href="../../d0/de6/classui_1_1elements_1_1_menu_bar_element.html#a98c13995a31d997aa10f2950583da6cc" target="_top" xlink:title="ui.elements.MenuBarElement.make\lMenuBar">
<polygon fill="white" stroke="black" points="2682,-39 2682,-69 2870,-69 2870,-39 2682,-39"/>
<text text-anchor="start" x="2690" y="-57" font-family="Helvetica,sans-Serif" font-size="10.00">ui.elements.MenuBarElement.make</text>
<text text-anchor="middle" x="2776" y="-46" font-family="Helvetica,sans-Serif" font-size="10.00">MenuBar</text>
</a>
</g>
</g>
<!-- Node16&#45;&gt;Node17 -->
<g id="edge16" class="edge"><title>Node16&#45;&gt;Node17</title>
<path fill="none" stroke="midnightblue" d="M2656.28,-54C2664.66,-54 2673.21,-54 2681.68,-54"/>
<polygon fill="midnightblue" stroke="midnightblue" points="2656.15,-50.5001 2646.15,-54 2656.15,-57.5001 2656.15,-50.5001"/>
</g>
<!-- Node18 -->
<g id="node18" class="node"><title>Node18</title>
<g id="a_node18"><a xlink:href="../../d0/de6/classui_1_1elements_1_1_menu_bar_element.html#a7bdb58f78cf8b61ba28498c5c86ab682" target="_top" xlink:title="ui.elements.MenuBarElement.init">
<polygon fill="white" stroke="black" points="2906,-44.5 2906,-63.5 3082,-63.5 3082,-44.5 2906,-44.5"/>
<text text-anchor="middle" x="2994" y="-51.5" font-family="Helvetica,sans-Serif" font-size="10.00">ui.elements.MenuBarElement.init</text>
</a>
</g>
</g>
<!-- Node17&#45;&gt;Node18 -->
<g id="edge17" class="edge"><title>Node17&#45;&gt;Node18</title>
<path fill="none" stroke="midnightblue" d="M2880.23,-54C2888.83,-54 2897.48,-54 2905.94,-54"/>
<polygon fill="midnightblue" stroke="midnightblue" points="2880.17,-50.5001 2870.17,-54 2880.17,-57.5001 2880.17,-50.5001"/>
</g>
<!-- Node19 -->
<g id="node19" class="node"><title>Node19</title>
<g id="a_node19"><a xlink:href="../../d0/de6/classui_1_1elements_1_1_menu_bar_element.html#ab4a4e6841c924a9d9c70b8073b56dffc" target="_top" xlink:title="ui.elements.MenuBarElement.\lMenuBarElement">
<polygon fill="white" stroke="black" points="3118.5,-39 3118.5,-69 3279.5,-69 3279.5,-39 3118.5,-39"/>
<text text-anchor="start" x="3126.5" y="-57" font-family="Helvetica,sans-Serif" font-size="10.00">ui.elements.MenuBarElement.</text>
<text text-anchor="middle" x="3199" y="-46" font-family="Helvetica,sans-Serif" font-size="10.00">MenuBarElement</text>
</a>
</g>
</g>
<!-- Node18&#45;&gt;Node19 -->
<g id="edge18" class="edge"><title>Node18&#45;&gt;Node19</title>
<path fill="none" stroke="midnightblue" d="M3092.47,-54C3101.19,-54 3109.95,-54 3118.5,-54"/>
<polygon fill="midnightblue" stroke="midnightblue" points="3092.27,-50.5001 3082.27,-54 3092.27,-57.5001 3092.27,-50.5001"/>
</g>
</g>
</svg>
