<?xml version="1.0" encoding="UTF-8" standalone="no"?>
<!DOCTYPE svg PUBLIC "-//W3C//DTD SVG 1.1//EN"
 "http://www.w3.org/Graphics/SVG/1.1/DTD/svg11.dtd">
<!-- Generated by graphviz version 2.36.0 (20140111.2315)
 -->
<!-- Title: parser.ConstantCase.recurse Pages: 1 -->
<svg width="394pt" height="240pt"
 viewBox="0.00 0.00 394.00 240.00" xmlns="http://www.w3.org/2000/svg" xmlns:xlink="http://www.w3.org/1999/xlink">
<g id="graph0" class="graph" transform="scale(1 1) rotate(0) translate(4 236)">
<title>parser.ConstantCase.recurse</title>
<polygon fill="white" stroke="none" points="-4,4 -4,-236 390,-236 390,4 -4,4"/>
<!-- Node1 -->
<g id="node1" class="node"><title>Node1</title>
<polygon fill="#bfbfbf" stroke="black" points="0,-117.5 0,-136.5 156,-136.5 156,-117.5 0,-117.5"/>
<text text-anchor="middle" x="78" y="-124.5" font-family="Helvetica,sans-Serif" font-size="10.00">parser.ConstantCase.recurse</text>
</g>
<!-- Node2 -->
<g id="node2" class="node"><title>Node2</title>
<g id="a_node2"><a xlink:href="../../dc/d9e/classparser_1_1_command_tree_node.html#ad6cbb5376973ef15c1831187b297d071" target="_top" xlink:title="parser.CommandTreeNode.add">
<polygon fill="white" stroke="black" points="206,-212.5 206,-231.5 372,-231.5 372,-212.5 206,-212.5"/>
<text text-anchor="middle" x="289" y="-219.5" font-family="Helvetica,sans-Serif" font-size="10.00">parser.CommandTreeNode.add</text>
</a>
</g>
</g>
<!-- Node1&#45;&gt;Node2 -->
<g id="edge1" class="edge"><title>Node1&#45;&gt;Node2</title>
<path fill="none" stroke="midnightblue" d="M89.9948,-136.629C109.252,-152.954 150.953,-185.948 192,-203 198.272,-205.606 204.927,-207.861 211.691,-209.812"/>
<polygon fill="midnightblue" stroke="midnightblue" points="211.084,-213.272 221.648,-212.457 212.882,-206.506 211.084,-213.272"/>
</g>
<!-- Node3 -->
<g id="node3" class="node"><title>Node3</title>
<g id="a_node3"><a xlink:href="../../d9/dc0/interfaceparser_1_1_tree_wrapper.html#abf33b5a3ce13b389b9f69be49b18b998" target="_top" xlink:title="parser.TreeWrapper.getIndex">
<polygon fill="white" stroke="black" points="213,-174.5 213,-193.5 365,-193.5 365,-174.5 213,-174.5"/>
<text text-anchor="middle" x="289" y="-181.5" font-family="Helvetica,sans-Serif" font-size="10.00">parser.TreeWrapper.getIndex</text>
</a>
</g>
</g>
<!-- Node1&#45;&gt;Node3 -->
<g id="edge2" class="edge"><title>Node1&#45;&gt;Node3</title>
<path fill="none" stroke="midnightblue" d="M104.295,-136.552C127.011,-144.878 161.396,-156.862 192,-165 202.079,-167.68 212.843,-170.167 223.386,-172.4"/>
<polygon fill="midnightblue" stroke="midnightblue" points="222.895,-175.872 233.396,-174.461 224.307,-169.016 222.895,-175.872"/>
</g>
<!-- Node4 -->
<g id="node4" class="node"><title>Node4</title>
<g id="a_node4"><a xlink:href="../../dc/d9e/classparser_1_1_command_tree_node.html#a73e4ab6ebca47d41b993f0e66ee4c8d2" target="_top" xlink:title="parser.CommandTreeNode.getName">
<polygon fill="white" stroke="black" points="192.5,-136.5 192.5,-155.5 385.5,-155.5 385.5,-136.5 192.5,-136.5"/>
<text text-anchor="middle" x="289" y="-143.5" font-family="Helvetica,sans-Serif" font-size="10.00">parser.CommandTreeNode.getName</text>
</a>
</g>
</g>
<!-- Node1&#45;&gt;Node4 -->
<g id="edge3" class="edge"><title>Node1&#45;&gt;Node4</title>
<path fill="none" stroke="midnightblue" d="M156.23,-134.021C164.671,-134.788 173.368,-135.579 182.078,-136.371"/>
<polygon fill="midnightblue" stroke="midnightblue" points="182.018,-139.88 192.294,-137.299 182.652,-132.908 182.018,-139.88"/>
</g>
<!-- Node5 -->
<g id="node5" class="node"><title>Node5</title>
<g id="a_node5"><a xlink:href="../../dc/d9e/classparser_1_1_command_tree_node.html#a8bb8a112395f78809b0be06f1c3f5282" target="_top" xlink:title="parser.CommandTreeNode.getType">
<polygon fill="white" stroke="black" points="196.5,-98.5 196.5,-117.5 381.5,-117.5 381.5,-98.5 196.5,-98.5"/>
<text text-anchor="middle" x="289" y="-105.5" font-family="Helvetica,sans-Serif" font-size="10.00">parser.CommandTreeNode.getType</text>
</a>
</g>
</g>
<!-- Node1&#45;&gt;Node5 -->
<g id="edge4" class="edge"><title>Node1&#45;&gt;Node5</title>
<path fill="none" stroke="midnightblue" d="M156.23,-119.979C165.998,-119.091 176.107,-118.172 186.183,-117.256"/>
<polygon fill="midnightblue" stroke="midnightblue" points="186.592,-120.733 196.235,-116.342 185.959,-113.762 186.592,-120.733"/>
</g>
<!-- Node6 -->
<g id="node6" class="node"><title>Node6</title>
<g id="a_node6"><a xlink:href="../../d9/dc0/interfaceparser_1_1_tree_wrapper.html#a251d9d9bb7c3ea34688bfa30cc465270" target="_top" xlink:title="parser.TreeWrapper.increment\lIndex">
<polygon fill="white" stroke="black" points="209.5,-49 209.5,-79 368.5,-79 368.5,-49 209.5,-49"/>
<text text-anchor="start" x="217.5" y="-67" font-family="Helvetica,sans-Serif" font-size="10.00">parser.TreeWrapper.increment</text>
<text text-anchor="middle" x="289" y="-56" font-family="Helvetica,sans-Serif" font-size="10.00">Index</text>
</a>
</g>
</g>
<!-- Node1&#45;&gt;Node6 -->
<g id="edge5" class="edge"><title>Node1&#45;&gt;Node6</title>
<path fill="none" stroke="midnightblue" d="M105.773,-117.41C128.565,-109.388 162.246,-97.8653 192,-89 200.335,-86.5167 209.116,-84.0403 217.845,-81.6648"/>
<polygon fill="midnightblue" stroke="midnightblue" points="218.9,-85.0054 227.65,-79.0306 217.084,-78.2451 218.9,-85.0054"/>
</g>
<!-- Node7 -->
<g id="node7" class="node"><title>Node7</title>
<g id="a_node7"><a xlink:href="../../d9/dc0/interfaceparser_1_1_tree_wrapper.html#a593548eb4ae82f686022f08f45908a1d" target="_top" xlink:title="parser.TreeWrapper.print\lTestStatements">
<polygon fill="white" stroke="black" points="223,-0 223,-30 355,-30 355,-0 223,-0"/>
<text text-anchor="start" x="231" y="-18" font-family="Helvetica,sans-Serif" font-size="10.00">parser.TreeWrapper.print</text>
<text text-anchor="middle" x="289" y="-7" font-family="Helvetica,sans-Serif" font-size="10.00">TestStatements</text>
</a>
</g>
</g>
<!-- Node1&#45;&gt;Node7 -->
<g id="edge6" class="edge"><title>Node1&#45;&gt;Node7</title>
<path fill="none" stroke="midnightblue" d="M88.6516,-117.327C107.092,-99.3923 149.308,-60.9096 192,-40 198.646,-36.7449 205.766,-33.8782 213.012,-31.3613"/>
<polygon fill="midnightblue" stroke="midnightblue" points="214.508,-34.5558 222.941,-28.1422 212.349,-27.8971 214.508,-34.5558"/>
</g>
</g>
</svg>
