<?xml version="1.0" encoding="UTF-8" standalone="no"?>
<!DOCTYPE svg PUBLIC "-//W3C//DTD SVG 1.1//EN"
 "http://www.w3.org/Graphics/SVG/1.1/DTD/svg11.dtd">
<!-- Generated by graphviz version 2.36.0 (20140111.2315)
 -->
<!-- Title: errors.SLogoException.SLogoException Pages: 1 -->
<svg width="360pt" height="77pt"
 viewBox="0.00 0.00 360.00 77.00" xmlns="http://www.w3.org/2000/svg" xmlns:xlink="http://www.w3.org/1999/xlink">
<g id="graph0" class="graph" transform="scale(1 1) rotate(0) translate(4 73)">
<title>errors.SLogoException.SLogoException</title>
<polygon fill="white" stroke="none" points="-4,4 -4,-73 356,-73 356,4 -4,4"/>
<!-- Node1 -->
<g id="node1" class="node"><title>Node1</title>
<polygon fill="#bfbfbf" stroke="black" points="0,-17 0,-47 158,-47 158,-17 0,-17"/>
<text text-anchor="start" x="8" y="-35" font-family="Helvetica,sans-Serif" font-size="10.00">errors.SLogoException.SLogo</text>
<text text-anchor="middle" x="79" y="-24" font-family="Helvetica,sans-Serif" font-size="10.00">Exception</text>
</g>
<!-- Node2 -->
<g id="node2" class="node"><title>Node2</title>
<g id="a_node2"><a xlink:href="../../d9/dad/classerrors_1_1_s_logo_exception.html#a0da2c39677929cc08226eb06225d4eab" target="_top" xlink:title="errors.SLogoException.fill\lInStackTrace">
<polygon fill="white" stroke="black" points="204.5,-39 204.5,-69 341.5,-69 341.5,-39 204.5,-39"/>
<text text-anchor="start" x="212.5" y="-57" font-family="Helvetica,sans-Serif" font-size="10.00">errors.SLogoException.fill</text>
<text text-anchor="middle" x="273" y="-46" font-family="Helvetica,sans-Serif" font-size="10.00">InStackTrace</text>
</a>
</g>
</g>
<!-- Node1&#45;&gt;Node2 -->
<g id="edge1" class="edge"><title>Node1&#45;&gt;Node2</title>
<path fill="none" stroke="midnightblue" d="M158.094,-40.9482C170.098,-42.3237 182.49,-43.7436 194.481,-45.1176"/>
<polygon fill="midnightblue" stroke="midnightblue" points="194.11,-48.5979 204.443,-46.2591 194.906,-41.6434 194.11,-48.5979"/>
</g>
<!-- Node3 -->
<g id="node3" class="node"><title>Node3</title>
<g id="a_node3"><a xlink:href="../../d9/dad/classerrors_1_1_s_logo_exception.html#afbaf3c482dcd017cb9d6d488551cafbd" target="_top" xlink:title="errors.SLogoException.popup">
<polygon fill="white" stroke="black" points="194,-0.5 194,-19.5 352,-19.5 352,-0.5 194,-0.5"/>
<text text-anchor="middle" x="273" y="-7.5" font-family="Helvetica,sans-Serif" font-size="10.00">errors.SLogoException.popup</text>
</a>
</g>
</g>
<!-- Node1&#45;&gt;Node3 -->
<g id="edge2" class="edge"><title>Node1&#45;&gt;Node3</title>
<path fill="none" stroke="midnightblue" d="M158.094,-23.0518C166.601,-22.077 175.302,-21.08 183.918,-20.0928"/>
<polygon fill="midnightblue" stroke="midnightblue" points="184.439,-23.556 193.975,-18.9403 183.642,-16.6015 184.439,-23.556"/>
</g>
</g>
</svg>
