<?xml version="1.0" encoding="UTF-8" standalone="no"?>
<!DOCTYPE svg PUBLIC "-//W3C//DTD SVG 1.1//EN"
 "http://www.w3.org/Graphics/SVG/1.1/DTD/svg11.dtd">
<!-- Generated by graphviz version 2.36.0 (20140111.2315)
 -->
<!-- Title: ui.elements.MenuBarElement.checkLanguageMenuItems Pages: 1 -->
<svg width="426pt" height="136pt"
 viewBox="0.00 0.00 426.00 136.00" xmlns="http://www.w3.org/2000/svg" xmlns:xlink="http://www.w3.org/1999/xlink">
<g id="graph0" class="graph" transform="scale(1 1) rotate(0) translate(4 132)">
<title>ui.elements.MenuBarElement.checkLanguageMenuItems</title>
<polygon fill="white" stroke="none" points="-4,4 -4,-132 422,-132 422,4 -4,4"/>
<!-- Node1 -->
<g id="node1" class="node"><title>Node1</title>
<polygon fill="#bfbfbf" stroke="black" points="0.5,-49 0.5,-79 189.5,-79 189.5,-49 0.5,-49"/>
<text text-anchor="start" x="8.5" y="-67" font-family="Helvetica,sans-Serif" font-size="10.00">ui.elements.MenuBarElement.check</text>
<text text-anchor="middle" x="95" y="-56" font-family="Helvetica,sans-Serif" font-size="10.00">LanguageMenuItems</text>
</g>
<!-- Node2 -->
<g id="node2" class="node"><title>Node2</title>
<g id="a_node2"><a xlink:href="../../d8/d3c/classui_1_1elements_1_1_i_o_element.html#a585a6ace3538ab4eeef473ec6d46ad28" target="_top" xlink:title="ui.elements.IOElement.get\lButton">
<polygon fill="white" stroke="black" points="250,-98 250,-128 394,-128 394,-98 250,-98"/>
<text text-anchor="start" x="258" y="-116" font-family="Helvetica,sans-Serif" font-size="10.00">ui.elements.IOElement.get</text>
<text text-anchor="middle" x="322" y="-105" font-family="Helvetica,sans-Serif" font-size="10.00">Button</text>
</a>
</g>
</g>
<!-- Node1&#45;&gt;Node2 -->
<g id="edge1" class="edge"><title>Node1&#45;&gt;Node2</title>
<path fill="none" stroke="midnightblue" d="M165.037,-79.0346C189.441,-84.3494 217.071,-90.3665 242.222,-95.844"/>
<polygon fill="midnightblue" stroke="midnightblue" points="241.578,-99.2857 252.094,-97.9938 243.068,-92.446 241.578,-99.2857"/>
</g>
<!-- Node3 -->
<g id="node3" class="node"><title>Node3</title>
<g id="a_node3"><a xlink:href="../../d8/d3c/classui_1_1elements_1_1_i_o_element.html#a3b1244fbac1fbbee1183143097b1e4ef" target="_top" xlink:title="ui.elements.IOElement.get\lInputField">
<polygon fill="white" stroke="black" points="250,-49 250,-79 394,-79 394,-49 250,-49"/>
<text text-anchor="start" x="258" y="-67" font-family="Helvetica,sans-Serif" font-size="10.00">ui.elements.IOElement.get</text>
<text text-anchor="middle" x="322" y="-56" font-family="Helvetica,sans-Serif" font-size="10.00">InputField</text>
</a>
</g>
</g>
<!-- Node1&#45;&gt;Node3 -->
<g id="edge2" class="edge"><title>Node1&#45;&gt;Node3</title>
<path fill="none" stroke="midnightblue" d="M189.791,-64C206.467,-64 223.707,-64 239.99,-64"/>
<polygon fill="midnightblue" stroke="midnightblue" points="239.991,-67.5001 249.991,-64 239.991,-60.5001 239.991,-67.5001"/>
</g>
<!-- Node4 -->
<g id="node4" class="node"><title>Node4</title>
<g id="a_node4"><a xlink:href="../../d0/de6/classui_1_1elements_1_1_menu_bar_element.html#ac9ae1ea5775f95bb1a113b11e959f6c0" target="_top" xlink:title="ui.elements.MenuBarElement.toggle\lMenuItems">
<polygon fill="white" stroke="black" points="226.5,-0 226.5,-30 417.5,-30 417.5,-0 226.5,-0"/>
<text text-anchor="start" x="234.5" y="-18" font-family="Helvetica,sans-Serif" font-size="10.00">ui.elements.MenuBarElement.toggle</text>
<text text-anchor="middle" x="322" y="-7" font-family="Helvetica,sans-Serif" font-size="10.00">MenuItems</text>
</a>
</g>
</g>
<!-- Node1&#45;&gt;Node4 -->
<g id="edge3" class="edge"><title>Node1&#45;&gt;Node4</title>
<path fill="none" stroke="midnightblue" d="M165.037,-48.9654C189.441,-43.6506 217.071,-37.6335 242.222,-32.156"/>
<polygon fill="midnightblue" stroke="midnightblue" points="243.068,-35.554 252.094,-30.0062 241.578,-28.7143 243.068,-35.554"/>
</g>
</g>
</svg>
