<?xml version="1.0" encoding="UTF-8" standalone="no"?>
<!DOCTYPE svg PUBLIC "-//W3C//DTD SVG 1.1//EN"
 "http://www.w3.org/Graphics/SVG/1.1/DTD/svg11.dtd">
<!-- Generated by graphviz version 2.36.0 (20140111.2315)
 -->
<!-- Title: ui.elements.MenuBarElement.toggleMenuItems Pages: 1 -->
<svg width="1312pt" height="38pt"
 viewBox="0.00 0.00 1312.00 38.00" xmlns="http://www.w3.org/2000/svg" xmlns:xlink="http://www.w3.org/1999/xlink">
<g id="graph0" class="graph" transform="scale(1 1) rotate(0) translate(4 34)">
<title>ui.elements.MenuBarElement.toggleMenuItems</title>
<polygon fill="white" stroke="none" points="-4,4 -4,-34 1308,-34 1308,4 -4,4"/>
<!-- Node1 -->
<g id="node1" class="node"><title>Node1</title>
<polygon fill="#bfbfbf" stroke="black" points="0.5,-0 0.5,-30 191.5,-30 191.5,-0 0.5,-0"/>
<text text-anchor="start" x="8.5" y="-18" font-family="Helvetica,sans-Serif" font-size="10.00">ui.elements.MenuBarElement.toggle</text>
<text text-anchor="middle" x="96" y="-7" font-family="Helvetica,sans-Serif" font-size="10.00">MenuItems</text>
</g>
<!-- Node2 -->
<g id="node2" class="node"><title>Node2</title>
<g id="a_node2"><a xlink:href="../../d0/de6/classui_1_1elements_1_1_menu_bar_element.html#a2fe6c8936d469e50e26a806b8660fc8b" target="_top" xlink:title="ui.elements.MenuBarElement.check\lLanguageMenuItems">
<polygon fill="white" stroke="black" points="228.5,-0 228.5,-30 417.5,-30 417.5,-0 228.5,-0"/>
<text text-anchor="start" x="236.5" y="-18" font-family="Helvetica,sans-Serif" font-size="10.00">ui.elements.MenuBarElement.check</text>
<text text-anchor="middle" x="323" y="-7" font-family="Helvetica,sans-Serif" font-size="10.00">LanguageMenuItems</text>
</a>
</g>
</g>
<!-- Node1&#45;&gt;Node2 -->
<g id="edge1" class="edge"><title>Node1&#45;&gt;Node2</title>
<path fill="none" stroke="midnightblue" d="M201.77,-15C210.664,-15 219.622,-15 228.421,-15"/>
<polygon fill="midnightblue" stroke="midnightblue" points="201.768,-11.5001 191.768,-15 201.768,-18.5001 201.768,-11.5001"/>
</g>
<!-- Node3 -->
<g id="node3" class="node"><title>Node3</title>
<g id="a_node3"><a xlink:href="../../d0/de6/classui_1_1elements_1_1_menu_bar_element.html#a3ee62dedaa9a64b73d373f4e58ea5690" target="_top" xlink:title="ui.elements.MenuBarElement.makeMenu">
<polygon fill="white" stroke="black" points="454.5,-5.5 454.5,-24.5 669.5,-24.5 669.5,-5.5 454.5,-5.5"/>
<text text-anchor="middle" x="562" y="-12.5" font-family="Helvetica,sans-Serif" font-size="10.00">ui.elements.MenuBarElement.makeMenu</text>
</a>
</g>
</g>
<!-- Node2&#45;&gt;Node3 -->
<g id="edge2" class="edge"><title>Node2&#45;&gt;Node3</title>
<path fill="none" stroke="midnightblue" d="M427.895,-15C436.658,-15 445.529,-15 454.313,-15"/>
<polygon fill="midnightblue" stroke="midnightblue" points="427.669,-11.5001 417.669,-15 427.669,-18.5001 427.669,-11.5001"/>
</g>
<!-- Node4 -->
<g id="node4" class="node"><title>Node4</title>
<g id="a_node4"><a xlink:href="../../d0/de6/classui_1_1elements_1_1_menu_bar_element.html#a98c13995a31d997aa10f2950583da6cc" target="_top" xlink:title="ui.elements.MenuBarElement.make\lMenuBar">
<polygon fill="white" stroke="black" points="706,-0 706,-30 894,-30 894,-0 706,-0"/>
<text text-anchor="start" x="714" y="-18" font-family="Helvetica,sans-Serif" font-size="10.00">ui.elements.MenuBarElement.make</text>
<text text-anchor="middle" x="800" y="-7" font-family="Helvetica,sans-Serif" font-size="10.00">MenuBar</text>
</a>
</g>
</g>
<!-- Node3&#45;&gt;Node4 -->
<g id="edge3" class="edge"><title>Node3&#45;&gt;Node4</title>
<path fill="none" stroke="midnightblue" d="M679.838,-15C688.566,-15 697.302,-15 705.856,-15"/>
<polygon fill="midnightblue" stroke="midnightblue" points="679.608,-11.5001 669.608,-15 679.608,-18.5001 679.608,-11.5001"/>
</g>
<!-- Node5 -->
<g id="node5" class="node"><title>Node5</title>
<g id="a_node5"><a xlink:href="../../d0/de6/classui_1_1elements_1_1_menu_bar_element.html#a7bdb58f78cf8b61ba28498c5c86ab682" target="_top" xlink:title="ui.elements.MenuBarElement.init">
<polygon fill="white" stroke="black" points="930,-5.5 930,-24.5 1106,-24.5 1106,-5.5 930,-5.5"/>
<text text-anchor="middle" x="1018" y="-12.5" font-family="Helvetica,sans-Serif" font-size="10.00">ui.elements.MenuBarElement.init</text>
</a>
</g>
</g>
<!-- Node4&#45;&gt;Node5 -->
<g id="edge4" class="edge"><title>Node4&#45;&gt;Node5</title>
<path fill="none" stroke="midnightblue" d="M904.235,-15C912.835,-15 921.475,-15 929.937,-15"/>
<polygon fill="midnightblue" stroke="midnightblue" points="904.171,-11.5001 894.171,-15 904.171,-18.5001 904.171,-11.5001"/>
</g>
<!-- Node6 -->
<g id="node6" class="node"><title>Node6</title>
<g id="a_node6"><a xlink:href="../../d0/de6/classui_1_1elements_1_1_menu_bar_element.html#ab4a4e6841c924a9d9c70b8073b56dffc" target="_top" xlink:title="ui.elements.MenuBarElement.\lMenuBarElement">
<polygon fill="white" stroke="black" points="1142.5,-0 1142.5,-30 1303.5,-30 1303.5,-0 1142.5,-0"/>
<text text-anchor="start" x="1150.5" y="-18" font-family="Helvetica,sans-Serif" font-size="10.00">ui.elements.MenuBarElement.</text>
<text text-anchor="middle" x="1223" y="-7" font-family="Helvetica,sans-Serif" font-size="10.00">MenuBarElement</text>
</a>
</g>
</g>
<!-- Node5&#45;&gt;Node6 -->
<g id="edge5" class="edge"><title>Node5&#45;&gt;Node6</title>
<path fill="none" stroke="midnightblue" d="M1116.47,-15C1125.19,-15 1133.95,-15 1142.5,-15"/>
<polygon fill="midnightblue" stroke="midnightblue" points="1116.27,-11.5001 1106.27,-15 1116.27,-18.5001 1116.27,-11.5001"/>
</g>
</g>
</svg>
