<?xml version="1.0" encoding="UTF-8" standalone="no"?>
<!DOCTYPE svg PUBLIC "-//W3C//DTD SVG 1.1//EN"
 "http://www.w3.org/Graphics/SVG/1.1/DTD/svg11.dtd">
<!-- Generated by graphviz version 2.36.0 (20140111.2315)
 -->
<!-- Title: ui.elements.MenuBarElement.makeMenu Pages: 1 -->
<svg width="678pt" height="136pt"
 viewBox="0.00 0.00 678.00 136.00" xmlns="http://www.w3.org/2000/svg" xmlns:xlink="http://www.w3.org/1999/xlink">
<g id="graph0" class="graph" transform="scale(1 1) rotate(0) translate(4 132)">
<title>ui.elements.MenuBarElement.makeMenu</title>
<polygon fill="white" stroke="none" points="-4,4 -4,-132 674,-132 674,4 -4,4"/>
<!-- Node1 -->
<g id="node1" class="node"><title>Node1</title>
<polygon fill="#bfbfbf" stroke="black" points="0.5,-54.5 0.5,-73.5 215.5,-73.5 215.5,-54.5 0.5,-54.5"/>
<text text-anchor="middle" x="108" y="-61.5" font-family="Helvetica,sans-Serif" font-size="10.00">ui.elements.MenuBarElement.makeMenu</text>
</g>
<!-- Node2 -->
<g id="node2" class="node"><title>Node2</title>
<g id="a_node2"><a xlink:href="../../d0/de6/classui_1_1elements_1_1_menu_bar_element.html#a2fe6c8936d469e50e26a806b8660fc8b" target="_top" xlink:title="ui.elements.MenuBarElement.check\lLanguageMenuItems">
<polygon fill="white" stroke="black" points="252.5,-49 252.5,-79 441.5,-79 441.5,-49 252.5,-49"/>
<text text-anchor="start" x="260.5" y="-67" font-family="Helvetica,sans-Serif" font-size="10.00">ui.elements.MenuBarElement.check</text>
<text text-anchor="middle" x="347" y="-56" font-family="Helvetica,sans-Serif" font-size="10.00">LanguageMenuItems</text>
</a>
</g>
</g>
<!-- Node1&#45;&gt;Node2 -->
<g id="edge1" class="edge"><title>Node1&#45;&gt;Node2</title>
<path fill="none" stroke="midnightblue" d="M215.714,-64C224.456,-64 233.285,-64 242.007,-64"/>
<polygon fill="midnightblue" stroke="midnightblue" points="242.186,-67.5001 252.186,-64 242.186,-60.5001 242.186,-67.5001"/>
</g>
<!-- Node3 -->
<g id="node3" class="node"><title>Node3</title>
<g id="a_node3"><a xlink:href="../../d8/d3c/classui_1_1elements_1_1_i_o_element.html#a585a6ace3538ab4eeef473ec6d46ad28" target="_top" xlink:title="ui.elements.IOElement.get\lButton">
<polygon fill="white" stroke="black" points="502,-98 502,-128 646,-128 646,-98 502,-98"/>
<text text-anchor="start" x="510" y="-116" font-family="Helvetica,sans-Serif" font-size="10.00">ui.elements.IOElement.get</text>
<text text-anchor="middle" x="574" y="-105" font-family="Helvetica,sans-Serif" font-size="10.00">Button</text>
</a>
</g>
</g>
<!-- Node2&#45;&gt;Node3 -->
<g id="edge2" class="edge"><title>Node2&#45;&gt;Node3</title>
<path fill="none" stroke="midnightblue" d="M417.037,-79.0346C441.441,-84.3494 469.071,-90.3665 494.222,-95.844"/>
<polygon fill="midnightblue" stroke="midnightblue" points="493.578,-99.2857 504.094,-97.9938 495.068,-92.446 493.578,-99.2857"/>
</g>
<!-- Node4 -->
<g id="node4" class="node"><title>Node4</title>
<g id="a_node4"><a xlink:href="../../d8/d3c/classui_1_1elements_1_1_i_o_element.html#a3b1244fbac1fbbee1183143097b1e4ef" target="_top" xlink:title="ui.elements.IOElement.get\lInputField">
<polygon fill="white" stroke="black" points="502,-49 502,-79 646,-79 646,-49 502,-49"/>
<text text-anchor="start" x="510" y="-67" font-family="Helvetica,sans-Serif" font-size="10.00">ui.elements.IOElement.get</text>
<text text-anchor="middle" x="574" y="-56" font-family="Helvetica,sans-Serif" font-size="10.00">InputField</text>
</a>
</g>
</g>
<!-- Node2&#45;&gt;Node4 -->
<g id="edge3" class="edge"><title>Node2&#45;&gt;Node4</title>
<path fill="none" stroke="midnightblue" d="M441.791,-64C458.467,-64 475.707,-64 491.99,-64"/>
<polygon fill="midnightblue" stroke="midnightblue" points="491.991,-67.5001 501.991,-64 491.991,-60.5001 491.991,-67.5001"/>
</g>
<!-- Node5 -->
<g id="node5" class="node"><title>Node5</title>
<g id="a_node5"><a xlink:href="../../d0/de6/classui_1_1elements_1_1_menu_bar_element.html#ac9ae1ea5775f95bb1a113b11e959f6c0" target="_top" xlink:title="ui.elements.MenuBarElement.toggle\lMenuItems">
<polygon fill="white" stroke="black" points="478.5,-0 478.5,-30 669.5,-30 669.5,-0 478.5,-0"/>
<text text-anchor="start" x="486.5" y="-18" font-family="Helvetica,sans-Serif" font-size="10.00">ui.elements.MenuBarElement.toggle</text>
<text text-anchor="middle" x="574" y="-7" font-family="Helvetica,sans-Serif" font-size="10.00">MenuItems</text>
</a>
</g>
</g>
<!-- Node2&#45;&gt;Node5 -->
<g id="edge4" class="edge"><title>Node2&#45;&gt;Node5</title>
<path fill="none" stroke="midnightblue" d="M417.037,-48.9654C441.441,-43.6506 469.071,-37.6335 494.222,-32.156"/>
<polygon fill="midnightblue" stroke="midnightblue" points="495.068,-35.554 504.094,-30.0062 493.578,-28.7143 495.068,-35.554"/>
</g>
</g>
</svg>
