<?xml version="1.0" encoding="UTF-8" standalone="no"?>
<!DOCTYPE svg PUBLIC "-//W3C//DTD SVG 1.1//EN"
 "http://www.w3.org/Graphics/SVG/1.1/DTD/svg11.dtd">
<!-- Generated by graphviz version 2.36.0 (20140111.2315)
 -->
<!-- Title: errors.CommandNotFoundException Pages: 1 -->
<svg width="200pt" height="154pt"
 viewBox="0.00 0.00 200.00 154.00" xmlns="http://www.w3.org/2000/svg" xmlns:xlink="http://www.w3.org/1999/xlink">
<g id="graph0" class="graph" transform="scale(1 1) rotate(0) translate(4 150)">
<title>errors.CommandNotFoundException</title>
<polygon fill="white" stroke="none" points="-4,4 -4,-150 196,-150 196,4 -4,4"/>
<!-- Node1 -->
<g id="node1" class="node"><title>Node1</title>
<polygon fill="#bfbfbf" stroke="black" points="1.5,-0.5 1.5,-19.5 192.5,-19.5 192.5,-0.5 1.5,-0.5"/>
<text text-anchor="middle" x="97" y="-7.5" font-family="Helvetica,sans-Serif" font-size="10.00">errors.CommandNotFoundException</text>
</g>
<!-- Node2 -->
<g id="node2" class="node"><title>Node2</title>
<g id="a_node2"><a xlink:href="../../d9/dad/classerrors_1_1_s_logo_exception.html" target="_top" xlink:title="errors.SLogoException">
<polygon fill="white" stroke="black" points="34.5,-58.5 34.5,-77.5 159.5,-77.5 159.5,-58.5 34.5,-58.5"/>
<text text-anchor="middle" x="97" y="-65.5" font-family="Helvetica,sans-Serif" font-size="10.00">errors.SLogoException</text>
</a>
</g>
</g>
<!-- Node2&#45;&gt;Node1 -->
<g id="edge1" class="edge"><title>Node2&#45;&gt;Node1</title>
<path fill="none" stroke="midnightblue" d="M97,-47.953C97,-38.2875 97,-27.0312 97,-19.5052"/>
<polygon fill="midnightblue" stroke="midnightblue" points="93.5001,-48.25 97,-58.25 100.5,-48.25 93.5001,-48.25"/>
</g>
<!-- Node3 -->
<g id="node3" class="node"><title>Node3</title>
<polygon fill="white" stroke="#bfbfbf" points="0,-126.5 0,-145.5 102,-145.5 102,-126.5 0,-126.5"/>
<text text-anchor="middle" x="51" y="-133.5" font-family="Helvetica,sans-Serif" font-size="10.00">RuntimeException</text>
</g>
<!-- Node3&#45;&gt;Node2 -->
<g id="edge2" class="edge"><title>Node3&#45;&gt;Node2</title>
<path fill="none" stroke="midnightblue" d="M62.8919,-117.938C71.8311,-105.112 83.7164,-88.0591 90.838,-77.8411"/>
<polygon fill="midnightblue" stroke="midnightblue" points="59.8603,-116.166 57.0137,-126.372 65.6031,-120.169 59.8603,-116.166"/>
</g>
<!-- Node4 -->
<g id="node4" class="node"><title>Node4</title>
<polygon fill="white" stroke="#bfbfbf" points="120.5,-126.5 120.5,-145.5 165.5,-145.5 165.5,-126.5 120.5,-126.5"/>
<text text-anchor="middle" x="143" y="-133.5" font-family="Helvetica,sans-Serif" font-size="10.00">Stage</text>
</g>
<!-- Node4&#45;&gt;Node2 -->
<g id="edge3" class="edge"><title>Node4&#45;&gt;Node2</title>
<path fill="none" stroke="#9a32cd" stroke-dasharray="5,2" d="M131.108,-117.938C122.169,-105.112 110.284,-88.0591 103.162,-77.8411"/>
<polygon fill="#9a32cd" stroke="#9a32cd" points="128.397,-120.169 136.986,-126.372 134.14,-116.166 128.397,-120.169"/>
<text text-anchor="middle" x="156" y="-99.5" font-family="Helvetica,sans-Serif" font-size="10.00"> popupStage</text>
</g>
</g>
</svg>
