<?xml version="1.0" encoding="UTF-8" standalone="no"?>
<!DOCTYPE svg PUBLIC "-//W3C//DTD SVG 1.1//EN"
 "http://www.w3.org/Graphics/SVG/1.1/DTD/svg11.dtd">
<!-- Generated by graphviz version 2.36.0 (20140111.2315)
 -->
<!-- Title: parser.TreeGenerator Pages: 1 -->
<svg width="926pt" height="302pt"
 viewBox="0.00 0.00 926.00 302.00" xmlns="http://www.w3.org/2000/svg" xmlns:xlink="http://www.w3.org/1999/xlink">
<g id="graph0" class="graph" transform="scale(1 1) rotate(0) translate(4 298)">
<title>parser.TreeGenerator</title>
<polygon fill="white" stroke="none" points="-4,4 -4,-298 922,-298 922,4 -4,4"/>
<!-- Node1 -->
<g id="node1" class="node"><title>Node1</title>
<polygon fill="#bfbfbf" stroke="black" points="800,-80.5 800,-99.5 918,-99.5 918,-80.5 800,-80.5"/>
<text text-anchor="middle" x="859" y="-87.5" font-family="Helvetica,sans-Serif" font-size="10.00">parser.TreeGenerator</text>
</g>
<!-- Node2 -->
<g id="node2" class="node"><title>Node2</title>
<g id="a_node2"><a xlink:href="../../d9/dc0/interfaceparser_1_1_tree_wrapper.html" target="_top" xlink:title="parser.TreeWrapper">
<polygon fill="white" stroke="black" points="261,-274.5 261,-293.5 369,-293.5 369,-274.5 261,-274.5"/>
<text text-anchor="middle" x="315" y="-281.5" font-family="Helvetica,sans-Serif" font-size="10.00">parser.TreeWrapper</text>
</a>
</g>
</g>
<!-- Node2&#45;&gt;Node1 -->
<g id="edge1" class="edge"><title>Node2&#45;&gt;Node1</title>
<path fill="none" stroke="midnightblue" d="M379.455,-286.183C416.81,-286.027 464.682,-283.31 506,-273 637.013,-240.307 665.71,-214.628 782,-146 806.278,-131.673 832.24,-111.318 846.664,-99.5035"/>
<polygon fill="midnightblue" stroke="midnightblue" points="379.219,-282.683 369.212,-286.164 379.205,-289.683 379.219,-282.683"/>
</g>
<!-- Node3 -->
<g id="node3" class="node"><title>Node3</title>
<g id="a_node3"><a xlink:href="../../d5/d30/classparser_1_1_command_case.html" target="_top" xlink:title="parser.CommandCase">
<polygon fill="white" stroke="black" points="543,-149.5 543,-168.5 667,-168.5 667,-149.5 543,-149.5"/>
<text text-anchor="middle" x="605" y="-156.5" font-family="Helvetica,sans-Serif" font-size="10.00">parser.CommandCase</text>
</a>
</g>
</g>
<!-- Node2&#45;&gt;Node3 -->
<g id="edge7" class="edge"><title>Node2&#45;&gt;Node3</title>
<path fill="none" stroke="#9a32cd" stroke-dasharray="5,2" d="M364.638,-272.101C420.392,-258.442 504.373,-237.801 506,-237 542.874,-218.851 578.717,-184.986 594.953,-168.502"/>
<polygon fill="#9a32cd" stroke="#9a32cd" points="363.804,-268.702 354.924,-274.48 365.47,-275.501 363.804,-268.702"/>
<text text-anchor="middle" x="456" y="-263" font-family="Helvetica,sans-Serif" font-size="10.00"> wrapper</text>
</g>
<!-- Node3&#45;&gt;Node1 -->
<g id="edge2" class="edge"><title>Node3&#45;&gt;Node1</title>
<path fill="none" stroke="#9a32cd" stroke-dasharray="5,2" d="M650.525,-146.809C699.801,-133.316 778.185,-111.854 823.178,-99.5347"/>
<polygon fill="#9a32cd" stroke="#9a32cd" points="649.496,-143.462 640.775,-149.478 651.344,-150.213 649.496,-143.462"/>
<text text-anchor="middle" x="743" y="-134" font-family="Helvetica,sans-Serif" font-size="10.00"> CommandCase</text>
</g>
<!-- Node4 -->
<g id="node4" class="node"><title>Node4</title>
<g id="a_node4"><a xlink:href="../../d7/d32/interfaceparser_1_1_cases.html" target="_top" xlink:title="parser.Cases">
<polygon fill="white" stroke="black" points="275.5,-107.5 275.5,-126.5 354.5,-126.5 354.5,-107.5 275.5,-107.5"/>
<text text-anchor="middle" x="315" y="-114.5" font-family="Helvetica,sans-Serif" font-size="10.00">parser.Cases</text>
</a>
</g>
</g>
<!-- Node4&#45;&gt;Node3 -->
<g id="edge3" class="edge"><title>Node4&#45;&gt;Node3</title>
<path fill="none" stroke="midnightblue" d="M364.589,-124.086C413.67,-131.244 489.637,-142.322 542.799,-150.075"/>
<polygon fill="midnightblue" stroke="midnightblue" points="364.943,-120.601 354.542,-122.621 363.932,-127.527 364.943,-120.601"/>
</g>
<!-- Node5 -->
<g id="node5" class="node"><title>Node5</title>
<polygon fill="white" stroke="#bfbfbf" points="259,-222 259,-252 371,-252 371,-222 259,-222"/>
<text text-anchor="start" x="267" y="-240" font-family="Helvetica,sans-Serif" font-size="10.00">List&lt; Entry&lt; String,</text>
<text text-anchor="middle" x="315" y="-229" font-family="Helvetica,sans-Serif" font-size="10.00"> Pattern &gt; &gt;</text>
</g>
<!-- Node5&#45;&gt;Node3 -->
<g id="edge4" class="edge"><title>Node5&#45;&gt;Node3</title>
<path fill="none" stroke="#9a32cd" stroke-dasharray="5,2" d="M381.254,-226.542C418.245,-219.886 465.157,-210.215 506,-198 533.193,-189.868 563.383,-177.286 582.972,-168.624"/>
<polygon fill="#9a32cd" stroke="#9a32cd" points="380.334,-223.151 371.097,-228.339 381.554,-230.044 380.334,-223.151"/>
<text text-anchor="middle" x="456" y="-225" font-family="Helvetica,sans-Serif" font-size="10.00"> languagePatternList</text>
</g>
<!-- Node6 -->
<g id="node6" class="node"><title>Node6</title>
<polygon fill="white" stroke="#bfbfbf" points="251.5,-183.5 251.5,-202.5 378.5,-202.5 378.5,-183.5 251.5,-183.5"/>
<text text-anchor="middle" x="315" y="-190.5" font-family="Helvetica,sans-Serif" font-size="10.00">Map&lt; String, String[]&gt;</text>
</g>
<!-- Node6&#45;&gt;Node3 -->
<g id="edge5" class="edge"><title>Node6&#45;&gt;Node3</title>
<path fill="none" stroke="#9a32cd" stroke-dasharray="5,2" d="M389.136,-184.645C424.452,-180.582 467.436,-175.594 506,-171 517.914,-169.581 530.64,-168.04 542.843,-166.551"/>
<polygon fill="#9a32cd" stroke="#9a32cd" points="388.448,-181.201 378.913,-185.82 389.247,-188.155 388.448,-181.201"/>
<text text-anchor="middle" x="456" y="-186" font-family="Helvetica,sans-Serif" font-size="10.00"> parametersMap</text>
</g>
<!-- Node7 -->
<g id="node7" class="node"><title>Node7</title>
<polygon fill="white" stroke="#bfbfbf" points="273,-58.5 273,-77.5 357,-77.5 357,-58.5 273,-58.5"/>
<text text-anchor="middle" x="315" y="-65.5" font-family="Helvetica,sans-Serif" font-size="10.00">List&lt; String &gt;</text>
</g>
<!-- Node7&#45;&gt;Node1 -->
<g id="edge10" class="edge"><title>Node7&#45;&gt;Node1</title>
<path fill="none" stroke="#9a32cd" stroke-dasharray="5,2" d="M367.458,-70.0887C468.697,-74.1981 693.151,-83.3087 799.69,-87.6332"/>
<polygon fill="#9a32cd" stroke="#9a32cd" points="367.317,-66.5802 357.183,-69.6716 367.033,-73.5744 367.317,-66.5802"/>
<text text-anchor="middle" x="605" y="-86" font-family="Helvetica,sans-Serif" font-size="10.00"> myInput</text>
</g>
<!-- Node7&#45;&gt;Node3 -->
<g id="edge6" class="edge"><title>Node7&#45;&gt;Node3</title>
<path fill="none" stroke="#9a32cd" stroke-dasharray="5,2" d="M367.06,-73.5604C405.986,-78.8378 460.47,-88.4845 506,-105 537.775,-116.526 571.629,-137.331 590.057,-149.476"/>
<polygon fill="#9a32cd" stroke="#9a32cd" points="367.384,-70.0731 357.015,-72.2486 366.477,-77.0141 367.384,-70.0731"/>
<text text-anchor="middle" x="456" y="-119" font-family="Helvetica,sans-Serif" font-size="10.00"> myInput</text>
<text text-anchor="middle" x="456" y="-108" font-family="Helvetica,sans-Serif" font-size="10.00">methodList</text>
</g>
<!-- Node8 -->
<g id="node8" class="node"><title>Node8</title>
<g id="a_node8"><a xlink:href="../../dc/d9e/classparser_1_1_command_tree_node.html" target="_top" xlink:title="parser.CommandTreeNode">
<polygon fill="white" stroke="black" points="242.5,-145.5 242.5,-164.5 387.5,-164.5 387.5,-145.5 242.5,-145.5"/>
<text text-anchor="middle" x="315" y="-152.5" font-family="Helvetica,sans-Serif" font-size="10.00">parser.CommandTreeNode</text>
</a>
</g>
</g>
<!-- Node8&#45;&gt;Node3 -->
<g id="edge8" class="edge"><title>Node8&#45;&gt;Node3</title>
<path fill="none" stroke="#9a32cd" stroke-dasharray="5,2" d="M397.813,-156.136C443.836,-156.776 500.35,-157.56 542.566,-158.147"/>
<polygon fill="#9a32cd" stroke="#9a32cd" points="397.609,-152.633 387.561,-155.994 397.511,-159.633 397.609,-152.633"/>
<text text-anchor="middle" x="456" y="-161" font-family="Helvetica,sans-Serif" font-size="10.00"> myRoot</text>
</g>
<!-- Node9 -->
<g id="node9" class="node"><title>Node9</title>
<polygon fill="white" stroke="#bfbfbf" points="0.5,-140 0.5,-170 147.5,-170 147.5,-140 0.5,-140"/>
<text text-anchor="start" x="8.5" y="-158" font-family="Helvetica,sans-Serif" font-size="10.00">List&lt; parser.CommandTree</text>
<text text-anchor="middle" x="74" y="-147" font-family="Helvetica,sans-Serif" font-size="10.00">Node &gt;</text>
</g>
<!-- Node9&#45;&gt;Node8 -->
<g id="edge9" class="edge"><title>Node9&#45;&gt;Node8</title>
<path fill="none" stroke="#9a32cd" stroke-dasharray="5,2" d="M157.706,-155C185.307,-155 215.81,-155 242.486,-155"/>
<polygon fill="#9a32cd" stroke="#9a32cd" points="157.681,-151.5 147.681,-155 157.681,-158.5 157.681,-151.5"/>
<text text-anchor="middle" x="195" y="-158" font-family="Helvetica,sans-Serif" font-size="10.00"> myChildren</text>
</g>
<!-- Node10 -->
<g id="node10" class="node"><title>Node10</title>
<polygon fill="white" stroke="#bfbfbf" points="524,-0.5 524,-19.5 686,-19.5 686,-0.5 524,-0.5"/>
<text text-anchor="middle" x="605" y="-7.5" font-family="Helvetica,sans-Serif" font-size="10.00">Map&lt; Pattern, parser.Cases &gt;</text>
</g>
<!-- Node10&#45;&gt;Node1 -->
<g id="edge11" class="edge"><title>Node10&#45;&gt;Node1</title>
<path fill="none" stroke="#9a32cd" stroke-dasharray="5,2" d="M696.528,-11.4361C724.72,-14.3284 755.378,-20.0742 782,-31 809.506,-42.2887 835.505,-66.4032 848.794,-80.0499"/>
<polygon fill="#9a32cd" stroke="#9a32cd" points="696.542,-7.92285 686.264,-10.4953 695.903,-14.8936 696.542,-7.92285"/>
<text text-anchor="middle" x="743" y="-34" font-family="Helvetica,sans-Serif" font-size="10.00"> handlerMap</text>
</g>
</g>
</svg>
