<?xml version="1.0" encoding="UTF-8" standalone="no"?>
<!DOCTYPE svg PUBLIC "-//W3C//DTD SVG 1.1//EN"
 "http://www.w3.org/Graphics/SVG/1.1/DTD/svg11.dtd">
<!-- Generated by graphviz version 2.36.0 (20140111.2315)
 -->
<!-- Title: command.turtle.SetHeadingCommand.calculateValue Pages: 1 -->
<svg width="336pt" height="77pt"
 viewBox="0.00 0.00 336.00 77.00" xmlns="http://www.w3.org/2000/svg" xmlns:xlink="http://www.w3.org/1999/xlink">
<g id="graph0" class="graph" transform="scale(1 1) rotate(0) translate(4 73)">
<title>command.turtle.SetHeadingCommand.calculateValue</title>
<polygon fill="white" stroke="none" points="-4,4 -4,-73 332,-73 332,4 -4,4"/>
<!-- Node1 -->
<g id="node1" class="node"><title>Node1</title>
<polygon fill="#bfbfbf" stroke="black" points="0.5,-22 0.5,-52 153.5,-52 153.5,-22 0.5,-22"/>
<text text-anchor="start" x="8.5" y="-40" font-family="Helvetica,sans-Serif" font-size="10.00">command.turtle.SetHeading</text>
<text text-anchor="middle" x="77" y="-29" font-family="Helvetica,sans-Serif" font-size="10.00">Command.calculateValue</text>
</g>
<!-- Node2 -->
<g id="node2" class="node"><title>Node2</title>
<g id="a_node2"><a xlink:href="../../d6/d34/classmodel_1_1_turtle.html#a2b2a79e69080a0bacbefea42068da2dd" target="_top" xlink:title="model.Turtle.setHeading">
<polygon fill="white" stroke="black" points="192.5,-49.5 192.5,-68.5 325.5,-68.5 325.5,-49.5 192.5,-49.5"/>
<text text-anchor="middle" x="259" y="-56.5" font-family="Helvetica,sans-Serif" font-size="10.00">model.Turtle.setHeading</text>
</a>
</g>
</g>
<!-- Node1&#45;&gt;Node2 -->
<g id="edge1" class="edge"><title>Node1&#45;&gt;Node2</title>
<path fill="none" stroke="midnightblue" d="M153.554,-46.2344C163.021,-47.3915 172.708,-48.5754 182.18,-49.7331"/>
<polygon fill="midnightblue" stroke="midnightblue" points="182.002,-53.2373 192.352,-50.9764 182.851,-46.289 182.002,-53.2373"/>
</g>
<!-- Node3 -->
<g id="node3" class="node"><title>Node3</title>
<g id="a_node3"><a xlink:href="../../d6/d34/classmodel_1_1_turtle.html#ab69148692c7de79ad6c276902b81553a" target="_top" xlink:title="model.Turtle.updateTurtle\lViewers">
<polygon fill="white" stroke="black" points="190.5,-0 190.5,-30 327.5,-30 327.5,-0 190.5,-0"/>
<text text-anchor="start" x="198.5" y="-18" font-family="Helvetica,sans-Serif" font-size="10.00">model.Turtle.updateTurtle</text>
<text text-anchor="middle" x="259" y="-7" font-family="Helvetica,sans-Serif" font-size="10.00">Viewers</text>
</a>
</g>
</g>
<!-- Node1&#45;&gt;Node3 -->
<g id="edge2" class="edge"><title>Node1&#45;&gt;Node3</title>
<path fill="none" stroke="midnightblue" d="M153.554,-27.7656C162.431,-26.6806 171.501,-25.572 180.406,-24.4837"/>
<polygon fill="midnightblue" stroke="midnightblue" points="180.869,-27.9532 190.371,-23.2658 180.02,-21.0049 180.869,-27.9532"/>
</g>
</g>
</svg>
