<?xml version="1.0" encoding="UTF-8" standalone="no"?>
<!DOCTYPE svg PUBLIC "-//W3C//DTD SVG 1.1//EN"
 "http://www.w3.org/Graphics/SVG/1.1/DTD/svg11.dtd">
<!-- Generated by graphviz version 2.36.0 (20140111.2315)
 -->
<!-- Title: command.turtle.LeftCommand.calculateValue Pages: 1 -->
<svg width="394pt" height="115pt"
 viewBox="0.00 0.00 394.00 115.00" xmlns="http://www.w3.org/2000/svg" xmlns:xlink="http://www.w3.org/1999/xlink">
<g id="graph0" class="graph" transform="scale(1 1) rotate(0) translate(4 111)">
<title>command.turtle.LeftCommand.calculateValue</title>
<polygon fill="white" stroke="none" points="-4,4 -4,-111 390,-111 390,4 -4,4"/>
<!-- Node1 -->
<g id="node1" class="node"><title>Node1</title>
<polygon fill="#bfbfbf" stroke="black" points="0.5,-44 0.5,-74 211.5,-74 211.5,-44 0.5,-44"/>
<text text-anchor="start" x="8.5" y="-62" font-family="Helvetica,sans-Serif" font-size="10.00">command.turtle.LeftCommand.calculate</text>
<text text-anchor="middle" x="106" y="-51" font-family="Helvetica,sans-Serif" font-size="10.00">Value</text>
</g>
<!-- Node2 -->
<g id="node2" class="node"><title>Node2</title>
<g id="a_node2"><a xlink:href="../../d6/d34/classmodel_1_1_turtle.html#a1c5d07962ede5fbfacc59413274d4300" target="_top" xlink:title="model.Turtle.getHeading">
<polygon fill="white" stroke="black" points="250,-87.5 250,-106.5 384,-106.5 384,-87.5 250,-87.5"/>
<text text-anchor="middle" x="317" y="-94.5" font-family="Helvetica,sans-Serif" font-size="10.00">model.Turtle.getHeading</text>
</a>
</g>
</g>
<!-- Node1&#45;&gt;Node2 -->
<g id="edge1" class="edge"><title>Node1&#45;&gt;Node2</title>
<path fill="none" stroke="midnightblue" d="M189.602,-74.0186C210.979,-77.9052 233.635,-82.0245 253.772,-85.6859"/>
<polygon fill="midnightblue" stroke="midnightblue" points="253.28,-89.1537 263.745,-87.4991 254.532,-82.2666 253.28,-89.1537"/>
</g>
<!-- Node3 -->
<g id="node3" class="node"><title>Node3</title>
<g id="a_node3"><a xlink:href="../../d6/d34/classmodel_1_1_turtle.html#a2b2a79e69080a0bacbefea42068da2dd" target="_top" xlink:title="model.Turtle.setHeading">
<polygon fill="white" stroke="black" points="250.5,-49.5 250.5,-68.5 383.5,-68.5 383.5,-49.5 250.5,-49.5"/>
<text text-anchor="middle" x="317" y="-56.5" font-family="Helvetica,sans-Serif" font-size="10.00">model.Turtle.setHeading</text>
</a>
</g>
</g>
<!-- Node1&#45;&gt;Node3 -->
<g id="edge2" class="edge"><title>Node1&#45;&gt;Node3</title>
<path fill="none" stroke="midnightblue" d="M211.806,-59C221.352,-59 230.895,-59 240.116,-59"/>
<polygon fill="midnightblue" stroke="midnightblue" points="240.372,-62.5001 250.372,-59 240.372,-55.5001 240.372,-62.5001"/>
</g>
<!-- Node4 -->
<g id="node4" class="node"><title>Node4</title>
<g id="a_node4"><a xlink:href="../../d6/d34/classmodel_1_1_turtle.html#ab69148692c7de79ad6c276902b81553a" target="_top" xlink:title="model.Turtle.updateTurtle\lViewers">
<polygon fill="white" stroke="black" points="248.5,-0 248.5,-30 385.5,-30 385.5,-0 248.5,-0"/>
<text text-anchor="start" x="256.5" y="-18" font-family="Helvetica,sans-Serif" font-size="10.00">model.Turtle.updateTurtle</text>
<text text-anchor="middle" x="317" y="-7" font-family="Helvetica,sans-Serif" font-size="10.00">Viewers</text>
</a>
</g>
</g>
<!-- Node1&#45;&gt;Node4 -->
<g id="edge3" class="edge"><title>Node1&#45;&gt;Node4</title>
<path fill="none" stroke="midnightblue" d="M178.341,-43.9808C197.663,-39.913 218.673,-35.49 238.324,-31.3528"/>
<polygon fill="midnightblue" stroke="midnightblue" points="239.089,-34.7685 248.154,-29.2834 237.647,-27.9187 239.089,-34.7685"/>
</g>
</g>
</svg>
