<?xml version="1.0" encoding="UTF-8" standalone="no"?>
<!DOCTYPE svg PUBLIC "-//W3C//DTD SVG 1.1//EN"
 "http://www.w3.org/Graphics/SVG/1.1/DTD/svg11.dtd">
<!-- Generated by graphviz version 2.36.0 (20140111.2315)
 -->
<!-- Title: command.control.TurtlesCommand Pages: 1 -->
<svg width="896pt" height="154pt"
 viewBox="0.00 0.00 896.00 154.00" xmlns="http://www.w3.org/2000/svg" xmlns:xlink="http://www.w3.org/1999/xlink">
<g id="graph0" class="graph" transform="scale(1 1) rotate(0) translate(4 150)">
<title>command.control.TurtlesCommand</title>
<polygon fill="white" stroke="none" points="-4,4 -4,-150 892,-150 892,4 -4,4"/>
<!-- Node1 -->
<g id="node1" class="node"><title>Node1</title>
<polygon fill="#bfbfbf" stroke="black" points="702.5,-90.5 702.5,-109.5 887.5,-109.5 887.5,-90.5 702.5,-90.5"/>
<text text-anchor="middle" x="795" y="-97.5" font-family="Helvetica,sans-Serif" font-size="10.00">command.control.TurtlesCommand</text>
</g>
<!-- Node2 -->
<g id="node2" class="node"><title>Node2</title>
<g id="a_node2"><a xlink:href="../../d7/d35/classcommand_1_1_command.html" target="_top" xlink:title="command.Command">
<polygon fill="white" stroke="black" points="522.5,-106.5 522.5,-125.5 641.5,-125.5 641.5,-106.5 522.5,-106.5"/>
<text text-anchor="middle" x="582" y="-113.5" font-family="Helvetica,sans-Serif" font-size="10.00">command.Command</text>
</a>
</g>
</g>
<!-- Node2&#45;&gt;Node1 -->
<g id="edge1" class="edge"><title>Node2&#45;&gt;Node1</title>
<path fill="none" stroke="midnightblue" d="M652.119,-110.759C668.169,-109.542 685.499,-108.228 702.349,-106.95"/>
<polygon fill="midnightblue" stroke="midnightblue" points="651.482,-107.297 641.775,-111.543 652.011,-114.277 651.482,-107.297"/>
</g>
<!-- Node3 -->
<g id="node3" class="node"><title>Node3</title>
<g id="a_node3"><a xlink:href="../../d9/d88/classmodel_1_1_tree_interpreter.html" target="_top" xlink:title="model.TreeInterpreter">
<polygon fill="white" stroke="black" points="522,-68.5 522,-87.5 642,-87.5 642,-68.5 522,-68.5"/>
<text text-anchor="middle" x="582" y="-75.5" font-family="Helvetica,sans-Serif" font-size="10.00">model.TreeInterpreter</text>
</a>
</g>
</g>
<!-- Node3&#45;&gt;Node1 -->
<g id="edge2" class="edge"><title>Node3&#45;&gt;Node1</title>
<path fill="none" stroke="#9a32cd" stroke-dasharray="5,2" d="M652.396,-85.2356C668.436,-86.908 685.743,-88.7125 702.563,-90.4663"/>
<polygon fill="#9a32cd" stroke="#9a32cd" points="652.365,-81.7135 642.056,-84.1575 651.639,-88.6757 652.365,-81.7135"/>
<text text-anchor="middle" x="672" y="-92" font-family="Helvetica,sans-Serif" font-size="10.00"> tree</text>
</g>
<!-- Node4 -->
<g id="node4" class="node"><title>Node4</title>
<g id="a_node4"><a xlink:href="../../db/d55/classmodel_1_1_variable_list.html" target="_top" xlink:title="model.VariableList">
<polygon fill="white" stroke="black" points="269,-125.5 269,-144.5 373,-144.5 373,-125.5 269,-125.5"/>
<text text-anchor="middle" x="321" y="-132.5" font-family="Helvetica,sans-Serif" font-size="10.00">model.VariableList</text>
</a>
</g>
</g>
<!-- Node4&#45;&gt;Node3 -->
<g id="edge3" class="edge"><title>Node4&#45;&gt;Node3</title>
<path fill="none" stroke="#9a32cd" stroke-dasharray="5,2" d="M383.651,-128.801C419.318,-124.238 464.768,-116.741 504,-105 512.387,-102.49 513.822,-100.124 522,-97 530.746,-93.6592 540.361,-90.3947 549.245,-87.5405"/>
<polygon fill="#9a32cd" stroke="#9a32cd" points="382.886,-125.369 373.39,-130.068 383.743,-132.316 382.886,-125.369"/>
<text text-anchor="middle" x="464" y="-126" font-family="Helvetica,sans-Serif" font-size="10.00"> variables</text>
</g>
<!-- Node5 -->
<g id="node5" class="node"><title>Node5</title>
<polygon fill="white" stroke="#bfbfbf" points="0.5,-125.5 0.5,-144.5 181.5,-144.5 181.5,-125.5 0.5,-125.5"/>
<text text-anchor="middle" x="91" y="-132.5" font-family="Helvetica,sans-Serif" font-size="10.00">ObservableList&lt; model.Variable &gt;</text>
</g>
<!-- Node5&#45;&gt;Node4 -->
<g id="edge4" class="edge"><title>Node5&#45;&gt;Node4</title>
<path fill="none" stroke="#9a32cd" stroke-dasharray="5,2" d="M191.896,-135C218.445,-135 246.031,-135 268.773,-135"/>
<polygon fill="#9a32cd" stroke="#9a32cd" points="191.784,-131.5 181.784,-135 191.784,-138.5 191.784,-131.5"/>
<text text-anchor="middle" x="209" y="-138" font-family="Helvetica,sans-Serif" font-size="10.00"> list</text>
</g>
<!-- Node6 -->
<g id="node6" class="node"><title>Node6</title>
<polygon fill="white" stroke="#bfbfbf" points="264,-87.5 264,-106.5 378,-106.5 378,-87.5 264,-87.5"/>
<text text-anchor="middle" x="321" y="-94.5" font-family="Helvetica,sans-Serif" font-size="10.00">List&lt; model.Turtle &gt;</text>
</g>
<!-- Node6&#45;&gt;Node3 -->
<g id="edge5" class="edge"><title>Node6&#45;&gt;Node3</title>
<path fill="none" stroke="#9a32cd" stroke-dasharray="5,2" d="M388.409,-92.1283C429.578,-89.1082 482.004,-85.2622 521.76,-82.3458"/>
<polygon fill="#9a32cd" stroke="#9a32cd" points="387.916,-88.6549 378.199,-92.8773 388.428,-95.6362 387.916,-88.6549"/>
<text text-anchor="middle" x="464" y="-93" font-family="Helvetica,sans-Serif" font-size="10.00"> listTurtles</text>
</g>
<!-- Node7 -->
<g id="node7" class="node"><title>Node7</title>
<g id="a_node7"><a xlink:href="../../db/d10/classmodel_1_1_command_factory.html" target="_top" xlink:title="model.CommandFactory">
<polygon fill="white" stroke="black" points="254,-49.5 254,-68.5 388,-68.5 388,-49.5 254,-49.5"/>
<text text-anchor="middle" x="321" y="-56.5" font-family="Helvetica,sans-Serif" font-size="10.00">model.CommandFactory</text>
</a>
</g>
</g>
<!-- Node7&#45;&gt;Node3 -->
<g id="edge6" class="edge"><title>Node7&#45;&gt;Node3</title>
<path fill="none" stroke="#9a32cd" stroke-dasharray="5,2" d="M398.531,-62.8898C431.069,-64.7342 469.412,-67.1593 504,-70 509.76,-70.473 515.757,-71.0129 521.75,-71.5837"/>
<polygon fill="#9a32cd" stroke="#9a32cd" points="398.363,-59.375 388.183,-62.3116 397.972,-66.3641 398.363,-59.375"/>
<text text-anchor="middle" x="464" y="-73" font-family="Helvetica,sans-Serif" font-size="10.00"> factory</text>
</g>
<!-- Node8 -->
<g id="node8" class="node"><title>Node8</title>
<polygon fill="white" stroke="#bfbfbf" points="236,-0 236,-30 406,-30 406,-0 236,-0"/>
<text text-anchor="start" x="244" y="-18" font-family="Helvetica,sans-Serif" font-size="10.00">Map&lt; String, List&lt;</text>
<text text-anchor="middle" x="321" y="-7" font-family="Helvetica,sans-Serif" font-size="10.00"> parser.CommandTreeNode &gt; &gt;</text>
</g>
<!-- Node8&#45;&gt;Node3 -->
<g id="edge7" class="edge"><title>Node8&#45;&gt;Node3</title>
<path fill="none" stroke="#9a32cd" stroke-dasharray="5,2" d="M415.956,-30.1223C444.454,-35.497 475.701,-42.1868 504,-50 522.373,-55.0727 542.609,-62.5066 557.723,-68.4399"/>
<polygon fill="#9a32cd" stroke="#9a32cd" points="416.471,-26.6581 406,-28.2763 415.194,-33.5408 416.471,-26.6581"/>
<text text-anchor="middle" x="464" y="-53" font-family="Helvetica,sans-Serif" font-size="10.00"> userCommands</text>
</g>
</g>
</svg>
