<?xml version="1.0" encoding="UTF-8" standalone="no"?>
<!DOCTYPE svg PUBLIC "-//W3C//DTD SVG 1.1//EN"
 "http://www.w3.org/Graphics/SVG/1.1/DTD/svg11.dtd">
<!-- Generated by graphviz version 2.36.0 (20140111.2315)
 -->
<!-- Title: model.TreeInterpreter.executeCommand Pages: 1 -->
<svg width="3386pt" height="466pt"
 viewBox="0.00 0.00 3386.00 466.00" xmlns="http://www.w3.org/2000/svg" xmlns:xlink="http://www.w3.org/1999/xlink">
<g id="graph0" class="graph" transform="scale(1 1) rotate(0) translate(4 462)">
<title>model.TreeInterpreter.executeCommand</title>
<polygon fill="white" stroke="none" points="-4,4 -4,-462 3382,-462 3382,4 -4,4"/>
<!-- Node1 -->
<g id="node1" class="node"><title>Node1</title>
<polygon fill="#bfbfbf" stroke="black" points="0.5,-232 0.5,-262 161.5,-262 161.5,-232 0.5,-232"/>
<text text-anchor="start" x="8.5" y="-250" font-family="Helvetica,sans-Serif" font-size="10.00">model.TreeInterpreter.execute</text>
<text text-anchor="middle" x="81" y="-239" font-family="Helvetica,sans-Serif" font-size="10.00">Command</text>
</g>
<!-- Node2 -->
<g id="node2" class="node"><title>Node2</title>
<g id="a_node2"><a xlink:href="../../d9/d88/classmodel_1_1_tree_interpreter.html#a3e460e5ebe66f781afb480f0f0ec2ce7" target="_top" xlink:title="model.TreeInterpreter.update">
<polygon fill="white" stroke="black" points="198,-237.5 198,-256.5 354,-256.5 354,-237.5 198,-237.5"/>
<text text-anchor="middle" x="276" y="-244.5" font-family="Helvetica,sans-Serif" font-size="10.00">model.TreeInterpreter.update</text>
</a>
</g>
</g>
<!-- Node1&#45;&gt;Node2 -->
<g id="edge1" class="edge"><title>Node1&#45;&gt;Node2</title>
<path fill="none" stroke="midnightblue" d="M171.758,-247C180.441,-247 189.197,-247 197.744,-247"/>
<polygon fill="midnightblue" stroke="midnightblue" points="171.615,-243.5 161.615,-247 171.615,-250.5 171.615,-243.5"/>
</g>
<!-- Node3 -->
<g id="node3" class="node"><title>Node3</title>
<g id="a_node3"><a xlink:href="../../d9/d88/classmodel_1_1_tree_interpreter.html#a501df6b8cfe1a8175a9da0ed96d30d6f" target="_top" xlink:title="model.TreeInterpreter.interpretTree">
<polygon fill="white" stroke="black" points="390.5,-237.5 390.5,-256.5 573.5,-256.5 573.5,-237.5 390.5,-237.5"/>
<text text-anchor="middle" x="482" y="-244.5" font-family="Helvetica,sans-Serif" font-size="10.00">model.TreeInterpreter.interpretTree</text>
</a>
</g>
</g>
<!-- Node2&#45;&gt;Node3 -->
<g id="edge2" class="edge"><title>Node2&#45;&gt;Node3</title>
<path fill="none" stroke="midnightblue" d="M364.217,-247C372.886,-247 381.7,-247 390.402,-247"/>
<polygon fill="midnightblue" stroke="midnightblue" points="364.124,-243.5 354.124,-247 364.124,-250.5 364.124,-243.5"/>
</g>
<!-- Node4 -->
<g id="node4" class="node"><title>Node4</title>
<g id="a_node4"><a xlink:href="../../d4/dea/classcommand_1_1control_1_1_ask_command.html#a0e92735076727a8f4ef8affeb592e8b4" target="_top" xlink:title="command.control.AskCommand.calculate\lValue">
<polygon fill="white" stroke="black" points="622,-428 622,-458 840,-458 840,-428 622,-428"/>
<text text-anchor="start" x="630" y="-446" font-family="Helvetica,sans-Serif" font-size="10.00">command.control.AskCommand.calculate</text>
<text text-anchor="middle" x="731" y="-435" font-family="Helvetica,sans-Serif" font-size="10.00">Value</text>
</a>
</g>
</g>
<!-- Node3&#45;&gt;Node4 -->
<g id="edge3" class="edge"><title>Node3&#45;&gt;Node4</title>
<path fill="none" stroke="midnightblue" d="M491.375,-266.014C508.238,-301.928 549.877,-379.574 610,-418 616.097,-421.896 622.69,-425.199 629.542,-427.996"/>
<polygon fill="midnightblue" stroke="midnightblue" points="494.449,-264.319 487.111,-256.677 488.081,-267.227 494.449,-264.319"/>
</g>
<!-- Node5 -->
<g id="node5" class="node"><title>Node5</title>
<g id="a_node5"><a xlink:href="../../d5/d1a/classcommand_1_1control_1_1_ask_with_command.html#a2a79128bce4d0ce305a2fe690675a70e" target="_top" xlink:title="command.control.AskWithCommand.calculate\lValue">
<polygon fill="white" stroke="black" points="612,-379 612,-409 850,-409 850,-379 612,-379"/>
<text text-anchor="start" x="620" y="-397" font-family="Helvetica,sans-Serif" font-size="10.00">command.control.AskWithCommand.calculate</text>
<text text-anchor="middle" x="731" y="-386" font-family="Helvetica,sans-Serif" font-size="10.00">Value</text>
</a>
</g>
</g>
<!-- Node3&#45;&gt;Node5 -->
<g id="edge4" class="edge"><title>Node3&#45;&gt;Node5</title>
<path fill="none" stroke="midnightblue" d="M496.231,-265.01C517.173,-292.116 560.679,-342.986 610,-369 617.341,-372.872 625.23,-376.144 633.33,-378.91"/>
<polygon fill="midnightblue" stroke="midnightblue" points="498.843,-262.662 490.018,-256.799 493.261,-266.885 498.843,-262.662"/>
</g>
<!-- Node6 -->
<g id="node6" class="node"><title>Node6</title>
<g id="a_node6"><a xlink:href="../../d7/dae/classcommand_1_1control_1_1_do_times_command.html#a932eb0f99c5b2fecf8fd6939ef4b0c5b" target="_top" xlink:title="command.control.DoTimesCommand.calculate\lValue">
<polygon fill="white" stroke="black" points="610,-330 610,-360 852,-360 852,-330 610,-330"/>
<text text-anchor="start" x="618" y="-348" font-family="Helvetica,sans-Serif" font-size="10.00">command.control.DoTimesCommand.calculate</text>
<text text-anchor="middle" x="731" y="-337" font-family="Helvetica,sans-Serif" font-size="10.00">Value</text>
</a>
</g>
</g>
<!-- Node3&#45;&gt;Node6 -->
<g id="edge5" class="edge"><title>Node3&#45;&gt;Node6</title>
<path fill="none" stroke="midnightblue" d="M504.898,-262.48C529.394,-279.089 570.797,-305.085 610,-320 620.044,-323.821 630.796,-327.108 641.584,-329.922"/>
<polygon fill="midnightblue" stroke="midnightblue" points="506.599,-259.402 496.377,-256.616 502.631,-265.169 506.599,-259.402"/>
</g>
<!-- Node7 -->
<g id="node7" class="node"><title>Node7</title>
<g id="a_node7"><a xlink:href="../../d1/d18/classcommand_1_1control_1_1_execute_user_command.html#a1ce1cab877c9c9199aee9f8e687f74fb" target="_top" xlink:title="command.control.ExecuteUser\lCommand.calculateValue">
<polygon fill="white" stroke="black" points="648.5,-281 648.5,-311 813.5,-311 813.5,-281 648.5,-281"/>
<text text-anchor="start" x="656.5" y="-299" font-family="Helvetica,sans-Serif" font-size="10.00">command.control.ExecuteUser</text>
<text text-anchor="middle" x="731" y="-288" font-family="Helvetica,sans-Serif" font-size="10.00">Command.calculateValue</text>
</a>
</g>
</g>
<!-- Node3&#45;&gt;Node7 -->
<g id="edge6" class="edge"><title>Node3&#45;&gt;Node7</title>
<path fill="none" stroke="midnightblue" d="M541.07,-258.52C574.788,-265.209 617.654,-273.713 654.028,-280.929"/>
<polygon fill="midnightblue" stroke="midnightblue" points="541.407,-255.019 530.917,-256.506 540.045,-261.885 541.407,-255.019"/>
</g>
<!-- Node8 -->
<g id="node8" class="node"><title>Node8</title>
<g id="a_node8"><a xlink:href="../../da/db2/classcommand_1_1control_1_1_for_command.html#ad494f107c7c0e97f862dcfddc476a064" target="_top" xlink:title="command.control.ForCommand.calculate\lValue">
<polygon fill="white" stroke="black" points="623.5,-232 623.5,-262 838.5,-262 838.5,-232 623.5,-232"/>
<text text-anchor="start" x="631.5" y="-250" font-family="Helvetica,sans-Serif" font-size="10.00">command.control.ForCommand.calculate</text>
<text text-anchor="middle" x="731" y="-239" font-family="Helvetica,sans-Serif" font-size="10.00">Value</text>
</a>
</g>
</g>
<!-- Node3&#45;&gt;Node8 -->
<g id="edge7" class="edge"><title>Node3&#45;&gt;Node8</title>
<path fill="none" stroke="midnightblue" d="M583.861,-247C596.798,-247 610.078,-247 623.107,-247"/>
<polygon fill="midnightblue" stroke="midnightblue" points="583.571,-243.5 573.571,-247 583.571,-250.5 583.571,-243.5"/>
</g>
<!-- Node9 -->
<g id="node9" class="node"><title>Node9</title>
<g id="a_node9"><a xlink:href="../../d6/d3b/classcommand_1_1control_1_1_if_command.html#acf428d2a9882866a2f00fbbee727f4f1" target="_top" xlink:title="command.control.IfCommand.calculate\lValue">
<polygon fill="white" stroke="black" points="628,-183 628,-213 834,-213 834,-183 628,-183"/>
<text text-anchor="start" x="636" y="-201" font-family="Helvetica,sans-Serif" font-size="10.00">command.control.IfCommand.calculate</text>
<text text-anchor="middle" x="731" y="-190" font-family="Helvetica,sans-Serif" font-size="10.00">Value</text>
</a>
</g>
</g>
<!-- Node3&#45;&gt;Node9 -->
<g id="edge8" class="edge"><title>Node3&#45;&gt;Node9</title>
<path fill="none" stroke="midnightblue" d="M541.07,-235.48C574.788,-228.791 617.654,-220.287 654.028,-213.071"/>
<polygon fill="midnightblue" stroke="midnightblue" points="540.045,-232.115 530.917,-237.494 541.407,-238.981 540.045,-232.115"/>
</g>
<!-- Node10 -->
<g id="node10" class="node"><title>Node10</title>
<g id="a_node10"><a xlink:href="../../d3/dcf/classcommand_1_1control_1_1_if_else_command.html#ac1a2c320a23705da633419c13a18ff91" target="_top" xlink:title="command.control.IfElseCommand.calculate\lValue">
<polygon fill="white" stroke="black" points="618.5,-134 618.5,-164 843.5,-164 843.5,-134 618.5,-134"/>
<text text-anchor="start" x="626.5" y="-152" font-family="Helvetica,sans-Serif" font-size="10.00">command.control.IfElseCommand.calculate</text>
<text text-anchor="middle" x="731" y="-141" font-family="Helvetica,sans-Serif" font-size="10.00">Value</text>
</a>
</g>
</g>
<!-- Node3&#45;&gt;Node10 -->
<g id="edge9" class="edge"><title>Node3&#45;&gt;Node10</title>
<path fill="none" stroke="midnightblue" d="M504.898,-231.52C529.394,-214.911 570.797,-188.915 610,-174 620.044,-170.179 630.796,-166.892 641.584,-164.078"/>
<polygon fill="midnightblue" stroke="midnightblue" points="502.631,-228.831 496.377,-237.384 506.599,-234.598 502.631,-228.831"/>
</g>
<!-- Node11 -->
<g id="node11" class="node"><title>Node11</title>
<g id="a_node11"><a xlink:href="../../d1/d0f/classcommand_1_1control_1_1_repeat_command.html#af9c3a3854b4eaabafc7c09bdbe83de0e" target="_top" xlink:title="command.control.RepeatCommand.calculate\lValue">
<polygon fill="white" stroke="black" points="614.5,-85 614.5,-115 847.5,-115 847.5,-85 614.5,-85"/>
<text text-anchor="start" x="622.5" y="-103" font-family="Helvetica,sans-Serif" font-size="10.00">command.control.RepeatCommand.calculate</text>
<text text-anchor="middle" x="731" y="-92" font-family="Helvetica,sans-Serif" font-size="10.00">Value</text>
</a>
</g>
</g>
<!-- Node3&#45;&gt;Node11 -->
<g id="edge10" class="edge"><title>Node3&#45;&gt;Node11</title>
<path fill="none" stroke="midnightblue" d="M496.231,-228.99C517.173,-201.884 560.679,-151.014 610,-125 617.341,-121.128 625.23,-117.856 633.33,-115.09"/>
<polygon fill="midnightblue" stroke="midnightblue" points="493.261,-227.115 490.018,-237.201 498.843,-231.338 493.261,-227.115"/>
</g>
<!-- Node12 -->
<g id="node12" class="node"><title>Node12</title>
<g id="a_node12"><a xlink:href="../../d9/df7/classcontroller_1_1_controller.html#a3d81fb1a57114f96fb6c319f4c5df370" target="_top" xlink:title="controller.Controller.parse\lCommand">
<polygon fill="white" stroke="black" points="661,-36 661,-66 801,-66 801,-36 661,-36"/>
<text text-anchor="start" x="669" y="-54" font-family="Helvetica,sans-Serif" font-size="10.00">controller.Controller.parse</text>
<text text-anchor="middle" x="731" y="-43" font-family="Helvetica,sans-Serif" font-size="10.00">Command</text>
</a>
</g>
</g>
<!-- Node3&#45;&gt;Node12 -->
<g id="edge11" class="edge"><title>Node3&#45;&gt;Node12</title>
<path fill="none" stroke="midnightblue" d="M491.375,-227.986C508.238,-192.072 549.877,-114.426 610,-76 625.152,-66.3161 643.375,-60.3012 660.992,-56.5884"/>
<polygon fill="midnightblue" stroke="midnightblue" points="488.081,-226.773 487.111,-237.323 494.449,-229.681 488.081,-226.773"/>
</g>
<!-- Node13 -->
<g id="node13" class="node"><title>Node13</title>
<g id="a_node13"><a xlink:href="../../d5/d06/classui_1_1_scene_updater.html#ab77a04f8b0038429b09237aac18906e8" target="_top" xlink:title="ui.SceneUpdater.sendCommands">
<polygon fill="white" stroke="black" points="888,-41.5 888,-60.5 1066,-60.5 1066,-41.5 888,-41.5"/>
<text text-anchor="middle" x="977" y="-48.5" font-family="Helvetica,sans-Serif" font-size="10.00">ui.SceneUpdater.sendCommands</text>
</a>
</g>
</g>
<!-- Node12&#45;&gt;Node13 -->
<g id="edge12" class="edge"><title>Node12&#45;&gt;Node13</title>
<path fill="none" stroke="midnightblue" d="M811.545,-51C835.924,-51 862.888,-51 887.808,-51"/>
<polygon fill="midnightblue" stroke="midnightblue" points="811.268,-47.5001 801.268,-51 811.268,-54.5001 811.268,-47.5001"/>
</g>
<!-- Node14 -->
<g id="node14" class="node"><title>Node14</title>
<g id="a_node14"><a xlink:href="../../dc/d3b/classui_1_1_g_u_i.html#ad8f08a79a20a498bcaafdc7e2e2ce0a9" target="_top" xlink:title="ui.GUI.parseCommand">
<polygon fill="white" stroke="black" points="1102.5,-41.5 1102.5,-60.5 1227.5,-60.5 1227.5,-41.5 1102.5,-41.5"/>
<text text-anchor="middle" x="1165" y="-48.5" font-family="Helvetica,sans-Serif" font-size="10.00">ui.GUI.parseCommand</text>
</a>
</g>
</g>
<!-- Node13&#45;&gt;Node14 -->
<g id="edge13" class="edge"><title>Node13&#45;&gt;Node14</title>
<path fill="none" stroke="midnightblue" d="M1076.2,-51C1085.13,-51 1094,-51 1102.48,-51"/>
<polygon fill="midnightblue" stroke="midnightblue" points="1076.1,-47.5001 1066.1,-51 1076.1,-54.5001 1076.1,-47.5001"/>
</g>
<!-- Node15 -->
<g id="node15" class="node"><title>Node15</title>
<g id="a_node15"><a xlink:href="../../d8/d3c/classui_1_1elements_1_1_i_o_element.html#a139a046f0c771f86696f2eee04047c64" target="_top" xlink:title="ui.elements.IOElement.init">
<polygon fill="white" stroke="black" points="1280.5,-60.5 1280.5,-79.5 1423.5,-79.5 1423.5,-60.5 1280.5,-60.5"/>
<text text-anchor="middle" x="1352" y="-67.5" font-family="Helvetica,sans-Serif" font-size="10.00">ui.elements.IOElement.init</text>
</a>
</g>
</g>
<!-- Node14&#45;&gt;Node15 -->
<g id="edge14" class="edge"><title>Node14&#45;&gt;Node15</title>
<path fill="none" stroke="midnightblue" d="M1237.68,-58.3614C1251.7,-59.8019 1266.4,-61.3116 1280.39,-62.7485"/>
<polygon fill="midnightblue" stroke="midnightblue" points="1237.91,-54.8668 1227.6,-57.3267 1237.19,-61.8302 1237.91,-54.8668"/>
</g>
<!-- Node17 -->
<g id="node17" class="node"><title>Node17</title>
<g id="a_node17"><a xlink:href="../../dc/d3b/classui_1_1_g_u_i.html#ab8ec2a37b3d5bd9e8c2abbb3642fb965" target="_top" xlink:title="ui.GUI.setupKeyboardCommands">
<polygon fill="white" stroke="black" points="1264.5,-22.5 1264.5,-41.5 1439.5,-41.5 1439.5,-22.5 1264.5,-22.5"/>
<text text-anchor="middle" x="1352" y="-29.5" font-family="Helvetica,sans-Serif" font-size="10.00">ui.GUI.setupKeyboardCommands</text>
</a>
</g>
</g>
<!-- Node14&#45;&gt;Node17 -->
<g id="edge16" class="edge"><title>Node14&#45;&gt;Node17</title>
<path fill="none" stroke="midnightblue" d="M1237.69,-43.6368C1246.41,-42.7417 1255.39,-41.8199 1264.29,-40.9054"/>
<polygon fill="midnightblue" stroke="midnightblue" points="1237.19,-40.1698 1227.6,-44.6733 1237.91,-47.1332 1237.19,-40.1698"/>
</g>
<!-- Node16 -->
<g id="node16" class="node"><title>Node16</title>
<g id="a_node16"><a xlink:href="../../d8/d3c/classui_1_1elements_1_1_i_o_element.html#a556e1a3ad292fe3ab731065eef59b187" target="_top" xlink:title="ui.elements.IOElement.IOElement">
<polygon fill="white" stroke="black" points="1476,-60.5 1476,-79.5 1654,-79.5 1654,-60.5 1476,-60.5"/>
<text text-anchor="middle" x="1565" y="-67.5" font-family="Helvetica,sans-Serif" font-size="10.00">ui.elements.IOElement.IOElement</text>
</a>
</g>
</g>
<!-- Node15&#45;&gt;Node16 -->
<g id="edge15" class="edge"><title>Node15&#45;&gt;Node16</title>
<path fill="none" stroke="midnightblue" d="M1433.92,-70C1447.65,-70 1461.97,-70 1475.88,-70"/>
<polygon fill="midnightblue" stroke="midnightblue" points="1433.55,-66.5001 1423.55,-70 1433.55,-73.5001 1433.55,-66.5001"/>
</g>
<!-- Node18 -->
<g id="node18" class="node"><title>Node18</title>
<g id="a_node18"><a xlink:href="../../dc/d3b/classui_1_1_g_u_i.html#a765d554102f38969231261686f2f8e27" target="_top" xlink:title="ui.GUI.initialize">
<polygon fill="white" stroke="black" points="1522,-22.5 1522,-41.5 1608,-41.5 1608,-22.5 1522,-22.5"/>
<text text-anchor="middle" x="1565" y="-29.5" font-family="Helvetica,sans-Serif" font-size="10.00">ui.GUI.initialize</text>
</a>
</g>
</g>
<!-- Node17&#45;&gt;Node18 -->
<g id="edge17" class="edge"><title>Node17&#45;&gt;Node18</title>
<path fill="none" stroke="midnightblue" d="M1449.75,-32C1475.02,-32 1500.96,-32 1521.72,-32"/>
<polygon fill="midnightblue" stroke="midnightblue" points="1449.74,-28.5001 1439.74,-32 1449.74,-35.5001 1449.74,-28.5001"/>
</g>
<!-- Node19 -->
<g id="node19" class="node"><title>Node19</title>
<g id="a_node19"><a xlink:href="../../d5/d06/classui_1_1_scene_updater.html#aeef5dd7a8ec2ad6179e33fdd71ea90d6" target="_top" xlink:title="ui.SceneUpdater.initGUI">
<polygon fill="white" stroke="black" points="1690.5,-22.5 1690.5,-41.5 1821.5,-41.5 1821.5,-22.5 1690.5,-22.5"/>
<text text-anchor="middle" x="1756" y="-29.5" font-family="Helvetica,sans-Serif" font-size="10.00">ui.SceneUpdater.initGUI</text>
</a>
</g>
</g>
<!-- Node18&#45;&gt;Node19 -->
<g id="edge18" class="edge"><title>Node18&#45;&gt;Node19</title>
<path fill="none" stroke="midnightblue" d="M1618.67,-32C1640.92,-32 1667.05,-32 1690.45,-32"/>
<polygon fill="midnightblue" stroke="midnightblue" points="1618.42,-28.5001 1608.42,-32 1618.42,-35.5001 1618.42,-28.5001"/>
</g>
<!-- Node20 -->
<g id="node20" class="node"><title>Node20</title>
<g id="a_node20"><a xlink:href="../../d9/df7/classcontroller_1_1_controller.html#a57e42ba83ee2145e6262cd72eac59570" target="_top" xlink:title="controller.Controller.init">
<polygon fill="white" stroke="black" points="1858.5,-22.5 1858.5,-41.5 1985.5,-41.5 1985.5,-22.5 1858.5,-22.5"/>
<text text-anchor="middle" x="1922" y="-29.5" font-family="Helvetica,sans-Serif" font-size="10.00">controller.Controller.init</text>
</a>
</g>
</g>
<!-- Node19&#45;&gt;Node20 -->
<g id="edge19" class="edge"><title>Node19&#45;&gt;Node20</title>
<path fill="none" stroke="midnightblue" d="M1832.04,-32C1840.81,-32 1849.68,-32 1858.26,-32"/>
<polygon fill="midnightblue" stroke="midnightblue" points="1831.82,-28.5001 1821.82,-32 1831.82,-35.5001 1831.82,-28.5001"/>
</g>
<!-- Node21 -->
<g id="node21" class="node"><title>Node21</title>
<g id="a_node21"><a xlink:href="../../dd/df2/classmain_1_1_workspace_manager.html#abc818b59211f6e14940b86a42bb868d0" target="_top" xlink:title="main.WorkspaceManager.create\lWorkspace">
<polygon fill="white" stroke="black" points="2022,-17 2022,-47 2192,-47 2192,-17 2022,-17"/>
<text text-anchor="start" x="2030" y="-35" font-family="Helvetica,sans-Serif" font-size="10.00">main.WorkspaceManager.create</text>
<text text-anchor="middle" x="2107" y="-24" font-family="Helvetica,sans-Serif" font-size="10.00">Workspace</text>
</a>
</g>
</g>
<!-- Node20&#45;&gt;Node21 -->
<g id="edge20" class="edge"><title>Node20&#45;&gt;Node21</title>
<path fill="none" stroke="midnightblue" d="M1995.92,-32C2004.39,-32 2013.08,-32 2021.69,-32"/>
<polygon fill="midnightblue" stroke="midnightblue" points="1995.72,-28.5001 1985.72,-32 1995.72,-35.5001 1995.72,-28.5001"/>
</g>
<!-- Node22 -->
<g id="node22" class="node"><title>Node22</title>
<g id="a_node22"><a xlink:href="../../d9/df7/classcontroller_1_1_controller.html#a3a9d672bb57047df70945ad1a9582c9a" target="_top" xlink:title="controller.Controller.create\lNewWorkspace">
<polygon fill="white" stroke="black" points="2228.5,-39 2228.5,-69 2371.5,-69 2371.5,-39 2228.5,-39"/>
<text text-anchor="start" x="2236.5" y="-57" font-family="Helvetica,sans-Serif" font-size="10.00">controller.Controller.create</text>
<text text-anchor="middle" x="2300" y="-46" font-family="Helvetica,sans-Serif" font-size="10.00">NewWorkspace</text>
</a>
</g>
</g>
<!-- Node21&#45;&gt;Node22 -->
<g id="edge21" class="edge"><title>Node21&#45;&gt;Node22</title>
<path fill="none" stroke="midnightblue" d="M2202.03,-42.8303C2210.88,-43.8503 2219.75,-44.8721 2228.34,-45.8608"/>
<polygon fill="midnightblue" stroke="midnightblue" points="2202.39,-39.3489 2192.05,-41.6815 2201.59,-46.3029 2202.39,-39.3489"/>
</g>
<!-- Node28 -->
<g id="node28" class="node"><title>Node28</title>
<g id="a_node28"><a xlink:href="../../d1/d0b/classmain_1_1_main.html#a9f1e5657b2f6f9bdd69a3b6412ceda74" target="_top" xlink:title="main.Main.start">
<polygon fill="white" stroke="black" points="2254,-0.5 2254,-19.5 2346,-19.5 2346,-0.5 2254,-0.5"/>
<text text-anchor="middle" x="2300" y="-7.5" font-family="Helvetica,sans-Serif" font-size="10.00">main.Main.start</text>
</a>
</g>
</g>
<!-- Node21&#45;&gt;Node28 -->
<g id="edge27" class="edge"><title>Node21&#45;&gt;Node28</title>
<path fill="none" stroke="midnightblue" d="M2202.09,-21.1629C2220.19,-19.0779 2238.36,-16.9851 2253.99,-15.1843"/>
<polygon fill="midnightblue" stroke="midnightblue" points="2201.59,-17.6971 2192.05,-22.3185 2202.39,-24.6511 2201.59,-17.6971"/>
</g>
<!-- Node23 -->
<g id="node23" class="node"><title>Node23</title>
<g id="a_node23"><a xlink:href="../../d5/d06/classui_1_1_scene_updater.html#a2858ad8edb0c0f59a21e2ae015f2fa1e" target="_top" xlink:title="ui.SceneUpdater.createNew\lWorkspace">
<polygon fill="white" stroke="black" points="2408,-39 2408,-69 2558,-69 2558,-39 2408,-39"/>
<text text-anchor="start" x="2416" y="-57" font-family="Helvetica,sans-Serif" font-size="10.00">ui.SceneUpdater.createNew</text>
<text text-anchor="middle" x="2483" y="-46" font-family="Helvetica,sans-Serif" font-size="10.00">Workspace</text>
</a>
</g>
</g>
<!-- Node22&#45;&gt;Node23 -->
<g id="edge22" class="edge"><title>Node22&#45;&gt;Node23</title>
<path fill="none" stroke="midnightblue" d="M2381.8,-54C2390.43,-54 2399.17,-54 2407.71,-54"/>
<polygon fill="midnightblue" stroke="midnightblue" points="2381.76,-50.5001 2371.76,-54 2381.76,-57.5001 2381.76,-50.5001"/>
</g>
<!-- Node24 -->
<g id="node24" class="node"><title>Node24</title>
<g id="a_node24"><a xlink:href="../../dc/d3b/classui_1_1_g_u_i.html#a2edc294ba07311e6c4b85c9fe749d1bf" target="_top" xlink:title="ui.GUI.createNewWorkspace">
<polygon fill="white" stroke="black" points="2594,-44.5 2594,-63.5 2744,-63.5 2744,-44.5 2594,-44.5"/>
<text text-anchor="middle" x="2669" y="-51.5" font-family="Helvetica,sans-Serif" font-size="10.00">ui.GUI.createNewWorkspace</text>
</a>
</g>
</g>
<!-- Node23&#45;&gt;Node24 -->
<g id="edge23" class="edge"><title>Node23&#45;&gt;Node24</title>
<path fill="none" stroke="midnightblue" d="M2568.07,-54C2576.65,-54 2585.34,-54 2593.81,-54"/>
<polygon fill="midnightblue" stroke="midnightblue" points="2568.04,-50.5001 2558.04,-54 2568.04,-57.5001 2568.04,-50.5001"/>
</g>
<!-- Node25 -->
<g id="node25" class="node"><title>Node25</title>
<g id="a_node25"><a xlink:href="../../d0/de6/classui_1_1elements_1_1_menu_bar_element.html#a98c13995a31d997aa10f2950583da6cc" target="_top" xlink:title="ui.elements.MenuBarElement.make\lMenuBar">
<polygon fill="white" stroke="black" points="2780,-39 2780,-69 2968,-69 2968,-39 2780,-39"/>
<text text-anchor="start" x="2788" y="-57" font-family="Helvetica,sans-Serif" font-size="10.00">ui.elements.MenuBarElement.make</text>
<text text-anchor="middle" x="2874" y="-46" font-family="Helvetica,sans-Serif" font-size="10.00">MenuBar</text>
</a>
</g>
</g>
<!-- Node24&#45;&gt;Node25 -->
<g id="edge24" class="edge"><title>Node24&#45;&gt;Node25</title>
<path fill="none" stroke="midnightblue" d="M2754.28,-54C2762.66,-54 2771.21,-54 2779.68,-54"/>
<polygon fill="midnightblue" stroke="midnightblue" points="2754.15,-50.5001 2744.15,-54 2754.15,-57.5001 2754.15,-50.5001"/>
</g>
<!-- Node26 -->
<g id="node26" class="node"><title>Node26</title>
<g id="a_node26"><a xlink:href="../../d0/de6/classui_1_1elements_1_1_menu_bar_element.html#a7bdb58f78cf8b61ba28498c5c86ab682" target="_top" xlink:title="ui.elements.MenuBarElement.init">
<polygon fill="white" stroke="black" points="3004,-44.5 3004,-63.5 3180,-63.5 3180,-44.5 3004,-44.5"/>
<text text-anchor="middle" x="3092" y="-51.5" font-family="Helvetica,sans-Serif" font-size="10.00">ui.elements.MenuBarElement.init</text>
</a>
</g>
</g>
<!-- Node25&#45;&gt;Node26 -->
<g id="edge25" class="edge"><title>Node25&#45;&gt;Node26</title>
<path fill="none" stroke="midnightblue" d="M2978.23,-54C2986.83,-54 2995.48,-54 3003.94,-54"/>
<polygon fill="midnightblue" stroke="midnightblue" points="2978.17,-50.5001 2968.17,-54 2978.17,-57.5001 2978.17,-50.5001"/>
</g>
<!-- Node27 -->
<g id="node27" class="node"><title>Node27</title>
<g id="a_node27"><a xlink:href="../../d0/de6/classui_1_1elements_1_1_menu_bar_element.html#ab4a4e6841c924a9d9c70b8073b56dffc" target="_top" xlink:title="ui.elements.MenuBarElement.\lMenuBarElement">
<polygon fill="white" stroke="black" points="3216.5,-39 3216.5,-69 3377.5,-69 3377.5,-39 3216.5,-39"/>
<text text-anchor="start" x="3224.5" y="-57" font-family="Helvetica,sans-Serif" font-size="10.00">ui.elements.MenuBarElement.</text>
<text text-anchor="middle" x="3297" y="-46" font-family="Helvetica,sans-Serif" font-size="10.00">MenuBarElement</text>
</a>
</g>
</g>
<!-- Node26&#45;&gt;Node27 -->
<g id="edge26" class="edge"><title>Node26&#45;&gt;Node27</title>
<path fill="none" stroke="midnightblue" d="M3190.47,-54C3199.19,-54 3207.95,-54 3216.5,-54"/>
<polygon fill="midnightblue" stroke="midnightblue" points="3190.27,-50.5001 3180.27,-54 3190.27,-57.5001 3190.27,-50.5001"/>
</g>
</g>
</svg>
