<?xml version="1.0" encoding="UTF-8" standalone="no"?>
<!DOCTYPE svg PUBLIC "-//W3C//DTD SVG 1.1//EN"
 "http://www.w3.org/Graphics/SVG/1.1/DTD/svg11.dtd">
<!-- Generated by graphviz version 2.36.0 (20140111.2315)
 -->
<!-- Title: model.TreeInterpreter.interpretTree Pages: 1 -->
<svg width="820pt" height="299pt"
 viewBox="0.00 0.00 820.00 299.00" xmlns="http://www.w3.org/2000/svg" xmlns:xlink="http://www.w3.org/1999/xlink">
<g id="graph0" class="graph" transform="scale(1 1) rotate(0) translate(4 295)">
<title>model.TreeInterpreter.interpretTree</title>
<polygon fill="white" stroke="none" points="-4,4 -4,-295 816,-295 816,4 -4,4"/>
<!-- Node1 -->
<g id="node1" class="node"><title>Node1</title>
<polygon fill="#bfbfbf" stroke="black" points="0.5,-222.5 0.5,-241.5 183.5,-241.5 183.5,-222.5 0.5,-222.5"/>
<text text-anchor="middle" x="92" y="-229.5" font-family="Helvetica,sans-Serif" font-size="10.00">model.TreeInterpreter.interpretTree</text>
</g>
<!-- Node2 -->
<g id="node2" class="node"><title>Node2</title>
<g id="a_node2"><a xlink:href="../../dc/d9e/classparser_1_1_command_tree_node.html#a2700486f6a49c0a080114bee6e51f271" target="_top" xlink:title="parser.CommandTreeNode.get\lChildren">
<polygon fill="white" stroke="black" points="220,-261 220,-291 384,-291 384,-261 220,-261"/>
<text text-anchor="start" x="228" y="-279" font-family="Helvetica,sans-Serif" font-size="10.00">parser.CommandTreeNode.get</text>
<text text-anchor="middle" x="302" y="-268" font-family="Helvetica,sans-Serif" font-size="10.00">Children</text>
</a>
</g>
</g>
<!-- Node1&#45;&gt;Node2 -->
<g id="edge1" class="edge"><title>Node1&#45;&gt;Node2</title>
<path fill="none" stroke="midnightblue" d="M138.133,-241.547C161.969,-246.59 191.958,-252.933 219.685,-258.799"/>
<polygon fill="midnightblue" stroke="midnightblue" points="219.274,-262.289 229.782,-260.935 220.723,-255.441 219.274,-262.289"/>
</g>
<!-- Node3 -->
<g id="node3" class="node"><title>Node3</title>
<g id="a_node3"><a xlink:href="../../dc/d9e/classparser_1_1_command_tree_node.html#a8bb8a112395f78809b0be06f1c3f5282" target="_top" xlink:title="parser.CommandTreeNode.getType">
<polygon fill="white" stroke="black" points="622.5,-225.5 622.5,-244.5 807.5,-244.5 807.5,-225.5 622.5,-225.5"/>
<text text-anchor="middle" x="715" y="-232.5" font-family="Helvetica,sans-Serif" font-size="10.00">parser.CommandTreeNode.getType</text>
</a>
</g>
</g>
<!-- Node1&#45;&gt;Node3 -->
<g id="edge2" class="edge"><title>Node1&#45;&gt;Node3</title>
<path fill="none" stroke="midnightblue" d="M183.631,-232.438C297.71,-232.989 493.114,-233.933 612.218,-234.508"/>
<polygon fill="midnightblue" stroke="midnightblue" points="612.417,-238.009 622.433,-234.558 612.45,-231.009 612.417,-238.009"/>
</g>
<!-- Node4 -->
<g id="node4" class="node"><title>Node4</title>
<g id="a_node4"><a xlink:href="../../d9/d88/classmodel_1_1_tree_interpreter.html#a3e460e5ebe66f781afb480f0f0ec2ce7" target="_top" xlink:title="model.TreeInterpreter.update">
<polygon fill="white" stroke="black" points="224,-110.5 224,-129.5 380,-129.5 380,-110.5 224,-110.5"/>
<text text-anchor="middle" x="302" y="-117.5" font-family="Helvetica,sans-Serif" font-size="10.00">model.TreeInterpreter.update</text>
</a>
</g>
</g>
<!-- Node1&#45;&gt;Node4 -->
<g id="edge3" class="edge"><title>Node1&#45;&gt;Node4</title>
<path fill="none" stroke="midnightblue" d="M110.734,-222.451C147.268,-202.779 231.104,-157.636 274.256,-134.4"/>
<polygon fill="midnightblue" stroke="midnightblue" points="276.166,-137.348 283.311,-129.525 272.847,-131.184 276.166,-137.348"/>
</g>
<!-- Node4&#45;&gt;Node3 -->
<g id="edge4" class="edge"><title>Node4&#45;&gt;Node3</title>
<path fill="none" stroke="midnightblue" d="M324.684,-129.523C347.94,-139.5 386.104,-155.195 420,-166 506.372,-193.534 529.61,-194.863 618,-215 630.443,-217.835 643.83,-220.724 656.541,-223.393"/>
<polygon fill="midnightblue" stroke="midnightblue" points="656.056,-226.867 666.56,-225.481 657.485,-220.015 656.056,-226.867"/>
</g>
<!-- Node5 -->
<g id="node5" class="node"><title>Node5</title>
<g id="a_node5"><a xlink:href="../../d9/d88/classmodel_1_1_tree_interpreter.html#af4d24e7867eb3a4a53f79f4a9288f9fd" target="_top" xlink:title="model.TreeInterpreter.execute\lCommand">
<polygon fill="white" stroke="black" points="420.5,-127 420.5,-157 581.5,-157 581.5,-127 420.5,-127"/>
<text text-anchor="start" x="428.5" y="-145" font-family="Helvetica,sans-Serif" font-size="10.00">model.TreeInterpreter.execute</text>
<text text-anchor="middle" x="501" y="-134" font-family="Helvetica,sans-Serif" font-size="10.00">Command</text>
</a>
</g>
</g>
<!-- Node4&#45;&gt;Node5 -->
<g id="edge5" class="edge"><title>Node4&#45;&gt;Node5</title>
<path fill="none" stroke="midnightblue" d="M380.012,-128.6C389.967,-129.712 400.23,-130.858 410.367,-131.99"/>
<polygon fill="midnightblue" stroke="midnightblue" points="410.119,-135.484 420.445,-133.116 410.896,-128.527 410.119,-135.484"/>
</g>
<!-- Node8 -->
<g id="node8" class="node"><title>Node8</title>
<g id="a_node8"><a xlink:href="../../dc/d9e/classparser_1_1_command_tree_node.html#a73e4ab6ebca47d41b993f0e66ee4c8d2" target="_top" xlink:title="parser.CommandTreeNode.getName">
<polygon fill="white" stroke="black" points="618.5,-88.5 618.5,-107.5 811.5,-107.5 811.5,-88.5 618.5,-88.5"/>
<text text-anchor="middle" x="715" y="-95.5" font-family="Helvetica,sans-Serif" font-size="10.00">parser.CommandTreeNode.getName</text>
</a>
</g>
</g>
<!-- Node4&#45;&gt;Node8 -->
<g id="edge11" class="edge"><title>Node4&#45;&gt;Node8</title>
<path fill="none" stroke="midnightblue" d="M380.306,-115.862C444.579,-112.422 536.709,-107.49 607.887,-103.68"/>
<polygon fill="midnightblue" stroke="midnightblue" points="608.432,-107.156 618.23,-103.126 608.058,-100.166 608.432,-107.156"/>
</g>
<!-- Node9 -->
<g id="node9" class="node"><title>Node9</title>
<g id="a_node9"><a xlink:href="../../dc/d9e/classparser_1_1_command_tree_node.html#a3d691b68da13689c03ebd9de665c379c" target="_top" xlink:title="parser.CommandTreeNode.set\lValue">
<polygon fill="white" stroke="black" points="633.5,-39 633.5,-69 796.5,-69 796.5,-39 633.5,-39"/>
<text text-anchor="start" x="641.5" y="-57" font-family="Helvetica,sans-Serif" font-size="10.00">parser.CommandTreeNode.set</text>
<text text-anchor="middle" x="715" y="-46" font-family="Helvetica,sans-Serif" font-size="10.00">Value</text>
</a>
</g>
</g>
<!-- Node4&#45;&gt;Node9 -->
<g id="edge12" class="edge"><title>Node4&#45;&gt;Node9</title>
<path fill="none" stroke="midnightblue" d="M362.324,-110.474C430.756,-99.4844 544.027,-81.295 623.481,-68.5359"/>
<polygon fill="midnightblue" stroke="midnightblue" points="624.166,-71.9709 633.484,-66.9296 623.056,-65.0594 624.166,-71.9709"/>
</g>
<!-- Node10 -->
<g id="node10" class="node"><title>Node10</title>
<g id="a_node10"><a xlink:href="../../db/d55/classmodel_1_1_variable_list.html#a09697cca38c12cf837ee40e71d02f78b" target="_top" xlink:title="model.VariableList.get">
<polygon fill="white" stroke="black" points="439.5,-6.5 439.5,-25.5 562.5,-25.5 562.5,-6.5 439.5,-6.5"/>
<text text-anchor="middle" x="501" y="-13.5" font-family="Helvetica,sans-Serif" font-size="10.00">model.VariableList.get</text>
</a>
</g>
</g>
<!-- Node4&#45;&gt;Node10 -->
<g id="edge13" class="edge"><title>Node4&#45;&gt;Node10</title>
<path fill="none" stroke="midnightblue" d="M315.341,-110.324C336.005,-94.4906 379.348,-62.8269 420,-43 431.219,-37.528 443.827,-32.7089 455.657,-28.7138"/>
<polygon fill="midnightblue" stroke="midnightblue" points="456.938,-31.9777 465.365,-25.5554 454.772,-25.3211 456.938,-31.9777"/>
</g>
<!-- Node5&#45;&gt;Node3 -->
<g id="edge9" class="edge"><title>Node5&#45;&gt;Node3</title>
<path fill="none" stroke="midnightblue" d="M545.206,-157.171C557.634,-162.503 570.836,-169.157 582,-177 601.036,-190.373 597.684,-203.665 618,-215 622.878,-217.722 628.083,-220.074 633.451,-222.108"/>
<polygon fill="midnightblue" stroke="midnightblue" points="632.658,-225.535 643.253,-225.434 634.908,-218.906 632.658,-225.535"/>
</g>
<!-- Node6 -->
<g id="node6" class="node"><title>Node6</title>
<g id="a_node6"><a xlink:href="../../db/d10/classmodel_1_1_command_factory.html#a3982ff8b4387b7e50c9ec4350ee01733" target="_top" xlink:title="model.CommandFactory.create\lCommand">
<polygon fill="white" stroke="black" points="631.5,-176 631.5,-206 798.5,-206 798.5,-176 631.5,-176"/>
<text text-anchor="start" x="639.5" y="-194" font-family="Helvetica,sans-Serif" font-size="10.00">model.CommandFactory.create</text>
<text text-anchor="middle" x="715" y="-183" font-family="Helvetica,sans-Serif" font-size="10.00">Command</text>
</a>
</g>
</g>
<!-- Node5&#45;&gt;Node6 -->
<g id="edge6" class="edge"><title>Node5&#45;&gt;Node6</title>
<path fill="none" stroke="midnightblue" d="M567.048,-157.035C589.839,-162.302 615.615,-168.26 639.144,-173.698"/>
<polygon fill="midnightblue" stroke="midnightblue" points="638.544,-177.152 649.075,-175.994 640.12,-170.332 638.544,-177.152"/>
</g>
<!-- Node7 -->
<g id="node7" class="node"><title>Node7</title>
<g id="a_node7"><a xlink:href="../../d9/d88/classmodel_1_1_tree_interpreter.html#adc0cf2c5819ec7f42db4e37db51b1893" target="_top" xlink:title="model.TreeInterpreter.get\lConstructors">
<polygon fill="white" stroke="black" points="646,-127 646,-157 784,-157 784,-127 646,-127"/>
<text text-anchor="start" x="654" y="-145" font-family="Helvetica,sans-Serif" font-size="10.00">model.TreeInterpreter.get</text>
<text text-anchor="middle" x="715" y="-134" font-family="Helvetica,sans-Serif" font-size="10.00">Constructors</text>
</a>
</g>
</g>
<!-- Node5&#45;&gt;Node7 -->
<g id="edge7" class="edge"><title>Node5&#45;&gt;Node7</title>
<path fill="none" stroke="midnightblue" d="M581.544,-142C599.223,-142 617.951,-142 635.584,-142"/>
<polygon fill="midnightblue" stroke="midnightblue" points="635.823,-145.5 645.823,-142 635.823,-138.5 635.823,-145.5"/>
</g>
<!-- Node5&#45;&gt;Node8 -->
<g id="edge8" class="edge"><title>Node5&#45;&gt;Node8</title>
<path fill="none" stroke="midnightblue" d="M570.966,-126.936C586.431,-123.614 602.768,-120.148 618,-117 629.959,-114.528 642.77,-111.947 655.012,-109.512"/>
<polygon fill="midnightblue" stroke="midnightblue" points="656.001,-112.884 665.13,-107.507 654.641,-106.017 656.001,-112.884"/>
</g>
<!-- Node5&#45;&gt;Node9 -->
<g id="edge10" class="edge"><title>Node5&#45;&gt;Node9</title>
<path fill="none" stroke="midnightblue" d="M525.612,-126.952C548.488,-112.918 584.535,-92.2169 618,-79 624.296,-76.5134 630.922,-74.201 637.627,-72.068"/>
<polygon fill="midnightblue" stroke="midnightblue" points="638.931,-75.3299 647.48,-69.0718 636.894,-68.6327 638.931,-75.3299"/>
</g>
<!-- Node11 -->
<g id="node11" class="node"><title>Node11</title>
<g id="a_node11"><a xlink:href="../../db/d55/classmodel_1_1_variable_list.html#a0adb554303c7191db1da43ddb5fa2c45" target="_top" xlink:title="model.VariableList.add">
<polygon fill="white" stroke="black" points="652.5,-0.5 652.5,-19.5 777.5,-19.5 777.5,-0.5 652.5,-0.5"/>
<text text-anchor="middle" x="715" y="-7.5" font-family="Helvetica,sans-Serif" font-size="10.00">model.VariableList.add</text>
</a>
</g>
</g>
<!-- Node10&#45;&gt;Node11 -->
<g id="edge14" class="edge"><title>Node10&#45;&gt;Node11</title>
<path fill="none" stroke="midnightblue" d="M562.751,-14.2806C587.486,-13.5806 616.269,-12.766 642.047,-12.0364"/>
<polygon fill="midnightblue" stroke="midnightblue" points="642.24,-15.5325 652.137,-11.7509 642.042,-8.53526 642.24,-15.5325"/>
</g>
</g>
</svg>
