<?xml version="1.0" encoding="UTF-8" standalone="no"?>
<!DOCTYPE svg PUBLIC "-//W3C//DTD SVG 1.1//EN"
 "http://www.w3.org/Graphics/SVG/1.1/DTD/svg11.dtd">
<!-- Generated by graphviz version 2.36.0 (20140111.2315)
 -->
<!-- Title: model.TreeInterpreter.setActiveTurtleIndex Pages: 1 -->
<svg width="420pt" height="136pt"
 viewBox="0.00 0.00 420.00 136.00" xmlns="http://www.w3.org/2000/svg" xmlns:xlink="http://www.w3.org/1999/xlink">
<g id="graph0" class="graph" transform="scale(1 1) rotate(0) translate(4 132)">
<title>model.TreeInterpreter.setActiveTurtleIndex</title>
<polygon fill="white" stroke="none" points="-4,4 -4,-132 416,-132 416,4 -4,4"/>
<!-- Node1 -->
<g id="node1" class="node"><title>Node1</title>
<polygon fill="#bfbfbf" stroke="black" points="0.5,-49 0.5,-79 137.5,-79 137.5,-49 0.5,-49"/>
<text text-anchor="start" x="8.5" y="-67" font-family="Helvetica,sans-Serif" font-size="10.00">model.TreeInterpreter.set</text>
<text text-anchor="middle" x="69" y="-56" font-family="Helvetica,sans-Serif" font-size="10.00">ActiveTurtleIndex</text>
</g>
<!-- Node2 -->
<g id="node2" class="node"><title>Node2</title>
<g id="a_node2"><a xlink:href="../../d5/d1a/classcommand_1_1control_1_1_ask_with_command.html#a2a79128bce4d0ce305a2fe690675a70e" target="_top" xlink:title="command.control.AskWithCommand.calculate\lValue">
<polygon fill="white" stroke="black" points="174,-98 174,-128 412,-128 412,-98 174,-98"/>
<text text-anchor="start" x="182" y="-116" font-family="Helvetica,sans-Serif" font-size="10.00">command.control.AskWithCommand.calculate</text>
<text text-anchor="middle" x="293" y="-105" font-family="Helvetica,sans-Serif" font-size="10.00">Value</text>
</a>
</g>
</g>
<!-- Node1&#45;&gt;Node2 -->
<g id="edge1" class="edge"><title>Node1&#45;&gt;Node2</title>
<path fill="none" stroke="midnightblue" d="M144.243,-81.3048C154.24,-83.5845 164.366,-85.868 174,-88 188.823,-91.2804 204.715,-94.7079 219.881,-97.936"/>
<polygon fill="midnightblue" stroke="midnightblue" points="144.842,-77.8514 134.313,-79.0321 143.28,-84.675 144.842,-77.8514"/>
</g>
<!-- Node3 -->
<g id="node3" class="node"><title>Node3</title>
<g id="a_node3"><a xlink:href="../../d9/d9b/classcommand_1_1control_1_1_tell_command.html#a714722faa1f924b03ed1346f2b74e8bf" target="_top" xlink:title="command.control.TellCommand.calculate\lValue">
<polygon fill="white" stroke="black" points="185.5,-49 185.5,-79 400.5,-79 400.5,-49 185.5,-49"/>
<text text-anchor="start" x="193.5" y="-67" font-family="Helvetica,sans-Serif" font-size="10.00">command.control.TellCommand.calculate</text>
<text text-anchor="middle" x="293" y="-56" font-family="Helvetica,sans-Serif" font-size="10.00">Value</text>
</a>
</g>
</g>
<!-- Node1&#45;&gt;Node3 -->
<g id="edge2" class="edge"><title>Node1&#45;&gt;Node3</title>
<path fill="none" stroke="midnightblue" d="M147.557,-64C159.699,-64 172.429,-64 185.088,-64"/>
<polygon fill="midnightblue" stroke="midnightblue" points="147.512,-60.5001 137.512,-64 147.511,-67.5001 147.512,-60.5001"/>
</g>
<!-- Node4 -->
<g id="node4" class="node"><title>Node4</title>
<g id="a_node4"><a xlink:href="../../d4/dea/classcommand_1_1control_1_1_ask_command.html#a0e92735076727a8f4ef8affeb592e8b4" target="_top" xlink:title="command.control.AskCommand.calculate\lValue">
<polygon fill="white" stroke="black" points="184,-0 184,-30 402,-30 402,-0 184,-0"/>
<text text-anchor="start" x="192" y="-18" font-family="Helvetica,sans-Serif" font-size="10.00">command.control.AskCommand.calculate</text>
<text text-anchor="middle" x="293" y="-7" font-family="Helvetica,sans-Serif" font-size="10.00">Value</text>
</a>
</g>
</g>
<!-- Node1&#45;&gt;Node4 -->
<g id="edge3" class="edge"><title>Node1&#45;&gt;Node4</title>
<path fill="none" stroke="midnightblue" d="M144.243,-46.6952C154.24,-44.4155 164.366,-42.132 174,-40 188.823,-36.7196 204.715,-33.2921 219.881,-30.064"/>
<polygon fill="midnightblue" stroke="midnightblue" points="143.28,-43.325 134.313,-48.9679 144.842,-50.1486 143.28,-43.325"/>
</g>
</g>
</svg>
