<?xml version="1.0" encoding="UTF-8" standalone="no"?>
<!DOCTYPE svg PUBLIC "-//W3C//DTD SVG 1.1//EN"
 "http://www.w3.org/Graphics/SVG/1.1/DTD/svg11.dtd">
<!-- Generated by graphviz version 2.36.0 (20140111.2315)
 -->
<!-- Title: model.TreeInterpreter.getConstructors Pages: 1 -->
<svg width="3560pt" height="466pt"
 viewBox="0.00 0.00 3560.00 466.00" xmlns="http://www.w3.org/2000/svg" xmlns:xlink="http://www.w3.org/1999/xlink">
<g id="graph0" class="graph" transform="scale(1 1) rotate(0) translate(4 462)">
<title>model.TreeInterpreter.getConstructors</title>
<polygon fill="white" stroke="none" points="-4,4 -4,-462 3556,-462 3556,4 -4,4"/>
<!-- Node1 -->
<g id="node1" class="node"><title>Node1</title>
<polygon fill="#bfbfbf" stroke="black" points="0,-232 0,-262 138,-262 138,-232 0,-232"/>
<text text-anchor="start" x="8" y="-250" font-family="Helvetica,sans-Serif" font-size="10.00">model.TreeInterpreter.get</text>
<text text-anchor="middle" x="69" y="-239" font-family="Helvetica,sans-Serif" font-size="10.00">Constructors</text>
</g>
<!-- Node2 -->
<g id="node2" class="node"><title>Node2</title>
<g id="a_node2"><a xlink:href="../../d9/d88/classmodel_1_1_tree_interpreter.html#af4d24e7867eb3a4a53f79f4a9288f9fd" target="_top" xlink:title="model.TreeInterpreter.execute\lCommand">
<polygon fill="white" stroke="black" points="174.5,-232 174.5,-262 335.5,-262 335.5,-232 174.5,-232"/>
<text text-anchor="start" x="182.5" y="-250" font-family="Helvetica,sans-Serif" font-size="10.00">model.TreeInterpreter.execute</text>
<text text-anchor="middle" x="255" y="-239" font-family="Helvetica,sans-Serif" font-size="10.00">Command</text>
</a>
</g>
</g>
<!-- Node1&#45;&gt;Node2 -->
<g id="edge1" class="edge"><title>Node1&#45;&gt;Node2</title>
<path fill="none" stroke="midnightblue" d="M148.29,-247C156.921,-247 165.716,-247 174.362,-247"/>
<polygon fill="midnightblue" stroke="midnightblue" points="148.253,-243.5 138.253,-247 148.253,-250.5 148.253,-243.5"/>
</g>
<!-- Node3 -->
<g id="node3" class="node"><title>Node3</title>
<g id="a_node3"><a xlink:href="../../d9/d88/classmodel_1_1_tree_interpreter.html#a3e460e5ebe66f781afb480f0f0ec2ce7" target="_top" xlink:title="model.TreeInterpreter.update">
<polygon fill="white" stroke="black" points="372,-237.5 372,-256.5 528,-256.5 528,-237.5 372,-237.5"/>
<text text-anchor="middle" x="450" y="-244.5" font-family="Helvetica,sans-Serif" font-size="10.00">model.TreeInterpreter.update</text>
</a>
</g>
</g>
<!-- Node2&#45;&gt;Node3 -->
<g id="edge2" class="edge"><title>Node2&#45;&gt;Node3</title>
<path fill="none" stroke="midnightblue" d="M345.758,-247C354.441,-247 363.197,-247 371.744,-247"/>
<polygon fill="midnightblue" stroke="midnightblue" points="345.615,-243.5 335.615,-247 345.615,-250.5 345.615,-243.5"/>
</g>
<!-- Node4 -->
<g id="node4" class="node"><title>Node4</title>
<g id="a_node4"><a xlink:href="../../d9/d88/classmodel_1_1_tree_interpreter.html#a501df6b8cfe1a8175a9da0ed96d30d6f" target="_top" xlink:title="model.TreeInterpreter.interpretTree">
<polygon fill="white" stroke="black" points="564.5,-237.5 564.5,-256.5 747.5,-256.5 747.5,-237.5 564.5,-237.5"/>
<text text-anchor="middle" x="656" y="-244.5" font-family="Helvetica,sans-Serif" font-size="10.00">model.TreeInterpreter.interpretTree</text>
</a>
</g>
</g>
<!-- Node3&#45;&gt;Node4 -->
<g id="edge3" class="edge"><title>Node3&#45;&gt;Node4</title>
<path fill="none" stroke="midnightblue" d="M538.217,-247C546.886,-247 555.7,-247 564.402,-247"/>
<polygon fill="midnightblue" stroke="midnightblue" points="538.124,-243.5 528.124,-247 538.124,-250.5 538.124,-243.5"/>
</g>
<!-- Node5 -->
<g id="node5" class="node"><title>Node5</title>
<g id="a_node5"><a xlink:href="../../d4/dea/classcommand_1_1control_1_1_ask_command.html#a0e92735076727a8f4ef8affeb592e8b4" target="_top" xlink:title="command.control.AskCommand.calculate\lValue">
<polygon fill="white" stroke="black" points="796,-428 796,-458 1014,-458 1014,-428 796,-428"/>
<text text-anchor="start" x="804" y="-446" font-family="Helvetica,sans-Serif" font-size="10.00">command.control.AskCommand.calculate</text>
<text text-anchor="middle" x="905" y="-435" font-family="Helvetica,sans-Serif" font-size="10.00">Value</text>
</a>
</g>
</g>
<!-- Node4&#45;&gt;Node5 -->
<g id="edge4" class="edge"><title>Node4&#45;&gt;Node5</title>
<path fill="none" stroke="midnightblue" d="M665.375,-266.014C682.238,-301.928 723.877,-379.574 784,-418 790.097,-421.896 796.69,-425.199 803.542,-427.996"/>
<polygon fill="midnightblue" stroke="midnightblue" points="668.449,-264.319 661.111,-256.677 662.081,-267.227 668.449,-264.319"/>
</g>
<!-- Node6 -->
<g id="node6" class="node"><title>Node6</title>
<g id="a_node6"><a xlink:href="../../d5/d1a/classcommand_1_1control_1_1_ask_with_command.html#a2a79128bce4d0ce305a2fe690675a70e" target="_top" xlink:title="command.control.AskWithCommand.calculate\lValue">
<polygon fill="white" stroke="black" points="786,-379 786,-409 1024,-409 1024,-379 786,-379"/>
<text text-anchor="start" x="794" y="-397" font-family="Helvetica,sans-Serif" font-size="10.00">command.control.AskWithCommand.calculate</text>
<text text-anchor="middle" x="905" y="-386" font-family="Helvetica,sans-Serif" font-size="10.00">Value</text>
</a>
</g>
</g>
<!-- Node4&#45;&gt;Node6 -->
<g id="edge5" class="edge"><title>Node4&#45;&gt;Node6</title>
<path fill="none" stroke="midnightblue" d="M670.231,-265.01C691.173,-292.116 734.679,-342.986 784,-369 791.341,-372.872 799.23,-376.144 807.33,-378.91"/>
<polygon fill="midnightblue" stroke="midnightblue" points="672.843,-262.662 664.018,-256.799 667.261,-266.885 672.843,-262.662"/>
</g>
<!-- Node7 -->
<g id="node7" class="node"><title>Node7</title>
<g id="a_node7"><a xlink:href="../../d7/dae/classcommand_1_1control_1_1_do_times_command.html#a932eb0f99c5b2fecf8fd6939ef4b0c5b" target="_top" xlink:title="command.control.DoTimesCommand.calculate\lValue">
<polygon fill="white" stroke="black" points="784,-330 784,-360 1026,-360 1026,-330 784,-330"/>
<text text-anchor="start" x="792" y="-348" font-family="Helvetica,sans-Serif" font-size="10.00">command.control.DoTimesCommand.calculate</text>
<text text-anchor="middle" x="905" y="-337" font-family="Helvetica,sans-Serif" font-size="10.00">Value</text>
</a>
</g>
</g>
<!-- Node4&#45;&gt;Node7 -->
<g id="edge6" class="edge"><title>Node4&#45;&gt;Node7</title>
<path fill="none" stroke="midnightblue" d="M678.898,-262.48C703.394,-279.089 744.797,-305.085 784,-320 794.044,-323.821 804.796,-327.108 815.584,-329.922"/>
<polygon fill="midnightblue" stroke="midnightblue" points="680.599,-259.402 670.377,-256.616 676.631,-265.169 680.599,-259.402"/>
</g>
<!-- Node8 -->
<g id="node8" class="node"><title>Node8</title>
<g id="a_node8"><a xlink:href="../../d1/d18/classcommand_1_1control_1_1_execute_user_command.html#a1ce1cab877c9c9199aee9f8e687f74fb" target="_top" xlink:title="command.control.ExecuteUser\lCommand.calculateValue">
<polygon fill="white" stroke="black" points="822.5,-281 822.5,-311 987.5,-311 987.5,-281 822.5,-281"/>
<text text-anchor="start" x="830.5" y="-299" font-family="Helvetica,sans-Serif" font-size="10.00">command.control.ExecuteUser</text>
<text text-anchor="middle" x="905" y="-288" font-family="Helvetica,sans-Serif" font-size="10.00">Command.calculateValue</text>
</a>
</g>
</g>
<!-- Node4&#45;&gt;Node8 -->
<g id="edge7" class="edge"><title>Node4&#45;&gt;Node8</title>
<path fill="none" stroke="midnightblue" d="M715.07,-258.52C748.788,-265.209 791.654,-273.713 828.028,-280.929"/>
<polygon fill="midnightblue" stroke="midnightblue" points="715.407,-255.019 704.917,-256.506 714.045,-261.885 715.407,-255.019"/>
</g>
<!-- Node9 -->
<g id="node9" class="node"><title>Node9</title>
<g id="a_node9"><a xlink:href="../../da/db2/classcommand_1_1control_1_1_for_command.html#ad494f107c7c0e97f862dcfddc476a064" target="_top" xlink:title="command.control.ForCommand.calculate\lValue">
<polygon fill="white" stroke="black" points="797.5,-232 797.5,-262 1012.5,-262 1012.5,-232 797.5,-232"/>
<text text-anchor="start" x="805.5" y="-250" font-family="Helvetica,sans-Serif" font-size="10.00">command.control.ForCommand.calculate</text>
<text text-anchor="middle" x="905" y="-239" font-family="Helvetica,sans-Serif" font-size="10.00">Value</text>
</a>
</g>
</g>
<!-- Node4&#45;&gt;Node9 -->
<g id="edge8" class="edge"><title>Node4&#45;&gt;Node9</title>
<path fill="none" stroke="midnightblue" d="M757.861,-247C770.798,-247 784.078,-247 797.107,-247"/>
<polygon fill="midnightblue" stroke="midnightblue" points="757.571,-243.5 747.571,-247 757.571,-250.5 757.571,-243.5"/>
</g>
<!-- Node10 -->
<g id="node10" class="node"><title>Node10</title>
<g id="a_node10"><a xlink:href="../../d6/d3b/classcommand_1_1control_1_1_if_command.html#acf428d2a9882866a2f00fbbee727f4f1" target="_top" xlink:title="command.control.IfCommand.calculate\lValue">
<polygon fill="white" stroke="black" points="802,-183 802,-213 1008,-213 1008,-183 802,-183"/>
<text text-anchor="start" x="810" y="-201" font-family="Helvetica,sans-Serif" font-size="10.00">command.control.IfCommand.calculate</text>
<text text-anchor="middle" x="905" y="-190" font-family="Helvetica,sans-Serif" font-size="10.00">Value</text>
</a>
</g>
</g>
<!-- Node4&#45;&gt;Node10 -->
<g id="edge9" class="edge"><title>Node4&#45;&gt;Node10</title>
<path fill="none" stroke="midnightblue" d="M715.07,-235.48C748.788,-228.791 791.654,-220.287 828.028,-213.071"/>
<polygon fill="midnightblue" stroke="midnightblue" points="714.045,-232.115 704.917,-237.494 715.407,-238.981 714.045,-232.115"/>
</g>
<!-- Node11 -->
<g id="node11" class="node"><title>Node11</title>
<g id="a_node11"><a xlink:href="../../d3/dcf/classcommand_1_1control_1_1_if_else_command.html#ac1a2c320a23705da633419c13a18ff91" target="_top" xlink:title="command.control.IfElseCommand.calculate\lValue">
<polygon fill="white" stroke="black" points="792.5,-134 792.5,-164 1017.5,-164 1017.5,-134 792.5,-134"/>
<text text-anchor="start" x="800.5" y="-152" font-family="Helvetica,sans-Serif" font-size="10.00">command.control.IfElseCommand.calculate</text>
<text text-anchor="middle" x="905" y="-141" font-family="Helvetica,sans-Serif" font-size="10.00">Value</text>
</a>
</g>
</g>
<!-- Node4&#45;&gt;Node11 -->
<g id="edge10" class="edge"><title>Node4&#45;&gt;Node11</title>
<path fill="none" stroke="midnightblue" d="M678.898,-231.52C703.394,-214.911 744.797,-188.915 784,-174 794.044,-170.179 804.796,-166.892 815.584,-164.078"/>
<polygon fill="midnightblue" stroke="midnightblue" points="676.631,-228.831 670.377,-237.384 680.599,-234.598 676.631,-228.831"/>
</g>
<!-- Node12 -->
<g id="node12" class="node"><title>Node12</title>
<g id="a_node12"><a xlink:href="../../d1/d0f/classcommand_1_1control_1_1_repeat_command.html#af9c3a3854b4eaabafc7c09bdbe83de0e" target="_top" xlink:title="command.control.RepeatCommand.calculate\lValue">
<polygon fill="white" stroke="black" points="788.5,-85 788.5,-115 1021.5,-115 1021.5,-85 788.5,-85"/>
<text text-anchor="start" x="796.5" y="-103" font-family="Helvetica,sans-Serif" font-size="10.00">command.control.RepeatCommand.calculate</text>
<text text-anchor="middle" x="905" y="-92" font-family="Helvetica,sans-Serif" font-size="10.00">Value</text>
</a>
</g>
</g>
<!-- Node4&#45;&gt;Node12 -->
<g id="edge11" class="edge"><title>Node4&#45;&gt;Node12</title>
<path fill="none" stroke="midnightblue" d="M670.231,-228.99C691.173,-201.884 734.679,-151.014 784,-125 791.341,-121.128 799.23,-117.856 807.33,-115.09"/>
<polygon fill="midnightblue" stroke="midnightblue" points="667.261,-227.115 664.018,-237.201 672.843,-231.338 667.261,-227.115"/>
</g>
<!-- Node13 -->
<g id="node13" class="node"><title>Node13</title>
<g id="a_node13"><a xlink:href="../../d9/df7/classcontroller_1_1_controller.html#a3d81fb1a57114f96fb6c319f4c5df370" target="_top" xlink:title="controller.Controller.parse\lCommand">
<polygon fill="white" stroke="black" points="835,-36 835,-66 975,-66 975,-36 835,-36"/>
<text text-anchor="start" x="843" y="-54" font-family="Helvetica,sans-Serif" font-size="10.00">controller.Controller.parse</text>
<text text-anchor="middle" x="905" y="-43" font-family="Helvetica,sans-Serif" font-size="10.00">Command</text>
</a>
</g>
</g>
<!-- Node4&#45;&gt;Node13 -->
<g id="edge12" class="edge"><title>Node4&#45;&gt;Node13</title>
<path fill="none" stroke="midnightblue" d="M665.375,-227.986C682.238,-192.072 723.877,-114.426 784,-76 799.152,-66.3161 817.375,-60.3012 834.992,-56.5884"/>
<polygon fill="midnightblue" stroke="midnightblue" points="662.081,-226.773 661.111,-237.323 668.449,-229.681 662.081,-226.773"/>
</g>
<!-- Node14 -->
<g id="node14" class="node"><title>Node14</title>
<g id="a_node14"><a xlink:href="../../d5/d06/classui_1_1_scene_updater.html#ab77a04f8b0038429b09237aac18906e8" target="_top" xlink:title="ui.SceneUpdater.sendCommands">
<polygon fill="white" stroke="black" points="1062,-41.5 1062,-60.5 1240,-60.5 1240,-41.5 1062,-41.5"/>
<text text-anchor="middle" x="1151" y="-48.5" font-family="Helvetica,sans-Serif" font-size="10.00">ui.SceneUpdater.sendCommands</text>
</a>
</g>
</g>
<!-- Node13&#45;&gt;Node14 -->
<g id="edge13" class="edge"><title>Node13&#45;&gt;Node14</title>
<path fill="none" stroke="midnightblue" d="M985.545,-51C1009.92,-51 1036.89,-51 1061.81,-51"/>
<polygon fill="midnightblue" stroke="midnightblue" points="985.268,-47.5001 975.268,-51 985.268,-54.5001 985.268,-47.5001"/>
</g>
<!-- Node15 -->
<g id="node15" class="node"><title>Node15</title>
<g id="a_node15"><a xlink:href="../../dc/d3b/classui_1_1_g_u_i.html#ad8f08a79a20a498bcaafdc7e2e2ce0a9" target="_top" xlink:title="ui.GUI.parseCommand">
<polygon fill="white" stroke="black" points="1276.5,-41.5 1276.5,-60.5 1401.5,-60.5 1401.5,-41.5 1276.5,-41.5"/>
<text text-anchor="middle" x="1339" y="-48.5" font-family="Helvetica,sans-Serif" font-size="10.00">ui.GUI.parseCommand</text>
</a>
</g>
</g>
<!-- Node14&#45;&gt;Node15 -->
<g id="edge14" class="edge"><title>Node14&#45;&gt;Node15</title>
<path fill="none" stroke="midnightblue" d="M1250.2,-51C1259.13,-51 1268,-51 1276.48,-51"/>
<polygon fill="midnightblue" stroke="midnightblue" points="1250.1,-47.5001 1240.1,-51 1250.1,-54.5001 1250.1,-47.5001"/>
</g>
<!-- Node16 -->
<g id="node16" class="node"><title>Node16</title>
<g id="a_node16"><a xlink:href="../../d8/d3c/classui_1_1elements_1_1_i_o_element.html#a139a046f0c771f86696f2eee04047c64" target="_top" xlink:title="ui.elements.IOElement.init">
<polygon fill="white" stroke="black" points="1454.5,-60.5 1454.5,-79.5 1597.5,-79.5 1597.5,-60.5 1454.5,-60.5"/>
<text text-anchor="middle" x="1526" y="-67.5" font-family="Helvetica,sans-Serif" font-size="10.00">ui.elements.IOElement.init</text>
</a>
</g>
</g>
<!-- Node15&#45;&gt;Node16 -->
<g id="edge15" class="edge"><title>Node15&#45;&gt;Node16</title>
<path fill="none" stroke="midnightblue" d="M1411.68,-58.3614C1425.7,-59.8019 1440.4,-61.3116 1454.39,-62.7485"/>
<polygon fill="midnightblue" stroke="midnightblue" points="1411.91,-54.8668 1401.6,-57.3267 1411.19,-61.8302 1411.91,-54.8668"/>
</g>
<!-- Node18 -->
<g id="node18" class="node"><title>Node18</title>
<g id="a_node18"><a xlink:href="../../dc/d3b/classui_1_1_g_u_i.html#ab8ec2a37b3d5bd9e8c2abbb3642fb965" target="_top" xlink:title="ui.GUI.setupKeyboardCommands">
<polygon fill="white" stroke="black" points="1438.5,-22.5 1438.5,-41.5 1613.5,-41.5 1613.5,-22.5 1438.5,-22.5"/>
<text text-anchor="middle" x="1526" y="-29.5" font-family="Helvetica,sans-Serif" font-size="10.00">ui.GUI.setupKeyboardCommands</text>
</a>
</g>
</g>
<!-- Node15&#45;&gt;Node18 -->
<g id="edge17" class="edge"><title>Node15&#45;&gt;Node18</title>
<path fill="none" stroke="midnightblue" d="M1411.69,-43.6368C1420.41,-42.7417 1429.39,-41.8199 1438.29,-40.9054"/>
<polygon fill="midnightblue" stroke="midnightblue" points="1411.19,-40.1698 1401.6,-44.6733 1411.91,-47.1332 1411.19,-40.1698"/>
</g>
<!-- Node17 -->
<g id="node17" class="node"><title>Node17</title>
<g id="a_node17"><a xlink:href="../../d8/d3c/classui_1_1elements_1_1_i_o_element.html#a556e1a3ad292fe3ab731065eef59b187" target="_top" xlink:title="ui.elements.IOElement.IOElement">
<polygon fill="white" stroke="black" points="1650,-60.5 1650,-79.5 1828,-79.5 1828,-60.5 1650,-60.5"/>
<text text-anchor="middle" x="1739" y="-67.5" font-family="Helvetica,sans-Serif" font-size="10.00">ui.elements.IOElement.IOElement</text>
</a>
</g>
</g>
<!-- Node16&#45;&gt;Node17 -->
<g id="edge16" class="edge"><title>Node16&#45;&gt;Node17</title>
<path fill="none" stroke="midnightblue" d="M1607.92,-70C1621.65,-70 1635.97,-70 1649.88,-70"/>
<polygon fill="midnightblue" stroke="midnightblue" points="1607.55,-66.5001 1597.55,-70 1607.55,-73.5001 1607.55,-66.5001"/>
</g>
<!-- Node19 -->
<g id="node19" class="node"><title>Node19</title>
<g id="a_node19"><a xlink:href="../../dc/d3b/classui_1_1_g_u_i.html#a765d554102f38969231261686f2f8e27" target="_top" xlink:title="ui.GUI.initialize">
<polygon fill="white" stroke="black" points="1696,-22.5 1696,-41.5 1782,-41.5 1782,-22.5 1696,-22.5"/>
<text text-anchor="middle" x="1739" y="-29.5" font-family="Helvetica,sans-Serif" font-size="10.00">ui.GUI.initialize</text>
</a>
</g>
</g>
<!-- Node18&#45;&gt;Node19 -->
<g id="edge18" class="edge"><title>Node18&#45;&gt;Node19</title>
<path fill="none" stroke="midnightblue" d="M1623.75,-32C1649.02,-32 1674.96,-32 1695.72,-32"/>
<polygon fill="midnightblue" stroke="midnightblue" points="1623.74,-28.5001 1613.74,-32 1623.74,-35.5001 1623.74,-28.5001"/>
</g>
<!-- Node20 -->
<g id="node20" class="node"><title>Node20</title>
<g id="a_node20"><a xlink:href="../../d5/d06/classui_1_1_scene_updater.html#aeef5dd7a8ec2ad6179e33fdd71ea90d6" target="_top" xlink:title="ui.SceneUpdater.initGUI">
<polygon fill="white" stroke="black" points="1864.5,-22.5 1864.5,-41.5 1995.5,-41.5 1995.5,-22.5 1864.5,-22.5"/>
<text text-anchor="middle" x="1930" y="-29.5" font-family="Helvetica,sans-Serif" font-size="10.00">ui.SceneUpdater.initGUI</text>
</a>
</g>
</g>
<!-- Node19&#45;&gt;Node20 -->
<g id="edge19" class="edge"><title>Node19&#45;&gt;Node20</title>
<path fill="none" stroke="midnightblue" d="M1792.67,-32C1814.92,-32 1841.05,-32 1864.45,-32"/>
<polygon fill="midnightblue" stroke="midnightblue" points="1792.42,-28.5001 1782.42,-32 1792.42,-35.5001 1792.42,-28.5001"/>
</g>
<!-- Node21 -->
<g id="node21" class="node"><title>Node21</title>
<g id="a_node21"><a xlink:href="../../d9/df7/classcontroller_1_1_controller.html#a57e42ba83ee2145e6262cd72eac59570" target="_top" xlink:title="controller.Controller.init">
<polygon fill="white" stroke="black" points="2032.5,-22.5 2032.5,-41.5 2159.5,-41.5 2159.5,-22.5 2032.5,-22.5"/>
<text text-anchor="middle" x="2096" y="-29.5" font-family="Helvetica,sans-Serif" font-size="10.00">controller.Controller.init</text>
</a>
</g>
</g>
<!-- Node20&#45;&gt;Node21 -->
<g id="edge20" class="edge"><title>Node20&#45;&gt;Node21</title>
<path fill="none" stroke="midnightblue" d="M2006.04,-32C2014.81,-32 2023.68,-32 2032.26,-32"/>
<polygon fill="midnightblue" stroke="midnightblue" points="2005.82,-28.5001 1995.82,-32 2005.82,-35.5001 2005.82,-28.5001"/>
</g>
<!-- Node22 -->
<g id="node22" class="node"><title>Node22</title>
<g id="a_node22"><a xlink:href="../../dd/df2/classmain_1_1_workspace_manager.html#abc818b59211f6e14940b86a42bb868d0" target="_top" xlink:title="main.WorkspaceManager.create\lWorkspace">
<polygon fill="white" stroke="black" points="2196,-17 2196,-47 2366,-47 2366,-17 2196,-17"/>
<text text-anchor="start" x="2204" y="-35" font-family="Helvetica,sans-Serif" font-size="10.00">main.WorkspaceManager.create</text>
<text text-anchor="middle" x="2281" y="-24" font-family="Helvetica,sans-Serif" font-size="10.00">Workspace</text>
</a>
</g>
</g>
<!-- Node21&#45;&gt;Node22 -->
<g id="edge21" class="edge"><title>Node21&#45;&gt;Node22</title>
<path fill="none" stroke="midnightblue" d="M2169.92,-32C2178.39,-32 2187.08,-32 2195.69,-32"/>
<polygon fill="midnightblue" stroke="midnightblue" points="2169.72,-28.5001 2159.72,-32 2169.72,-35.5001 2169.72,-28.5001"/>
</g>
<!-- Node23 -->
<g id="node23" class="node"><title>Node23</title>
<g id="a_node23"><a xlink:href="../../d9/df7/classcontroller_1_1_controller.html#a3a9d672bb57047df70945ad1a9582c9a" target="_top" xlink:title="controller.Controller.create\lNewWorkspace">
<polygon fill="white" stroke="black" points="2402.5,-39 2402.5,-69 2545.5,-69 2545.5,-39 2402.5,-39"/>
<text text-anchor="start" x="2410.5" y="-57" font-family="Helvetica,sans-Serif" font-size="10.00">controller.Controller.create</text>
<text text-anchor="middle" x="2474" y="-46" font-family="Helvetica,sans-Serif" font-size="10.00">NewWorkspace</text>
</a>
</g>
</g>
<!-- Node22&#45;&gt;Node23 -->
<g id="edge22" class="edge"><title>Node22&#45;&gt;Node23</title>
<path fill="none" stroke="midnightblue" d="M2376.03,-42.8303C2384.88,-43.8503 2393.75,-44.8721 2402.34,-45.8608"/>
<polygon fill="midnightblue" stroke="midnightblue" points="2376.39,-39.3489 2366.05,-41.6815 2375.59,-46.3029 2376.39,-39.3489"/>
</g>
<!-- Node29 -->
<g id="node29" class="node"><title>Node29</title>
<g id="a_node29"><a xlink:href="../../d1/d0b/classmain_1_1_main.html#a9f1e5657b2f6f9bdd69a3b6412ceda74" target="_top" xlink:title="main.Main.start">
<polygon fill="white" stroke="black" points="2428,-0.5 2428,-19.5 2520,-19.5 2520,-0.5 2428,-0.5"/>
<text text-anchor="middle" x="2474" y="-7.5" font-family="Helvetica,sans-Serif" font-size="10.00">main.Main.start</text>
</a>
</g>
</g>
<!-- Node22&#45;&gt;Node29 -->
<g id="edge28" class="edge"><title>Node22&#45;&gt;Node29</title>
<path fill="none" stroke="midnightblue" d="M2376.09,-21.1629C2394.19,-19.0779 2412.36,-16.9851 2427.99,-15.1843"/>
<polygon fill="midnightblue" stroke="midnightblue" points="2375.59,-17.6971 2366.05,-22.3185 2376.39,-24.6511 2375.59,-17.6971"/>
</g>
<!-- Node24 -->
<g id="node24" class="node"><title>Node24</title>
<g id="a_node24"><a xlink:href="../../d5/d06/classui_1_1_scene_updater.html#a2858ad8edb0c0f59a21e2ae015f2fa1e" target="_top" xlink:title="ui.SceneUpdater.createNew\lWorkspace">
<polygon fill="white" stroke="black" points="2582,-39 2582,-69 2732,-69 2732,-39 2582,-39"/>
<text text-anchor="start" x="2590" y="-57" font-family="Helvetica,sans-Serif" font-size="10.00">ui.SceneUpdater.createNew</text>
<text text-anchor="middle" x="2657" y="-46" font-family="Helvetica,sans-Serif" font-size="10.00">Workspace</text>
</a>
</g>
</g>
<!-- Node23&#45;&gt;Node24 -->
<g id="edge23" class="edge"><title>Node23&#45;&gt;Node24</title>
<path fill="none" stroke="midnightblue" d="M2555.8,-54C2564.43,-54 2573.17,-54 2581.71,-54"/>
<polygon fill="midnightblue" stroke="midnightblue" points="2555.76,-50.5001 2545.76,-54 2555.76,-57.5001 2555.76,-50.5001"/>
</g>
<!-- Node25 -->
<g id="node25" class="node"><title>Node25</title>
<g id="a_node25"><a xlink:href="../../dc/d3b/classui_1_1_g_u_i.html#a2edc294ba07311e6c4b85c9fe749d1bf" target="_top" xlink:title="ui.GUI.createNewWorkspace">
<polygon fill="white" stroke="black" points="2768,-44.5 2768,-63.5 2918,-63.5 2918,-44.5 2768,-44.5"/>
<text text-anchor="middle" x="2843" y="-51.5" font-family="Helvetica,sans-Serif" font-size="10.00">ui.GUI.createNewWorkspace</text>
</a>
</g>
</g>
<!-- Node24&#45;&gt;Node25 -->
<g id="edge24" class="edge"><title>Node24&#45;&gt;Node25</title>
<path fill="none" stroke="midnightblue" d="M2742.07,-54C2750.65,-54 2759.34,-54 2767.81,-54"/>
<polygon fill="midnightblue" stroke="midnightblue" points="2742.04,-50.5001 2732.04,-54 2742.04,-57.5001 2742.04,-50.5001"/>
</g>
<!-- Node26 -->
<g id="node26" class="node"><title>Node26</title>
<g id="a_node26"><a xlink:href="../../d0/de6/classui_1_1elements_1_1_menu_bar_element.html#a98c13995a31d997aa10f2950583da6cc" target="_top" xlink:title="ui.elements.MenuBarElement.make\lMenuBar">
<polygon fill="white" stroke="black" points="2954,-39 2954,-69 3142,-69 3142,-39 2954,-39"/>
<text text-anchor="start" x="2962" y="-57" font-family="Helvetica,sans-Serif" font-size="10.00">ui.elements.MenuBarElement.make</text>
<text text-anchor="middle" x="3048" y="-46" font-family="Helvetica,sans-Serif" font-size="10.00">MenuBar</text>
</a>
</g>
</g>
<!-- Node25&#45;&gt;Node26 -->
<g id="edge25" class="edge"><title>Node25&#45;&gt;Node26</title>
<path fill="none" stroke="midnightblue" d="M2928.28,-54C2936.66,-54 2945.21,-54 2953.68,-54"/>
<polygon fill="midnightblue" stroke="midnightblue" points="2928.15,-50.5001 2918.15,-54 2928.15,-57.5001 2928.15,-50.5001"/>
</g>
<!-- Node27 -->
<g id="node27" class="node"><title>Node27</title>
<g id="a_node27"><a xlink:href="../../d0/de6/classui_1_1elements_1_1_menu_bar_element.html#a7bdb58f78cf8b61ba28498c5c86ab682" target="_top" xlink:title="ui.elements.MenuBarElement.init">
<polygon fill="white" stroke="black" points="3178,-44.5 3178,-63.5 3354,-63.5 3354,-44.5 3178,-44.5"/>
<text text-anchor="middle" x="3266" y="-51.5" font-family="Helvetica,sans-Serif" font-size="10.00">ui.elements.MenuBarElement.init</text>
</a>
</g>
</g>
<!-- Node26&#45;&gt;Node27 -->
<g id="edge26" class="edge"><title>Node26&#45;&gt;Node27</title>
<path fill="none" stroke="midnightblue" d="M3152.23,-54C3160.83,-54 3169.48,-54 3177.94,-54"/>
<polygon fill="midnightblue" stroke="midnightblue" points="3152.17,-50.5001 3142.17,-54 3152.17,-57.5001 3152.17,-50.5001"/>
</g>
<!-- Node28 -->
<g id="node28" class="node"><title>Node28</title>
<g id="a_node28"><a xlink:href="../../d0/de6/classui_1_1elements_1_1_menu_bar_element.html#ab4a4e6841c924a9d9c70b8073b56dffc" target="_top" xlink:title="ui.elements.MenuBarElement.\lMenuBarElement">
<polygon fill="white" stroke="black" points="3390.5,-39 3390.5,-69 3551.5,-69 3551.5,-39 3390.5,-39"/>
<text text-anchor="start" x="3398.5" y="-57" font-family="Helvetica,sans-Serif" font-size="10.00">ui.elements.MenuBarElement.</text>
<text text-anchor="middle" x="3471" y="-46" font-family="Helvetica,sans-Serif" font-size="10.00">MenuBarElement</text>
</a>
</g>
</g>
<!-- Node27&#45;&gt;Node28 -->
<g id="edge27" class="edge"><title>Node27&#45;&gt;Node28</title>
<path fill="none" stroke="midnightblue" d="M3364.47,-54C3373.19,-54 3381.95,-54 3390.5,-54"/>
<polygon fill="midnightblue" stroke="midnightblue" points="3364.27,-50.5001 3354.27,-54 3364.27,-57.5001 3364.27,-50.5001"/>
</g>
</g>
</svg>
