<?xml version="1.0" encoding="UTF-8" standalone="no"?>
<!DOCTYPE svg PUBLIC "-//W3C//DTD SVG 1.1//EN"
 "http://www.w3.org/Graphics/SVG/1.1/DTD/svg11.dtd">
<!-- Generated by graphviz version 2.36.0 (20140111.2315)
 -->
<!-- Title: model.TreeInterpreter.executeCommand Pages: 1 -->
<svg width="400pt" height="213pt"
 viewBox="0.00 0.00 400.00 213.00" xmlns="http://www.w3.org/2000/svg" xmlns:xlink="http://www.w3.org/1999/xlink">
<g id="graph0" class="graph" transform="scale(1 1) rotate(0) translate(4 209)">
<title>model.TreeInterpreter.executeCommand</title>
<polygon fill="white" stroke="none" points="-4,4 -4,-209 396,-209 396,4 -4,4"/>
<!-- Node1 -->
<g id="node1" class="node"><title>Node1</title>
<polygon fill="#bfbfbf" stroke="black" points="0.5,-82 0.5,-112 161.5,-112 161.5,-82 0.5,-82"/>
<text text-anchor="start" x="8.5" y="-100" font-family="Helvetica,sans-Serif" font-size="10.00">model.TreeInterpreter.execute</text>
<text text-anchor="middle" x="81" y="-89" font-family="Helvetica,sans-Serif" font-size="10.00">Command</text>
</g>
<!-- Node2 -->
<g id="node2" class="node"><title>Node2</title>
<g id="a_node2"><a xlink:href="../../db/d10/classmodel_1_1_command_factory.html#a3982ff8b4387b7e50c9ec4350ee01733" target="_top" xlink:title="model.CommandFactory.create\lCommand">
<polygon fill="white" stroke="black" points="211.5,-175 211.5,-205 378.5,-205 378.5,-175 211.5,-175"/>
<text text-anchor="start" x="219.5" y="-193" font-family="Helvetica,sans-Serif" font-size="10.00">model.CommandFactory.create</text>
<text text-anchor="middle" x="295" y="-182" font-family="Helvetica,sans-Serif" font-size="10.00">Command</text>
</a>
</g>
</g>
<!-- Node1&#45;&gt;Node2 -->
<g id="edge1" class="edge"><title>Node1&#45;&gt;Node2</title>
<path fill="none" stroke="midnightblue" d="M103.721,-112.204C126.346,-127.435 163.274,-150.625 198,-165 204.094,-167.523 210.513,-169.85 217.024,-171.984"/>
<polygon fill="midnightblue" stroke="midnightblue" points="216.013,-175.335 226.601,-174.973 218.098,-168.653 216.013,-175.335"/>
</g>
<!-- Node3 -->
<g id="node3" class="node"><title>Node3</title>
<g id="a_node3"><a xlink:href="../../d9/d88/classmodel_1_1_tree_interpreter.html#adc0cf2c5819ec7f42db4e37db51b1893" target="_top" xlink:title="model.TreeInterpreter.get\lConstructors">
<polygon fill="white" stroke="black" points="226,-126 226,-156 364,-156 364,-126 226,-126"/>
<text text-anchor="start" x="234" y="-144" font-family="Helvetica,sans-Serif" font-size="10.00">model.TreeInterpreter.get</text>
<text text-anchor="middle" x="295" y="-133" font-family="Helvetica,sans-Serif" font-size="10.00">Constructors</text>
</a>
</g>
</g>
<!-- Node1&#45;&gt;Node3 -->
<g id="edge2" class="edge"><title>Node1&#45;&gt;Node3</title>
<path fill="none" stroke="midnightblue" d="M154.365,-112.019C174.17,-116.13 195.722,-120.603 215.835,-124.777"/>
<polygon fill="midnightblue" stroke="midnightblue" points="215.388,-128.259 225.891,-126.864 216.811,-121.405 215.388,-128.259"/>
</g>
<!-- Node4 -->
<g id="node4" class="node"><title>Node4</title>
<g id="a_node4"><a xlink:href="../../dc/d9e/classparser_1_1_command_tree_node.html#a73e4ab6ebca47d41b993f0e66ee4c8d2" target="_top" xlink:title="parser.CommandTreeNode.getName">
<polygon fill="white" stroke="black" points="198.5,-87.5 198.5,-106.5 391.5,-106.5 391.5,-87.5 198.5,-87.5"/>
<text text-anchor="middle" x="295" y="-94.5" font-family="Helvetica,sans-Serif" font-size="10.00">parser.CommandTreeNode.getName</text>
</a>
</g>
</g>
<!-- Node1&#45;&gt;Node4 -->
<g id="edge3" class="edge"><title>Node1&#45;&gt;Node4</title>
<path fill="none" stroke="midnightblue" d="M161.544,-97C170.251,-97 179.213,-97 188.173,-97"/>
<polygon fill="midnightblue" stroke="midnightblue" points="188.275,-100.5 198.275,-97 188.275,-93.5001 188.275,-100.5"/>
</g>
<!-- Node5 -->
<g id="node5" class="node"><title>Node5</title>
<g id="a_node5"><a xlink:href="../../dc/d9e/classparser_1_1_command_tree_node.html#a8bb8a112395f78809b0be06f1c3f5282" target="_top" xlink:title="parser.CommandTreeNode.getType">
<polygon fill="white" stroke="black" points="202.5,-49.5 202.5,-68.5 387.5,-68.5 387.5,-49.5 202.5,-49.5"/>
<text text-anchor="middle" x="295" y="-56.5" font-family="Helvetica,sans-Serif" font-size="10.00">parser.CommandTreeNode.getType</text>
</a>
</g>
</g>
<!-- Node1&#45;&gt;Node5 -->
<g id="edge4" class="edge"><title>Node1&#45;&gt;Node5</title>
<path fill="none" stroke="midnightblue" d="M161.544,-82.7421C184.366,-78.6515 208.935,-74.2475 230.641,-70.3568"/>
<polygon fill="midnightblue" stroke="midnightblue" points="231.495,-73.7596 240.72,-68.5501 230.26,-66.8694 231.495,-73.7596"/>
</g>
<!-- Node6 -->
<g id="node6" class="node"><title>Node6</title>
<g id="a_node6"><a xlink:href="../../dc/d9e/classparser_1_1_command_tree_node.html#a3d691b68da13689c03ebd9de665c379c" target="_top" xlink:title="parser.CommandTreeNode.set\lValue">
<polygon fill="white" stroke="black" points="213.5,-0 213.5,-30 376.5,-30 376.5,-0 213.5,-0"/>
<text text-anchor="start" x="221.5" y="-18" font-family="Helvetica,sans-Serif" font-size="10.00">parser.CommandTreeNode.set</text>
<text text-anchor="middle" x="295" y="-7" font-family="Helvetica,sans-Serif" font-size="10.00">Value</text>
</a>
</g>
</g>
<!-- Node1&#45;&gt;Node6 -->
<g id="edge5" class="edge"><title>Node1&#45;&gt;Node6</title>
<path fill="none" stroke="midnightblue" d="M108.966,-81.8048C132.046,-69.2773 166.449,-51.7227 198,-40 204.77,-37.4844 211.899,-35.1221 219.087,-32.9304"/>
<polygon fill="midnightblue" stroke="midnightblue" points="220.288,-36.2255 228.896,-30.0491 218.315,-29.5092 220.288,-36.2255"/>
</g>
</g>
</svg>
