<?xml version="1.0" encoding="UTF-8" standalone="no"?>
<!DOCTYPE svg PUBLIC "-//W3C//DTD SVG 1.1//EN"
 "http://www.w3.org/Graphics/SVG/1.1/DTD/svg11.dtd">
<!-- Generated by graphviz version 2.36.0 (20140111.2315)
 -->
<!-- Title: model.TreeInterpreter.getVariableList Pages: 1 -->
<svg width="424pt" height="136pt"
 viewBox="0.00 0.00 424.00 136.00" xmlns="http://www.w3.org/2000/svg" xmlns:xlink="http://www.w3.org/1999/xlink">
<g id="graph0" class="graph" transform="scale(1 1) rotate(0) translate(4 132)">
<title>model.TreeInterpreter.getVariableList</title>
<polygon fill="white" stroke="none" points="-4,4 -4,-132 420,-132 420,4 -4,4"/>
<!-- Node1 -->
<g id="node1" class="node"><title>Node1</title>
<polygon fill="#bfbfbf" stroke="black" points="0,-49 0,-79 138,-79 138,-49 0,-49"/>
<text text-anchor="start" x="8" y="-67" font-family="Helvetica,sans-Serif" font-size="10.00">model.TreeInterpreter.get</text>
<text text-anchor="middle" x="69" y="-56" font-family="Helvetica,sans-Serif" font-size="10.00">VariableList</text>
</g>
<!-- Node2 -->
<g id="node2" class="node"><title>Node2</title>
<g id="a_node2"><a xlink:href="../../d7/dae/classcommand_1_1control_1_1_do_times_command.html#a932eb0f99c5b2fecf8fd6939ef4b0c5b" target="_top" xlink:title="command.control.DoTimesCommand.calculate\lValue">
<polygon fill="white" stroke="black" points="174,-98 174,-128 416,-128 416,-98 174,-98"/>
<text text-anchor="start" x="182" y="-116" font-family="Helvetica,sans-Serif" font-size="10.00">command.control.DoTimesCommand.calculate</text>
<text text-anchor="middle" x="295" y="-105" font-family="Helvetica,sans-Serif" font-size="10.00">Value</text>
</a>
</g>
</g>
<!-- Node1&#45;&gt;Node2 -->
<g id="edge1" class="edge"><title>Node1&#45;&gt;Node2</title>
<path fill="none" stroke="midnightblue" d="M144.025,-81.2874C154.091,-83.5783 164.294,-85.8694 174,-88 189.07,-91.3082 205.228,-94.7477 220.65,-97.9788"/>
<polygon fill="midnightblue" stroke="midnightblue" points="144.557,-77.8187 134.029,-79.0026 142.997,-84.6428 144.557,-77.8187"/>
</g>
<!-- Node3 -->
<g id="node3" class="node"><title>Node3</title>
<g id="a_node3"><a xlink:href="../../da/db2/classcommand_1_1control_1_1_for_command.html#ad494f107c7c0e97f862dcfddc476a064" target="_top" xlink:title="command.control.ForCommand.calculate\lValue">
<polygon fill="white" stroke="black" points="187.5,-49 187.5,-79 402.5,-79 402.5,-49 187.5,-49"/>
<text text-anchor="start" x="195.5" y="-67" font-family="Helvetica,sans-Serif" font-size="10.00">command.control.ForCommand.calculate</text>
<text text-anchor="middle" x="295" y="-56" font-family="Helvetica,sans-Serif" font-size="10.00">Value</text>
</a>
</g>
</g>
<!-- Node1&#45;&gt;Node3 -->
<g id="edge2" class="edge"><title>Node1&#45;&gt;Node3</title>
<path fill="none" stroke="midnightblue" d="M148.141,-64C160.825,-64 174.148,-64 187.372,-64"/>
<polygon fill="midnightblue" stroke="midnightblue" points="148.12,-60.5001 138.12,-64 148.12,-67.5001 148.12,-60.5001"/>
</g>
<!-- Node4 -->
<g id="node4" class="node"><title>Node4</title>
<g id="a_node4"><a xlink:href="../../d5/d8e/classcommand_1_1control_1_1_make_variable_command.html#a66a07be7372673b0b2617368e39a5570" target="_top" xlink:title="command.control.MakeVariable\lCommand.MakeVariableCommand">
<polygon fill="white" stroke="black" points="203,-0 203,-30 387,-30 387,-0 203,-0"/>
<text text-anchor="start" x="211" y="-18" font-family="Helvetica,sans-Serif" font-size="10.00">command.control.MakeVariable</text>
<text text-anchor="middle" x="295" y="-7" font-family="Helvetica,sans-Serif" font-size="10.00">Command.MakeVariableCommand</text>
</a>
</g>
</g>
<!-- Node1&#45;&gt;Node4 -->
<g id="edge3" class="edge"><title>Node1&#45;&gt;Node4</title>
<path fill="none" stroke="midnightblue" d="M144.025,-46.7126C154.091,-44.4217 164.294,-42.1306 174,-40 189.07,-36.6918 205.228,-33.2523 220.65,-30.0212"/>
<polygon fill="midnightblue" stroke="midnightblue" points="142.997,-43.3572 134.029,-48.9974 144.557,-50.1813 142.997,-43.3572"/>
</g>
</g>
</svg>
