<?xml version="1.0" encoding="UTF-8" standalone="no"?>
<!DOCTYPE svg PUBLIC "-//W3C//DTD SVG 1.1//EN"
 "http://www.w3.org/Graphics/SVG/1.1/DTD/svg11.dtd">
<!-- Generated by graphviz version 2.36.0 (20140111.2315)
 -->
<!-- Title: model.TreeInterpreter.update Pages: 1 -->
<svg width="3188pt" height="466pt"
 viewBox="0.00 0.00 3188.00 466.00" xmlns="http://www.w3.org/2000/svg" xmlns:xlink="http://www.w3.org/1999/xlink">
<g id="graph0" class="graph" transform="scale(1 1) rotate(0) translate(4 462)">
<title>model.TreeInterpreter.update</title>
<polygon fill="white" stroke="none" points="-4,4 -4,-462 3184,-462 3184,4 -4,4"/>
<!-- Node1 -->
<g id="node1" class="node"><title>Node1</title>
<polygon fill="#bfbfbf" stroke="black" points="0,-237.5 0,-256.5 156,-256.5 156,-237.5 0,-237.5"/>
<text text-anchor="middle" x="78" y="-244.5" font-family="Helvetica,sans-Serif" font-size="10.00">model.TreeInterpreter.update</text>
</g>
<!-- Node2 -->
<g id="node2" class="node"><title>Node2</title>
<g id="a_node2"><a xlink:href="../../d9/d88/classmodel_1_1_tree_interpreter.html#a501df6b8cfe1a8175a9da0ed96d30d6f" target="_top" xlink:title="model.TreeInterpreter.interpretTree">
<polygon fill="white" stroke="black" points="192.5,-237.5 192.5,-256.5 375.5,-256.5 375.5,-237.5 192.5,-237.5"/>
<text text-anchor="middle" x="284" y="-244.5" font-family="Helvetica,sans-Serif" font-size="10.00">model.TreeInterpreter.interpretTree</text>
</a>
</g>
</g>
<!-- Node1&#45;&gt;Node2 -->
<g id="edge1" class="edge"><title>Node1&#45;&gt;Node2</title>
<path fill="none" stroke="midnightblue" d="M166.217,-247C174.886,-247 183.7,-247 192.402,-247"/>
<polygon fill="midnightblue" stroke="midnightblue" points="166.124,-243.5 156.124,-247 166.124,-250.5 166.124,-243.5"/>
</g>
<!-- Node3 -->
<g id="node3" class="node"><title>Node3</title>
<g id="a_node3"><a xlink:href="../../d5/d1a/classcommand_1_1control_1_1_ask_with_command.html#a2a79128bce4d0ce305a2fe690675a70e" target="_top" xlink:title="command.control.AskWithCommand.calculate\lValue">
<polygon fill="white" stroke="black" points="414,-428 414,-458 652,-458 652,-428 414,-428"/>
<text text-anchor="start" x="422" y="-446" font-family="Helvetica,sans-Serif" font-size="10.00">command.control.AskWithCommand.calculate</text>
<text text-anchor="middle" x="533" y="-435" font-family="Helvetica,sans-Serif" font-size="10.00">Value</text>
</a>
</g>
</g>
<!-- Node2&#45;&gt;Node3 -->
<g id="edge2" class="edge"><title>Node2&#45;&gt;Node3</title>
<path fill="none" stroke="midnightblue" d="M293.375,-266.014C310.238,-301.928 351.877,-379.574 412,-418 418.097,-421.896 424.69,-425.199 431.542,-427.996"/>
<polygon fill="midnightblue" stroke="midnightblue" points="296.449,-264.319 289.111,-256.677 290.081,-267.227 296.449,-264.319"/>
</g>
<!-- Node4 -->
<g id="node4" class="node"><title>Node4</title>
<g id="a_node4"><a xlink:href="../../d1/d18/classcommand_1_1control_1_1_execute_user_command.html#a1ce1cab877c9c9199aee9f8e687f74fb" target="_top" xlink:title="command.control.ExecuteUser\lCommand.calculateValue">
<polygon fill="white" stroke="black" points="450.5,-379 450.5,-409 615.5,-409 615.5,-379 450.5,-379"/>
<text text-anchor="start" x="458.5" y="-397" font-family="Helvetica,sans-Serif" font-size="10.00">command.control.ExecuteUser</text>
<text text-anchor="middle" x="533" y="-386" font-family="Helvetica,sans-Serif" font-size="10.00">Command.calculateValue</text>
</a>
</g>
</g>
<!-- Node2&#45;&gt;Node4 -->
<g id="edge3" class="edge"><title>Node2&#45;&gt;Node4</title>
<path fill="none" stroke="midnightblue" d="M298.231,-265.01C319.173,-292.116 362.679,-342.986 412,-369 423.858,-375.255 437.148,-379.945 450.446,-383.462"/>
<polygon fill="midnightblue" stroke="midnightblue" points="300.843,-262.662 292.018,-256.799 295.261,-266.885 300.843,-262.662"/>
</g>
<!-- Node5 -->
<g id="node5" class="node"><title>Node5</title>
<g id="a_node5"><a xlink:href="../../d4/dea/classcommand_1_1control_1_1_ask_command.html#a0e92735076727a8f4ef8affeb592e8b4" target="_top" xlink:title="command.control.AskCommand.calculate\lValue">
<polygon fill="white" stroke="black" points="424,-330 424,-360 642,-360 642,-330 424,-330"/>
<text text-anchor="start" x="432" y="-348" font-family="Helvetica,sans-Serif" font-size="10.00">command.control.AskCommand.calculate</text>
<text text-anchor="middle" x="533" y="-337" font-family="Helvetica,sans-Serif" font-size="10.00">Value</text>
</a>
</g>
</g>
<!-- Node2&#45;&gt;Node5 -->
<g id="edge4" class="edge"><title>Node2&#45;&gt;Node5</title>
<path fill="none" stroke="midnightblue" d="M306.898,-262.48C331.394,-279.089 372.797,-305.085 412,-320 422.044,-323.821 432.796,-327.108 443.584,-329.922"/>
<polygon fill="midnightblue" stroke="midnightblue" points="308.599,-259.402 298.377,-256.616 304.631,-265.169 308.599,-259.402"/>
</g>
<!-- Node6 -->
<g id="node6" class="node"><title>Node6</title>
<g id="a_node6"><a xlink:href="../../d1/d0f/classcommand_1_1control_1_1_repeat_command.html#af9c3a3854b4eaabafc7c09bdbe83de0e" target="_top" xlink:title="command.control.RepeatCommand.calculate\lValue">
<polygon fill="white" stroke="black" points="416.5,-281 416.5,-311 649.5,-311 649.5,-281 416.5,-281"/>
<text text-anchor="start" x="424.5" y="-299" font-family="Helvetica,sans-Serif" font-size="10.00">command.control.RepeatCommand.calculate</text>
<text text-anchor="middle" x="533" y="-288" font-family="Helvetica,sans-Serif" font-size="10.00">Value</text>
</a>
</g>
</g>
<!-- Node2&#45;&gt;Node6 -->
<g id="edge5" class="edge"><title>Node2&#45;&gt;Node6</title>
<path fill="none" stroke="midnightblue" d="M343.07,-258.52C376.788,-265.209 419.654,-273.713 456.028,-280.929"/>
<polygon fill="midnightblue" stroke="midnightblue" points="343.407,-255.019 332.917,-256.506 342.045,-261.885 343.407,-255.019"/>
</g>
<!-- Node7 -->
<g id="node7" class="node"><title>Node7</title>
<g id="a_node7"><a xlink:href="../../d6/d3b/classcommand_1_1control_1_1_if_command.html#acf428d2a9882866a2f00fbbee727f4f1" target="_top" xlink:title="command.control.IfCommand.calculate\lValue">
<polygon fill="white" stroke="black" points="430,-232 430,-262 636,-262 636,-232 430,-232"/>
<text text-anchor="start" x="438" y="-250" font-family="Helvetica,sans-Serif" font-size="10.00">command.control.IfCommand.calculate</text>
<text text-anchor="middle" x="533" y="-239" font-family="Helvetica,sans-Serif" font-size="10.00">Value</text>
</a>
</g>
</g>
<!-- Node2&#45;&gt;Node7 -->
<g id="edge6" class="edge"><title>Node2&#45;&gt;Node7</title>
<path fill="none" stroke="midnightblue" d="M385.576,-247C400.144,-247 415.152,-247 429.753,-247"/>
<polygon fill="midnightblue" stroke="midnightblue" points="385.571,-243.5 375.571,-247 385.571,-250.5 385.571,-243.5"/>
</g>
<!-- Node8 -->
<g id="node8" class="node"><title>Node8</title>
<g id="a_node8"><a xlink:href="../../d7/dae/classcommand_1_1control_1_1_do_times_command.html#a932eb0f99c5b2fecf8fd6939ef4b0c5b" target="_top" xlink:title="command.control.DoTimesCommand.calculate\lValue">
<polygon fill="white" stroke="black" points="412,-183 412,-213 654,-213 654,-183 412,-183"/>
<text text-anchor="start" x="420" y="-201" font-family="Helvetica,sans-Serif" font-size="10.00">command.control.DoTimesCommand.calculate</text>
<text text-anchor="middle" x="533" y="-190" font-family="Helvetica,sans-Serif" font-size="10.00">Value</text>
</a>
</g>
</g>
<!-- Node2&#45;&gt;Node8 -->
<g id="edge7" class="edge"><title>Node2&#45;&gt;Node8</title>
<path fill="none" stroke="midnightblue" d="M343.07,-235.48C376.788,-228.791 419.654,-220.287 456.028,-213.071"/>
<polygon fill="midnightblue" stroke="midnightblue" points="342.045,-232.115 332.917,-237.494 343.407,-238.981 342.045,-232.115"/>
</g>
<!-- Node9 -->
<g id="node9" class="node"><title>Node9</title>
<g id="a_node9"><a xlink:href="../../da/db2/classcommand_1_1control_1_1_for_command.html#ad494f107c7c0e97f862dcfddc476a064" target="_top" xlink:title="command.control.ForCommand.calculate\lValue">
<polygon fill="white" stroke="black" points="425.5,-134 425.5,-164 640.5,-164 640.5,-134 425.5,-134"/>
<text text-anchor="start" x="433.5" y="-152" font-family="Helvetica,sans-Serif" font-size="10.00">command.control.ForCommand.calculate</text>
<text text-anchor="middle" x="533" y="-141" font-family="Helvetica,sans-Serif" font-size="10.00">Value</text>
</a>
</g>
</g>
<!-- Node2&#45;&gt;Node9 -->
<g id="edge8" class="edge"><title>Node2&#45;&gt;Node9</title>
<path fill="none" stroke="midnightblue" d="M306.898,-231.52C331.394,-214.911 372.797,-188.915 412,-174 422.044,-170.179 432.796,-166.892 443.584,-164.078"/>
<polygon fill="midnightblue" stroke="midnightblue" points="304.631,-228.831 298.377,-237.384 308.599,-234.598 304.631,-228.831"/>
</g>
<!-- Node10 -->
<g id="node10" class="node"><title>Node10</title>
<g id="a_node10"><a xlink:href="../../d3/dcf/classcommand_1_1control_1_1_if_else_command.html#ac1a2c320a23705da633419c13a18ff91" target="_top" xlink:title="command.control.IfElseCommand.calculate\lValue">
<polygon fill="white" stroke="black" points="420.5,-85 420.5,-115 645.5,-115 645.5,-85 420.5,-85"/>
<text text-anchor="start" x="428.5" y="-103" font-family="Helvetica,sans-Serif" font-size="10.00">command.control.IfElseCommand.calculate</text>
<text text-anchor="middle" x="533" y="-92" font-family="Helvetica,sans-Serif" font-size="10.00">Value</text>
</a>
</g>
</g>
<!-- Node2&#45;&gt;Node10 -->
<g id="edge9" class="edge"><title>Node2&#45;&gt;Node10</title>
<path fill="none" stroke="midnightblue" d="M298.231,-228.99C319.173,-201.884 362.679,-151.014 412,-125 419.341,-121.128 427.23,-117.856 435.33,-115.09"/>
<polygon fill="midnightblue" stroke="midnightblue" points="295.261,-227.115 292.018,-237.201 300.843,-231.338 295.261,-227.115"/>
</g>
<!-- Node11 -->
<g id="node11" class="node"><title>Node11</title>
<g id="a_node11"><a xlink:href="../../d9/df7/classcontroller_1_1_controller.html#a3d81fb1a57114f96fb6c319f4c5df370" target="_top" xlink:title="controller.Controller.parse\lCommand">
<polygon fill="white" stroke="black" points="463,-36 463,-66 603,-66 603,-36 463,-36"/>
<text text-anchor="start" x="471" y="-54" font-family="Helvetica,sans-Serif" font-size="10.00">controller.Controller.parse</text>
<text text-anchor="middle" x="533" y="-43" font-family="Helvetica,sans-Serif" font-size="10.00">Command</text>
</a>
</g>
</g>
<!-- Node2&#45;&gt;Node11 -->
<g id="edge10" class="edge"><title>Node2&#45;&gt;Node11</title>
<path fill="none" stroke="midnightblue" d="M293.375,-227.986C310.238,-192.072 351.877,-114.426 412,-76 427.152,-66.3161 445.375,-60.3012 462.992,-56.5884"/>
<polygon fill="midnightblue" stroke="midnightblue" points="290.081,-226.773 289.111,-237.323 296.449,-229.681 290.081,-226.773"/>
</g>
<!-- Node12 -->
<g id="node12" class="node"><title>Node12</title>
<g id="a_node12"><a xlink:href="../../d5/d06/classui_1_1_scene_updater.html#ab77a04f8b0038429b09237aac18906e8" target="_top" xlink:title="ui.SceneUpdater.sendCommands">
<polygon fill="white" stroke="black" points="690,-41.5 690,-60.5 868,-60.5 868,-41.5 690,-41.5"/>
<text text-anchor="middle" x="779" y="-48.5" font-family="Helvetica,sans-Serif" font-size="10.00">ui.SceneUpdater.sendCommands</text>
</a>
</g>
</g>
<!-- Node11&#45;&gt;Node12 -->
<g id="edge11" class="edge"><title>Node11&#45;&gt;Node12</title>
<path fill="none" stroke="midnightblue" d="M613.545,-51C637.924,-51 664.888,-51 689.808,-51"/>
<polygon fill="midnightblue" stroke="midnightblue" points="613.268,-47.5001 603.268,-51 613.268,-54.5001 613.268,-47.5001"/>
</g>
<!-- Node13 -->
<g id="node13" class="node"><title>Node13</title>
<g id="a_node13"><a xlink:href="../../dc/d3b/classui_1_1_g_u_i.html#ad8f08a79a20a498bcaafdc7e2e2ce0a9" target="_top" xlink:title="ui.GUI.parseCommand">
<polygon fill="white" stroke="black" points="904.5,-41.5 904.5,-60.5 1029.5,-60.5 1029.5,-41.5 904.5,-41.5"/>
<text text-anchor="middle" x="967" y="-48.5" font-family="Helvetica,sans-Serif" font-size="10.00">ui.GUI.parseCommand</text>
</a>
</g>
</g>
<!-- Node12&#45;&gt;Node13 -->
<g id="edge12" class="edge"><title>Node12&#45;&gt;Node13</title>
<path fill="none" stroke="midnightblue" d="M878.196,-51C887.132,-51 896.003,-51 904.479,-51"/>
<polygon fill="midnightblue" stroke="midnightblue" points="878.098,-47.5001 868.098,-51 878.098,-54.5001 878.098,-47.5001"/>
</g>
<!-- Node14 -->
<g id="node14" class="node"><title>Node14</title>
<g id="a_node14"><a xlink:href="../../d8/d3c/classui_1_1elements_1_1_i_o_element.html#a139a046f0c771f86696f2eee04047c64" target="_top" xlink:title="ui.elements.IOElement.init">
<polygon fill="white" stroke="black" points="1082.5,-60.5 1082.5,-79.5 1225.5,-79.5 1225.5,-60.5 1082.5,-60.5"/>
<text text-anchor="middle" x="1154" y="-67.5" font-family="Helvetica,sans-Serif" font-size="10.00">ui.elements.IOElement.init</text>
</a>
</g>
</g>
<!-- Node13&#45;&gt;Node14 -->
<g id="edge13" class="edge"><title>Node13&#45;&gt;Node14</title>
<path fill="none" stroke="midnightblue" d="M1039.68,-58.3614C1053.7,-59.8019 1068.4,-61.3116 1082.39,-62.7485"/>
<polygon fill="midnightblue" stroke="midnightblue" points="1039.91,-54.8668 1029.6,-57.3267 1039.19,-61.8302 1039.91,-54.8668"/>
</g>
<!-- Node16 -->
<g id="node16" class="node"><title>Node16</title>
<g id="a_node16"><a xlink:href="../../dc/d3b/classui_1_1_g_u_i.html#ab8ec2a37b3d5bd9e8c2abbb3642fb965" target="_top" xlink:title="ui.GUI.setupKeyboardCommands">
<polygon fill="white" stroke="black" points="1066.5,-22.5 1066.5,-41.5 1241.5,-41.5 1241.5,-22.5 1066.5,-22.5"/>
<text text-anchor="middle" x="1154" y="-29.5" font-family="Helvetica,sans-Serif" font-size="10.00">ui.GUI.setupKeyboardCommands</text>
</a>
</g>
</g>
<!-- Node13&#45;&gt;Node16 -->
<g id="edge15" class="edge"><title>Node13&#45;&gt;Node16</title>
<path fill="none" stroke="midnightblue" d="M1039.69,-43.6368C1048.41,-42.7417 1057.39,-41.8199 1066.29,-40.9054"/>
<polygon fill="midnightblue" stroke="midnightblue" points="1039.19,-40.1698 1029.6,-44.6733 1039.91,-47.1332 1039.19,-40.1698"/>
</g>
<!-- Node15 -->
<g id="node15" class="node"><title>Node15</title>
<g id="a_node15"><a xlink:href="../../d8/d3c/classui_1_1elements_1_1_i_o_element.html#a556e1a3ad292fe3ab731065eef59b187" target="_top" xlink:title="ui.elements.IOElement.IOElement">
<polygon fill="white" stroke="black" points="1278,-60.5 1278,-79.5 1456,-79.5 1456,-60.5 1278,-60.5"/>
<text text-anchor="middle" x="1367" y="-67.5" font-family="Helvetica,sans-Serif" font-size="10.00">ui.elements.IOElement.IOElement</text>
</a>
</g>
</g>
<!-- Node14&#45;&gt;Node15 -->
<g id="edge14" class="edge"><title>Node14&#45;&gt;Node15</title>
<path fill="none" stroke="midnightblue" d="M1235.92,-70C1249.65,-70 1263.97,-70 1277.88,-70"/>
<polygon fill="midnightblue" stroke="midnightblue" points="1235.55,-66.5001 1225.55,-70 1235.55,-73.5001 1235.55,-66.5001"/>
</g>
<!-- Node17 -->
<g id="node17" class="node"><title>Node17</title>
<g id="a_node17"><a xlink:href="../../dc/d3b/classui_1_1_g_u_i.html#a765d554102f38969231261686f2f8e27" target="_top" xlink:title="ui.GUI.initialize">
<polygon fill="white" stroke="black" points="1324,-22.5 1324,-41.5 1410,-41.5 1410,-22.5 1324,-22.5"/>
<text text-anchor="middle" x="1367" y="-29.5" font-family="Helvetica,sans-Serif" font-size="10.00">ui.GUI.initialize</text>
</a>
</g>
</g>
<!-- Node16&#45;&gt;Node17 -->
<g id="edge16" class="edge"><title>Node16&#45;&gt;Node17</title>
<path fill="none" stroke="midnightblue" d="M1251.75,-32C1277.02,-32 1302.96,-32 1323.72,-32"/>
<polygon fill="midnightblue" stroke="midnightblue" points="1251.74,-28.5001 1241.74,-32 1251.74,-35.5001 1251.74,-28.5001"/>
</g>
<!-- Node18 -->
<g id="node18" class="node"><title>Node18</title>
<g id="a_node18"><a xlink:href="../../d5/d06/classui_1_1_scene_updater.html#aeef5dd7a8ec2ad6179e33fdd71ea90d6" target="_top" xlink:title="ui.SceneUpdater.initGUI">
<polygon fill="white" stroke="black" points="1492.5,-22.5 1492.5,-41.5 1623.5,-41.5 1623.5,-22.5 1492.5,-22.5"/>
<text text-anchor="middle" x="1558" y="-29.5" font-family="Helvetica,sans-Serif" font-size="10.00">ui.SceneUpdater.initGUI</text>
</a>
</g>
</g>
<!-- Node17&#45;&gt;Node18 -->
<g id="edge17" class="edge"><title>Node17&#45;&gt;Node18</title>
<path fill="none" stroke="midnightblue" d="M1420.67,-32C1442.92,-32 1469.05,-32 1492.45,-32"/>
<polygon fill="midnightblue" stroke="midnightblue" points="1420.42,-28.5001 1410.42,-32 1420.42,-35.5001 1420.42,-28.5001"/>
</g>
<!-- Node19 -->
<g id="node19" class="node"><title>Node19</title>
<g id="a_node19"><a xlink:href="../../d9/df7/classcontroller_1_1_controller.html#a57e42ba83ee2145e6262cd72eac59570" target="_top" xlink:title="controller.Controller.init">
<polygon fill="white" stroke="black" points="1660.5,-22.5 1660.5,-41.5 1787.5,-41.5 1787.5,-22.5 1660.5,-22.5"/>
<text text-anchor="middle" x="1724" y="-29.5" font-family="Helvetica,sans-Serif" font-size="10.00">controller.Controller.init</text>
</a>
</g>
</g>
<!-- Node18&#45;&gt;Node19 -->
<g id="edge18" class="edge"><title>Node18&#45;&gt;Node19</title>
<path fill="none" stroke="midnightblue" d="M1634.04,-32C1642.81,-32 1651.68,-32 1660.26,-32"/>
<polygon fill="midnightblue" stroke="midnightblue" points="1633.82,-28.5001 1623.82,-32 1633.82,-35.5001 1633.82,-28.5001"/>
</g>
<!-- Node20 -->
<g id="node20" class="node"><title>Node20</title>
<g id="a_node20"><a xlink:href="../../dd/df2/classmain_1_1_workspace_manager.html#abc818b59211f6e14940b86a42bb868d0" target="_top" xlink:title="main.WorkspaceManager.create\lWorkspace">
<polygon fill="white" stroke="black" points="1824,-17 1824,-47 1994,-47 1994,-17 1824,-17"/>
<text text-anchor="start" x="1832" y="-35" font-family="Helvetica,sans-Serif" font-size="10.00">main.WorkspaceManager.create</text>
<text text-anchor="middle" x="1909" y="-24" font-family="Helvetica,sans-Serif" font-size="10.00">Workspace</text>
</a>
</g>
</g>
<!-- Node19&#45;&gt;Node20 -->
<g id="edge19" class="edge"><title>Node19&#45;&gt;Node20</title>
<path fill="none" stroke="midnightblue" d="M1797.92,-32C1806.39,-32 1815.08,-32 1823.69,-32"/>
<polygon fill="midnightblue" stroke="midnightblue" points="1797.72,-28.5001 1787.72,-32 1797.72,-35.5001 1797.72,-28.5001"/>
</g>
<!-- Node21 -->
<g id="node21" class="node"><title>Node21</title>
<g id="a_node21"><a xlink:href="../../d9/df7/classcontroller_1_1_controller.html#a3a9d672bb57047df70945ad1a9582c9a" target="_top" xlink:title="controller.Controller.create\lNewWorkspace">
<polygon fill="white" stroke="black" points="2030.5,-39 2030.5,-69 2173.5,-69 2173.5,-39 2030.5,-39"/>
<text text-anchor="start" x="2038.5" y="-57" font-family="Helvetica,sans-Serif" font-size="10.00">controller.Controller.create</text>
<text text-anchor="middle" x="2102" y="-46" font-family="Helvetica,sans-Serif" font-size="10.00">NewWorkspace</text>
</a>
</g>
</g>
<!-- Node20&#45;&gt;Node21 -->
<g id="edge20" class="edge"><title>Node20&#45;&gt;Node21</title>
<path fill="none" stroke="midnightblue" d="M2004.03,-42.8303C2012.88,-43.8503 2021.75,-44.8721 2030.34,-45.8608"/>
<polygon fill="midnightblue" stroke="midnightblue" points="2004.39,-39.3489 1994.05,-41.6815 2003.59,-46.3029 2004.39,-39.3489"/>
</g>
<!-- Node27 -->
<g id="node27" class="node"><title>Node27</title>
<g id="a_node27"><a xlink:href="../../d1/d0b/classmain_1_1_main.html#a9f1e5657b2f6f9bdd69a3b6412ceda74" target="_top" xlink:title="main.Main.start">
<polygon fill="white" stroke="black" points="2056,-0.5 2056,-19.5 2148,-19.5 2148,-0.5 2056,-0.5"/>
<text text-anchor="middle" x="2102" y="-7.5" font-family="Helvetica,sans-Serif" font-size="10.00">main.Main.start</text>
</a>
</g>
</g>
<!-- Node20&#45;&gt;Node27 -->
<g id="edge26" class="edge"><title>Node20&#45;&gt;Node27</title>
<path fill="none" stroke="midnightblue" d="M2004.09,-21.1629C2022.19,-19.0779 2040.36,-16.9851 2055.99,-15.1843"/>
<polygon fill="midnightblue" stroke="midnightblue" points="2003.59,-17.6971 1994.05,-22.3185 2004.39,-24.6511 2003.59,-17.6971"/>
</g>
<!-- Node22 -->
<g id="node22" class="node"><title>Node22</title>
<g id="a_node22"><a xlink:href="../../d5/d06/classui_1_1_scene_updater.html#a2858ad8edb0c0f59a21e2ae015f2fa1e" target="_top" xlink:title="ui.SceneUpdater.createNew\lWorkspace">
<polygon fill="white" stroke="black" points="2210,-39 2210,-69 2360,-69 2360,-39 2210,-39"/>
<text text-anchor="start" x="2218" y="-57" font-family="Helvetica,sans-Serif" font-size="10.00">ui.SceneUpdater.createNew</text>
<text text-anchor="middle" x="2285" y="-46" font-family="Helvetica,sans-Serif" font-size="10.00">Workspace</text>
</a>
</g>
</g>
<!-- Node21&#45;&gt;Node22 -->
<g id="edge21" class="edge"><title>Node21&#45;&gt;Node22</title>
<path fill="none" stroke="midnightblue" d="M2183.8,-54C2192.43,-54 2201.17,-54 2209.71,-54"/>
<polygon fill="midnightblue" stroke="midnightblue" points="2183.76,-50.5001 2173.76,-54 2183.76,-57.5001 2183.76,-50.5001"/>
</g>
<!-- Node23 -->
<g id="node23" class="node"><title>Node23</title>
<g id="a_node23"><a xlink:href="../../dc/d3b/classui_1_1_g_u_i.html#a2edc294ba07311e6c4b85c9fe749d1bf" target="_top" xlink:title="ui.GUI.createNewWorkspace">
<polygon fill="white" stroke="black" points="2396,-44.5 2396,-63.5 2546,-63.5 2546,-44.5 2396,-44.5"/>
<text text-anchor="middle" x="2471" y="-51.5" font-family="Helvetica,sans-Serif" font-size="10.00">ui.GUI.createNewWorkspace</text>
</a>
</g>
</g>
<!-- Node22&#45;&gt;Node23 -->
<g id="edge22" class="edge"><title>Node22&#45;&gt;Node23</title>
<path fill="none" stroke="midnightblue" d="M2370.07,-54C2378.65,-54 2387.34,-54 2395.81,-54"/>
<polygon fill="midnightblue" stroke="midnightblue" points="2370.04,-50.5001 2360.04,-54 2370.04,-57.5001 2370.04,-50.5001"/>
</g>
<!-- Node24 -->
<g id="node24" class="node"><title>Node24</title>
<g id="a_node24"><a xlink:href="../../d0/de6/classui_1_1elements_1_1_menu_bar_element.html#a98c13995a31d997aa10f2950583da6cc" target="_top" xlink:title="ui.elements.MenuBarElement.make\lMenuBar">
<polygon fill="white" stroke="black" points="2582,-39 2582,-69 2770,-69 2770,-39 2582,-39"/>
<text text-anchor="start" x="2590" y="-57" font-family="Helvetica,sans-Serif" font-size="10.00">ui.elements.MenuBarElement.make</text>
<text text-anchor="middle" x="2676" y="-46" font-family="Helvetica,sans-Serif" font-size="10.00">MenuBar</text>
</a>
</g>
</g>
<!-- Node23&#45;&gt;Node24 -->
<g id="edge23" class="edge"><title>Node23&#45;&gt;Node24</title>
<path fill="none" stroke="midnightblue" d="M2556.28,-54C2564.66,-54 2573.21,-54 2581.68,-54"/>
<polygon fill="midnightblue" stroke="midnightblue" points="2556.15,-50.5001 2546.15,-54 2556.15,-57.5001 2556.15,-50.5001"/>
</g>
<!-- Node25 -->
<g id="node25" class="node"><title>Node25</title>
<g id="a_node25"><a xlink:href="../../d0/de6/classui_1_1elements_1_1_menu_bar_element.html#a7bdb58f78cf8b61ba28498c5c86ab682" target="_top" xlink:title="ui.elements.MenuBarElement.init">
<polygon fill="white" stroke="black" points="2806,-44.5 2806,-63.5 2982,-63.5 2982,-44.5 2806,-44.5"/>
<text text-anchor="middle" x="2894" y="-51.5" font-family="Helvetica,sans-Serif" font-size="10.00">ui.elements.MenuBarElement.init</text>
</a>
</g>
</g>
<!-- Node24&#45;&gt;Node25 -->
<g id="edge24" class="edge"><title>Node24&#45;&gt;Node25</title>
<path fill="none" stroke="midnightblue" d="M2780.23,-54C2788.83,-54 2797.48,-54 2805.94,-54"/>
<polygon fill="midnightblue" stroke="midnightblue" points="2780.17,-50.5001 2770.17,-54 2780.17,-57.5001 2780.17,-50.5001"/>
</g>
<!-- Node26 -->
<g id="node26" class="node"><title>Node26</title>
<g id="a_node26"><a xlink:href="../../d0/de6/classui_1_1elements_1_1_menu_bar_element.html#ab4a4e6841c924a9d9c70b8073b56dffc" target="_top" xlink:title="ui.elements.MenuBarElement.\lMenuBarElement">
<polygon fill="white" stroke="black" points="3018.5,-39 3018.5,-69 3179.5,-69 3179.5,-39 3018.5,-39"/>
<text text-anchor="start" x="3026.5" y="-57" font-family="Helvetica,sans-Serif" font-size="10.00">ui.elements.MenuBarElement.</text>
<text text-anchor="middle" x="3099" y="-46" font-family="Helvetica,sans-Serif" font-size="10.00">MenuBarElement</text>
</a>
</g>
</g>
<!-- Node25&#45;&gt;Node26 -->
<g id="edge25" class="edge"><title>Node25&#45;&gt;Node26</title>
<path fill="none" stroke="midnightblue" d="M2992.47,-54C3001.19,-54 3009.95,-54 3018.5,-54"/>
<polygon fill="midnightblue" stroke="midnightblue" points="2992.27,-50.5001 2982.27,-54 2992.27,-57.5001 2992.27,-50.5001"/>
</g>
</g>
</svg>
