<?xml version="1.0" encoding="UTF-8" standalone="no"?>
<!DOCTYPE svg PUBLIC "-//W3C//DTD SVG 1.1//EN"
 "http://www.w3.org/Graphics/SVG/1.1/DTD/svg11.dtd">
<!-- Generated by graphviz version 2.36.0 (20140111.2315)
 -->
<!-- Title: model.TreeInterpreter.update Pages: 1 -->
<svg width="592pt" height="253pt"
 viewBox="0.00 0.00 592.00 253.00" xmlns="http://www.w3.org/2000/svg" xmlns:xlink="http://www.w3.org/1999/xlink">
<g id="graph0" class="graph" transform="scale(1 1) rotate(0) translate(4 249)">
<title>model.TreeInterpreter.update</title>
<polygon fill="white" stroke="none" points="-4,4 -4,-249 588,-249 588,4 -4,4"/>
<!-- Node1 -->
<g id="node1" class="node"><title>Node1</title>
<polygon fill="#bfbfbf" stroke="black" points="0,-88.5 0,-107.5 156,-107.5 156,-88.5 0,-88.5"/>
<text text-anchor="middle" x="78" y="-95.5" font-family="Helvetica,sans-Serif" font-size="10.00">model.TreeInterpreter.update</text>
</g>
<!-- Node2 -->
<g id="node2" class="node"><title>Node2</title>
<g id="a_node2"><a xlink:href="../../d9/d88/classmodel_1_1_tree_interpreter.html#af4d24e7867eb3a4a53f79f4a9288f9fd" target="_top" xlink:title="model.TreeInterpreter.execute\lCommand">
<polygon fill="white" stroke="black" points="192.5,-127 192.5,-157 353.5,-157 353.5,-127 192.5,-127"/>
<text text-anchor="start" x="200.5" y="-145" font-family="Helvetica,sans-Serif" font-size="10.00">model.TreeInterpreter.execute</text>
<text text-anchor="middle" x="273" y="-134" font-family="Helvetica,sans-Serif" font-size="10.00">Command</text>
</a>
</g>
</g>
<!-- Node1&#45;&gt;Node2 -->
<g id="edge1" class="edge"><title>Node1&#45;&gt;Node2</title>
<path fill="none" stroke="midnightblue" d="M120.878,-107.547C142.802,-112.545 170.334,-118.822 195.871,-124.644"/>
<polygon fill="midnightblue" stroke="midnightblue" points="195.39,-128.124 205.918,-126.935 196.946,-121.299 195.39,-128.124"/>
</g>
<!-- Node5 -->
<g id="node5" class="node"><title>Node5</title>
<g id="a_node5"><a xlink:href="../../dc/d9e/classparser_1_1_command_tree_node.html#a73e4ab6ebca47d41b993f0e66ee4c8d2" target="_top" xlink:title="parser.CommandTreeNode.getName">
<polygon fill="white" stroke="black" points="390.5,-225.5 390.5,-244.5 583.5,-244.5 583.5,-225.5 390.5,-225.5"/>
<text text-anchor="middle" x="487" y="-232.5" font-family="Helvetica,sans-Serif" font-size="10.00">parser.CommandTreeNode.getName</text>
</a>
</g>
</g>
<!-- Node1&#45;&gt;Node5 -->
<g id="edge9" class="edge"><title>Node1&#45;&gt;Node5</title>
<path fill="none" stroke="midnightblue" d="M91.8799,-107.528C112.175,-122.119 153.281,-149.986 192,-166 262.447,-195.135 347.715,-213.434 408.242,-223.806"/>
<polygon fill="midnightblue" stroke="midnightblue" points="407.671,-227.26 418.113,-225.466 408.832,-220.356 407.671,-227.26"/>
</g>
<!-- Node6 -->
<g id="node6" class="node"><title>Node6</title>
<g id="a_node6"><a xlink:href="../../dc/d9e/classparser_1_1_command_tree_node.html#a8bb8a112395f78809b0be06f1c3f5282" target="_top" xlink:title="parser.CommandTreeNode.getType">
<polygon fill="white" stroke="black" points="394.5,-88.5 394.5,-107.5 579.5,-107.5 579.5,-88.5 394.5,-88.5"/>
<text text-anchor="middle" x="487" y="-95.5" font-family="Helvetica,sans-Serif" font-size="10.00">parser.CommandTreeNode.getType</text>
</a>
</g>
</g>
<!-- Node1&#45;&gt;Node6 -->
<g id="edge10" class="edge"><title>Node1&#45;&gt;Node6</title>
<path fill="none" stroke="midnightblue" d="M156.032,-98C220.61,-98 313.339,-98 384.062,-98"/>
<polygon fill="midnightblue" stroke="midnightblue" points="384.33,-101.5 394.33,-98 384.33,-94.5001 384.33,-101.5"/>
</g>
<!-- Node7 -->
<g id="node7" class="node"><title>Node7</title>
<g id="a_node7"><a xlink:href="../../dc/d9e/classparser_1_1_command_tree_node.html#a3d691b68da13689c03ebd9de665c379c" target="_top" xlink:title="parser.CommandTreeNode.set\lValue">
<polygon fill="white" stroke="black" points="405.5,-39 405.5,-69 568.5,-69 568.5,-39 405.5,-39"/>
<text text-anchor="start" x="413.5" y="-57" font-family="Helvetica,sans-Serif" font-size="10.00">parser.CommandTreeNode.set</text>
<text text-anchor="middle" x="487" y="-46" font-family="Helvetica,sans-Serif" font-size="10.00">Value</text>
</a>
</g>
</g>
<!-- Node1&#45;&gt;Node7 -->
<g id="edge11" class="edge"><title>Node1&#45;&gt;Node7</title>
<path fill="none" stroke="midnightblue" d="M156.032,-89.6722C224.154,-82.3077 323.602,-71.5566 395.498,-63.784"/>
<polygon fill="midnightblue" stroke="midnightblue" points="395.888,-67.2624 405.454,-62.7077 395.135,-60.3029 395.888,-67.2624"/>
</g>
<!-- Node8 -->
<g id="node8" class="node"><title>Node8</title>
<g id="a_node8"><a xlink:href="../../db/d55/classmodel_1_1_variable_list.html#a09697cca38c12cf837ee40e71d02f78b" target="_top" xlink:title="model.VariableList.get">
<polygon fill="white" stroke="black" points="211.5,-3.5 211.5,-22.5 334.5,-22.5 334.5,-3.5 211.5,-3.5"/>
<text text-anchor="middle" x="273" y="-10.5" font-family="Helvetica,sans-Serif" font-size="10.00">model.VariableList.get</text>
</a>
</g>
</g>
<!-- Node1&#45;&gt;Node8 -->
<g id="edge7" class="edge"><title>Node1&#45;&gt;Node8</title>
<path fill="none" stroke="midnightblue" d="M97.544,-88.3052C119.728,-76.8644 158.122,-57.5582 192,-43 205.927,-37.0149 221.484,-31.0275 235.15,-25.9934"/>
<polygon fill="midnightblue" stroke="midnightblue" points="236.517,-29.2204 244.716,-22.51 234.122,-22.6429 236.517,-29.2204"/>
</g>
<!-- Node3 -->
<g id="node3" class="node"><title>Node3</title>
<g id="a_node3"><a xlink:href="../../db/d10/classmodel_1_1_command_factory.html#a3982ff8b4387b7e50c9ec4350ee01733" target="_top" xlink:title="model.CommandFactory.create\lCommand">
<polygon fill="white" stroke="black" points="403.5,-176 403.5,-206 570.5,-206 570.5,-176 403.5,-176"/>
<text text-anchor="start" x="411.5" y="-194" font-family="Helvetica,sans-Serif" font-size="10.00">model.CommandFactory.create</text>
<text text-anchor="middle" x="487" y="-183" font-family="Helvetica,sans-Serif" font-size="10.00">Command</text>
</a>
</g>
</g>
<!-- Node2&#45;&gt;Node3 -->
<g id="edge2" class="edge"><title>Node2&#45;&gt;Node3</title>
<path fill="none" stroke="midnightblue" d="M339.048,-157.035C361.839,-162.302 387.615,-168.26 411.144,-173.698"/>
<polygon fill="midnightblue" stroke="midnightblue" points="410.544,-177.152 421.075,-175.994 412.12,-170.332 410.544,-177.152"/>
</g>
<!-- Node4 -->
<g id="node4" class="node"><title>Node4</title>
<g id="a_node4"><a xlink:href="../../d9/d88/classmodel_1_1_tree_interpreter.html#adc0cf2c5819ec7f42db4e37db51b1893" target="_top" xlink:title="model.TreeInterpreter.get\lConstructors">
<polygon fill="white" stroke="black" points="418,-127 418,-157 556,-157 556,-127 418,-127"/>
<text text-anchor="start" x="426" y="-145" font-family="Helvetica,sans-Serif" font-size="10.00">model.TreeInterpreter.get</text>
<text text-anchor="middle" x="487" y="-134" font-family="Helvetica,sans-Serif" font-size="10.00">Constructors</text>
</a>
</g>
</g>
<!-- Node2&#45;&gt;Node4 -->
<g id="edge3" class="edge"><title>Node2&#45;&gt;Node4</title>
<path fill="none" stroke="midnightblue" d="M353.544,-142C371.223,-142 389.951,-142 407.584,-142"/>
<polygon fill="midnightblue" stroke="midnightblue" points="407.823,-145.5 417.823,-142 407.823,-138.5 407.823,-145.5"/>
</g>
<!-- Node2&#45;&gt;Node5 -->
<g id="edge4" class="edge"><title>Node2&#45;&gt;Node5</title>
<path fill="none" stroke="midnightblue" d="M296.171,-157.287C324.113,-176.313 370.803,-207.253 390,-215 397.716,-218.114 405.985,-220.767 414.315,-223.023"/>
<polygon fill="midnightblue" stroke="midnightblue" points="413.539,-226.437 424.091,-225.493 415.253,-219.65 413.539,-226.437"/>
</g>
<!-- Node2&#45;&gt;Node6 -->
<g id="edge5" class="edge"><title>Node2&#45;&gt;Node6</title>
<path fill="none" stroke="midnightblue" d="M342.966,-126.936C358.431,-123.614 374.768,-120.148 390,-117 401.959,-114.528 414.77,-111.947 427.012,-109.512"/>
<polygon fill="midnightblue" stroke="midnightblue" points="428.001,-112.884 437.13,-107.507 426.641,-106.017 428.001,-112.884"/>
</g>
<!-- Node2&#45;&gt;Node7 -->
<g id="edge6" class="edge"><title>Node2&#45;&gt;Node7</title>
<path fill="none" stroke="midnightblue" d="M297.612,-126.952C320.488,-112.918 356.535,-92.2169 390,-79 396.296,-76.5134 402.922,-74.201 409.627,-72.068"/>
<polygon fill="midnightblue" stroke="midnightblue" points="410.931,-75.3299 419.48,-69.0718 408.894,-68.6327 410.931,-75.3299"/>
</g>
<!-- Node9 -->
<g id="node9" class="node"><title>Node9</title>
<g id="a_node9"><a xlink:href="../../db/d55/classmodel_1_1_variable_list.html#a0adb554303c7191db1da43ddb5fa2c45" target="_top" xlink:title="model.VariableList.add">
<polygon fill="white" stroke="black" points="424.5,-0.5 424.5,-19.5 549.5,-19.5 549.5,-0.5 424.5,-0.5"/>
<text text-anchor="middle" x="487" y="-7.5" font-family="Helvetica,sans-Serif" font-size="10.00">model.VariableList.add</text>
</a>
</g>
</g>
<!-- Node8&#45;&gt;Node9 -->
<g id="edge8" class="edge"><title>Node8&#45;&gt;Node9</title>
<path fill="none" stroke="midnightblue" d="M334.751,-12.1403C359.486,-11.7903 388.269,-11.383 414.047,-11.0182"/>
<polygon fill="midnightblue" stroke="midnightblue" points="414.187,-14.5167 424.137,-10.8754 414.088,-7.51737 414.187,-14.5167"/>
</g>
</g>
</svg>
