<?xml version="1.0" encoding="UTF-8" standalone="no"?>
<!DOCTYPE svg PUBLIC "-//W3C//DTD SVG 1.1//EN"
 "http://www.w3.org/Graphics/SVG/1.1/DTD/svg11.dtd">
<!-- Generated by graphviz version 2.36.0 (20140111.2315)
 -->
<!-- Title: model.TreeInterpreter.interpretTree Pages: 1 -->
<svg width="2996pt" height="466pt"
 viewBox="0.00 0.00 2996.00 466.00" xmlns="http://www.w3.org/2000/svg" xmlns:xlink="http://www.w3.org/1999/xlink">
<g id="graph0" class="graph" transform="scale(1 1) rotate(0) translate(4 462)">
<title>model.TreeInterpreter.interpretTree</title>
<polygon fill="white" stroke="none" points="-4,4 -4,-462 2992,-462 2992,4 -4,4"/>
<!-- Node1 -->
<g id="node1" class="node"><title>Node1</title>
<polygon fill="#bfbfbf" stroke="black" points="0.5,-237.5 0.5,-256.5 183.5,-256.5 183.5,-237.5 0.5,-237.5"/>
<text text-anchor="middle" x="92" y="-244.5" font-family="Helvetica,sans-Serif" font-size="10.00">model.TreeInterpreter.interpretTree</text>
</g>
<!-- Node2 -->
<g id="node2" class="node"><title>Node2</title>
<g id="a_node2"><a xlink:href="../../d5/d1a/classcommand_1_1control_1_1_ask_with_command.html#a2a79128bce4d0ce305a2fe690675a70e" target="_top" xlink:title="command.control.AskWithCommand.calculate\lValue">
<polygon fill="white" stroke="black" points="222,-428 222,-458 460,-458 460,-428 222,-428"/>
<text text-anchor="start" x="230" y="-446" font-family="Helvetica,sans-Serif" font-size="10.00">command.control.AskWithCommand.calculate</text>
<text text-anchor="middle" x="341" y="-435" font-family="Helvetica,sans-Serif" font-size="10.00">Value</text>
</a>
</g>
</g>
<!-- Node1&#45;&gt;Node2 -->
<g id="edge1" class="edge"><title>Node1&#45;&gt;Node2</title>
<path fill="none" stroke="midnightblue" d="M101.375,-266.014C118.238,-301.928 159.877,-379.574 220,-418 226.097,-421.896 232.69,-425.199 239.542,-427.996"/>
<polygon fill="midnightblue" stroke="midnightblue" points="104.449,-264.319 97.1113,-256.677 98.0809,-267.227 104.449,-264.319"/>
</g>
<!-- Node3 -->
<g id="node3" class="node"><title>Node3</title>
<g id="a_node3"><a xlink:href="../../d1/d18/classcommand_1_1control_1_1_execute_user_command.html#a1ce1cab877c9c9199aee9f8e687f74fb" target="_top" xlink:title="command.control.ExecuteUser\lCommand.calculateValue">
<polygon fill="white" stroke="black" points="258.5,-379 258.5,-409 423.5,-409 423.5,-379 258.5,-379"/>
<text text-anchor="start" x="266.5" y="-397" font-family="Helvetica,sans-Serif" font-size="10.00">command.control.ExecuteUser</text>
<text text-anchor="middle" x="341" y="-386" font-family="Helvetica,sans-Serif" font-size="10.00">Command.calculateValue</text>
</a>
</g>
</g>
<!-- Node1&#45;&gt;Node3 -->
<g id="edge2" class="edge"><title>Node1&#45;&gt;Node3</title>
<path fill="none" stroke="midnightblue" d="M106.231,-265.01C127.173,-292.116 170.679,-342.986 220,-369 231.858,-375.255 245.148,-379.945 258.446,-383.462"/>
<polygon fill="midnightblue" stroke="midnightblue" points="108.843,-262.662 100.018,-256.799 103.261,-266.885 108.843,-262.662"/>
</g>
<!-- Node4 -->
<g id="node4" class="node"><title>Node4</title>
<g id="a_node4"><a xlink:href="../../d4/dea/classcommand_1_1control_1_1_ask_command.html#a0e92735076727a8f4ef8affeb592e8b4" target="_top" xlink:title="command.control.AskCommand.calculate\lValue">
<polygon fill="white" stroke="black" points="232,-330 232,-360 450,-360 450,-330 232,-330"/>
<text text-anchor="start" x="240" y="-348" font-family="Helvetica,sans-Serif" font-size="10.00">command.control.AskCommand.calculate</text>
<text text-anchor="middle" x="341" y="-337" font-family="Helvetica,sans-Serif" font-size="10.00">Value</text>
</a>
</g>
</g>
<!-- Node1&#45;&gt;Node4 -->
<g id="edge3" class="edge"><title>Node1&#45;&gt;Node4</title>
<path fill="none" stroke="midnightblue" d="M114.898,-262.48C139.394,-279.089 180.797,-305.085 220,-320 230.044,-323.821 240.796,-327.108 251.584,-329.922"/>
<polygon fill="midnightblue" stroke="midnightblue" points="116.599,-259.402 106.377,-256.616 112.631,-265.169 116.599,-259.402"/>
</g>
<!-- Node5 -->
<g id="node5" class="node"><title>Node5</title>
<g id="a_node5"><a xlink:href="../../d1/d0f/classcommand_1_1control_1_1_repeat_command.html#af9c3a3854b4eaabafc7c09bdbe83de0e" target="_top" xlink:title="command.control.RepeatCommand.calculate\lValue">
<polygon fill="white" stroke="black" points="224.5,-281 224.5,-311 457.5,-311 457.5,-281 224.5,-281"/>
<text text-anchor="start" x="232.5" y="-299" font-family="Helvetica,sans-Serif" font-size="10.00">command.control.RepeatCommand.calculate</text>
<text text-anchor="middle" x="341" y="-288" font-family="Helvetica,sans-Serif" font-size="10.00">Value</text>
</a>
</g>
</g>
<!-- Node1&#45;&gt;Node5 -->
<g id="edge4" class="edge"><title>Node1&#45;&gt;Node5</title>
<path fill="none" stroke="midnightblue" d="M151.07,-258.52C184.788,-265.209 227.654,-273.713 264.028,-280.929"/>
<polygon fill="midnightblue" stroke="midnightblue" points="151.407,-255.019 140.917,-256.506 150.045,-261.885 151.407,-255.019"/>
</g>
<!-- Node6 -->
<g id="node6" class="node"><title>Node6</title>
<g id="a_node6"><a xlink:href="../../d6/d3b/classcommand_1_1control_1_1_if_command.html#acf428d2a9882866a2f00fbbee727f4f1" target="_top" xlink:title="command.control.IfCommand.calculate\lValue">
<polygon fill="white" stroke="black" points="238,-232 238,-262 444,-262 444,-232 238,-232"/>
<text text-anchor="start" x="246" y="-250" font-family="Helvetica,sans-Serif" font-size="10.00">command.control.IfCommand.calculate</text>
<text text-anchor="middle" x="341" y="-239" font-family="Helvetica,sans-Serif" font-size="10.00">Value</text>
</a>
</g>
</g>
<!-- Node1&#45;&gt;Node6 -->
<g id="edge5" class="edge"><title>Node1&#45;&gt;Node6</title>
<path fill="none" stroke="midnightblue" d="M193.576,-247C208.144,-247 223.152,-247 237.753,-247"/>
<polygon fill="midnightblue" stroke="midnightblue" points="193.571,-243.5 183.571,-247 193.571,-250.5 193.571,-243.5"/>
</g>
<!-- Node7 -->
<g id="node7" class="node"><title>Node7</title>
<g id="a_node7"><a xlink:href="../../d7/dae/classcommand_1_1control_1_1_do_times_command.html#a932eb0f99c5b2fecf8fd6939ef4b0c5b" target="_top" xlink:title="command.control.DoTimesCommand.calculate\lValue">
<polygon fill="white" stroke="black" points="220,-183 220,-213 462,-213 462,-183 220,-183"/>
<text text-anchor="start" x="228" y="-201" font-family="Helvetica,sans-Serif" font-size="10.00">command.control.DoTimesCommand.calculate</text>
<text text-anchor="middle" x="341" y="-190" font-family="Helvetica,sans-Serif" font-size="10.00">Value</text>
</a>
</g>
</g>
<!-- Node1&#45;&gt;Node7 -->
<g id="edge6" class="edge"><title>Node1&#45;&gt;Node7</title>
<path fill="none" stroke="midnightblue" d="M151.07,-235.48C184.788,-228.791 227.654,-220.287 264.028,-213.071"/>
<polygon fill="midnightblue" stroke="midnightblue" points="150.045,-232.115 140.917,-237.494 151.407,-238.981 150.045,-232.115"/>
</g>
<!-- Node8 -->
<g id="node8" class="node"><title>Node8</title>
<g id="a_node8"><a xlink:href="../../da/db2/classcommand_1_1control_1_1_for_command.html#ad494f107c7c0e97f862dcfddc476a064" target="_top" xlink:title="command.control.ForCommand.calculate\lValue">
<polygon fill="white" stroke="black" points="233.5,-134 233.5,-164 448.5,-164 448.5,-134 233.5,-134"/>
<text text-anchor="start" x="241.5" y="-152" font-family="Helvetica,sans-Serif" font-size="10.00">command.control.ForCommand.calculate</text>
<text text-anchor="middle" x="341" y="-141" font-family="Helvetica,sans-Serif" font-size="10.00">Value</text>
</a>
</g>
</g>
<!-- Node1&#45;&gt;Node8 -->
<g id="edge7" class="edge"><title>Node1&#45;&gt;Node8</title>
<path fill="none" stroke="midnightblue" d="M114.898,-231.52C139.394,-214.911 180.797,-188.915 220,-174 230.044,-170.179 240.796,-166.892 251.584,-164.078"/>
<polygon fill="midnightblue" stroke="midnightblue" points="112.631,-228.831 106.377,-237.384 116.599,-234.598 112.631,-228.831"/>
</g>
<!-- Node9 -->
<g id="node9" class="node"><title>Node9</title>
<g id="a_node9"><a xlink:href="../../d3/dcf/classcommand_1_1control_1_1_if_else_command.html#ac1a2c320a23705da633419c13a18ff91" target="_top" xlink:title="command.control.IfElseCommand.calculate\lValue">
<polygon fill="white" stroke="black" points="228.5,-85 228.5,-115 453.5,-115 453.5,-85 228.5,-85"/>
<text text-anchor="start" x="236.5" y="-103" font-family="Helvetica,sans-Serif" font-size="10.00">command.control.IfElseCommand.calculate</text>
<text text-anchor="middle" x="341" y="-92" font-family="Helvetica,sans-Serif" font-size="10.00">Value</text>
</a>
</g>
</g>
<!-- Node1&#45;&gt;Node9 -->
<g id="edge8" class="edge"><title>Node1&#45;&gt;Node9</title>
<path fill="none" stroke="midnightblue" d="M106.231,-228.99C127.173,-201.884 170.679,-151.014 220,-125 227.341,-121.128 235.23,-117.856 243.33,-115.09"/>
<polygon fill="midnightblue" stroke="midnightblue" points="103.261,-227.115 100.018,-237.201 108.843,-231.338 103.261,-227.115"/>
</g>
<!-- Node10 -->
<g id="node10" class="node"><title>Node10</title>
<g id="a_node10"><a xlink:href="../../d9/df7/classcontroller_1_1_controller.html#a3d81fb1a57114f96fb6c319f4c5df370" target="_top" xlink:title="controller.Controller.parse\lCommand">
<polygon fill="white" stroke="black" points="271,-36 271,-66 411,-66 411,-36 271,-36"/>
<text text-anchor="start" x="279" y="-54" font-family="Helvetica,sans-Serif" font-size="10.00">controller.Controller.parse</text>
<text text-anchor="middle" x="341" y="-43" font-family="Helvetica,sans-Serif" font-size="10.00">Command</text>
</a>
</g>
</g>
<!-- Node1&#45;&gt;Node10 -->
<g id="edge9" class="edge"><title>Node1&#45;&gt;Node10</title>
<path fill="none" stroke="midnightblue" d="M101.375,-227.986C118.238,-192.072 159.877,-114.426 220,-76 235.152,-66.3161 253.375,-60.3012 270.992,-56.5884"/>
<polygon fill="midnightblue" stroke="midnightblue" points="98.0809,-226.773 97.1113,-237.323 104.449,-229.681 98.0809,-226.773"/>
</g>
<!-- Node11 -->
<g id="node11" class="node"><title>Node11</title>
<g id="a_node11"><a xlink:href="../../d5/d06/classui_1_1_scene_updater.html#ab77a04f8b0038429b09237aac18906e8" target="_top" xlink:title="ui.SceneUpdater.sendCommands">
<polygon fill="white" stroke="black" points="498,-41.5 498,-60.5 676,-60.5 676,-41.5 498,-41.5"/>
<text text-anchor="middle" x="587" y="-48.5" font-family="Helvetica,sans-Serif" font-size="10.00">ui.SceneUpdater.sendCommands</text>
</a>
</g>
</g>
<!-- Node10&#45;&gt;Node11 -->
<g id="edge10" class="edge"><title>Node10&#45;&gt;Node11</title>
<path fill="none" stroke="midnightblue" d="M421.545,-51C445.924,-51 472.888,-51 497.808,-51"/>
<polygon fill="midnightblue" stroke="midnightblue" points="421.268,-47.5001 411.268,-51 421.268,-54.5001 421.268,-47.5001"/>
</g>
<!-- Node12 -->
<g id="node12" class="node"><title>Node12</title>
<g id="a_node12"><a xlink:href="../../dc/d3b/classui_1_1_g_u_i.html#ad8f08a79a20a498bcaafdc7e2e2ce0a9" target="_top" xlink:title="ui.GUI.parseCommand">
<polygon fill="white" stroke="black" points="712.5,-41.5 712.5,-60.5 837.5,-60.5 837.5,-41.5 712.5,-41.5"/>
<text text-anchor="middle" x="775" y="-48.5" font-family="Helvetica,sans-Serif" font-size="10.00">ui.GUI.parseCommand</text>
</a>
</g>
</g>
<!-- Node11&#45;&gt;Node12 -->
<g id="edge11" class="edge"><title>Node11&#45;&gt;Node12</title>
<path fill="none" stroke="midnightblue" d="M686.196,-51C695.132,-51 704.003,-51 712.479,-51"/>
<polygon fill="midnightblue" stroke="midnightblue" points="686.098,-47.5001 676.098,-51 686.098,-54.5001 686.098,-47.5001"/>
</g>
<!-- Node13 -->
<g id="node13" class="node"><title>Node13</title>
<g id="a_node13"><a xlink:href="../../d8/d3c/classui_1_1elements_1_1_i_o_element.html#a139a046f0c771f86696f2eee04047c64" target="_top" xlink:title="ui.elements.IOElement.init">
<polygon fill="white" stroke="black" points="890.5,-60.5 890.5,-79.5 1033.5,-79.5 1033.5,-60.5 890.5,-60.5"/>
<text text-anchor="middle" x="962" y="-67.5" font-family="Helvetica,sans-Serif" font-size="10.00">ui.elements.IOElement.init</text>
</a>
</g>
</g>
<!-- Node12&#45;&gt;Node13 -->
<g id="edge12" class="edge"><title>Node12&#45;&gt;Node13</title>
<path fill="none" stroke="midnightblue" d="M847.677,-58.3614C861.703,-59.8019 876.403,-61.3116 890.393,-62.7485"/>
<polygon fill="midnightblue" stroke="midnightblue" points="847.908,-54.8668 837.602,-57.3267 847.192,-61.8302 847.908,-54.8668"/>
</g>
<!-- Node15 -->
<g id="node15" class="node"><title>Node15</title>
<g id="a_node15"><a xlink:href="../../dc/d3b/classui_1_1_g_u_i.html#ab8ec2a37b3d5bd9e8c2abbb3642fb965" target="_top" xlink:title="ui.GUI.setupKeyboardCommands">
<polygon fill="white" stroke="black" points="874.5,-22.5 874.5,-41.5 1049.5,-41.5 1049.5,-22.5 874.5,-22.5"/>
<text text-anchor="middle" x="962" y="-29.5" font-family="Helvetica,sans-Serif" font-size="10.00">ui.GUI.setupKeyboardCommands</text>
</a>
</g>
</g>
<!-- Node12&#45;&gt;Node15 -->
<g id="edge14" class="edge"><title>Node12&#45;&gt;Node15</title>
<path fill="none" stroke="midnightblue" d="M847.694,-43.6368C856.41,-42.7417 865.385,-41.8199 874.289,-40.9054"/>
<polygon fill="midnightblue" stroke="midnightblue" points="847.192,-40.1698 837.602,-44.6733 847.908,-47.1332 847.192,-40.1698"/>
</g>
<!-- Node14 -->
<g id="node14" class="node"><title>Node14</title>
<g id="a_node14"><a xlink:href="../../d8/d3c/classui_1_1elements_1_1_i_o_element.html#a556e1a3ad292fe3ab731065eef59b187" target="_top" xlink:title="ui.elements.IOElement.IOElement">
<polygon fill="white" stroke="black" points="1086,-60.5 1086,-79.5 1264,-79.5 1264,-60.5 1086,-60.5"/>
<text text-anchor="middle" x="1175" y="-67.5" font-family="Helvetica,sans-Serif" font-size="10.00">ui.elements.IOElement.IOElement</text>
</a>
</g>
</g>
<!-- Node13&#45;&gt;Node14 -->
<g id="edge13" class="edge"><title>Node13&#45;&gt;Node14</title>
<path fill="none" stroke="midnightblue" d="M1043.92,-70C1057.65,-70 1071.97,-70 1085.88,-70"/>
<polygon fill="midnightblue" stroke="midnightblue" points="1043.55,-66.5001 1033.55,-70 1043.55,-73.5001 1043.55,-66.5001"/>
</g>
<!-- Node16 -->
<g id="node16" class="node"><title>Node16</title>
<g id="a_node16"><a xlink:href="../../dc/d3b/classui_1_1_g_u_i.html#a765d554102f38969231261686f2f8e27" target="_top" xlink:title="ui.GUI.initialize">
<polygon fill="white" stroke="black" points="1132,-22.5 1132,-41.5 1218,-41.5 1218,-22.5 1132,-22.5"/>
<text text-anchor="middle" x="1175" y="-29.5" font-family="Helvetica,sans-Serif" font-size="10.00">ui.GUI.initialize</text>
</a>
</g>
</g>
<!-- Node15&#45;&gt;Node16 -->
<g id="edge15" class="edge"><title>Node15&#45;&gt;Node16</title>
<path fill="none" stroke="midnightblue" d="M1059.75,-32C1085.02,-32 1110.96,-32 1131.72,-32"/>
<polygon fill="midnightblue" stroke="midnightblue" points="1059.74,-28.5001 1049.74,-32 1059.74,-35.5001 1059.74,-28.5001"/>
</g>
<!-- Node17 -->
<g id="node17" class="node"><title>Node17</title>
<g id="a_node17"><a xlink:href="../../d5/d06/classui_1_1_scene_updater.html#aeef5dd7a8ec2ad6179e33fdd71ea90d6" target="_top" xlink:title="ui.SceneUpdater.initGUI">
<polygon fill="white" stroke="black" points="1300.5,-22.5 1300.5,-41.5 1431.5,-41.5 1431.5,-22.5 1300.5,-22.5"/>
<text text-anchor="middle" x="1366" y="-29.5" font-family="Helvetica,sans-Serif" font-size="10.00">ui.SceneUpdater.initGUI</text>
</a>
</g>
</g>
<!-- Node16&#45;&gt;Node17 -->
<g id="edge16" class="edge"><title>Node16&#45;&gt;Node17</title>
<path fill="none" stroke="midnightblue" d="M1228.67,-32C1250.92,-32 1277.05,-32 1300.45,-32"/>
<polygon fill="midnightblue" stroke="midnightblue" points="1228.42,-28.5001 1218.42,-32 1228.42,-35.5001 1228.42,-28.5001"/>
</g>
<!-- Node18 -->
<g id="node18" class="node"><title>Node18</title>
<g id="a_node18"><a xlink:href="../../d9/df7/classcontroller_1_1_controller.html#a57e42ba83ee2145e6262cd72eac59570" target="_top" xlink:title="controller.Controller.init">
<polygon fill="white" stroke="black" points="1468.5,-22.5 1468.5,-41.5 1595.5,-41.5 1595.5,-22.5 1468.5,-22.5"/>
<text text-anchor="middle" x="1532" y="-29.5" font-family="Helvetica,sans-Serif" font-size="10.00">controller.Controller.init</text>
</a>
</g>
</g>
<!-- Node17&#45;&gt;Node18 -->
<g id="edge17" class="edge"><title>Node17&#45;&gt;Node18</title>
<path fill="none" stroke="midnightblue" d="M1442.04,-32C1450.81,-32 1459.68,-32 1468.26,-32"/>
<polygon fill="midnightblue" stroke="midnightblue" points="1441.82,-28.5001 1431.82,-32 1441.82,-35.5001 1441.82,-28.5001"/>
</g>
<!-- Node19 -->
<g id="node19" class="node"><title>Node19</title>
<g id="a_node19"><a xlink:href="../../dd/df2/classmain_1_1_workspace_manager.html#abc818b59211f6e14940b86a42bb868d0" target="_top" xlink:title="main.WorkspaceManager.create\lWorkspace">
<polygon fill="white" stroke="black" points="1632,-17 1632,-47 1802,-47 1802,-17 1632,-17"/>
<text text-anchor="start" x="1640" y="-35" font-family="Helvetica,sans-Serif" font-size="10.00">main.WorkspaceManager.create</text>
<text text-anchor="middle" x="1717" y="-24" font-family="Helvetica,sans-Serif" font-size="10.00">Workspace</text>
</a>
</g>
</g>
<!-- Node18&#45;&gt;Node19 -->
<g id="edge18" class="edge"><title>Node18&#45;&gt;Node19</title>
<path fill="none" stroke="midnightblue" d="M1605.92,-32C1614.39,-32 1623.08,-32 1631.69,-32"/>
<polygon fill="midnightblue" stroke="midnightblue" points="1605.72,-28.5001 1595.72,-32 1605.72,-35.5001 1605.72,-28.5001"/>
</g>
<!-- Node20 -->
<g id="node20" class="node"><title>Node20</title>
<g id="a_node20"><a xlink:href="../../d9/df7/classcontroller_1_1_controller.html#a3a9d672bb57047df70945ad1a9582c9a" target="_top" xlink:title="controller.Controller.create\lNewWorkspace">
<polygon fill="white" stroke="black" points="1838.5,-39 1838.5,-69 1981.5,-69 1981.5,-39 1838.5,-39"/>
<text text-anchor="start" x="1846.5" y="-57" font-family="Helvetica,sans-Serif" font-size="10.00">controller.Controller.create</text>
<text text-anchor="middle" x="1910" y="-46" font-family="Helvetica,sans-Serif" font-size="10.00">NewWorkspace</text>
</a>
</g>
</g>
<!-- Node19&#45;&gt;Node20 -->
<g id="edge19" class="edge"><title>Node19&#45;&gt;Node20</title>
<path fill="none" stroke="midnightblue" d="M1812.03,-42.8303C1820.88,-43.8503 1829.75,-44.8721 1838.34,-45.8608"/>
<polygon fill="midnightblue" stroke="midnightblue" points="1812.39,-39.3489 1802.05,-41.6815 1811.59,-46.3029 1812.39,-39.3489"/>
</g>
<!-- Node26 -->
<g id="node26" class="node"><title>Node26</title>
<g id="a_node26"><a xlink:href="../../d1/d0b/classmain_1_1_main.html#a9f1e5657b2f6f9bdd69a3b6412ceda74" target="_top" xlink:title="main.Main.start">
<polygon fill="white" stroke="black" points="1864,-0.5 1864,-19.5 1956,-19.5 1956,-0.5 1864,-0.5"/>
<text text-anchor="middle" x="1910" y="-7.5" font-family="Helvetica,sans-Serif" font-size="10.00">main.Main.start</text>
</a>
</g>
</g>
<!-- Node19&#45;&gt;Node26 -->
<g id="edge25" class="edge"><title>Node19&#45;&gt;Node26</title>
<path fill="none" stroke="midnightblue" d="M1812.09,-21.1629C1830.19,-19.0779 1848.36,-16.9851 1863.99,-15.1843"/>
<polygon fill="midnightblue" stroke="midnightblue" points="1811.59,-17.6971 1802.05,-22.3185 1812.39,-24.6511 1811.59,-17.6971"/>
</g>
<!-- Node21 -->
<g id="node21" class="node"><title>Node21</title>
<g id="a_node21"><a xlink:href="../../d5/d06/classui_1_1_scene_updater.html#a2858ad8edb0c0f59a21e2ae015f2fa1e" target="_top" xlink:title="ui.SceneUpdater.createNew\lWorkspace">
<polygon fill="white" stroke="black" points="2018,-39 2018,-69 2168,-69 2168,-39 2018,-39"/>
<text text-anchor="start" x="2026" y="-57" font-family="Helvetica,sans-Serif" font-size="10.00">ui.SceneUpdater.createNew</text>
<text text-anchor="middle" x="2093" y="-46" font-family="Helvetica,sans-Serif" font-size="10.00">Workspace</text>
</a>
</g>
</g>
<!-- Node20&#45;&gt;Node21 -->
<g id="edge20" class="edge"><title>Node20&#45;&gt;Node21</title>
<path fill="none" stroke="midnightblue" d="M1991.8,-54C2000.43,-54 2009.17,-54 2017.71,-54"/>
<polygon fill="midnightblue" stroke="midnightblue" points="1991.76,-50.5001 1981.76,-54 1991.76,-57.5001 1991.76,-50.5001"/>
</g>
<!-- Node22 -->
<g id="node22" class="node"><title>Node22</title>
<g id="a_node22"><a xlink:href="../../dc/d3b/classui_1_1_g_u_i.html#a2edc294ba07311e6c4b85c9fe749d1bf" target="_top" xlink:title="ui.GUI.createNewWorkspace">
<polygon fill="white" stroke="black" points="2204,-44.5 2204,-63.5 2354,-63.5 2354,-44.5 2204,-44.5"/>
<text text-anchor="middle" x="2279" y="-51.5" font-family="Helvetica,sans-Serif" font-size="10.00">ui.GUI.createNewWorkspace</text>
</a>
</g>
</g>
<!-- Node21&#45;&gt;Node22 -->
<g id="edge21" class="edge"><title>Node21&#45;&gt;Node22</title>
<path fill="none" stroke="midnightblue" d="M2178.07,-54C2186.65,-54 2195.34,-54 2203.81,-54"/>
<polygon fill="midnightblue" stroke="midnightblue" points="2178.04,-50.5001 2168.04,-54 2178.04,-57.5001 2178.04,-50.5001"/>
</g>
<!-- Node23 -->
<g id="node23" class="node"><title>Node23</title>
<g id="a_node23"><a xlink:href="../../d0/de6/classui_1_1elements_1_1_menu_bar_element.html#a98c13995a31d997aa10f2950583da6cc" target="_top" xlink:title="ui.elements.MenuBarElement.make\lMenuBar">
<polygon fill="white" stroke="black" points="2390,-39 2390,-69 2578,-69 2578,-39 2390,-39"/>
<text text-anchor="start" x="2398" y="-57" font-family="Helvetica,sans-Serif" font-size="10.00">ui.elements.MenuBarElement.make</text>
<text text-anchor="middle" x="2484" y="-46" font-family="Helvetica,sans-Serif" font-size="10.00">MenuBar</text>
</a>
</g>
</g>
<!-- Node22&#45;&gt;Node23 -->
<g id="edge22" class="edge"><title>Node22&#45;&gt;Node23</title>
<path fill="none" stroke="midnightblue" d="M2364.28,-54C2372.66,-54 2381.21,-54 2389.68,-54"/>
<polygon fill="midnightblue" stroke="midnightblue" points="2364.15,-50.5001 2354.15,-54 2364.15,-57.5001 2364.15,-50.5001"/>
</g>
<!-- Node24 -->
<g id="node24" class="node"><title>Node24</title>
<g id="a_node24"><a xlink:href="../../d0/de6/classui_1_1elements_1_1_menu_bar_element.html#a7bdb58f78cf8b61ba28498c5c86ab682" target="_top" xlink:title="ui.elements.MenuBarElement.init">
<polygon fill="white" stroke="black" points="2614,-44.5 2614,-63.5 2790,-63.5 2790,-44.5 2614,-44.5"/>
<text text-anchor="middle" x="2702" y="-51.5" font-family="Helvetica,sans-Serif" font-size="10.00">ui.elements.MenuBarElement.init</text>
</a>
</g>
</g>
<!-- Node23&#45;&gt;Node24 -->
<g id="edge23" class="edge"><title>Node23&#45;&gt;Node24</title>
<path fill="none" stroke="midnightblue" d="M2588.23,-54C2596.83,-54 2605.48,-54 2613.94,-54"/>
<polygon fill="midnightblue" stroke="midnightblue" points="2588.17,-50.5001 2578.17,-54 2588.17,-57.5001 2588.17,-50.5001"/>
</g>
<!-- Node25 -->
<g id="node25" class="node"><title>Node25</title>
<g id="a_node25"><a xlink:href="../../d0/de6/classui_1_1elements_1_1_menu_bar_element.html#ab4a4e6841c924a9d9c70b8073b56dffc" target="_top" xlink:title="ui.elements.MenuBarElement.\lMenuBarElement">
<polygon fill="white" stroke="black" points="2826.5,-39 2826.5,-69 2987.5,-69 2987.5,-39 2826.5,-39"/>
<text text-anchor="start" x="2834.5" y="-57" font-family="Helvetica,sans-Serif" font-size="10.00">ui.elements.MenuBarElement.</text>
<text text-anchor="middle" x="2907" y="-46" font-family="Helvetica,sans-Serif" font-size="10.00">MenuBarElement</text>
</a>
</g>
</g>
<!-- Node24&#45;&gt;Node25 -->
<g id="edge24" class="edge"><title>Node24&#45;&gt;Node25</title>
<path fill="none" stroke="midnightblue" d="M2800.47,-54C2809.19,-54 2817.95,-54 2826.5,-54"/>
<polygon fill="midnightblue" stroke="midnightblue" points="2800.27,-50.5001 2790.27,-54 2800.27,-57.5001 2800.27,-50.5001"/>
</g>
</g>
</svg>
