<?xml version="1.0" encoding="UTF-8" standalone="no"?>
<!DOCTYPE svg PUBLIC "-//W3C//DTD SVG 1.1//EN"
 "http://www.w3.org/Graphics/SVG/1.1/DTD/svg11.dtd">
<!-- Generated by graphviz version 2.36.0 (20140111.2315)
 -->
<!-- Title: command.control.MakeUserInstructionCommand.MakeUserInstructionCommand Pages: 1 -->
<svg width="456pt" height="48pt"
 viewBox="0.00 0.00 456.00 48.00" xmlns="http://www.w3.org/2000/svg" xmlns:xlink="http://www.w3.org/1999/xlink">
<g id="graph0" class="graph" transform="scale(1 1) rotate(0) translate(4 44)">
<title>command.control.MakeUserInstructionCommand.MakeUserInstructionCommand</title>
<polygon fill="white" stroke="none" points="-4,4 -4,-44 452,-44 452,4 -4,4"/>
<!-- Node1 -->
<g id="node1" class="node"><title>Node1</title>
<polygon fill="#bfbfbf" stroke="black" points="0,0.5 0,-40.5 218,-40.5 218,0.5 0,0.5"/>
<text text-anchor="start" x="8" y="-28.5" font-family="Helvetica,sans-Serif" font-size="10.00">command.control.MakeUser</text>
<text text-anchor="start" x="8" y="-17.5" font-family="Helvetica,sans-Serif" font-size="10.00">InstructionCommand.MakeUserInstruction</text>
<text text-anchor="middle" x="109" y="-6.5" font-family="Helvetica,sans-Serif" font-size="10.00">Command</text>
</g>
<!-- Node2 -->
<g id="node2" class="node"><title>Node2</title>
<g id="a_node2"><a xlink:href="../../dc/d9e/classparser_1_1_command_tree_node.html#a73e4ab6ebca47d41b993f0e66ee4c8d2" target="_top" xlink:title="parser.CommandTreeNode.getName">
<polygon fill="white" stroke="black" points="254.5,-10.5 254.5,-29.5 447.5,-29.5 447.5,-10.5 254.5,-10.5"/>
<text text-anchor="middle" x="351" y="-17.5" font-family="Helvetica,sans-Serif" font-size="10.00">parser.CommandTreeNode.getName</text>
</a>
</g>
</g>
<!-- Node1&#45;&gt;Node2 -->
<g id="edge1" class="edge"><title>Node1&#45;&gt;Node2</title>
<path fill="none" stroke="midnightblue" d="M218.064,-20C226.739,-20 235.497,-20 244.156,-20"/>
<polygon fill="midnightblue" stroke="midnightblue" points="244.263,-23.5001 254.263,-20 244.263,-16.5001 244.263,-23.5001"/>
</g>
</g>
</svg>
