<?xml version="1.0" encoding="UTF-8" standalone="no"?>
<!DOCTYPE svg PUBLIC "-//W3C//DTD SVG 1.1//EN"
 "http://www.w3.org/Graphics/SVG/1.1/DTD/svg11.dtd">
<!-- Generated by graphviz version 2.36.0 (20140111.2315)
 -->
<!-- Title: command.control.MakeUserInstructionCommand.calculateValue Pages: 1 -->
<svg width="372pt" height="87pt"
 viewBox="0.00 0.00 372.00 87.00" xmlns="http://www.w3.org/2000/svg" xmlns:xlink="http://www.w3.org/1999/xlink">
<g id="graph0" class="graph" transform="scale(1 1) rotate(0) translate(4 83)">
<title>command.control.MakeUserInstructionCommand.calculateValue</title>
<polygon fill="white" stroke="none" points="-4,4 -4,-83 368,-83 368,4 -4,4"/>
<!-- Node1 -->
<g id="node1" class="node"><title>Node1</title>
<polygon fill="#bfbfbf" stroke="black" points="0.5,-24 0.5,-54 189.5,-54 189.5,-24 0.5,-24"/>
<text text-anchor="start" x="8.5" y="-42" font-family="Helvetica,sans-Serif" font-size="10.00">command.control.MakeUser</text>
<text text-anchor="middle" x="95" y="-31" font-family="Helvetica,sans-Serif" font-size="10.00">InstructionCommand.calculateValue</text>
</g>
<!-- Node2 -->
<g id="node2" class="node"><title>Node2</title>
<g id="a_node2"><a xlink:href="../../d9/d88/classmodel_1_1_tree_interpreter.html#ae48a7e05a32c9af20a8bc5543654ccdc" target="_top" xlink:title="model.TreeInterpreter.get\lUserCommands">
<polygon fill="white" stroke="black" points="226,-49 226,-79 364,-79 364,-49 226,-49"/>
<text text-anchor="start" x="234" y="-67" font-family="Helvetica,sans-Serif" font-size="10.00">model.TreeInterpreter.get</text>
<text text-anchor="middle" x="295" y="-56" font-family="Helvetica,sans-Serif" font-size="10.00">UserCommands</text>
</a>
</g>
</g>
<!-- Node1&#45;&gt;Node2 -->
<g id="edge1" class="edge"><title>Node1&#45;&gt;Node2</title>
<path fill="none" stroke="midnightblue" d="M189.781,-50.8411C198.546,-51.9478 207.366,-53.0613 215.964,-54.147"/>
<polygon fill="midnightblue" stroke="midnightblue" points="215.58,-57.6262 225.94,-55.4065 216.457,-50.6813 215.58,-57.6262"/>
</g>
<!-- Node3 -->
<g id="node3" class="node"><title>Node3</title>
<g id="a_node3"><a xlink:href="../../d9/d88/classmodel_1_1_tree_interpreter.html#a54952c69ac7db96915715b066f45c074" target="_top" xlink:title="model.TreeInterpreter.set\lUserCommands">
<polygon fill="white" stroke="black" points="226.5,-0 226.5,-30 363.5,-30 363.5,-0 226.5,-0"/>
<text text-anchor="start" x="234.5" y="-18" font-family="Helvetica,sans-Serif" font-size="10.00">model.TreeInterpreter.set</text>
<text text-anchor="middle" x="295" y="-7" font-family="Helvetica,sans-Serif" font-size="10.00">UserCommands</text>
</a>
</g>
</g>
<!-- Node1&#45;&gt;Node3 -->
<g id="edge2" class="edge"><title>Node1&#45;&gt;Node3</title>
<path fill="none" stroke="midnightblue" d="M189.781,-27.6326C198.618,-26.5614 207.51,-25.4836 216.175,-24.4333"/>
<polygon fill="midnightblue" stroke="midnightblue" points="216.72,-27.8929 226.226,-23.215 215.878,-20.9438 216.72,-27.8929"/>
</g>
</g>
</svg>
