<?xml version="1.0" encoding="UTF-8" standalone="no"?>
<!DOCTYPE svg PUBLIC "-//W3C//DTD SVG 1.1//EN"
 "http://www.w3.org/Graphics/SVG/1.1/DTD/svg11.dtd">
<!-- Generated by graphviz version 2.36.0 (20140111.2315)
 -->
<!-- Title: command.turtle.HomeCommand.calculateValue Pages: 1 -->
<svg width="404pt" height="153pt"
 viewBox="0.00 0.00 404.00 153.00" xmlns="http://www.w3.org/2000/svg" xmlns:xlink="http://www.w3.org/1999/xlink">
<g id="graph0" class="graph" transform="scale(1 1) rotate(0) translate(4 149)">
<title>command.turtle.HomeCommand.calculateValue</title>
<polygon fill="white" stroke="none" points="-4,4 -4,-149 400,-149 400,4 -4,4"/>
<!-- Node1 -->
<g id="node1" class="node"><title>Node1</title>
<polygon fill="#bfbfbf" stroke="black" points="0,-63 0,-93 222,-93 222,-63 0,-63"/>
<text text-anchor="start" x="8" y="-81" font-family="Helvetica,sans-Serif" font-size="10.00">command.turtle.HomeCommand.calculate</text>
<text text-anchor="middle" x="111" y="-70" font-family="Helvetica,sans-Serif" font-size="10.00">Value</text>
</g>
<!-- Node2 -->
<g id="node2" class="node"><title>Node2</title>
<g id="a_node2"><a xlink:href="../../d6/d34/classmodel_1_1_turtle.html#a5c92e7274d592bbd3df40913004dfa71" target="_top" xlink:title="model.Turtle.getX">
<polygon fill="white" stroke="black" points="277,-125.5 277,-144.5 377,-144.5 377,-125.5 277,-125.5"/>
<text text-anchor="middle" x="327" y="-132.5" font-family="Helvetica,sans-Serif" font-size="10.00">model.Turtle.getX</text>
</a>
</g>
</g>
<!-- Node1&#45;&gt;Node2 -->
<g id="edge1" class="edge"><title>Node1&#45;&gt;Node2</title>
<path fill="none" stroke="midnightblue" d="M168.506,-93.0506C203.407,-102.347 247.608,-114.12 280.295,-122.826"/>
<polygon fill="midnightblue" stroke="midnightblue" points="279.482,-126.232 290.046,-125.423 281.284,-119.467 279.482,-126.232"/>
</g>
<!-- Node3 -->
<g id="node3" class="node"><title>Node3</title>
<g id="a_node3"><a xlink:href="../../d6/d34/classmodel_1_1_turtle.html#a60ba63667ad6fe29a4570821539db8c8" target="_top" xlink:title="model.Turtle.getY">
<polygon fill="white" stroke="black" points="277.5,-87.5 277.5,-106.5 376.5,-106.5 376.5,-87.5 277.5,-87.5"/>
<text text-anchor="middle" x="327" y="-94.5" font-family="Helvetica,sans-Serif" font-size="10.00">model.Turtle.getY</text>
</a>
</g>
</g>
<!-- Node1&#45;&gt;Node3 -->
<g id="edge2" class="edge"><title>Node1&#45;&gt;Node3</title>
<path fill="none" stroke="midnightblue" d="M222.134,-87.7783C237.71,-89.1612 253.197,-90.5362 267.273,-91.7859"/>
<polygon fill="midnightblue" stroke="midnightblue" points="266.985,-95.274 277.255,-92.6722 267.604,-88.3014 266.985,-95.274"/>
</g>
<!-- Node4 -->
<g id="node4" class="node"><title>Node4</title>
<g id="a_node4"><a xlink:href="../../d6/d34/classmodel_1_1_turtle.html#a964ce9be930d2ad7c46f0700564bf73c" target="_top" xlink:title="model.Turtle.setXY">
<polygon fill="white" stroke="black" points="275,-49.5 275,-68.5 379,-68.5 379,-49.5 275,-49.5"/>
<text text-anchor="middle" x="327" y="-56.5" font-family="Helvetica,sans-Serif" font-size="10.00">model.Turtle.setXY</text>
</a>
</g>
</g>
<!-- Node1&#45;&gt;Node4 -->
<g id="edge3" class="edge"><title>Node1&#45;&gt;Node4</title>
<path fill="none" stroke="midnightblue" d="M222.134,-68.2217C236.824,-66.9175 251.435,-65.6203 264.858,-64.4285"/>
<polygon fill="midnightblue" stroke="midnightblue" points="265.222,-67.91 274.873,-63.5393 264.603,-60.9375 265.222,-67.91"/>
</g>
<!-- Node5 -->
<g id="node5" class="node"><title>Node5</title>
<g id="a_node5"><a xlink:href="../../d6/d34/classmodel_1_1_turtle.html#ab69148692c7de79ad6c276902b81553a" target="_top" xlink:title="model.Turtle.updateTurtle\lViewers">
<polygon fill="white" stroke="black" points="258.5,-0 258.5,-30 395.5,-30 395.5,-0 258.5,-0"/>
<text text-anchor="start" x="266.5" y="-18" font-family="Helvetica,sans-Serif" font-size="10.00">model.Turtle.updateTurtle</text>
<text text-anchor="middle" x="327" y="-7" font-family="Helvetica,sans-Serif" font-size="10.00">Viewers</text>
</a>
</g>
</g>
<!-- Node1&#45;&gt;Node5 -->
<g id="edge4" class="edge"><title>Node1&#45;&gt;Node5</title>
<path fill="none" stroke="midnightblue" d="M162.986,-62.99C193.684,-53.9527 232.949,-42.3936 265.25,-32.8844"/>
<polygon fill="midnightblue" stroke="midnightblue" points="266.429,-36.1858 275.034,-30.0041 264.452,-29.4707 266.429,-36.1858"/>
</g>
</g>
</svg>
