<?xml version="1.0" encoding="UTF-8" standalone="no"?>
<!DOCTYPE svg PUBLIC "-//W3C//DTD SVG 1.1//EN"
 "http://www.w3.org/Graphics/SVG/1.1/DTD/svg11.dtd">
<!-- Generated by graphviz version 2.36.0 (20140111.2315)
 -->
<!-- Title: command.control.MakeUserInstructionCommand Pages: 1 -->
<!--zoomable 203 -->
<svg id="main" version="1.1" xmlns="http://www.w3.org/2000/svg" xmlns:xlink="http://www.w3.org/1999/xlink" xml:space="preserve" onload="init(evt)">
<style type="text/css"><![CDATA[
.edge:hover path { stroke: red; }
.edge:hover polygon { stroke: red; fill: red; }
]]></style>
<script type="text/javascript"><![CDATA[
var edges = document.getElementsByTagName('g');
if (edges && edges.length) {
  for (var i=0;i<edges.length;i++) {
    if (edges[i].id.substr(0,4)=='edge') {
      edges[i].setAttribute('class','edge');
    }
  }
}
]]></script>
        <defs>
                <circle id="rim" cx="0" cy="0" r="7"/>
                <circle id="rim2" cx="0" cy="0" r="3.5"/>
                <g id="zoomPlus">
                        <use xlink:href="#rim" fill="#404040">
                                <set attributeName="fill" to="#808080" begin="zoomplus.mouseover" end="zoomplus.mouseout"/>
                        </use>
                        <path d="M-4,0h8M0,-4v8" fill="none" stroke="white" stroke-width="1.5" pointer-events="none"/>
                </g>
                <g id="zoomMin">
                        <use xlink:href="#rim" fill="#404040">
                                <set attributeName="fill" to="#808080" begin="zoomminus.mouseover" end="zoomminus.mouseout"/>
                        </use>
                        <path d="M-4,0h8" fill="none" stroke="white" stroke-width="1.5" pointer-events="none"/>
                </g>
                <g id="dirArrow">
                        <path fill="none" stroke="white" stroke-width="1.5" d="M0,-3.0v7 M-2.5,-0.5L0,-3.0L2.5,-0.5"/>
                </g>
               <g id="resetDef">
                       <use xlink:href="#rim2" fill="#404040">
                               <set attributeName="fill" to="#808080" begin="reset.mouseover" end="reset.mouseout"/>
                       </use>
               </g>
        </defs>

<script type="text/javascript">
var viewWidth = 940;
var viewHeight = 203;
var sectionId = 'dynsection-0';
</script>
<script xlink:href="../../svgpan.js"/>
<svg id="graph" class="graph">
<g id="viewport">
<title>command.control.MakeUserInstructionCommand</title>
<polygon fill="white" stroke="none" points="-4,4 -4,-199 936,-199 936,4 -4,4"/>
<!-- Node1 -->
<g id="node1" class="node"><title>Node1</title>
<polygon fill="#bfbfbf" stroke="black" points="780,-43 780,-73 932,-73 932,-43 780,-43"/>
<text text-anchor="start" x="788" y="-61" font-family="Helvetica,sans-Serif" font-size="10.00">command.control.MakeUser</text>
<text text-anchor="middle" x="856" y="-50" font-family="Helvetica,sans-Serif" font-size="10.00">InstructionCommand</text>
</g>
<!-- Node2 -->
<g id="node2" class="node"><title>Node2</title>
<g id="a_node2"><a xlink:href="../../d9/d88/classmodel_1_1_tree_interpreter.html" target="_top" xlink:title="model.TreeInterpreter">
<polygon fill="white" stroke="black" points="535,-98.5 535,-117.5 655,-117.5 655,-98.5 535,-98.5"/>
<text text-anchor="middle" x="595" y="-105.5" font-family="Helvetica,sans-Serif" font-size="10.00">model.TreeInterpreter</text>
</a>
</g>
</g>
<!-- Node2&#45;&gt;Node1 -->
<g id="edge1" class="edge"><title>Node2&#45;&gt;Node1</title>
<path fill="none" stroke="#9a32cd" stroke-dasharray="5,2" d="M655.447,-96.5238C692.411,-89.3878 740.269,-80.1488 779.851,-72.5075"/>
<polygon fill="#9a32cd" stroke="#9a32cd" points="654.481,-93.1456 645.326,-98.4777 655.808,-100.019 654.481,-93.1456"/>
<text text-anchor="middle" x="724" y="-94" font-family="Helvetica,sans-Serif" font-size="10.00"> tree</text>
</g>
<!-- Node3 -->
<g id="node3" class="node"><title>Node3</title>
<g id="a_node3"><a xlink:href="../../db/d55/classmodel_1_1_variable_list.html" target="_top" xlink:title="model.VariableList">
<polygon fill="white" stroke="black" points="269,-174.5 269,-193.5 373,-193.5 373,-174.5 269,-174.5"/>
<text text-anchor="middle" x="321" y="-181.5" font-family="Helvetica,sans-Serif" font-size="10.00">model.VariableList</text>
</a>
</g>
</g>
<!-- Node3&#45;&gt;Node2 -->
<g id="edge2" class="edge"><title>Node3&#45;&gt;Node2</title>
<path fill="none" stroke="#9a32cd" stroke-dasharray="5,2" d="M383.294,-175.929C419.026,-170.309 464.66,-161.546 504,-149 530.01,-140.705 558.429,-126.898 576.231,-117.626"/>
<polygon fill="#9a32cd" stroke="#9a32cd" points="382.373,-172.529 373.017,-177.502 383.432,-179.449 382.373,-172.529"/>
<text text-anchor="middle" x="464" y="-172" font-family="Helvetica,sans-Serif" font-size="10.00"> variables</text>
</g>
<!-- Node4 -->
<g id="node4" class="node"><title>Node4</title>
<polygon fill="white" stroke="#bfbfbf" points="0.5,-174.5 0.5,-193.5 181.5,-193.5 181.5,-174.5 0.5,-174.5"/>
<text text-anchor="middle" x="91" y="-181.5" font-family="Helvetica,sans-Serif" font-size="10.00">ObservableList&lt; model.Variable &gt;</text>
</g>
<!-- Node4&#45;&gt;Node3 -->
<g id="edge3" class="edge"><title>Node4&#45;&gt;Node3</title>
<path fill="none" stroke="#9a32cd" stroke-dasharray="5,2" d="M191.896,-184C218.445,-184 246.031,-184 268.773,-184"/>
<polygon fill="#9a32cd" stroke="#9a32cd" points="191.784,-180.5 181.784,-184 191.784,-187.5 191.784,-180.5"/>
<text text-anchor="middle" x="209" y="-187" font-family="Helvetica,sans-Serif" font-size="10.00"> list</text>
</g>
<!-- Node5 -->
<g id="node5" class="node"><title>Node5</title>
<polygon fill="white" stroke="#bfbfbf" points="264,-136.5 264,-155.5 378,-155.5 378,-136.5 264,-136.5"/>
<text text-anchor="middle" x="321" y="-143.5" font-family="Helvetica,sans-Serif" font-size="10.00">List&lt; model.Turtle &gt;</text>
</g>
<!-- Node5&#45;&gt;Node2 -->
<g id="edge4" class="edge"><title>Node5&#45;&gt;Node2</title>
<path fill="none" stroke="#9a32cd" stroke-dasharray="5,2" d="M388.215,-138.269C422.768,-134.074 465.711,-128.608 504,-123 515.285,-121.347 527.341,-119.438 538.842,-117.546"/>
<polygon fill="#9a32cd" stroke="#9a32cd" points="387.748,-134.8 378.24,-139.473 388.587,-141.749 387.748,-134.8"/>
<text text-anchor="middle" x="464" y="-137" font-family="Helvetica,sans-Serif" font-size="10.00"> listTurtles</text>
</g>
<!-- Node6 -->
<g id="node6" class="node"><title>Node6</title>
<g id="a_node6"><a xlink:href="../../db/d10/classmodel_1_1_command_factory.html" target="_top" xlink:title="model.CommandFactory">
<polygon fill="white" stroke="black" points="254,-98.5 254,-117.5 388,-117.5 388,-98.5 254,-98.5"/>
<text text-anchor="middle" x="321" y="-105.5" font-family="Helvetica,sans-Serif" font-size="10.00">model.CommandFactory</text>
</a>
</g>
</g>
<!-- Node6&#45;&gt;Node2 -->
<g id="edge5" class="edge"><title>Node6&#45;&gt;Node2</title>
<path fill="none" stroke="#9a32cd" stroke-dasharray="5,2" d="M398.387,-108C441.635,-108 494.909,-108 534.935,-108"/>
<polygon fill="#9a32cd" stroke="#9a32cd" points="398.191,-104.5 388.191,-108 398.191,-111.5 398.191,-104.5"/>
<text text-anchor="middle" x="464" y="-111" font-family="Helvetica,sans-Serif" font-size="10.00"> factory</text>
</g>
<!-- Node7 -->
<g id="node7" class="node"><title>Node7</title>
<polygon fill="white" stroke="#bfbfbf" points="236,-49 236,-79 406,-79 406,-49 236,-49"/>
<text text-anchor="start" x="244" y="-67" font-family="Helvetica,sans-Serif" font-size="10.00">Map&lt; String, List&lt;</text>
<text text-anchor="middle" x="321" y="-56" font-family="Helvetica,sans-Serif" font-size="10.00"> parser.CommandTreeNode &gt; &gt;</text>
</g>
<!-- Node7&#45;&gt;Node2 -->
<g id="edge6" class="edge"><title>Node7&#45;&gt;Node2</title>
<path fill="none" stroke="#9a32cd" stroke-dasharray="5,2" d="M416.526,-78.9306C444.679,-83.4129 475.594,-88.3697 504,-93 514.788,-94.7584 526.298,-96.6586 537.358,-98.4965"/>
<polygon fill="#9a32cd" stroke="#9a32cd" points="416.714,-75.4166 406.289,-77.3022 415.615,-82.3297 416.714,-75.4166"/>
<text text-anchor="middle" x="464" y="-96" font-family="Helvetica,sans-Serif" font-size="10.00"> userCommands</text>
</g>
<!-- Node8 -->
<g id="node8" class="node"><title>Node8</title>
<g id="a_node8"><a xlink:href="../../dc/d9e/classparser_1_1_command_tree_node.html" target="_top" xlink:title="parser.CommandTreeNode">
<polygon fill="white" stroke="black" points="522.5,-11.5 522.5,-30.5 667.5,-30.5 667.5,-11.5 522.5,-11.5"/>
<text text-anchor="middle" x="595" y="-18.5" font-family="Helvetica,sans-Serif" font-size="10.00">parser.CommandTreeNode</text>
</a>
</g>
</g>
<!-- Node8&#45;&gt;Node1 -->
<g id="edge7" class="edge"><title>Node8&#45;&gt;Node1</title>
<path fill="none" stroke="#9a32cd" stroke-dasharray="5,2" d="M677.795,-29.0924C704.678,-32.0905 734.671,-35.7976 762,-40 767.852,-40.8998 773.897,-41.9025 779.965,-42.9613"/>
<polygon fill="#9a32cd" stroke="#9a32cd" points="677.979,-25.5916 667.656,-27.9785 677.214,-32.5497 677.979,-25.5916"/>
<text text-anchor="middle" x="724" y="-54" font-family="Helvetica,sans-Serif" font-size="10.00"> subCommands</text>
<text text-anchor="middle" x="724" y="-43" font-family="Helvetica,sans-Serif" font-size="10.00">parameters</text>
</g>
<!-- Node9 -->
<g id="node9" class="node"><title>Node9</title>
<polygon fill="white" stroke="#bfbfbf" points="247.5,-0 247.5,-30 394.5,-30 394.5,-0 247.5,-0"/>
<text text-anchor="start" x="255.5" y="-18" font-family="Helvetica,sans-Serif" font-size="10.00">List&lt; parser.CommandTree</text>
<text text-anchor="middle" x="321" y="-7" font-family="Helvetica,sans-Serif" font-size="10.00">Node &gt;</text>
</g>
<!-- Node9&#45;&gt;Node8 -->
<g id="edge8" class="edge"><title>Node9&#45;&gt;Node8</title>
<path fill="none" stroke="#9a32cd" stroke-dasharray="5,2" d="M404.91,-16.8289C442.338,-17.6545 486.13,-18.6205 522.14,-19.4148"/>
<polygon fill="#9a32cd" stroke="#9a32cd" points="404.608,-13.3215 394.534,-16.6 404.454,-20.3198 404.608,-13.3215"/>
<text text-anchor="middle" x="464" y="-22" font-family="Helvetica,sans-Serif" font-size="10.00"> myChildren</text>
</g>
</g>
</svg>
        <g id="navigator" transform="translate(0 0)" fill="#404254">
                <rect fill="#f2f5e9" fill-opacity="0.5" stroke="#606060" stroke-width=".5" x="0" y="0" width="60" height="60"/>
                <use id="zoomplus" xlink:href="#zoomPlus" x="17" y="9" onmousedown="handleZoom(evt,'in')"/>
                <use id="zoomminus" xlink:href="#zoomMin" x="42" y="9" onmousedown="handleZoom(evt,'out')"/>
                <use id="reset" xlink:href="#resetDef" x="30" y="36" onmousedown="handleReset()"/>
                <g id="arrowUp" xlink:href="#dirArrow" transform="translate(30 24)" onmousedown="handlePan(0,-1)">
                  <use xlink:href="#rim" fill="#404040">
                        <set attributeName="fill" to="#808080" begin="arrowUp.mouseover" end="arrowUp.mouseout"/>
                  </use>
                  <path fill="none" stroke="white" stroke-width="1.5" d="M0,-3.0v7 M-2.5,-0.5L0,-3.0L2.5,-0.5"/>
                </g>
                <g id="arrowRight" xlink:href="#dirArrow" transform="rotate(90) translate(36 -43)" onmousedown="handlePan(1,0)">
                  <use xlink:href="#rim" fill="#404040">
                        <set attributeName="fill" to="#808080" begin="arrowRight.mouseover" end="arrowRight.mouseout"/>
                  </use>
                  <path fill="none" stroke="white" stroke-width="1.5" d="M0,-3.0v7 M-2.5,-0.5L0,-3.0L2.5,-0.5"/>
                </g>
                <g id="arrowDown" xlink:href="#dirArrow" transform="rotate(180) translate(-30 -48)" onmousedown="handlePan(0,1)">
                  <use xlink:href="#rim" fill="#404040">
                        <set attributeName="fill" to="#808080" begin="arrowDown.mouseover" end="arrowDown.mouseout"/>
                  </use>
                  <path fill="none" stroke="white" stroke-width="1.5" d="M0,-3.0v7 M-2.5,-0.5L0,-3.0L2.5,-0.5"/>
                </g>
                <g id="arrowLeft" xlink:href="#dirArrow" transform="rotate(270) translate(-36 17)" onmousedown="handlePan(-1,0)">
                  <use xlink:href="#rim" fill="#404040">
                        <set attributeName="fill" to="#808080" begin="arrowLeft.mouseover" end="arrowLeft.mouseout"/>
                  </use>
                  <path fill="none" stroke="white" stroke-width="1.5" d="M0,-3.0v7 M-2.5,-0.5L0,-3.0L2.5,-0.5"/>
                </g>
        </g>
        <svg viewBox="0 0 15 15" width="100%" height="30px" preserveAspectRatio="xMaxYMin meet">
         <g id="arrow_out" transform="scale(0.3 0.3)">
          <a xlink:href="classcommand_1_1control_1_1_make_user_instruction_command__coll__graph_org.svg" target="_base">
           <rect id="button" ry="5" rx="5" y="6" x="6" height="38" width="38"
                fill="#f2f5e9" fill-opacity="0.5" stroke="#606060" stroke-width="1.0"/>
           <path id="arrow"
             d="M 11.500037,31.436501 C 11.940474,20.09759 22.043105,11.32322 32.158766,21.979434 L 37.068811,17.246167 C 37.068811,17.246167 37.088388,32 37.088388,32 L 22.160133,31.978069 C 22.160133,31.978069 26.997745,27.140456 26.997745,27.140456 C 18.528582,18.264221 13.291696,25.230495 11.500037,31.436501 z"
             style="fill:#404040;"/>
          </a>
         </g>
        </svg>
</svg>
