<?xml version="1.0" encoding="UTF-8" standalone="no"?>
<!DOCTYPE svg PUBLIC "-//W3C//DTD SVG 1.1//EN"
 "http://www.w3.org/Graphics/SVG/1.1/DTD/svg11.dtd">
<!-- Generated by graphviz version 2.36.0 (20140111.2315)
 -->
<!-- Title: ui.elements.CanvasElement Pages: 1 -->
<svg width="162pt" height="96pt"
 viewBox="0.00 0.00 162.00 96.00" xmlns="http://www.w3.org/2000/svg" xmlns:xlink="http://www.w3.org/1999/xlink">
<g id="graph0" class="graph" transform="scale(1 1) rotate(0) translate(4 92)">
<title>ui.elements.CanvasElement</title>
<polygon fill="white" stroke="none" points="-4,4 -4,-92 158,-92 158,4 -4,4"/>
<!-- Node1 -->
<g id="node1" class="node"><title>Node1</title>
<polygon fill="#bfbfbf" stroke="black" points="3.5,-0.5 3.5,-19.5 154.5,-19.5 154.5,-0.5 3.5,-0.5"/>
<text text-anchor="middle" x="79" y="-7.5" font-family="Helvetica,sans-Serif" font-size="10.00">ui.elements.CanvasElement</text>
</g>
<!-- Node2 -->
<g id="node2" class="node"><title>Node2</title>
<polygon fill="white" stroke="#bfbfbf" points="-0.5,-68.5 -0.5,-87.5 66.5,-87.5 66.5,-68.5 -0.5,-68.5"/>
<text text-anchor="middle" x="33" y="-75.5" font-family="Helvetica,sans-Serif" font-size="10.00">StackPane</text>
</g>
<!-- Node2&#45;&gt;Node1 -->
<g id="edge1" class="edge"><title>Node2&#45;&gt;Node1</title>
<path fill="none" stroke="#9a32cd" stroke-dasharray="5,2" d="M29.8668,-57.9638C29.6671,-51.2579 30.5461,-43.922 34,-38 38.7738,-29.8151 47.0956,-23.8244 55.2949,-19.5959"/>
<polygon fill="#9a32cd" stroke="#9a32cd" points="26.4267,-58.7166 30.9571,-68.294 33.388,-57.9818 26.4267,-58.7166"/>
<text text-anchor="middle" x="68.5" y="-41.5" font-family="Helvetica,sans-Serif" font-size="10.00"> canvasHolder</text>
</g>
<!-- Node3 -->
<g id="node3" class="node"><title>Node3</title>
<polygon fill="white" stroke="#bfbfbf" points="99,-68.5 99,-87.5 151,-87.5 151,-68.5 99,-68.5"/>
<text text-anchor="middle" x="125" y="-75.5" font-family="Helvetica,sans-Serif" font-size="10.00">Canvas</text>
</g>
<!-- Node3&#45;&gt;Node1 -->
<g id="edge2" class="edge"><title>Node3&#45;&gt;Node1</title>
<path fill="none" stroke="#9a32cd" stroke-dasharray="5,2" d="M115.998,-59.1974C112.281,-52.3695 107.735,-44.6308 103,-38 98.3348,-31.467 92.3348,-24.717 87.5011,-19.6002"/>
<polygon fill="#9a32cd" stroke="#9a32cd" points="113.035,-61.0827 120.778,-68.3141 119.234,-57.8323 113.035,-61.0827"/>
<text text-anchor="middle" x="129.5" y="-41.5" font-family="Helvetica,sans-Serif" font-size="10.00"> canvas</text>
</g>
</g>
</svg>
