<?xml version="1.0" encoding="UTF-8" standalone="no"?>
<!DOCTYPE svg PUBLIC "-//W3C//DTD SVG 1.1//EN"
 "http://www.w3.org/Graphics/SVG/1.1/DTD/svg11.dtd">
<!-- Generated by graphviz version 2.36.0 (20140111.2315)
 -->
<!-- Title: ui.elements.TPropertiesElement.init Pages: 1 -->
<!--zoomable 329 -->
<svg id="main" version="1.1" xmlns="http://www.w3.org/2000/svg" xmlns:xlink="http://www.w3.org/1999/xlink" xml:space="preserve" onload="init(evt)">
<style type="text/css"><![CDATA[
.edge:hover path { stroke: red; }
.edge:hover polygon { stroke: red; fill: red; }
]]></style>
<script type="text/javascript"><![CDATA[
var edges = document.getElementsByTagName('g');
if (edges && edges.length) {
  for (var i=0;i<edges.length;i++) {
    if (edges[i].id.substr(0,4)=='edge') {
      edges[i].setAttribute('class','edge');
    }
  }
}
]]></script>
        <defs>
                <circle id="rim" cx="0" cy="0" r="7"/>
                <circle id="rim2" cx="0" cy="0" r="3.5"/>
                <g id="zoomPlus">
                        <use xlink:href="#rim" fill="#404040">
                                <set attributeName="fill" to="#808080" begin="zoomplus.mouseover" end="zoomplus.mouseout"/>
                        </use>
                        <path d="M-4,0h8M0,-4v8" fill="none" stroke="white" stroke-width="1.5" pointer-events="none"/>
                </g>
                <g id="zoomMin">
                        <use xlink:href="#rim" fill="#404040">
                                <set attributeName="fill" to="#808080" begin="zoomminus.mouseover" end="zoomminus.mouseout"/>
                        </use>
                        <path d="M-4,0h8" fill="none" stroke="white" stroke-width="1.5" pointer-events="none"/>
                </g>
                <g id="dirArrow">
                        <path fill="none" stroke="white" stroke-width="1.5" d="M0,-3.0v7 M-2.5,-0.5L0,-3.0L2.5,-0.5"/>
                </g>
               <g id="resetDef">
                       <use xlink:href="#rim2" fill="#404040">
                               <set attributeName="fill" to="#808080" begin="reset.mouseover" end="reset.mouseout"/>
                       </use>
               </g>
        </defs>

<script type="text/javascript">
var viewWidth = 994;
var viewHeight = 329;
var sectionId = 'dynsection-3';
</script>
<script xlink:href="../../svgpan.js"/>
<svg id="graph" class="graph">
<g id="viewport">
<title>ui.elements.TPropertiesElement.init</title>
<polygon fill="white" stroke="none" points="-4,4 -4,-325 990,-325 990,4 -4,4"/>
<!-- Node1 -->
<g id="node1" class="node"><title>Node1</title>
<polygon fill="#bfbfbf" stroke="black" points="0.5,-142.5 0.5,-161.5 187.5,-161.5 187.5,-142.5 0.5,-142.5"/>
<text text-anchor="middle" x="94" y="-149.5" font-family="Helvetica,sans-Serif" font-size="10.00">ui.elements.TPropertiesElement.init</text>
</g>
<!-- Node2 -->
<g id="node2" class="node"><title>Node2</title>
<g id="a_node2"><a xlink:href="../../d5/db7/classutil_1_1_button_maker.html#a3e5f904585878b756ee8079ed25c94b0" target="_top" xlink:title="util.ButtonMaker.makeButton">
<polygon fill="white" stroke="black" points="246.5,-301.5 246.5,-320.5 403.5,-320.5 403.5,-301.5 246.5,-301.5"/>
<text text-anchor="middle" x="325" y="-308.5" font-family="Helvetica,sans-Serif" font-size="10.00">util.ButtonMaker.makeButton</text>
</a>
</g>
</g>
<!-- Node1&#45;&gt;Node2 -->
<g id="edge1" class="edge"><title>Node1&#45;&gt;Node2</title>
<path fill="none" stroke="midnightblue" d="M100.832,-161.671C116.888,-187.381 164.523,-257.728 224,-291 228.877,-293.728 234.071,-296.088 239.431,-298.128"/>
<polygon fill="midnightblue" stroke="midnightblue" points="238.629,-301.552 249.223,-301.466 240.887,-294.927 238.629,-301.552"/>
</g>
<!-- Node3 -->
<g id="node3" class="node"><title>Node3</title>
<g id="a_node3"><a xlink:href="../../d5/db7/classutil_1_1_button_maker.html#aa97c3a2c321870136f8a07aaa10d79e1" target="_top" xlink:title="util.ButtonMaker.makeToggle\lButton">
<polygon fill="white" stroke="black" points="247.5,-252 247.5,-282 402.5,-282 402.5,-252 247.5,-252"/>
<text text-anchor="start" x="255.5" y="-270" font-family="Helvetica,sans-Serif" font-size="10.00">util.ButtonMaker.makeToggle</text>
<text text-anchor="middle" x="325" y="-259" font-family="Helvetica,sans-Serif" font-size="10.00">Button</text>
</a>
</g>
</g>
<!-- Node1&#45;&gt;Node3 -->
<g id="edge2" class="edge"><title>Node1&#45;&gt;Node3</title>
<path fill="none" stroke="midnightblue" d="M105.877,-161.703C127.069,-180.102 176.03,-220.17 224,-242 229.374,-244.446 235.023,-246.676 240.788,-248.706"/>
<polygon fill="midnightblue" stroke="midnightblue" points="239.978,-252.124 250.571,-251.936 242.173,-245.477 239.978,-252.124"/>
</g>
<!-- Node4 -->
<g id="node4" class="node"><title>Node4</title>
<g id="a_node4"><a xlink:href="../../df/d9f/classui_1_1elements_1_1_t_properties_element.html#a186e2c50485f6712ae792ce55c21e2b0" target="_top" xlink:title="ui.elements.TPropertiesElement.make\lTurtleHeadingBox">
<polygon fill="white" stroke="black" points="225,-203 225,-233 425,-233 425,-203 225,-203"/>
<text text-anchor="start" x="233" y="-221" font-family="Helvetica,sans-Serif" font-size="10.00">ui.elements.TPropertiesElement.make</text>
<text text-anchor="middle" x="325" y="-210" font-family="Helvetica,sans-Serif" font-size="10.00">TurtleHeadingBox</text>
</a>
</g>
</g>
<!-- Node1&#45;&gt;Node4 -->
<g id="edge3" class="edge"><title>Node1&#45;&gt;Node4</title>
<path fill="none" stroke="midnightblue" d="M123.283,-161.553C149.316,-170.211 189.07,-183.094 224,-193 232.944,-195.537 242.377,-198.074 251.731,-200.506"/>
<polygon fill="midnightblue" stroke="midnightblue" points="250.871,-203.898 261.427,-202.998 252.614,-197.119 250.871,-203.898"/>
</g>
<!-- Node6 -->
<g id="node6" class="node"><title>Node6</title>
<g id="a_node6"><a xlink:href="../../dc/d3b/classui_1_1_g_u_i.html#a0337dd1c0a04ce5b2475037e66b5e3a7" target="_top" xlink:title="ui.GUI.makeTurtleView">
<polygon fill="white" stroke="black" points="264,-164.5 264,-183.5 386,-183.5 386,-164.5 264,-164.5"/>
<text text-anchor="middle" x="325" y="-171.5" font-family="Helvetica,sans-Serif" font-size="10.00">ui.GUI.makeTurtleView</text>
</a>
</g>
</g>
<!-- Node1&#45;&gt;Node6 -->
<g id="edge5" class="edge"><title>Node1&#45;&gt;Node6</title>
<path fill="none" stroke="midnightblue" d="M187.813,-160.917C209.868,-163.035 233.037,-165.261 253.884,-167.264"/>
<polygon fill="midnightblue" stroke="midnightblue" points="253.628,-170.755 263.917,-168.228 254.297,-163.787 253.628,-170.755"/>
</g>
<!-- Node13 -->
<g id="node13" class="node"><title>Node13</title>
<g id="a_node13"><a xlink:href="../../df/d9f/classui_1_1elements_1_1_t_properties_element.html#a2bb678e529943bae624e017430738bb5" target="_top" xlink:title="ui.elements.TPropertiesElement.select\lAndChangeTurtleImage">
<polygon fill="white" stroke="black" points="224.5,-115 224.5,-145 425.5,-145 425.5,-115 224.5,-115"/>
<text text-anchor="start" x="232.5" y="-133" font-family="Helvetica,sans-Serif" font-size="10.00">ui.elements.TPropertiesElement.select</text>
<text text-anchor="middle" x="325" y="-122" font-family="Helvetica,sans-Serif" font-size="10.00">AndChangeTurtleImage</text>
</a>
</g>
</g>
<!-- Node1&#45;&gt;Node13 -->
<g id="edge12" class="edge"><title>Node1&#45;&gt;Node13</title>
<path fill="none" stroke="midnightblue" d="M187.813,-143.083C196.551,-142.244 205.463,-141.388 214.337,-140.535"/>
<polygon fill="midnightblue" stroke="midnightblue" points="214.709,-144.016 224.328,-139.575 214.039,-137.048 214.709,-144.016"/>
</g>
<!-- Node15 -->
<g id="node15" class="node"><title>Node15</title>
<g id="a_node15"><a xlink:href="../../dd/de0/classui_1_1_pen.html#a533d3faf5e058dcd749609c56654777b" target="_top" xlink:title="ui.Pen.setLineStyle">
<polygon fill="white" stroke="black" points="271.5,-76.5 271.5,-95.5 378.5,-95.5 378.5,-76.5 271.5,-76.5"/>
<text text-anchor="middle" x="325" y="-83.5" font-family="Helvetica,sans-Serif" font-size="10.00">ui.Pen.setLineStyle</text>
</a>
</g>
</g>
<!-- Node1&#45;&gt;Node15 -->
<g id="edge14" class="edge"><title>Node1&#45;&gt;Node15</title>
<path fill="none" stroke="midnightblue" d="M118.445,-142.477C144.046,-132.353 186.418,-116.4 224,-106 235.983,-102.684 248.917,-99.6823 261.379,-97.0719"/>
<polygon fill="midnightblue" stroke="midnightblue" points="262.143,-100.488 271.244,-95.0638 260.747,-93.6288 262.143,-100.488"/>
</g>
<!-- Node16 -->
<g id="node16" class="node"><title>Node16</title>
<g id="a_node16"><a xlink:href="../../dd/de0/classui_1_1_pen.html#a89a103de9c8352d13ecdc11cea27069a" target="_top" xlink:title="ui.Pen.setPenIsDown">
<polygon fill="white" stroke="black" points="267,-38.5 267,-57.5 383,-57.5 383,-38.5 267,-38.5"/>
<text text-anchor="middle" x="325" y="-45.5" font-family="Helvetica,sans-Serif" font-size="10.00">ui.Pen.setPenIsDown</text>
</a>
</g>
</g>
<!-- Node1&#45;&gt;Node16 -->
<g id="edge15" class="edge"><title>Node1&#45;&gt;Node16</title>
<path fill="none" stroke="midnightblue" d="M106.208,-142.347C127.576,-124.487 176.278,-86.3486 224,-67 234.387,-62.7889 245.764,-59.4981 257.005,-56.9302"/>
<polygon fill="midnightblue" stroke="midnightblue" points="257.759,-60.3481 266.819,-54.8547 256.311,-53.4996 257.759,-60.3481"/>
</g>
<!-- Node17 -->
<g id="node17" class="node"><title>Node17</title>
<g id="a_node17"><a xlink:href="../../d3/db6/classui_1_1_turtle_view.html#a8856d717f42c043e18a5fd4232cee60e" target="_top" xlink:title="ui.TurtleView.setTurtleVisible">
<polygon fill="white" stroke="black" points="250.5,-0.5 250.5,-19.5 399.5,-19.5 399.5,-0.5 250.5,-0.5"/>
<text text-anchor="middle" x="325" y="-7.5" font-family="Helvetica,sans-Serif" font-size="10.00">ui.TurtleView.setTurtleVisible</text>
</a>
</g>
</g>
<!-- Node1&#45;&gt;Node17 -->
<g id="edge16" class="edge"><title>Node1&#45;&gt;Node17</title>
<path fill="none" stroke="midnightblue" d="M101.855,-142.408C119.274,-118.827 167.852,-57.8524 224,-29 229.236,-26.3094 234.803,-23.9973 240.525,-22.0108"/>
<polygon fill="midnightblue" stroke="midnightblue" points="241.771,-25.2885 250.272,-18.9656 239.683,-18.607 241.771,-25.2885"/>
</g>
<!-- Node5 -->
<g id="node5" class="node"><title>Node5</title>
<g id="a_node5"><a xlink:href="../../d3/db6/classui_1_1_turtle_view.html#a38bc5f9733ecbdf8d3e100740f8c5e97" target="_top" xlink:title="ui.TurtleView.getHeading">
<polygon fill="white" stroke="black" points="480.5,-270.5 480.5,-289.5 613.5,-289.5 613.5,-270.5 480.5,-270.5"/>
<text text-anchor="middle" x="547" y="-277.5" font-family="Helvetica,sans-Serif" font-size="10.00">ui.TurtleView.getHeading</text>
</a>
</g>
</g>
<!-- Node4&#45;&gt;Node5 -->
<g id="edge4" class="edge"><title>Node4&#45;&gt;Node5</title>
<path fill="none" stroke="midnightblue" d="M394.654,-233.047C405.267,-235.978 416.014,-239.306 426,-243 442.777,-249.206 445.154,-254.983 462,-261 469.326,-263.617 477.144,-265.955 484.952,-268.019"/>
<polygon fill="midnightblue" stroke="midnightblue" points="484.247,-271.45 494.798,-270.488 485.949,-264.661 484.247,-271.45"/>
</g>
<!-- Node7 -->
<g id="node7" class="node"><title>Node7</title>
<g id="a_node7"><a xlink:href="../../d5/d06/classui_1_1_scene_updater.html#a794d87263c7d233591c42f2bb7e16675" target="_top" xlink:title="ui.SceneUpdater.createTurtle">
<polygon fill="white" stroke="black" points="469.5,-232.5 469.5,-251.5 624.5,-251.5 624.5,-232.5 469.5,-232.5"/>
<text text-anchor="middle" x="547" y="-239.5" font-family="Helvetica,sans-Serif" font-size="10.00">ui.SceneUpdater.createTurtle</text>
</a>
</g>
</g>
<!-- Node6&#45;&gt;Node7 -->
<g id="edge6" class="edge"><title>Node6&#45;&gt;Node7</title>
<path fill="none" stroke="midnightblue" d="M386.12,-181.339C399.618,-184.257 413.604,-188.327 426,-194 444.431,-202.435 443.725,-213.231 462,-222 468.084,-224.919 474.626,-227.431 481.276,-229.587"/>
<polygon fill="midnightblue" stroke="midnightblue" points="480.474,-233 491.057,-232.498 482.471,-226.29 480.474,-233"/>
</g>
<!-- Node10 -->
<g id="node10" class="node"><title>Node10</title>
<g id="a_node10"><a xlink:href="../../d8/d6d/classui_1_1elements_1_1_canvas_element.html#a2e31f129014b25b8f6e3e6d76f977f99" target="_top" xlink:title="ui.elements.CanvasElement.get\lBaseNode">
<polygon fill="white" stroke="black" points="462,-183 462,-213 632,-213 632,-183 462,-183"/>
<text text-anchor="start" x="470" y="-201" font-family="Helvetica,sans-Serif" font-size="10.00">ui.elements.CanvasElement.get</text>
<text text-anchor="middle" x="547" y="-190" font-family="Helvetica,sans-Serif" font-size="10.00">BaseNode</text>
</a>
</g>
</g>
<!-- Node6&#45;&gt;Node10 -->
<g id="edge9" class="edge"><title>Node6&#45;&gt;Node10</title>
<path fill="none" stroke="midnightblue" d="M386.116,-180.558C406.306,-182.761 429.34,-185.273 451.515,-187.693"/>
<polygon fill="midnightblue" stroke="midnightblue" points="451.31,-191.191 461.63,-188.796 452.069,-184.232 451.31,-191.191"/>
</g>
<!-- Node11 -->
<g id="node11" class="node"><title>Node11</title>
<g id="a_node11"><a xlink:href="../../d6/dd8/classui_1_1elements_1_1_info_element.html#ac831e7ac05bb270f9b916f7471d0e9bb" target="_top" xlink:title="ui.elements.InfoElement.get\lBaseNode">
<polygon fill="white" stroke="black" points="471,-134 471,-164 623,-164 623,-134 471,-134"/>
<text text-anchor="start" x="479" y="-152" font-family="Helvetica,sans-Serif" font-size="10.00">ui.elements.InfoElement.get</text>
<text text-anchor="middle" x="547" y="-141" font-family="Helvetica,sans-Serif" font-size="10.00">BaseNode</text>
</a>
</g>
</g>
<!-- Node6&#45;&gt;Node11 -->
<g id="edge10" class="edge"><title>Node6&#45;&gt;Node11</title>
<path fill="none" stroke="midnightblue" d="M386.116,-167.169C409.038,-164.564 435.627,-161.542 460.464,-158.72"/>
<polygon fill="midnightblue" stroke="midnightblue" points="461.075,-162.173 470.616,-157.566 460.284,-155.218 461.075,-162.173"/>
</g>
<!-- Node12 -->
<g id="node12" class="node"><title>Node12</title>
<g id="a_node12"><a xlink:href="../../d8/d6d/classui_1_1elements_1_1_canvas_element.html#a0bd90830736ace544582f1fe98dc929f" target="_top" xlink:title="ui.elements.CanvasElement.get\lCanvas">
<polygon fill="white" stroke="black" points="462,-85 462,-115 632,-115 632,-85 462,-85"/>
<text text-anchor="start" x="470" y="-103" font-family="Helvetica,sans-Serif" font-size="10.00">ui.elements.CanvasElement.get</text>
<text text-anchor="middle" x="547" y="-92" font-family="Helvetica,sans-Serif" font-size="10.00">Canvas</text>
</a>
</g>
</g>
<!-- Node6&#45;&gt;Node12 -->
<g id="edge11" class="edge"><title>Node6&#45;&gt;Node12</title>
<path fill="none" stroke="midnightblue" d="M386.191,-166.816C399.686,-163.891 413.653,-159.779 426,-154 444.608,-145.291 443.811,-134.555 462,-125 466.239,-122.773 470.705,-120.716 475.278,-118.821"/>
<polygon fill="midnightblue" stroke="midnightblue" points="476.709,-122.02 484.778,-115.154 474.188,-115.49 476.709,-122.02"/>
</g>
<!-- Node8 -->
<g id="node8" class="node"><title>Node8</title>
<g id="a_node8"><a xlink:href="../../d9/df7/classcontroller_1_1_controller.html#a5ff29de29dce4cc460b69294c764adc8" target="_top" xlink:title="controller.Controller.create\lTurtle">
<polygon fill="white" stroke="black" points="668.5,-227 668.5,-257 811.5,-257 811.5,-227 668.5,-227"/>
<text text-anchor="start" x="676.5" y="-245" font-family="Helvetica,sans-Serif" font-size="10.00">controller.Controller.create</text>
<text text-anchor="middle" x="740" y="-234" font-family="Helvetica,sans-Serif" font-size="10.00">Turtle</text>
</a>
</g>
</g>
<!-- Node7&#45;&gt;Node8 -->
<g id="edge7" class="edge"><title>Node7&#45;&gt;Node8</title>
<path fill="none" stroke="midnightblue" d="M624.586,-242C635.631,-242 647.028,-242 658.153,-242"/>
<polygon fill="midnightblue" stroke="midnightblue" points="658.275,-245.5 668.275,-242 658.275,-238.5 658.275,-245.5"/>
</g>
<!-- Node9 -->
<g id="node9" class="node"><title>Node9</title>
<g id="a_node9"><a xlink:href="../../d9/d88/classmodel_1_1_tree_interpreter.html#a3a8c43b61bf2582fe495cae3f27c2c06" target="_top" xlink:title="model.TreeInterpreter.get\lTurtleList">
<polygon fill="white" stroke="black" points="848,-227 848,-257 986,-257 986,-227 848,-227"/>
<text text-anchor="start" x="856" y="-245" font-family="Helvetica,sans-Serif" font-size="10.00">model.TreeInterpreter.get</text>
<text text-anchor="middle" x="917" y="-234" font-family="Helvetica,sans-Serif" font-size="10.00">TurtleList</text>
</a>
</g>
</g>
<!-- Node8&#45;&gt;Node9 -->
<g id="edge8" class="edge"><title>Node8&#45;&gt;Node9</title>
<path fill="none" stroke="midnightblue" d="M811.675,-242C820.266,-242 829.081,-242 837.774,-242"/>
<polygon fill="midnightblue" stroke="midnightblue" points="837.9,-245.5 847.9,-242 837.9,-238.5 837.9,-245.5"/>
</g>
<!-- Node14 -->
<g id="node14" class="node"><title>Node14</title>
<g id="a_node14"><a xlink:href="../../d3/db6/classui_1_1_turtle_view.html#a70ae18d781be20931f64ddc2a54b5808" target="_top" xlink:title="ui.TurtleView.setImage">
<polygon fill="white" stroke="black" points="486,-46.5 486,-65.5 608,-65.5 608,-46.5 486,-46.5"/>
<text text-anchor="middle" x="547" y="-53.5" font-family="Helvetica,sans-Serif" font-size="10.00">ui.TurtleView.setImage</text>
</a>
</g>
</g>
<!-- Node13&#45;&gt;Node14 -->
<g id="edge13" class="edge"><title>Node13&#45;&gt;Node14</title>
<path fill="none" stroke="midnightblue" d="M401.276,-114.97C409.813,-112.163 418.229,-108.865 426,-105 444.396,-95.8503 443.553,-85.0462 462,-76 467.741,-73.1845 473.902,-70.7519 480.182,-68.6529"/>
<polygon fill="midnightblue" stroke="midnightblue" points="481.565,-71.8903 490.106,-65.6219 479.52,-65.1955 481.565,-71.8903"/>
</g>
</g>
</svg>
        <g id="navigator" transform="translate(0 0)" fill="#404254">
                <rect fill="#f2f5e9" fill-opacity="0.5" stroke="#606060" stroke-width=".5" x="0" y="0" width="60" height="60"/>
                <use id="zoomplus" xlink:href="#zoomPlus" x="17" y="9" onmousedown="handleZoom(evt,'in')"/>
                <use id="zoomminus" xlink:href="#zoomMin" x="42" y="9" onmousedown="handleZoom(evt,'out')"/>
                <use id="reset" xlink:href="#resetDef" x="30" y="36" onmousedown="handleReset()"/>
                <g id="arrowUp" xlink:href="#dirArrow" transform="translate(30 24)" onmousedown="handlePan(0,-1)">
                  <use xlink:href="#rim" fill="#404040">
                        <set attributeName="fill" to="#808080" begin="arrowUp.mouseover" end="arrowUp.mouseout"/>
                  </use>
                  <path fill="none" stroke="white" stroke-width="1.5" d="M0,-3.0v7 M-2.5,-0.5L0,-3.0L2.5,-0.5"/>
                </g>
                <g id="arrowRight" xlink:href="#dirArrow" transform="rotate(90) translate(36 -43)" onmousedown="handlePan(1,0)">
                  <use xlink:href="#rim" fill="#404040">
                        <set attributeName="fill" to="#808080" begin="arrowRight.mouseover" end="arrowRight.mouseout"/>
                  </use>
                  <path fill="none" stroke="white" stroke-width="1.5" d="M0,-3.0v7 M-2.5,-0.5L0,-3.0L2.5,-0.5"/>
                </g>
                <g id="arrowDown" xlink:href="#dirArrow" transform="rotate(180) translate(-30 -48)" onmousedown="handlePan(0,1)">
                  <use xlink:href="#rim" fill="#404040">
                        <set attributeName="fill" to="#808080" begin="arrowDown.mouseover" end="arrowDown.mouseout"/>
                  </use>
                  <path fill="none" stroke="white" stroke-width="1.5" d="M0,-3.0v7 M-2.5,-0.5L0,-3.0L2.5,-0.5"/>
                </g>
                <g id="arrowLeft" xlink:href="#dirArrow" transform="rotate(270) translate(-36 17)" onmousedown="handlePan(-1,0)">
                  <use xlink:href="#rim" fill="#404040">
                        <set attributeName="fill" to="#808080" begin="arrowLeft.mouseover" end="arrowLeft.mouseout"/>
                  </use>
                  <path fill="none" stroke="white" stroke-width="1.5" d="M0,-3.0v7 M-2.5,-0.5L0,-3.0L2.5,-0.5"/>
                </g>
        </g>
        <svg viewBox="0 0 15 15" width="100%" height="30px" preserveAspectRatio="xMaxYMin meet">
         <g id="arrow_out" transform="scale(0.3 0.3)">
          <a xlink:href="classui_1_1elements_1_1_t_properties_element_aa9783f0d27dd4082e08b8a23d60883fe_cgraph_org.svg" target="_base">
           <rect id="button" ry="5" rx="5" y="6" x="6" height="38" width="38"
                fill="#f2f5e9" fill-opacity="0.5" stroke="#606060" stroke-width="1.0"/>
           <path id="arrow"
             d="M 11.500037,31.436501 C 11.940474,20.09759 22.043105,11.32322 32.158766,21.979434 L 37.068811,17.246167 C 37.068811,17.246167 37.088388,32 37.088388,32 L 22.160133,31.978069 C 22.160133,31.978069 26.997745,27.140456 26.997745,27.140456 C 18.528582,18.264221 13.291696,25.230495 11.500037,31.436501 z"
             style="fill:#404040;"/>
          </a>
         </g>
        </svg>
</svg>
