<?xml version="1.0" encoding="UTF-8" standalone="no"?>
<!DOCTYPE svg PUBLIC "-//W3C//DTD SVG 1.1//EN"
 "http://www.w3.org/Graphics/SVG/1.1/DTD/svg11.dtd">
<!-- Generated by graphviz version 2.36.0 (20140111.2315)
 -->
<!-- Title: ui.elements.TPropertiesElement.TPropertiesElement Pages: 1 -->
<!--zoomable 358 -->
<svg id="main" version="1.1" xmlns="http://www.w3.org/2000/svg" xmlns:xlink="http://www.w3.org/1999/xlink" xml:space="preserve" onload="init(evt)">
<style type="text/css"><![CDATA[
.edge:hover path { stroke: red; }
.edge:hover polygon { stroke: red; fill: red; }
]]></style>
<script type="text/javascript"><![CDATA[
var edges = document.getElementsByTagName('g');
if (edges && edges.length) {
  for (var i=0;i<edges.length;i++) {
    if (edges[i].id.substr(0,4)=='edge') {
      edges[i].setAttribute('class','edge');
    }
  }
}
]]></script>
        <defs>
                <circle id="rim" cx="0" cy="0" r="7"/>
                <circle id="rim2" cx="0" cy="0" r="3.5"/>
                <g id="zoomPlus">
                        <use xlink:href="#rim" fill="#404040">
                                <set attributeName="fill" to="#808080" begin="zoomplus.mouseover" end="zoomplus.mouseout"/>
                        </use>
                        <path d="M-4,0h8M0,-4v8" fill="none" stroke="white" stroke-width="1.5" pointer-events="none"/>
                </g>
                <g id="zoomMin">
                        <use xlink:href="#rim" fill="#404040">
                                <set attributeName="fill" to="#808080" begin="zoomminus.mouseover" end="zoomminus.mouseout"/>
                        </use>
                        <path d="M-4,0h8" fill="none" stroke="white" stroke-width="1.5" pointer-events="none"/>
                </g>
                <g id="dirArrow">
                        <path fill="none" stroke="white" stroke-width="1.5" d="M0,-3.0v7 M-2.5,-0.5L0,-3.0L2.5,-0.5"/>
                </g>
               <g id="resetDef">
                       <use xlink:href="#rim2" fill="#404040">
                               <set attributeName="fill" to="#808080" begin="reset.mouseover" end="reset.mouseout"/>
                       </use>
               </g>
        </defs>

<script type="text/javascript">
var viewWidth = 1204;
var viewHeight = 358;
var sectionId = 'dynsection-1';
</script>
<script xlink:href="../../svgpan.js"/>
<svg id="graph" class="graph">
<g id="viewport">
<title>ui.elements.TPropertiesElement.TPropertiesElement</title>
<polygon fill="white" stroke="none" points="-4,4 -4,-354 1200,-354 1200,4 -4,4"/>
<!-- Node1 -->
<g id="node1" class="node"><title>Node1</title>
<polygon fill="#bfbfbf" stroke="black" points="0.5,-178 0.5,-208 173.5,-208 173.5,-178 0.5,-178"/>
<text text-anchor="start" x="8.5" y="-196" font-family="Helvetica,sans-Serif" font-size="10.00">ui.elements.TPropertiesElement.</text>
<text text-anchor="middle" x="87" y="-185" font-family="Helvetica,sans-Serif" font-size="10.00">TPropertiesElement</text>
</g>
<!-- Node2 -->
<g id="node2" class="node"><title>Node2</title>
<g id="a_node2"><a xlink:href="../../df/d9f/classui_1_1elements_1_1_t_properties_element.html#aa9783f0d27dd4082e08b8a23d60883fe" target="_top" xlink:title="ui.elements.TPropertiesElement.init">
<polygon fill="white" stroke="black" points="210.5,-183.5 210.5,-202.5 397.5,-202.5 397.5,-183.5 210.5,-183.5"/>
<text text-anchor="middle" x="304" y="-190.5" font-family="Helvetica,sans-Serif" font-size="10.00">ui.elements.TPropertiesElement.init</text>
</a>
</g>
</g>
<!-- Node1&#45;&gt;Node2 -->
<g id="edge1" class="edge"><title>Node1&#45;&gt;Node2</title>
<path fill="none" stroke="midnightblue" d="M173.591,-193C182.355,-193 191.321,-193 200.244,-193"/>
<polygon fill="midnightblue" stroke="midnightblue" points="200.286,-196.5 210.286,-193 200.286,-189.5 200.286,-196.5"/>
</g>
<!-- Node3 -->
<g id="node3" class="node"><title>Node3</title>
<g id="a_node3"><a xlink:href="../../d5/db7/classutil_1_1_button_maker.html#aa97c3a2c321870136f8a07aaa10d79e1" target="_top" xlink:title="util.ButtonMaker.makeToggle\lButton">
<polygon fill="white" stroke="black" points="457.5,-320 457.5,-350 612.5,-350 612.5,-320 457.5,-320"/>
<text text-anchor="start" x="465.5" y="-338" font-family="Helvetica,sans-Serif" font-size="10.00">util.ButtonMaker.makeToggle</text>
<text text-anchor="middle" x="535" y="-327" font-family="Helvetica,sans-Serif" font-size="10.00">Button</text>
</a>
</g>
</g>
<!-- Node2&#45;&gt;Node3 -->
<g id="edge2" class="edge"><title>Node2&#45;&gt;Node3</title>
<path fill="none" stroke="midnightblue" d="M312.608,-202.579C330.958,-225.009 380.135,-281.212 434,-310 438.472,-312.39 443.18,-314.557 448.015,-316.522"/>
<polygon fill="midnightblue" stroke="midnightblue" points="446.852,-319.824 457.444,-320.055 449.308,-313.269 446.852,-319.824"/>
</g>
<!-- Node4 -->
<g id="node4" class="node"><title>Node4</title>
<g id="a_node4"><a xlink:href="../../dd/de0/classui_1_1_pen.html#a89a103de9c8352d13ecdc11cea27069a" target="_top" xlink:title="ui.Pen.setPenIsDown">
<polygon fill="white" stroke="black" points="477,-281.5 477,-300.5 593,-300.5 593,-281.5 477,-281.5"/>
<text text-anchor="middle" x="535" y="-288.5" font-family="Helvetica,sans-Serif" font-size="10.00">ui.Pen.setPenIsDown</text>
</a>
</g>
</g>
<!-- Node2&#45;&gt;Node4 -->
<g id="edge3" class="edge"><title>Node2&#45;&gt;Node4</title>
<path fill="none" stroke="midnightblue" d="M317.369,-202.726C339.452,-219.579 387.699,-254.115 434,-272 444.455,-276.039 455.867,-279.242 467.121,-281.777"/>
<polygon fill="midnightblue" stroke="midnightblue" points="466.436,-285.209 476.941,-283.836 467.872,-278.358 466.436,-285.209"/>
</g>
<!-- Node5 -->
<g id="node5" class="node"><title>Node5</title>
<g id="a_node5"><a xlink:href="../../d3/db6/classui_1_1_turtle_view.html#a8856d717f42c043e18a5fd4232cee60e" target="_top" xlink:title="ui.TurtleView.setTurtleVisible">
<polygon fill="white" stroke="black" points="460.5,-243.5 460.5,-262.5 609.5,-262.5 609.5,-243.5 460.5,-243.5"/>
<text text-anchor="middle" x="535" y="-250.5" font-family="Helvetica,sans-Serif" font-size="10.00">ui.TurtleView.setTurtleVisible</text>
</a>
</g>
</g>
<!-- Node2&#45;&gt;Node5 -->
<g id="edge4" class="edge"><title>Node2&#45;&gt;Node5</title>
<path fill="none" stroke="midnightblue" d="M331.908,-202.593C357.817,-211.582 398.232,-224.953 434,-234 444.69,-236.704 456.11,-239.219 467.269,-241.476"/>
<polygon fill="midnightblue" stroke="midnightblue" points="466.927,-244.975 477.415,-243.474 468.28,-238.107 466.927,-244.975"/>
</g>
<!-- Node6 -->
<g id="node6" class="node"><title>Node6</title>
<g id="a_node6"><a xlink:href="../../d5/db7/classutil_1_1_button_maker.html#a3e5f904585878b756ee8079ed25c94b0" target="_top" xlink:title="util.ButtonMaker.makeButton">
<polygon fill="white" stroke="black" points="456.5,-205.5 456.5,-224.5 613.5,-224.5 613.5,-205.5 456.5,-205.5"/>
<text text-anchor="middle" x="535" y="-212.5" font-family="Helvetica,sans-Serif" font-size="10.00">util.ButtonMaker.makeButton</text>
</a>
</g>
</g>
<!-- Node2&#45;&gt;Node6 -->
<g id="edge5" class="edge"><title>Node2&#45;&gt;Node6</title>
<path fill="none" stroke="midnightblue" d="M397.813,-201.917C413.78,-203.451 430.332,-205.041 446.163,-206.562"/>
<polygon fill="midnightblue" stroke="midnightblue" points="446.16,-210.077 456.449,-207.55 446.83,-203.109 446.16,-210.077"/>
</g>
<!-- Node7 -->
<g id="node7" class="node"><title>Node7</title>
<g id="a_node7"><a xlink:href="../../df/d9f/classui_1_1elements_1_1_t_properties_element.html#a2bb678e529943bae624e017430738bb5" target="_top" xlink:title="ui.elements.TPropertiesElement.select\lAndChangeTurtleImage">
<polygon fill="white" stroke="black" points="434.5,-156 434.5,-186 635.5,-186 635.5,-156 434.5,-156"/>
<text text-anchor="start" x="442.5" y="-174" font-family="Helvetica,sans-Serif" font-size="10.00">ui.elements.TPropertiesElement.select</text>
<text text-anchor="middle" x="535" y="-163" font-family="Helvetica,sans-Serif" font-size="10.00">AndChangeTurtleImage</text>
</a>
</g>
</g>
<!-- Node2&#45;&gt;Node7 -->
<g id="edge6" class="edge"><title>Node2&#45;&gt;Node7</title>
<path fill="none" stroke="midnightblue" d="M397.813,-184.083C406.551,-183.244 415.463,-182.388 424.337,-181.535"/>
<polygon fill="midnightblue" stroke="midnightblue" points="424.709,-185.016 434.328,-180.575 424.039,-178.048 424.709,-185.016"/>
</g>
<!-- Node9 -->
<g id="node9" class="node"><title>Node9</title>
<g id="a_node9"><a xlink:href="../../dc/d3b/classui_1_1_g_u_i.html#a0337dd1c0a04ce5b2475037e66b5e3a7" target="_top" xlink:title="ui.GUI.makeTurtleView">
<polygon fill="white" stroke="black" points="474,-117.5 474,-136.5 596,-136.5 596,-117.5 474,-117.5"/>
<text text-anchor="middle" x="535" y="-124.5" font-family="Helvetica,sans-Serif" font-size="10.00">ui.GUI.makeTurtleView</text>
</a>
</g>
</g>
<!-- Node2&#45;&gt;Node9 -->
<g id="edge8" class="edge"><title>Node2&#45;&gt;Node9</title>
<path fill="none" stroke="midnightblue" d="M327.938,-183.362C353.452,-172.944 396.081,-156.436 434,-146 444.007,-143.246 454.685,-140.755 465.2,-138.553"/>
<polygon fill="midnightblue" stroke="midnightblue" points="466.097,-141.942 475.205,-136.53 464.709,-135.081 466.097,-141.942"/>
</g>
<!-- Node16 -->
<g id="node16" class="node"><title>Node16</title>
<g id="a_node16"><a xlink:href="../../dd/de0/classui_1_1_pen.html#a533d3faf5e058dcd749609c56654777b" target="_top" xlink:title="ui.Pen.setLineStyle">
<polygon fill="white" stroke="black" points="481.5,-79.5 481.5,-98.5 588.5,-98.5 588.5,-79.5 481.5,-79.5"/>
<text text-anchor="middle" x="535" y="-86.5" font-family="Helvetica,sans-Serif" font-size="10.00">ui.Pen.setLineStyle</text>
</a>
</g>
</g>
<!-- Node2&#45;&gt;Node16 -->
<g id="edge15" class="edge"><title>Node2&#45;&gt;Node16</title>
<path fill="none" stroke="midnightblue" d="M316.208,-183.347C337.576,-165.487 386.278,-127.349 434,-108 445.759,-103.232 458.789,-99.6443 471.452,-96.9494"/>
<polygon fill="midnightblue" stroke="midnightblue" points="472.36,-100.338 481.497,-94.9742 471.01,-93.4694 472.36,-100.338"/>
</g>
<!-- Node17 -->
<g id="node17" class="node"><title>Node17</title>
<g id="a_node17"><a xlink:href="../../df/d9f/classui_1_1elements_1_1_t_properties_element.html#a186e2c50485f6712ae792ce55c21e2b0" target="_top" xlink:title="ui.elements.TPropertiesElement.make\lTurtleHeadingBox">
<polygon fill="white" stroke="black" points="435,-25 435,-55 635,-55 635,-25 435,-25"/>
<text text-anchor="start" x="443" y="-43" font-family="Helvetica,sans-Serif" font-size="10.00">ui.elements.TPropertiesElement.make</text>
<text text-anchor="middle" x="535" y="-32" font-family="Helvetica,sans-Serif" font-size="10.00">TurtleHeadingBox</text>
</a>
</g>
</g>
<!-- Node2&#45;&gt;Node17 -->
<g id="edge16" class="edge"><title>Node2&#45;&gt;Node17</title>
<path fill="none" stroke="midnightblue" d="M312.315,-183.426C330.397,-160.413 379.69,-101.568 434,-70 441.571,-65.599 449.847,-61.7907 458.291,-58.508"/>
<polygon fill="midnightblue" stroke="midnightblue" points="459.669,-61.7313 467.868,-55.0215 457.274,-55.1536 459.669,-61.7313"/>
</g>
<!-- Node8 -->
<g id="node8" class="node"><title>Node8</title>
<g id="a_node8"><a xlink:href="../../d3/db6/classui_1_1_turtle_view.html#a70ae18d781be20931f64ddc2a54b5808" target="_top" xlink:title="ui.TurtleView.setImage">
<polygon fill="white" stroke="black" points="696,-224.5 696,-243.5 818,-243.5 818,-224.5 696,-224.5"/>
<text text-anchor="middle" x="757" y="-231.5" font-family="Helvetica,sans-Serif" font-size="10.00">ui.TurtleView.setImage</text>
</a>
</g>
</g>
<!-- Node7&#45;&gt;Node8 -->
<g id="edge7" class="edge"><title>Node7&#45;&gt;Node8</title>
<path fill="none" stroke="midnightblue" d="M605.261,-186.003C615.691,-188.924 626.222,-192.26 636,-196 652.898,-202.463 655.03,-208.728 672,-215 679.021,-217.595 686.508,-219.902 694.011,-221.934"/>
<polygon fill="midnightblue" stroke="midnightblue" points="693.29,-225.362 703.845,-224.447 695.024,-218.58 693.29,-225.362"/>
</g>
<!-- Node10 -->
<g id="node10" class="node"><title>Node10</title>
<g id="a_node10"><a xlink:href="../../d5/d06/classui_1_1_scene_updater.html#a794d87263c7d233591c42f2bb7e16675" target="_top" xlink:title="ui.SceneUpdater.createTurtle">
<polygon fill="white" stroke="black" points="679.5,-186.5 679.5,-205.5 834.5,-205.5 834.5,-186.5 679.5,-186.5"/>
<text text-anchor="middle" x="757" y="-193.5" font-family="Helvetica,sans-Serif" font-size="10.00">ui.SceneUpdater.createTurtle</text>
</a>
</g>
</g>
<!-- Node9&#45;&gt;Node10 -->
<g id="edge9" class="edge"><title>Node9&#45;&gt;Node10</title>
<path fill="none" stroke="midnightblue" d="M596.255,-133.354C609.747,-136.154 623.696,-140.189 636,-146 654.832,-154.895 653.377,-166.675 672,-176 677.718,-178.863 683.862,-181.327 690.133,-183.446"/>
<polygon fill="midnightblue" stroke="midnightblue" points="689.459,-186.901 700.046,-186.499 691.519,-180.211 689.459,-186.901"/>
</g>
<!-- Node13 -->
<g id="node13" class="node"><title>Node13</title>
<g id="a_node13"><a xlink:href="../../d8/d6d/classui_1_1elements_1_1_canvas_element.html#a2e31f129014b25b8f6e3e6d76f977f99" target="_top" xlink:title="ui.elements.CanvasElement.get\lBaseNode">
<polygon fill="white" stroke="black" points="672,-137 672,-167 842,-167 842,-137 672,-137"/>
<text text-anchor="start" x="680" y="-155" font-family="Helvetica,sans-Serif" font-size="10.00">ui.elements.CanvasElement.get</text>
<text text-anchor="middle" x="757" y="-144" font-family="Helvetica,sans-Serif" font-size="10.00">BaseNode</text>
</a>
</g>
</g>
<!-- Node9&#45;&gt;Node13 -->
<g id="edge12" class="edge"><title>Node9&#45;&gt;Node13</title>
<path fill="none" stroke="midnightblue" d="M596.116,-133.831C616.306,-136.126 639.34,-138.743 661.515,-141.263"/>
<polygon fill="midnightblue" stroke="midnightblue" points="661.299,-144.761 671.63,-142.413 662.09,-137.806 661.299,-144.761"/>
</g>
<!-- Node14 -->
<g id="node14" class="node"><title>Node14</title>
<g id="a_node14"><a xlink:href="../../d6/dd8/classui_1_1elements_1_1_info_element.html#ac831e7ac05bb270f9b916f7471d0e9bb" target="_top" xlink:title="ui.elements.InfoElement.get\lBaseNode">
<polygon fill="white" stroke="black" points="681,-88 681,-118 833,-118 833,-88 681,-88"/>
<text text-anchor="start" x="689" y="-106" font-family="Helvetica,sans-Serif" font-size="10.00">ui.elements.InfoElement.get</text>
<text text-anchor="middle" x="757" y="-95" font-family="Helvetica,sans-Serif" font-size="10.00">BaseNode</text>
</a>
</g>
</g>
<!-- Node9&#45;&gt;Node14 -->
<g id="edge13" class="edge"><title>Node9&#45;&gt;Node14</title>
<path fill="none" stroke="midnightblue" d="M596.116,-120.442C619.038,-117.941 645.627,-115.041 670.464,-112.331"/>
<polygon fill="midnightblue" stroke="midnightblue" points="671.054,-115.788 680.616,-111.224 670.295,-108.829 671.054,-115.788"/>
</g>
<!-- Node15 -->
<g id="node15" class="node"><title>Node15</title>
<g id="a_node15"><a xlink:href="../../d8/d6d/classui_1_1elements_1_1_canvas_element.html#a0bd90830736ace544582f1fe98dc929f" target="_top" xlink:title="ui.elements.CanvasElement.get\lCanvas">
<polygon fill="white" stroke="black" points="672,-39 672,-69 842,-69 842,-39 672,-39"/>
<text text-anchor="start" x="680" y="-57" font-family="Helvetica,sans-Serif" font-size="10.00">ui.elements.CanvasElement.get</text>
<text text-anchor="middle" x="757" y="-46" font-family="Helvetica,sans-Serif" font-size="10.00">Canvas</text>
</a>
</g>
</g>
<!-- Node9&#45;&gt;Node15 -->
<g id="edge14" class="edge"><title>Node9&#45;&gt;Node15</title>
<path fill="none" stroke="midnightblue" d="M596.255,-120.646C609.747,-117.846 623.696,-113.811 636,-108 654.832,-99.1053 653.589,-87.7379 672,-78 675.519,-76.1385 679.2,-74.4065 682.972,-72.7968"/>
<polygon fill="midnightblue" stroke="midnightblue" points="684.476,-75.9662 692.497,-69.044 681.91,-69.4535 684.476,-75.9662"/>
</g>
<!-- Node11 -->
<g id="node11" class="node"><title>Node11</title>
<g id="a_node11"><a xlink:href="../../d9/df7/classcontroller_1_1_controller.html#a5ff29de29dce4cc460b69294c764adc8" target="_top" xlink:title="controller.Controller.create\lTurtle">
<polygon fill="white" stroke="black" points="878.5,-181 878.5,-211 1021.5,-211 1021.5,-181 878.5,-181"/>
<text text-anchor="start" x="886.5" y="-199" font-family="Helvetica,sans-Serif" font-size="10.00">controller.Controller.create</text>
<text text-anchor="middle" x="950" y="-188" font-family="Helvetica,sans-Serif" font-size="10.00">Turtle</text>
</a>
</g>
</g>
<!-- Node10&#45;&gt;Node11 -->
<g id="edge10" class="edge"><title>Node10&#45;&gt;Node11</title>
<path fill="none" stroke="midnightblue" d="M834.586,-196C845.631,-196 857.028,-196 868.153,-196"/>
<polygon fill="midnightblue" stroke="midnightblue" points="868.275,-199.5 878.275,-196 868.275,-192.5 868.275,-199.5"/>
</g>
<!-- Node12 -->
<g id="node12" class="node"><title>Node12</title>
<g id="a_node12"><a xlink:href="../../d9/d88/classmodel_1_1_tree_interpreter.html#a3a8c43b61bf2582fe495cae3f27c2c06" target="_top" xlink:title="model.TreeInterpreter.get\lTurtleList">
<polygon fill="white" stroke="black" points="1058,-181 1058,-211 1196,-211 1196,-181 1058,-181"/>
<text text-anchor="start" x="1066" y="-199" font-family="Helvetica,sans-Serif" font-size="10.00">model.TreeInterpreter.get</text>
<text text-anchor="middle" x="1127" y="-188" font-family="Helvetica,sans-Serif" font-size="10.00">TurtleList</text>
</a>
</g>
</g>
<!-- Node11&#45;&gt;Node12 -->
<g id="edge11" class="edge"><title>Node11&#45;&gt;Node12</title>
<path fill="none" stroke="midnightblue" d="M1021.67,-196C1030.27,-196 1039.08,-196 1047.77,-196"/>
<polygon fill="midnightblue" stroke="midnightblue" points="1047.9,-199.5 1057.9,-196 1047.9,-192.5 1047.9,-199.5"/>
</g>
<!-- Node18 -->
<g id="node18" class="node"><title>Node18</title>
<g id="a_node18"><a xlink:href="../../d3/db6/classui_1_1_turtle_view.html#a38bc5f9733ecbdf8d3e100740f8c5e97" target="_top" xlink:title="ui.TurtleView.getHeading">
<polygon fill="white" stroke="black" points="690.5,-0.5 690.5,-19.5 823.5,-19.5 823.5,-0.5 690.5,-0.5"/>
<text text-anchor="middle" x="757" y="-7.5" font-family="Helvetica,sans-Serif" font-size="10.00">ui.TurtleView.getHeading</text>
</a>
</g>
</g>
<!-- Node17&#45;&gt;Node18 -->
<g id="edge17" class="edge"><title>Node17&#45;&gt;Node18</title>
<path fill="none" stroke="midnightblue" d="M635.059,-26.4919C650.256,-24.4196 665.735,-22.3089 680.319,-20.3202"/>
<polygon fill="midnightblue" stroke="midnightblue" points="680.823,-23.7839 690.258,-18.9648 679.877,-16.8481 680.823,-23.7839"/>
</g>
</g>
</svg>
        <g id="navigator" transform="translate(0 0)" fill="#404254">
                <rect fill="#f2f5e9" fill-opacity="0.5" stroke="#606060" stroke-width=".5" x="0" y="0" width="60" height="60"/>
                <use id="zoomplus" xlink:href="#zoomPlus" x="17" y="9" onmousedown="handleZoom(evt,'in')"/>
                <use id="zoomminus" xlink:href="#zoomMin" x="42" y="9" onmousedown="handleZoom(evt,'out')"/>
                <use id="reset" xlink:href="#resetDef" x="30" y="36" onmousedown="handleReset()"/>
                <g id="arrowUp" xlink:href="#dirArrow" transform="translate(30 24)" onmousedown="handlePan(0,-1)">
                  <use xlink:href="#rim" fill="#404040">
                        <set attributeName="fill" to="#808080" begin="arrowUp.mouseover" end="arrowUp.mouseout"/>
                  </use>
                  <path fill="none" stroke="white" stroke-width="1.5" d="M0,-3.0v7 M-2.5,-0.5L0,-3.0L2.5,-0.5"/>
                </g>
                <g id="arrowRight" xlink:href="#dirArrow" transform="rotate(90) translate(36 -43)" onmousedown="handlePan(1,0)">
                  <use xlink:href="#rim" fill="#404040">
                        <set attributeName="fill" to="#808080" begin="arrowRight.mouseover" end="arrowRight.mouseout"/>
                  </use>
                  <path fill="none" stroke="white" stroke-width="1.5" d="M0,-3.0v7 M-2.5,-0.5L0,-3.0L2.5,-0.5"/>
                </g>
                <g id="arrowDown" xlink:href="#dirArrow" transform="rotate(180) translate(-30 -48)" onmousedown="handlePan(0,1)">
                  <use xlink:href="#rim" fill="#404040">
                        <set attributeName="fill" to="#808080" begin="arrowDown.mouseover" end="arrowDown.mouseout"/>
                  </use>
                  <path fill="none" stroke="white" stroke-width="1.5" d="M0,-3.0v7 M-2.5,-0.5L0,-3.0L2.5,-0.5"/>
                </g>
                <g id="arrowLeft" xlink:href="#dirArrow" transform="rotate(270) translate(-36 17)" onmousedown="handlePan(-1,0)">
                  <use xlink:href="#rim" fill="#404040">
                        <set attributeName="fill" to="#808080" begin="arrowLeft.mouseover" end="arrowLeft.mouseout"/>
                  </use>
                  <path fill="none" stroke="white" stroke-width="1.5" d="M0,-3.0v7 M-2.5,-0.5L0,-3.0L2.5,-0.5"/>
                </g>
        </g>
        <svg viewBox="0 0 15 15" width="100%" height="30px" preserveAspectRatio="xMaxYMin meet">
         <g id="arrow_out" transform="scale(0.3 0.3)">
          <a xlink:href="classui_1_1elements_1_1_t_properties_element_a6c665abf2d1d12f6cc29c03f0b428efb_cgraph_org.svg" target="_base">
           <rect id="button" ry="5" rx="5" y="6" x="6" height="38" width="38"
                fill="#f2f5e9" fill-opacity="0.5" stroke="#606060" stroke-width="1.0"/>
           <path id="arrow"
             d="M 11.500037,31.436501 C 11.940474,20.09759 22.043105,11.32322 32.158766,21.979434 L 37.068811,17.246167 C 37.068811,17.246167 37.088388,32 37.088388,32 L 22.160133,31.978069 C 22.160133,31.978069 26.997745,27.140456 26.997745,27.140456 C 18.528582,18.264221 13.291696,25.230495 11.500037,31.436501 z"
             style="fill:#404040;"/>
          </a>
         </g>
        </svg>
</svg>
