<?xml version="1.0" encoding="UTF-8" standalone="no"?>
<!DOCTYPE svg PUBLIC "-//W3C//DTD SVG 1.1//EN"
 "http://www.w3.org/Graphics/SVG/1.1/DTD/svg11.dtd">
<!-- Generated by graphviz version 2.36.0 (20140111.2315)
 -->
<!-- Title: ui.elements.TPropertiesElement.getMyBaseNode Pages: 1 -->
<svg width="2042pt" height="77pt"
 viewBox="0.00 0.00 2042.00 77.00" xmlns="http://www.w3.org/2000/svg" xmlns:xlink="http://www.w3.org/1999/xlink">
<g id="graph0" class="graph" transform="scale(1 1) rotate(0) translate(4 73)">
<title>ui.elements.TPropertiesElement.getMyBaseNode</title>
<polygon fill="white" stroke="none" points="-4,4 -4,-73 2038,-73 2038,4 -4,4"/>
<!-- Node1 -->
<g id="node1" class="node"><title>Node1</title>
<polygon fill="#bfbfbf" stroke="black" points="0,-17 0,-47 188,-47 188,-17 0,-17"/>
<text text-anchor="start" x="8" y="-35" font-family="Helvetica,sans-Serif" font-size="10.00">ui.elements.TPropertiesElement.get</text>
<text text-anchor="middle" x="94" y="-24" font-family="Helvetica,sans-Serif" font-size="10.00">MyBaseNode</text>
</g>
<!-- Node2 -->
<g id="node2" class="node"><title>Node2</title>
<g id="a_node2"><a xlink:href="../../dc/d3b/classui_1_1_g_u_i.html#a765d554102f38969231261686f2f8e27" target="_top" xlink:title="ui.GUI.initialize">
<polygon fill="white" stroke="black" points="224,-22.5 224,-41.5 310,-41.5 310,-22.5 224,-22.5"/>
<text text-anchor="middle" x="267" y="-29.5" font-family="Helvetica,sans-Serif" font-size="10.00">ui.GUI.initialize</text>
</a>
</g>
</g>
<!-- Node1&#45;&gt;Node2 -->
<g id="edge1" class="edge"><title>Node1&#45;&gt;Node2</title>
<path fill="none" stroke="midnightblue" d="M198.216,-32C207.178,-32 215.867,-32 223.867,-32"/>
<polygon fill="midnightblue" stroke="midnightblue" points="198.006,-28.5001 188.006,-32 198.006,-35.5001 198.006,-28.5001"/>
</g>
<!-- Node3 -->
<g id="node3" class="node"><title>Node3</title>
<g id="a_node3"><a xlink:href="../../d5/d06/classui_1_1_scene_updater.html#aeef5dd7a8ec2ad6179e33fdd71ea90d6" target="_top" xlink:title="ui.SceneUpdater.initGUI">
<polygon fill="white" stroke="black" points="346.5,-22.5 346.5,-41.5 477.5,-41.5 477.5,-22.5 346.5,-22.5"/>
<text text-anchor="middle" x="412" y="-29.5" font-family="Helvetica,sans-Serif" font-size="10.00">ui.SceneUpdater.initGUI</text>
</a>
</g>
</g>
<!-- Node2&#45;&gt;Node3 -->
<g id="edge2" class="edge"><title>Node2&#45;&gt;Node3</title>
<path fill="none" stroke="midnightblue" d="M320.256,-32C328.744,-32 337.623,-32 346.364,-32"/>
<polygon fill="midnightblue" stroke="midnightblue" points="320.131,-28.5001 310.131,-32 320.131,-35.5001 320.131,-28.5001"/>
</g>
<!-- Node4 -->
<g id="node4" class="node"><title>Node4</title>
<g id="a_node4"><a xlink:href="../../d9/df7/classcontroller_1_1_controller.html#a57e42ba83ee2145e6262cd72eac59570" target="_top" xlink:title="controller.Controller.init">
<polygon fill="white" stroke="black" points="514.5,-22.5 514.5,-41.5 641.5,-41.5 641.5,-22.5 514.5,-22.5"/>
<text text-anchor="middle" x="578" y="-29.5" font-family="Helvetica,sans-Serif" font-size="10.00">controller.Controller.init</text>
</a>
</g>
</g>
<!-- Node3&#45;&gt;Node4 -->
<g id="edge3" class="edge"><title>Node3&#45;&gt;Node4</title>
<path fill="none" stroke="midnightblue" d="M488.038,-32C496.806,-32 505.682,-32 514.26,-32"/>
<polygon fill="midnightblue" stroke="midnightblue" points="487.817,-28.5001 477.817,-32 487.817,-35.5001 487.817,-28.5001"/>
</g>
<!-- Node5 -->
<g id="node5" class="node"><title>Node5</title>
<g id="a_node5"><a xlink:href="../../dd/df2/classmain_1_1_workspace_manager.html#abc818b59211f6e14940b86a42bb868d0" target="_top" xlink:title="main.WorkspaceManager.create\lWorkspace">
<polygon fill="white" stroke="black" points="678,-17 678,-47 848,-47 848,-17 678,-17"/>
<text text-anchor="start" x="686" y="-35" font-family="Helvetica,sans-Serif" font-size="10.00">main.WorkspaceManager.create</text>
<text text-anchor="middle" x="763" y="-24" font-family="Helvetica,sans-Serif" font-size="10.00">Workspace</text>
</a>
</g>
</g>
<!-- Node4&#45;&gt;Node5 -->
<g id="edge4" class="edge"><title>Node4&#45;&gt;Node5</title>
<path fill="none" stroke="midnightblue" d="M651.923,-32C660.392,-32 669.083,-32 677.689,-32"/>
<polygon fill="midnightblue" stroke="midnightblue" points="651.722,-28.5001 641.722,-32 651.722,-35.5001 651.722,-28.5001"/>
</g>
<!-- Node6 -->
<g id="node6" class="node"><title>Node6</title>
<g id="a_node6"><a xlink:href="../../d9/df7/classcontroller_1_1_controller.html#a3a9d672bb57047df70945ad1a9582c9a" target="_top" xlink:title="controller.Controller.create\lNewWorkspace">
<polygon fill="white" stroke="black" points="884.5,-39 884.5,-69 1027.5,-69 1027.5,-39 884.5,-39"/>
<text text-anchor="start" x="892.5" y="-57" font-family="Helvetica,sans-Serif" font-size="10.00">controller.Controller.create</text>
<text text-anchor="middle" x="956" y="-46" font-family="Helvetica,sans-Serif" font-size="10.00">NewWorkspace</text>
</a>
</g>
</g>
<!-- Node5&#45;&gt;Node6 -->
<g id="edge5" class="edge"><title>Node5&#45;&gt;Node6</title>
<path fill="none" stroke="midnightblue" d="M858.027,-42.8303C866.882,-43.8503 875.753,-44.8721 884.337,-45.8608"/>
<polygon fill="midnightblue" stroke="midnightblue" points="858.388,-39.3489 848.053,-41.6815 857.587,-46.3029 858.388,-39.3489"/>
</g>
<!-- Node12 -->
<g id="node12" class="node"><title>Node12</title>
<g id="a_node12"><a xlink:href="../../d1/d0b/classmain_1_1_main.html#a9f1e5657b2f6f9bdd69a3b6412ceda74" target="_top" xlink:title="main.Main.start">
<polygon fill="white" stroke="black" points="910,-0.5 910,-19.5 1002,-19.5 1002,-0.5 910,-0.5"/>
<text text-anchor="middle" x="956" y="-7.5" font-family="Helvetica,sans-Serif" font-size="10.00">main.Main.start</text>
</a>
</g>
</g>
<!-- Node5&#45;&gt;Node12 -->
<g id="edge11" class="edge"><title>Node5&#45;&gt;Node12</title>
<path fill="none" stroke="midnightblue" d="M858.086,-21.1629C876.187,-19.0779 894.356,-16.9851 909.991,-15.1843"/>
<polygon fill="midnightblue" stroke="midnightblue" points="857.587,-17.6971 848.053,-22.3185 858.388,-24.6511 857.587,-17.6971"/>
</g>
<!-- Node7 -->
<g id="node7" class="node"><title>Node7</title>
<g id="a_node7"><a xlink:href="../../d5/d06/classui_1_1_scene_updater.html#a2858ad8edb0c0f59a21e2ae015f2fa1e" target="_top" xlink:title="ui.SceneUpdater.createNew\lWorkspace">
<polygon fill="white" stroke="black" points="1064,-39 1064,-69 1214,-69 1214,-39 1064,-39"/>
<text text-anchor="start" x="1072" y="-57" font-family="Helvetica,sans-Serif" font-size="10.00">ui.SceneUpdater.createNew</text>
<text text-anchor="middle" x="1139" y="-46" font-family="Helvetica,sans-Serif" font-size="10.00">Workspace</text>
</a>
</g>
</g>
<!-- Node6&#45;&gt;Node7 -->
<g id="edge6" class="edge"><title>Node6&#45;&gt;Node7</title>
<path fill="none" stroke="midnightblue" d="M1037.8,-54C1046.43,-54 1055.17,-54 1063.71,-54"/>
<polygon fill="midnightblue" stroke="midnightblue" points="1037.76,-50.5001 1027.76,-54 1037.76,-57.5001 1037.76,-50.5001"/>
</g>
<!-- Node8 -->
<g id="node8" class="node"><title>Node8</title>
<g id="a_node8"><a xlink:href="../../dc/d3b/classui_1_1_g_u_i.html#a2edc294ba07311e6c4b85c9fe749d1bf" target="_top" xlink:title="ui.GUI.createNewWorkspace">
<polygon fill="white" stroke="black" points="1250,-44.5 1250,-63.5 1400,-63.5 1400,-44.5 1250,-44.5"/>
<text text-anchor="middle" x="1325" y="-51.5" font-family="Helvetica,sans-Serif" font-size="10.00">ui.GUI.createNewWorkspace</text>
</a>
</g>
</g>
<!-- Node7&#45;&gt;Node8 -->
<g id="edge7" class="edge"><title>Node7&#45;&gt;Node8</title>
<path fill="none" stroke="midnightblue" d="M1224.07,-54C1232.65,-54 1241.34,-54 1249.81,-54"/>
<polygon fill="midnightblue" stroke="midnightblue" points="1224.04,-50.5001 1214.04,-54 1224.04,-57.5001 1224.04,-50.5001"/>
</g>
<!-- Node9 -->
<g id="node9" class="node"><title>Node9</title>
<g id="a_node9"><a xlink:href="../../d0/de6/classui_1_1elements_1_1_menu_bar_element.html#a98c13995a31d997aa10f2950583da6cc" target="_top" xlink:title="ui.elements.MenuBarElement.make\lMenuBar">
<polygon fill="white" stroke="black" points="1436,-39 1436,-69 1624,-69 1624,-39 1436,-39"/>
<text text-anchor="start" x="1444" y="-57" font-family="Helvetica,sans-Serif" font-size="10.00">ui.elements.MenuBarElement.make</text>
<text text-anchor="middle" x="1530" y="-46" font-family="Helvetica,sans-Serif" font-size="10.00">MenuBar</text>
</a>
</g>
</g>
<!-- Node8&#45;&gt;Node9 -->
<g id="edge8" class="edge"><title>Node8&#45;&gt;Node9</title>
<path fill="none" stroke="midnightblue" d="M1410.28,-54C1418.66,-54 1427.21,-54 1435.68,-54"/>
<polygon fill="midnightblue" stroke="midnightblue" points="1410.15,-50.5001 1400.15,-54 1410.15,-57.5001 1410.15,-50.5001"/>
</g>
<!-- Node10 -->
<g id="node10" class="node"><title>Node10</title>
<g id="a_node10"><a xlink:href="../../d0/de6/classui_1_1elements_1_1_menu_bar_element.html#a7bdb58f78cf8b61ba28498c5c86ab682" target="_top" xlink:title="ui.elements.MenuBarElement.init">
<polygon fill="white" stroke="black" points="1660,-44.5 1660,-63.5 1836,-63.5 1836,-44.5 1660,-44.5"/>
<text text-anchor="middle" x="1748" y="-51.5" font-family="Helvetica,sans-Serif" font-size="10.00">ui.elements.MenuBarElement.init</text>
</a>
</g>
</g>
<!-- Node9&#45;&gt;Node10 -->
<g id="edge9" class="edge"><title>Node9&#45;&gt;Node10</title>
<path fill="none" stroke="midnightblue" d="M1634.23,-54C1642.83,-54 1651.48,-54 1659.94,-54"/>
<polygon fill="midnightblue" stroke="midnightblue" points="1634.17,-50.5001 1624.17,-54 1634.17,-57.5001 1634.17,-50.5001"/>
</g>
<!-- Node11 -->
<g id="node11" class="node"><title>Node11</title>
<g id="a_node11"><a xlink:href="../../d0/de6/classui_1_1elements_1_1_menu_bar_element.html#ab4a4e6841c924a9d9c70b8073b56dffc" target="_top" xlink:title="ui.elements.MenuBarElement.\lMenuBarElement">
<polygon fill="white" stroke="black" points="1872.5,-39 1872.5,-69 2033.5,-69 2033.5,-39 1872.5,-39"/>
<text text-anchor="start" x="1880.5" y="-57" font-family="Helvetica,sans-Serif" font-size="10.00">ui.elements.MenuBarElement.</text>
<text text-anchor="middle" x="1953" y="-46" font-family="Helvetica,sans-Serif" font-size="10.00">MenuBarElement</text>
</a>
</g>
</g>
<!-- Node10&#45;&gt;Node11 -->
<g id="edge10" class="edge"><title>Node10&#45;&gt;Node11</title>
<path fill="none" stroke="midnightblue" d="M1846.47,-54C1855.19,-54 1863.95,-54 1872.5,-54"/>
<polygon fill="midnightblue" stroke="midnightblue" points="1846.27,-50.5001 1836.27,-54 1846.27,-57.5001 1846.27,-50.5001"/>
</g>
</g>
</svg>
