<?xml version="1.0" encoding="UTF-8" standalone="no"?>
<!DOCTYPE svg PUBLIC "-//W3C//DTD SVG 1.1//EN"
 "http://www.w3.org/Graphics/SVG/1.1/DTD/svg11.dtd">
<!-- Generated by graphviz version 2.36.0 (20140111.2315)
 -->
<!-- Title: parser.GroupStartCase Pages: 1 -->
<svg width="314pt" height="96pt"
 viewBox="0.00 0.00 314.00 96.00" xmlns="http://www.w3.org/2000/svg" xmlns:xlink="http://www.w3.org/1999/xlink">
<g id="graph0" class="graph" transform="scale(1 1) rotate(0) translate(4 92)">
<title>parser.GroupStartCase</title>
<polygon fill="white" stroke="none" points="-4,4 -4,-92 310,-92 310,4 -4,4"/>
<!-- Node1 -->
<g id="node1" class="node"><title>Node1</title>
<polygon fill="#bfbfbf" stroke="black" points="74.5,-0.5 74.5,-19.5 201.5,-19.5 201.5,-0.5 74.5,-0.5"/>
<text text-anchor="middle" x="138" y="-7.5" font-family="Helvetica,sans-Serif" font-size="10.00">parser.GroupStartCase</text>
</g>
<!-- Node2 -->
<g id="node2" class="node"><title>Node2</title>
<g id="a_node2"><a xlink:href="../../d7/d32/interfaceparser_1_1_cases.html" target="_top" xlink:title="parser.Cases">
<polygon fill="white" stroke="black" points="-0.5,-68.5 -0.5,-87.5 78.5,-87.5 78.5,-68.5 -0.5,-68.5"/>
<text text-anchor="middle" x="39" y="-75.5" font-family="Helvetica,sans-Serif" font-size="10.00">parser.Cases</text>
</a>
</g>
</g>
<!-- Node2&#45;&gt;Node1 -->
<g id="edge1" class="edge"><title>Node2&#45;&gt;Node1</title>
<path fill="none" stroke="midnightblue" d="M60.2831,-62.8113C79.9705,-49.6863 108.599,-30.6004 125.054,-19.6305"/>
<polygon fill="midnightblue" stroke="midnightblue" points="58.3216,-59.9124 51.9425,-68.3717 62.2045,-65.7368 58.3216,-59.9124"/>
</g>
<!-- Node3 -->
<g id="node3" class="node"><title>Node3</title>
<polygon fill="white" stroke="#bfbfbf" points="96,-68.5 96,-87.5 180,-87.5 180,-68.5 96,-68.5"/>
<text text-anchor="middle" x="138" y="-75.5" font-family="Helvetica,sans-Serif" font-size="10.00">List&lt; String &gt;</text>
</g>
<!-- Node3&#45;&gt;Node1 -->
<g id="edge2" class="edge"><title>Node3&#45;&gt;Node1</title>
<path fill="none" stroke="#9a32cd" stroke-dasharray="5,2" d="M138,-58.0413C138,-45.4724 138,-29.5631 138,-19.8411"/>
<polygon fill="#9a32cd" stroke="#9a32cd" points="134.5,-58.3716 138,-68.3717 141.5,-58.3717 134.5,-58.3716"/>
<text text-anchor="middle" x="159.5" y="-41.5" font-family="Helvetica,sans-Serif" font-size="10.00"> myInput</text>
</g>
<!-- Node4 -->
<g id="node4" class="node"><title>Node4</title>
<g id="a_node4"><a xlink:href="../../d9/dc0/interfaceparser_1_1_tree_wrapper.html" target="_top" xlink:title="parser.TreeWrapper">
<polygon fill="white" stroke="black" points="198,-68.5 198,-87.5 306,-87.5 306,-68.5 198,-68.5"/>
<text text-anchor="middle" x="252" y="-75.5" font-family="Helvetica,sans-Serif" font-size="10.00">parser.TreeWrapper</text>
</a>
</g>
</g>
<!-- Node4&#45;&gt;Node1 -->
<g id="edge3" class="edge"><title>Node4&#45;&gt;Node1</title>
<path fill="none" stroke="#9a32cd" stroke-dasharray="5,2" d="M228.679,-63.3813C215.808,-55.8762 199.532,-46.4036 185,-38 174.41,-31.876 162.455,-25.0091 153.253,-19.733"/>
<polygon fill="#9a32cd" stroke="#9a32cd" points="226.974,-66.4388 237.376,-68.455 230.502,-60.3926 226.974,-66.4388"/>
<text text-anchor="middle" x="226" y="-41.5" font-family="Helvetica,sans-Serif" font-size="10.00"> wrapper</text>
</g>
</g>
</svg>
