<?xml version="1.0" encoding="UTF-8" standalone="no"?>
<!DOCTYPE svg PUBLIC "-//W3C//DTD SVG 1.1//EN"
 "http://www.w3.org/Graphics/SVG/1.1/DTD/svg11.dtd">
<!-- Generated by graphviz version 2.36.0 (20140111.2315)
 -->
<!-- Title: ui.Pen.draw Pages: 1 -->
<svg width="364pt" height="28pt"
 viewBox="0.00 0.00 364.00 28.00" xmlns="http://www.w3.org/2000/svg" xmlns:xlink="http://www.w3.org/1999/xlink">
<g id="graph0" class="graph" transform="scale(1 1) rotate(0) translate(4 24)">
<title>ui.Pen.draw</title>
<polygon fill="white" stroke="none" points="-4,4 -4,-24 360,-24 360,4 -4,4"/>
<!-- Node1 -->
<g id="node1" class="node"><title>Node1</title>
<polygon fill="#bfbfbf" stroke="black" points="0.5,-0.5 0.5,-19.5 71.5,-19.5 71.5,-0.5 0.5,-0.5"/>
<text text-anchor="middle" x="36" y="-7.5" font-family="Helvetica,sans-Serif" font-size="10.00">ui.Pen.draw</text>
</g>
<!-- Node2 -->
<g id="node2" class="node"><title>Node2</title>
<g id="a_node2"><a xlink:href="../../d3/db6/classui_1_1_turtle_view.html#a3bcfd8b9b225b9082d34a55b7ebc90b7" target="_top" xlink:title="ui.TurtleView.draw">
<polygon fill="white" stroke="black" points="108,-0.5 108,-19.5 208,-19.5 208,-0.5 108,-0.5"/>
<text text-anchor="middle" x="158" y="-7.5" font-family="Helvetica,sans-Serif" font-size="10.00">ui.TurtleView.draw</text>
</a>
</g>
</g>
<!-- Node1&#45;&gt;Node2 -->
<g id="edge1" class="edge"><title>Node1&#45;&gt;Node2</title>
<path fill="none" stroke="midnightblue" d="M81.7457,-10C90.1899,-10 99.0659,-10 107.642,-10"/>
<polygon fill="midnightblue" stroke="midnightblue" points="81.709,-6.5001 71.709,-10 81.7089,-13.5001 81.709,-6.5001"/>
</g>
<!-- Node3 -->
<g id="node3" class="node"><title>Node3</title>
<g id="a_node3"><a xlink:href="../../d3/db6/classui_1_1_turtle_view.html#a08c1ab80fb36ee57f17dcdd42bcf9143" target="_top" xlink:title="ui.TurtleView.update">
<polygon fill="white" stroke="black" points="244.5,-0.5 244.5,-19.5 355.5,-19.5 355.5,-0.5 244.5,-0.5"/>
<text text-anchor="middle" x="300" y="-7.5" font-family="Helvetica,sans-Serif" font-size="10.00">ui.TurtleView.update</text>
</a>
</g>
</g>
<!-- Node2&#45;&gt;Node3 -->
<g id="edge2" class="edge"><title>Node2&#45;&gt;Node3</title>
<path fill="none" stroke="midnightblue" d="M218.637,-10C227.178,-10 235.93,-10 244.368,-10"/>
<polygon fill="midnightblue" stroke="midnightblue" points="218.359,-6.5001 208.359,-10 218.359,-13.5001 218.359,-6.5001"/>
</g>
</g>
</svg>
