<?xml version="1.0" encoding="UTF-8" standalone="no"?>
<!DOCTYPE svg PUBLIC "-//W3C//DTD SVG 1.1//EN"
 "http://www.w3.org/Graphics/SVG/1.1/DTD/svg11.dtd">
<!-- Generated by graphviz version 2.36.0 (20140111.2315)
 -->
<!-- Title: command.control.RepeatCommand Pages: 1 -->
<!--zoomable 218 -->
<svg id="main" version="1.1" xmlns="http://www.w3.org/2000/svg" xmlns:xlink="http://www.w3.org/1999/xlink" xml:space="preserve" onload="init(evt)">
<style type="text/css"><![CDATA[
.edge:hover path { stroke: red; }
.edge:hover polygon { stroke: red; fill: red; }
]]></style>
<script type="text/javascript"><![CDATA[
var edges = document.getElementsByTagName('g');
if (edges && edges.length) {
  for (var i=0;i<edges.length;i++) {
    if (edges[i].id.substr(0,4)=='edge') {
      edges[i].setAttribute('class','edge');
    }
  }
}
]]></script>
        <defs>
                <circle id="rim" cx="0" cy="0" r="7"/>
                <circle id="rim2" cx="0" cy="0" r="3.5"/>
                <g id="zoomPlus">
                        <use xlink:href="#rim" fill="#404040">
                                <set attributeName="fill" to="#808080" begin="zoomplus.mouseover" end="zoomplus.mouseout"/>
                        </use>
                        <path d="M-4,0h8M0,-4v8" fill="none" stroke="white" stroke-width="1.5" pointer-events="none"/>
                </g>
                <g id="zoomMin">
                        <use xlink:href="#rim" fill="#404040">
                                <set attributeName="fill" to="#808080" begin="zoomminus.mouseover" end="zoomminus.mouseout"/>
                        </use>
                        <path d="M-4,0h8" fill="none" stroke="white" stroke-width="1.5" pointer-events="none"/>
                </g>
                <g id="dirArrow">
                        <path fill="none" stroke="white" stroke-width="1.5" d="M0,-3.0v7 M-2.5,-0.5L0,-3.0L2.5,-0.5"/>
                </g>
               <g id="resetDef">
                       <use xlink:href="#rim2" fill="#404040">
                               <set attributeName="fill" to="#808080" begin="reset.mouseover" end="reset.mouseout"/>
                       </use>
               </g>
        </defs>

<script type="text/javascript">
var viewWidth = 926;
var viewHeight = 218;
var sectionId = 'dynsection-1';
</script>
<script xlink:href="../../svgpan.js"/>
<svg id="graph" class="graph">
<g id="viewport">
<title>command.control.RepeatCommand</title>
<polygon fill="white" stroke="none" points="-4,4 -4,-214 922,-214 922,4 -4,4"/>
<!-- Node1 -->
<g id="node1" class="node"><title>Node1</title>
<polygon fill="#bfbfbf" stroke="black" points="730,-71.5 730,-90.5 918,-90.5 918,-71.5 730,-71.5"/>
<text text-anchor="middle" x="824" y="-78.5" font-family="Helvetica,sans-Serif" font-size="10.00">command.control.RepeatCommand</text>
</g>
<!-- Node2 -->
<g id="node2" class="node"><title>Node2</title>
<g id="a_node2"><a xlink:href="../../d7/d35/classcommand_1_1_command.html" target="_top" xlink:title="command.Command">
<polygon fill="white" stroke="black" points="535.5,-137.5 535.5,-156.5 654.5,-156.5 654.5,-137.5 535.5,-137.5"/>
<text text-anchor="middle" x="595" y="-144.5" font-family="Helvetica,sans-Serif" font-size="10.00">command.Command</text>
</a>
</g>
</g>
<!-- Node2&#45;&gt;Node1 -->
<g id="edge1" class="edge"><title>Node2&#45;&gt;Node1</title>
<path fill="none" stroke="midnightblue" d="M642.774,-134.922C651.187,-132.674 659.865,-130.306 668,-128 711.557,-115.654 761.633,-100.247 792.801,-90.5128"/>
<polygon fill="midnightblue" stroke="midnightblue" points="641.838,-131.549 633.069,-137.494 643.632,-138.315 641.838,-131.549"/>
</g>
<!-- Node3 -->
<g id="node3" class="node"><title>Node3</title>
<g id="a_node3"><a xlink:href="../../d9/d88/classmodel_1_1_tree_interpreter.html" target="_top" xlink:title="model.TreeInterpreter">
<polygon fill="white" stroke="black" points="535,-99.5 535,-118.5 655,-118.5 655,-99.5 535,-99.5"/>
<text text-anchor="middle" x="595" y="-106.5" font-family="Helvetica,sans-Serif" font-size="10.00">model.TreeInterpreter</text>
</a>
</g>
</g>
<!-- Node3&#45;&gt;Node1 -->
<g id="edge2" class="edge"><title>Node3&#45;&gt;Node1</title>
<path fill="none" stroke="#9a32cd" stroke-dasharray="5,2" d="M665.012,-100.487C690.543,-97.3383 719.642,-93.749 745.85,-90.5163"/>
<polygon fill="#9a32cd" stroke="#9a32cd" points="664.545,-97.0185 655.049,-101.716 665.402,-103.966 664.545,-97.0185"/>
<text text-anchor="middle" x="699" y="-101" font-family="Helvetica,sans-Serif" font-size="10.00"> tree</text>
</g>
<!-- Node4 -->
<g id="node4" class="node"><title>Node4</title>
<g id="a_node4"><a xlink:href="../../db/d55/classmodel_1_1_variable_list.html" target="_top" xlink:title="model.VariableList">
<polygon fill="white" stroke="black" points="269,-189.5 269,-208.5 373,-208.5 373,-189.5 269,-189.5"/>
<text text-anchor="middle" x="321" y="-196.5" font-family="Helvetica,sans-Serif" font-size="10.00">model.VariableList</text>
</a>
</g>
</g>
<!-- Node4&#45;&gt;Node3 -->
<g id="edge3" class="edge"><title>Node4&#45;&gt;Node3</title>
<path fill="none" stroke="#9a32cd" stroke-dasharray="5,2" d="M383.584,-199.928C421.668,-197.542 469.665,-188.861 504,-163 517.972,-152.476 508.365,-138.957 522,-128 526.837,-124.113 532.392,-121.016 538.225,-118.549"/>
<polygon fill="#9a32cd" stroke="#9a32cd" points="382.941,-196.455 373.125,-200.443 383.285,-203.446 382.941,-196.455"/>
<text text-anchor="middle" x="464" y="-197" font-family="Helvetica,sans-Serif" font-size="10.00"> variables</text>
</g>
<!-- Node5 -->
<g id="node5" class="node"><title>Node5</title>
<polygon fill="white" stroke="#bfbfbf" points="0.5,-189.5 0.5,-208.5 181.5,-208.5 181.5,-189.5 0.5,-189.5"/>
<text text-anchor="middle" x="91" y="-196.5" font-family="Helvetica,sans-Serif" font-size="10.00">ObservableList&lt; model.Variable &gt;</text>
</g>
<!-- Node5&#45;&gt;Node4 -->
<g id="edge4" class="edge"><title>Node5&#45;&gt;Node4</title>
<path fill="none" stroke="#9a32cd" stroke-dasharray="5,2" d="M191.896,-199C218.445,-199 246.031,-199 268.773,-199"/>
<polygon fill="#9a32cd" stroke="#9a32cd" points="191.784,-195.5 181.784,-199 191.784,-202.5 191.784,-195.5"/>
<text text-anchor="middle" x="209" y="-202" font-family="Helvetica,sans-Serif" font-size="10.00"> list</text>
</g>
<!-- Node6 -->
<g id="node6" class="node"><title>Node6</title>
<polygon fill="white" stroke="#bfbfbf" points="264,-151.5 264,-170.5 378,-170.5 378,-151.5 264,-151.5"/>
<text text-anchor="middle" x="321" y="-158.5" font-family="Helvetica,sans-Serif" font-size="10.00">List&lt; model.Turtle &gt;</text>
</g>
<!-- Node6&#45;&gt;Node3 -->
<g id="edge5" class="edge"><title>Node6&#45;&gt;Node3</title>
<path fill="none" stroke="#9a32cd" stroke-dasharray="5,2" d="M388.085,-152.751C422.775,-147.938 465.882,-141.196 504,-133 512.117,-131.255 513.986,-130.17 522,-128 533.48,-124.891 546.008,-121.563 557.347,-118.574"/>
<polygon fill="#9a32cd" stroke="#9a32cd" points="387.505,-149.298 378.071,-154.119 388.453,-156.233 387.505,-149.298"/>
<text text-anchor="middle" x="464" y="-151" font-family="Helvetica,sans-Serif" font-size="10.00"> listTurtles</text>
</g>
<!-- Node7 -->
<g id="node7" class="node"><title>Node7</title>
<g id="a_node7"><a xlink:href="../../db/d10/classmodel_1_1_command_factory.html" target="_top" xlink:title="model.CommandFactory">
<polygon fill="white" stroke="black" points="254,-113.5 254,-132.5 388,-132.5 388,-113.5 254,-113.5"/>
<text text-anchor="middle" x="321" y="-120.5" font-family="Helvetica,sans-Serif" font-size="10.00">model.CommandFactory</text>
</a>
</g>
</g>
<!-- Node7&#45;&gt;Node3 -->
<g id="edge6" class="edge"><title>Node7&#45;&gt;Node3</title>
<path fill="none" stroke="#9a32cd" stroke-dasharray="5,2" d="M398.387,-119.068C441.635,-116.842 494.909,-114.1 534.935,-112.04"/>
<polygon fill="#9a32cd" stroke="#9a32cd" points="397.998,-115.584 388.191,-119.593 398.358,-122.574 397.998,-115.584"/>
<text text-anchor="middle" x="464" y="-121" font-family="Helvetica,sans-Serif" font-size="10.00"> factory</text>
</g>
<!-- Node8 -->
<g id="node8" class="node"><title>Node8</title>
<polygon fill="white" stroke="#bfbfbf" points="236,-64 236,-94 406,-94 406,-64 236,-64"/>
<text text-anchor="start" x="244" y="-82" font-family="Helvetica,sans-Serif" font-size="10.00">Map&lt; String, List&lt;</text>
<text text-anchor="middle" x="321" y="-71" font-family="Helvetica,sans-Serif" font-size="10.00"> parser.CommandTreeNode &gt; &gt;</text>
</g>
<!-- Node8&#45;&gt;Node3 -->
<g id="edge7" class="edge"><title>Node8&#45;&gt;Node3</title>
<path fill="none" stroke="#9a32cd" stroke-dasharray="5,2" d="M416.508,-89.3636C444.66,-92.4566 475.579,-95.8595 504,-99 514.001,-100.105 524.626,-101.283 534.939,-102.427"/>
<polygon fill="#9a32cd" stroke="#9a32cd" points="416.593,-85.852 406.271,-88.2391 415.829,-92.8101 416.593,-85.852"/>
<text text-anchor="middle" x="464" y="-102" font-family="Helvetica,sans-Serif" font-size="10.00"> userCommands</text>
</g>
<!-- Node9 -->
<g id="node9" class="node"><title>Node9</title>
<polygon fill="white" stroke="#bfbfbf" points="247.5,-5 247.5,-35 394.5,-35 394.5,-5 247.5,-5"/>
<text text-anchor="start" x="255.5" y="-23" font-family="Helvetica,sans-Serif" font-size="10.00">List&lt; parser.CommandTree</text>
<text text-anchor="middle" x="321" y="-12" font-family="Helvetica,sans-Serif" font-size="10.00">Node &gt;</text>
</g>
<!-- Node9&#45;&gt;Node1 -->
<g id="edge8" class="edge"><title>Node9&#45;&gt;Node1</title>
<path fill="none" stroke="#9a32cd" stroke-dasharray="5,2" d="M404.652,-30.0635C498.974,-41.5477 652.099,-60.1917 744.606,-71.455"/>
<polygon fill="#9a32cd" stroke="#9a32cd" points="404.932,-26.5717 394.582,-28.8373 404.086,-33.5204 404.932,-26.5717"/>
<text text-anchor="middle" x="595" y="-65" font-family="Helvetica,sans-Serif" font-size="10.00"> subCommands</text>
</g>
<!-- Node10 -->
<g id="node10" class="node"><title>Node10</title>
<g id="a_node10"><a xlink:href="../../dc/d9e/classparser_1_1_command_tree_node.html" target="_top" xlink:title="parser.CommandTreeNode">
<polygon fill="white" stroke="black" points="522.5,-0.5 522.5,-19.5 667.5,-19.5 667.5,-0.5 522.5,-0.5"/>
<text text-anchor="middle" x="595" y="-7.5" font-family="Helvetica,sans-Serif" font-size="10.00">parser.CommandTreeNode</text>
</a>
</g>
</g>
<!-- Node9&#45;&gt;Node10 -->
<g id="edge10" class="edge"><title>Node9&#45;&gt;Node10</title>
<path fill="none" stroke="#9a32cd" stroke-dasharray="5,2" d="M404.91,-16.9518C442.338,-15.5758 486.13,-13.9658 522.14,-12.6419"/>
<polygon fill="#9a32cd" stroke="#9a32cd" points="404.398,-13.4682 394.534,-17.3333 404.656,-20.4635 404.398,-13.4682"/>
<text text-anchor="middle" x="464" y="-20" font-family="Helvetica,sans-Serif" font-size="10.00"> myChildren</text>
</g>
<!-- Node10&#45;&gt;Node1 -->
<g id="edge9" class="edge"><title>Node10&#45;&gt;Node1</title>
<path fill="none" stroke="#9a32cd" stroke-dasharray="5,2" d="M674.533,-21.5255C687.186,-24.1504 700.048,-27.2875 712,-31 746.314,-41.6581 784.003,-60.2099 805.453,-71.4715"/>
<polygon fill="#9a32cd" stroke="#9a32cd" points="674.94,-18.0383 664.45,-19.5291 673.58,-24.9049 674.94,-18.0383"/>
<text text-anchor="middle" x="699" y="-34" font-family="Helvetica,sans-Serif" font-size="10.00"> num</text>
</g>
</g>
</svg>
        <g id="navigator" transform="translate(0 0)" fill="#404254">
                <rect fill="#f2f5e9" fill-opacity="0.5" stroke="#606060" stroke-width=".5" x="0" y="0" width="60" height="60"/>
                <use id="zoomplus" xlink:href="#zoomPlus" x="17" y="9" onmousedown="handleZoom(evt,'in')"/>
                <use id="zoomminus" xlink:href="#zoomMin" x="42" y="9" onmousedown="handleZoom(evt,'out')"/>
                <use id="reset" xlink:href="#resetDef" x="30" y="36" onmousedown="handleReset()"/>
                <g id="arrowUp" xlink:href="#dirArrow" transform="translate(30 24)" onmousedown="handlePan(0,-1)">
                  <use xlink:href="#rim" fill="#404040">
                        <set attributeName="fill" to="#808080" begin="arrowUp.mouseover" end="arrowUp.mouseout"/>
                  </use>
                  <path fill="none" stroke="white" stroke-width="1.5" d="M0,-3.0v7 M-2.5,-0.5L0,-3.0L2.5,-0.5"/>
                </g>
                <g id="arrowRight" xlink:href="#dirArrow" transform="rotate(90) translate(36 -43)" onmousedown="handlePan(1,0)">
                  <use xlink:href="#rim" fill="#404040">
                        <set attributeName="fill" to="#808080" begin="arrowRight.mouseover" end="arrowRight.mouseout"/>
                  </use>
                  <path fill="none" stroke="white" stroke-width="1.5" d="M0,-3.0v7 M-2.5,-0.5L0,-3.0L2.5,-0.5"/>
                </g>
                <g id="arrowDown" xlink:href="#dirArrow" transform="rotate(180) translate(-30 -48)" onmousedown="handlePan(0,1)">
                  <use xlink:href="#rim" fill="#404040">
                        <set attributeName="fill" to="#808080" begin="arrowDown.mouseover" end="arrowDown.mouseout"/>
                  </use>
                  <path fill="none" stroke="white" stroke-width="1.5" d="M0,-3.0v7 M-2.5,-0.5L0,-3.0L2.5,-0.5"/>
                </g>
                <g id="arrowLeft" xlink:href="#dirArrow" transform="rotate(270) translate(-36 17)" onmousedown="handlePan(-1,0)">
                  <use xlink:href="#rim" fill="#404040">
                        <set attributeName="fill" to="#808080" begin="arrowLeft.mouseover" end="arrowLeft.mouseout"/>
                  </use>
                  <path fill="none" stroke="white" stroke-width="1.5" d="M0,-3.0v7 M-2.5,-0.5L0,-3.0L2.5,-0.5"/>
                </g>
        </g>
        <svg viewBox="0 0 15 15" width="100%" height="30px" preserveAspectRatio="xMaxYMin meet">
         <g id="arrow_out" transform="scale(0.3 0.3)">
          <a xlink:href="classcommand_1_1control_1_1_repeat_command__coll__graph_org.svg" target="_base">
           <rect id="button" ry="5" rx="5" y="6" x="6" height="38" width="38"
                fill="#f2f5e9" fill-opacity="0.5" stroke="#606060" stroke-width="1.0"/>
           <path id="arrow"
             d="M 11.500037,31.436501 C 11.940474,20.09759 22.043105,11.32322 32.158766,21.979434 L 37.068811,17.246167 C 37.068811,17.246167 37.088388,32 37.088388,32 L 22.160133,31.978069 C 22.160133,31.978069 26.997745,27.140456 26.997745,27.140456 C 18.528582,18.264221 13.291696,25.230495 11.500037,31.436501 z"
             style="fill:#404040;"/>
          </a>
         </g>
        </svg>
</svg>
