<?xml version="1.0" encoding="UTF-8" standalone="no"?>
<!DOCTYPE svg PUBLIC "-//W3C//DTD SVG 1.1//EN"
 "http://www.w3.org/Graphics/SVG/1.1/DTD/svg11.dtd">
<!-- Generated by graphviz version 2.36.0 (20140111.2315)
 -->
<!-- Title: command.control.MakeVariableCommand.calculateValue Pages: 1 -->
<!--zoomable 254 -->
<svg id="main" version="1.1" xmlns="http://www.w3.org/2000/svg" xmlns:xlink="http://www.w3.org/1999/xlink" xml:space="preserve" onload="init(evt)">
<style type="text/css"><![CDATA[
.edge:hover path { stroke: red; }
.edge:hover polygon { stroke: red; fill: red; }
]]></style>
<script type="text/javascript"><![CDATA[
var edges = document.getElementsByTagName('g');
if (edges && edges.length) {
  for (var i=0;i<edges.length;i++) {
    if (edges[i].id.substr(0,4)=='edge') {
      edges[i].setAttribute('class','edge');
    }
  }
}
]]></script>
        <defs>
                <circle id="rim" cx="0" cy="0" r="7"/>
                <circle id="rim2" cx="0" cy="0" r="3.5"/>
                <g id="zoomPlus">
                        <use xlink:href="#rim" fill="#404040">
                                <set attributeName="fill" to="#808080" begin="zoomplus.mouseover" end="zoomplus.mouseout"/>
                        </use>
                        <path d="M-4,0h8M0,-4v8" fill="none" stroke="white" stroke-width="1.5" pointer-events="none"/>
                </g>
                <g id="zoomMin">
                        <use xlink:href="#rim" fill="#404040">
                                <set attributeName="fill" to="#808080" begin="zoomminus.mouseover" end="zoomminus.mouseout"/>
                        </use>
                        <path d="M-4,0h8" fill="none" stroke="white" stroke-width="1.5" pointer-events="none"/>
                </g>
                <g id="dirArrow">
                        <path fill="none" stroke="white" stroke-width="1.5" d="M0,-3.0v7 M-2.5,-0.5L0,-3.0L2.5,-0.5"/>
                </g>
               <g id="resetDef">
                       <use xlink:href="#rim2" fill="#404040">
                               <set attributeName="fill" to="#808080" begin="reset.mouseover" end="reset.mouseout"/>
                       </use>
               </g>
        </defs>

<script type="text/javascript">
var viewWidth = 568;
var viewHeight = 254;
var sectionId = 'dynsection-3';
</script>
<script xlink:href="../../svgpan.js"/>
<svg id="graph" class="graph">
<g id="viewport">
<title>command.control.MakeVariableCommand.calculateValue</title>
<polygon fill="white" stroke="none" points="-4,4 -4,-250.22 564,-250.22 564,4 -4,4"/>
<!-- Node1 -->
<g id="node1" class="node"><title>Node1</title>
<polygon fill="#bfbfbf" stroke="black" points="0,-121 0,-151 168,-151 168,-121 0,-121"/>
<text text-anchor="start" x="8" y="-139" font-family="Helvetica,sans-Serif" font-size="10.00">command.control.MakeVariable</text>
<text text-anchor="middle" x="84" y="-128" font-family="Helvetica,sans-Serif" font-size="10.00">Command.calculateValue</text>
</g>
<!-- Node2 -->
<g id="node2" class="node"><title>Node2</title>
<g id="a_node2"><a xlink:href="../../db/d55/classmodel_1_1_variable_list.html#a0adb554303c7191db1da43ddb5fa2c45" target="_top" xlink:title="model.VariableList.add">
<polygon fill="white" stroke="black" points="434.5,-202.5 434.5,-221.5 559.5,-221.5 559.5,-202.5 434.5,-202.5"/>
<text text-anchor="middle" x="497" y="-209.5" font-family="Helvetica,sans-Serif" font-size="10.00">model.VariableList.add</text>
</a>
</g>
</g>
<!-- Node1&#45;&gt;Node2 -->
<g id="edge1" class="edge"><title>Node1&#45;&gt;Node2</title>
<path fill="none" stroke="midnightblue" d="M97.6987,-151.238C117.602,-173.79 158.591,-215.098 204,-231 289.712,-261.017 398.106,-239.847 455.708,-224.341"/>
<polygon fill="midnightblue" stroke="midnightblue" points="456.817,-227.666 465.519,-221.621 454.947,-220.92 456.817,-227.666"/>
</g>
<!-- Node3 -->
<g id="node3" class="node"><title>Node3</title>
<g id="a_node3"><a xlink:href="../../db/d55/classmodel_1_1_variable_list.html#af57fc3ed26414e79938e451618affc45" target="_top" xlink:title="model.VariableList.contains">
<polygon fill="white" stroke="black" points="227,-202.5 227,-221.5 375,-221.5 375,-202.5 227,-202.5"/>
<text text-anchor="middle" x="301" y="-209.5" font-family="Helvetica,sans-Serif" font-size="10.00">model.VariableList.contains</text>
</a>
</g>
</g>
<!-- Node1&#45;&gt;Node3 -->
<g id="edge2" class="edge"><title>Node1&#45;&gt;Node3</title>
<path fill="none" stroke="midnightblue" d="M111.603,-151.138C135.203,-163.978 170.96,-182.012 204,-193 212.258,-195.746 221.055,-198.154 229.844,-200.249"/>
<polygon fill="midnightblue" stroke="midnightblue" points="229.21,-203.694 239.735,-202.483 230.752,-196.866 229.21,-203.694"/>
</g>
<!-- Node4 -->
<g id="node4" class="node"><title>Node4</title>
<g id="a_node4"><a xlink:href="../../db/d55/classmodel_1_1_variable_list.html#a09697cca38c12cf837ee40e71d02f78b" target="_top" xlink:title="model.VariableList.get">
<polygon fill="white" stroke="black" points="239.5,-164.5 239.5,-183.5 362.5,-183.5 362.5,-164.5 239.5,-164.5"/>
<text text-anchor="middle" x="301" y="-171.5" font-family="Helvetica,sans-Serif" font-size="10.00">model.VariableList.get</text>
</a>
</g>
</g>
<!-- Node1&#45;&gt;Node4 -->
<g id="edge3" class="edge"><title>Node1&#45;&gt;Node4</title>
<path fill="none" stroke="midnightblue" d="M168.125,-150.692C190.669,-154.676 214.723,-158.928 236.031,-162.694"/>
<polygon fill="midnightblue" stroke="midnightblue" points="235.475,-166.15 245.932,-164.444 236.694,-159.257 235.475,-166.15"/>
</g>
<!-- Node5 -->
<g id="node5" class="node"><title>Node5</title>
<g id="a_node5"><a xlink:href="../../dc/d9e/classparser_1_1_command_tree_node.html#a73e4ab6ebca47d41b993f0e66ee4c8d2" target="_top" xlink:title="parser.CommandTreeNode.getName">
<polygon fill="white" stroke="black" points="204.5,-126.5 204.5,-145.5 397.5,-145.5 397.5,-126.5 204.5,-126.5"/>
<text text-anchor="middle" x="301" y="-133.5" font-family="Helvetica,sans-Serif" font-size="10.00">parser.CommandTreeNode.getName</text>
</a>
</g>
</g>
<!-- Node1&#45;&gt;Node5 -->
<g id="edge5" class="edge"><title>Node1&#45;&gt;Node5</title>
<path fill="none" stroke="midnightblue" d="M168.125,-136C176.618,-136 185.325,-136 194.019,-136"/>
<polygon fill="midnightblue" stroke="midnightblue" points="194.206,-139.5 204.206,-136 194.206,-132.5 194.206,-139.5"/>
</g>
<!-- Node6 -->
<g id="node6" class="node"><title>Node6</title>
<g id="a_node6"><a xlink:href="../../d4/d08/classmodel_1_1_variable.html#a49730c824ab9fe357246b60968a0c871" target="_top" xlink:title="model.Variable.getValue">
<polygon fill="white" stroke="black" points="234.5,-88.5 234.5,-107.5 367.5,-107.5 367.5,-88.5 234.5,-88.5"/>
<text text-anchor="middle" x="301" y="-95.5" font-family="Helvetica,sans-Serif" font-size="10.00">model.Variable.getValue</text>
</a>
</g>
</g>
<!-- Node1&#45;&gt;Node6 -->
<g id="edge6" class="edge"><title>Node1&#45;&gt;Node6</title>
<path fill="none" stroke="midnightblue" d="M168.125,-121.308C190.669,-117.324 214.723,-113.072 236.031,-109.306"/>
<polygon fill="midnightblue" stroke="midnightblue" points="236.694,-112.743 245.932,-107.556 235.475,-105.85 236.694,-112.743"/>
</g>
<!-- Node7 -->
<g id="node7" class="node"><title>Node7</title>
<g id="a_node7"><a xlink:href="../../dc/d9e/classparser_1_1_command_tree_node.html#aea6176c10780becfc79a23924bb6fdc2" target="_top" xlink:title="parser.CommandTreeNode.get\lValue">
<polygon fill="white" stroke="black" points="219,-39 219,-69 383,-69 383,-39 219,-39"/>
<text text-anchor="start" x="227" y="-57" font-family="Helvetica,sans-Serif" font-size="10.00">parser.CommandTreeNode.get</text>
<text text-anchor="middle" x="301" y="-46" font-family="Helvetica,sans-Serif" font-size="10.00">Value</text>
</a>
</g>
</g>
<!-- Node1&#45;&gt;Node7 -->
<g id="edge7" class="edge"><title>Node1&#45;&gt;Node7</title>
<path fill="none" stroke="midnightblue" d="M112.714,-120.848C136.422,-108.346 171.731,-90.8059 204,-79 210.839,-76.4981 218.037,-74.1406 225.29,-71.9482"/>
<polygon fill="midnightblue" stroke="midnightblue" points="226.565,-75.2223 235.185,-69.0627 224.605,-68.5022 226.565,-75.2223"/>
</g>
<!-- Node8 -->
<g id="node8" class="node"><title>Node8</title>
<g id="a_node8"><a xlink:href="../../d4/d08/classmodel_1_1_variable.html#ae66ad7cc28e3b083b546e063c2603d60" target="_top" xlink:title="model.Variable.setValue">
<polygon fill="white" stroke="black" points="235,-0.5 235,-19.5 367,-19.5 367,-0.5 235,-0.5"/>
<text text-anchor="middle" x="301" y="-7.5" font-family="Helvetica,sans-Serif" font-size="10.00">model.Variable.setValue</text>
</a>
</g>
</g>
<!-- Node1&#45;&gt;Node8 -->
<g id="edge8" class="edge"><title>Node1&#45;&gt;Node8</title>
<path fill="none" stroke="midnightblue" d="M97.1547,-120.996C116.949,-97.6401 158.532,-52.8984 204,-30 210.586,-26.6833 217.691,-23.9164 224.951,-21.6082"/>
<polygon fill="midnightblue" stroke="midnightblue" points="226.275,-24.8693 234.914,-18.7364 224.336,-18.1432 226.275,-24.8693"/>
</g>
<!-- Node4&#45;&gt;Node2 -->
<g id="edge4" class="edge"><title>Node4&#45;&gt;Node2</title>
<path fill="none" stroke="midnightblue" d="M350.954,-183.589C377.247,-188.739 409.84,-195.123 437.465,-200.534"/>
<polygon fill="midnightblue" stroke="midnightblue" points="436.911,-203.992 447.398,-202.48 438.257,-197.123 436.911,-203.992"/>
</g>
</g>
</svg>
        <g id="navigator" transform="translate(0 0)" fill="#404254">
                <rect fill="#f2f5e9" fill-opacity="0.5" stroke="#606060" stroke-width=".5" x="0" y="0" width="60" height="60"/>
                <use id="zoomplus" xlink:href="#zoomPlus" x="17" y="9" onmousedown="handleZoom(evt,'in')"/>
                <use id="zoomminus" xlink:href="#zoomMin" x="42" y="9" onmousedown="handleZoom(evt,'out')"/>
                <use id="reset" xlink:href="#resetDef" x="30" y="36" onmousedown="handleReset()"/>
                <g id="arrowUp" xlink:href="#dirArrow" transform="translate(30 24)" onmousedown="handlePan(0,-1)">
                  <use xlink:href="#rim" fill="#404040">
                        <set attributeName="fill" to="#808080" begin="arrowUp.mouseover" end="arrowUp.mouseout"/>
                  </use>
                  <path fill="none" stroke="white" stroke-width="1.5" d="M0,-3.0v7 M-2.5,-0.5L0,-3.0L2.5,-0.5"/>
                </g>
                <g id="arrowRight" xlink:href="#dirArrow" transform="rotate(90) translate(36 -43)" onmousedown="handlePan(1,0)">
                  <use xlink:href="#rim" fill="#404040">
                        <set attributeName="fill" to="#808080" begin="arrowRight.mouseover" end="arrowRight.mouseout"/>
                  </use>
                  <path fill="none" stroke="white" stroke-width="1.5" d="M0,-3.0v7 M-2.5,-0.5L0,-3.0L2.5,-0.5"/>
                </g>
                <g id="arrowDown" xlink:href="#dirArrow" transform="rotate(180) translate(-30 -48)" onmousedown="handlePan(0,1)">
                  <use xlink:href="#rim" fill="#404040">
                        <set attributeName="fill" to="#808080" begin="arrowDown.mouseover" end="arrowDown.mouseout"/>
                  </use>
                  <path fill="none" stroke="white" stroke-width="1.5" d="M0,-3.0v7 M-2.5,-0.5L0,-3.0L2.5,-0.5"/>
                </g>
                <g id="arrowLeft" xlink:href="#dirArrow" transform="rotate(270) translate(-36 17)" onmousedown="handlePan(-1,0)">
                  <use xlink:href="#rim" fill="#404040">
                        <set attributeName="fill" to="#808080" begin="arrowLeft.mouseover" end="arrowLeft.mouseout"/>
                  </use>
                  <path fill="none" stroke="white" stroke-width="1.5" d="M0,-3.0v7 M-2.5,-0.5L0,-3.0L2.5,-0.5"/>
                </g>
        </g>
        <svg viewBox="0 0 15 15" width="100%" height="30px" preserveAspectRatio="xMaxYMin meet">
         <g id="arrow_out" transform="scale(0.3 0.3)">
          <a xlink:href="classcommand_1_1control_1_1_make_variable_command_a8f9ffb360b0bc51047bf673464598c90_cgraph_org.svg" target="_base">
           <rect id="button" ry="5" rx="5" y="6" x="6" height="38" width="38"
                fill="#f2f5e9" fill-opacity="0.5" stroke="#606060" stroke-width="1.0"/>
           <path id="arrow"
             d="M 11.500037,31.436501 C 11.940474,20.09759 22.043105,11.32322 32.158766,21.979434 L 37.068811,17.246167 C 37.068811,17.246167 37.088388,32 37.088388,32 L 22.160133,31.978069 C 22.160133,31.978069 26.997745,27.140456 26.997745,27.140456 C 18.528582,18.264221 13.291696,25.230495 11.500037,31.436501 z"
             style="fill:#404040;"/>
          </a>
         </g>
        </svg>
</svg>
