<?xml version="1.0" encoding="UTF-8" standalone="no"?>
<!DOCTYPE svg PUBLIC "-//W3C//DTD SVG 1.1//EN"
 "http://www.w3.org/Graphics/SVG/1.1/DTD/svg11.dtd">
<!-- Generated by graphviz version 2.36.0 (20140111.2315)
 -->
<!-- Title: command.turtle.BackwardCommand.calculateValue Pages: 1 -->
<svg width="422pt" height="191pt"
 viewBox="0.00 0.00 422.00 191.00" xmlns="http://www.w3.org/2000/svg" xmlns:xlink="http://www.w3.org/1999/xlink">
<g id="graph0" class="graph" transform="scale(1 1) rotate(0) translate(4 187)">
<title>command.turtle.BackwardCommand.calculateValue</title>
<polygon fill="white" stroke="none" points="-4,4 -4,-187 418,-187 418,4 -4,4"/>
<!-- Node1 -->
<g id="node1" class="node"><title>Node1</title>
<polygon fill="#bfbfbf" stroke="black" points="0.5,-82 0.5,-112 239.5,-112 239.5,-82 0.5,-82"/>
<text text-anchor="start" x="8.5" y="-100" font-family="Helvetica,sans-Serif" font-size="10.00">command.turtle.BackwardCommand.calculate</text>
<text text-anchor="middle" x="120" y="-89" font-family="Helvetica,sans-Serif" font-size="10.00">Value</text>
</g>
<!-- Node2 -->
<g id="node2" class="node"><title>Node2</title>
<g id="a_node2"><a xlink:href="../../d6/d34/classmodel_1_1_turtle.html#a1c5d07962ede5fbfacc59413274d4300" target="_top" xlink:title="model.Turtle.getHeading">
<polygon fill="white" stroke="black" points="278,-163.5 278,-182.5 412,-182.5 412,-163.5 278,-163.5"/>
<text text-anchor="middle" x="345" y="-170.5" font-family="Helvetica,sans-Serif" font-size="10.00">model.Turtle.getHeading</text>
</a>
</g>
</g>
<!-- Node1&#45;&gt;Node2 -->
<g id="edge1" class="edge"><title>Node1&#45;&gt;Node2</title>
<path fill="none" stroke="midnightblue" d="M159.24,-112.033C190.432,-124.059 235.757,-141.001 276,-154 283.137,-156.305 290.747,-158.594 298.196,-160.742"/>
<polygon fill="midnightblue" stroke="midnightblue" points="297.268,-164.117 307.843,-163.475 299.176,-157.382 297.268,-164.117"/>
</g>
<!-- Node3 -->
<g id="node3" class="node"><title>Node3</title>
<g id="a_node3"><a xlink:href="../../d6/d34/classmodel_1_1_turtle.html#a5c92e7274d592bbd3df40913004dfa71" target="_top" xlink:title="model.Turtle.getX">
<polygon fill="white" stroke="black" points="295,-125.5 295,-144.5 395,-144.5 395,-125.5 295,-125.5"/>
<text text-anchor="middle" x="345" y="-132.5" font-family="Helvetica,sans-Serif" font-size="10.00">model.Turtle.getX</text>
</a>
</g>
</g>
<!-- Node1&#45;&gt;Node3 -->
<g id="edge2" class="edge"><title>Node1&#45;&gt;Node3</title>
<path fill="none" stroke="midnightblue" d="M209.136,-112.019C234.587,-116.356 261.74,-120.983 284.961,-124.939"/>
<polygon fill="midnightblue" stroke="midnightblue" points="284.547,-128.419 294.993,-126.649 285.723,-121.519 284.547,-128.419"/>
</g>
<!-- Node4 -->
<g id="node4" class="node"><title>Node4</title>
<g id="a_node4"><a xlink:href="../../d6/d34/classmodel_1_1_turtle.html#a60ba63667ad6fe29a4570821539db8c8" target="_top" xlink:title="model.Turtle.getY">
<polygon fill="white" stroke="black" points="295.5,-87.5 295.5,-106.5 394.5,-106.5 394.5,-87.5 295.5,-87.5"/>
<text text-anchor="middle" x="345" y="-94.5" font-family="Helvetica,sans-Serif" font-size="10.00">model.Turtle.getY</text>
</a>
</g>
</g>
<!-- Node1&#45;&gt;Node4 -->
<g id="edge3" class="edge"><title>Node1&#45;&gt;Node4</title>
<path fill="none" stroke="midnightblue" d="M239.682,-97C255.501,-97 271.127,-97 285.278,-97"/>
<polygon fill="midnightblue" stroke="midnightblue" points="285.304,-100.5 295.304,-97 285.304,-93.5001 285.304,-100.5"/>
</g>
<!-- Node5 -->
<g id="node5" class="node"><title>Node5</title>
<g id="a_node5"><a xlink:href="../../d6/d34/classmodel_1_1_turtle.html#a964ce9be930d2ad7c46f0700564bf73c" target="_top" xlink:title="model.Turtle.setXY">
<polygon fill="white" stroke="black" points="293,-49.5 293,-68.5 397,-68.5 397,-49.5 293,-49.5"/>
<text text-anchor="middle" x="345" y="-56.5" font-family="Helvetica,sans-Serif" font-size="10.00">model.Turtle.setXY</text>
</a>
</g>
</g>
<!-- Node1&#45;&gt;Node5 -->
<g id="edge4" class="edge"><title>Node1&#45;&gt;Node5</title>
<path fill="none" stroke="midnightblue" d="M209.136,-81.9814C233.734,-77.7897 259.921,-73.3273 282.612,-69.4607"/>
<polygon fill="midnightblue" stroke="midnightblue" points="283.504,-72.8593 292.774,-67.7291 282.328,-65.9588 283.504,-72.8593"/>
</g>
<!-- Node6 -->
<g id="node6" class="node"><title>Node6</title>
<g id="a_node6"><a xlink:href="../../d6/d34/classmodel_1_1_turtle.html#ab69148692c7de79ad6c276902b81553a" target="_top" xlink:title="model.Turtle.updateTurtle\lViewers">
<polygon fill="white" stroke="black" points="276.5,-0 276.5,-30 413.5,-30 413.5,-0 276.5,-0"/>
<text text-anchor="start" x="284.5" y="-18" font-family="Helvetica,sans-Serif" font-size="10.00">model.Turtle.updateTurtle</text>
<text text-anchor="middle" x="345" y="-7" font-family="Helvetica,sans-Serif" font-size="10.00">Viewers</text>
</a>
</g>
</g>
<!-- Node1&#45;&gt;Node6 -->
<g id="edge5" class="edge"><title>Node1&#45;&gt;Node6</title>
<path fill="none" stroke="midnightblue" d="M161.902,-81.9599C198.957,-68.3342 253.685,-48.2101 293.464,-33.5827"/>
<polygon fill="midnightblue" stroke="midnightblue" points="294.803,-36.8196 302.981,-30.0833 292.387,-30.2496 294.803,-36.8196"/>
</g>
</g>
</svg>
