<?xml version="1.0" encoding="UTF-8" standalone="no"?>
<!DOCTYPE svg PUBLIC "-//W3C//DTD SVG 1.1//EN"
 "http://www.w3.org/Graphics/SVG/1.1/DTD/svg11.dtd">
<!-- Generated by graphviz version 2.36.0 (20140111.2315)
 -->
<!-- Title: /tmp/git/duke&#45;compsci308&#45;spring2015/slogo_team06/repository/src/command Pages: 1 -->
<svg width="410pt" height="111pt"
 viewBox="0.00 0.00 410.00 111.00" xmlns="http://www.w3.org/2000/svg" xmlns:xlink="http://www.w3.org/1999/xlink">
<g id="graph0" class="graph" transform="scale(1 1) rotate(0) translate(4 107)">
<title>/tmp/git/duke&#45;compsci308&#45;spring2015/slogo_team06/repository/src/command</title>
<polygon fill="white" stroke="none" points="-4,4 -4,-107 406,-107 406,4 -4,4"/>
<g id="clust1" class="cluster"><title>clusterdir_ac5ae1b3bf1a97d06200c680964eeb1d</title>
<g id="a_clust1"><a xlink:href="dir_ac5ae1b3bf1a97d06200c680964eeb1d.html" target="_top" xlink:title="src">
<polygon fill="#ddddee" stroke="black" points="8,-8 8,-95 394,-95 394,-8 8,-8"/>
<text text-anchor="middle" x="201" y="-83" font-family="Helvetica,sans-Serif" font-size="10.00">src</text>
</a>
</g>
</g>
<g id="clust2" class="cluster"><title>clusterdir_a60d2d358621659cb8cbda586a1d24fa</title>
<g id="a_clust2"><a xlink:href="dir_a60d2d358621659cb8cbda586a1d24fa.html" target="_top">
<polygon fill="#eeeeff" stroke="black" points="16,-16 16,-68 386,-68 386,-16 16,-16"/>
</a>
</g>
</g>
<!-- dir_a60d2d358621659cb8cbda586a1d24fa -->
<g id="node1" class="node"><title>dir_a60d2d358621659cb8cbda586a1d24fa</title>
<text text-anchor="middle" x="345" y="-39.5" font-family="Helvetica,sans-Serif" font-size="10.00">command</text>
</g>
<!-- dir_c1558aa3ed1454ee8e251d6c46d06674 -->
<g id="node2" class="node"><title>dir_c1558aa3ed1454ee8e251d6c46d06674</title>
<g id="a_node2"><a xlink:href="dir_c1558aa3ed1454ee8e251d6c46d06674.html" target="_top" xlink:title="bool">
<polygon fill="white" stroke="black" points="294,-60 240,-60 240,-24 294,-24 294,-60"/>
<text text-anchor="middle" x="267" y="-39.5" font-family="Helvetica,sans-Serif" font-size="10.00">bool</text>
</a>
</g>
</g>
<!-- dir_c8a40f288cf10ccdda6b30ad5685e2d7 -->
<g id="node3" class="node"><title>dir_c8a40f288cf10ccdda6b30ad5685e2d7</title>
<g id="a_node3"><a xlink:href="dir_c8a40f288cf10ccdda6b30ad5685e2d7.html" target="_top" xlink:title="control">
<polygon fill="white" stroke="black" points="222,-60 168,-60 168,-24 222,-24 222,-60"/>
<text text-anchor="middle" x="195" y="-39.5" font-family="Helvetica,sans-Serif" font-size="10.00">control</text>
</a>
</g>
</g>
<!-- dir_8e71b0e42e4bf15edf86ac7d03e548ba -->
<g id="node4" class="node"><title>dir_8e71b0e42e4bf15edf86ac7d03e548ba</title>
<g id="a_node4"><a xlink:href="dir_8e71b0e42e4bf15edf86ac7d03e548ba.html" target="_top" xlink:title="math">
<polygon fill="white" stroke="black" points="150,-60 96,-60 96,-24 150,-24 150,-60"/>
<text text-anchor="middle" x="123" y="-39.5" font-family="Helvetica,sans-Serif" font-size="10.00">math</text>
</a>
</g>
</g>
<!-- dir_87710d16b7fae6e06e543eb315874141 -->
<g id="node5" class="node"><title>dir_87710d16b7fae6e06e543eb315874141</title>
<g id="a_node5"><a xlink:href="dir_87710d16b7fae6e06e543eb315874141.html" target="_top" xlink:title="turtle">
<polygon fill="white" stroke="black" points="78,-60 24,-60 24,-24 78,-24 78,-60"/>
<text text-anchor="middle" x="51" y="-39.5" font-family="Helvetica,sans-Serif" font-size="10.00">turtle</text>
</a>
</g>
</g>
</g>
</svg>
