<?xml version="1.0" encoding="UTF-8" standalone="no"?>
<!DOCTYPE svg PUBLIC "-//W3C//DTD SVG 1.1//EN"
 "http://www.w3.org/Graphics/SVG/1.1/DTD/svg11.dtd">
<!-- Generated by graphviz version 2.36.0 (20140111.2315)
 -->
<!-- Title: /tmp/git/duke&#45;compsci308&#45;spring2015/slogo_team06/repository/src Pages: 1 -->
<svg width="778pt" height="111pt"
 viewBox="0.00 0.00 778.00 111.00" xmlns="http://www.w3.org/2000/svg" xmlns:xlink="http://www.w3.org/1999/xlink">
<g id="graph0" class="graph" transform="scale(1 1) rotate(0) translate(4 107)">
<title>/tmp/git/duke&#45;compsci308&#45;spring2015/slogo_team06/repository/src</title>
<polygon fill="white" stroke="none" points="-4,4 -4,-107 774,-107 774,4 -4,4"/>
<g id="clust1" class="cluster"><title>clusterdir_19065a019c4c537966e7a5a06e01e76f</title>
<g id="a_clust1"><a xlink:href="dir_19065a019c4c537966e7a5a06e01e76f.html" target="_top" xlink:title="repository">
<polygon fill="#ddddee" stroke="black" points="8,-8 8,-95 762,-95 762,-8 8,-8"/>
<text text-anchor="middle" x="385" y="-83" font-family="Helvetica,sans-Serif" font-size="10.00">repository</text>
</a>
</g>
</g>
<g id="clust2" class="cluster"><title>clusterdir_ac5ae1b3bf1a97d06200c680964eeb1d</title>
<g id="a_clust2"><a xlink:href="dir_ac5ae1b3bf1a97d06200c680964eeb1d.html" target="_top">
<polygon fill="#eeeeff" stroke="black" points="16,-16 16,-68 754,-68 754,-16 16,-16"/>
</a>
</g>
</g>
<!-- dir_ac5ae1b3bf1a97d06200c680964eeb1d -->
<g id="node1" class="node"><title>dir_ac5ae1b3bf1a97d06200c680964eeb1d</title>
<text text-anchor="middle" x="719" y="-39.5" font-family="Helvetica,sans-Serif" font-size="10.00">src</text>
</g>
<!-- dir_a60d2d358621659cb8cbda586a1d24fa -->
<g id="node2" class="node"><title>dir_a60d2d358621659cb8cbda586a1d24fa</title>
<g id="a_node2"><a xlink:href="dir_a60d2d358621659cb8cbda586a1d24fa.html" target="_top" xlink:title="command">
<polygon fill="white" stroke="red" points="673.25,-60 608.75,-60 608.75,-24 673.25,-24 673.25,-60"/>
<text text-anchor="middle" x="641" y="-39.5" font-family="Helvetica,sans-Serif" font-size="10.00">command</text>
</a>
</g>
</g>
<!-- dir_32f7f0cca452a45948ba37fe744afb13 -->
<g id="node3" class="node"><title>dir_32f7f0cca452a45948ba37fe744afb13</title>
<g id="a_node3"><a xlink:href="dir_32f7f0cca452a45948ba37fe744afb13.html" target="_top" xlink:title="controller">
<polygon fill="white" stroke="black" points="589.5,-60 528.5,-60 528.5,-24 589.5,-24 589.5,-60"/>
<text text-anchor="middle" x="559" y="-39.5" font-family="Helvetica,sans-Serif" font-size="10.00">controller</text>
</a>
</g>
</g>
<!-- dir_38265e8cb92a730fd2a3b808aef187cf -->
<g id="node4" class="node"><title>dir_38265e8cb92a730fd2a3b808aef187cf</title>
<g id="a_node4"><a xlink:href="dir_38265e8cb92a730fd2a3b808aef187cf.html" target="_top" xlink:title="errors">
<polygon fill="white" stroke="black" points="510,-60 456,-60 456,-24 510,-24 510,-60"/>
<text text-anchor="middle" x="483" y="-39.5" font-family="Helvetica,sans-Serif" font-size="10.00">errors</text>
</a>
</g>
</g>
<!-- dir_50c9ba602f609d8e362ca94e593fafc3 -->
<g id="node5" class="node"><title>dir_50c9ba602f609d8e362ca94e593fafc3</title>
<g id="a_node5"><a xlink:href="dir_50c9ba602f609d8e362ca94e593fafc3.html" target="_top" xlink:title="main">
<polygon fill="white" stroke="black" points="438,-60 384,-60 384,-24 438,-24 438,-60"/>
<text text-anchor="middle" x="411" y="-39.5" font-family="Helvetica,sans-Serif" font-size="10.00">main</text>
</a>
</g>
</g>
<!-- dir_1510887c82a9615d6d1b9f8f9646d135 -->
<g id="node6" class="node"><title>dir_1510887c82a9615d6d1b9f8f9646d135</title>
<g id="a_node6"><a xlink:href="dir_1510887c82a9615d6d1b9f8f9646d135.html" target="_top" xlink:title="model">
<polygon fill="white" stroke="black" points="366,-60 312,-60 312,-24 366,-24 366,-60"/>
<text text-anchor="middle" x="339" y="-39.5" font-family="Helvetica,sans-Serif" font-size="10.00">model</text>
</a>
</g>
</g>
<!-- dir_09880be13d9ff60bb35265935243f5c6 -->
<g id="node7" class="node"><title>dir_09880be13d9ff60bb35265935243f5c6</title>
<g id="a_node7"><a xlink:href="dir_09880be13d9ff60bb35265935243f5c6.html" target="_top" xlink:title="parser">
<polygon fill="white" stroke="black" points="294,-60 240,-60 240,-24 294,-24 294,-60"/>
<text text-anchor="middle" x="267" y="-39.5" font-family="Helvetica,sans-Serif" font-size="10.00">parser</text>
</a>
</g>
</g>
<!-- dir_60aeb8ab8dd7319cb7f4da830c3b007e -->
<g id="node8" class="node"><title>dir_60aeb8ab8dd7319cb7f4da830c3b007e</title>
<g id="a_node8"><a xlink:href="dir_60aeb8ab8dd7319cb7f4da830c3b007e.html" target="_top" xlink:title="ui">
<polygon fill="white" stroke="red" points="222,-60 168,-60 168,-24 222,-24 222,-60"/>
<text text-anchor="middle" x="195" y="-39.5" font-family="Helvetica,sans-Serif" font-size="10.00">ui</text>
</a>
</g>
</g>
<!-- dir_c68afbbea6c1954c6127e8d61cda3603 -->
<g id="node9" class="node"><title>dir_c68afbbea6c1954c6127e8d61cda3603</title>
<g id="a_node9"><a xlink:href="dir_c68afbbea6c1954c6127e8d61cda3603.html" target="_top" xlink:title="ui_table">
<polygon fill="white" stroke="black" points="150,-60 96,-60 96,-24 150,-24 150,-60"/>
<text text-anchor="middle" x="123" y="-39.5" font-family="Helvetica,sans-Serif" font-size="10.00">ui_table</text>
</a>
</g>
</g>
<!-- dir_a9bb6d0397970fc92f7907eb68cbff14 -->
<g id="node10" class="node"><title>dir_a9bb6d0397970fc92f7907eb68cbff14</title>
<g id="a_node10"><a xlink:href="dir_a9bb6d0397970fc92f7907eb68cbff14.html" target="_top" xlink:title="util">
<polygon fill="white" stroke="black" points="78,-60 24,-60 24,-24 78,-24 78,-60"/>
<text text-anchor="middle" x="51" y="-39.5" font-family="Helvetica,sans-Serif" font-size="10.00">util</text>
</a>
</g>
</g>
</g>
</svg>
