<?xml version="1.0" encoding="UTF-8" standalone="no"?>
<!DOCTYPE svg PUBLIC "-//W3C//DTD SVG 1.1//EN"
 "http://www.w3.org/Graphics/SVG/1.1/DTD/svg11.dtd">
<!-- Generated by graphviz version 2.36.0 (20140111.2315)
 -->
<!-- Title: /tmp/git/duke&#45;compsci308&#45;spring2015/slogo_team06/repository/src/ui Pages: 1 -->
<svg width="262pt" height="111pt"
 viewBox="0.00 0.00 262.00 111.00" xmlns="http://www.w3.org/2000/svg" xmlns:xlink="http://www.w3.org/1999/xlink">
<g id="graph0" class="graph" transform="scale(1 1) rotate(0) translate(4 107)">
<title>/tmp/git/duke&#45;compsci308&#45;spring2015/slogo_team06/repository/src/ui</title>
<polygon fill="white" stroke="none" points="-4,4 -4,-107 258,-107 258,4 -4,4"/>
<g id="clust1" class="cluster"><title>clusterdir_ac5ae1b3bf1a97d06200c680964eeb1d</title>
<g id="a_clust1"><a xlink:href="dir_ac5ae1b3bf1a97d06200c680964eeb1d.html" target="_top" xlink:title="src">
<polygon fill="#ddddee" stroke="black" points="8,-8 8,-95 246,-95 246,-8 8,-8"/>
<text text-anchor="middle" x="127" y="-83" font-family="Helvetica,sans-Serif" font-size="10.00">src</text>
</a>
</g>
</g>
<g id="clust2" class="cluster"><title>clusterdir_60aeb8ab8dd7319cb7f4da830c3b007e</title>
<g id="a_clust2"><a xlink:href="dir_60aeb8ab8dd7319cb7f4da830c3b007e.html" target="_top">
<polygon fill="#eeeeff" stroke="black" points="16,-16 16,-68 238,-68 238,-16 16,-16"/>
</a>
</g>
</g>
<!-- dir_60aeb8ab8dd7319cb7f4da830c3b007e -->
<g id="node1" class="node"><title>dir_60aeb8ab8dd7319cb7f4da830c3b007e</title>
<text text-anchor="middle" x="203" y="-39.5" font-family="Helvetica,sans-Serif" font-size="10.00">ui</text>
</g>
<!-- dir_39a952e41acd0982605e802b19fe0a49 -->
<g id="node2" class="node"><title>dir_39a952e41acd0982605e802b19fe0a49</title>
<g id="a_node2"><a xlink:href="dir_39a952e41acd0982605e802b19fe0a49.html" target="_top" xlink:title="artists">
<polygon fill="white" stroke="black" points="158,-60 104,-60 104,-24 158,-24 158,-60"/>
<text text-anchor="middle" x="131" y="-39.5" font-family="Helvetica,sans-Serif" font-size="10.00">artists</text>
</a>
</g>
</g>
<!-- dir_12c393d451aeca2b6537a00883f46783 -->
<g id="node3" class="node"><title>dir_12c393d451aeca2b6537a00883f46783</title>
<g id="a_node3"><a xlink:href="dir_12c393d451aeca2b6537a00883f46783.html" target="_top" xlink:title="elements">
<polygon fill="white" stroke="black" points="85.5,-60 24.5,-60 24.5,-24 85.5,-24 85.5,-60"/>
<text text-anchor="middle" x="55" y="-39.5" font-family="Helvetica,sans-Serif" font-size="10.00">elements</text>
</a>
</g>
</g>
</g>
</svg>
