<?xml version="1.0" encoding="UTF-8" standalone="no"?>
<!DOCTYPE svg PUBLIC "-//W3C//DTD SVG 1.1//EN"
 "http://www.w3.org/Graphics/SVG/1.1/DTD/svg11.dtd">
<!-- Generated by graphviz version 2.36.0 (20140111.2315)
 -->
<!-- Title: Graphical Class Hierarchy Pages: 1 -->
<svg width="252pt" height="180pt"
 viewBox="0.00 0.00 252.00 180.00" xmlns="http://www.w3.org/2000/svg" xmlns:xlink="http://www.w3.org/1999/xlink">
<g id="graph0" class="graph" transform="scale(1 1) rotate(0) translate(4 176)">
<title>Graphical Class Hierarchy</title>
<polygon fill="white" stroke="none" points="-4,4 -4,-176 248,-176 248,4 -4,4"/>
<!-- Node1 -->
<g id="node1" class="node"><title>Node1</title>
<g id="a_node1"><a xlink:href="d7/d32/interfaceparser_1_1_cases.html" target="_top" xlink:title="parser.Cases">
<polygon fill="white" stroke="black" points="0.5,-76.5 0.5,-95.5 79.5,-95.5 79.5,-76.5 0.5,-76.5"/>
<text text-anchor="middle" x="40" y="-83.5" font-family="Helvetica,sans-Serif" font-size="10.00">parser.Cases</text>
</a>
</g>
</g>
<!-- Node2 -->
<g id="node2" class="node"><title>Node2</title>
<g id="a_node2"><a xlink:href="d5/d30/classparser_1_1_command_case.html" target="_top" xlink:title="parser.CommandCase">
<polygon fill="white" stroke="black" points="118,-152.5 118,-171.5 242,-171.5 242,-152.5 118,-152.5"/>
<text text-anchor="middle" x="180" y="-159.5" font-family="Helvetica,sans-Serif" font-size="10.00">parser.CommandCase</text>
</a>
</g>
</g>
<!-- Node1&#45;&gt;Node2 -->
<g id="edge1" class="edge"><title>Node1&#45;&gt;Node2</title>
<path fill="none" stroke="midnightblue" d="M59.0216,-102.664C73.4843,-115.269 94.8063,-132.197 116,-143 123.328,-146.735 131.518,-149.872 139.504,-152.452"/>
<polygon fill="midnightblue" stroke="midnightblue" points="61.1435,-99.8664 51.3517,-95.8204 56.4832,-105.09 61.1435,-99.8664"/>
</g>
<!-- Node3 -->
<g id="node3" class="node"><title>Node3</title>
<g id="a_node3"><a xlink:href="d9/d14/classparser_1_1_constant_case.html" target="_top" xlink:title="parser.ConstantCase">
<polygon fill="white" stroke="black" points="121.5,-114.5 121.5,-133.5 238.5,-133.5 238.5,-114.5 121.5,-114.5"/>
<text text-anchor="middle" x="180" y="-121.5" font-family="Helvetica,sans-Serif" font-size="10.00">parser.ConstantCase</text>
</a>
</g>
</g>
<!-- Node1&#45;&gt;Node3 -->
<g id="edge2" class="edge"><title>Node1&#45;&gt;Node3</title>
<path fill="none" stroke="midnightblue" d="M85.473,-98.2462C104.495,-103.484 126.375,-109.509 144.188,-114.414"/>
<polygon fill="midnightblue" stroke="midnightblue" points="86.3936,-94.8695 75.8232,-95.589 84.5352,-101.618 86.3936,-94.8695"/>
</g>
<!-- Node4 -->
<g id="node4" class="node"><title>Node4</title>
<g id="a_node4"><a xlink:href="df/d34/classparser_1_1_group_start_case.html" target="_top" xlink:title="parser.GroupStartCase">
<polygon fill="white" stroke="black" points="116.5,-76.5 116.5,-95.5 243.5,-95.5 243.5,-76.5 116.5,-76.5"/>
<text text-anchor="middle" x="180" y="-83.5" font-family="Helvetica,sans-Serif" font-size="10.00">parser.GroupStartCase</text>
</a>
</g>
</g>
<!-- Node1&#45;&gt;Node4 -->
<g id="edge3" class="edge"><title>Node1&#45;&gt;Node4</title>
<path fill="none" stroke="midnightblue" d="M89.9973,-86C98.5667,-86 107.587,-86 116.463,-86"/>
<polygon fill="midnightblue" stroke="midnightblue" points="89.808,-82.5001 79.8079,-86 89.8079,-89.5001 89.808,-82.5001"/>
</g>
<!-- Node5 -->
<g id="node5" class="node"><title>Node5</title>
<g id="a_node5"><a xlink:href="da/db7/classparser_1_1_list_start_case.html" target="_top" xlink:title="parser.ListStartCase">
<polygon fill="white" stroke="black" points="123,-38.5 123,-57.5 237,-57.5 237,-38.5 123,-38.5"/>
<text text-anchor="middle" x="180" y="-45.5" font-family="Helvetica,sans-Serif" font-size="10.00">parser.ListStartCase</text>
</a>
</g>
</g>
<!-- Node1&#45;&gt;Node5 -->
<g id="edge4" class="edge"><title>Node1&#45;&gt;Node5</title>
<path fill="none" stroke="midnightblue" d="M85.473,-73.7538C104.495,-68.516 126.375,-62.4909 144.188,-57.5859"/>
<polygon fill="midnightblue" stroke="midnightblue" points="84.5352,-70.3817 75.8232,-76.411 86.3936,-77.1305 84.5352,-70.3817"/>
</g>
<!-- Node6 -->
<g id="node6" class="node"><title>Node6</title>
<g id="a_node6"><a xlink:href="df/d5d/classparser_1_1_variable_case.html" target="_top" xlink:title="parser.VariableCase">
<polygon fill="white" stroke="black" points="124,-0.5 124,-19.5 236,-19.5 236,-0.5 124,-0.5"/>
<text text-anchor="middle" x="180" y="-7.5" font-family="Helvetica,sans-Serif" font-size="10.00">parser.VariableCase</text>
</a>
</g>
</g>
<!-- Node1&#45;&gt;Node6 -->
<g id="edge5" class="edge"><title>Node1&#45;&gt;Node6</title>
<path fill="none" stroke="midnightblue" d="M59.0216,-69.3362C73.4843,-56.7308 94.8063,-39.8028 116,-29 123.328,-25.2647 131.518,-22.1275 139.504,-19.5476"/>
<polygon fill="midnightblue" stroke="midnightblue" points="56.4832,-66.9104 51.3517,-76.1796 61.1435,-72.1336 56.4832,-66.9104"/>
</g>
</g>
</svg>
