<?xml version="1.0" encoding="UTF-8" standalone="no"?>
<!DOCTYPE svg PUBLIC "-//W3C//DTD SVG 1.1//EN"
 "http://www.w3.org/Graphics/SVG/1.1/DTD/svg11.dtd">
<!-- Generated by graphviz version 2.36.0 (20140111.2315)
 -->
<!-- Title: Graphical Class Hierarchy Pages: 1 -->
<svg width="324pt" height="66pt"
 viewBox="0.00 0.00 324.00 66.00" xmlns="http://www.w3.org/2000/svg" xmlns:xlink="http://www.w3.org/1999/xlink">
<g id="graph0" class="graph" transform="scale(1 1) rotate(0) translate(4 62)">
<title>Graphical Class Hierarchy</title>
<polygon fill="white" stroke="none" points="-4,4 -4,-62 320,-62 320,4 -4,4"/>
<!-- Node1 -->
<g id="node1" class="node"><title>Node1</title>
<g id="a_node1"><a xlink:href="d1/d82/interfaceui__table_1_1_table_elements.html" target="_top" xlink:title="ui_table.TableElements">
<polygon fill="white" stroke="black" points="0,-19.5 0,-38.5 126,-38.5 126,-19.5 0,-19.5"/>
<text text-anchor="middle" x="63" y="-26.5" font-family="Helvetica,sans-Serif" font-size="10.00">ui_table.TableElements</text>
</a>
</g>
</g>
<!-- Node2 -->
<g id="node2" class="node"><title>Node2</title>
<g id="a_node2"><a xlink:href="dd/d5b/classui__table_1_1_previous_commands.html" target="_top" xlink:title="ui_table.PreviousCommands">
<polygon fill="white" stroke="black" points="162.5,-38.5 162.5,-57.5 315.5,-57.5 315.5,-38.5 162.5,-38.5"/>
<text text-anchor="middle" x="239" y="-45.5" font-family="Helvetica,sans-Serif" font-size="10.00">ui_table.PreviousCommands</text>
</a>
</g>
</g>
<!-- Node1&#45;&gt;Node2 -->
<g id="edge1" class="edge"><title>Node1&#45;&gt;Node2</title>
<path fill="none" stroke="midnightblue" d="M136.333,-36.8984C144.952,-37.8396 153.769,-38.8024 162.432,-39.7484"/>
<polygon fill="midnightblue" stroke="midnightblue" points="136.647,-33.412 126.327,-35.8058 135.887,-40.3707 136.647,-33.412"/>
</g>
<!-- Node3 -->
<g id="node3" class="node"><title>Node3</title>
<g id="a_node3"><a xlink:href="d1/d01/classui__table_1_1_variable.html" target="_top" xlink:title="ui_table.Variable">
<polygon fill="white" stroke="black" points="191.5,-0.5 191.5,-19.5 286.5,-19.5 286.5,-0.5 191.5,-0.5"/>
<text text-anchor="middle" x="239" y="-7.5" font-family="Helvetica,sans-Serif" font-size="10.00">ui_table.Variable</text>
</a>
</g>
</g>
<!-- Node1&#45;&gt;Node3 -->
<g id="edge2" class="edge"><title>Node1&#45;&gt;Node3</title>
<path fill="none" stroke="midnightblue" d="M136.52,-21.0811C155.077,-19.0549 174.537,-16.9299 191.396,-15.0889"/>
<polygon fill="midnightblue" stroke="midnightblue" points="135.887,-17.6293 126.327,-22.1942 136.647,-24.588 135.887,-17.6293"/>
</g>
</g>
</svg>
