<?xml version="1.0" encoding="UTF-8" standalone="no"?>
<!DOCTYPE svg PUBLIC "-//W3C//DTD SVG 1.1//EN"
 "http://www.w3.org/Graphics/SVG/1.1/DTD/svg11.dtd">
<!-- Generated by graphviz version 2.36.0 (20140111.2315)
 -->
<!-- Title: Graphical Class Hierarchy Pages: 1 -->
<svg width="500pt" height="154pt"
 viewBox="0.00 0.00 500.00 154.00" xmlns="http://www.w3.org/2000/svg" xmlns:xlink="http://www.w3.org/1999/xlink">
<g id="graph0" class="graph" transform="scale(1 1) rotate(0) translate(4 150)">
<title>Graphical Class Hierarchy</title>
<polygon fill="white" stroke="none" points="-4,4 -4,-150 496,-150 496,4 -4,4"/>
<!-- Node1 -->
<g id="node1" class="node"><title>Node1</title>
<polygon fill="white" stroke="#bfbfbf" points="0,-60.5 0,-79.5 102,-79.5 102,-60.5 0,-60.5"/>
<text text-anchor="middle" x="51" y="-67.5" font-family="Helvetica,sans-Serif" font-size="10.00">RuntimeException</text>
</g>
<!-- Node2 -->
<g id="node2" class="node"><title>Node2</title>
<g id="a_node2"><a xlink:href="d9/dad/classerrors_1_1_s_logo_exception.html" target="_top" xlink:title="errors.SLogoException">
<polygon fill="white" stroke="black" points="138.5,-60.5 138.5,-79.5 263.5,-79.5 263.5,-60.5 138.5,-60.5"/>
<text text-anchor="middle" x="201" y="-67.5" font-family="Helvetica,sans-Serif" font-size="10.00">errors.SLogoException</text>
</a>
</g>
</g>
<!-- Node1&#45;&gt;Node2 -->
<g id="edge1" class="edge"><title>Node1&#45;&gt;Node2</title>
<path fill="none" stroke="midnightblue" d="M112.122,-70C120.782,-70 129.705,-70 138.393,-70"/>
<polygon fill="midnightblue" stroke="midnightblue" points="112.106,-66.5001 102.106,-70 112.106,-73.5001 112.106,-66.5001"/>
</g>
<!-- Node3 -->
<g id="node3" class="node"><title>Node3</title>
<g id="a_node3"><a xlink:href="d5/dc4/classerrors_1_1_command_not_found_exception.html" target="_top" xlink:title="errors.CommandNotFoundException">
<polygon fill="white" stroke="black" points="300.5,-126.5 300.5,-145.5 491.5,-145.5 491.5,-126.5 300.5,-126.5"/>
<text text-anchor="middle" x="396" y="-133.5" font-family="Helvetica,sans-Serif" font-size="10.00">errors.CommandNotFoundException</text>
</a>
</g>
</g>
<!-- Node2&#45;&gt;Node3 -->
<g id="edge2" class="edge"><title>Node2&#45;&gt;Node3</title>
<path fill="none" stroke="midnightblue" d="M228.285,-84.3804C247.635,-94.4557 274.844,-107.575 300,-116 312.466,-120.175 326.155,-123.663 339.164,-126.494"/>
<polygon fill="midnightblue" stroke="midnightblue" points="229.674,-81.1556 219.199,-79.5717 226.4,-87.3427 229.674,-81.1556"/>
</g>
<!-- Node4 -->
<g id="node4" class="node"><title>Node4</title>
<g id="a_node4"><a xlink:href="de/dce/classerrors_1_1_illegal_parameter_number_exception.html" target="_top" xlink:title="errors.IllegalParameterNumber\lException">
<polygon fill="white" stroke="black" points="314,-77 314,-107 478,-107 478,-77 314,-77"/>
<text text-anchor="start" x="322" y="-95" font-family="Helvetica,sans-Serif" font-size="10.00">errors.IllegalParameterNumber</text>
<text text-anchor="middle" x="396" y="-84" font-family="Helvetica,sans-Serif" font-size="10.00">Exception</text>
</a>
</g>
</g>
<!-- Node2&#45;&gt;Node4 -->
<g id="edge3" class="edge"><title>Node2&#45;&gt;Node4</title>
<path fill="none" stroke="midnightblue" d="M273.897,-78.1955C286.937,-79.6819 300.619,-81.2415 313.901,-82.7556"/>
<polygon fill="midnightblue" stroke="midnightblue" points="273.929,-74.6766 263.597,-77.0214 273.136,-81.6316 273.929,-74.6766"/>
</g>
<!-- Node5 -->
<g id="node5" class="node"><title>Node5</title>
<g id="a_node5"><a xlink:href="d6/db6/classerrors_1_1_no_input_found_exception.html" target="_top" xlink:title="errors.NoInputFoundException">
<polygon fill="white" stroke="black" points="315.5,-38.5 315.5,-57.5 476.5,-57.5 476.5,-38.5 315.5,-38.5"/>
<text text-anchor="middle" x="396" y="-45.5" font-family="Helvetica,sans-Serif" font-size="10.00">errors.NoInputFoundException</text>
</a>
</g>
</g>
<!-- Node2&#45;&gt;Node5 -->
<g id="edge4" class="edge"><title>Node2&#45;&gt;Node5</title>
<path fill="none" stroke="midnightblue" d="M273.788,-61.817C287.316,-60.2749 301.539,-58.6536 315.293,-57.0858"/>
<polygon fill="midnightblue" stroke="midnightblue" points="273.136,-58.3684 263.597,-62.9786 273.929,-65.3234 273.136,-58.3684"/>
</g>
<!-- Node6 -->
<g id="node6" class="node"><title>Node6</title>
<g id="a_node6"><a xlink:href="d6/d8a/classerrors_1_1_unmatched_bracket_exception.html" target="_top" xlink:title="errors.UnmatchedBracketException">
<polygon fill="white" stroke="black" points="302,-0.5 302,-19.5 490,-19.5 490,-0.5 302,-0.5"/>
<text text-anchor="middle" x="396" y="-7.5" font-family="Helvetica,sans-Serif" font-size="10.00">errors.UnmatchedBracketException</text>
</a>
</g>
</g>
<!-- Node2&#45;&gt;Node6 -->
<g id="edge5" class="edge"><title>Node2&#45;&gt;Node6</title>
<path fill="none" stroke="midnightblue" d="M230.593,-56.2589C249.848,-47.452 276.011,-36.3371 300,-29 312.063,-25.3105 325.212,-22.152 337.775,-19.5301"/>
<polygon fill="midnightblue" stroke="midnightblue" points="229.065,-53.1095 221.469,-60.4957 232.013,-59.4584 229.065,-53.1095"/>
</g>
</g>
</svg>
