<?xml version="1.0" encoding="UTF-8" standalone="no"?>
<!DOCTYPE svg PUBLIC "-//W3C//DTD SVG 1.1//EN"
 "http://www.w3.org/Graphics/SVG/1.1/DTD/svg11.dtd">
<!-- Generated by graphviz version 2.36.0 (20140111.2315)
 -->
<!-- Title: Graphical Class Hierarchy Pages: 1 -->
<svg width="202pt" height="66pt"
 viewBox="0.00 0.00 202.00 66.00" xmlns="http://www.w3.org/2000/svg" xmlns:xlink="http://www.w3.org/1999/xlink">
<g id="graph0" class="graph" transform="scale(1 1) rotate(0) translate(4 62)">
<title>Graphical Class Hierarchy</title>
<polygon fill="white" stroke="none" points="-4,4 -4,-62 198,-62 198,4 -4,4"/>
<!-- Node1 -->
<g id="node1" class="node"><title>Node1</title>
<polygon fill="white" stroke="#bfbfbf" points="0,-19.5 0,-38.5 60,-38.5 60,-19.5 0,-19.5"/>
<text text-anchor="middle" x="30" y="-26.5" font-family="Helvetica,sans-Serif" font-size="10.00">Observer</text>
</g>
<!-- Node2 -->
<g id="node2" class="node"><title>Node2</title>
<g id="a_node2"><a xlink:href="d5/d06/classui_1_1_scene_updater.html" target="_top" xlink:title="ui.SceneUpdater">
<polygon fill="white" stroke="black" points="96.5,-38.5 96.5,-57.5 193.5,-57.5 193.5,-38.5 96.5,-38.5"/>
<text text-anchor="middle" x="145" y="-45.5" font-family="Helvetica,sans-Serif" font-size="10.00">ui.SceneUpdater</text>
</a>
</g>
</g>
<!-- Node1&#45;&gt;Node2 -->
<g id="edge1" class="edge"><title>Node1&#45;&gt;Node2</title>
<path fill="none" stroke="midnightblue" d="M70.0269,-35.562C78.4454,-36.9775 87.4379,-38.4896 96.1495,-39.9543"/>
<polygon fill="midnightblue" stroke="midnightblue" points="70.5423,-32.0996 60.1003,-33.893 69.3815,-39.0027 70.5423,-32.0996"/>
</g>
<!-- Node3 -->
<g id="node3" class="node"><title>Node3</title>
<g id="a_node3"><a xlink:href="d3/db6/classui_1_1_turtle_view.html" target="_top" xlink:title="ui.TurtleView">
<polygon fill="white" stroke="black" points="107.5,-0.5 107.5,-19.5 182.5,-19.5 182.5,-0.5 107.5,-0.5"/>
<text text-anchor="middle" x="145" y="-7.5" font-family="Helvetica,sans-Serif" font-size="10.00">ui.TurtleView</text>
</a>
</g>
</g>
<!-- Node1&#45;&gt;Node3 -->
<g id="edge2" class="edge"><title>Node1&#45;&gt;Node3</title>
<path fill="none" stroke="midnightblue" d="M70.298,-22.3924C82.3088,-20.3729 95.4661,-18.1606 107.298,-16.1712"/>
<polygon fill="midnightblue" stroke="midnightblue" points="69.3815,-18.9973 60.1003,-24.107 70.5423,-25.9004 69.3815,-18.9973"/>
</g>
</g>
</svg>
