<?xml version="1.0" encoding="UTF-8" standalone="no"?>
<!DOCTYPE svg PUBLIC "-//W3C//DTD SVG 1.1//EN"
 "http://www.w3.org/Graphics/SVG/1.1/DTD/svg11.dtd">
<!-- Generated by graphviz version 2.36.0 (20140111.2315)
 -->
<!-- Title: Graphical Class Hierarchy Pages: 1 -->
<svg width="496pt" height="87pt"
 viewBox="0.00 0.00 496.00 87.00" xmlns="http://www.w3.org/2000/svg" xmlns:xlink="http://www.w3.org/1999/xlink">
<g id="graph0" class="graph" transform="scale(1 1) rotate(0) translate(4 83)">
<title>Graphical Class Hierarchy</title>
<polygon fill="white" stroke="none" points="-4,4 -4,-83 492,-83 492,4 -4,4"/>
<!-- Node1 -->
<g id="node1" class="node"><title>Node1</title>
<g id="a_node1"><a xlink:href="d8/d1e/interfaceui_1_1artists_1_1_line_draw_helper.html" target="_top" xlink:title="ui.artists.LineDrawHelper">
<polygon fill="white" stroke="black" points="0,-29.5 0,-48.5 136,-48.5 136,-29.5 0,-29.5"/>
<text text-anchor="middle" x="68" y="-36.5" font-family="Helvetica,sans-Serif" font-size="10.00">ui.artists.LineDrawHelper</text>
</a>
</g>
</g>
<!-- Node2 -->
<g id="node2" class="node"><title>Node2</title>
<g id="a_node2"><a xlink:href="d0/d3e/classui_1_1artists_1_1_dashed_line_draw_helper.html" target="_top" xlink:title="ui.artists.DashedLineDraw\lHelper">
<polygon fill="white" stroke="black" points="172.5,-49 172.5,-79 313.5,-79 313.5,-49 172.5,-49"/>
<text text-anchor="start" x="180.5" y="-67" font-family="Helvetica,sans-Serif" font-size="10.00">ui.artists.DashedLineDraw</text>
<text text-anchor="middle" x="243" y="-56" font-family="Helvetica,sans-Serif" font-size="10.00">Helper</text>
</a>
</g>
</g>
<!-- Node1&#45;&gt;Node2 -->
<g id="edge1" class="edge"><title>Node1&#45;&gt;Node2</title>
<path fill="none" stroke="midnightblue" d="M145.033,-49.9874C154.087,-51.2959 163.297,-52.6268 172.258,-53.9216"/>
<polygon fill="midnightblue" stroke="midnightblue" points="145.295,-46.489 134.897,-48.5227 144.294,-53.4171 145.295,-46.489"/>
</g>
<!-- Node4 -->
<g id="node4" class="node"><title>Node4</title>
<g id="a_node4"><a xlink:href="da/def/classui_1_1artists_1_1_normal_line_draw_helper.html" target="_top" xlink:title="ui.artists.NormalLineDraw\lHelper">
<polygon fill="white" stroke="black" points="173,-0 173,-30 313,-30 313,-0 173,-0"/>
<text text-anchor="start" x="181" y="-18" font-family="Helvetica,sans-Serif" font-size="10.00">ui.artists.NormalLineDraw</text>
<text text-anchor="middle" x="243" y="-7" font-family="Helvetica,sans-Serif" font-size="10.00">Helper</text>
</a>
</g>
</g>
<!-- Node1&#45;&gt;Node4 -->
<g id="edge3" class="edge"><title>Node1&#45;&gt;Node4</title>
<path fill="none" stroke="midnightblue" d="M146.568,-28.2391C155.312,-27.0261 164.179,-25.796 172.806,-24.5992"/>
<polygon fill="midnightblue" stroke="midnightblue" points="145.806,-24.8112 136.382,-29.6523 146.768,-31.7448 145.806,-24.8112"/>
</g>
<!-- Node3 -->
<g id="node3" class="node"><title>Node3</title>
<g id="a_node3"><a xlink:href="d4/d33/classui_1_1artists_1_1_dotted_line_draw_helper.html" target="_top" xlink:title="ui.artists.DottedLineDraw\lHelper">
<polygon fill="white" stroke="black" points="350.5,-49 350.5,-79 487.5,-79 487.5,-49 350.5,-49"/>
<text text-anchor="start" x="358.5" y="-67" font-family="Helvetica,sans-Serif" font-size="10.00">ui.artists.DottedLineDraw</text>
<text text-anchor="middle" x="419" y="-56" font-family="Helvetica,sans-Serif" font-size="10.00">Helper</text>
</a>
</g>
</g>
<!-- Node2&#45;&gt;Node3 -->
<g id="edge2" class="edge"><title>Node2&#45;&gt;Node3</title>
<path fill="none" stroke="midnightblue" d="M323.544,-64C332.481,-64 341.524,-64 350.291,-64"/>
<polygon fill="midnightblue" stroke="midnightblue" points="323.52,-60.5001 313.52,-64 323.52,-67.5001 323.52,-60.5001"/>
</g>
</g>
</svg>
