<?xml version="1.0" encoding="UTF-8" standalone="no"?>
<!DOCTYPE svg PUBLIC "-//W3C//DTD SVG 1.1//EN"
 "http://www.w3.org/Graphics/SVG/1.1/DTD/svg11.dtd">
<!-- Generated by graphviz version 2.36.0 (20140111.2315)
 -->
<!-- Title: model.VariableList.add Pages: 1 -->
<!--zoomable 430 -->
<svg id="main" version="1.1" xmlns="http://www.w3.org/2000/svg" xmlns:xlink="http://www.w3.org/1999/xlink" xml:space="preserve" onload="init(evt)">
<style type="text/css"><![CDATA[
.edge:hover path { stroke: red; }
.edge:hover polygon { stroke: red; fill: red; }
]]></style>
<script type="text/javascript"><![CDATA[
var edges = document.getElementsByTagName('g');
if (edges && edges.length) {
  for (var i=0;i<edges.length;i++) {
    if (edges[i].id.substr(0,4)=='edge') {
      edges[i].setAttribute('class','edge');
    }
  }
}
]]></script>
        <defs>
                <circle id="rim" cx="0" cy="0" r="7"/>
                <circle id="rim2" cx="0" cy="0" r="3.5"/>
                <g id="zoomPlus">
                        <use xlink:href="#rim" fill="#404040">
                                <set attributeName="fill" to="#808080" begin="zoomplus.mouseover" end="zoomplus.mouseout"/>
                        </use>
                        <path d="M-4,0h8M0,-4v8" fill="none" stroke="white" stroke-width="1.5" pointer-events="none"/>
                </g>
                <g id="zoomMin">
                        <use xlink:href="#rim" fill="#404040">
                                <set attributeName="fill" to="#808080" begin="zoomminus.mouseover" end="zoomminus.mouseout"/>
                        </use>
                        <path d="M-4,0h8" fill="none" stroke="white" stroke-width="1.5" pointer-events="none"/>
                </g>
                <g id="dirArrow">
                        <path fill="none" stroke="white" stroke-width="1.5" d="M0,-3.0v7 M-2.5,-0.5L0,-3.0L2.5,-0.5"/>
                </g>
               <g id="resetDef">
                       <use xlink:href="#rim2" fill="#404040">
                               <set attributeName="fill" to="#808080" begin="reset.mouseover" end="reset.mouseout"/>
                       </use>
               </g>
        </defs>

<script type="text/javascript">
var viewWidth = 3522;
var viewHeight = 430;
var sectionId = 'dynsection-1';
</script>
<script xlink:href="../../svgpan.js"/>
<svg id="graph" class="graph">
<g id="viewport">
<title>model.VariableList.add</title>
<polygon fill="white" stroke="none" points="-4,4 -4,-426 3518,-426 3518,4 -4,4"/>
<!-- Node1 -->
<g id="node1" class="node"><title>Node1</title>
<polygon fill="#bfbfbf" stroke="black" points="0.5,-259.5 0.5,-278.5 125.5,-278.5 125.5,-259.5 0.5,-259.5"/>
<text text-anchor="middle" x="63" y="-266.5" font-family="Helvetica,sans-Serif" font-size="10.00">model.VariableList.add</text>
</g>
<!-- Node2 -->
<g id="node2" class="node"><title>Node2</title>
<g id="a_node2"><a xlink:href="../../d5/d8e/classcommand_1_1control_1_1_make_variable_command.html#a8f9ffb360b0bc51047bf673464598c90" target="_top" xlink:title="command.control.MakeVariable\lCommand.calculateValue">
<polygon fill="white" stroke="black" points="322,-278 322,-308 490,-308 490,-278 322,-278"/>
<text text-anchor="start" x="330" y="-296" font-family="Helvetica,sans-Serif" font-size="10.00">command.control.MakeVariable</text>
<text text-anchor="middle" x="406" y="-285" font-family="Helvetica,sans-Serif" font-size="10.00">Command.calculateValue</text>
</a>
</g>
</g>
<!-- Node1&#45;&gt;Node2 -->
<g id="edge1" class="edge"><title>Node1&#45;&gt;Node2</title>
<path fill="none" stroke="midnightblue" d="M135.997,-274.067C190.342,-277.892 265.01,-283.147 321.892,-287.151"/>
<polygon fill="midnightblue" stroke="midnightblue" points="135.974,-270.557 125.753,-273.346 135.482,-277.54 135.974,-270.557"/>
</g>
<!-- Node3 -->
<g id="node3" class="node"><title>Node3</title>
<g id="a_node3"><a xlink:href="../../db/d55/classmodel_1_1_variable_list.html#a09697cca38c12cf837ee40e71d02f78b" target="_top" xlink:title="model.VariableList.get">
<polygon fill="white" stroke="black" points="162.5,-239.5 162.5,-258.5 285.5,-258.5 285.5,-239.5 162.5,-239.5"/>
<text text-anchor="middle" x="224" y="-246.5" font-family="Helvetica,sans-Serif" font-size="10.00">model.VariableList.get</text>
</a>
</g>
</g>
<!-- Node1&#45;&gt;Node3 -->
<g id="edge2" class="edge"><title>Node1&#45;&gt;Node3</title>
<path fill="none" stroke="midnightblue" d="M136.115,-259.929C144.861,-258.829 153.727,-257.714 162.285,-256.637"/>
<polygon fill="midnightblue" stroke="midnightblue" points="135.414,-256.489 125.929,-261.21 136.287,-263.435 135.414,-256.489"/>
</g>
<!-- Node3&#45;&gt;Node2 -->
<g id="edge5" class="edge"><title>Node3&#45;&gt;Node2</title>
<path fill="none" stroke="midnightblue" d="M273.907,-260.955C295.319,-266.189 320.683,-272.389 343.369,-277.935"/>
<polygon fill="midnightblue" stroke="midnightblue" points="274.602,-257.522 264.057,-258.547 272.94,-264.322 274.602,-257.522"/>
</g>
<!-- Node4 -->
<g id="node4" class="node"><title>Node4</title>
<g id="a_node4"><a xlink:href="../../d7/dae/classcommand_1_1control_1_1_do_times_command.html#a932eb0f99c5b2fecf8fd6939ef4b0c5b" target="_top" xlink:title="command.control.DoTimesCommand.calculate\lValue">
<polygon fill="white" stroke="black" points="746,-0 746,-30 988,-30 988,-0 746,-0"/>
<text text-anchor="start" x="754" y="-18" font-family="Helvetica,sans-Serif" font-size="10.00">command.control.DoTimesCommand.calculate</text>
<text text-anchor="middle" x="867" y="-7" font-family="Helvetica,sans-Serif" font-size="10.00">Value</text>
</a>
</g>
</g>
<!-- Node3&#45;&gt;Node4 -->
<g id="edge3" class="edge"><title>Node3&#45;&gt;Node4</title>
<path fill="none" stroke="midnightblue" d="M247.991,-233.85C267.242,-221.569 295.712,-204.337 322,-192 503.359,-106.887 553.019,-92.7938 746,-39 757.665,-35.7482 770.085,-32.7547 782.345,-30.0656"/>
<polygon fill="midnightblue" stroke="midnightblue" points="245.836,-231.075 239.331,-239.437 249.631,-236.957 245.836,-231.075"/>
</g>
<!-- Node5 -->
<g id="node5" class="node"><title>Node5</title>
<g id="a_node5"><a xlink:href="../../da/db2/classcommand_1_1control_1_1_for_command.html#ad494f107c7c0e97f862dcfddc476a064" target="_top" xlink:title="command.control.ForCommand.calculate\lValue">
<polygon fill="white" stroke="black" points="759.5,-392 759.5,-422 974.5,-422 974.5,-392 759.5,-392"/>
<text text-anchor="start" x="767.5" y="-410" font-family="Helvetica,sans-Serif" font-size="10.00">command.control.ForCommand.calculate</text>
<text text-anchor="middle" x="867" y="-399" font-family="Helvetica,sans-Serif" font-size="10.00">Value</text>
</a>
</g>
</g>
<!-- Node3&#45;&gt;Node5 -->
<g id="edge4" class="edge"><title>Node3&#45;&gt;Node5</title>
<path fill="none" stroke="midnightblue" d="M295.812,-247.863C349.792,-248.544 425.567,-252.856 490,-269 610.64,-299.228 627.58,-343.996 746,-382 757.651,-385.739 770.122,-389.06 782.457,-391.961"/>
<polygon fill="midnightblue" stroke="midnightblue" points="295.686,-244.362 285.655,-247.774 295.624,-251.361 295.686,-244.362"/>
</g>
<!-- Node6 -->
<g id="node6" class="node"><title>Node6</title>
<g id="a_node6"><a xlink:href="../../d9/d88/classmodel_1_1_tree_interpreter.html#a3e460e5ebe66f781afb480f0f0ec2ce7" target="_top" xlink:title="model.TreeInterpreter.update">
<polygon fill="white" stroke="black" points="328,-201.5 328,-220.5 484,-220.5 484,-201.5 328,-201.5"/>
<text text-anchor="middle" x="406" y="-208.5" font-family="Helvetica,sans-Serif" font-size="10.00">model.TreeInterpreter.update</text>
</a>
</g>
</g>
<!-- Node3&#45;&gt;Node6 -->
<g id="edge6" class="edge"><title>Node3&#45;&gt;Node6</title>
<path fill="none" stroke="midnightblue" d="M280.331,-237.319C305.857,-231.93 335.776,-225.614 359.905,-220.52"/>
<polygon fill="midnightblue" stroke="midnightblue" points="279.483,-233.921 270.422,-239.411 280.929,-240.77 279.483,-233.921"/>
</g>
<!-- Node7 -->
<g id="node7" class="node"><title>Node7</title>
<g id="a_node7"><a xlink:href="../../d9/d88/classmodel_1_1_tree_interpreter.html#a501df6b8cfe1a8175a9da0ed96d30d6f" target="_top" xlink:title="model.TreeInterpreter.interpretTree">
<polygon fill="white" stroke="black" points="526.5,-201.5 526.5,-220.5 709.5,-220.5 709.5,-201.5 526.5,-201.5"/>
<text text-anchor="middle" x="618" y="-208.5" font-family="Helvetica,sans-Serif" font-size="10.00">model.TreeInterpreter.interpretTree</text>
</a>
</g>
</g>
<!-- Node6&#45;&gt;Node7 -->
<g id="edge7" class="edge"><title>Node6&#45;&gt;Node7</title>
<path fill="none" stroke="midnightblue" d="M494.147,-211C504.824,-211 515.754,-211 526.479,-211"/>
<polygon fill="midnightblue" stroke="midnightblue" points="494.004,-207.5 484.004,-211 494.004,-214.5 494.004,-207.5"/>
</g>
<!-- Node7&#45;&gt;Node4 -->
<g id="edge13" class="edge"><title>Node7&#45;&gt;Node4</title>
<path fill="none" stroke="midnightblue" d="M636.166,-194.213C655.582,-174.661 687.427,-140.836 710,-108 729.595,-79.496 718.331,-59.758 746,-39 750.504,-35.6212 755.361,-32.6848 760.45,-30.1353"/>
<polygon fill="midnightblue" stroke="midnightblue" points="633.523,-191.905 628.906,-201.441 638.462,-196.866 633.523,-191.905"/>
</g>
<!-- Node7&#45;&gt;Node5 -->
<g id="edge14" class="edge"><title>Node7&#45;&gt;Node5</title>
<path fill="none" stroke="midnightblue" d="M697.549,-225.327C702.088,-228.039 706.302,-231.236 710,-235 757.14,-282.982 697.617,-335.271 746,-382 750.056,-385.918 754.559,-389.292 759.371,-392.194"/>
<polygon fill="midnightblue" stroke="midnightblue" points="698.963,-222.12 688.465,-220.687 695.778,-228.353 698.963,-222.12"/>
</g>
<!-- Node8 -->
<g id="node8" class="node"><title>Node8</title>
<g id="a_node8"><a xlink:href="../../d5/d1a/classcommand_1_1control_1_1_ask_with_command.html#a2a79128bce4d0ce305a2fe690675a70e" target="_top" xlink:title="command.control.AskWithCommand.calculate\lValue">
<polygon fill="white" stroke="black" points="748,-196 748,-226 986,-226 986,-196 748,-196"/>
<text text-anchor="start" x="756" y="-214" font-family="Helvetica,sans-Serif" font-size="10.00">command.control.AskWithCommand.calculate</text>
<text text-anchor="middle" x="867" y="-203" font-family="Helvetica,sans-Serif" font-size="10.00">Value</text>
</a>
</g>
</g>
<!-- Node7&#45;&gt;Node8 -->
<g id="edge8" class="edge"><title>Node7&#45;&gt;Node8</title>
<path fill="none" stroke="midnightblue" d="M719.832,-211C728.995,-211 738.33,-211 747.626,-211"/>
<polygon fill="midnightblue" stroke="midnightblue" points="719.571,-207.5 709.571,-211 719.571,-214.5 719.571,-207.5"/>
</g>
<!-- Node9 -->
<g id="node9" class="node"><title>Node9</title>
<g id="a_node9"><a xlink:href="../../d1/d18/classcommand_1_1control_1_1_execute_user_command.html#a1ce1cab877c9c9199aee9f8e687f74fb" target="_top" xlink:title="command.control.ExecuteUser\lCommand.calculateValue">
<polygon fill="white" stroke="black" points="784.5,-147 784.5,-177 949.5,-177 949.5,-147 784.5,-147"/>
<text text-anchor="start" x="792.5" y="-165" font-family="Helvetica,sans-Serif" font-size="10.00">command.control.ExecuteUser</text>
<text text-anchor="middle" x="867" y="-154" font-family="Helvetica,sans-Serif" font-size="10.00">Command.calculateValue</text>
</a>
</g>
</g>
<!-- Node7&#45;&gt;Node9 -->
<g id="edge9" class="edge"><title>Node7&#45;&gt;Node9</title>
<path fill="none" stroke="midnightblue" d="M677.07,-199.48C710.788,-192.791 753.654,-184.287 790.028,-177.071"/>
<polygon fill="midnightblue" stroke="midnightblue" points="676.045,-196.115 666.917,-201.494 677.407,-202.981 676.045,-196.115"/>
</g>
<!-- Node10 -->
<g id="node10" class="node"><title>Node10</title>
<g id="a_node10"><a xlink:href="../../d4/dea/classcommand_1_1control_1_1_ask_command.html#a0e92735076727a8f4ef8affeb592e8b4" target="_top" xlink:title="command.control.AskCommand.calculate\lValue">
<polygon fill="white" stroke="black" points="758,-98 758,-128 976,-128 976,-98 758,-98"/>
<text text-anchor="start" x="766" y="-116" font-family="Helvetica,sans-Serif" font-size="10.00">command.control.AskCommand.calculate</text>
<text text-anchor="middle" x="867" y="-105" font-family="Helvetica,sans-Serif" font-size="10.00">Value</text>
</a>
</g>
</g>
<!-- Node7&#45;&gt;Node10 -->
<g id="edge10" class="edge"><title>Node7&#45;&gt;Node10</title>
<path fill="none" stroke="midnightblue" d="M640.448,-195.506C664.843,-178.618 706.436,-152.005 746,-137 755.039,-133.572 764.655,-130.605 774.359,-128.042"/>
<polygon fill="midnightblue" stroke="midnightblue" points="638.149,-192.844 631.981,-201.458 642.175,-198.571 638.149,-192.844"/>
</g>
<!-- Node11 -->
<g id="node11" class="node"><title>Node11</title>
<g id="a_node11"><a xlink:href="../../d1/d0f/classcommand_1_1control_1_1_repeat_command.html#af9c3a3854b4eaabafc7c09bdbe83de0e" target="_top" xlink:title="command.control.RepeatCommand.calculate\lValue">
<polygon fill="white" stroke="black" points="750.5,-49 750.5,-79 983.5,-79 983.5,-49 750.5,-49"/>
<text text-anchor="start" x="758.5" y="-67" font-family="Helvetica,sans-Serif" font-size="10.00">command.control.RepeatCommand.calculate</text>
<text text-anchor="middle" x="867" y="-56" font-family="Helvetica,sans-Serif" font-size="10.00">Value</text>
</a>
</g>
</g>
<!-- Node7&#45;&gt;Node11 -->
<g id="edge11" class="edge"><title>Node7&#45;&gt;Node11</title>
<path fill="none" stroke="midnightblue" d="M631.863,-193.194C652.605,-165.901 696.189,-114.148 746,-88 752.584,-84.5438 759.611,-81.584 766.836,-79.0496"/>
<polygon fill="midnightblue" stroke="midnightblue" points="628.89,-191.327 625.729,-201.439 634.506,-195.505 628.89,-191.327"/>
</g>
<!-- Node12 -->
<g id="node12" class="node"><title>Node12</title>
<g id="a_node12"><a xlink:href="../../d6/d3b/classcommand_1_1control_1_1_if_command.html#acf428d2a9882866a2f00fbbee727f4f1" target="_top" xlink:title="command.control.IfCommand.calculate\lValue">
<polygon fill="white" stroke="black" points="764,-343 764,-373 970,-373 970,-343 764,-343"/>
<text text-anchor="start" x="772" y="-361" font-family="Helvetica,sans-Serif" font-size="10.00">command.control.IfCommand.calculate</text>
<text text-anchor="middle" x="867" y="-350" font-family="Helvetica,sans-Serif" font-size="10.00">Value</text>
</a>
</g>
</g>
<!-- Node7&#45;&gt;Node12 -->
<g id="edge12" class="edge"><title>Node7&#45;&gt;Node12</title>
<path fill="none" stroke="midnightblue" d="M695.243,-224.819C700.582,-227.626 705.587,-230.985 710,-235 744.319,-266.23 710.874,-302.681 746,-333 751.397,-337.658 757.436,-341.525 763.857,-344.729"/>
<polygon fill="midnightblue" stroke="midnightblue" points="696.539,-221.564 685.988,-220.598 693.634,-227.932 696.539,-221.564"/>
</g>
<!-- Node13 -->
<g id="node13" class="node"><title>Node13</title>
<g id="a_node13"><a xlink:href="../../d3/dcf/classcommand_1_1control_1_1_if_else_command.html#ac1a2c320a23705da633419c13a18ff91" target="_top" xlink:title="command.control.IfElseCommand.calculate\lValue">
<polygon fill="white" stroke="black" points="754.5,-294 754.5,-324 979.5,-324 979.5,-294 754.5,-294"/>
<text text-anchor="start" x="762.5" y="-312" font-family="Helvetica,sans-Serif" font-size="10.00">command.control.IfElseCommand.calculate</text>
<text text-anchor="middle" x="867" y="-301" font-family="Helvetica,sans-Serif" font-size="10.00">Value</text>
</a>
</g>
</g>
<!-- Node7&#45;&gt;Node13 -->
<g id="edge15" class="edge"><title>Node7&#45;&gt;Node13</title>
<path fill="none" stroke="midnightblue" d="M688.266,-223.854C695.946,-226.829 703.374,-230.491 710,-235 732.341,-250.203 723.268,-269.388 746,-284 751.997,-287.855 758.479,-291.129 765.217,-293.908"/>
<polygon fill="midnightblue" stroke="midnightblue" points="689.406,-220.545 678.811,-220.556 687.101,-227.155 689.406,-220.545"/>
</g>
<!-- Node14 -->
<g id="node14" class="node"><title>Node14</title>
<g id="a_node14"><a xlink:href="../../d9/df7/classcontroller_1_1_controller.html#a3d81fb1a57114f96fb6c319f4c5df370" target="_top" xlink:title="controller.Controller.parse\lCommand">
<polygon fill="white" stroke="black" points="797,-245 797,-275 937,-275 937,-245 797,-245"/>
<text text-anchor="start" x="805" y="-263" font-family="Helvetica,sans-Serif" font-size="10.00">controller.Controller.parse</text>
<text text-anchor="middle" x="867" y="-252" font-family="Helvetica,sans-Serif" font-size="10.00">Command</text>
</a>
</g>
</g>
<!-- Node7&#45;&gt;Node14 -->
<g id="edge16" class="edge"><title>Node7&#45;&gt;Node14</title>
<path fill="none" stroke="midnightblue" d="M676.738,-222.454C712.594,-229.567 758.891,-238.752 796.72,-246.256"/>
<polygon fill="midnightblue" stroke="midnightblue" points="677.407,-219.019 666.917,-220.506 676.045,-225.885 677.407,-219.019"/>
</g>
<!-- Node15 -->
<g id="node15" class="node"><title>Node15</title>
<g id="a_node15"><a xlink:href="../../d5/d06/classui_1_1_scene_updater.html#ab77a04f8b0038429b09237aac18906e8" target="_top" xlink:title="ui.SceneUpdater.sendCommands">
<polygon fill="white" stroke="black" points="1024,-250.5 1024,-269.5 1202,-269.5 1202,-250.5 1024,-250.5"/>
<text text-anchor="middle" x="1113" y="-257.5" font-family="Helvetica,sans-Serif" font-size="10.00">ui.SceneUpdater.sendCommands</text>
</a>
</g>
</g>
<!-- Node14&#45;&gt;Node15 -->
<g id="edge17" class="edge"><title>Node14&#45;&gt;Node15</title>
<path fill="none" stroke="midnightblue" d="M947.545,-260C971.924,-260 998.888,-260 1023.81,-260"/>
<polygon fill="midnightblue" stroke="midnightblue" points="947.268,-256.5 937.268,-260 947.268,-263.5 947.268,-256.5"/>
</g>
<!-- Node16 -->
<g id="node16" class="node"><title>Node16</title>
<g id="a_node16"><a xlink:href="../../dc/d3b/classui_1_1_g_u_i.html#ad8f08a79a20a498bcaafdc7e2e2ce0a9" target="_top" xlink:title="ui.GUI.parseCommand">
<polygon fill="white" stroke="black" points="1238.5,-250.5 1238.5,-269.5 1363.5,-269.5 1363.5,-250.5 1238.5,-250.5"/>
<text text-anchor="middle" x="1301" y="-257.5" font-family="Helvetica,sans-Serif" font-size="10.00">ui.GUI.parseCommand</text>
</a>
</g>
</g>
<!-- Node15&#45;&gt;Node16 -->
<g id="edge18" class="edge"><title>Node15&#45;&gt;Node16</title>
<path fill="none" stroke="midnightblue" d="M1212.2,-260C1221.13,-260 1230,-260 1238.48,-260"/>
<polygon fill="midnightblue" stroke="midnightblue" points="1212.1,-256.5 1202.1,-260 1212.1,-263.5 1212.1,-256.5"/>
</g>
<!-- Node17 -->
<g id="node17" class="node"><title>Node17</title>
<g id="a_node17"><a xlink:href="../../d8/d3c/classui_1_1elements_1_1_i_o_element.html#a139a046f0c771f86696f2eee04047c64" target="_top" xlink:title="ui.elements.IOElement.init">
<polygon fill="white" stroke="black" points="1416.5,-269.5 1416.5,-288.5 1559.5,-288.5 1559.5,-269.5 1416.5,-269.5"/>
<text text-anchor="middle" x="1488" y="-276.5" font-family="Helvetica,sans-Serif" font-size="10.00">ui.elements.IOElement.init</text>
</a>
</g>
</g>
<!-- Node16&#45;&gt;Node17 -->
<g id="edge19" class="edge"><title>Node16&#45;&gt;Node17</title>
<path fill="none" stroke="midnightblue" d="M1373.68,-267.361C1387.7,-268.802 1402.4,-270.312 1416.39,-271.749"/>
<polygon fill="midnightblue" stroke="midnightblue" points="1373.91,-263.867 1363.6,-266.327 1373.19,-270.83 1373.91,-263.867"/>
</g>
<!-- Node19 -->
<g id="node19" class="node"><title>Node19</title>
<g id="a_node19"><a xlink:href="../../dc/d3b/classui_1_1_g_u_i.html#ab8ec2a37b3d5bd9e8c2abbb3642fb965" target="_top" xlink:title="ui.GUI.setupKeyboardCommands">
<polygon fill="white" stroke="black" points="1400.5,-231.5 1400.5,-250.5 1575.5,-250.5 1575.5,-231.5 1400.5,-231.5"/>
<text text-anchor="middle" x="1488" y="-238.5" font-family="Helvetica,sans-Serif" font-size="10.00">ui.GUI.setupKeyboardCommands</text>
</a>
</g>
</g>
<!-- Node16&#45;&gt;Node19 -->
<g id="edge21" class="edge"><title>Node16&#45;&gt;Node19</title>
<path fill="none" stroke="midnightblue" d="M1373.69,-252.637C1382.41,-251.742 1391.39,-250.82 1400.29,-249.905"/>
<polygon fill="midnightblue" stroke="midnightblue" points="1373.19,-249.17 1363.6,-253.673 1373.91,-256.133 1373.19,-249.17"/>
</g>
<!-- Node18 -->
<g id="node18" class="node"><title>Node18</title>
<g id="a_node18"><a xlink:href="../../d8/d3c/classui_1_1elements_1_1_i_o_element.html#a556e1a3ad292fe3ab731065eef59b187" target="_top" xlink:title="ui.elements.IOElement.IOElement">
<polygon fill="white" stroke="black" points="1612,-269.5 1612,-288.5 1790,-288.5 1790,-269.5 1612,-269.5"/>
<text text-anchor="middle" x="1701" y="-276.5" font-family="Helvetica,sans-Serif" font-size="10.00">ui.elements.IOElement.IOElement</text>
</a>
</g>
</g>
<!-- Node17&#45;&gt;Node18 -->
<g id="edge20" class="edge"><title>Node17&#45;&gt;Node18</title>
<path fill="none" stroke="midnightblue" d="M1569.92,-279C1583.65,-279 1597.97,-279 1611.88,-279"/>
<polygon fill="midnightblue" stroke="midnightblue" points="1569.55,-275.5 1559.55,-279 1569.55,-282.5 1569.55,-275.5"/>
</g>
<!-- Node20 -->
<g id="node20" class="node"><title>Node20</title>
<g id="a_node20"><a xlink:href="../../dc/d3b/classui_1_1_g_u_i.html#a765d554102f38969231261686f2f8e27" target="_top" xlink:title="ui.GUI.initialize">
<polygon fill="white" stroke="black" points="1658,-231.5 1658,-250.5 1744,-250.5 1744,-231.5 1658,-231.5"/>
<text text-anchor="middle" x="1701" y="-238.5" font-family="Helvetica,sans-Serif" font-size="10.00">ui.GUI.initialize</text>
</a>
</g>
</g>
<!-- Node19&#45;&gt;Node20 -->
<g id="edge22" class="edge"><title>Node19&#45;&gt;Node20</title>
<path fill="none" stroke="midnightblue" d="M1585.75,-241C1611.02,-241 1636.96,-241 1657.72,-241"/>
<polygon fill="midnightblue" stroke="midnightblue" points="1585.74,-237.5 1575.74,-241 1585.74,-244.5 1585.74,-237.5"/>
</g>
<!-- Node21 -->
<g id="node21" class="node"><title>Node21</title>
<g id="a_node21"><a xlink:href="../../d5/d06/classui_1_1_scene_updater.html#aeef5dd7a8ec2ad6179e33fdd71ea90d6" target="_top" xlink:title="ui.SceneUpdater.initGUI">
<polygon fill="white" stroke="black" points="1826.5,-231.5 1826.5,-250.5 1957.5,-250.5 1957.5,-231.5 1826.5,-231.5"/>
<text text-anchor="middle" x="1892" y="-238.5" font-family="Helvetica,sans-Serif" font-size="10.00">ui.SceneUpdater.initGUI</text>
</a>
</g>
</g>
<!-- Node20&#45;&gt;Node21 -->
<g id="edge23" class="edge"><title>Node20&#45;&gt;Node21</title>
<path fill="none" stroke="midnightblue" d="M1754.67,-241C1776.92,-241 1803.05,-241 1826.45,-241"/>
<polygon fill="midnightblue" stroke="midnightblue" points="1754.42,-237.5 1744.42,-241 1754.42,-244.5 1754.42,-237.5"/>
</g>
<!-- Node22 -->
<g id="node22" class="node"><title>Node22</title>
<g id="a_node22"><a xlink:href="../../d9/df7/classcontroller_1_1_controller.html#a57e42ba83ee2145e6262cd72eac59570" target="_top" xlink:title="controller.Controller.init">
<polygon fill="white" stroke="black" points="1994.5,-231.5 1994.5,-250.5 2121.5,-250.5 2121.5,-231.5 1994.5,-231.5"/>
<text text-anchor="middle" x="2058" y="-238.5" font-family="Helvetica,sans-Serif" font-size="10.00">controller.Controller.init</text>
</a>
</g>
</g>
<!-- Node21&#45;&gt;Node22 -->
<g id="edge24" class="edge"><title>Node21&#45;&gt;Node22</title>
<path fill="none" stroke="midnightblue" d="M1968.04,-241C1976.81,-241 1985.68,-241 1994.26,-241"/>
<polygon fill="midnightblue" stroke="midnightblue" points="1967.82,-237.5 1957.82,-241 1967.82,-244.5 1967.82,-237.5"/>
</g>
<!-- Node23 -->
<g id="node23" class="node"><title>Node23</title>
<g id="a_node23"><a xlink:href="../../dd/df2/classmain_1_1_workspace_manager.html#abc818b59211f6e14940b86a42bb868d0" target="_top" xlink:title="main.WorkspaceManager.create\lWorkspace">
<polygon fill="white" stroke="black" points="2158,-226 2158,-256 2328,-256 2328,-226 2158,-226"/>
<text text-anchor="start" x="2166" y="-244" font-family="Helvetica,sans-Serif" font-size="10.00">main.WorkspaceManager.create</text>
<text text-anchor="middle" x="2243" y="-233" font-family="Helvetica,sans-Serif" font-size="10.00">Workspace</text>
</a>
</g>
</g>
<!-- Node22&#45;&gt;Node23 -->
<g id="edge25" class="edge"><title>Node22&#45;&gt;Node23</title>
<path fill="none" stroke="midnightblue" d="M2131.92,-241C2140.39,-241 2149.08,-241 2157.69,-241"/>
<polygon fill="midnightblue" stroke="midnightblue" points="2131.72,-237.5 2121.72,-241 2131.72,-244.5 2131.72,-237.5"/>
</g>
<!-- Node24 -->
<g id="node24" class="node"><title>Node24</title>
<g id="a_node24"><a xlink:href="../../d9/df7/classcontroller_1_1_controller.html#a3a9d672bb57047df70945ad1a9582c9a" target="_top" xlink:title="controller.Controller.create\lNewWorkspace">
<polygon fill="white" stroke="black" points="2364.5,-248 2364.5,-278 2507.5,-278 2507.5,-248 2364.5,-248"/>
<text text-anchor="start" x="2372.5" y="-266" font-family="Helvetica,sans-Serif" font-size="10.00">controller.Controller.create</text>
<text text-anchor="middle" x="2436" y="-255" font-family="Helvetica,sans-Serif" font-size="10.00">NewWorkspace</text>
</a>
</g>
</g>
<!-- Node23&#45;&gt;Node24 -->
<g id="edge26" class="edge"><title>Node23&#45;&gt;Node24</title>
<path fill="none" stroke="midnightblue" d="M2338.03,-251.83C2346.88,-252.85 2355.75,-253.872 2364.34,-254.861"/>
<polygon fill="midnightblue" stroke="midnightblue" points="2338.39,-248.349 2328.05,-250.682 2337.59,-255.303 2338.39,-248.349"/>
</g>
<!-- Node30 -->
<g id="node30" class="node"><title>Node30</title>
<g id="a_node30"><a xlink:href="../../d1/d0b/classmain_1_1_main.html#a9f1e5657b2f6f9bdd69a3b6412ceda74" target="_top" xlink:title="main.Main.start">
<polygon fill="white" stroke="black" points="2390,-209.5 2390,-228.5 2482,-228.5 2482,-209.5 2390,-209.5"/>
<text text-anchor="middle" x="2436" y="-216.5" font-family="Helvetica,sans-Serif" font-size="10.00">main.Main.start</text>
</a>
</g>
</g>
<!-- Node23&#45;&gt;Node30 -->
<g id="edge32" class="edge"><title>Node23&#45;&gt;Node30</title>
<path fill="none" stroke="midnightblue" d="M2338.09,-230.163C2356.19,-228.078 2374.36,-225.985 2389.99,-224.184"/>
<polygon fill="midnightblue" stroke="midnightblue" points="2337.59,-226.697 2328.05,-231.318 2338.39,-233.651 2337.59,-226.697"/>
</g>
<!-- Node25 -->
<g id="node25" class="node"><title>Node25</title>
<g id="a_node25"><a xlink:href="../../d5/d06/classui_1_1_scene_updater.html#a2858ad8edb0c0f59a21e2ae015f2fa1e" target="_top" xlink:title="ui.SceneUpdater.createNew\lWorkspace">
<polygon fill="white" stroke="black" points="2544,-248 2544,-278 2694,-278 2694,-248 2544,-248"/>
<text text-anchor="start" x="2552" y="-266" font-family="Helvetica,sans-Serif" font-size="10.00">ui.SceneUpdater.createNew</text>
<text text-anchor="middle" x="2619" y="-255" font-family="Helvetica,sans-Serif" font-size="10.00">Workspace</text>
</a>
</g>
</g>
<!-- Node24&#45;&gt;Node25 -->
<g id="edge27" class="edge"><title>Node24&#45;&gt;Node25</title>
<path fill="none" stroke="midnightblue" d="M2517.8,-263C2526.43,-263 2535.17,-263 2543.71,-263"/>
<polygon fill="midnightblue" stroke="midnightblue" points="2517.76,-259.5 2507.76,-263 2517.76,-266.5 2517.76,-259.5"/>
</g>
<!-- Node26 -->
<g id="node26" class="node"><title>Node26</title>
<g id="a_node26"><a xlink:href="../../dc/d3b/classui_1_1_g_u_i.html#a2edc294ba07311e6c4b85c9fe749d1bf" target="_top" xlink:title="ui.GUI.createNewWorkspace">
<polygon fill="white" stroke="black" points="2730,-253.5 2730,-272.5 2880,-272.5 2880,-253.5 2730,-253.5"/>
<text text-anchor="middle" x="2805" y="-260.5" font-family="Helvetica,sans-Serif" font-size="10.00">ui.GUI.createNewWorkspace</text>
</a>
</g>
</g>
<!-- Node25&#45;&gt;Node26 -->
<g id="edge28" class="edge"><title>Node25&#45;&gt;Node26</title>
<path fill="none" stroke="midnightblue" d="M2704.07,-263C2712.65,-263 2721.34,-263 2729.81,-263"/>
<polygon fill="midnightblue" stroke="midnightblue" points="2704.04,-259.5 2694.04,-263 2704.04,-266.5 2704.04,-259.5"/>
</g>
<!-- Node27 -->
<g id="node27" class="node"><title>Node27</title>
<g id="a_node27"><a xlink:href="../../d0/de6/classui_1_1elements_1_1_menu_bar_element.html#a98c13995a31d997aa10f2950583da6cc" target="_top" xlink:title="ui.elements.MenuBarElement.make\lMenuBar">
<polygon fill="white" stroke="black" points="2916,-248 2916,-278 3104,-278 3104,-248 2916,-248"/>
<text text-anchor="start" x="2924" y="-266" font-family="Helvetica,sans-Serif" font-size="10.00">ui.elements.MenuBarElement.make</text>
<text text-anchor="middle" x="3010" y="-255" font-family="Helvetica,sans-Serif" font-size="10.00">MenuBar</text>
</a>
</g>
</g>
<!-- Node26&#45;&gt;Node27 -->
<g id="edge29" class="edge"><title>Node26&#45;&gt;Node27</title>
<path fill="none" stroke="midnightblue" d="M2890.28,-263C2898.66,-263 2907.21,-263 2915.68,-263"/>
<polygon fill="midnightblue" stroke="midnightblue" points="2890.15,-259.5 2880.15,-263 2890.15,-266.5 2890.15,-259.5"/>
</g>
<!-- Node28 -->
<g id="node28" class="node"><title>Node28</title>
<g id="a_node28"><a xlink:href="../../d0/de6/classui_1_1elements_1_1_menu_bar_element.html#a7bdb58f78cf8b61ba28498c5c86ab682" target="_top" xlink:title="ui.elements.MenuBarElement.init">
<polygon fill="white" stroke="black" points="3140,-253.5 3140,-272.5 3316,-272.5 3316,-253.5 3140,-253.5"/>
<text text-anchor="middle" x="3228" y="-260.5" font-family="Helvetica,sans-Serif" font-size="10.00">ui.elements.MenuBarElement.init</text>
</a>
</g>
</g>
<!-- Node27&#45;&gt;Node28 -->
<g id="edge30" class="edge"><title>Node27&#45;&gt;Node28</title>
<path fill="none" stroke="midnightblue" d="M3114.23,-263C3122.83,-263 3131.48,-263 3139.94,-263"/>
<polygon fill="midnightblue" stroke="midnightblue" points="3114.17,-259.5 3104.17,-263 3114.17,-266.5 3114.17,-259.5"/>
</g>
<!-- Node29 -->
<g id="node29" class="node"><title>Node29</title>
<g id="a_node29"><a xlink:href="../../d0/de6/classui_1_1elements_1_1_menu_bar_element.html#ab4a4e6841c924a9d9c70b8073b56dffc" target="_top" xlink:title="ui.elements.MenuBarElement.\lMenuBarElement">
<polygon fill="white" stroke="black" points="3352.5,-248 3352.5,-278 3513.5,-278 3513.5,-248 3352.5,-248"/>
<text text-anchor="start" x="3360.5" y="-266" font-family="Helvetica,sans-Serif" font-size="10.00">ui.elements.MenuBarElement.</text>
<text text-anchor="middle" x="3433" y="-255" font-family="Helvetica,sans-Serif" font-size="10.00">MenuBarElement</text>
</a>
</g>
</g>
<!-- Node28&#45;&gt;Node29 -->
<g id="edge31" class="edge"><title>Node28&#45;&gt;Node29</title>
<path fill="none" stroke="midnightblue" d="M3326.47,-263C3335.19,-263 3343.95,-263 3352.5,-263"/>
<polygon fill="midnightblue" stroke="midnightblue" points="3326.27,-259.5 3316.27,-263 3326.27,-266.5 3326.27,-259.5"/>
</g>
</g>
</svg>
        <g id="navigator" transform="translate(0 0)" fill="#404254">
                <rect fill="#f2f5e9" fill-opacity="0.5" stroke="#606060" stroke-width=".5" x="0" y="0" width="60" height="60"/>
                <use id="zoomplus" xlink:href="#zoomPlus" x="17" y="9" onmousedown="handleZoom(evt,'in')"/>
                <use id="zoomminus" xlink:href="#zoomMin" x="42" y="9" onmousedown="handleZoom(evt,'out')"/>
                <use id="reset" xlink:href="#resetDef" x="30" y="36" onmousedown="handleReset()"/>
                <g id="arrowUp" xlink:href="#dirArrow" transform="translate(30 24)" onmousedown="handlePan(0,-1)">
                  <use xlink:href="#rim" fill="#404040">
                        <set attributeName="fill" to="#808080" begin="arrowUp.mouseover" end="arrowUp.mouseout"/>
                  </use>
                  <path fill="none" stroke="white" stroke-width="1.5" d="M0,-3.0v7 M-2.5,-0.5L0,-3.0L2.5,-0.5"/>
                </g>
                <g id="arrowRight" xlink:href="#dirArrow" transform="rotate(90) translate(36 -43)" onmousedown="handlePan(1,0)">
                  <use xlink:href="#rim" fill="#404040">
                        <set attributeName="fill" to="#808080" begin="arrowRight.mouseover" end="arrowRight.mouseout"/>
                  </use>
                  <path fill="none" stroke="white" stroke-width="1.5" d="M0,-3.0v7 M-2.5,-0.5L0,-3.0L2.5,-0.5"/>
                </g>
                <g id="arrowDown" xlink:href="#dirArrow" transform="rotate(180) translate(-30 -48)" onmousedown="handlePan(0,1)">
                  <use xlink:href="#rim" fill="#404040">
                        <set attributeName="fill" to="#808080" begin="arrowDown.mouseover" end="arrowDown.mouseout"/>
                  </use>
                  <path fill="none" stroke="white" stroke-width="1.5" d="M0,-3.0v7 M-2.5,-0.5L0,-3.0L2.5,-0.5"/>
                </g>
                <g id="arrowLeft" xlink:href="#dirArrow" transform="rotate(270) translate(-36 17)" onmousedown="handlePan(-1,0)">
                  <use xlink:href="#rim" fill="#404040">
                        <set attributeName="fill" to="#808080" begin="arrowLeft.mouseover" end="arrowLeft.mouseout"/>
                  </use>
                  <path fill="none" stroke="white" stroke-width="1.5" d="M0,-3.0v7 M-2.5,-0.5L0,-3.0L2.5,-0.5"/>
                </g>
        </g>
        <svg viewBox="0 0 15 15" width="100%" height="30px" preserveAspectRatio="xMaxYMin meet">
         <g id="arrow_out" transform="scale(0.3 0.3)">
          <a xlink:href="classmodel_1_1_variable_list_a0adb554303c7191db1da43ddb5fa2c45_icgraph_org.svg" target="_base">
           <rect id="button" ry="5" rx="5" y="6" x="6" height="38" width="38"
                fill="#f2f5e9" fill-opacity="0.5" stroke="#606060" stroke-width="1.0"/>
           <path id="arrow"
             d="M 11.500037,31.436501 C 11.940474,20.09759 22.043105,11.32322 32.158766,21.979434 L 37.068811,17.246167 C 37.068811,17.246167 37.088388,32 37.088388,32 L 22.160133,31.978069 C 22.160133,31.978069 26.997745,27.140456 26.997745,27.140456 C 18.528582,18.264221 13.291696,25.230495 11.500037,31.436501 z"
             style="fill:#404040;"/>
          </a>
         </g>
        </svg>
</svg>
