<?xml version="1.0" encoding="UTF-8" standalone="no"?>
<!DOCTYPE svg PUBLIC "-//W3C//DTD SVG 1.1//EN"
 "http://www.w3.org/Graphics/SVG/1.1/DTD/svg11.dtd">
<!-- Generated by graphviz version 2.36.0 (20140111.2315)
 -->
<!-- Title: model.VariableList.get Pages: 1 -->
<!--zoomable 463 -->
<svg id="main" version="1.1" xmlns="http://www.w3.org/2000/svg" xmlns:xlink="http://www.w3.org/1999/xlink" xml:space="preserve" onload="init(evt)">
<style type="text/css"><![CDATA[
.edge:hover path { stroke: red; }
.edge:hover polygon { stroke: red; fill: red; }
]]></style>
<script type="text/javascript"><![CDATA[
var edges = document.getElementsByTagName('g');
if (edges && edges.length) {
  for (var i=0;i<edges.length;i++) {
    if (edges[i].id.substr(0,4)=='edge') {
      edges[i].setAttribute('class','edge');
    }
  }
}
]]></script>
        <defs>
                <circle id="rim" cx="0" cy="0" r="7"/>
                <circle id="rim2" cx="0" cy="0" r="3.5"/>
                <g id="zoomPlus">
                        <use xlink:href="#rim" fill="#404040">
                                <set attributeName="fill" to="#808080" begin="zoomplus.mouseover" end="zoomplus.mouseout"/>
                        </use>
                        <path d="M-4,0h8M0,-4v8" fill="none" stroke="white" stroke-width="1.5" pointer-events="none"/>
                </g>
                <g id="zoomMin">
                        <use xlink:href="#rim" fill="#404040">
                                <set attributeName="fill" to="#808080" begin="zoomminus.mouseover" end="zoomminus.mouseout"/>
                        </use>
                        <path d="M-4,0h8" fill="none" stroke="white" stroke-width="1.5" pointer-events="none"/>
                </g>
                <g id="dirArrow">
                        <path fill="none" stroke="white" stroke-width="1.5" d="M0,-3.0v7 M-2.5,-0.5L0,-3.0L2.5,-0.5"/>
                </g>
               <g id="resetDef">
                       <use xlink:href="#rim2" fill="#404040">
                               <set attributeName="fill" to="#808080" begin="reset.mouseover" end="reset.mouseout"/>
                       </use>
               </g>
        </defs>

<script type="text/javascript">
var viewWidth = 3360;
var viewHeight = 463;
var sectionId = 'dynsection-4';
</script>
<script xlink:href="../../svgpan.js"/>
<svg id="graph" class="graph">
<g id="viewport">
<title>model.VariableList.get</title>
<polygon fill="white" stroke="none" points="-4,4 -4,-459 3356,-459 3356,4 -4,4"/>
<!-- Node1 -->
<g id="node1" class="node"><title>Node1</title>
<polygon fill="#bfbfbf" stroke="black" points="0.5,-367.5 0.5,-386.5 123.5,-386.5 123.5,-367.5 0.5,-367.5"/>
<text text-anchor="middle" x="62" y="-374.5" font-family="Helvetica,sans-Serif" font-size="10.00">model.VariableList.get</text>
</g>
<!-- Node2 -->
<g id="node2" class="node"><title>Node2</title>
<g id="a_node2"><a xlink:href="../../d5/d8e/classcommand_1_1control_1_1_make_variable_command.html#a8f9ffb360b0bc51047bf673464598c90" target="_top" xlink:title="command.control.MakeVariable\lCommand.calculateValue">
<polygon fill="white" stroke="black" points="160,-425 160,-455 328,-455 328,-425 160,-425"/>
<text text-anchor="start" x="168" y="-443" font-family="Helvetica,sans-Serif" font-size="10.00">command.control.MakeVariable</text>
<text text-anchor="middle" x="244" y="-432" font-family="Helvetica,sans-Serif" font-size="10.00">Command.calculateValue</text>
</a>
</g>
</g>
<!-- Node1&#45;&gt;Node2 -->
<g id="edge1" class="edge"><title>Node1&#45;&gt;Node2</title>
<path fill="none" stroke="midnightblue" d="M100.094,-389.983C129.114,-400.14 169.514,-414.28 199.957,-424.935"/>
<polygon fill="midnightblue" stroke="midnightblue" points="100.933,-386.568 90.3381,-386.568 98.6205,-393.175 100.933,-386.568"/>
</g>
<!-- Node3 -->
<g id="node3" class="node"><title>Node3</title>
<g id="a_node3"><a xlink:href="../../d7/dae/classcommand_1_1control_1_1_do_times_command.html#a932eb0f99c5b2fecf8fd6939ef4b0c5b" target="_top" xlink:title="command.control.DoTimesCommand.calculate\lValue">
<polygon fill="white" stroke="black" points="584,-392 584,-422 826,-422 826,-392 584,-392"/>
<text text-anchor="start" x="592" y="-410" font-family="Helvetica,sans-Serif" font-size="10.00">command.control.DoTimesCommand.calculate</text>
<text text-anchor="middle" x="705" y="-399" font-family="Helvetica,sans-Serif" font-size="10.00">Value</text>
</a>
</g>
</g>
<!-- Node1&#45;&gt;Node3 -->
<g id="edge2" class="edge"><title>Node1&#45;&gt;Node3</title>
<path fill="none" stroke="midnightblue" d="M133.534,-380.682C142.443,-381.133 151.434,-381.582 160,-382 305.779,-389.107 473.562,-396.734 583.799,-401.669"/>
<polygon fill="midnightblue" stroke="midnightblue" points="133.703,-377.186 123.537,-380.173 133.346,-384.177 133.703,-377.186"/>
</g>
<!-- Node4 -->
<g id="node4" class="node"><title>Node4</title>
<g id="a_node4"><a xlink:href="../../da/db2/classcommand_1_1control_1_1_for_command.html#ad494f107c7c0e97f862dcfddc476a064" target="_top" xlink:title="command.control.ForCommand.calculate\lValue">
<polygon fill="white" stroke="black" points="597.5,-343 597.5,-373 812.5,-373 812.5,-343 597.5,-343"/>
<text text-anchor="start" x="605.5" y="-361" font-family="Helvetica,sans-Serif" font-size="10.00">command.control.ForCommand.calculate</text>
<text text-anchor="middle" x="705" y="-350" font-family="Helvetica,sans-Serif" font-size="10.00">Value</text>
</a>
</g>
</g>
<!-- Node1&#45;&gt;Node4 -->
<g id="edge3" class="edge"><title>Node1&#45;&gt;Node4</title>
<path fill="none" stroke="midnightblue" d="M133.789,-374.902C246.076,-371.573 465.735,-365.062 597.22,-361.165"/>
<polygon fill="midnightblue" stroke="midnightblue" points="133.484,-371.409 123.592,-375.204 133.692,-378.406 133.484,-371.409"/>
</g>
<!-- Node5 -->
<g id="node5" class="node"><title>Node5</title>
<g id="a_node5"><a xlink:href="../../d9/d88/classmodel_1_1_tree_interpreter.html#a3e460e5ebe66f781afb480f0f0ec2ce7" target="_top" xlink:title="model.TreeInterpreter.update">
<polygon fill="white" stroke="black" points="166,-256.5 166,-275.5 322,-275.5 322,-256.5 166,-256.5"/>
<text text-anchor="middle" x="244" y="-263.5" font-family="Helvetica,sans-Serif" font-size="10.00">model.TreeInterpreter.update</text>
</a>
</g>
</g>
<!-- Node1&#45;&gt;Node5 -->
<g id="edge4" class="edge"><title>Node1&#45;&gt;Node5</title>
<path fill="none" stroke="midnightblue" d="M87.4666,-361.912C125.117,-338.695 196.183,-294.871 227.505,-275.555"/>
<polygon fill="midnightblue" stroke="midnightblue" points="85.3335,-359.116 78.6589,-367.344 89.0078,-365.074 85.3335,-359.116"/>
</g>
<!-- Node6 -->
<g id="node6" class="node"><title>Node6</title>
<g id="a_node6"><a xlink:href="../../d9/d88/classmodel_1_1_tree_interpreter.html#a501df6b8cfe1a8175a9da0ed96d30d6f" target="_top" xlink:title="model.TreeInterpreter.interpretTree">
<polygon fill="white" stroke="black" points="364.5,-225.5 364.5,-244.5 547.5,-244.5 547.5,-225.5 364.5,-225.5"/>
<text text-anchor="middle" x="456" y="-232.5" font-family="Helvetica,sans-Serif" font-size="10.00">model.TreeInterpreter.interpretTree</text>
</a>
</g>
</g>
<!-- Node5&#45;&gt;Node6 -->
<g id="edge5" class="edge"><title>Node5&#45;&gt;Node6</title>
<path fill="none" stroke="midnightblue" d="M319.54,-254.997C342.659,-251.584 367.935,-247.852 390.326,-244.547"/>
<polygon fill="midnightblue" stroke="midnightblue" points="318.816,-251.565 309.434,-256.488 319.838,-258.49 318.816,-251.565"/>
</g>
<!-- Node6&#45;&gt;Node3 -->
<g id="edge11" class="edge"><title>Node6&#45;&gt;Node3</title>
<path fill="none" stroke="midnightblue" d="M467.404,-253.546C486.248,-285.299 529.207,-349.761 584,-382 590.603,-385.885 597.722,-389.172 605.081,-391.952"/>
<polygon fill="midnightblue" stroke="midnightblue" points="470.386,-251.711 462.343,-244.814 464.329,-255.221 470.386,-251.711"/>
</g>
<!-- Node6&#45;&gt;Node4 -->
<g id="edge12" class="edge"><title>Node6&#45;&gt;Node4</title>
<path fill="none" stroke="midnightblue" d="M473.324,-251.642C496.034,-273.775 539.417,-312.483 584,-333 592.409,-336.87 601.426,-340.147 610.6,-342.92"/>
<polygon fill="midnightblue" stroke="midnightblue" points="475.751,-249.119 466.186,-244.562 470.821,-254.089 475.751,-249.119"/>
</g>
<!-- Node7 -->
<g id="node7" class="node"><title>Node7</title>
<g id="a_node7"><a xlink:href="../../d5/d1a/classcommand_1_1control_1_1_ask_with_command.html#a2a79128bce4d0ce305a2fe690675a70e" target="_top" xlink:title="command.control.AskWithCommand.calculate\lValue">
<polygon fill="white" stroke="black" points="586,-0 586,-30 824,-30 824,-0 586,-0"/>
<text text-anchor="start" x="594" y="-18" font-family="Helvetica,sans-Serif" font-size="10.00">command.control.AskWithCommand.calculate</text>
<text text-anchor="middle" x="705" y="-7" font-family="Helvetica,sans-Serif" font-size="10.00">Value</text>
</a>
</g>
</g>
<!-- Node6&#45;&gt;Node7 -->
<g id="edge6" class="edge"><title>Node6&#45;&gt;Node7</title>
<path fill="none" stroke="midnightblue" d="M463.611,-215.683C478.359,-175.701 517.942,-83.8663 584,-39 589.009,-35.5979 594.39,-32.6559 599.998,-30.1136"/>
<polygon fill="midnightblue" stroke="midnightblue" points="460.245,-214.702 460.18,-225.297 466.838,-217.056 460.245,-214.702"/>
</g>
<!-- Node8 -->
<g id="node8" class="node"><title>Node8</title>
<g id="a_node8"><a xlink:href="../../d1/d18/classcommand_1_1control_1_1_execute_user_command.html#a1ce1cab877c9c9199aee9f8e687f74fb" target="_top" xlink:title="command.control.ExecuteUser\lCommand.calculateValue">
<polygon fill="white" stroke="black" points="622.5,-294 622.5,-324 787.5,-324 787.5,-294 622.5,-294"/>
<text text-anchor="start" x="630.5" y="-312" font-family="Helvetica,sans-Serif" font-size="10.00">command.control.ExecuteUser</text>
<text text-anchor="middle" x="705" y="-301" font-family="Helvetica,sans-Serif" font-size="10.00">Command.calculateValue</text>
</a>
</g>
</g>
<!-- Node6&#45;&gt;Node8 -->
<g id="edge7" class="edge"><title>Node6&#45;&gt;Node8</title>
<path fill="none" stroke="midnightblue" d="M488.12,-248.646C513.534,-259.388 550.581,-274.143 584,-284 596.451,-287.672 609.782,-291.014 622.866,-293.974"/>
<polygon fill="midnightblue" stroke="midnightblue" points="489.222,-245.31 478.651,-244.601 486.472,-251.748 489.222,-245.31"/>
</g>
<!-- Node9 -->
<g id="node9" class="node"><title>Node9</title>
<g id="a_node9"><a xlink:href="../../d4/dea/classcommand_1_1control_1_1_ask_command.html#a0e92735076727a8f4ef8affeb592e8b4" target="_top" xlink:title="command.control.AskCommand.calculate\lValue">
<polygon fill="white" stroke="black" points="596,-245 596,-275 814,-275 814,-245 596,-245"/>
<text text-anchor="start" x="604" y="-263" font-family="Helvetica,sans-Serif" font-size="10.00">command.control.AskCommand.calculate</text>
<text text-anchor="middle" x="705" y="-252" font-family="Helvetica,sans-Serif" font-size="10.00">Value</text>
</a>
</g>
</g>
<!-- Node6&#45;&gt;Node9 -->
<g id="edge8" class="edge"><title>Node6&#45;&gt;Node9</title>
<path fill="none" stroke="midnightblue" d="M557.595,-245.182C570.196,-246.457 583.126,-247.766 595.836,-249.052"/>
<polygon fill="midnightblue" stroke="midnightblue" points="557.873,-241.692 547.571,-244.167 557.168,-248.656 557.873,-241.692"/>
</g>
<!-- Node10 -->
<g id="node10" class="node"><title>Node10</title>
<g id="a_node10"><a xlink:href="../../d1/d0f/classcommand_1_1control_1_1_repeat_command.html#af9c3a3854b4eaabafc7c09bdbe83de0e" target="_top" xlink:title="command.control.RepeatCommand.calculate\lValue">
<polygon fill="white" stroke="black" points="588.5,-196 588.5,-226 821.5,-226 821.5,-196 588.5,-196"/>
<text text-anchor="start" x="596.5" y="-214" font-family="Helvetica,sans-Serif" font-size="10.00">command.control.RepeatCommand.calculate</text>
<text text-anchor="middle" x="705" y="-203" font-family="Helvetica,sans-Serif" font-size="10.00">Value</text>
</a>
</g>
</g>
<!-- Node6&#45;&gt;Node10 -->
<g id="edge9" class="edge"><title>Node6&#45;&gt;Node10</title>
<path fill="none" stroke="midnightblue" d="M557.576,-225.227C567.661,-224.248 577.958,-223.247 588.184,-222.253"/>
<polygon fill="midnightblue" stroke="midnightblue" points="557.186,-221.749 547.571,-226.2 557.863,-228.716 557.186,-221.749"/>
</g>
<!-- Node11 -->
<g id="node11" class="node"><title>Node11</title>
<g id="a_node11"><a xlink:href="../../d6/d3b/classcommand_1_1control_1_1_if_command.html#acf428d2a9882866a2f00fbbee727f4f1" target="_top" xlink:title="command.control.IfCommand.calculate\lValue">
<polygon fill="white" stroke="black" points="602,-147 602,-177 808,-177 808,-147 602,-147"/>
<text text-anchor="start" x="610" y="-165" font-family="Helvetica,sans-Serif" font-size="10.00">command.control.IfCommand.calculate</text>
<text text-anchor="middle" x="705" y="-154" font-family="Helvetica,sans-Serif" font-size="10.00">Value</text>
</a>
</g>
</g>
<!-- Node6&#45;&gt;Node11 -->
<g id="edge10" class="edge"><title>Node6&#45;&gt;Node11</title>
<path fill="none" stroke="midnightblue" d="M488.099,-221.282C513.501,-210.498 550.542,-195.723 584,-186 595.323,-182.71 607.377,-179.718 619.312,-177.05"/>
<polygon fill="midnightblue" stroke="midnightblue" points="486.444,-218.184 478.635,-225.344 489.204,-224.616 486.444,-218.184"/>
</g>
<!-- Node12 -->
<g id="node12" class="node"><title>Node12</title>
<g id="a_node12"><a xlink:href="../../d3/dcf/classcommand_1_1control_1_1_if_else_command.html#ac1a2c320a23705da633419c13a18ff91" target="_top" xlink:title="command.control.IfElseCommand.calculate\lValue">
<polygon fill="white" stroke="black" points="592.5,-98 592.5,-128 817.5,-128 817.5,-98 592.5,-98"/>
<text text-anchor="start" x="600.5" y="-116" font-family="Helvetica,sans-Serif" font-size="10.00">command.control.IfElseCommand.calculate</text>
<text text-anchor="middle" x="705" y="-105" font-family="Helvetica,sans-Serif" font-size="10.00">Value</text>
</a>
</g>
</g>
<!-- Node6&#45;&gt;Node12 -->
<g id="edge13" class="edge"><title>Node6&#45;&gt;Node12</title>
<path fill="none" stroke="midnightblue" d="M473.301,-218.306C495.983,-196.114 539.335,-157.339 584,-137 591.541,-133.566 599.569,-130.622 607.761,-128.097"/>
<polygon fill="midnightblue" stroke="midnightblue" points="470.787,-215.87 466.171,-225.406 475.727,-220.829 470.787,-215.87"/>
</g>
<!-- Node13 -->
<g id="node13" class="node"><title>Node13</title>
<g id="a_node13"><a xlink:href="../../d9/df7/classcontroller_1_1_controller.html#a3d81fb1a57114f96fb6c319f4c5df370" target="_top" xlink:title="controller.Controller.parse\lCommand">
<polygon fill="white" stroke="black" points="635,-49 635,-79 775,-79 775,-49 635,-49"/>
<text text-anchor="start" x="643" y="-67" font-family="Helvetica,sans-Serif" font-size="10.00">controller.Controller.parse</text>
<text text-anchor="middle" x="705" y="-56" font-family="Helvetica,sans-Serif" font-size="10.00">Command</text>
</a>
</g>
</g>
<!-- Node6&#45;&gt;Node13 -->
<g id="edge14" class="edge"><title>Node6&#45;&gt;Node13</title>
<path fill="none" stroke="midnightblue" d="M467.377,-216.408C486.181,-184.586 529.078,-120.02 584,-88 599.326,-79.0649 617.421,-73.4053 634.847,-69.8349"/>
<polygon fill="midnightblue" stroke="midnightblue" points="464.293,-214.749 462.328,-225.16 470.357,-218.247 464.293,-214.749"/>
</g>
<!-- Node14 -->
<g id="node14" class="node"><title>Node14</title>
<g id="a_node14"><a xlink:href="../../d5/d06/classui_1_1_scene_updater.html#ab77a04f8b0038429b09237aac18906e8" target="_top" xlink:title="ui.SceneUpdater.sendCommands">
<polygon fill="white" stroke="black" points="862,-54.5 862,-73.5 1040,-73.5 1040,-54.5 862,-54.5"/>
<text text-anchor="middle" x="951" y="-61.5" font-family="Helvetica,sans-Serif" font-size="10.00">ui.SceneUpdater.sendCommands</text>
</a>
</g>
</g>
<!-- Node13&#45;&gt;Node14 -->
<g id="edge15" class="edge"><title>Node13&#45;&gt;Node14</title>
<path fill="none" stroke="midnightblue" d="M785.545,-64C809.924,-64 836.888,-64 861.808,-64"/>
<polygon fill="midnightblue" stroke="midnightblue" points="785.268,-60.5001 775.268,-64 785.268,-67.5001 785.268,-60.5001"/>
</g>
<!-- Node15 -->
<g id="node15" class="node"><title>Node15</title>
<g id="a_node15"><a xlink:href="../../dc/d3b/classui_1_1_g_u_i.html#ad8f08a79a20a498bcaafdc7e2e2ce0a9" target="_top" xlink:title="ui.GUI.parseCommand">
<polygon fill="white" stroke="black" points="1076.5,-54.5 1076.5,-73.5 1201.5,-73.5 1201.5,-54.5 1076.5,-54.5"/>
<text text-anchor="middle" x="1139" y="-61.5" font-family="Helvetica,sans-Serif" font-size="10.00">ui.GUI.parseCommand</text>
</a>
</g>
</g>
<!-- Node14&#45;&gt;Node15 -->
<g id="edge16" class="edge"><title>Node14&#45;&gt;Node15</title>
<path fill="none" stroke="midnightblue" d="M1050.2,-64C1059.13,-64 1068,-64 1076.48,-64"/>
<polygon fill="midnightblue" stroke="midnightblue" points="1050.1,-60.5001 1040.1,-64 1050.1,-67.5001 1050.1,-60.5001"/>
</g>
<!-- Node16 -->
<g id="node16" class="node"><title>Node16</title>
<g id="a_node16"><a xlink:href="../../d8/d3c/classui_1_1elements_1_1_i_o_element.html#a139a046f0c771f86696f2eee04047c64" target="_top" xlink:title="ui.elements.IOElement.init">
<polygon fill="white" stroke="black" points="1254.5,-73.5 1254.5,-92.5 1397.5,-92.5 1397.5,-73.5 1254.5,-73.5"/>
<text text-anchor="middle" x="1326" y="-80.5" font-family="Helvetica,sans-Serif" font-size="10.00">ui.elements.IOElement.init</text>
</a>
</g>
</g>
<!-- Node15&#45;&gt;Node16 -->
<g id="edge17" class="edge"><title>Node15&#45;&gt;Node16</title>
<path fill="none" stroke="midnightblue" d="M1211.68,-71.3614C1225.7,-72.8019 1240.4,-74.3116 1254.39,-75.7485"/>
<polygon fill="midnightblue" stroke="midnightblue" points="1211.91,-67.8668 1201.6,-70.3267 1211.19,-74.8302 1211.91,-67.8668"/>
</g>
<!-- Node18 -->
<g id="node18" class="node"><title>Node18</title>
<g id="a_node18"><a xlink:href="../../dc/d3b/classui_1_1_g_u_i.html#ab8ec2a37b3d5bd9e8c2abbb3642fb965" target="_top" xlink:title="ui.GUI.setupKeyboardCommands">
<polygon fill="white" stroke="black" points="1238.5,-35.5 1238.5,-54.5 1413.5,-54.5 1413.5,-35.5 1238.5,-35.5"/>
<text text-anchor="middle" x="1326" y="-42.5" font-family="Helvetica,sans-Serif" font-size="10.00">ui.GUI.setupKeyboardCommands</text>
</a>
</g>
</g>
<!-- Node15&#45;&gt;Node18 -->
<g id="edge19" class="edge"><title>Node15&#45;&gt;Node18</title>
<path fill="none" stroke="midnightblue" d="M1211.69,-56.6368C1220.41,-55.7417 1229.39,-54.8199 1238.29,-53.9054"/>
<polygon fill="midnightblue" stroke="midnightblue" points="1211.19,-53.1698 1201.6,-57.6733 1211.91,-60.1332 1211.19,-53.1698"/>
</g>
<!-- Node17 -->
<g id="node17" class="node"><title>Node17</title>
<g id="a_node17"><a xlink:href="../../d8/d3c/classui_1_1elements_1_1_i_o_element.html#a556e1a3ad292fe3ab731065eef59b187" target="_top" xlink:title="ui.elements.IOElement.IOElement">
<polygon fill="white" stroke="black" points="1450,-73.5 1450,-92.5 1628,-92.5 1628,-73.5 1450,-73.5"/>
<text text-anchor="middle" x="1539" y="-80.5" font-family="Helvetica,sans-Serif" font-size="10.00">ui.elements.IOElement.IOElement</text>
</a>
</g>
</g>
<!-- Node16&#45;&gt;Node17 -->
<g id="edge18" class="edge"><title>Node16&#45;&gt;Node17</title>
<path fill="none" stroke="midnightblue" d="M1407.92,-83C1421.65,-83 1435.97,-83 1449.88,-83"/>
<polygon fill="midnightblue" stroke="midnightblue" points="1407.55,-79.5001 1397.55,-83 1407.55,-86.5001 1407.55,-79.5001"/>
</g>
<!-- Node19 -->
<g id="node19" class="node"><title>Node19</title>
<g id="a_node19"><a xlink:href="../../dc/d3b/classui_1_1_g_u_i.html#a765d554102f38969231261686f2f8e27" target="_top" xlink:title="ui.GUI.initialize">
<polygon fill="white" stroke="black" points="1496,-35.5 1496,-54.5 1582,-54.5 1582,-35.5 1496,-35.5"/>
<text text-anchor="middle" x="1539" y="-42.5" font-family="Helvetica,sans-Serif" font-size="10.00">ui.GUI.initialize</text>
</a>
</g>
</g>
<!-- Node18&#45;&gt;Node19 -->
<g id="edge20" class="edge"><title>Node18&#45;&gt;Node19</title>
<path fill="none" stroke="midnightblue" d="M1423.75,-45C1449.02,-45 1474.96,-45 1495.72,-45"/>
<polygon fill="midnightblue" stroke="midnightblue" points="1423.74,-41.5001 1413.74,-45 1423.74,-48.5001 1423.74,-41.5001"/>
</g>
<!-- Node20 -->
<g id="node20" class="node"><title>Node20</title>
<g id="a_node20"><a xlink:href="../../d5/d06/classui_1_1_scene_updater.html#aeef5dd7a8ec2ad6179e33fdd71ea90d6" target="_top" xlink:title="ui.SceneUpdater.initGUI">
<polygon fill="white" stroke="black" points="1664.5,-35.5 1664.5,-54.5 1795.5,-54.5 1795.5,-35.5 1664.5,-35.5"/>
<text text-anchor="middle" x="1730" y="-42.5" font-family="Helvetica,sans-Serif" font-size="10.00">ui.SceneUpdater.initGUI</text>
</a>
</g>
</g>
<!-- Node19&#45;&gt;Node20 -->
<g id="edge21" class="edge"><title>Node19&#45;&gt;Node20</title>
<path fill="none" stroke="midnightblue" d="M1592.67,-45C1614.92,-45 1641.05,-45 1664.45,-45"/>
<polygon fill="midnightblue" stroke="midnightblue" points="1592.42,-41.5001 1582.42,-45 1592.42,-48.5001 1592.42,-41.5001"/>
</g>
<!-- Node21 -->
<g id="node21" class="node"><title>Node21</title>
<g id="a_node21"><a xlink:href="../../d9/df7/classcontroller_1_1_controller.html#a57e42ba83ee2145e6262cd72eac59570" target="_top" xlink:title="controller.Controller.init">
<polygon fill="white" stroke="black" points="1832.5,-35.5 1832.5,-54.5 1959.5,-54.5 1959.5,-35.5 1832.5,-35.5"/>
<text text-anchor="middle" x="1896" y="-42.5" font-family="Helvetica,sans-Serif" font-size="10.00">controller.Controller.init</text>
</a>
</g>
</g>
<!-- Node20&#45;&gt;Node21 -->
<g id="edge22" class="edge"><title>Node20&#45;&gt;Node21</title>
<path fill="none" stroke="midnightblue" d="M1806.04,-45C1814.81,-45 1823.68,-45 1832.26,-45"/>
<polygon fill="midnightblue" stroke="midnightblue" points="1805.82,-41.5001 1795.82,-45 1805.82,-48.5001 1805.82,-41.5001"/>
</g>
<!-- Node22 -->
<g id="node22" class="node"><title>Node22</title>
<g id="a_node22"><a xlink:href="../../dd/df2/classmain_1_1_workspace_manager.html#abc818b59211f6e14940b86a42bb868d0" target="_top" xlink:title="main.WorkspaceManager.create\lWorkspace">
<polygon fill="white" stroke="black" points="1996,-30 1996,-60 2166,-60 2166,-30 1996,-30"/>
<text text-anchor="start" x="2004" y="-48" font-family="Helvetica,sans-Serif" font-size="10.00">main.WorkspaceManager.create</text>
<text text-anchor="middle" x="2081" y="-37" font-family="Helvetica,sans-Serif" font-size="10.00">Workspace</text>
</a>
</g>
</g>
<!-- Node21&#45;&gt;Node22 -->
<g id="edge23" class="edge"><title>Node21&#45;&gt;Node22</title>
<path fill="none" stroke="midnightblue" d="M1969.92,-45C1978.39,-45 1987.08,-45 1995.69,-45"/>
<polygon fill="midnightblue" stroke="midnightblue" points="1969.72,-41.5001 1959.72,-45 1969.72,-48.5001 1969.72,-41.5001"/>
</g>
<!-- Node23 -->
<g id="node23" class="node"><title>Node23</title>
<g id="a_node23"><a xlink:href="../../d9/df7/classcontroller_1_1_controller.html#a3a9d672bb57047df70945ad1a9582c9a" target="_top" xlink:title="controller.Controller.create\lNewWorkspace">
<polygon fill="white" stroke="black" points="2202.5,-52 2202.5,-82 2345.5,-82 2345.5,-52 2202.5,-52"/>
<text text-anchor="start" x="2210.5" y="-70" font-family="Helvetica,sans-Serif" font-size="10.00">controller.Controller.create</text>
<text text-anchor="middle" x="2274" y="-59" font-family="Helvetica,sans-Serif" font-size="10.00">NewWorkspace</text>
</a>
</g>
</g>
<!-- Node22&#45;&gt;Node23 -->
<g id="edge24" class="edge"><title>Node22&#45;&gt;Node23</title>
<path fill="none" stroke="midnightblue" d="M2176.03,-55.8303C2184.88,-56.8503 2193.75,-57.8721 2202.34,-58.8608"/>
<polygon fill="midnightblue" stroke="midnightblue" points="2176.39,-52.3489 2166.05,-54.6815 2175.59,-59.3029 2176.39,-52.3489"/>
</g>
<!-- Node29 -->
<g id="node29" class="node"><title>Node29</title>
<g id="a_node29"><a xlink:href="../../d1/d0b/classmain_1_1_main.html#a9f1e5657b2f6f9bdd69a3b6412ceda74" target="_top" xlink:title="main.Main.start">
<polygon fill="white" stroke="black" points="2228,-13.5 2228,-32.5 2320,-32.5 2320,-13.5 2228,-13.5"/>
<text text-anchor="middle" x="2274" y="-20.5" font-family="Helvetica,sans-Serif" font-size="10.00">main.Main.start</text>
</a>
</g>
</g>
<!-- Node22&#45;&gt;Node29 -->
<g id="edge30" class="edge"><title>Node22&#45;&gt;Node29</title>
<path fill="none" stroke="midnightblue" d="M2176.09,-34.1629C2194.19,-32.0779 2212.36,-29.9851 2227.99,-28.1843"/>
<polygon fill="midnightblue" stroke="midnightblue" points="2175.59,-30.6971 2166.05,-35.3185 2176.39,-37.6511 2175.59,-30.6971"/>
</g>
<!-- Node24 -->
<g id="node24" class="node"><title>Node24</title>
<g id="a_node24"><a xlink:href="../../d5/d06/classui_1_1_scene_updater.html#a2858ad8edb0c0f59a21e2ae015f2fa1e" target="_top" xlink:title="ui.SceneUpdater.createNew\lWorkspace">
<polygon fill="white" stroke="black" points="2382,-52 2382,-82 2532,-82 2532,-52 2382,-52"/>
<text text-anchor="start" x="2390" y="-70" font-family="Helvetica,sans-Serif" font-size="10.00">ui.SceneUpdater.createNew</text>
<text text-anchor="middle" x="2457" y="-59" font-family="Helvetica,sans-Serif" font-size="10.00">Workspace</text>
</a>
</g>
</g>
<!-- Node23&#45;&gt;Node24 -->
<g id="edge25" class="edge"><title>Node23&#45;&gt;Node24</title>
<path fill="none" stroke="midnightblue" d="M2355.8,-67C2364.43,-67 2373.17,-67 2381.71,-67"/>
<polygon fill="midnightblue" stroke="midnightblue" points="2355.76,-63.5001 2345.76,-67 2355.76,-70.5001 2355.76,-63.5001"/>
</g>
<!-- Node25 -->
<g id="node25" class="node"><title>Node25</title>
<g id="a_node25"><a xlink:href="../../dc/d3b/classui_1_1_g_u_i.html#a2edc294ba07311e6c4b85c9fe749d1bf" target="_top" xlink:title="ui.GUI.createNewWorkspace">
<polygon fill="white" stroke="black" points="2568,-57.5 2568,-76.5 2718,-76.5 2718,-57.5 2568,-57.5"/>
<text text-anchor="middle" x="2643" y="-64.5" font-family="Helvetica,sans-Serif" font-size="10.00">ui.GUI.createNewWorkspace</text>
</a>
</g>
</g>
<!-- Node24&#45;&gt;Node25 -->
<g id="edge26" class="edge"><title>Node24&#45;&gt;Node25</title>
<path fill="none" stroke="midnightblue" d="M2542.07,-67C2550.65,-67 2559.34,-67 2567.81,-67"/>
<polygon fill="midnightblue" stroke="midnightblue" points="2542.04,-63.5001 2532.04,-67 2542.04,-70.5001 2542.04,-63.5001"/>
</g>
<!-- Node26 -->
<g id="node26" class="node"><title>Node26</title>
<g id="a_node26"><a xlink:href="../../d0/de6/classui_1_1elements_1_1_menu_bar_element.html#a98c13995a31d997aa10f2950583da6cc" target="_top" xlink:title="ui.elements.MenuBarElement.make\lMenuBar">
<polygon fill="white" stroke="black" points="2754,-52 2754,-82 2942,-82 2942,-52 2754,-52"/>
<text text-anchor="start" x="2762" y="-70" font-family="Helvetica,sans-Serif" font-size="10.00">ui.elements.MenuBarElement.make</text>
<text text-anchor="middle" x="2848" y="-59" font-family="Helvetica,sans-Serif" font-size="10.00">MenuBar</text>
</a>
</g>
</g>
<!-- Node25&#45;&gt;Node26 -->
<g id="edge27" class="edge"><title>Node25&#45;&gt;Node26</title>
<path fill="none" stroke="midnightblue" d="M2728.28,-67C2736.66,-67 2745.21,-67 2753.68,-67"/>
<polygon fill="midnightblue" stroke="midnightblue" points="2728.15,-63.5001 2718.15,-67 2728.15,-70.5001 2728.15,-63.5001"/>
</g>
<!-- Node27 -->
<g id="node27" class="node"><title>Node27</title>
<g id="a_node27"><a xlink:href="../../d0/de6/classui_1_1elements_1_1_menu_bar_element.html#a7bdb58f78cf8b61ba28498c5c86ab682" target="_top" xlink:title="ui.elements.MenuBarElement.init">
<polygon fill="white" stroke="black" points="2978,-57.5 2978,-76.5 3154,-76.5 3154,-57.5 2978,-57.5"/>
<text text-anchor="middle" x="3066" y="-64.5" font-family="Helvetica,sans-Serif" font-size="10.00">ui.elements.MenuBarElement.init</text>
</a>
</g>
</g>
<!-- Node26&#45;&gt;Node27 -->
<g id="edge28" class="edge"><title>Node26&#45;&gt;Node27</title>
<path fill="none" stroke="midnightblue" d="M2952.23,-67C2960.83,-67 2969.48,-67 2977.94,-67"/>
<polygon fill="midnightblue" stroke="midnightblue" points="2952.17,-63.5001 2942.17,-67 2952.17,-70.5001 2952.17,-63.5001"/>
</g>
<!-- Node28 -->
<g id="node28" class="node"><title>Node28</title>
<g id="a_node28"><a xlink:href="../../d0/de6/classui_1_1elements_1_1_menu_bar_element.html#ab4a4e6841c924a9d9c70b8073b56dffc" target="_top" xlink:title="ui.elements.MenuBarElement.\lMenuBarElement">
<polygon fill="white" stroke="black" points="3190.5,-52 3190.5,-82 3351.5,-82 3351.5,-52 3190.5,-52"/>
<text text-anchor="start" x="3198.5" y="-70" font-family="Helvetica,sans-Serif" font-size="10.00">ui.elements.MenuBarElement.</text>
<text text-anchor="middle" x="3271" y="-59" font-family="Helvetica,sans-Serif" font-size="10.00">MenuBarElement</text>
</a>
</g>
</g>
<!-- Node27&#45;&gt;Node28 -->
<g id="edge29" class="edge"><title>Node27&#45;&gt;Node28</title>
<path fill="none" stroke="midnightblue" d="M3164.47,-67C3173.19,-67 3181.95,-67 3190.5,-67"/>
<polygon fill="midnightblue" stroke="midnightblue" points="3164.27,-63.5001 3154.27,-67 3164.27,-70.5001 3164.27,-63.5001"/>
</g>
</g>
</svg>
        <g id="navigator" transform="translate(0 0)" fill="#404254">
                <rect fill="#f2f5e9" fill-opacity="0.5" stroke="#606060" stroke-width=".5" x="0" y="0" width="60" height="60"/>
                <use id="zoomplus" xlink:href="#zoomPlus" x="17" y="9" onmousedown="handleZoom(evt,'in')"/>
                <use id="zoomminus" xlink:href="#zoomMin" x="42" y="9" onmousedown="handleZoom(evt,'out')"/>
                <use id="reset" xlink:href="#resetDef" x="30" y="36" onmousedown="handleReset()"/>
                <g id="arrowUp" xlink:href="#dirArrow" transform="translate(30 24)" onmousedown="handlePan(0,-1)">
                  <use xlink:href="#rim" fill="#404040">
                        <set attributeName="fill" to="#808080" begin="arrowUp.mouseover" end="arrowUp.mouseout"/>
                  </use>
                  <path fill="none" stroke="white" stroke-width="1.5" d="M0,-3.0v7 M-2.5,-0.5L0,-3.0L2.5,-0.5"/>
                </g>
                <g id="arrowRight" xlink:href="#dirArrow" transform="rotate(90) translate(36 -43)" onmousedown="handlePan(1,0)">
                  <use xlink:href="#rim" fill="#404040">
                        <set attributeName="fill" to="#808080" begin="arrowRight.mouseover" end="arrowRight.mouseout"/>
                  </use>
                  <path fill="none" stroke="white" stroke-width="1.5" d="M0,-3.0v7 M-2.5,-0.5L0,-3.0L2.5,-0.5"/>
                </g>
                <g id="arrowDown" xlink:href="#dirArrow" transform="rotate(180) translate(-30 -48)" onmousedown="handlePan(0,1)">
                  <use xlink:href="#rim" fill="#404040">
                        <set attributeName="fill" to="#808080" begin="arrowDown.mouseover" end="arrowDown.mouseout"/>
                  </use>
                  <path fill="none" stroke="white" stroke-width="1.5" d="M0,-3.0v7 M-2.5,-0.5L0,-3.0L2.5,-0.5"/>
                </g>
                <g id="arrowLeft" xlink:href="#dirArrow" transform="rotate(270) translate(-36 17)" onmousedown="handlePan(-1,0)">
                  <use xlink:href="#rim" fill="#404040">
                        <set attributeName="fill" to="#808080" begin="arrowLeft.mouseover" end="arrowLeft.mouseout"/>
                  </use>
                  <path fill="none" stroke="white" stroke-width="1.5" d="M0,-3.0v7 M-2.5,-0.5L0,-3.0L2.5,-0.5"/>
                </g>
        </g>
        <svg viewBox="0 0 15 15" width="100%" height="30px" preserveAspectRatio="xMaxYMin meet">
         <g id="arrow_out" transform="scale(0.3 0.3)">
          <a xlink:href="classmodel_1_1_variable_list_a09697cca38c12cf837ee40e71d02f78b_icgraph_org.svg" target="_base">
           <rect id="button" ry="5" rx="5" y="6" x="6" height="38" width="38"
                fill="#f2f5e9" fill-opacity="0.5" stroke="#606060" stroke-width="1.0"/>
           <path id="arrow"
             d="M 11.500037,31.436501 C 11.940474,20.09759 22.043105,11.32322 32.158766,21.979434 L 37.068811,17.246167 C 37.068811,17.246167 37.088388,32 37.088388,32 L 22.160133,31.978069 C 22.160133,31.978069 26.997745,27.140456 26.997745,27.140456 C 18.528582,18.264221 13.291696,25.230495 11.500037,31.436501 z"
             style="fill:#404040;"/>
          </a>
         </g>
        </svg>
</svg>
