<?xml version="1.0" encoding="UTF-8" standalone="no"?>
<!DOCTYPE svg PUBLIC "-//W3C//DTD SVG 1.1//EN"
 "http://www.w3.org/Graphics/SVG/1.1/DTD/svg11.dtd">
<!-- Generated by graphviz version 2.36.0 (20140111.2315)
 -->
<!-- Title: command.control.ForCommand.calculateValue Pages: 1 -->
<svg width="1072pt" height="252pt"
 viewBox="0.00 0.00 1072.00 252.00" xmlns="http://www.w3.org/2000/svg" xmlns:xlink="http://www.w3.org/1999/xlink">
<g id="graph0" class="graph" transform="scale(1 1) rotate(0) translate(4 248)">
<title>command.control.ForCommand.calculateValue</title>
<polygon fill="white" stroke="none" points="-4,4 -4,-248 1068,-248 1068,4 -4,4"/>
<!-- Node1 -->
<g id="node1" class="node"><title>Node1</title>
<polygon fill="#bfbfbf" stroke="black" points="0.5,-141 0.5,-171 215.5,-171 215.5,-141 0.5,-141"/>
<text text-anchor="start" x="8.5" y="-159" font-family="Helvetica,sans-Serif" font-size="10.00">command.control.ForCommand.calculate</text>
<text text-anchor="middle" x="108" y="-148" font-family="Helvetica,sans-Serif" font-size="10.00">Value</text>
</g>
<!-- Node2 -->
<g id="node2" class="node"><title>Node2</title>
<g id="a_node2"><a xlink:href="../../db/d55/classmodel_1_1_variable_list.html#a09697cca38c12cf837ee40e71d02f78b" target="_top" xlink:title="model.VariableList.get">
<polygon fill="white" stroke="black" points="691.5,-222.5 691.5,-241.5 814.5,-241.5 814.5,-222.5 691.5,-222.5"/>
<text text-anchor="middle" x="753" y="-229.5" font-family="Helvetica,sans-Serif" font-size="10.00">model.VariableList.get</text>
</a>
</g>
</g>
<!-- Node1&#45;&gt;Node2 -->
<g id="edge1" class="edge"><title>Node1&#45;&gt;Node2</title>
<path fill="none" stroke="midnightblue" d="M138.2,-171.081C166.466,-184.839 210.95,-204.309 252,-213 402.206,-244.802 583.338,-241.748 681.094,-236.809"/>
<polygon fill="midnightblue" stroke="midnightblue" points="681.352,-240.3 691.154,-236.279 680.984,-233.31 681.352,-240.3"/>
</g>
<!-- Node4 -->
<g id="node4" class="node"><title>Node4</title>
<g id="a_node4"><a xlink:href="../../d4/d08/classmodel_1_1_variable.html#a4821e6ef8e0b15c009d8769642dac6b7" target="_top" xlink:title="model.Variable.getName">
<polygon fill="white" stroke="black" points="276,-184.5 276,-203.5 412,-203.5 412,-184.5 276,-184.5"/>
<text text-anchor="middle" x="344" y="-191.5" font-family="Helvetica,sans-Serif" font-size="10.00">model.Variable.getName</text>
</a>
</g>
</g>
<!-- Node1&#45;&gt;Node4 -->
<g id="edge3" class="edge"><title>Node1&#45;&gt;Node4</title>
<path fill="none" stroke="midnightblue" d="M201.483,-171.019C225.853,-174.976 251.71,-179.175 274.561,-182.886"/>
<polygon fill="midnightblue" stroke="midnightblue" points="274.063,-186.351 284.494,-184.499 275.185,-179.441 274.063,-186.351"/>
</g>
<!-- Node5 -->
<g id="node5" class="node"><title>Node5</title>
<g id="a_node5"><a xlink:href="../../d4/d08/classmodel_1_1_variable.html#a49730c824ab9fe357246b60968a0c871" target="_top" xlink:title="model.Variable.getValue">
<polygon fill="white" stroke="black" points="277.5,-146.5 277.5,-165.5 410.5,-165.5 410.5,-146.5 277.5,-146.5"/>
<text text-anchor="middle" x="344" y="-153.5" font-family="Helvetica,sans-Serif" font-size="10.00">model.Variable.getValue</text>
</a>
</g>
</g>
<!-- Node1&#45;&gt;Node5 -->
<g id="edge4" class="edge"><title>Node1&#45;&gt;Node5</title>
<path fill="none" stroke="midnightblue" d="M215.729,-156C233.097,-156 250.77,-156 267.2,-156"/>
<polygon fill="midnightblue" stroke="midnightblue" points="267.256,-159.5 277.256,-156 267.256,-152.5 267.256,-159.5"/>
</g>
<!-- Node6 -->
<g id="node6" class="node"><title>Node6</title>
<g id="a_node6"><a xlink:href="../../d9/d88/classmodel_1_1_tree_interpreter.html#a12974b618a919e80784499cde45d925e" target="_top" xlink:title="model.TreeInterpreter.get\lVariableList">
<polygon fill="white" stroke="black" points="275,-97 275,-127 413,-127 413,-97 275,-97"/>
<text text-anchor="start" x="283" y="-115" font-family="Helvetica,sans-Serif" font-size="10.00">model.TreeInterpreter.get</text>
<text text-anchor="middle" x="344" y="-104" font-family="Helvetica,sans-Serif" font-size="10.00">VariableList</text>
</a>
</g>
</g>
<!-- Node1&#45;&gt;Node6 -->
<g id="edge5" class="edge"><title>Node1&#45;&gt;Node6</title>
<path fill="none" stroke="midnightblue" d="M188.875,-140.981C213.428,-136.364 240.415,-131.29 264.851,-126.695"/>
<polygon fill="midnightblue" stroke="midnightblue" points="265.612,-130.113 274.793,-124.825 264.318,-123.234 265.612,-130.113"/>
</g>
<!-- Node7 -->
<g id="node7" class="node"><title>Node7</title>
<g id="a_node7"><a xlink:href="../../d9/d88/classmodel_1_1_tree_interpreter.html#a501df6b8cfe1a8175a9da0ed96d30d6f" target="_top" xlink:title="model.TreeInterpreter.interpretTree">
<polygon fill="white" stroke="black" points="252.5,-58.5 252.5,-77.5 435.5,-77.5 435.5,-58.5 252.5,-58.5"/>
<text text-anchor="middle" x="344" y="-65.5" font-family="Helvetica,sans-Serif" font-size="10.00">model.TreeInterpreter.interpretTree</text>
</a>
</g>
</g>
<!-- Node1&#45;&gt;Node7 -->
<g id="edge6" class="edge"><title>Node1&#45;&gt;Node7</title>
<path fill="none" stroke="midnightblue" d="M135.321,-140.88C163.402,-125.334 209.59,-101.418 252,-87 259.908,-84.3118 268.337,-81.9339 276.754,-79.8509"/>
<polygon fill="midnightblue" stroke="midnightblue" points="277.661,-83.2331 286.597,-77.5401 276.061,-76.4184 277.661,-83.2331"/>
</g>
<!-- Node3 -->
<g id="node3" class="node"><title>Node3</title>
<g id="a_node3"><a xlink:href="../../db/d55/classmodel_1_1_variable_list.html#a0adb554303c7191db1da43ddb5fa2c45" target="_top" xlink:title="model.VariableList.add">
<polygon fill="white" stroke="black" points="904.5,-224.5 904.5,-243.5 1029.5,-243.5 1029.5,-224.5 904.5,-224.5"/>
<text text-anchor="middle" x="967" y="-231.5" font-family="Helvetica,sans-Serif" font-size="10.00">model.VariableList.add</text>
</a>
</g>
</g>
<!-- Node2&#45;&gt;Node3 -->
<g id="edge2" class="edge"><title>Node2&#45;&gt;Node3</title>
<path fill="none" stroke="midnightblue" d="M814.751,-232.573C839.486,-232.806 868.269,-233.078 894.047,-233.321"/>
<polygon fill="midnightblue" stroke="midnightblue" points="894.104,-236.822 904.137,-233.416 894.17,-229.822 894.104,-236.822"/>
</g>
<!-- Node8 -->
<g id="node8" class="node"><title>Node8</title>
<g id="a_node8"><a xlink:href="../../dc/d9e/classparser_1_1_command_tree_node.html#a2700486f6a49c0a080114bee6e51f271" target="_top" xlink:title="parser.CommandTreeNode.get\lChildren">
<polygon fill="white" stroke="black" points="472,-53 472,-83 636,-83 636,-53 472,-53"/>
<text text-anchor="start" x="480" y="-71" font-family="Helvetica,sans-Serif" font-size="10.00">parser.CommandTreeNode.get</text>
<text text-anchor="middle" x="554" y="-60" font-family="Helvetica,sans-Serif" font-size="10.00">Children</text>
</a>
</g>
</g>
<!-- Node7&#45;&gt;Node8 -->
<g id="edge7" class="edge"><title>Node7&#45;&gt;Node8</title>
<path fill="none" stroke="midnightblue" d="M435.627,-68C444.282,-68 453.063,-68 461.725,-68"/>
<polygon fill="midnightblue" stroke="midnightblue" points="461.823,-71.5001 471.823,-68 461.823,-64.5001 461.823,-71.5001"/>
</g>
<!-- Node9 -->
<g id="node9" class="node"><title>Node9</title>
<g id="a_node9"><a xlink:href="../../dc/d9e/classparser_1_1_command_tree_node.html#a8bb8a112395f78809b0be06f1c3f5282" target="_top" xlink:title="parser.CommandTreeNode.getType">
<polygon fill="white" stroke="black" points="874.5,-0.5 874.5,-19.5 1059.5,-19.5 1059.5,-0.5 874.5,-0.5"/>
<text text-anchor="middle" x="967" y="-7.5" font-family="Helvetica,sans-Serif" font-size="10.00">parser.CommandTreeNode.getType</text>
</a>
</g>
</g>
<!-- Node7&#45;&gt;Node9 -->
<g id="edge8" class="edge"><title>Node7&#45;&gt;Node9</title>
<path fill="none" stroke="midnightblue" d="M386.248,-58.4944C410.986,-53.1408 443.147,-46.7879 472,-43 606.92,-25.2876 763.889,-16.862 864.039,-13.0109"/>
<polygon fill="midnightblue" stroke="midnightblue" points="864.292,-16.504 874.153,-12.6301 864.029,-9.50893 864.292,-16.504"/>
</g>
<!-- Node10 -->
<g id="node10" class="node"><title>Node10</title>
<g id="a_node10"><a xlink:href="../../d9/d88/classmodel_1_1_tree_interpreter.html#a3e460e5ebe66f781afb480f0f0ec2ce7" target="_top" xlink:title="model.TreeInterpreter.update">
<polygon fill="white" stroke="black" points="476,-121.5 476,-140.5 632,-140.5 632,-121.5 476,-121.5"/>
<text text-anchor="middle" x="554" y="-128.5" font-family="Helvetica,sans-Serif" font-size="10.00">model.TreeInterpreter.update</text>
</a>
</g>
</g>
<!-- Node7&#45;&gt;Node10 -->
<g id="edge9" class="edge"><title>Node7&#45;&gt;Node10</title>
<path fill="none" stroke="midnightblue" d="M397.792,-77.5867C410.403,-80.2713 423.756,-83.4425 436,-87 465.358,-95.5301 497.835,-107.996 521.108,-117.483"/>
<polygon fill="midnightblue" stroke="midnightblue" points="519.904,-120.773 530.483,-121.347 522.571,-114.301 519.904,-120.773"/>
</g>
<!-- Node10&#45;&gt;Node2 -->
<g id="edge19" class="edge"><title>Node10&#45;&gt;Node2</title>
<path fill="none" stroke="midnightblue" d="M567.745,-140.505C588.635,-155.744 631.862,-185.871 672,-205 683.372,-210.419 696.124,-215.243 708.048,-219.26"/>
<polygon fill="midnightblue" stroke="midnightblue" points="707.229,-222.674 717.821,-222.44 709.395,-216.018 707.229,-222.674"/>
</g>
<!-- Node10&#45;&gt;Node9 -->
<g id="edge10" class="edge"><title>Node10&#45;&gt;Node9</title>
<path fill="none" stroke="midnightblue" d="M574.052,-121.317C596.878,-110.003 636.495,-91.272 672,-79 757.783,-49.3497 781.452,-48.9286 870,-29 881.282,-26.4609 893.35,-23.929 904.99,-21.5798"/>
<polygon fill="midnightblue" stroke="midnightblue" points="905.956,-24.9561 915.078,-19.5668 904.586,-18.0914 905.956,-24.9561"/>
</g>
<!-- Node11 -->
<g id="node11" class="node"><title>Node11</title>
<g id="a_node11"><a xlink:href="../../d9/d88/classmodel_1_1_tree_interpreter.html#af4d24e7867eb3a4a53f79f4a9288f9fd" target="_top" xlink:title="model.TreeInterpreter.execute\lCommand">
<polygon fill="white" stroke="black" points="672.5,-89 672.5,-119 833.5,-119 833.5,-89 672.5,-89"/>
<text text-anchor="start" x="680.5" y="-107" font-family="Helvetica,sans-Serif" font-size="10.00">model.TreeInterpreter.execute</text>
<text text-anchor="middle" x="753" y="-96" font-family="Helvetica,sans-Serif" font-size="10.00">Command</text>
</a>
</g>
</g>
<!-- Node10&#45;&gt;Node11 -->
<g id="edge11" class="edge"><title>Node10&#45;&gt;Node11</title>
<path fill="none" stroke="midnightblue" d="M624.455,-121.481C636.692,-119.804 649.586,-118.036 662.284,-116.296"/>
<polygon fill="midnightblue" stroke="midnightblue" points="662.977,-119.734 672.409,-114.908 662.027,-112.799 662.977,-119.734"/>
</g>
<!-- Node13 -->
<g id="node13" class="node"><title>Node13</title>
<g id="a_node13"><a xlink:href="../../dc/d9e/classparser_1_1_command_tree_node.html#a73e4ab6ebca47d41b993f0e66ee4c8d2" target="_top" xlink:title="parser.CommandTreeNode.getName">
<polygon fill="white" stroke="black" points="870.5,-186.5 870.5,-205.5 1063.5,-205.5 1063.5,-186.5 870.5,-186.5"/>
<text text-anchor="middle" x="967" y="-193.5" font-family="Helvetica,sans-Serif" font-size="10.00">parser.CommandTreeNode.getName</text>
</a>
</g>
</g>
<!-- Node10&#45;&gt;Node13 -->
<g id="edge17" class="edge"><title>Node10&#45;&gt;Node13</title>
<path fill="none" stroke="midnightblue" d="M596.004,-140.552C618.384,-145.566 646.628,-151.57 672,-156 739.138,-167.723 815.408,-178.013 873.437,-185.219"/>
<polygon fill="midnightblue" stroke="midnightblue" points="873.334,-188.733 883.687,-186.484 874.191,-181.786 873.334,-188.733"/>
</g>
<!-- Node15 -->
<g id="node15" class="node"><title>Node15</title>
<g id="a_node15"><a xlink:href="../../dc/d9e/classparser_1_1_command_tree_node.html#a3d691b68da13689c03ebd9de665c379c" target="_top" xlink:title="parser.CommandTreeNode.set\lValue">
<polygon fill="white" stroke="black" points="885.5,-137 885.5,-167 1048.5,-167 1048.5,-137 885.5,-137"/>
<text text-anchor="start" x="893.5" y="-155" font-family="Helvetica,sans-Serif" font-size="10.00">parser.CommandTreeNode.set</text>
<text text-anchor="middle" x="967" y="-144" font-family="Helvetica,sans-Serif" font-size="10.00">Value</text>
</a>
</g>
</g>
<!-- Node10&#45;&gt;Node15 -->
<g id="edge18" class="edge"><title>Node10&#45;&gt;Node15</title>
<path fill="none" stroke="midnightblue" d="M632.306,-134.95C701.264,-138.473 802.287,-143.635 875.097,-147.355"/>
<polygon fill="midnightblue" stroke="midnightblue" points="875.011,-150.855 885.177,-147.87 875.369,-143.865 875.011,-150.855"/>
</g>
<!-- Node11&#45;&gt;Node9 -->
<g id="edge13" class="edge"><title>Node11&#45;&gt;Node9</title>
<path fill="none" stroke="midnightblue" d="M804.7,-88.9097C814.91,-84.6464 825.197,-79.383 834,-73 854.455,-58.1677 848.331,-41.9956 870,-29 873.606,-26.8372 877.412,-24.915 881.346,-23.2072"/>
<polygon fill="midnightblue" stroke="midnightblue" points="882.647,-26.4568 890.723,-19.5986 880.133,-19.9239 882.647,-26.4568"/>
</g>
<!-- Node12 -->
<g id="node12" class="node"><title>Node12</title>
<g id="a_node12"><a xlink:href="../../db/d10/classmodel_1_1_command_factory.html#a3982ff8b4387b7e50c9ec4350ee01733" target="_top" xlink:title="model.CommandFactory.create\lCommand">
<polygon fill="white" stroke="black" points="883.5,-39 883.5,-69 1050.5,-69 1050.5,-39 883.5,-39"/>
<text text-anchor="start" x="891.5" y="-57" font-family="Helvetica,sans-Serif" font-size="10.00">model.CommandFactory.create</text>
<text text-anchor="middle" x="967" y="-46" font-family="Helvetica,sans-Serif" font-size="10.00">Command</text>
</a>
</g>
</g>
<!-- Node11&#45;&gt;Node12 -->
<g id="edge12" class="edge"><title>Node11&#45;&gt;Node12</title>
<path fill="none" stroke="midnightblue" d="M817.607,-88.9984C841.083,-83.4616 867.88,-77.1415 892.184,-71.4095"/>
<polygon fill="midnightblue" stroke="midnightblue" points="893.142,-74.7795 902.072,-69.0774 891.535,-67.9665 893.142,-74.7795"/>
</g>
<!-- Node11&#45;&gt;Node13 -->
<g id="edge14" class="edge"><title>Node11&#45;&gt;Node13</title>
<path fill="none" stroke="midnightblue" d="M773.384,-119.022C795.538,-135.453 833.467,-161.389 870,-176 877.783,-179.112 886.122,-181.768 894.517,-184.026"/>
<polygon fill="midnightblue" stroke="midnightblue" points="893.816,-187.458 904.368,-186.499 895.521,-180.669 893.816,-187.458"/>
</g>
<!-- Node14 -->
<g id="node14" class="node"><title>Node14</title>
<g id="a_node14"><a xlink:href="../../d9/d88/classmodel_1_1_tree_interpreter.html#adc0cf2c5819ec7f42db4e37db51b1893" target="_top" xlink:title="model.TreeInterpreter.get\lConstructors">
<polygon fill="white" stroke="black" points="898,-88 898,-118 1036,-118 1036,-88 898,-88"/>
<text text-anchor="start" x="906" y="-106" font-family="Helvetica,sans-Serif" font-size="10.00">model.TreeInterpreter.get</text>
<text text-anchor="middle" x="967" y="-95" font-family="Helvetica,sans-Serif" font-size="10.00">Constructors</text>
</a>
</g>
</g>
<!-- Node11&#45;&gt;Node14 -->
<g id="edge15" class="edge"><title>Node11&#45;&gt;Node14</title>
<path fill="none" stroke="midnightblue" d="M833.544,-103.625C851.223,-103.541 869.951,-103.453 887.584,-103.37"/>
<polygon fill="midnightblue" stroke="midnightblue" points="887.84,-106.869 897.823,-103.322 887.807,-99.8689 887.84,-106.869"/>
</g>
<!-- Node11&#45;&gt;Node15 -->
<g id="edge16" class="edge"><title>Node11&#45;&gt;Node15</title>
<path fill="none" stroke="midnightblue" d="M820.496,-119.056C842.498,-124.037 867.15,-129.619 889.82,-134.752"/>
<polygon fill="midnightblue" stroke="midnightblue" points="889.213,-138.203 899.739,-136.998 890.759,-131.376 889.213,-138.203"/>
</g>
</g>
</svg>
