<?xml version="1.0" encoding="UTF-8" standalone="no"?>
<!DOCTYPE svg PUBLIC "-//W3C//DTD SVG 1.1//EN"
 "http://www.w3.org/Graphics/SVG/1.1/DTD/svg11.dtd">
<!-- Generated by graphviz version 2.36.0 (20140111.2315)
 -->
<!-- Title: errors.IllegalParameterNumberException Pages: 1 -->
<svg width="195pt" height="166pt"
 viewBox="0.00 0.00 195.00 166.00" xmlns="http://www.w3.org/2000/svg" xmlns:xlink="http://www.w3.org/1999/xlink">
<g id="graph0" class="graph" transform="scale(1 1) rotate(0) translate(4 162)">
<title>errors.IllegalParameterNumberException</title>
<polygon fill="white" stroke="none" points="-4,4 -4,-162 191,-162 191,4 -4,4"/>
<!-- Node1 -->
<g id="node1" class="node"><title>Node1</title>
<polygon fill="#bfbfbf" stroke="black" points="15,-1 15,-31 179,-31 179,-1 15,-1"/>
<text text-anchor="start" x="23" y="-19" font-family="Helvetica,sans-Serif" font-size="10.00">errors.IllegalParameterNumber</text>
<text text-anchor="middle" x="97" y="-8" font-family="Helvetica,sans-Serif" font-size="10.00">Exception</text>
</g>
<!-- Node2 -->
<g id="node2" class="node"><title>Node2</title>
<g id="a_node2"><a xlink:href="../../d9/dad/classerrors_1_1_s_logo_exception.html" target="_top" xlink:title="errors.SLogoException">
<polygon fill="white" stroke="black" points="34.5,-70.5 34.5,-89.5 159.5,-89.5 159.5,-70.5 34.5,-70.5"/>
<text text-anchor="middle" x="97" y="-77.5" font-family="Helvetica,sans-Serif" font-size="10.00">errors.SLogoException</text>
</a>
</g>
</g>
<!-- Node2&#45;&gt;Node1 -->
<g id="edge1" class="edge"><title>Node2&#45;&gt;Node1</title>
<path fill="none" stroke="midnightblue" d="M97,-60.1826C97,-50.8859 97,-39.8507 97,-31.263"/>
<polygon fill="midnightblue" stroke="midnightblue" points="93.5001,-60.3791 97,-70.3792 100.5,-60.3792 93.5001,-60.3791"/>
</g>
<!-- Node3 -->
<g id="node3" class="node"><title>Node3</title>
<polygon fill="white" stroke="#bfbfbf" points="0,-138.5 0,-157.5 102,-157.5 102,-138.5 0,-138.5"/>
<text text-anchor="middle" x="51" y="-145.5" font-family="Helvetica,sans-Serif" font-size="10.00">RuntimeException</text>
</g>
<!-- Node3&#45;&gt;Node2 -->
<g id="edge2" class="edge"><title>Node3&#45;&gt;Node2</title>
<path fill="none" stroke="midnightblue" d="M62.8919,-129.938C71.8311,-117.112 83.7164,-100.059 90.838,-89.8411"/>
<polygon fill="midnightblue" stroke="midnightblue" points="59.8603,-128.166 57.0137,-138.372 65.6031,-132.169 59.8603,-128.166"/>
</g>
<!-- Node4 -->
<g id="node4" class="node"><title>Node4</title>
<polygon fill="white" stroke="#bfbfbf" points="120.5,-138.5 120.5,-157.5 165.5,-157.5 165.5,-138.5 120.5,-138.5"/>
<text text-anchor="middle" x="143" y="-145.5" font-family="Helvetica,sans-Serif" font-size="10.00">Stage</text>
</g>
<!-- Node4&#45;&gt;Node2 -->
<g id="edge3" class="edge"><title>Node4&#45;&gt;Node2</title>
<path fill="none" stroke="#9a32cd" stroke-dasharray="5,2" d="M131.108,-129.938C122.169,-117.112 110.284,-100.059 103.162,-89.8411"/>
<polygon fill="#9a32cd" stroke="#9a32cd" points="128.397,-132.169 136.986,-138.372 134.14,-128.166 128.397,-132.169"/>
<text text-anchor="middle" x="156" y="-111.5" font-family="Helvetica,sans-Serif" font-size="10.00"> popupStage</text>
</g>
</g>
</svg>
