<?xml version="1.0" encoding="UTF-8" standalone="no"?>
<!DOCTYPE svg PUBLIC "-//W3C//DTD SVG 1.1//EN"
 "http://www.w3.org/Graphics/SVG/1.1/DTD/svg11.dtd">
<!-- Generated by graphviz version 2.36.0 (20140111.2315)
 -->
<!-- Title: command.turtle.PenDownCommand.calculateValue Pages: 1 -->
<svg width="420pt" height="77pt"
 viewBox="0.00 0.00 420.00 77.00" xmlns="http://www.w3.org/2000/svg" xmlns:xlink="http://www.w3.org/1999/xlink">
<g id="graph0" class="graph" transform="scale(1 1) rotate(0) translate(4 73)">
<title>command.turtle.PenDownCommand.calculateValue</title>
<polygon fill="white" stroke="none" points="-4,4 -4,-73 416,-73 416,4 -4,4"/>
<!-- Node1 -->
<g id="node1" class="node"><title>Node1</title>
<polygon fill="#bfbfbf" stroke="black" points="0.5,-22 0.5,-52 237.5,-52 237.5,-22 0.5,-22"/>
<text text-anchor="start" x="8.5" y="-40" font-family="Helvetica,sans-Serif" font-size="10.00">command.turtle.PenDownCommand.calculate</text>
<text text-anchor="middle" x="119" y="-29" font-family="Helvetica,sans-Serif" font-size="10.00">Value</text>
</g>
<!-- Node2 -->
<g id="node2" class="node"><title>Node2</title>
<g id="a_node2"><a xlink:href="../../d6/d34/classmodel_1_1_turtle.html#a67661aa034ebab57b9f176d9d40891ae" target="_top" xlink:title="model.Turtle.setLine">
<polygon fill="white" stroke="black" points="286.5,-49.5 286.5,-68.5 399.5,-68.5 399.5,-49.5 286.5,-49.5"/>
<text text-anchor="middle" x="343" y="-56.5" font-family="Helvetica,sans-Serif" font-size="10.00">model.Turtle.setLine</text>
</a>
</g>
</g>
<!-- Node1&#45;&gt;Node2 -->
<g id="edge1" class="edge"><title>Node1&#45;&gt;Node2</title>
<path fill="none" stroke="midnightblue" d="M237.501,-48.6442C250.826,-49.9648 264.027,-51.2729 276.33,-52.4921"/>
<polygon fill="midnightblue" stroke="midnightblue" points="276.14,-55.9904 286.437,-53.4937 276.83,-49.0245 276.14,-55.9904"/>
</g>
<!-- Node3 -->
<g id="node3" class="node"><title>Node3</title>
<g id="a_node3"><a xlink:href="../../d6/d34/classmodel_1_1_turtle.html#ab69148692c7de79ad6c276902b81553a" target="_top" xlink:title="model.Turtle.updateTurtle\lViewers">
<polygon fill="white" stroke="black" points="274.5,-0 274.5,-30 411.5,-30 411.5,-0 274.5,-0"/>
<text text-anchor="start" x="282.5" y="-18" font-family="Helvetica,sans-Serif" font-size="10.00">model.Turtle.updateTurtle</text>
<text text-anchor="middle" x="343" y="-7" font-family="Helvetica,sans-Serif" font-size="10.00">Viewers</text>
</a>
</g>
</g>
<!-- Node1&#45;&gt;Node3 -->
<g id="edge2" class="edge"><title>Node1&#45;&gt;Node3</title>
<path fill="none" stroke="midnightblue" d="M237.501,-25.3558C246.546,-24.4594 255.533,-23.5688 264.222,-22.7078"/>
<polygon fill="midnightblue" stroke="midnightblue" points="264.663,-26.1813 274.269,-21.7121 263.973,-19.2154 264.663,-26.1813"/>
</g>
</g>
</svg>
