<?xml version="1.0" encoding="UTF-8" standalone="no"?>
<!DOCTYPE svg PUBLIC "-//W3C//DTD SVG 1.1//EN"
 "http://www.w3.org/Graphics/SVG/1.1/DTD/svg11.dtd">
<!-- Generated by graphviz version 2.36.0 (20140111.2315)
 -->
<!-- Title: controller.Controller.parseCommand Pages: 1 -->
<svg width="2674pt" height="88pt"
 viewBox="0.00 0.00 2674.00 88.00" xmlns="http://www.w3.org/2000/svg" xmlns:xlink="http://www.w3.org/1999/xlink">
<g id="graph0" class="graph" transform="scale(1 1) rotate(0) translate(4 84)">
<title>controller.Controller.parseCommand</title>
<polygon fill="white" stroke="none" points="-4,4 -4,-84 2670,-84 2670,4 -4,4"/>
<!-- Node1 -->
<g id="node1" class="node"><title>Node1</title>
<polygon fill="#bfbfbf" stroke="black" points="0,-36 0,-66 140,-66 140,-36 0,-36"/>
<text text-anchor="start" x="8" y="-54" font-family="Helvetica,sans-Serif" font-size="10.00">controller.Controller.parse</text>
<text text-anchor="middle" x="70" y="-43" font-family="Helvetica,sans-Serif" font-size="10.00">Command</text>
</g>
<!-- Node2 -->
<g id="node2" class="node"><title>Node2</title>
<g id="a_node2"><a xlink:href="../../d5/d06/classui_1_1_scene_updater.html#ab77a04f8b0038429b09237aac18906e8" target="_top" xlink:title="ui.SceneUpdater.sendCommands">
<polygon fill="white" stroke="black" points="176,-41.5 176,-60.5 354,-60.5 354,-41.5 176,-41.5"/>
<text text-anchor="middle" x="265" y="-48.5" font-family="Helvetica,sans-Serif" font-size="10.00">ui.SceneUpdater.sendCommands</text>
</a>
</g>
</g>
<!-- Node1&#45;&gt;Node2 -->
<g id="edge1" class="edge"><title>Node1&#45;&gt;Node2</title>
<path fill="none" stroke="midnightblue" d="M150.294,-51C158.713,-51 167.313,-51 175.825,-51"/>
<polygon fill="midnightblue" stroke="midnightblue" points="150.132,-47.5001 140.132,-51 150.132,-54.5001 150.132,-47.5001"/>
</g>
<!-- Node3 -->
<g id="node3" class="node"><title>Node3</title>
<g id="a_node3"><a xlink:href="../../dc/d3b/classui_1_1_g_u_i.html#ad8f08a79a20a498bcaafdc7e2e2ce0a9" target="_top" xlink:title="ui.GUI.parseCommand">
<polygon fill="white" stroke="black" points="390.5,-41.5 390.5,-60.5 515.5,-60.5 515.5,-41.5 390.5,-41.5"/>
<text text-anchor="middle" x="453" y="-48.5" font-family="Helvetica,sans-Serif" font-size="10.00">ui.GUI.parseCommand</text>
</a>
</g>
</g>
<!-- Node2&#45;&gt;Node3 -->
<g id="edge2" class="edge"><title>Node2&#45;&gt;Node3</title>
<path fill="none" stroke="midnightblue" d="M364.196,-51C373.132,-51 382.003,-51 390.479,-51"/>
<polygon fill="midnightblue" stroke="midnightblue" points="364.098,-47.5001 354.098,-51 364.098,-54.5001 364.098,-47.5001"/>
</g>
<!-- Node4 -->
<g id="node4" class="node"><title>Node4</title>
<g id="a_node4"><a xlink:href="../../d8/d3c/classui_1_1elements_1_1_i_o_element.html#a139a046f0c771f86696f2eee04047c64" target="_top" xlink:title="ui.elements.IOElement.init">
<polygon fill="white" stroke="black" points="568.5,-60.5 568.5,-79.5 711.5,-79.5 711.5,-60.5 568.5,-60.5"/>
<text text-anchor="middle" x="640" y="-67.5" font-family="Helvetica,sans-Serif" font-size="10.00">ui.elements.IOElement.init</text>
</a>
</g>
</g>
<!-- Node3&#45;&gt;Node4 -->
<g id="edge3" class="edge"><title>Node3&#45;&gt;Node4</title>
<path fill="none" stroke="midnightblue" d="M525.677,-58.3614C539.703,-59.8019 554.403,-61.3116 568.393,-62.7485"/>
<polygon fill="midnightblue" stroke="midnightblue" points="525.908,-54.8668 515.602,-57.3267 525.192,-61.8302 525.908,-54.8668"/>
</g>
<!-- Node6 -->
<g id="node6" class="node"><title>Node6</title>
<g id="a_node6"><a xlink:href="../../dc/d3b/classui_1_1_g_u_i.html#ab8ec2a37b3d5bd9e8c2abbb3642fb965" target="_top" xlink:title="ui.GUI.setupKeyboardCommands">
<polygon fill="white" stroke="black" points="552.5,-22.5 552.5,-41.5 727.5,-41.5 727.5,-22.5 552.5,-22.5"/>
<text text-anchor="middle" x="640" y="-29.5" font-family="Helvetica,sans-Serif" font-size="10.00">ui.GUI.setupKeyboardCommands</text>
</a>
</g>
</g>
<!-- Node3&#45;&gt;Node6 -->
<g id="edge5" class="edge"><title>Node3&#45;&gt;Node6</title>
<path fill="none" stroke="midnightblue" d="M525.694,-43.6368C534.41,-42.7417 543.385,-41.8199 552.289,-40.9054"/>
<polygon fill="midnightblue" stroke="midnightblue" points="525.192,-40.1698 515.602,-44.6733 525.908,-47.1332 525.192,-40.1698"/>
</g>
<!-- Node5 -->
<g id="node5" class="node"><title>Node5</title>
<g id="a_node5"><a xlink:href="../../d8/d3c/classui_1_1elements_1_1_i_o_element.html#a556e1a3ad292fe3ab731065eef59b187" target="_top" xlink:title="ui.elements.IOElement.IOElement">
<polygon fill="white" stroke="black" points="764,-60.5 764,-79.5 942,-79.5 942,-60.5 764,-60.5"/>
<text text-anchor="middle" x="853" y="-67.5" font-family="Helvetica,sans-Serif" font-size="10.00">ui.elements.IOElement.IOElement</text>
</a>
</g>
</g>
<!-- Node4&#45;&gt;Node5 -->
<g id="edge4" class="edge"><title>Node4&#45;&gt;Node5</title>
<path fill="none" stroke="midnightblue" d="M721.922,-70C735.652,-70 749.971,-70 763.876,-70"/>
<polygon fill="midnightblue" stroke="midnightblue" points="721.553,-66.5001 711.553,-70 721.553,-73.5001 721.553,-66.5001"/>
</g>
<!-- Node7 -->
<g id="node7" class="node"><title>Node7</title>
<g id="a_node7"><a xlink:href="../../dc/d3b/classui_1_1_g_u_i.html#a765d554102f38969231261686f2f8e27" target="_top" xlink:title="ui.GUI.initialize">
<polygon fill="white" stroke="black" points="810,-22.5 810,-41.5 896,-41.5 896,-22.5 810,-22.5"/>
<text text-anchor="middle" x="853" y="-29.5" font-family="Helvetica,sans-Serif" font-size="10.00">ui.GUI.initialize</text>
</a>
</g>
</g>
<!-- Node6&#45;&gt;Node7 -->
<g id="edge6" class="edge"><title>Node6&#45;&gt;Node7</title>
<path fill="none" stroke="midnightblue" d="M737.748,-32C763.016,-32 788.959,-32 809.724,-32"/>
<polygon fill="midnightblue" stroke="midnightblue" points="737.735,-28.5001 727.735,-32 737.735,-35.5001 737.735,-28.5001"/>
</g>
<!-- Node8 -->
<g id="node8" class="node"><title>Node8</title>
<g id="a_node8"><a xlink:href="../../d5/d06/classui_1_1_scene_updater.html#aeef5dd7a8ec2ad6179e33fdd71ea90d6" target="_top" xlink:title="ui.SceneUpdater.initGUI">
<polygon fill="white" stroke="black" points="978.5,-22.5 978.5,-41.5 1109.5,-41.5 1109.5,-22.5 978.5,-22.5"/>
<text text-anchor="middle" x="1044" y="-29.5" font-family="Helvetica,sans-Serif" font-size="10.00">ui.SceneUpdater.initGUI</text>
</a>
</g>
</g>
<!-- Node7&#45;&gt;Node8 -->
<g id="edge7" class="edge"><title>Node7&#45;&gt;Node8</title>
<path fill="none" stroke="midnightblue" d="M906.669,-32C928.921,-32 955.049,-32 978.446,-32"/>
<polygon fill="midnightblue" stroke="midnightblue" points="906.415,-28.5001 896.415,-32 906.415,-35.5001 906.415,-28.5001"/>
</g>
<!-- Node9 -->
<g id="node9" class="node"><title>Node9</title>
<g id="a_node9"><a xlink:href="../../d9/df7/classcontroller_1_1_controller.html#a57e42ba83ee2145e6262cd72eac59570" target="_top" xlink:title="controller.Controller.init">
<polygon fill="white" stroke="black" points="1146.5,-22.5 1146.5,-41.5 1273.5,-41.5 1273.5,-22.5 1146.5,-22.5"/>
<text text-anchor="middle" x="1210" y="-29.5" font-family="Helvetica,sans-Serif" font-size="10.00">controller.Controller.init</text>
</a>
</g>
</g>
<!-- Node8&#45;&gt;Node9 -->
<g id="edge8" class="edge"><title>Node8&#45;&gt;Node9</title>
<path fill="none" stroke="midnightblue" d="M1120.04,-32C1128.81,-32 1137.68,-32 1146.26,-32"/>
<polygon fill="midnightblue" stroke="midnightblue" points="1119.82,-28.5001 1109.82,-32 1119.82,-35.5001 1119.82,-28.5001"/>
</g>
<!-- Node10 -->
<g id="node10" class="node"><title>Node10</title>
<g id="a_node10"><a xlink:href="../../dd/df2/classmain_1_1_workspace_manager.html#abc818b59211f6e14940b86a42bb868d0" target="_top" xlink:title="main.WorkspaceManager.create\lWorkspace">
<polygon fill="white" stroke="black" points="1310,-17 1310,-47 1480,-47 1480,-17 1310,-17"/>
<text text-anchor="start" x="1318" y="-35" font-family="Helvetica,sans-Serif" font-size="10.00">main.WorkspaceManager.create</text>
<text text-anchor="middle" x="1395" y="-24" font-family="Helvetica,sans-Serif" font-size="10.00">Workspace</text>
</a>
</g>
</g>
<!-- Node9&#45;&gt;Node10 -->
<g id="edge9" class="edge"><title>Node9&#45;&gt;Node10</title>
<path fill="none" stroke="midnightblue" d="M1283.92,-32C1292.39,-32 1301.08,-32 1309.69,-32"/>
<polygon fill="midnightblue" stroke="midnightblue" points="1283.72,-28.5001 1273.72,-32 1283.72,-35.5001 1283.72,-28.5001"/>
</g>
<!-- Node11 -->
<g id="node11" class="node"><title>Node11</title>
<g id="a_node11"><a xlink:href="../../d9/df7/classcontroller_1_1_controller.html#a3a9d672bb57047df70945ad1a9582c9a" target="_top" xlink:title="controller.Controller.create\lNewWorkspace">
<polygon fill="white" stroke="black" points="1516.5,-39 1516.5,-69 1659.5,-69 1659.5,-39 1516.5,-39"/>
<text text-anchor="start" x="1524.5" y="-57" font-family="Helvetica,sans-Serif" font-size="10.00">controller.Controller.create</text>
<text text-anchor="middle" x="1588" y="-46" font-family="Helvetica,sans-Serif" font-size="10.00">NewWorkspace</text>
</a>
</g>
</g>
<!-- Node10&#45;&gt;Node11 -->
<g id="edge10" class="edge"><title>Node10&#45;&gt;Node11</title>
<path fill="none" stroke="midnightblue" d="M1490.03,-42.8303C1498.88,-43.8503 1507.75,-44.8721 1516.34,-45.8608"/>
<polygon fill="midnightblue" stroke="midnightblue" points="1490.39,-39.3489 1480.05,-41.6815 1489.59,-46.3029 1490.39,-39.3489"/>
</g>
<!-- Node17 -->
<g id="node17" class="node"><title>Node17</title>
<g id="a_node17"><a xlink:href="../../d1/d0b/classmain_1_1_main.html#a9f1e5657b2f6f9bdd69a3b6412ceda74" target="_top" xlink:title="main.Main.start">
<polygon fill="white" stroke="black" points="1542,-0.5 1542,-19.5 1634,-19.5 1634,-0.5 1542,-0.5"/>
<text text-anchor="middle" x="1588" y="-7.5" font-family="Helvetica,sans-Serif" font-size="10.00">main.Main.start</text>
</a>
</g>
</g>
<!-- Node10&#45;&gt;Node17 -->
<g id="edge16" class="edge"><title>Node10&#45;&gt;Node17</title>
<path fill="none" stroke="midnightblue" d="M1490.09,-21.1629C1508.19,-19.0779 1526.36,-16.9851 1541.99,-15.1843"/>
<polygon fill="midnightblue" stroke="midnightblue" points="1489.59,-17.6971 1480.05,-22.3185 1490.39,-24.6511 1489.59,-17.6971"/>
</g>
<!-- Node12 -->
<g id="node12" class="node"><title>Node12</title>
<g id="a_node12"><a xlink:href="../../d5/d06/classui_1_1_scene_updater.html#a2858ad8edb0c0f59a21e2ae015f2fa1e" target="_top" xlink:title="ui.SceneUpdater.createNew\lWorkspace">
<polygon fill="white" stroke="black" points="1696,-39 1696,-69 1846,-69 1846,-39 1696,-39"/>
<text text-anchor="start" x="1704" y="-57" font-family="Helvetica,sans-Serif" font-size="10.00">ui.SceneUpdater.createNew</text>
<text text-anchor="middle" x="1771" y="-46" font-family="Helvetica,sans-Serif" font-size="10.00">Workspace</text>
</a>
</g>
</g>
<!-- Node11&#45;&gt;Node12 -->
<g id="edge11" class="edge"><title>Node11&#45;&gt;Node12</title>
<path fill="none" stroke="midnightblue" d="M1669.8,-54C1678.43,-54 1687.17,-54 1695.71,-54"/>
<polygon fill="midnightblue" stroke="midnightblue" points="1669.76,-50.5001 1659.76,-54 1669.76,-57.5001 1669.76,-50.5001"/>
</g>
<!-- Node13 -->
<g id="node13" class="node"><title>Node13</title>
<g id="a_node13"><a xlink:href="../../dc/d3b/classui_1_1_g_u_i.html#a2edc294ba07311e6c4b85c9fe749d1bf" target="_top" xlink:title="ui.GUI.createNewWorkspace">
<polygon fill="white" stroke="black" points="1882,-44.5 1882,-63.5 2032,-63.5 2032,-44.5 1882,-44.5"/>
<text text-anchor="middle" x="1957" y="-51.5" font-family="Helvetica,sans-Serif" font-size="10.00">ui.GUI.createNewWorkspace</text>
</a>
</g>
</g>
<!-- Node12&#45;&gt;Node13 -->
<g id="edge12" class="edge"><title>Node12&#45;&gt;Node13</title>
<path fill="none" stroke="midnightblue" d="M1856.07,-54C1864.65,-54 1873.34,-54 1881.81,-54"/>
<polygon fill="midnightblue" stroke="midnightblue" points="1856.04,-50.5001 1846.04,-54 1856.04,-57.5001 1856.04,-50.5001"/>
</g>
<!-- Node14 -->
<g id="node14" class="node"><title>Node14</title>
<g id="a_node14"><a xlink:href="../../d0/de6/classui_1_1elements_1_1_menu_bar_element.html#a98c13995a31d997aa10f2950583da6cc" target="_top" xlink:title="ui.elements.MenuBarElement.make\lMenuBar">
<polygon fill="white" stroke="black" points="2068,-39 2068,-69 2256,-69 2256,-39 2068,-39"/>
<text text-anchor="start" x="2076" y="-57" font-family="Helvetica,sans-Serif" font-size="10.00">ui.elements.MenuBarElement.make</text>
<text text-anchor="middle" x="2162" y="-46" font-family="Helvetica,sans-Serif" font-size="10.00">MenuBar</text>
</a>
</g>
</g>
<!-- Node13&#45;&gt;Node14 -->
<g id="edge13" class="edge"><title>Node13&#45;&gt;Node14</title>
<path fill="none" stroke="midnightblue" d="M2042.28,-54C2050.66,-54 2059.21,-54 2067.68,-54"/>
<polygon fill="midnightblue" stroke="midnightblue" points="2042.15,-50.5001 2032.15,-54 2042.15,-57.5001 2042.15,-50.5001"/>
</g>
<!-- Node15 -->
<g id="node15" class="node"><title>Node15</title>
<g id="a_node15"><a xlink:href="../../d0/de6/classui_1_1elements_1_1_menu_bar_element.html#a7bdb58f78cf8b61ba28498c5c86ab682" target="_top" xlink:title="ui.elements.MenuBarElement.init">
<polygon fill="white" stroke="black" points="2292,-44.5 2292,-63.5 2468,-63.5 2468,-44.5 2292,-44.5"/>
<text text-anchor="middle" x="2380" y="-51.5" font-family="Helvetica,sans-Serif" font-size="10.00">ui.elements.MenuBarElement.init</text>
</a>
</g>
</g>
<!-- Node14&#45;&gt;Node15 -->
<g id="edge14" class="edge"><title>Node14&#45;&gt;Node15</title>
<path fill="none" stroke="midnightblue" d="M2266.23,-54C2274.83,-54 2283.48,-54 2291.94,-54"/>
<polygon fill="midnightblue" stroke="midnightblue" points="2266.17,-50.5001 2256.17,-54 2266.17,-57.5001 2266.17,-50.5001"/>
</g>
<!-- Node16 -->
<g id="node16" class="node"><title>Node16</title>
<g id="a_node16"><a xlink:href="../../d0/de6/classui_1_1elements_1_1_menu_bar_element.html#ab4a4e6841c924a9d9c70b8073b56dffc" target="_top" xlink:title="ui.elements.MenuBarElement.\lMenuBarElement">
<polygon fill="white" stroke="black" points="2504.5,-39 2504.5,-69 2665.5,-69 2665.5,-39 2504.5,-39"/>
<text text-anchor="start" x="2512.5" y="-57" font-family="Helvetica,sans-Serif" font-size="10.00">ui.elements.MenuBarElement.</text>
<text text-anchor="middle" x="2585" y="-46" font-family="Helvetica,sans-Serif" font-size="10.00">MenuBarElement</text>
</a>
</g>
</g>
<!-- Node15&#45;&gt;Node16 -->
<g id="edge15" class="edge"><title>Node15&#45;&gt;Node16</title>
<path fill="none" stroke="midnightblue" d="M2478.47,-54C2487.19,-54 2495.95,-54 2504.5,-54"/>
<polygon fill="midnightblue" stroke="midnightblue" points="2478.27,-50.5001 2468.27,-54 2478.27,-57.5001 2478.27,-50.5001"/>
</g>
</g>
</svg>
