<?xml version="1.0" encoding="UTF-8" standalone="no"?>
<!DOCTYPE svg PUBLIC "-//W3C//DTD SVG 1.1//EN"
 "http://www.w3.org/Graphics/SVG/1.1/DTD/svg11.dtd">
<!-- Generated by graphviz version 2.36.0 (20140111.2315)
 -->
<!-- Title: controller.Controller.parseCommand Pages: 1 -->
<svg width="1058pt" height="728pt"
 viewBox="0.00 0.00 1058.00 728.00" xmlns="http://www.w3.org/2000/svg" xmlns:xlink="http://www.w3.org/1999/xlink">
<g id="graph0" class="graph" transform="scale(1 1) rotate(0) translate(4 724)">
<title>controller.Controller.parseCommand</title>
<polygon fill="white" stroke="none" points="-4,4 -4,-724 1054,-724 1054,4 -4,4"/>
<!-- Node1 -->
<g id="node1" class="node"><title>Node1</title>
<polygon fill="#bfbfbf" stroke="black" points="0,-225 0,-255 140,-255 140,-225 0,-225"/>
<text text-anchor="start" x="8" y="-243" font-family="Helvetica,sans-Serif" font-size="10.00">controller.Controller.parse</text>
<text text-anchor="middle" x="70" y="-232" font-family="Helvetica,sans-Serif" font-size="10.00">Command</text>
</g>
<!-- Node2 -->
<g id="node2" class="node"><title>Node2</title>
<g id="a_node2"><a xlink:href="../../d5/d06/classui_1_1_scene_updater.html#ac93c2b014447efef3a09141521fb4d9e" target="_top" xlink:title="ui.SceneUpdater.addCommand\lHistory">
<polygon fill="white" stroke="black" points="184.5,-494 184.5,-524 351.5,-524 351.5,-494 184.5,-494"/>
<text text-anchor="start" x="192.5" y="-512" font-family="Helvetica,sans-Serif" font-size="10.00">ui.SceneUpdater.addCommand</text>
<text text-anchor="middle" x="268" y="-501" font-family="Helvetica,sans-Serif" font-size="10.00">History</text>
</a>
</g>
</g>
<!-- Node1&#45;&gt;Node2 -->
<g id="edge1" class="edge"><title>Node1&#45;&gt;Node2</title>
<path fill="none" stroke="midnightblue" d="M82.0994,-255.233C114.778,-300.083 210.803,-431.873 250.021,-485.698"/>
<polygon fill="midnightblue" stroke="midnightblue" points="247.305,-487.913 256.022,-493.934 252.962,-483.79 247.305,-487.913"/>
</g>
<!-- Node6 -->
<g id="node6" class="node"><title>Node6</title>
<g id="a_node6"><a xlink:href="../../d0/d05/classparser_1_1_tree_generator.html#acf44e3a80bec76756c2bb09124dc4c8d" target="_top" xlink:title="parser.TreeGenerator.create\lCommands">
<polygon fill="white" stroke="black" points="192.5,-330 192.5,-360 343.5,-360 343.5,-330 192.5,-330"/>
<text text-anchor="start" x="200.5" y="-348" font-family="Helvetica,sans-Serif" font-size="10.00">parser.TreeGenerator.create</text>
<text text-anchor="middle" x="268" y="-337" font-family="Helvetica,sans-Serif" font-size="10.00">Commands</text>
</a>
</g>
</g>
<!-- Node1&#45;&gt;Node6 -->
<g id="edge5" class="edge"><title>Node1&#45;&gt;Node6</title>
<path fill="none" stroke="midnightblue" d="M99.082,-255.044C133.431,-273.445 191.69,-304.656 229.755,-325.047"/>
<polygon fill="midnightblue" stroke="midnightblue" points="228.502,-328.347 238.97,-329.984 231.808,-322.177 228.502,-328.347"/>
</g>
<!-- Node19 -->
<g id="node19" class="node"><title>Node19</title>
<g id="a_node19"><a xlink:href="../../d0/d05/classparser_1_1_tree_generator.html#a6b0c994d90d372250a24f81f439de007" target="_top" xlink:title="parser.TreeGenerator.get\lMethodsList">
<polygon fill="white" stroke="black" points="200,-250 200,-280 336,-280 336,-250 200,-250"/>
<text text-anchor="start" x="208" y="-268" font-family="Helvetica,sans-Serif" font-size="10.00">parser.TreeGenerator.get</text>
<text text-anchor="middle" x="268" y="-257" font-family="Helvetica,sans-Serif" font-size="10.00">MethodsList</text>
</a>
</g>
</g>
<!-- Node1&#45;&gt;Node19 -->
<g id="edge19" class="edge"><title>Node1&#45;&gt;Node19</title>
<path fill="none" stroke="midnightblue" d="M140.102,-248.814C156.166,-250.863 173.367,-253.057 189.757,-255.148"/>
<polygon fill="midnightblue" stroke="midnightblue" points="189.477,-258.64 199.839,-256.434 190.363,-251.696 189.477,-258.64"/>
</g>
<!-- Node21 -->
<g id="node21" class="node"><title>Node21</title>
<g id="a_node21"><a xlink:href="../../dc/d9e/classparser_1_1_command_tree_node.html#aea6176c10780becfc79a23924bb6fdc2" target="_top" xlink:title="parser.CommandTreeNode.get\lValue">
<polygon fill="white" stroke="black" points="186,-201 186,-231 350,-231 350,-201 186,-201"/>
<text text-anchor="start" x="194" y="-219" font-family="Helvetica,sans-Serif" font-size="10.00">parser.CommandTreeNode.get</text>
<text text-anchor="middle" x="268" y="-208" font-family="Helvetica,sans-Serif" font-size="10.00">Value</text>
</a>
</g>
</g>
<!-- Node1&#45;&gt;Node21 -->
<g id="edge21" class="edge"><title>Node1&#45;&gt;Node21</title>
<path fill="none" stroke="midnightblue" d="M140.102,-231.538C151.64,-230.126 163.765,-228.641 175.755,-227.173"/>
<polygon fill="midnightblue" stroke="midnightblue" points="176.278,-230.635 185.778,-225.946 175.427,-223.687 176.278,-230.635"/>
</g>
<!-- Node22 -->
<g id="node22" class="node"><title>Node22</title>
<g id="a_node22"><a xlink:href="../../d9/d88/classmodel_1_1_tree_interpreter.html#a501df6b8cfe1a8175a9da0ed96d30d6f" target="_top" xlink:title="model.TreeInterpreter.interpretTree">
<polygon fill="white" stroke="black" points="176.5,-162.5 176.5,-181.5 359.5,-181.5 359.5,-162.5 176.5,-162.5"/>
<text text-anchor="middle" x="268" y="-169.5" font-family="Helvetica,sans-Serif" font-size="10.00">model.TreeInterpreter.interpretTree</text>
</a>
</g>
</g>
<!-- Node1&#45;&gt;Node22 -->
<g id="edge22" class="edge"><title>Node1&#45;&gt;Node22</title>
<path fill="none" stroke="midnightblue" d="M98.7966,-224.869C119.554,-214.109 148.896,-200.019 176,-191 184.035,-188.326 192.599,-185.951 201.137,-183.863"/>
<polygon fill="midnightblue" stroke="midnightblue" points="202.168,-187.217 211.116,-181.544 200.583,-180.398 202.168,-187.217"/>
</g>
<!-- Node32 -->
<g id="node32" class="node"><title>Node32</title>
<g id="a_node32"><a xlink:href="../../d5/d06/classui_1_1_scene_updater.html#ab8b88b95b646266ee4a8ef3d77e4c3e3" target="_top" xlink:title="ui.SceneUpdater.setOutputText">
<polygon fill="white" stroke="black" points="185,-77.5 185,-96.5 351,-96.5 351,-77.5 185,-77.5"/>
<text text-anchor="middle" x="268" y="-84.5" font-family="Helvetica,sans-Serif" font-size="10.00">ui.SceneUpdater.setOutputText</text>
</a>
</g>
</g>
<!-- Node1&#45;&gt;Node32 -->
<g id="edge37" class="edge"><title>Node1&#45;&gt;Node32</title>
<path fill="none" stroke="midnightblue" d="M88.5513,-224.868C109.175,-207.226 144.574,-177.375 176,-153 199.06,-135.114 226.228,-115.605 244.838,-102.471"/>
<polygon fill="midnightblue" stroke="midnightblue" points="247.063,-105.185 253.231,-96.5706 243.037,-99.4587 247.063,-105.185"/>
</g>
<!-- Node3 -->
<g id="node3" class="node"><title>Node3</title>
<g id="a_node3"><a xlink:href="../../dc/d3b/classui_1_1_g_u_i.html#a3c16c78e8d953dbf8ef41113ca03621e" target="_top" xlink:title="ui.GUI.addCommandHistory">
<polygon fill="white" stroke="black" points="421,-615.5 421,-634.5 571,-634.5 571,-615.5 421,-615.5"/>
<text text-anchor="middle" x="496" y="-622.5" font-family="Helvetica,sans-Serif" font-size="10.00">ui.GUI.addCommandHistory</text>
</a>
</g>
</g>
<!-- Node2&#45;&gt;Node3 -->
<g id="edge2" class="edge"><title>Node2&#45;&gt;Node3</title>
<path fill="none" stroke="midnightblue" d="M298.546,-524.165C342.484,-546.717 424.456,-588.792 467.3,-610.782"/>
<polygon fill="midnightblue" stroke="midnightblue" points="465.821,-613.957 476.316,-615.41 469.018,-607.73 465.821,-613.957"/>
</g>
<!-- Node4 -->
<g id="node4" class="node"><title>Node4</title>
<g id="a_node4"><a xlink:href="../../d6/dd8/classui_1_1elements_1_1_info_element.html#aa14d00daf19b5c3d7cd792c2590f23b3" target="_top" xlink:title="ui.elements.InfoElement.set\lBindCommandList">
<polygon fill="white" stroke="black" points="650.5,-690 650.5,-720 801.5,-720 801.5,-690 650.5,-690"/>
<text text-anchor="start" x="658.5" y="-708" font-family="Helvetica,sans-Serif" font-size="10.00">ui.elements.InfoElement.set</text>
<text text-anchor="middle" x="726" y="-697" font-family="Helvetica,sans-Serif" font-size="10.00">BindCommandList</text>
</a>
</g>
</g>
<!-- Node3&#45;&gt;Node4 -->
<g id="edge3" class="edge"><title>Node3&#45;&gt;Node4</title>
<path fill="none" stroke="midnightblue" d="M518.201,-634.597C544.529,-646.291 590.985,-666.192 632,-680 639.353,-682.476 647.096,-684.875 654.847,-687.145"/>
<polygon fill="midnightblue" stroke="midnightblue" points="654.062,-690.561 664.639,-689.946 655.987,-683.831 654.062,-690.561"/>
</g>
<!-- Node5 -->
<g id="node5" class="node"><title>Node5</title>
<g id="a_node5"><a xlink:href="../../d6/dd8/classui_1_1elements_1_1_info_element.html#a54dbeca14ae734678154142637d3c4ab" target="_top" xlink:title="ui.elements.InfoElement.update">
<polygon fill="white" stroke="black" points="868,-695.5 868,-714.5 1038,-714.5 1038,-695.5 868,-695.5"/>
<text text-anchor="middle" x="953" y="-702.5" font-family="Helvetica,sans-Serif" font-size="10.00">ui.elements.InfoElement.update</text>
</a>
</g>
</g>
<!-- Node4&#45;&gt;Node5 -->
<g id="edge4" class="edge"><title>Node4&#45;&gt;Node5</title>
<path fill="none" stroke="midnightblue" d="M801.609,-705C819.609,-705 839.074,-705 857.84,-705"/>
<polygon fill="midnightblue" stroke="midnightblue" points="857.877,-708.5 867.877,-705 857.877,-701.5 857.877,-708.5"/>
</g>
<!-- Node7 -->
<g id="node7" class="node"><title>Node7</title>
<g id="a_node7"><a xlink:href="../../d0/d05/classparser_1_1_tree_generator.html#a6c5a626cea851fb68c59f83a27ab56a5" target="_top" xlink:title="parser.TreeGenerator.create\lHandlerMap">
<polygon fill="white" stroke="black" points="420.5,-330 420.5,-360 571.5,-360 571.5,-330 420.5,-330"/>
<text text-anchor="start" x="428.5" y="-348" font-family="Helvetica,sans-Serif" font-size="10.00">parser.TreeGenerator.create</text>
<text text-anchor="middle" x="496" y="-337" font-family="Helvetica,sans-Serif" font-size="10.00">HandlerMap</text>
</a>
</g>
</g>
<!-- Node6&#45;&gt;Node7 -->
<g id="edge6" class="edge"><title>Node6&#45;&gt;Node7</title>
<path fill="none" stroke="midnightblue" d="M343.627,-345C364.938,-345 388.315,-345 410.187,-345"/>
<polygon fill="midnightblue" stroke="midnightblue" points="410.451,-348.5 420.451,-345 410.451,-341.5 410.451,-348.5"/>
</g>
<!-- Node9 -->
<g id="node9" class="node"><title>Node9</title>
<g id="a_node9"><a xlink:href="../../d5/d30/classparser_1_1_command_case.html#a309ba0623929f8d96219c98de00023b0" target="_top" xlink:title="parser.CommandCase.initialize">
<polygon fill="white" stroke="black" points="413.5,-435.5 413.5,-454.5 578.5,-454.5 578.5,-435.5 413.5,-435.5"/>
<text text-anchor="middle" x="496" y="-442.5" font-family="Helvetica,sans-Serif" font-size="10.00">parser.CommandCase.initialize</text>
</a>
</g>
</g>
<!-- Node6&#45;&gt;Node9 -->
<g id="edge8" class="edge"><title>Node6&#45;&gt;Node9</title>
<path fill="none" stroke="midnightblue" d="M303.325,-360.188C347.086,-379.551 422.099,-412.743 464.135,-431.343"/>
<polygon fill="midnightblue" stroke="midnightblue" points="462.766,-434.564 473.327,-435.41 465.598,-428.163 462.766,-434.564"/>
</g>
<!-- Node17 -->
<g id="node17" class="node"><title>Node17</title>
<g id="a_node17"><a xlink:href="../../d5/d30/classparser_1_1_command_case.html#a416a33e71d0a91f9d167980ff9779119" target="_top" xlink:title="parser.CommandCase.getRoot">
<polygon fill="white" stroke="black" points="414,-473.5 414,-492.5 578,-492.5 578,-473.5 414,-473.5"/>
<text text-anchor="middle" x="496" y="-480.5" font-family="Helvetica,sans-Serif" font-size="10.00">parser.CommandCase.getRoot</text>
</a>
</g>
</g>
<!-- Node6&#45;&gt;Node17 -->
<g id="edge17" class="edge"><title>Node6&#45;&gt;Node17</title>
<path fill="none" stroke="midnightblue" d="M280.408,-360.269C300.62,-386.122 345.387,-438.211 396,-464 400.656,-466.372 405.573,-468.45 410.626,-470.269"/>
<polygon fill="midnightblue" stroke="midnightblue" points="409.888,-473.709 420.48,-473.458 412.044,-467.049 409.888,-473.709"/>
</g>
<!-- Node18 -->
<g id="node18" class="node"><title>Node18</title>
<g id="a_node18"><a xlink:href="../../dc/d9e/classparser_1_1_command_tree_node.html#a73e4ab6ebca47d41b993f0e66ee4c8d2" target="_top" xlink:title="parser.CommandTreeNode.getName">
<polygon fill="white" stroke="black" points="856.5,-295.5 856.5,-314.5 1049.5,-314.5 1049.5,-295.5 856.5,-295.5"/>
<text text-anchor="middle" x="953" y="-302.5" font-family="Helvetica,sans-Serif" font-size="10.00">parser.CommandTreeNode.getName</text>
</a>
</g>
</g>
<!-- Node6&#45;&gt;Node18 -->
<g id="edge18" class="edge"><title>Node6&#45;&gt;Node18</title>
<path fill="none" stroke="midnightblue" d="M334.264,-329.98C353.994,-326.028 375.787,-322.246 396,-320 551.887,-302.677 733.789,-301.298 845.938,-302.604"/>
<polygon fill="midnightblue" stroke="midnightblue" points="846.191,-306.108 856.234,-302.734 846.279,-299.108 846.191,-306.108"/>
</g>
<!-- Node8 -->
<g id="node8" class="node"><title>Node8</title>
<g id="a_node8"><a xlink:href="../../d0/d22/classutil_1_1_pattern_mapper.html#a257efa051dc3d89b728922a22901fb7d" target="_top" xlink:title="util.PatternMapper.makePatterns">
<polygon fill="white" stroke="black" points="639.5,-329.5 639.5,-348.5 812.5,-348.5 812.5,-329.5 639.5,-329.5"/>
<text text-anchor="middle" x="726" y="-336.5" font-family="Helvetica,sans-Serif" font-size="10.00">util.PatternMapper.makePatterns</text>
</a>
</g>
</g>
<!-- Node7&#45;&gt;Node8 -->
<g id="edge7" class="edge"><title>Node7&#45;&gt;Node8</title>
<path fill="none" stroke="midnightblue" d="M571.656,-343.035C590.125,-342.549 610.165,-342.022 629.477,-341.514"/>
<polygon fill="midnightblue" stroke="midnightblue" points="629.594,-345.012 639.498,-341.25 629.41,-338.014 629.594,-345.012"/>
</g>
<!-- Node9&#45;&gt;Node8 -->
<g id="edge9" class="edge"><title>Node9&#45;&gt;Node8</title>
<path fill="none" stroke="midnightblue" d="M508.449,-435.477C530.742,-417.445 582.166,-378.31 632,-358 638.357,-355.409 645.108,-353.159 651.955,-351.206"/>
<polygon fill="midnightblue" stroke="midnightblue" points="653.245,-354.486 662.023,-348.553 651.462,-347.717 653.245,-354.486"/>
</g>
<!-- Node10 -->
<g id="node10" class="node"><title>Node10</title>
<g id="a_node10"><a xlink:href="../../d5/d30/classparser_1_1_command_case.html#a9afa1f06d36261ade7169970904fabee" target="_top" xlink:title="parser.CommandCase.useResource\lBundle">
<polygon fill="white" stroke="black" points="632,-641 632,-671 820,-671 820,-641 632,-641"/>
<text text-anchor="start" x="640" y="-659" font-family="Helvetica,sans-Serif" font-size="10.00">parser.CommandCase.useResource</text>
<text text-anchor="middle" x="726" y="-648" font-family="Helvetica,sans-Serif" font-size="10.00">Bundle</text>
</a>
</g>
</g>
<!-- Node9&#45;&gt;Node10 -->
<g id="edge10" class="edge"><title>Node9&#45;&gt;Node10</title>
<path fill="none" stroke="midnightblue" d="M578.813,-452.302C585.135,-455.278 590.994,-459.106 596,-464 650.295,-517.076 579.678,-575.979 632,-631 633.267,-632.333 634.597,-633.597 635.983,-634.796"/>
<polygon fill="midnightblue" stroke="midnightblue" points="634.322,-637.917 644.464,-640.979 638.445,-632.26 634.322,-637.917"/>
</g>
<!-- Node11 -->
<g id="node11" class="node"><title>Node11</title>
<g id="a_node11"><a xlink:href="../../d9/dc0/interfaceparser_1_1_tree_wrapper.html#abf33b5a3ce13b389b9f69be49b18b998" target="_top" xlink:title="parser.TreeWrapper.getIndex">
<polygon fill="white" stroke="black" points="650,-602.5 650,-621.5 802,-621.5 802,-602.5 650,-602.5"/>
<text text-anchor="middle" x="726" y="-609.5" font-family="Helvetica,sans-Serif" font-size="10.00">parser.TreeWrapper.getIndex</text>
</a>
</g>
</g>
<!-- Node9&#45;&gt;Node11 -->
<g id="edge11" class="edge"><title>Node9&#45;&gt;Node11</title>
<path fill="none" stroke="midnightblue" d="M578.973,-452.857C585.182,-455.73 590.974,-459.382 596,-464 639.516,-503.984 588.931,-551.535 632,-592 634.669,-594.507 637.573,-596.73 640.651,-598.699"/>
<polygon fill="midnightblue" stroke="midnightblue" points="639.276,-601.934 649.739,-603.602 642.6,-595.774 639.276,-601.934"/>
</g>
<!-- Node12 -->
<g id="node12" class="node"><title>Node12</title>
<g id="a_node12"><a xlink:href="../../d5/d30/classparser_1_1_command_case.html#a37b719ff1e44b8c2539ec8a3d3dec65e" target="_top" xlink:title="parser.CommandCase.obtain\lSubCommand">
<polygon fill="white" stroke="black" points="647.5,-553 647.5,-583 804.5,-583 804.5,-553 647.5,-553"/>
<text text-anchor="start" x="655.5" y="-571" font-family="Helvetica,sans-Serif" font-size="10.00">parser.CommandCase.obtain</text>
<text text-anchor="middle" x="726" y="-560" font-family="Helvetica,sans-Serif" font-size="10.00">SubCommand</text>
</a>
</g>
</g>
<!-- Node9&#45;&gt;Node12 -->
<g id="edge12" class="edge"><title>Node9&#45;&gt;Node12</title>
<path fill="none" stroke="midnightblue" d="M578.731,-453.925C584.916,-456.58 590.772,-459.889 596,-464 626.329,-487.852 602.561,-518.057 632,-543 634.009,-544.702 636.123,-546.29 638.321,-547.77"/>
<polygon fill="midnightblue" stroke="midnightblue" points="636.778,-550.923 647.174,-552.965 640.321,-544.885 636.778,-550.923"/>
</g>
<!-- Node13 -->
<g id="node13" class="node"><title>Node13</title>
<g id="a_node13"><a xlink:href="../../d5/d30/classparser_1_1_command_case.html#a7c49338f11e46369db6a009f6a07a837" target="_top" xlink:title="parser.CommandCase.obtain\lNumParams">
<polygon fill="white" stroke="black" points="647.5,-504 647.5,-534 804.5,-534 804.5,-504 647.5,-504"/>
<text text-anchor="start" x="655.5" y="-522" font-family="Helvetica,sans-Serif" font-size="10.00">parser.CommandCase.obtain</text>
<text text-anchor="middle" x="726" y="-511" font-family="Helvetica,sans-Serif" font-size="10.00">NumParams</text>
</a>
</g>
</g>
<!-- Node9&#45;&gt;Node13 -->
<g id="edge13" class="edge"><title>Node9&#45;&gt;Node13</title>
<path fill="none" stroke="midnightblue" d="M569.736,-454.548C578.806,-457.01 587.775,-460.106 596,-464 614.824,-472.912 613.514,-484.407 632,-494 636.522,-496.346 641.284,-498.488 646.166,-500.441"/>
<polygon fill="midnightblue" stroke="midnightblue" points="645.078,-503.771 655.671,-503.968 647.513,-497.208 645.078,-503.771"/>
</g>
<!-- Node14 -->
<g id="node14" class="node"><title>Node14</title>
<g id="a_node14"><a xlink:href="../../d9/dc0/interfaceparser_1_1_tree_wrapper.html#a593548eb4ae82f686022f08f45908a1d" target="_top" xlink:title="parser.TreeWrapper.print\lTestStatements">
<polygon fill="white" stroke="black" points="660,-455 660,-485 792,-485 792,-455 660,-455"/>
<text text-anchor="start" x="668" y="-473" font-family="Helvetica,sans-Serif" font-size="10.00">parser.TreeWrapper.print</text>
<text text-anchor="middle" x="726" y="-462" font-family="Helvetica,sans-Serif" font-size="10.00">TestStatements</text>
</a>
</g>
</g>
<!-- Node9&#45;&gt;Node14 -->
<g id="edge14" class="edge"><title>Node9&#45;&gt;Node14</title>
<path fill="none" stroke="midnightblue" d="M578.669,-453.955C601.932,-456.506 627.153,-459.271 649.999,-461.776"/>
<polygon fill="midnightblue" stroke="midnightblue" points="649.649,-465.259 659.971,-462.87 650.412,-458.3 649.649,-465.259"/>
</g>
<!-- Node15 -->
<g id="node15" class="node"><title>Node15</title>
<g id="a_node15"><a xlink:href="../../d9/dc0/interfaceparser_1_1_tree_wrapper.html#a251d9d9bb7c3ea34688bfa30cc465270" target="_top" xlink:title="parser.TreeWrapper.increment\lIndex">
<polygon fill="white" stroke="black" points="646.5,-406 646.5,-436 805.5,-436 805.5,-406 646.5,-406"/>
<text text-anchor="start" x="654.5" y="-424" font-family="Helvetica,sans-Serif" font-size="10.00">parser.TreeWrapper.increment</text>
<text text-anchor="middle" x="726" y="-413" font-family="Helvetica,sans-Serif" font-size="10.00">Index</text>
</a>
</g>
</g>
<!-- Node9&#45;&gt;Node15 -->
<g id="edge15" class="edge"><title>Node9&#45;&gt;Node15</title>
<path fill="none" stroke="midnightblue" d="M578.669,-436.403C597.299,-434.442 617.184,-432.349 636.099,-430.358"/>
<polygon fill="midnightblue" stroke="midnightblue" points="636.612,-433.823 646.191,-429.296 635.88,-426.862 636.612,-433.823"/>
</g>
<!-- Node16 -->
<g id="node16" class="node"><title>Node16</title>
<g id="a_node16"><a xlink:href="../../d9/dc0/interfaceparser_1_1_tree_wrapper.html#a48f9f037c84b1fecfdefcb3268640f88" target="_top" xlink:title="parser.TreeWrapper.recurse">
<polygon fill="white" stroke="black" points="653,-367.5 653,-386.5 799,-386.5 799,-367.5 653,-367.5"/>
<text text-anchor="middle" x="726" y="-374.5" font-family="Helvetica,sans-Serif" font-size="10.00">parser.TreeWrapper.recurse</text>
</a>
</g>
</g>
<!-- Node9&#45;&gt;Node16 -->
<g id="edge16" class="edge"><title>Node9&#45;&gt;Node16</title>
<path fill="none" stroke="midnightblue" d="M521.081,-435.367C547.849,-424.912 592.518,-408.213 632,-397 642.582,-393.995 653.953,-391.199 664.987,-388.708"/>
<polygon fill="midnightblue" stroke="midnightblue" points="665.977,-392.074 674.993,-386.508 664.474,-385.237 665.977,-392.074"/>
</g>
<!-- Node20 -->
<g id="node20" class="node"><title>Node20</title>
<g id="a_node20"><a xlink:href="../../d5/d30/classparser_1_1_command_case.html#a0a36df1183543407fec197f435a5ba2c" target="_top" xlink:title="parser.CommandCase.getMethodsList">
<polygon fill="white" stroke="black" points="396,-253.5 396,-272.5 596,-272.5 596,-253.5 396,-253.5"/>
<text text-anchor="middle" x="496" y="-260.5" font-family="Helvetica,sans-Serif" font-size="10.00">parser.CommandCase.getMethodsList</text>
</a>
</g>
</g>
<!-- Node19&#45;&gt;Node20 -->
<g id="edge20" class="edge"><title>Node19&#45;&gt;Node20</title>
<path fill="none" stroke="midnightblue" d="M336.196,-264.405C351.712,-264.268 368.615,-264.118 385.417,-263.97"/>
<polygon fill="midnightblue" stroke="midnightblue" points="385.884,-267.466 395.853,-263.877 385.822,-260.466 385.884,-267.466"/>
</g>
<!-- Node23 -->
<g id="node23" class="node"><title>Node23</title>
<g id="a_node23"><a xlink:href="../../dc/d9e/classparser_1_1_command_tree_node.html#a2700486f6a49c0a080114bee6e51f271" target="_top" xlink:title="parser.CommandTreeNode.get\lChildren">
<polygon fill="white" stroke="black" points="414,-201 414,-231 578,-231 578,-201 414,-201"/>
<text text-anchor="start" x="422" y="-219" font-family="Helvetica,sans-Serif" font-size="10.00">parser.CommandTreeNode.get</text>
<text text-anchor="middle" x="496" y="-208" font-family="Helvetica,sans-Serif" font-size="10.00">Children</text>
</a>
</g>
</g>
<!-- Node22&#45;&gt;Node23 -->
<g id="edge23" class="edge"><title>Node22&#45;&gt;Node23</title>
<path fill="none" stroke="midnightblue" d="M318.039,-181.547C344.165,-186.634 377.093,-193.045 407.44,-198.953"/>
<polygon fill="midnightblue" stroke="midnightblue" points="407.134,-202.459 417.619,-200.935 408.472,-195.588 407.134,-202.459"/>
</g>
<!-- Node24 -->
<g id="node24" class="node"><title>Node24</title>
<g id="a_node24"><a xlink:href="../../dc/d9e/classparser_1_1_command_tree_node.html#a8bb8a112395f78809b0be06f1c3f5282" target="_top" xlink:title="parser.CommandTreeNode.getType">
<polygon fill="white" stroke="black" points="860.5,-109.5 860.5,-128.5 1045.5,-128.5 1045.5,-109.5 860.5,-109.5"/>
<text text-anchor="middle" x="953" y="-116.5" font-family="Helvetica,sans-Serif" font-size="10.00">parser.CommandTreeNode.getType</text>
</a>
</g>
</g>
<!-- Node22&#45;&gt;Node24 -->
<g id="edge24" class="edge"><title>Node22&#45;&gt;Node24</title>
<path fill="none" stroke="midnightblue" d="M328.029,-162.472C349.406,-159.206 373.758,-155.698 396,-153 500.577,-140.313 526.88,-137.865 632,-131 704.783,-126.247 787.011,-123.214 849.887,-121.386"/>
<polygon fill="midnightblue" stroke="midnightblue" points="850.307,-124.876 860.203,-121.092 850.107,-117.878 850.307,-124.876"/>
</g>
<!-- Node25 -->
<g id="node25" class="node"><title>Node25</title>
<g id="a_node25"><a xlink:href="../../d9/d88/classmodel_1_1_tree_interpreter.html#a3e460e5ebe66f781afb480f0f0ec2ce7" target="_top" xlink:title="model.TreeInterpreter.update">
<polygon fill="white" stroke="black" points="418,-162.5 418,-181.5 574,-181.5 574,-162.5 418,-162.5"/>
<text text-anchor="middle" x="496" y="-169.5" font-family="Helvetica,sans-Serif" font-size="10.00">model.TreeInterpreter.update</text>
</a>
</g>
</g>
<!-- Node22&#45;&gt;Node25 -->
<g id="edge25" class="edge"><title>Node22&#45;&gt;Node25</title>
<path fill="none" stroke="midnightblue" d="M359.621,-172C375.436,-172 391.861,-172 407.588,-172"/>
<polygon fill="midnightblue" stroke="midnightblue" points="407.809,-175.5 417.809,-172 407.809,-168.5 407.809,-175.5"/>
</g>
<!-- Node25&#45;&gt;Node18 -->
<g id="edge33" class="edge"><title>Node25&#45;&gt;Node18</title>
<path fill="none" stroke="midnightblue" d="M574.116,-180.721C581.835,-183.353 589.288,-186.715 596,-191 619.08,-205.735 608.977,-226.175 632,-241 652.841,-254.42 794.733,-279.401 882.432,-293.865"/>
<polygon fill="midnightblue" stroke="midnightblue" points="881.885,-297.322 892.32,-295.489 883.019,-290.414 881.885,-297.322"/>
</g>
<!-- Node25&#45;&gt;Node24 -->
<g id="edge26" class="edge"><title>Node25&#45;&gt;Node24</title>
<path fill="none" stroke="midnightblue" d="M574.185,-163.009C653.245,-153.8 776.144,-139.484 860.158,-129.698"/>
<polygon fill="midnightblue" stroke="midnightblue" points="860.678,-133.161 870.206,-128.528 859.868,-126.208 860.678,-133.161"/>
</g>
<!-- Node26 -->
<g id="node26" class="node"><title>Node26</title>
<g id="a_node26"><a xlink:href="../../d9/d88/classmodel_1_1_tree_interpreter.html#af4d24e7867eb3a4a53f79f4a9288f9fd" target="_top" xlink:title="model.TreeInterpreter.execute\lCommand">
<polygon fill="white" stroke="black" points="645.5,-202 645.5,-232 806.5,-232 806.5,-202 645.5,-202"/>
<text text-anchor="start" x="653.5" y="-220" font-family="Helvetica,sans-Serif" font-size="10.00">model.TreeInterpreter.execute</text>
<text text-anchor="middle" x="726" y="-209" font-family="Helvetica,sans-Serif" font-size="10.00">Command</text>
</a>
</g>
</g>
<!-- Node25&#45;&gt;Node26 -->
<g id="edge27" class="edge"><title>Node25&#45;&gt;Node26</title>
<path fill="none" stroke="midnightblue" d="M547.127,-181.527C562.785,-184.528 580.116,-187.875 596,-191 610.48,-193.849 625.865,-196.915 640.777,-199.908"/>
<polygon fill="midnightblue" stroke="midnightblue" points="640.515,-203.425 651.009,-201.965 641.895,-196.562 640.515,-203.425"/>
</g>
<!-- Node29 -->
<g id="node29" class="node"><title>Node29</title>
<g id="a_node29"><a xlink:href="../../dc/d9e/classparser_1_1_command_tree_node.html#a3d691b68da13689c03ebd9de665c379c" target="_top" xlink:title="parser.CommandTreeNode.set\lValue">
<polygon fill="white" stroke="black" points="871.5,-148 871.5,-178 1034.5,-178 1034.5,-148 871.5,-148"/>
<text text-anchor="start" x="879.5" y="-166" font-family="Helvetica,sans-Serif" font-size="10.00">parser.CommandTreeNode.set</text>
<text text-anchor="middle" x="953" y="-155" font-family="Helvetica,sans-Serif" font-size="10.00">Value</text>
</a>
</g>
</g>
<!-- Node25&#45;&gt;Node29 -->
<g id="edge34" class="edge"><title>Node25&#45;&gt;Node29</title>
<path fill="none" stroke="midnightblue" d="M574.185,-170.473C653.611,-168.902 777.281,-166.456 861.321,-164.794"/>
<polygon fill="midnightblue" stroke="midnightblue" points="861.439,-168.292 871.368,-164.595 861.3,-161.293 861.439,-168.292"/>
</g>
<!-- Node30 -->
<g id="node30" class="node"><title>Node30</title>
<g id="a_node30"><a xlink:href="../../db/d55/classmodel_1_1_variable_list.html#a09697cca38c12cf837ee40e71d02f78b" target="_top" xlink:title="model.VariableList.get">
<polygon fill="white" stroke="black" points="664.5,-49.5 664.5,-68.5 787.5,-68.5 787.5,-49.5 664.5,-49.5"/>
<text text-anchor="middle" x="726" y="-56.5" font-family="Helvetica,sans-Serif" font-size="10.00">model.VariableList.get</text>
</a>
</g>
</g>
<!-- Node25&#45;&gt;Node30 -->
<g id="edge35" class="edge"><title>Node25&#45;&gt;Node30</title>
<path fill="none" stroke="midnightblue" d="M516.439,-162.366C556.738,-142.393 649.544,-96.3972 696.574,-73.0884"/>
<polygon fill="midnightblue" stroke="midnightblue" points="698.204,-76.1866 705.61,-68.6099 695.096,-69.9147 698.204,-76.1866"/>
</g>
<!-- Node26&#45;&gt;Node18 -->
<g id="edge30" class="edge"><title>Node26&#45;&gt;Node18</title>
<path fill="none" stroke="midnightblue" d="M786.472,-232.106C798.053,-236.332 809.765,-241.577 820,-248 839.434,-260.196 835.89,-273.955 856,-285 861.114,-287.809 866.58,-290.224 872.211,-292.301"/>
<polygon fill="midnightblue" stroke="midnightblue" points="871.218,-295.659 881.811,-295.486 873.422,-289.015 871.218,-295.659"/>
</g>
<!-- Node26&#45;&gt;Node24 -->
<g id="edge29" class="edge"><title>Node26&#45;&gt;Node24</title>
<path fill="none" stroke="midnightblue" d="M746.814,-201.744C771.174,-183.753 814.416,-154.246 856,-138 862.8,-135.343 870.022,-133.043 877.332,-131.055"/>
<polygon fill="midnightblue" stroke="midnightblue" points="878.485,-134.374 887.325,-128.533 876.772,-127.587 878.485,-134.374"/>
</g>
<!-- Node27 -->
<g id="node27" class="node"><title>Node27</title>
<g id="a_node27"><a xlink:href="../../db/d10/classmodel_1_1_command_factory.html#a3982ff8b4387b7e50c9ec4350ee01733" target="_top" xlink:title="model.CommandFactory.create\lCommand">
<polygon fill="white" stroke="black" points="869.5,-246 869.5,-276 1036.5,-276 1036.5,-246 869.5,-246"/>
<text text-anchor="start" x="877.5" y="-264" font-family="Helvetica,sans-Serif" font-size="10.00">model.CommandFactory.create</text>
<text text-anchor="middle" x="953" y="-253" font-family="Helvetica,sans-Serif" font-size="10.00">Command</text>
</a>
</g>
</g>
<!-- Node26&#45;&gt;Node27 -->
<g id="edge28" class="edge"><title>Node26&#45;&gt;Node27</title>
<path fill="none" stroke="midnightblue" d="M803.803,-232.019C823.605,-235.892 845.053,-240.086 865.32,-244.049"/>
<polygon fill="midnightblue" stroke="midnightblue" points="864.676,-247.489 875.161,-245.974 866.019,-240.62 864.676,-247.489"/>
</g>
<!-- Node28 -->
<g id="node28" class="node"><title>Node28</title>
<g id="a_node28"><a xlink:href="../../d9/d88/classmodel_1_1_tree_interpreter.html#adc0cf2c5819ec7f42db4e37db51b1893" target="_top" xlink:title="model.TreeInterpreter.get\lConstructors">
<polygon fill="white" stroke="black" points="884,-197 884,-227 1022,-227 1022,-197 884,-197"/>
<text text-anchor="start" x="892" y="-215" font-family="Helvetica,sans-Serif" font-size="10.00">model.TreeInterpreter.get</text>
<text text-anchor="middle" x="953" y="-204" font-family="Helvetica,sans-Serif" font-size="10.00">Constructors</text>
</a>
</g>
</g>
<!-- Node26&#45;&gt;Node28 -->
<g id="edge31" class="edge"><title>Node26&#45;&gt;Node28</title>
<path fill="none" stroke="midnightblue" d="M806.643,-215.23C828.361,-214.748 851.869,-214.225 873.521,-213.744"/>
<polygon fill="midnightblue" stroke="midnightblue" points="873.735,-217.24 883.654,-213.519 873.579,-210.242 873.735,-217.24"/>
</g>
<!-- Node26&#45;&gt;Node29 -->
<g id="edge32" class="edge"><title>Node26&#45;&gt;Node29</title>
<path fill="none" stroke="midnightblue" d="M789.675,-201.958C817.475,-195.286 850.361,-187.393 879.239,-180.463"/>
<polygon fill="midnightblue" stroke="midnightblue" points="880.364,-183.792 889.271,-178.055 878.731,-176.985 880.364,-183.792"/>
</g>
<!-- Node31 -->
<g id="node31" class="node"><title>Node31</title>
<g id="a_node31"><a xlink:href="../../db/d55/classmodel_1_1_variable_list.html#a0adb554303c7191db1da43ddb5fa2c45" target="_top" xlink:title="model.VariableList.add">
<polygon fill="white" stroke="black" points="890.5,-49.5 890.5,-68.5 1015.5,-68.5 1015.5,-49.5 890.5,-49.5"/>
<text text-anchor="middle" x="953" y="-56.5" font-family="Helvetica,sans-Serif" font-size="10.00">model.VariableList.add</text>
</a>
</g>
</g>
<!-- Node30&#45;&gt;Node31 -->
<g id="edge36" class="edge"><title>Node30&#45;&gt;Node31</title>
<path fill="none" stroke="midnightblue" d="M787.592,-59C816.001,-59 850.067,-59 879.803,-59"/>
<polygon fill="midnightblue" stroke="midnightblue" points="880.125,-62.5001 890.125,-59 880.125,-55.5001 880.125,-62.5001"/>
</g>
<!-- Node33 -->
<g id="node33" class="node"><title>Node33</title>
<g id="a_node33"><a xlink:href="../../dc/d3b/classui_1_1_g_u_i.html#a203fbe4e50ca1066c5c0ea8cc182adc4" target="_top" xlink:title="ui.GUI.setOutputText">
<polygon fill="white" stroke="black" points="438.5,-27.5 438.5,-46.5 553.5,-46.5 553.5,-27.5 438.5,-27.5"/>
<text text-anchor="middle" x="496" y="-34.5" font-family="Helvetica,sans-Serif" font-size="10.00">ui.GUI.setOutputText</text>
</a>
</g>
</g>
<!-- Node32&#45;&gt;Node33 -->
<g id="edge38" class="edge"><title>Node32&#45;&gt;Node33</title>
<path fill="none" stroke="midnightblue" d="M312.041,-77.4777C348.917,-69.3193 402.18,-57.5354 441.737,-48.784"/>
<polygon fill="midnightblue" stroke="midnightblue" points="442.727,-52.1495 451.735,-46.5719 441.215,-45.3147 442.727,-52.1495"/>
</g>
<!-- Node34 -->
<g id="node34" class="node"><title>Node34</title>
<g id="a_node34"><a xlink:href="../../d8/d3c/classui_1_1elements_1_1_i_o_element.html#a39ffe51bb8b4ef8ad25dd48e65c92ac6" target="_top" xlink:title="ui.elements.IOElement.get\lOutputField">
<polygon fill="white" stroke="black" points="654,-0 654,-30 798,-30 798,-0 654,-0"/>
<text text-anchor="start" x="662" y="-18" font-family="Helvetica,sans-Serif" font-size="10.00">ui.elements.IOElement.get</text>
<text text-anchor="middle" x="726" y="-7" font-family="Helvetica,sans-Serif" font-size="10.00">OutputField</text>
</a>
</g>
</g>
<!-- Node33&#45;&gt;Node34 -->
<g id="edge39" class="edge"><title>Node33&#45;&gt;Node34</title>
<path fill="none" stroke="midnightblue" d="M553.652,-31.5335C580.905,-28.9039 614.071,-25.7037 643.937,-22.8219"/>
<polygon fill="midnightblue" stroke="midnightblue" points="644.308,-26.3025 653.925,-21.8581 643.635,-19.3348 644.308,-26.3025"/>
</g>
</g>
</svg>
