<?xml version="1.0" encoding="UTF-8" standalone="no"?>
<!DOCTYPE svg PUBLIC "-//W3C//DTD SVG 1.1//EN"
 "http://www.w3.org/Graphics/SVG/1.1/DTD/svg11.dtd">
<!-- Generated by graphviz version 2.36.0 (20140111.2315)
 -->
<!-- Title: ui.artists.DottedLineDrawHelper Pages: 1 -->
<svg width="148pt" height="164pt"
 viewBox="0.00 0.00 148.00 164.00" xmlns="http://www.w3.org/2000/svg" xmlns:xlink="http://www.w3.org/1999/xlink">
<g id="graph0" class="graph" transform="scale(1 1) rotate(0) translate(4 160)">
<title>ui.artists.DottedLineDrawHelper</title>
<polygon fill="white" stroke="none" points="-4,4 -4,-160 144,-160 144,4 -4,4"/>
<!-- Node1 -->
<g id="node1" class="node"><title>Node1</title>
<polygon fill="#bfbfbf" stroke="black" points="1.5,-1 1.5,-31 138.5,-31 138.5,-1 1.5,-1"/>
<text text-anchor="start" x="9.5" y="-19" font-family="Helvetica,sans-Serif" font-size="10.00">ui.artists.DottedLineDraw</text>
<text text-anchor="middle" x="70" y="-8" font-family="Helvetica,sans-Serif" font-size="10.00">Helper</text>
</g>
<!-- Node2 -->
<g id="node2" class="node"><title>Node2</title>
<g id="a_node2"><a xlink:href="../../d0/d3e/classui_1_1artists_1_1_dashed_line_draw_helper.html" target="_top" xlink:title="ui.artists.DashedLineDraw\lHelper">
<polygon fill="white" stroke="black" points="-0.5,-69 -0.5,-99 140.5,-99 140.5,-69 -0.5,-69"/>
<text text-anchor="start" x="7.5" y="-87" font-family="Helvetica,sans-Serif" font-size="10.00">ui.artists.DashedLineDraw</text>
<text text-anchor="middle" x="70" y="-76" font-family="Helvetica,sans-Serif" font-size="10.00">Helper</text>
</a>
</g>
</g>
<!-- Node2&#45;&gt;Node1 -->
<g id="edge1" class="edge"><title>Node2&#45;&gt;Node1</title>
<path fill="none" stroke="midnightblue" d="M70,-58.5322C70,-49.3606 70,-39.2449 70,-31.2931"/>
<polygon fill="midnightblue" stroke="midnightblue" points="66.5001,-58.6789 70,-68.679 73.5001,-58.679 66.5001,-58.6789"/>
</g>
<!-- Node3 -->
<g id="node3" class="node"><title>Node3</title>
<g id="a_node3"><a xlink:href="../../d8/d1e/interfaceui_1_1artists_1_1_line_draw_helper.html" target="_top" xlink:title="ui.artists.LineDrawHelper">
<polygon fill="white" stroke="black" points="2,-136.5 2,-155.5 138,-155.5 138,-136.5 2,-136.5"/>
<text text-anchor="middle" x="70" y="-143.5" font-family="Helvetica,sans-Serif" font-size="10.00">ui.artists.LineDrawHelper</text>
</a>
</g>
</g>
<!-- Node3&#45;&gt;Node2 -->
<g id="edge2" class="edge"><title>Node3&#45;&gt;Node2</title>
<path fill="none" stroke="midnightblue" d="M70,-126.371C70,-117.585 70,-107.272 70,-99.1408"/>
<polygon fill="midnightblue" stroke="midnightblue" points="66.5001,-126.403 70,-136.403 73.5001,-126.403 66.5001,-126.403"/>
</g>
</g>
</svg>
