<?xml version="1.0" encoding="UTF-8" standalone="no"?>
<!DOCTYPE svg PUBLIC "-//W3C//DTD SVG 1.1//EN"
 "http://www.w3.org/Graphics/SVG/1.1/DTD/svg11.dtd">
<!-- Generated by graphviz version 2.36.0 (20140111.2315)
 -->
<!-- Title: command.turtle.RightCommand.calculateValue Pages: 1 -->
<svg width="400pt" height="115pt"
 viewBox="0.00 0.00 400.00 115.00" xmlns="http://www.w3.org/2000/svg" xmlns:xlink="http://www.w3.org/1999/xlink">
<g id="graph0" class="graph" transform="scale(1 1) rotate(0) translate(4 111)">
<title>command.turtle.RightCommand.calculateValue</title>
<polygon fill="white" stroke="none" points="-4,4 -4,-111 396,-111 396,4 -4,4"/>
<!-- Node1 -->
<g id="node1" class="node"><title>Node1</title>
<polygon fill="#bfbfbf" stroke="black" points="0.5,-44 0.5,-74 217.5,-74 217.5,-44 0.5,-44"/>
<text text-anchor="start" x="8.5" y="-62" font-family="Helvetica,sans-Serif" font-size="10.00">command.turtle.RightCommand.calculate</text>
<text text-anchor="middle" x="109" y="-51" font-family="Helvetica,sans-Serif" font-size="10.00">Value</text>
</g>
<!-- Node2 -->
<g id="node2" class="node"><title>Node2</title>
<g id="a_node2"><a xlink:href="../../d6/d34/classmodel_1_1_turtle.html#a1c5d07962ede5fbfacc59413274d4300" target="_top" xlink:title="model.Turtle.getHeading">
<polygon fill="white" stroke="black" points="256,-87.5 256,-106.5 390,-106.5 390,-87.5 256,-87.5"/>
<text text-anchor="middle" x="323" y="-94.5" font-family="Helvetica,sans-Serif" font-size="10.00">model.Turtle.getHeading</text>
</a>
</g>
</g>
<!-- Node1&#45;&gt;Node2 -->
<g id="edge1" class="edge"><title>Node1&#45;&gt;Node2</title>
<path fill="none" stroke="midnightblue" d="M193.788,-74.0186C215.471,-77.9052 238.453,-82.0245 258.879,-85.6859"/>
<polygon fill="midnightblue" stroke="midnightblue" points="258.534,-89.1798 268.995,-87.4991 259.769,-82.2896 258.534,-89.1798"/>
</g>
<!-- Node3 -->
<g id="node3" class="node"><title>Node3</title>
<g id="a_node3"><a xlink:href="../../d6/d34/classmodel_1_1_turtle.html#a2b2a79e69080a0bacbefea42068da2dd" target="_top" xlink:title="model.Turtle.setHeading">
<polygon fill="white" stroke="black" points="256.5,-49.5 256.5,-68.5 389.5,-68.5 389.5,-49.5 256.5,-49.5"/>
<text text-anchor="middle" x="323" y="-56.5" font-family="Helvetica,sans-Serif" font-size="10.00">model.Turtle.setHeading</text>
</a>
</g>
</g>
<!-- Node1&#45;&gt;Node3 -->
<g id="edge2" class="edge"><title>Node1&#45;&gt;Node3</title>
<path fill="none" stroke="midnightblue" d="M217.553,-59C227.159,-59 236.749,-59 246.005,-59"/>
<polygon fill="midnightblue" stroke="midnightblue" points="246.299,-62.5001 256.298,-59 246.298,-55.5001 246.299,-62.5001"/>
</g>
<!-- Node4 -->
<g id="node4" class="node"><title>Node4</title>
<g id="a_node4"><a xlink:href="../../d6/d34/classmodel_1_1_turtle.html#ab69148692c7de79ad6c276902b81553a" target="_top" xlink:title="model.Turtle.updateTurtle\lViewers">
<polygon fill="white" stroke="black" points="254.5,-0 254.5,-30 391.5,-30 391.5,-0 254.5,-0"/>
<text text-anchor="start" x="262.5" y="-18" font-family="Helvetica,sans-Serif" font-size="10.00">model.Turtle.updateTurtle</text>
<text text-anchor="middle" x="323" y="-7" font-family="Helvetica,sans-Serif" font-size="10.00">Viewers</text>
</a>
</g>
</g>
<!-- Node1&#45;&gt;Node4 -->
<g id="edge3" class="edge"><title>Node1&#45;&gt;Node4</title>
<path fill="none" stroke="midnightblue" d="M182.365,-43.9808C202.363,-39.8302 224.143,-35.3099 244.424,-31.1006"/>
<polygon fill="midnightblue" stroke="midnightblue" points="245.165,-34.5215 254.246,-29.0622 243.743,-27.6675 245.165,-34.5215"/>
</g>
</g>
</svg>
