<?xml version="1.0" encoding="UTF-8" standalone="no"?>
<!DOCTYPE svg PUBLIC "-//W3C//DTD SVG 1.1//EN"
 "http://www.w3.org/Graphics/SVG/1.1/DTD/svg11.dtd">
<!-- Generated by graphviz version 2.36.0 (20140111.2315)
 -->
<!-- Title: parser.ListStartCase.recurse Pages: 1 -->
<svg width="392pt" height="377pt"
 viewBox="0.00 0.00 392.00 377.00" xmlns="http://www.w3.org/2000/svg" xmlns:xlink="http://www.w3.org/1999/xlink">
<g id="graph0" class="graph" transform="scale(1 1) rotate(0) translate(4 373)">
<title>parser.ListStartCase.recurse</title>
<polygon fill="white" stroke="none" points="-4,4 -4,-373 388,-373 388,4 -4,4"/>
<!-- Node1 -->
<g id="node1" class="node"><title>Node1</title>
<polygon fill="#bfbfbf" stroke="black" points="0.5,-191.5 0.5,-210.5 153.5,-210.5 153.5,-191.5 0.5,-191.5"/>
<text text-anchor="middle" x="77" y="-198.5" font-family="Helvetica,sans-Serif" font-size="10.00">parser.ListStartCase.recurse</text>
</g>
<!-- Node2 -->
<g id="node2" class="node"><title>Node2</title>
<g id="a_node2"><a xlink:href="../../dc/d9e/classparser_1_1_command_tree_node.html#ad6cbb5376973ef15c1831187b297d071" target="_top" xlink:title="parser.CommandTreeNode.add">
<polygon fill="white" stroke="black" points="204,-349.5 204,-368.5 370,-368.5 370,-349.5 204,-349.5"/>
<text text-anchor="middle" x="287" y="-356.5" font-family="Helvetica,sans-Serif" font-size="10.00">parser.CommandTreeNode.add</text>
</a>
</g>
</g>
<!-- Node1&#45;&gt;Node2 -->
<g id="edge1" class="edge"><title>Node1&#45;&gt;Node2</title>
<path fill="none" stroke="midnightblue" d="M82.706,-210.679C95.7586,-236.409 135.108,-306.799 190,-340 193.598,-342.176 197.398,-344.109 201.326,-345.826"/>
<polygon fill="midnightblue" stroke="midnightblue" points="200.104,-349.106 210.693,-349.451 202.63,-342.577 200.104,-349.106"/>
</g>
<!-- Node3 -->
<g id="node3" class="node"><title>Node3</title>
<g id="a_node3"><a xlink:href="../../d9/dc0/interfaceparser_1_1_tree_wrapper.html#abf33b5a3ce13b389b9f69be49b18b998" target="_top" xlink:title="parser.TreeWrapper.getIndex">
<polygon fill="white" stroke="black" points="211,-311.5 211,-330.5 363,-330.5 363,-311.5 211,-311.5"/>
<text text-anchor="middle" x="287" y="-318.5" font-family="Helvetica,sans-Serif" font-size="10.00">parser.TreeWrapper.getIndex</text>
</a>
</g>
</g>
<!-- Node1&#45;&gt;Node3 -->
<g id="edge2" class="edge"><title>Node1&#45;&gt;Node3</title>
<path fill="none" stroke="midnightblue" d="M85.5049,-210.627C102,-231.056 143.653,-278.771 190,-302 194.842,-304.427 199.966,-306.543 205.227,-308.39"/>
<polygon fill="midnightblue" stroke="midnightblue" points="204.224,-311.744 214.814,-311.431 206.34,-305.071 204.224,-311.744"/>
</g>
<!-- Node4 -->
<g id="node4" class="node"><title>Node4</title>
<g id="a_node4"><a xlink:href="../../dc/d9e/classparser_1_1_command_tree_node.html#a73e4ab6ebca47d41b993f0e66ee4c8d2" target="_top" xlink:title="parser.CommandTreeNode.getName">
<polygon fill="white" stroke="black" points="190.5,-273.5 190.5,-292.5 383.5,-292.5 383.5,-273.5 190.5,-273.5"/>
<text text-anchor="middle" x="287" y="-280.5" font-family="Helvetica,sans-Serif" font-size="10.00">parser.CommandTreeNode.getName</text>
</a>
</g>
</g>
<!-- Node1&#45;&gt;Node4 -->
<g id="edge3" class="edge"><title>Node1&#45;&gt;Node4</title>
<path fill="none" stroke="midnightblue" d="M91.7926,-210.681C112.263,-224.591 152.331,-250.084 190,-264 197.284,-266.691 205.027,-269.027 212.832,-271.048"/>
<polygon fill="midnightblue" stroke="midnightblue" points="212.181,-274.491 222.723,-273.444 213.828,-267.688 212.181,-274.491"/>
</g>
<!-- Node5 -->
<g id="node5" class="node"><title>Node5</title>
<g id="a_node5"><a xlink:href="../../dc/d9e/classparser_1_1_command_tree_node.html#a8bb8a112395f78809b0be06f1c3f5282" target="_top" xlink:title="parser.CommandTreeNode.getType">
<polygon fill="white" stroke="black" points="194.5,-235.5 194.5,-254.5 379.5,-254.5 379.5,-235.5 194.5,-235.5"/>
<text text-anchor="middle" x="287" y="-242.5" font-family="Helvetica,sans-Serif" font-size="10.00">parser.CommandTreeNode.getType</text>
</a>
</g>
</g>
<!-- Node1&#45;&gt;Node5 -->
<g id="edge4" class="edge"><title>Node1&#45;&gt;Node5</title>
<path fill="none" stroke="midnightblue" d="M122.139,-210.519C142.752,-214.949 167.625,-220.272 190,-225 203.008,-227.749 217.013,-230.681 230.197,-233.43"/>
<polygon fill="midnightblue" stroke="midnightblue" points="229.584,-236.878 240.088,-235.49 231.012,-230.025 229.584,-236.878"/>
</g>
<!-- Node6 -->
<g id="node6" class="node"><title>Node6</title>
<g id="a_node6"><a xlink:href="../../d9/dc0/interfaceparser_1_1_tree_wrapper.html#a251d9d9bb7c3ea34688bfa30cc465270" target="_top" xlink:title="parser.TreeWrapper.increment\lIndex">
<polygon fill="white" stroke="black" points="207.5,-186 207.5,-216 366.5,-216 366.5,-186 207.5,-186"/>
<text text-anchor="start" x="215.5" y="-204" font-family="Helvetica,sans-Serif" font-size="10.00">parser.TreeWrapper.increment</text>
<text text-anchor="middle" x="287" y="-193" font-family="Helvetica,sans-Serif" font-size="10.00">Index</text>
</a>
</g>
</g>
<!-- Node1&#45;&gt;Node6 -->
<g id="edge5" class="edge"><title>Node1&#45;&gt;Node6</title>
<path fill="none" stroke="midnightblue" d="M153.681,-201C167.702,-201 182.465,-201 196.843,-201"/>
<polygon fill="midnightblue" stroke="midnightblue" points="197.227,-204.5 207.227,-201 197.227,-197.5 197.227,-204.5"/>
</g>
<!-- Node7 -->
<g id="node7" class="node"><title>Node7</title>
<g id="a_node7"><a xlink:href="../../d9/dc0/interfaceparser_1_1_tree_wrapper.html#a96ea05726f264e5ca938cead6ab6b310" target="_top" xlink:title="parser.TreeWrapper.increment\lListEndIndex">
<polygon fill="white" stroke="black" points="207.5,-137 207.5,-167 366.5,-167 366.5,-137 207.5,-137"/>
<text text-anchor="start" x="215.5" y="-155" font-family="Helvetica,sans-Serif" font-size="10.00">parser.TreeWrapper.increment</text>
<text text-anchor="middle" x="287" y="-144" font-family="Helvetica,sans-Serif" font-size="10.00">ListEndIndex</text>
</a>
</g>
</g>
<!-- Node1&#45;&gt;Node7 -->
<g id="edge6" class="edge"><title>Node1&#45;&gt;Node7</title>
<path fill="none" stroke="midnightblue" d="M118.598,-191.436C145.162,-185.178 180.649,-176.818 212.112,-169.406"/>
<polygon fill="midnightblue" stroke="midnightblue" points="213.239,-172.737 222.17,-167.037 211.633,-165.923 213.239,-172.737"/>
</g>
<!-- Node8 -->
<g id="node8" class="node"><title>Node8</title>
<g id="a_node8"><a xlink:href="../../d9/dc0/interfaceparser_1_1_tree_wrapper.html#a82495ff1168e074f516cf076dca2d9bc" target="_top" xlink:title="parser.TreeWrapper.increment\lListStartIndex">
<polygon fill="white" stroke="black" points="207.5,-88 207.5,-118 366.5,-118 366.5,-88 207.5,-88"/>
<text text-anchor="start" x="215.5" y="-106" font-family="Helvetica,sans-Serif" font-size="10.00">parser.TreeWrapper.increment</text>
<text text-anchor="middle" x="287" y="-95" font-family="Helvetica,sans-Serif" font-size="10.00">ListStartIndex</text>
</a>
</g>
</g>
<!-- Node1&#45;&gt;Node8 -->
<g id="edge7" class="edge"><title>Node1&#45;&gt;Node8</title>
<path fill="none" stroke="midnightblue" d="M90.0037,-191.275C109.726,-175.752 150.727,-145.359 190,-128 195.634,-125.51 201.567,-123.227 207.607,-121.143"/>
<polygon fill="midnightblue" stroke="midnightblue" points="208.734,-124.457 217.157,-118.03 206.564,-117.802 208.734,-124.457"/>
</g>
<!-- Node9 -->
<g id="node9" class="node"><title>Node9</title>
<g id="a_node9"><a xlink:href="../../d9/dc0/interfaceparser_1_1_tree_wrapper.html#a593548eb4ae82f686022f08f45908a1d" target="_top" xlink:title="parser.TreeWrapper.print\lTestStatements">
<polygon fill="white" stroke="black" points="221,-39 221,-69 353,-69 353,-39 221,-39"/>
<text text-anchor="start" x="229" y="-57" font-family="Helvetica,sans-Serif" font-size="10.00">parser.TreeWrapper.print</text>
<text text-anchor="middle" x="287" y="-46" font-family="Helvetica,sans-Serif" font-size="10.00">TestStatements</text>
</a>
</g>
</g>
<!-- Node1&#45;&gt;Node9 -->
<g id="edge8" class="edge"><title>Node1&#45;&gt;Node9</title>
<path fill="none" stroke="midnightblue" d="M83.9821,-191.346C98.8634,-168.169 139.981,-109.08 190,-79 196.642,-75.0059 203.915,-71.6434 211.392,-68.814"/>
<polygon fill="midnightblue" stroke="midnightblue" points="212.636,-72.0873 220.94,-65.5078 210.345,-65.4726 212.636,-72.0873"/>
</g>
<!-- Node10 -->
<g id="node10" class="node"><title>Node10</title>
<g id="a_node10"><a xlink:href="../../d9/dc0/interfaceparser_1_1_tree_wrapper.html#a48f9f037c84b1fecfdefcb3268640f88" target="_top" xlink:title="parser.TreeWrapper.recurse">
<polygon fill="white" stroke="black" points="214,-0.5 214,-19.5 360,-19.5 360,-0.5 214,-0.5"/>
<text text-anchor="middle" x="287" y="-7.5" font-family="Helvetica,sans-Serif" font-size="10.00">parser.TreeWrapper.recurse</text>
</a>
</g>
</g>
<!-- Node1&#45;&gt;Node10 -->
<g id="edge9" class="edge"><title>Node1&#45;&gt;Node10</title>
<path fill="none" stroke="midnightblue" d="M81.2785,-191.337C91.8196,-161.834 127.828,-72.3672 190,-30 194.372,-27.0206 199.098,-24.4698 204.026,-22.2874"/>
<polygon fill="midnightblue" stroke="midnightblue" points="205.658,-25.4088 213.715,-18.5291 203.126,-18.8826 205.658,-25.4088"/>
</g>
</g>
</svg>
