<?xml version="1.0" encoding="UTF-8" standalone="no"?>
<!DOCTYPE svg PUBLIC "-//W3C//DTD SVG 1.1//EN"
 "http://www.w3.org/Graphics/SVG/1.1/DTD/svg11.dtd">
<!-- Generated by graphviz version 2.36.0 (20140111.2315)
 -->
<!-- Title: ui_table.PreviousCommands Pages: 1 -->
<svg width="238pt" height="96pt"
 viewBox="0.00 0.00 238.00 96.00" xmlns="http://www.w3.org/2000/svg" xmlns:xlink="http://www.w3.org/1999/xlink">
<g id="graph0" class="graph" transform="scale(1 1) rotate(0) translate(4 92)">
<title>ui_table.PreviousCommands</title>
<polygon fill="white" stroke="none" points="-4,4 -4,-92 234,-92 234,4 -4,4"/>
<!-- Node1 -->
<g id="node1" class="node"><title>Node1</title>
<polygon fill="#bfbfbf" stroke="black" points="48.5,-0.5 48.5,-19.5 201.5,-19.5 201.5,-0.5 48.5,-0.5"/>
<text text-anchor="middle" x="125" y="-7.5" font-family="Helvetica,sans-Serif" font-size="10.00">ui_table.PreviousCommands</text>
</g>
<!-- Node2 -->
<g id="node2" class="node"><title>Node2</title>
<g id="a_node2"><a xlink:href="../../d1/d82/interfaceui__table_1_1_table_elements.html" target="_top" xlink:title="ui_table.TableElements">
<polygon fill="white" stroke="black" points="0,-68.5 0,-87.5 126,-87.5 126,-68.5 0,-68.5"/>
<text text-anchor="middle" x="63" y="-75.5" font-family="Helvetica,sans-Serif" font-size="10.00">ui_table.TableElements</text>
</a>
</g>
</g>
<!-- Node2&#45;&gt;Node1 -->
<g id="edge1" class="edge"><title>Node2&#45;&gt;Node1</title>
<path fill="none" stroke="midnightblue" d="M77.9858,-61.0474C90.138,-48.1111 106.816,-30.3567 116.695,-19.8411"/>
<polygon fill="midnightblue" stroke="midnightblue" points="75.4012,-58.6868 71.1054,-68.3717 80.5032,-63.4795 75.4012,-58.6868"/>
</g>
<!-- Node3 -->
<g id="node3" class="node"><title>Node3</title>
<polygon fill="white" stroke="#bfbfbf" points="144,-68.5 144,-87.5 230,-87.5 230,-68.5 144,-68.5"/>
<text text-anchor="middle" x="187" y="-75.5" font-family="Helvetica,sans-Serif" font-size="10.00">StringProperty</text>
</g>
<!-- Node3&#45;&gt;Node1 -->
<g id="edge2" class="edge"><title>Node3&#45;&gt;Node1</title>
<path fill="none" stroke="#9a32cd" stroke-dasharray="5,2" d="M172.014,-61.0474C159.862,-48.1111 143.184,-30.3567 133.305,-19.8411"/>
<polygon fill="#9a32cd" stroke="#9a32cd" points="169.497,-63.4795 178.895,-68.3717 174.599,-58.6868 169.497,-63.4795"/>
<text text-anchor="middle" x="176.5" y="-41.5" font-family="Helvetica,sans-Serif" font-size="10.00"> name</text>
</g>
</g>
</svg>
