<?xml version="1.0" encoding="UTF-8" standalone="no"?>
<!DOCTYPE svg PUBLIC "-//W3C//DTD SVG 1.1//EN"
 "http://www.w3.org/Graphics/SVG/1.1/DTD/svg11.dtd">
<!-- Generated by graphviz version 2.36.0 (20140111.2315)
 -->
<!-- Title: command.control.IfCommand Pages: 1 -->
<svg width="898pt" height="218pt"
 viewBox="0.00 0.00 898.00 218.00" xmlns="http://www.w3.org/2000/svg" xmlns:xlink="http://www.w3.org/1999/xlink">
<g id="graph0" class="graph" transform="scale(1 1) rotate(0) translate(4 214)">
<title>command.control.IfCommand</title>
<polygon fill="white" stroke="none" points="-4,4 -4,-214 894,-214 894,4 -4,4"/>
<!-- Node1 -->
<g id="node1" class="node"><title>Node1</title>
<polygon fill="#bfbfbf" stroke="black" points="730,-71.5 730,-90.5 890,-90.5 890,-71.5 730,-71.5"/>
<text text-anchor="middle" x="810" y="-78.5" font-family="Helvetica,sans-Serif" font-size="10.00">command.control.IfCommand</text>
</g>
<!-- Node2 -->
<g id="node2" class="node"><title>Node2</title>
<g id="a_node2"><a xlink:href="../../d7/d35/classcommand_1_1_command.html" target="_top" xlink:title="command.Command">
<polygon fill="white" stroke="black" points="535.5,-137.5 535.5,-156.5 654.5,-156.5 654.5,-137.5 535.5,-137.5"/>
<text text-anchor="middle" x="595" y="-144.5" font-family="Helvetica,sans-Serif" font-size="10.00">command.Command</text>
</a>
</g>
</g>
<!-- Node2&#45;&gt;Node1 -->
<g id="edge1" class="edge"><title>Node2&#45;&gt;Node1</title>
<path fill="none" stroke="midnightblue" d="M643.651,-134.884C651.799,-132.681 660.161,-130.338 668,-128 708.057,-116.052 753.881,-100.404 782.132,-90.5241"/>
<polygon fill="midnightblue" stroke="midnightblue" points="642.629,-131.534 633.868,-137.491 644.432,-138.298 642.629,-131.534"/>
</g>
<!-- Node3 -->
<g id="node3" class="node"><title>Node3</title>
<g id="a_node3"><a xlink:href="../../d9/d88/classmodel_1_1_tree_interpreter.html" target="_top" xlink:title="model.TreeInterpreter">
<polygon fill="white" stroke="black" points="535,-99.5 535,-118.5 655,-118.5 655,-99.5 535,-99.5"/>
<text text-anchor="middle" x="595" y="-106.5" font-family="Helvetica,sans-Serif" font-size="10.00">model.TreeInterpreter</text>
</a>
</g>
</g>
<!-- Node3&#45;&gt;Node1 -->
<g id="edge2" class="edge"><title>Node3&#45;&gt;Node1</title>
<path fill="none" stroke="#9a32cd" stroke-dasharray="5,2" d="M665.016,-99.9274C687.895,-96.9199 713.42,-93.5645 736.549,-90.524"/>
<polygon fill="#9a32cd" stroke="#9a32cd" points="664.508,-96.464 655.05,-101.238 665.42,-103.404 664.508,-96.464"/>
<text text-anchor="middle" x="699" y="-100" font-family="Helvetica,sans-Serif" font-size="10.00"> tree</text>
</g>
<!-- Node4 -->
<g id="node4" class="node"><title>Node4</title>
<g id="a_node4"><a xlink:href="../../db/d55/classmodel_1_1_variable_list.html" target="_top" xlink:title="model.VariableList">
<polygon fill="white" stroke="black" points="269,-189.5 269,-208.5 373,-208.5 373,-189.5 269,-189.5"/>
<text text-anchor="middle" x="321" y="-196.5" font-family="Helvetica,sans-Serif" font-size="10.00">model.VariableList</text>
</a>
</g>
</g>
<!-- Node4&#45;&gt;Node3 -->
<g id="edge3" class="edge"><title>Node4&#45;&gt;Node3</title>
<path fill="none" stroke="#9a32cd" stroke-dasharray="5,2" d="M383.584,-199.928C421.668,-197.542 469.665,-188.861 504,-163 517.972,-152.476 508.365,-138.957 522,-128 526.837,-124.113 532.392,-121.016 538.225,-118.549"/>
<polygon fill="#9a32cd" stroke="#9a32cd" points="382.941,-196.455 373.125,-200.443 383.285,-203.446 382.941,-196.455"/>
<text text-anchor="middle" x="464" y="-197" font-family="Helvetica,sans-Serif" font-size="10.00"> variables</text>
</g>
<!-- Node5 -->
<g id="node5" class="node"><title>Node5</title>
<polygon fill="white" stroke="#bfbfbf" points="0.5,-189.5 0.5,-208.5 181.5,-208.5 181.5,-189.5 0.5,-189.5"/>
<text text-anchor="middle" x="91" y="-196.5" font-family="Helvetica,sans-Serif" font-size="10.00">ObservableList&lt; model.Variable &gt;</text>
</g>
<!-- Node5&#45;&gt;Node4 -->
<g id="edge4" class="edge"><title>Node5&#45;&gt;Node4</title>
<path fill="none" stroke="#9a32cd" stroke-dasharray="5,2" d="M191.896,-199C218.445,-199 246.031,-199 268.773,-199"/>
<polygon fill="#9a32cd" stroke="#9a32cd" points="191.784,-195.5 181.784,-199 191.784,-202.5 191.784,-195.5"/>
<text text-anchor="middle" x="209" y="-202" font-family="Helvetica,sans-Serif" font-size="10.00"> list</text>
</g>
<!-- Node6 -->
<g id="node6" class="node"><title>Node6</title>
<polygon fill="white" stroke="#bfbfbf" points="264,-151.5 264,-170.5 378,-170.5 378,-151.5 264,-151.5"/>
<text text-anchor="middle" x="321" y="-158.5" font-family="Helvetica,sans-Serif" font-size="10.00">List&lt; model.Turtle &gt;</text>
</g>
<!-- Node6&#45;&gt;Node3 -->
<g id="edge5" class="edge"><title>Node6&#45;&gt;Node3</title>
<path fill="none" stroke="#9a32cd" stroke-dasharray="5,2" d="M388.085,-152.751C422.775,-147.938 465.882,-141.196 504,-133 512.117,-131.255 513.986,-130.17 522,-128 533.48,-124.891 546.008,-121.563 557.347,-118.574"/>
<polygon fill="#9a32cd" stroke="#9a32cd" points="387.505,-149.298 378.071,-154.119 388.453,-156.233 387.505,-149.298"/>
<text text-anchor="middle" x="464" y="-151" font-family="Helvetica,sans-Serif" font-size="10.00"> listTurtles</text>
</g>
<!-- Node7 -->
<g id="node7" class="node"><title>Node7</title>
<g id="a_node7"><a xlink:href="../../db/d10/classmodel_1_1_command_factory.html" target="_top" xlink:title="model.CommandFactory">
<polygon fill="white" stroke="black" points="254,-113.5 254,-132.5 388,-132.5 388,-113.5 254,-113.5"/>
<text text-anchor="middle" x="321" y="-120.5" font-family="Helvetica,sans-Serif" font-size="10.00">model.CommandFactory</text>
</a>
</g>
</g>
<!-- Node7&#45;&gt;Node3 -->
<g id="edge6" class="edge"><title>Node7&#45;&gt;Node3</title>
<path fill="none" stroke="#9a32cd" stroke-dasharray="5,2" d="M398.387,-119.068C441.635,-116.842 494.909,-114.1 534.935,-112.04"/>
<polygon fill="#9a32cd" stroke="#9a32cd" points="397.998,-115.584 388.191,-119.593 398.358,-122.574 397.998,-115.584"/>
<text text-anchor="middle" x="464" y="-121" font-family="Helvetica,sans-Serif" font-size="10.00"> factory</text>
</g>
<!-- Node8 -->
<g id="node8" class="node"><title>Node8</title>
<polygon fill="white" stroke="#bfbfbf" points="236,-64 236,-94 406,-94 406,-64 236,-64"/>
<text text-anchor="start" x="244" y="-82" font-family="Helvetica,sans-Serif" font-size="10.00">Map&lt; String, List&lt;</text>
<text text-anchor="middle" x="321" y="-71" font-family="Helvetica,sans-Serif" font-size="10.00"> parser.CommandTreeNode &gt; &gt;</text>
</g>
<!-- Node8&#45;&gt;Node3 -->
<g id="edge7" class="edge"><title>Node8&#45;&gt;Node3</title>
<path fill="none" stroke="#9a32cd" stroke-dasharray="5,2" d="M416.508,-89.3636C444.66,-92.4566 475.579,-95.8595 504,-99 514.001,-100.105 524.626,-101.283 534.939,-102.427"/>
<polygon fill="#9a32cd" stroke="#9a32cd" points="416.593,-85.852 406.271,-88.2391 415.829,-92.8101 416.593,-85.852"/>
<text text-anchor="middle" x="464" y="-102" font-family="Helvetica,sans-Serif" font-size="10.00"> userCommands</text>
</g>
<!-- Node9 -->
<g id="node9" class="node"><title>Node9</title>
<polygon fill="white" stroke="#bfbfbf" points="247.5,-5 247.5,-35 394.5,-35 394.5,-5 247.5,-5"/>
<text text-anchor="start" x="255.5" y="-23" font-family="Helvetica,sans-Serif" font-size="10.00">List&lt; parser.CommandTree</text>
<text text-anchor="middle" x="321" y="-12" font-family="Helvetica,sans-Serif" font-size="10.00">Node &gt;</text>
</g>
<!-- Node9&#45;&gt;Node1 -->
<g id="edge8" class="edge"><title>Node9&#45;&gt;Node1</title>
<path fill="none" stroke="#9a32cd" stroke-dasharray="5,2" d="M404.75,-30.3649C496.718,-41.8845 643.987,-60.331 733.096,-71.4925"/>
<polygon fill="#9a32cd" stroke="#9a32cd" points="405.003,-26.8694 394.646,-29.0994 404.133,-33.8152 405.003,-26.8694"/>
<text text-anchor="middle" x="595" y="-66" font-family="Helvetica,sans-Serif" font-size="10.00"> subCommands</text>
</g>
<!-- Node10 -->
<g id="node10" class="node"><title>Node10</title>
<g id="a_node10"><a xlink:href="../../dc/d9e/classparser_1_1_command_tree_node.html" target="_top" xlink:title="parser.CommandTreeNode">
<polygon fill="white" stroke="black" points="522.5,-0.5 522.5,-19.5 667.5,-19.5 667.5,-0.5 522.5,-0.5"/>
<text text-anchor="middle" x="595" y="-7.5" font-family="Helvetica,sans-Serif" font-size="10.00">parser.CommandTreeNode</text>
</a>
</g>
</g>
<!-- Node9&#45;&gt;Node10 -->
<g id="edge10" class="edge"><title>Node9&#45;&gt;Node10</title>
<path fill="none" stroke="#9a32cd" stroke-dasharray="5,2" d="M404.91,-16.9518C442.338,-15.5758 486.13,-13.9658 522.14,-12.6419"/>
<polygon fill="#9a32cd" stroke="#9a32cd" points="404.398,-13.4682 394.534,-17.3333 404.656,-20.4635 404.398,-13.4682"/>
<text text-anchor="middle" x="464" y="-20" font-family="Helvetica,sans-Serif" font-size="10.00"> myChildren</text>
</g>
<!-- Node10&#45;&gt;Node1 -->
<g id="edge9" class="edge"><title>Node10&#45;&gt;Node1</title>
<path fill="none" stroke="#9a32cd" stroke-dasharray="5,2" d="M677.508,-21.5863C689.226,-24.1639 701.024,-27.2709 712,-31 742.496,-41.3611 775.264,-60.0103 793.839,-71.371"/>
<polygon fill="#9a32cd" stroke="#9a32cd" points="678.207,-18.1568 667.703,-19.5436 676.779,-25.0096 678.207,-18.1568"/>
<text text-anchor="middle" x="699" y="-34" font-family="Helvetica,sans-Serif" font-size="10.00"> expr</text>
</g>
</g>
</svg>
