<?xml version="1.0" encoding="UTF-8" standalone="no"?>
<!DOCTYPE svg PUBLIC "-//W3C//DTD SVG 1.1//EN"
 "http://www.w3.org/Graphics/SVG/1.1/DTD/svg11.dtd">
<!-- Generated by graphviz version 2.36.0 (20140111.2315)
 -->
<!-- Title: ui.TableModel.printDebugData Pages: 1 -->
<svg width="368pt" height="66pt"
 viewBox="0.00 0.00 368.00 66.00" xmlns="http://www.w3.org/2000/svg" xmlns:xlink="http://www.w3.org/1999/xlink">
<g id="graph0" class="graph" transform="scale(1 1) rotate(0) translate(4 62)">
<title>ui.TableModel.printDebugData</title>
<polygon fill="white" stroke="none" points="-4,4 -4,-62 364,-62 364,4 -4,4"/>
<!-- Node1 -->
<g id="node1" class="node"><title>Node1</title>
<polygon fill="#bfbfbf" stroke="black" points="0,-19.5 0,-38.5 160,-38.5 160,-19.5 0,-19.5"/>
<text text-anchor="middle" x="80" y="-26.5" font-family="Helvetica,sans-Serif" font-size="10.00">ui.TableModel.printDebugData</text>
</g>
<!-- Node2 -->
<g id="node2" class="node"><title>Node2</title>
<g id="a_node2"><a xlink:href="../../df/d63/classui_1_1_table_model.html#aabf87df61b3847fa684c339ceccf777a" target="_top" xlink:title="ui.TableModel.getColumnCount">
<polygon fill="white" stroke="black" points="196,-38.5 196,-57.5 360,-57.5 360,-38.5 196,-38.5"/>
<text text-anchor="middle" x="278" y="-45.5" font-family="Helvetica,sans-Serif" font-size="10.00">ui.TableModel.getColumnCount</text>
</a>
</g>
</g>
<!-- Node1&#45;&gt;Node2 -->
<g id="edge1" class="edge"><title>Node1&#45;&gt;Node2</title>
<path fill="none" stroke="midnightblue" d="M160.156,-36.6733C168.632,-37.4949 177.304,-38.3356 185.904,-39.1693"/>
<polygon fill="midnightblue" stroke="midnightblue" points="185.661,-42.662 195.952,-40.1433 186.336,-35.6947 185.661,-42.662"/>
</g>
<!-- Node3 -->
<g id="node3" class="node"><title>Node3</title>
<g id="a_node3"><a xlink:href="../../df/d63/classui_1_1_table_model.html#ae5810dc59e6a90eb52a3faf33a27e83f" target="_top" xlink:title="ui.TableModel.getRowCount">
<polygon fill="white" stroke="black" points="205,-0.5 205,-19.5 351,-19.5 351,-0.5 205,-0.5"/>
<text text-anchor="middle" x="278" y="-7.5" font-family="Helvetica,sans-Serif" font-size="10.00">ui.TableModel.getRowCount</text>
</a>
</g>
</g>
<!-- Node1&#45;&gt;Node3 -->
<g id="edge2" class="edge"><title>Node1&#45;&gt;Node3</title>
<path fill="none" stroke="midnightblue" d="M160.156,-21.3267C171.578,-20.2195 183.355,-19.0778 194.834,-17.9651"/>
<polygon fill="midnightblue" stroke="midnightblue" points="195.213,-21.4448 204.829,-16.9962 194.538,-14.4774 195.213,-21.4448"/>
</g>
</g>
</svg>
