<?xml version="1.0" encoding="UTF-8" standalone="no"?>
<!DOCTYPE svg PUBLIC "-//W3C//DTD SVG 1.1//EN"
 "http://www.w3.org/Graphics/SVG/1.1/DTD/svg11.dtd">
<!-- Generated by graphviz version 2.36.0 (20140111.2315)
 -->
<!-- Title: ui.TableModel.getRowCount Pages: 1 -->
<svg width="522pt" height="28pt"
 viewBox="0.00 0.00 522.00 28.00" xmlns="http://www.w3.org/2000/svg" xmlns:xlink="http://www.w3.org/1999/xlink">
<g id="graph0" class="graph" transform="scale(1 1) rotate(0) translate(4 24)">
<title>ui.TableModel.getRowCount</title>
<polygon fill="white" stroke="none" points="-4,4 -4,-24 518,-24 518,4 -4,4"/>
<!-- Node1 -->
<g id="node1" class="node"><title>Node1</title>
<polygon fill="#bfbfbf" stroke="black" points="0,-0.5 0,-19.5 146,-19.5 146,-0.5 0,-0.5"/>
<text text-anchor="middle" x="73" y="-7.5" font-family="Helvetica,sans-Serif" font-size="10.00">ui.TableModel.getRowCount</text>
</g>
<!-- Node2 -->
<g id="node2" class="node"><title>Node2</title>
<g id="a_node2"><a xlink:href="../../df/d63/classui_1_1_table_model.html#a1d86a3e805e21215cead145559e00b35" target="_top" xlink:title="ui.TableModel.printDebugData">
<polygon fill="white" stroke="black" points="182,-0.5 182,-19.5 342,-19.5 342,-0.5 182,-0.5"/>
<text text-anchor="middle" x="262" y="-7.5" font-family="Helvetica,sans-Serif" font-size="10.00">ui.TableModel.printDebugData</text>
</a>
</g>
</g>
<!-- Node1&#45;&gt;Node2 -->
<g id="edge1" class="edge"><title>Node1&#45;&gt;Node2</title>
<path fill="none" stroke="midnightblue" d="M156.303,-10C164.791,-10 173.403,-10 181.855,-10"/>
<polygon fill="midnightblue" stroke="midnightblue" points="156.032,-6.5001 146.032,-10 156.032,-13.5001 156.032,-6.5001"/>
</g>
<!-- Node3 -->
<g id="node3" class="node"><title>Node3</title>
<g id="a_node3"><a xlink:href="../../df/d63/classui_1_1_table_model.html#a1563a6d7d3ab8a31848aa265b5635f19" target="_top" xlink:title="ui.TableModel.setValueAt">
<polygon fill="white" stroke="black" points="378.5,-0.5 378.5,-19.5 513.5,-19.5 513.5,-0.5 378.5,-0.5"/>
<text text-anchor="middle" x="446" y="-7.5" font-family="Helvetica,sans-Serif" font-size="10.00">ui.TableModel.setValueAt</text>
</a>
</g>
</g>
<!-- Node2&#45;&gt;Node3 -->
<g id="edge2" class="edge"><title>Node2&#45;&gt;Node3</title>
<path fill="none" stroke="midnightblue" d="M352.281,-10C361.035,-10 369.81,-10 378.283,-10"/>
<polygon fill="midnightblue" stroke="midnightblue" points="352.034,-6.5001 342.034,-10 352.034,-13.5001 352.034,-6.5001"/>
</g>
</g>
</svg>
