<?xml version="1.0" encoding="UTF-8" standalone="no"?>
<!DOCTYPE svg PUBLIC "-//W3C//DTD SVG 1.1//EN"
 "http://www.w3.org/Graphics/SVG/1.1/DTD/svg11.dtd">
<!-- Generated by graphviz version 2.36.0 (20140111.2315)
 -->
<!-- Title: ui.TableModel.getColumnCount Pages: 1 -->
<svg width="540pt" height="28pt"
 viewBox="0.00 0.00 540.00 28.00" xmlns="http://www.w3.org/2000/svg" xmlns:xlink="http://www.w3.org/1999/xlink">
<g id="graph0" class="graph" transform="scale(1 1) rotate(0) translate(4 24)">
<title>ui.TableModel.getColumnCount</title>
<polygon fill="white" stroke="none" points="-4,4 -4,-24 536,-24 536,4 -4,4"/>
<!-- Node1 -->
<g id="node1" class="node"><title>Node1</title>
<polygon fill="#bfbfbf" stroke="black" points="0,-0.5 0,-19.5 164,-19.5 164,-0.5 0,-0.5"/>
<text text-anchor="middle" x="82" y="-7.5" font-family="Helvetica,sans-Serif" font-size="10.00">ui.TableModel.getColumnCount</text>
</g>
<!-- Node2 -->
<g id="node2" class="node"><title>Node2</title>
<g id="a_node2"><a xlink:href="../../df/d63/classui_1_1_table_model.html#a1d86a3e805e21215cead145559e00b35" target="_top" xlink:title="ui.TableModel.printDebugData">
<polygon fill="white" stroke="black" points="200,-0.5 200,-19.5 360,-19.5 360,-0.5 200,-0.5"/>
<text text-anchor="middle" x="280" y="-7.5" font-family="Helvetica,sans-Serif" font-size="10.00">ui.TableModel.printDebugData</text>
</a>
</g>
</g>
<!-- Node1&#45;&gt;Node2 -->
<g id="edge1" class="edge"><title>Node1&#45;&gt;Node2</title>
<path fill="none" stroke="midnightblue" d="M174.152,-10C182.725,-10 191.368,-10 199.818,-10"/>
<polygon fill="midnightblue" stroke="midnightblue" points="174.136,-6.5001 164.136,-10 174.135,-13.5001 174.136,-6.5001"/>
</g>
<!-- Node3 -->
<g id="node3" class="node"><title>Node3</title>
<g id="a_node3"><a xlink:href="../../df/d63/classui_1_1_table_model.html#a1563a6d7d3ab8a31848aa265b5635f19" target="_top" xlink:title="ui.TableModel.setValueAt">
<polygon fill="white" stroke="black" points="396.5,-0.5 396.5,-19.5 531.5,-19.5 531.5,-0.5 396.5,-0.5"/>
<text text-anchor="middle" x="464" y="-7.5" font-family="Helvetica,sans-Serif" font-size="10.00">ui.TableModel.setValueAt</text>
</a>
</g>
</g>
<!-- Node2&#45;&gt;Node3 -->
<g id="edge2" class="edge"><title>Node2&#45;&gt;Node3</title>
<path fill="none" stroke="midnightblue" d="M370.281,-10C379.035,-10 387.81,-10 396.283,-10"/>
<polygon fill="midnightblue" stroke="midnightblue" points="370.034,-6.5001 360.034,-10 370.034,-13.5001 370.034,-6.5001"/>
</g>
</g>
</svg>
