<?xml version="1.0" encoding="UTF-8" standalone="no"?>
<!DOCTYPE svg PUBLIC "-//W3C//DTD SVG 1.1//EN"
 "http://www.w3.org/Graphics/SVG/1.1/DTD/svg11.dtd">
<!-- Generated by graphviz version 2.36.0 (20140111.2315)
 -->
<!-- Title: ui.TableModel.setValueAt Pages: 1 -->
<svg width="540pt" height="66pt"
 viewBox="0.00 0.00 540.00 66.00" xmlns="http://www.w3.org/2000/svg" xmlns:xlink="http://www.w3.org/1999/xlink">
<g id="graph0" class="graph" transform="scale(1 1) rotate(0) translate(4 62)">
<title>ui.TableModel.setValueAt</title>
<polygon fill="white" stroke="none" points="-4,4 -4,-62 536,-62 536,4 -4,4"/>
<!-- Node1 -->
<g id="node1" class="node"><title>Node1</title>
<polygon fill="#bfbfbf" stroke="black" points="0.5,-19.5 0.5,-38.5 135.5,-38.5 135.5,-19.5 0.5,-19.5"/>
<text text-anchor="middle" x="68" y="-26.5" font-family="Helvetica,sans-Serif" font-size="10.00">ui.TableModel.setValueAt</text>
</g>
<!-- Node2 -->
<g id="node2" class="node"><title>Node2</title>
<g id="a_node2"><a xlink:href="../../df/d63/classui_1_1_table_model.html#a1d86a3e805e21215cead145559e00b35" target="_top" xlink:title="ui.TableModel.printDebugData">
<polygon fill="white" stroke="black" points="172,-19.5 172,-38.5 332,-38.5 332,-19.5 172,-19.5"/>
<text text-anchor="middle" x="252" y="-26.5" font-family="Helvetica,sans-Serif" font-size="10.00">ui.TableModel.printDebugData</text>
</a>
</g>
</g>
<!-- Node1&#45;&gt;Node2 -->
<g id="edge1" class="edge"><title>Node1&#45;&gt;Node2</title>
<path fill="none" stroke="midnightblue" d="M135.737,-29C144.195,-29 152.955,-29 161.695,-29"/>
<polygon fill="midnightblue" stroke="midnightblue" points="161.925,-32.5001 171.925,-29 161.925,-25.5001 161.925,-32.5001"/>
</g>
<!-- Node3 -->
<g id="node3" class="node"><title>Node3</title>
<g id="a_node3"><a xlink:href="../../df/d63/classui_1_1_table_model.html#aabf87df61b3847fa684c339ceccf777a" target="_top" xlink:title="ui.TableModel.getColumnCount">
<polygon fill="white" stroke="black" points="368,-38.5 368,-57.5 532,-57.5 532,-38.5 368,-38.5"/>
<text text-anchor="middle" x="450" y="-45.5" font-family="Helvetica,sans-Serif" font-size="10.00">ui.TableModel.getColumnCount</text>
</a>
</g>
</g>
<!-- Node2&#45;&gt;Node3 -->
<g id="edge2" class="edge"><title>Node2&#45;&gt;Node3</title>
<path fill="none" stroke="midnightblue" d="M332.156,-36.6733C340.632,-37.4949 349.304,-38.3356 357.904,-39.1693"/>
<polygon fill="midnightblue" stroke="midnightblue" points="357.661,-42.662 367.952,-40.1433 358.336,-35.6947 357.661,-42.662"/>
</g>
<!-- Node4 -->
<g id="node4" class="node"><title>Node4</title>
<g id="a_node4"><a xlink:href="../../df/d63/classui_1_1_table_model.html#ae5810dc59e6a90eb52a3faf33a27e83f" target="_top" xlink:title="ui.TableModel.getRowCount">
<polygon fill="white" stroke="black" points="377,-0.5 377,-19.5 523,-19.5 523,-0.5 377,-0.5"/>
<text text-anchor="middle" x="450" y="-7.5" font-family="Helvetica,sans-Serif" font-size="10.00">ui.TableModel.getRowCount</text>
</a>
</g>
</g>
<!-- Node2&#45;&gt;Node4 -->
<g id="edge3" class="edge"><title>Node2&#45;&gt;Node4</title>
<path fill="none" stroke="midnightblue" d="M332.156,-21.3267C343.578,-20.2195 355.355,-19.0778 366.834,-17.9651"/>
<polygon fill="midnightblue" stroke="midnightblue" points="367.213,-21.4448 376.829,-16.9962 366.538,-14.4774 367.213,-21.4448"/>
</g>
</g>
</svg>
