<?xml version="1.0" encoding="UTF-8" standalone="no"?>
<!DOCTYPE svg PUBLIC "-//W3C//DTD SVG 1.1//EN"
 "http://www.w3.org/Graphics/SVG/1.1/DTD/svg11.dtd">
<!-- Generated by graphviz version 2.36.0 (20140111.2315)
 -->
<!-- Title: command.control.IfCommand.calculateValue Pages: 1 -->
<svg width="1062pt" height="299pt"
 viewBox="0.00 0.00 1062.00 299.00" xmlns="http://www.w3.org/2000/svg" xmlns:xlink="http://www.w3.org/1999/xlink">
<g id="graph0" class="graph" transform="scale(1 1) rotate(0) translate(4 295)">
<title>command.control.IfCommand.calculateValue</title>
<polygon fill="white" stroke="none" points="-4,4 -4,-295 1058,-295 1058,4 -4,4"/>
<!-- Node1 -->
<g id="node1" class="node"><title>Node1</title>
<polygon fill="#bfbfbf" stroke="black" points="0,-239 0,-269 206,-269 206,-239 0,-239"/>
<text text-anchor="start" x="8" y="-257" font-family="Helvetica,sans-Serif" font-size="10.00">command.control.IfCommand.calculate</text>
<text text-anchor="middle" x="103" y="-246" font-family="Helvetica,sans-Serif" font-size="10.00">Value</text>
</g>
<!-- Node2 -->
<g id="node2" class="node"><title>Node2</title>
<g id="a_node2"><a xlink:href="../../dc/d9e/classparser_1_1_command_tree_node.html#aea6176c10780becfc79a23924bb6fdc2" target="_top" xlink:title="parser.CommandTreeNode.get\lValue">
<polygon fill="white" stroke="black" points="252,-261 252,-291 416,-291 416,-261 252,-261"/>
<text text-anchor="start" x="260" y="-279" font-family="Helvetica,sans-Serif" font-size="10.00">parser.CommandTreeNode.get</text>
<text text-anchor="middle" x="334" y="-268" font-family="Helvetica,sans-Serif" font-size="10.00">Value</text>
</a>
</g>
</g>
<!-- Node1&#45;&gt;Node2 -->
<g id="edge1" class="edge"><title>Node1&#45;&gt;Node2</title>
<path fill="none" stroke="midnightblue" d="M206.11,-263.81C217.918,-264.944 229.903,-266.096 241.557,-267.215"/>
<polygon fill="midnightblue" stroke="midnightblue" points="241.41,-270.717 251.699,-268.189 242.08,-263.749 241.41,-270.717"/>
</g>
<!-- Node3 -->
<g id="node3" class="node"><title>Node3</title>
<g id="a_node3"><a xlink:href="../../d9/d88/classmodel_1_1_tree_interpreter.html#a501df6b8cfe1a8175a9da0ed96d30d6f" target="_top" xlink:title="model.TreeInterpreter.interpretTree">
<polygon fill="white" stroke="black" points="242.5,-222.5 242.5,-241.5 425.5,-241.5 425.5,-222.5 242.5,-222.5"/>
<text text-anchor="middle" x="334" y="-229.5" font-family="Helvetica,sans-Serif" font-size="10.00">model.TreeInterpreter.interpretTree</text>
</a>
</g>
</g>
<!-- Node1&#45;&gt;Node3 -->
<g id="edge2" class="edge"><title>Node1&#45;&gt;Node3</title>
<path fill="none" stroke="midnightblue" d="M206.11,-244.19C214.768,-243.359 223.522,-242.518 232.171,-241.687"/>
<polygon fill="midnightblue" stroke="midnightblue" points="232.643,-245.157 242.263,-240.717 231.974,-238.19 232.643,-245.157"/>
</g>
<!-- Node4 -->
<g id="node4" class="node"><title>Node4</title>
<g id="a_node4"><a xlink:href="../../dc/d9e/classparser_1_1_command_tree_node.html#a2700486f6a49c0a080114bee6e51f271" target="_top" xlink:title="parser.CommandTreeNode.get\lChildren">
<polygon fill="white" stroke="black" points="462,-261 462,-291 626,-291 626,-261 462,-261"/>
<text text-anchor="start" x="470" y="-279" font-family="Helvetica,sans-Serif" font-size="10.00">parser.CommandTreeNode.get</text>
<text text-anchor="middle" x="544" y="-268" font-family="Helvetica,sans-Serif" font-size="10.00">Children</text>
</a>
</g>
</g>
<!-- Node3&#45;&gt;Node4 -->
<g id="edge3" class="edge"><title>Node3&#45;&gt;Node4</title>
<path fill="none" stroke="midnightblue" d="M380.133,-241.547C403.969,-246.59 433.958,-252.933 461.685,-258.799"/>
<polygon fill="midnightblue" stroke="midnightblue" points="461.274,-262.289 471.782,-260.935 462.723,-255.441 461.274,-262.289"/>
</g>
<!-- Node5 -->
<g id="node5" class="node"><title>Node5</title>
<g id="a_node5"><a xlink:href="../../dc/d9e/classparser_1_1_command_tree_node.html#a8bb8a112395f78809b0be06f1c3f5282" target="_top" xlink:title="parser.CommandTreeNode.getType">
<polygon fill="white" stroke="black" points="864.5,-225.5 864.5,-244.5 1049.5,-244.5 1049.5,-225.5 864.5,-225.5"/>
<text text-anchor="middle" x="957" y="-232.5" font-family="Helvetica,sans-Serif" font-size="10.00">parser.CommandTreeNode.getType</text>
</a>
</g>
</g>
<!-- Node3&#45;&gt;Node5 -->
<g id="edge4" class="edge"><title>Node3&#45;&gt;Node5</title>
<path fill="none" stroke="midnightblue" d="M425.631,-232.438C539.71,-232.989 735.114,-233.933 854.218,-234.508"/>
<polygon fill="midnightblue" stroke="midnightblue" points="854.417,-238.009 864.433,-234.558 854.45,-231.009 854.417,-238.009"/>
</g>
<!-- Node6 -->
<g id="node6" class="node"><title>Node6</title>
<g id="a_node6"><a xlink:href="../../d9/d88/classmodel_1_1_tree_interpreter.html#a3e460e5ebe66f781afb480f0f0ec2ce7" target="_top" xlink:title="model.TreeInterpreter.update">
<polygon fill="white" stroke="black" points="466,-110.5 466,-129.5 622,-129.5 622,-110.5 466,-110.5"/>
<text text-anchor="middle" x="544" y="-117.5" font-family="Helvetica,sans-Serif" font-size="10.00">model.TreeInterpreter.update</text>
</a>
</g>
</g>
<!-- Node3&#45;&gt;Node6 -->
<g id="edge5" class="edge"><title>Node3&#45;&gt;Node6</title>
<path fill="none" stroke="midnightblue" d="M352.734,-222.451C389.268,-202.779 473.104,-157.636 516.256,-134.4"/>
<polygon fill="midnightblue" stroke="midnightblue" points="518.166,-137.348 525.311,-129.525 514.847,-131.184 518.166,-137.348"/>
</g>
<!-- Node6&#45;&gt;Node5 -->
<g id="edge6" class="edge"><title>Node6&#45;&gt;Node5</title>
<path fill="none" stroke="midnightblue" d="M566.684,-129.523C589.94,-139.5 628.104,-155.195 662,-166 748.372,-193.534 771.61,-194.863 860,-215 872.443,-217.835 885.83,-220.724 898.541,-223.393"/>
<polygon fill="midnightblue" stroke="midnightblue" points="898.056,-226.867 908.56,-225.481 899.485,-220.015 898.056,-226.867"/>
</g>
<!-- Node7 -->
<g id="node7" class="node"><title>Node7</title>
<g id="a_node7"><a xlink:href="../../d9/d88/classmodel_1_1_tree_interpreter.html#af4d24e7867eb3a4a53f79f4a9288f9fd" target="_top" xlink:title="model.TreeInterpreter.execute\lCommand">
<polygon fill="white" stroke="black" points="662.5,-127 662.5,-157 823.5,-157 823.5,-127 662.5,-127"/>
<text text-anchor="start" x="670.5" y="-145" font-family="Helvetica,sans-Serif" font-size="10.00">model.TreeInterpreter.execute</text>
<text text-anchor="middle" x="743" y="-134" font-family="Helvetica,sans-Serif" font-size="10.00">Command</text>
</a>
</g>
</g>
<!-- Node6&#45;&gt;Node7 -->
<g id="edge7" class="edge"><title>Node6&#45;&gt;Node7</title>
<path fill="none" stroke="midnightblue" d="M622.012,-128.6C631.967,-129.712 642.23,-130.858 652.367,-131.99"/>
<polygon fill="midnightblue" stroke="midnightblue" points="652.119,-135.484 662.445,-133.116 652.896,-128.527 652.119,-135.484"/>
</g>
<!-- Node9 -->
<g id="node9" class="node"><title>Node9</title>
<g id="a_node9"><a xlink:href="../../dc/d9e/classparser_1_1_command_tree_node.html#a73e4ab6ebca47d41b993f0e66ee4c8d2" target="_top" xlink:title="parser.CommandTreeNode.getName">
<polygon fill="white" stroke="black" points="860.5,-88.5 860.5,-107.5 1053.5,-107.5 1053.5,-88.5 860.5,-88.5"/>
<text text-anchor="middle" x="957" y="-95.5" font-family="Helvetica,sans-Serif" font-size="10.00">parser.CommandTreeNode.getName</text>
</a>
</g>
</g>
<!-- Node6&#45;&gt;Node9 -->
<g id="edge13" class="edge"><title>Node6&#45;&gt;Node9</title>
<path fill="none" stroke="midnightblue" d="M622.306,-115.862C686.579,-112.422 778.709,-107.49 849.887,-103.68"/>
<polygon fill="midnightblue" stroke="midnightblue" points="850.432,-107.156 860.23,-103.126 850.058,-100.166 850.432,-107.156"/>
</g>
<!-- Node11 -->
<g id="node11" class="node"><title>Node11</title>
<g id="a_node11"><a xlink:href="../../dc/d9e/classparser_1_1_command_tree_node.html#a3d691b68da13689c03ebd9de665c379c" target="_top" xlink:title="parser.CommandTreeNode.set\lValue">
<polygon fill="white" stroke="black" points="875.5,-39 875.5,-69 1038.5,-69 1038.5,-39 875.5,-39"/>
<text text-anchor="start" x="883.5" y="-57" font-family="Helvetica,sans-Serif" font-size="10.00">parser.CommandTreeNode.set</text>
<text text-anchor="middle" x="957" y="-46" font-family="Helvetica,sans-Serif" font-size="10.00">Value</text>
</a>
</g>
</g>
<!-- Node6&#45;&gt;Node11 -->
<g id="edge14" class="edge"><title>Node6&#45;&gt;Node11</title>
<path fill="none" stroke="midnightblue" d="M604.324,-110.474C672.756,-99.4844 786.027,-81.295 865.481,-68.5359"/>
<polygon fill="midnightblue" stroke="midnightblue" points="866.166,-71.9709 875.484,-66.9296 865.056,-65.0594 866.166,-71.9709"/>
</g>
<!-- Node12 -->
<g id="node12" class="node"><title>Node12</title>
<g id="a_node12"><a xlink:href="../../db/d55/classmodel_1_1_variable_list.html#a09697cca38c12cf837ee40e71d02f78b" target="_top" xlink:title="model.VariableList.get">
<polygon fill="white" stroke="black" points="681.5,-6.5 681.5,-25.5 804.5,-25.5 804.5,-6.5 681.5,-6.5"/>
<text text-anchor="middle" x="743" y="-13.5" font-family="Helvetica,sans-Serif" font-size="10.00">model.VariableList.get</text>
</a>
</g>
</g>
<!-- Node6&#45;&gt;Node12 -->
<g id="edge15" class="edge"><title>Node6&#45;&gt;Node12</title>
<path fill="none" stroke="midnightblue" d="M557.341,-110.324C578.005,-94.4906 621.348,-62.8269 662,-43 673.219,-37.528 685.827,-32.7089 697.657,-28.7138"/>
<polygon fill="midnightblue" stroke="midnightblue" points="698.938,-31.9777 707.365,-25.5554 696.772,-25.3211 698.938,-31.9777"/>
</g>
<!-- Node7&#45;&gt;Node5 -->
<g id="edge9" class="edge"><title>Node7&#45;&gt;Node5</title>
<path fill="none" stroke="midnightblue" d="M787.206,-157.171C799.634,-162.503 812.836,-169.157 824,-177 843.036,-190.373 839.684,-203.665 860,-215 864.878,-217.722 870.083,-220.074 875.451,-222.108"/>
<polygon fill="midnightblue" stroke="midnightblue" points="874.658,-225.535 885.253,-225.434 876.908,-218.906 874.658,-225.535"/>
</g>
<!-- Node8 -->
<g id="node8" class="node"><title>Node8</title>
<g id="a_node8"><a xlink:href="../../db/d10/classmodel_1_1_command_factory.html#a3982ff8b4387b7e50c9ec4350ee01733" target="_top" xlink:title="model.CommandFactory.create\lCommand">
<polygon fill="white" stroke="black" points="873.5,-176 873.5,-206 1040.5,-206 1040.5,-176 873.5,-176"/>
<text text-anchor="start" x="881.5" y="-194" font-family="Helvetica,sans-Serif" font-size="10.00">model.CommandFactory.create</text>
<text text-anchor="middle" x="957" y="-183" font-family="Helvetica,sans-Serif" font-size="10.00">Command</text>
</a>
</g>
</g>
<!-- Node7&#45;&gt;Node8 -->
<g id="edge8" class="edge"><title>Node7&#45;&gt;Node8</title>
<path fill="none" stroke="midnightblue" d="M809.048,-157.035C831.839,-162.302 857.615,-168.26 881.144,-173.698"/>
<polygon fill="midnightblue" stroke="midnightblue" points="880.544,-177.152 891.075,-175.994 882.12,-170.332 880.544,-177.152"/>
</g>
<!-- Node7&#45;&gt;Node9 -->
<g id="edge10" class="edge"><title>Node7&#45;&gt;Node9</title>
<path fill="none" stroke="midnightblue" d="M812.966,-126.936C828.431,-123.614 844.768,-120.148 860,-117 871.959,-114.528 884.77,-111.947 897.012,-109.512"/>
<polygon fill="midnightblue" stroke="midnightblue" points="898.001,-112.884 907.13,-107.507 896.641,-106.017 898.001,-112.884"/>
</g>
<!-- Node10 -->
<g id="node10" class="node"><title>Node10</title>
<g id="a_node10"><a xlink:href="../../d9/d88/classmodel_1_1_tree_interpreter.html#adc0cf2c5819ec7f42db4e37db51b1893" target="_top" xlink:title="model.TreeInterpreter.get\lConstructors">
<polygon fill="white" stroke="black" points="888,-127 888,-157 1026,-157 1026,-127 888,-127"/>
<text text-anchor="start" x="896" y="-145" font-family="Helvetica,sans-Serif" font-size="10.00">model.TreeInterpreter.get</text>
<text text-anchor="middle" x="957" y="-134" font-family="Helvetica,sans-Serif" font-size="10.00">Constructors</text>
</a>
</g>
</g>
<!-- Node7&#45;&gt;Node10 -->
<g id="edge11" class="edge"><title>Node7&#45;&gt;Node10</title>
<path fill="none" stroke="midnightblue" d="M823.544,-142C841.223,-142 859.951,-142 877.584,-142"/>
<polygon fill="midnightblue" stroke="midnightblue" points="877.823,-145.5 887.823,-142 877.823,-138.5 877.823,-145.5"/>
</g>
<!-- Node7&#45;&gt;Node11 -->
<g id="edge12" class="edge"><title>Node7&#45;&gt;Node11</title>
<path fill="none" stroke="midnightblue" d="M767.612,-126.952C790.488,-112.918 826.535,-92.2169 860,-79 866.296,-76.5134 872.922,-74.201 879.627,-72.068"/>
<polygon fill="midnightblue" stroke="midnightblue" points="880.931,-75.3299 889.48,-69.0718 878.894,-68.6327 880.931,-75.3299"/>
</g>
<!-- Node13 -->
<g id="node13" class="node"><title>Node13</title>
<g id="a_node13"><a xlink:href="../../db/d55/classmodel_1_1_variable_list.html#a0adb554303c7191db1da43ddb5fa2c45" target="_top" xlink:title="model.VariableList.add">
<polygon fill="white" stroke="black" points="894.5,-0.5 894.5,-19.5 1019.5,-19.5 1019.5,-0.5 894.5,-0.5"/>
<text text-anchor="middle" x="957" y="-7.5" font-family="Helvetica,sans-Serif" font-size="10.00">model.VariableList.add</text>
</a>
</g>
</g>
<!-- Node12&#45;&gt;Node13 -->
<g id="edge16" class="edge"><title>Node12&#45;&gt;Node13</title>
<path fill="none" stroke="midnightblue" d="M804.751,-14.2806C829.486,-13.5806 858.269,-12.766 884.047,-12.0364"/>
<polygon fill="midnightblue" stroke="midnightblue" points="884.24,-15.5325 894.137,-11.7509 884.042,-8.53526 884.24,-15.5325"/>
</g>
</g>
</svg>
