<?xml version="1.0" encoding="UTF-8" standalone="no"?>
<!DOCTYPE svg PUBLIC "-//W3C//DTD SVG 1.1//EN"
 "http://www.w3.org/Graphics/SVG/1.1/DTD/svg11.dtd">
<!-- Generated by graphviz version 2.36.0 (20140111.2315)
 -->
<!-- Title: command.control.MakeVariableCommand Pages: 1 -->
<svg width="442pt" height="198pt"
 viewBox="0.00 0.00 442.00 198.00" xmlns="http://www.w3.org/2000/svg" xmlns:xlink="http://www.w3.org/1999/xlink">
<g id="graph0" class="graph" transform="scale(1 1) rotate(0) translate(4 194)">
<title>command.control.MakeVariableCommand</title>
<polygon fill="white" stroke="none" points="-4,4 -4,-194 438,-194 438,4 -4,4"/>
<!-- Node1 -->
<g id="node1" class="node"><title>Node1</title>
<polygon fill="#bfbfbf" stroke="black" points="105,-1 105,-31 273,-31 273,-1 105,-1"/>
<text text-anchor="start" x="113" y="-19" font-family="Helvetica,sans-Serif" font-size="10.00">command.control.MakeVariable</text>
<text text-anchor="middle" x="189" y="-8" font-family="Helvetica,sans-Serif" font-size="10.00">Command</text>
</g>
<!-- Node2 -->
<g id="node2" class="node"><title>Node2</title>
<g id="a_node2"><a xlink:href="../../d7/d35/classcommand_1_1_command.html" target="_top" xlink:title="command.Command">
<polygon fill="white" stroke="black" points="-0.5,-90.5 -0.5,-109.5 118.5,-109.5 118.5,-90.5 -0.5,-90.5"/>
<text text-anchor="middle" x="59" y="-97.5" font-family="Helvetica,sans-Serif" font-size="10.00">command.Command</text>
</a>
</g>
</g>
<!-- Node2&#45;&gt;Node1 -->
<g id="edge1" class="edge"><title>Node2&#45;&gt;Node1</title>
<path fill="none" stroke="midnightblue" d="M81.6256,-84.7284C105.451,-69.6999 142.74,-46.1793 166.513,-31.1839"/>
<polygon fill="midnightblue" stroke="midnightblue" points="79.503,-81.9292 72.9123,-90.2246 83.2375,-87.8498 79.503,-81.9292"/>
</g>
<!-- Node3 -->
<g id="node3" class="node"><title>Node3</title>
<g id="a_node3"><a xlink:href="../../db/d55/classmodel_1_1_variable_list.html" target="_top" xlink:title="model.VariableList">
<polygon fill="white" stroke="black" points="137,-90.5 137,-109.5 241,-109.5 241,-90.5 137,-90.5"/>
<text text-anchor="middle" x="189" y="-97.5" font-family="Helvetica,sans-Serif" font-size="10.00">model.VariableList</text>
</a>
</g>
</g>
<!-- Node3&#45;&gt;Node1 -->
<g id="edge2" class="edge"><title>Node3&#45;&gt;Node1</title>
<path fill="none" stroke="#9a32cd" stroke-dasharray="5,2" d="M189,-80.1139C189,-65.2014 189,-44.7195 189,-31.1839"/>
<polygon fill="#9a32cd" stroke="#9a32cd" points="185.5,-80.2245 189,-90.2246 192.5,-80.2246 185.5,-80.2245"/>
<text text-anchor="middle" x="212" y="-58.5" font-family="Helvetica,sans-Serif" font-size="10.00"> variables</text>
</g>
<!-- Node4 -->
<g id="node4" class="node"><title>Node4</title>
<polygon fill="white" stroke="#bfbfbf" points="88.5,-164.5 88.5,-183.5 269.5,-183.5 269.5,-164.5 88.5,-164.5"/>
<text text-anchor="middle" x="179" y="-171.5" font-family="Helvetica,sans-Serif" font-size="10.00">ObservableList&lt; model.Variable &gt;</text>
</g>
<!-- Node4&#45;&gt;Node3 -->
<g id="edge3" class="edge"><title>Node4&#45;&gt;Node3</title>
<path fill="none" stroke="#9a32cd" stroke-dasharray="5,2" d="M181.617,-154.156C183.623,-139.712 186.297,-120.459 187.815,-109.531"/>
<polygon fill="#9a32cd" stroke="#9a32cd" points="178.095,-154.071 180.186,-164.458 185.029,-155.035 178.095,-154.071"/>
<text text-anchor="middle" x="194.5" y="-131.5" font-family="Helvetica,sans-Serif" font-size="10.00"> list</text>
</g>
<!-- Node5 -->
<g id="node5" class="node"><title>Node5</title>
<g id="a_node5"><a xlink:href="../../dc/d9e/classparser_1_1_command_tree_node.html" target="_top" xlink:title="parser.CommandTreeNode">
<polygon fill="white" stroke="black" points="278.5,-90.5 278.5,-109.5 423.5,-109.5 423.5,-90.5 278.5,-90.5"/>
<text text-anchor="middle" x="351" y="-97.5" font-family="Helvetica,sans-Serif" font-size="10.00">parser.CommandTreeNode</text>
</a>
</g>
</g>
<!-- Node5&#45;&gt;Node1 -->
<g id="edge4" class="edge"><title>Node5&#45;&gt;Node1</title>
<path fill="none" stroke="#9a32cd" stroke-dasharray="5,2" d="M324.674,-85.6743C295.039,-70.6743 247.094,-46.4057 216.85,-31.0967"/>
<polygon fill="#9a32cd" stroke="#9a32cd" points="323.467,-88.9861 333.969,-90.3795 326.628,-82.7406 323.467,-88.9861"/>
<text text-anchor="middle" x="308.5" y="-64" font-family="Helvetica,sans-Serif" font-size="10.00"> value</text>
<text text-anchor="middle" x="308.5" y="-53" font-family="Helvetica,sans-Serif" font-size="10.00">var</text>
</g>
<!-- Node6 -->
<g id="node6" class="node"><title>Node6</title>
<polygon fill="white" stroke="#bfbfbf" points="287.5,-159 287.5,-189 434.5,-189 434.5,-159 287.5,-159"/>
<text text-anchor="start" x="295.5" y="-177" font-family="Helvetica,sans-Serif" font-size="10.00">List&lt; parser.CommandTree</text>
<text text-anchor="middle" x="361" y="-166" font-family="Helvetica,sans-Serif" font-size="10.00">Node &gt;</text>
</g>
<!-- Node6&#45;&gt;Node5 -->
<g id="edge5" class="edge"><title>Node6&#45;&gt;Node5</title>
<path fill="none" stroke="#9a32cd" stroke-dasharray="5,2" d="M357.623,-148.688C355.757,-135.253 353.553,-119.38 352.217,-109.759"/>
<polygon fill="#9a32cd" stroke="#9a32cd" points="354.182,-149.352 359.024,-158.775 361.115,-148.389 354.182,-149.352"/>
<text text-anchor="middle" x="386" y="-131.5" font-family="Helvetica,sans-Serif" font-size="10.00"> myChildren</text>
</g>
</g>
</svg>
