<?xml version="1.0" encoding="UTF-8" standalone="no"?>
<!DOCTYPE svg PUBLIC "-//W3C//DTD SVG 1.1//EN"
 "http://www.w3.org/Graphics/SVG/1.1/DTD/svg11.dtd">
<!-- Generated by graphviz version 2.36.0 (20140111.2315)
 -->
<!-- Title: model.Turtle.getHeading Pages: 1 -->
<svg width="418pt" height="273pt"
 viewBox="0.00 0.00 418.00 273.00" xmlns="http://www.w3.org/2000/svg" xmlns:xlink="http://www.w3.org/1999/xlink">
<g id="graph0" class="graph" transform="scale(1 1) rotate(0) translate(4 269)">
<title>model.Turtle.getHeading</title>
<polygon fill="white" stroke="none" points="-4,4 -4,-269 414,-269 414,4 -4,4"/>
<!-- Node1 -->
<g id="node1" class="node"><title>Node1</title>
<polygon fill="#bfbfbf" stroke="black" points="0,-117.5 0,-136.5 134,-136.5 134,-117.5 0,-117.5"/>
<text text-anchor="middle" x="67" y="-124.5" font-family="Helvetica,sans-Serif" font-size="10.00">model.Turtle.getHeading</text>
</g>
<!-- Node2 -->
<g id="node2" class="node"><title>Node2</title>
<g id="a_node2"><a xlink:href="../../d9/d69/classcommand_1_1turtle_1_1_right_command.html#aaa862b47aa679520e6975a9f5a655438" target="_top" xlink:title="command.turtle.RightCommand.calculate\lValue">
<polygon fill="white" stroke="black" points="181.5,-235 181.5,-265 398.5,-265 398.5,-235 181.5,-235"/>
<text text-anchor="start" x="189.5" y="-253" font-family="Helvetica,sans-Serif" font-size="10.00">command.turtle.RightCommand.calculate</text>
<text text-anchor="middle" x="290" y="-242" font-family="Helvetica,sans-Serif" font-size="10.00">Value</text>
</a>
</g>
</g>
<!-- Node1&#45;&gt;Node2 -->
<g id="edge1" class="edge"><title>Node1&#45;&gt;Node2</title>
<path fill="none" stroke="midnightblue" d="M81.0897,-144.61C98.7107,-166.972 132.242,-205.042 170,-225 177.372,-228.897 185.303,-232.186 193.443,-234.963"/>
<polygon fill="midnightblue" stroke="midnightblue" points="83.8113,-142.408 74.9408,-136.614 78.2623,-146.675 83.8113,-142.408"/>
</g>
<!-- Node3 -->
<g id="node3" class="node"><title>Node3</title>
<g id="a_node3"><a xlink:href="../../d1/d9f/classcommand_1_1turtle_1_1_heading_command.html#a5314c22a8348ff001a1d9affef7249ca" target="_top" xlink:title="command.turtle.HeadingCommand.calculate\lValue">
<polygon fill="white" stroke="black" points="173.5,-186 173.5,-216 406.5,-216 406.5,-186 173.5,-186"/>
<text text-anchor="start" x="181.5" y="-204" font-family="Helvetica,sans-Serif" font-size="10.00">command.turtle.HeadingCommand.calculate</text>
<text text-anchor="middle" x="290" y="-193" font-family="Helvetica,sans-Serif" font-size="10.00">Value</text>
</a>
</g>
</g>
<!-- Node1&#45;&gt;Node3 -->
<g id="edge2" class="edge"><title>Node1&#45;&gt;Node3</title>
<path fill="none" stroke="midnightblue" d="M93.6737,-141.473C113.874,-152.328 143.022,-166.836 170,-176 181.094,-179.768 192.971,-183.078 204.769,-185.95"/>
<polygon fill="midnightblue" stroke="midnightblue" points="95.2482,-138.345 84.7937,-136.626 91.8944,-144.49 95.2482,-138.345"/>
</g>
<!-- Node4 -->
<g id="node4" class="node"><title>Node4</title>
<g id="a_node4"><a xlink:href="../../da/d7e/classcommand_1_1turtle_1_1_forward_command.html#a443575ff67afc5873d2c1f78d89b7feb" target="_top" xlink:title="command.turtle.ForwardCommand.calculate\lValue">
<polygon fill="white" stroke="black" points="175,-137 175,-167 405,-167 405,-137 175,-137"/>
<text text-anchor="start" x="183" y="-155" font-family="Helvetica,sans-Serif" font-size="10.00">command.turtle.ForwardCommand.calculate</text>
<text text-anchor="middle" x="290" y="-144" font-family="Helvetica,sans-Serif" font-size="10.00">Value</text>
</a>
</g>
</g>
<!-- Node1&#45;&gt;Node4 -->
<g id="edge3" class="edge"><title>Node1&#45;&gt;Node4</title>
<path fill="none" stroke="midnightblue" d="M144.222,-135.622C154.182,-136.749 164.554,-137.922 174.969,-139.101"/>
<polygon fill="midnightblue" stroke="midnightblue" points="144.338,-132.113 134.008,-134.467 143.551,-139.069 144.338,-132.113"/>
</g>
<!-- Node5 -->
<g id="node5" class="node"><title>Node5</title>
<g id="a_node5"><a xlink:href="../../db/d9d/classcommand_1_1turtle_1_1_left_command.html#ac019428d4af8546f70d6c3aa6ffb36de" target="_top" xlink:title="command.turtle.LeftCommand.calculate\lValue">
<polygon fill="white" stroke="black" points="184.5,-88 184.5,-118 395.5,-118 395.5,-88 184.5,-88"/>
<text text-anchor="start" x="192.5" y="-106" font-family="Helvetica,sans-Serif" font-size="10.00">command.turtle.LeftCommand.calculate</text>
<text text-anchor="middle" x="290" y="-95" font-family="Helvetica,sans-Serif" font-size="10.00">Value</text>
</a>
</g>
</g>
<!-- Node1&#45;&gt;Node5 -->
<g id="edge4" class="edge"><title>Node1&#45;&gt;Node5</title>
<path fill="none" stroke="midnightblue" d="M144.25,-118.719C157.228,-117.31 170.905,-115.825 184.462,-114.353"/>
<polygon fill="midnightblue" stroke="midnightblue" points="143.572,-115.272 134.008,-119.832 144.327,-122.232 143.572,-115.272"/>
</g>
<!-- Node6 -->
<g id="node6" class="node"><title>Node6</title>
<g id="a_node6"><a xlink:href="../../d2/daf/classcommand_1_1turtle_1_1_backward_command.html#a0395fc1ee91a90dc335193fc10b791a1" target="_top" xlink:title="command.turtle.BackwardCommand.calculate\lValue">
<polygon fill="white" stroke="black" points="170.5,-39 170.5,-69 409.5,-69 409.5,-39 170.5,-39"/>
<text text-anchor="start" x="178.5" y="-57" font-family="Helvetica,sans-Serif" font-size="10.00">command.turtle.BackwardCommand.calculate</text>
<text text-anchor="middle" x="290" y="-46" font-family="Helvetica,sans-Serif" font-size="10.00">Value</text>
</a>
</g>
</g>
<!-- Node1&#45;&gt;Node6 -->
<g id="edge5" class="edge"><title>Node1&#45;&gt;Node6</title>
<path fill="none" stroke="midnightblue" d="M94.073,-112.657C114.278,-102.058 143.248,-87.9681 170,-79 181.209,-75.2424 193.208,-71.9325 205.116,-69.0542"/>
<polygon fill="midnightblue" stroke="midnightblue" points="92.3569,-109.606 85.1763,-117.396 95.6478,-115.784 92.3569,-109.606"/>
</g>
<!-- Node7 -->
<g id="node7" class="node"><title>Node7</title>
<g id="a_node7"><a xlink:href="../../d3/db6/classui_1_1_turtle_view.html#a08c1ab80fb36ee57f17dcdd42bcf9143" target="_top" xlink:title="ui.TurtleView.update">
<polygon fill="white" stroke="black" points="234.5,-0.5 234.5,-19.5 345.5,-19.5 345.5,-0.5 234.5,-0.5"/>
<text text-anchor="middle" x="290" y="-7.5" font-family="Helvetica,sans-Serif" font-size="10.00">ui.TurtleView.update</text>
</a>
</g>
</g>
<!-- Node1&#45;&gt;Node7 -->
<g id="edge6" class="edge"><title>Node1&#45;&gt;Node7</title>
<path fill="none" stroke="midnightblue" d="M81.0097,-109.336C98.5444,-86.95 131.982,-48.9969 170,-30 189.771,-20.1208 213.456,-14.9876 234.472,-12.3664"/>
<polygon fill="midnightblue" stroke="midnightblue" points="78.1799,-107.275 74.894,-117.347 83.744,-111.522 78.1799,-107.275"/>
</g>
</g>
</svg>
