<?xml version="1.0" encoding="UTF-8" standalone="no"?>
<!DOCTYPE svg PUBLIC "-//W3C//DTD SVG 1.1//EN"
 "http://www.w3.org/Graphics/SVG/1.1/DTD/svg11.dtd">
<!-- Generated by graphviz version 2.36.0 (20140111.2315)
 -->
<!-- Title: model.Turtle.getVisibility Pages: 1 -->
<svg width="320pt" height="77pt"
 viewBox="0.00 0.00 320.00 77.00" xmlns="http://www.w3.org/2000/svg" xmlns:xlink="http://www.w3.org/1999/xlink">
<g id="graph0" class="graph" transform="scale(1 1) rotate(0) translate(4 73)">
<title>model.Turtle.getVisibility</title>
<polygon fill="white" stroke="none" points="-4,4 -4,-73 316,-73 316,4 -4,4"/>
<!-- Node1 -->
<g id="node1" class="node"><title>Node1</title>
<polygon fill="#bfbfbf" stroke="black" points="0,-22.5 0,-41.5 132,-41.5 132,-22.5 0,-22.5"/>
<text text-anchor="middle" x="66" y="-29.5" font-family="Helvetica,sans-Serif" font-size="10.00">model.Turtle.getVisibility</text>
</g>
<!-- Node2 -->
<g id="node2" class="node"><title>Node2</title>
<g id="a_node2"><a xlink:href="../../df/df9/classcommand_1_1turtle_1_1_is_showing_command.html#a2a87c3e2e61ed63b17d8c792e228f696" target="_top" xlink:title="command.turtle.IsShowing\lCommand.calculateValue">
<polygon fill="white" stroke="black" points="168,-39 168,-69 312,-69 312,-39 168,-39"/>
<text text-anchor="start" x="176" y="-57" font-family="Helvetica,sans-Serif" font-size="10.00">command.turtle.IsShowing</text>
<text text-anchor="middle" x="240" y="-46" font-family="Helvetica,sans-Serif" font-size="10.00">Command.calculateValue</text>
</a>
</g>
</g>
<!-- Node1&#45;&gt;Node2 -->
<g id="edge1" class="edge"><title>Node1&#45;&gt;Node2</title>
<path fill="none" stroke="midnightblue" d="M142.009,-41.5941C150.589,-42.6916 159.317,-43.808 167.844,-44.8987"/>
<polygon fill="midnightblue" stroke="midnightblue" points="142.389,-38.1144 132.026,-40.3173 141.501,-45.0578 142.389,-38.1144"/>
</g>
<!-- Node3 -->
<g id="node3" class="node"><title>Node3</title>
<g id="a_node3"><a xlink:href="../../d3/db6/classui_1_1_turtle_view.html#a08c1ab80fb36ee57f17dcdd42bcf9143" target="_top" xlink:title="ui.TurtleView.update">
<polygon fill="white" stroke="black" points="184.5,-0.5 184.5,-19.5 295.5,-19.5 295.5,-0.5 184.5,-0.5"/>
<text text-anchor="middle" x="240" y="-7.5" font-family="Helvetica,sans-Serif" font-size="10.00">ui.TurtleView.update</text>
</a>
</g>
</g>
<!-- Node1&#45;&gt;Node3 -->
<g id="edge2" class="edge"><title>Node1&#45;&gt;Node3</title>
<path fill="none" stroke="midnightblue" d="M142.229,-22.3776C156.369,-20.5691 170.903,-18.7101 184.27,-17.0004"/>
<polygon fill="midnightblue" stroke="midnightblue" points="141.501,-18.9422 132.026,-23.6827 142.389,-25.8856 141.501,-18.9422"/>
</g>
</g>
</svg>
