<?xml version="1.0" encoding="UTF-8" standalone="no"?>
<!DOCTYPE svg PUBLIC "-//W3C//DTD SVG 1.1//EN"
 "http://www.w3.org/Graphics/SVG/1.1/DTD/svg11.dtd">
<!-- Generated by graphviz version 2.36.0 (20140111.2315)
 -->
<!-- Title: model.Turtle.updateTurtleViewers Pages: 1 -->
<!--zoomable 626 -->
<svg id="main" version="1.1" xmlns="http://www.w3.org/2000/svg" xmlns:xlink="http://www.w3.org/1999/xlink" xml:space="preserve" onload="init(evt)">
<style type="text/css"><![CDATA[
.edge:hover path { stroke: red; }
.edge:hover polygon { stroke: red; fill: red; }
]]></style>
<script type="text/javascript"><![CDATA[
var edges = document.getElementsByTagName('g');
if (edges && edges.length) {
  for (var i=0;i<edges.length;i++) {
    if (edges[i].id.substr(0,4)=='edge') {
      edges[i].setAttribute('class','edge');
    }
  }
}
]]></script>
        <defs>
                <circle id="rim" cx="0" cy="0" r="7"/>
                <circle id="rim2" cx="0" cy="0" r="3.5"/>
                <g id="zoomPlus">
                        <use xlink:href="#rim" fill="#404040">
                                <set attributeName="fill" to="#808080" begin="zoomplus.mouseover" end="zoomplus.mouseout"/>
                        </use>
                        <path d="M-4,0h8M0,-4v8" fill="none" stroke="white" stroke-width="1.5" pointer-events="none"/>
                </g>
                <g id="zoomMin">
                        <use xlink:href="#rim" fill="#404040">
                                <set attributeName="fill" to="#808080" begin="zoomminus.mouseover" end="zoomminus.mouseout"/>
                        </use>
                        <path d="M-4,0h8" fill="none" stroke="white" stroke-width="1.5" pointer-events="none"/>
                </g>
                <g id="dirArrow">
                        <path fill="none" stroke="white" stroke-width="1.5" d="M0,-3.0v7 M-2.5,-0.5L0,-3.0L2.5,-0.5"/>
                </g>
               <g id="resetDef">
                       <use xlink:href="#rim2" fill="#404040">
                               <set attributeName="fill" to="#808080" begin="reset.mouseover" end="reset.mouseout"/>
                       </use>
               </g>
        </defs>

<script type="text/javascript">
var viewWidth = 422;
var viewHeight = 626;
var sectionId = 'dynsection-13';
</script>
<script xlink:href="../../svgpan.js"/>
<svg id="graph" class="graph">
<g id="viewport">
<title>model.Turtle.updateTurtleViewers</title>
<polygon fill="white" stroke="none" points="-4,4 -4,-622 418,-622 418,4 -4,4"/>
<!-- Node1 -->
<g id="node1" class="node"><title>Node1</title>
<polygon fill="#bfbfbf" stroke="black" points="0.5,-294 0.5,-324 137.5,-324 137.5,-294 0.5,-294"/>
<text text-anchor="start" x="8.5" y="-312" font-family="Helvetica,sans-Serif" font-size="10.00">model.Turtle.updateTurtle</text>
<text text-anchor="middle" x="69" y="-301" font-family="Helvetica,sans-Serif" font-size="10.00">Viewers</text>
</g>
<!-- Node2 -->
<g id="node2" class="node"><title>Node2</title>
<g id="a_node2"><a xlink:href="../../d9/d93/classcommand_1_1turtle_1_1_home_command.html#a7bfe956b631e13d950aa71b2c08f648f" target="_top" xlink:title="command.turtle.HomeCommand.calculate\lValue">
<polygon fill="white" stroke="black" points="183,-588 183,-618 405,-618 405,-588 183,-588"/>
<text text-anchor="start" x="191" y="-606" font-family="Helvetica,sans-Serif" font-size="10.00">command.turtle.HomeCommand.calculate</text>
<text text-anchor="middle" x="294" y="-595" font-family="Helvetica,sans-Serif" font-size="10.00">Value</text>
</a>
</g>
</g>
<!-- Node1&#45;&gt;Node2 -->
<g id="edge1" class="edge"><title>Node1&#45;&gt;Node2</title>
<path fill="none" stroke="midnightblue" d="M71.9355,-334.007C77.4872,-387.562 98.3328,-513.685 174,-578 178.504,-581.828 183.446,-585.118 188.677,-587.941"/>
<polygon fill="midnightblue" stroke="midnightblue" points="75.4167,-333.643 70.9929,-324.016 68.4476,-334.3 75.4167,-333.643"/>
</g>
<!-- Node3 -->
<g id="node3" class="node"><title>Node3</title>
<g id="a_node3"><a xlink:href="../../d9/d48/classcommand_1_1turtle_1_1_pen_up_command.html#ab16f45461382237eec3dba9509218e02" target="_top" xlink:title="command.turtle.PenUpCommand.calculate\lValue">
<polygon fill="white" stroke="black" points="182,-539 182,-569 406,-569 406,-539 182,-539"/>
<text text-anchor="start" x="190" y="-557" font-family="Helvetica,sans-Serif" font-size="10.00">command.turtle.PenUpCommand.calculate</text>
<text text-anchor="middle" x="294" y="-546" font-family="Helvetica,sans-Serif" font-size="10.00">Value</text>
</a>
</g>
</g>
<!-- Node1&#45;&gt;Node3 -->
<g id="edge2" class="edge"><title>Node1&#45;&gt;Node3</title>
<path fill="none" stroke="midnightblue" d="M74.3646,-334.215C83.7646,-380.497 110.448,-478.843 174,-529 178.889,-532.858 184.231,-536.159 189.857,-538.98"/>
<polygon fill="midnightblue" stroke="midnightblue" points="77.7526,-333.299 72.427,-324.14 70.8785,-334.621 77.7526,-333.299"/>
</g>
<!-- Node4 -->
<g id="node4" class="node"><title>Node4</title>
<g id="a_node4"><a xlink:href="../../d3/d1b/classcommand_1_1turtle_1_1_pen_down_command.html#a4688a636ecc9c4d31ca633f07778ca18" target="_top" xlink:title="command.turtle.PenDownCommand.calculate\lValue">
<polygon fill="white" stroke="black" points="175.5,-490 175.5,-520 412.5,-520 412.5,-490 175.5,-490"/>
<text text-anchor="start" x="183.5" y="-508" font-family="Helvetica,sans-Serif" font-size="10.00">command.turtle.PenDownCommand.calculate</text>
<text text-anchor="middle" x="294" y="-497" font-family="Helvetica,sans-Serif" font-size="10.00">Value</text>
</a>
</g>
</g>
<!-- Node1&#45;&gt;Node4 -->
<g id="edge3" class="edge"><title>Node1&#45;&gt;Node4</title>
<path fill="none" stroke="midnightblue" d="M77.9253,-333.942C91.3144,-371.821 122.144,-443.313 174,-480 179.429,-483.841 185.323,-487.115 191.486,-489.903"/>
<polygon fill="midnightblue" stroke="midnightblue" points="81.1464,-332.543 74.6083,-324.206 74.5204,-334.801 81.1464,-332.543"/>
</g>
<!-- Node5 -->
<g id="node5" class="node"><title>Node5</title>
<g id="a_node5"><a xlink:href="../../d7/d32/classcommand_1_1turtle_1_1_show_turtle_command.html#a8b52bc50a3bc22d863b3b4ad6c252024" target="_top" xlink:title="command.turtle.ShowTurtle\lCommand.calculateValue">
<polygon fill="white" stroke="black" points="220,-441 220,-471 368,-471 368,-441 220,-441"/>
<text text-anchor="start" x="228" y="-459" font-family="Helvetica,sans-Serif" font-size="10.00">command.turtle.ShowTurtle</text>
<text text-anchor="middle" x="294" y="-448" font-family="Helvetica,sans-Serif" font-size="10.00">Command.calculateValue</text>
</a>
</g>
</g>
<!-- Node1&#45;&gt;Node5 -->
<g id="edge4" class="edge"><title>Node1&#45;&gt;Node5</title>
<path fill="none" stroke="midnightblue" d="M83.6118,-332.97C100.881,-361.072 133.367,-406.865 174,-431 187.794,-439.193 203.886,-444.725 219.696,-448.454"/>
<polygon fill="midnightblue" stroke="midnightblue" points="86.487,-330.959 78.3487,-324.176 80.4804,-334.554 86.487,-330.959"/>
</g>
<!-- Node6 -->
<g id="node6" class="node"><title>Node6</title>
<g id="a_node6"><a xlink:href="../../dc/d3e/classcommand_1_1turtle_1_1_clear_screen_command.html#a5db1eed25b73b6ed1d8af858ae9dd541" target="_top" xlink:title="command.turtle.ClearScreen\lCommand.calculateValue">
<polygon fill="white" stroke="black" points="216.5,-392 216.5,-422 371.5,-422 371.5,-392 216.5,-392"/>
<text text-anchor="start" x="224.5" y="-410" font-family="Helvetica,sans-Serif" font-size="10.00">command.turtle.ClearScreen</text>
<text text-anchor="middle" x="294" y="-399" font-family="Helvetica,sans-Serif" font-size="10.00">Command.calculateValue</text>
</a>
</g>
</g>
<!-- Node1&#45;&gt;Node6 -->
<g id="edge5" class="edge"><title>Node1&#45;&gt;Node6</title>
<path fill="none" stroke="midnightblue" d="M94.4202,-330.485C114.468,-347.001 144.299,-369.107 174,-382 187.265,-387.758 201.951,-392.225 216.349,-395.679"/>
<polygon fill="midnightblue" stroke="midnightblue" points="96.6253,-327.767 86.7167,-324.016 92.1235,-333.127 96.6253,-327.767"/>
</g>
<!-- Node7 -->
<g id="node7" class="node"><title>Node7</title>
<g id="a_node7"><a xlink:href="../../d9/d69/classcommand_1_1turtle_1_1_right_command.html#aaa862b47aa679520e6975a9f5a655438" target="_top" xlink:title="command.turtle.RightCommand.calculate\lValue">
<polygon fill="white" stroke="black" points="185.5,-343 185.5,-373 402.5,-373 402.5,-343 185.5,-343"/>
<text text-anchor="start" x="193.5" y="-361" font-family="Helvetica,sans-Serif" font-size="10.00">command.turtle.RightCommand.calculate</text>
<text text-anchor="middle" x="294" y="-350" font-family="Helvetica,sans-Serif" font-size="10.00">Value</text>
</a>
</g>
</g>
<!-- Node1&#45;&gt;Node7 -->
<g id="edge6" class="edge"><title>Node1&#45;&gt;Node7</title>
<path fill="none" stroke="midnightblue" d="M144.24,-326.32C154.237,-328.597 164.364,-330.876 174,-333 188.947,-336.294 204.972,-339.728 220.265,-342.957"/>
<polygon fill="midnightblue" stroke="midnightblue" points="144.838,-322.867 134.309,-324.049 143.278,-329.691 144.838,-322.867"/>
</g>
<!-- Node8 -->
<g id="node8" class="node"><title>Node8</title>
<g id="a_node8"><a xlink:href="../../d2/d35/classcommand_1_1turtle_1_1_set_heading_command.html#a12e31ecb910654ccf1080d9a79c903e5" target="_top" xlink:title="command.turtle.SetHeading\lCommand.calculateValue">
<polygon fill="white" stroke="black" points="217.5,-294 217.5,-324 370.5,-324 370.5,-294 217.5,-294"/>
<text text-anchor="start" x="225.5" y="-312" font-family="Helvetica,sans-Serif" font-size="10.00">command.turtle.SetHeading</text>
<text text-anchor="middle" x="294" y="-301" font-family="Helvetica,sans-Serif" font-size="10.00">Command.calculateValue</text>
</a>
</g>
</g>
<!-- Node1&#45;&gt;Node8 -->
<g id="edge7" class="edge"><title>Node1&#45;&gt;Node8</title>
<path fill="none" stroke="midnightblue" d="M147.696,-309C170.205,-309 194.743,-309 217.138,-309"/>
<polygon fill="midnightblue" stroke="midnightblue" points="147.513,-305.5 137.513,-309 147.512,-312.5 147.513,-305.5"/>
</g>
<!-- Node9 -->
<g id="node9" class="node"><title>Node9</title>
<g id="a_node9"><a xlink:href="../../d0/d11/classcommand_1_1turtle_1_1_hide_turtle_command.html#a421567b477f6c3f62d4df4125fe07bad" target="_top" xlink:title="command.turtle.HideTurtle\lCommand.calculateValue">
<polygon fill="white" stroke="black" points="222,-245 222,-275 366,-275 366,-245 222,-245"/>
<text text-anchor="start" x="230" y="-263" font-family="Helvetica,sans-Serif" font-size="10.00">command.turtle.HideTurtle</text>
<text text-anchor="middle" x="294" y="-252" font-family="Helvetica,sans-Serif" font-size="10.00">Command.calculateValue</text>
</a>
</g>
</g>
<!-- Node1&#45;&gt;Node9 -->
<g id="edge8" class="edge"><title>Node1&#45;&gt;Node9</title>
<path fill="none" stroke="midnightblue" d="M144.24,-291.68C154.237,-289.403 164.364,-287.124 174,-285 189.462,-281.592 206.078,-278.035 221.845,-274.709"/>
<polygon fill="midnightblue" stroke="midnightblue" points="143.278,-288.309 134.309,-293.951 144.838,-295.133 143.278,-288.309"/>
</g>
<!-- Node10 -->
<g id="node10" class="node"><title>Node10</title>
<g id="a_node10"><a xlink:href="../../dd/d2a/classcommand_1_1turtle_1_1_set_towards_command.html#a219218f331b9b73e0b65e3bc96964bd5" target="_top" xlink:title="command.turtle.SetTowards\lCommand.calculateValue">
<polygon fill="white" stroke="black" points="218.5,-196 218.5,-226 369.5,-226 369.5,-196 218.5,-196"/>
<text text-anchor="start" x="226.5" y="-214" font-family="Helvetica,sans-Serif" font-size="10.00">command.turtle.SetTowards</text>
<text text-anchor="middle" x="294" y="-203" font-family="Helvetica,sans-Serif" font-size="10.00">Command.calculateValue</text>
</a>
</g>
</g>
<!-- Node1&#45;&gt;Node10 -->
<g id="edge9" class="edge"><title>Node1&#45;&gt;Node10</title>
<path fill="none" stroke="midnightblue" d="M94.4202,-287.515C114.468,-270.999 144.299,-248.893 174,-236 187.846,-229.99 203.24,-225.386 218.238,-221.873"/>
<polygon fill="midnightblue" stroke="midnightblue" points="92.1235,-284.873 86.7167,-293.984 96.6253,-290.233 92.1235,-284.873"/>
</g>
<!-- Node11 -->
<g id="node11" class="node"><title>Node11</title>
<g id="a_node11"><a xlink:href="../../d4/d2f/classcommand_1_1turtle_1_1_set_position_command.html#a76724dcf27154b54e56b822e4cfa8ec6" target="_top" xlink:title="command.turtle.SetPosition\lCommand.calculateValue">
<polygon fill="white" stroke="black" points="218.5,-147 218.5,-177 369.5,-177 369.5,-147 218.5,-147"/>
<text text-anchor="start" x="226.5" y="-165" font-family="Helvetica,sans-Serif" font-size="10.00">command.turtle.SetPosition</text>
<text text-anchor="middle" x="294" y="-154" font-family="Helvetica,sans-Serif" font-size="10.00">Command.calculateValue</text>
</a>
</g>
</g>
<!-- Node1&#45;&gt;Node11 -->
<g id="edge10" class="edge"><title>Node1&#45;&gt;Node11</title>
<path fill="none" stroke="midnightblue" d="M83.6118,-285.03C100.881,-256.928 133.367,-211.135 174,-187 187.431,-179.022 203.041,-173.568 218.447,-169.844"/>
<polygon fill="midnightblue" stroke="midnightblue" points="80.4804,-283.446 78.3487,-293.824 86.487,-287.041 80.4804,-283.446"/>
</g>
<!-- Node12 -->
<g id="node12" class="node"><title>Node12</title>
<g id="a_node12"><a xlink:href="../../da/d7e/classcommand_1_1turtle_1_1_forward_command.html#a443575ff67afc5873d2c1f78d89b7feb" target="_top" xlink:title="command.turtle.ForwardCommand.calculate\lValue">
<polygon fill="white" stroke="black" points="179,-98 179,-128 409,-128 409,-98 179,-98"/>
<text text-anchor="start" x="187" y="-116" font-family="Helvetica,sans-Serif" font-size="10.00">command.turtle.ForwardCommand.calculate</text>
<text text-anchor="middle" x="294" y="-105" font-family="Helvetica,sans-Serif" font-size="10.00">Value</text>
</a>
</g>
</g>
<!-- Node1&#45;&gt;Node12 -->
<g id="edge11" class="edge"><title>Node1&#45;&gt;Node12</title>
<path fill="none" stroke="midnightblue" d="M77.9253,-284.058C91.3144,-246.179 122.144,-174.687 174,-138 179.429,-134.159 185.323,-130.885 191.486,-128.097"/>
<polygon fill="midnightblue" stroke="midnightblue" points="74.5204,-283.199 74.6083,-293.794 81.1464,-285.457 74.5204,-283.199"/>
</g>
<!-- Node13 -->
<g id="node13" class="node"><title>Node13</title>
<g id="a_node13"><a xlink:href="../../db/d9d/classcommand_1_1turtle_1_1_left_command.html#ac019428d4af8546f70d6c3aa6ffb36de" target="_top" xlink:title="command.turtle.LeftCommand.calculate\lValue">
<polygon fill="white" stroke="black" points="188.5,-49 188.5,-79 399.5,-79 399.5,-49 188.5,-49"/>
<text text-anchor="start" x="196.5" y="-67" font-family="Helvetica,sans-Serif" font-size="10.00">command.turtle.LeftCommand.calculate</text>
<text text-anchor="middle" x="294" y="-56" font-family="Helvetica,sans-Serif" font-size="10.00">Value</text>
</a>
</g>
</g>
<!-- Node1&#45;&gt;Node13 -->
<g id="edge12" class="edge"><title>Node1&#45;&gt;Node13</title>
<path fill="none" stroke="midnightblue" d="M74.3646,-283.785C83.7646,-237.503 110.448,-139.157 174,-89 178.889,-85.1418 184.231,-81.8408 189.857,-79.0199"/>
<polygon fill="midnightblue" stroke="midnightblue" points="70.8785,-283.379 72.427,-293.86 77.7526,-284.701 70.8785,-283.379"/>
</g>
<!-- Node14 -->
<g id="node14" class="node"><title>Node14</title>
<g id="a_node14"><a xlink:href="../../d2/daf/classcommand_1_1turtle_1_1_backward_command.html#a0395fc1ee91a90dc335193fc10b791a1" target="_top" xlink:title="command.turtle.BackwardCommand.calculate\lValue">
<polygon fill="white" stroke="black" points="174.5,-0 174.5,-30 413.5,-30 413.5,-0 174.5,-0"/>
<text text-anchor="start" x="182.5" y="-18" font-family="Helvetica,sans-Serif" font-size="10.00">command.turtle.BackwardCommand.calculate</text>
<text text-anchor="middle" x="294" y="-7" font-family="Helvetica,sans-Serif" font-size="10.00">Value</text>
</a>
</g>
</g>
<!-- Node1&#45;&gt;Node14 -->
<g id="edge13" class="edge"><title>Node1&#45;&gt;Node14</title>
<path fill="none" stroke="midnightblue" d="M71.9355,-283.993C77.4872,-230.438 98.3328,-104.315 174,-40 178.504,-36.1718 183.446,-32.882 188.677,-30.0585"/>
<polygon fill="midnightblue" stroke="midnightblue" points="68.4476,-283.7 70.9929,-293.984 75.4167,-284.357 68.4476,-283.7"/>
</g>
</g>
</svg>
        <g id="navigator" transform="translate(0 0)" fill="#404254">
                <rect fill="#f2f5e9" fill-opacity="0.5" stroke="#606060" stroke-width=".5" x="0" y="0" width="60" height="60"/>
                <use id="zoomplus" xlink:href="#zoomPlus" x="17" y="9" onmousedown="handleZoom(evt,'in')"/>
                <use id="zoomminus" xlink:href="#zoomMin" x="42" y="9" onmousedown="handleZoom(evt,'out')"/>
                <use id="reset" xlink:href="#resetDef" x="30" y="36" onmousedown="handleReset()"/>
                <g id="arrowUp" xlink:href="#dirArrow" transform="translate(30 24)" onmousedown="handlePan(0,-1)">
                  <use xlink:href="#rim" fill="#404040">
                        <set attributeName="fill" to="#808080" begin="arrowUp.mouseover" end="arrowUp.mouseout"/>
                  </use>
                  <path fill="none" stroke="white" stroke-width="1.5" d="M0,-3.0v7 M-2.5,-0.5L0,-3.0L2.5,-0.5"/>
                </g>
                <g id="arrowRight" xlink:href="#dirArrow" transform="rotate(90) translate(36 -43)" onmousedown="handlePan(1,0)">
                  <use xlink:href="#rim" fill="#404040">
                        <set attributeName="fill" to="#808080" begin="arrowRight.mouseover" end="arrowRight.mouseout"/>
                  </use>
                  <path fill="none" stroke="white" stroke-width="1.5" d="M0,-3.0v7 M-2.5,-0.5L0,-3.0L2.5,-0.5"/>
                </g>
                <g id="arrowDown" xlink:href="#dirArrow" transform="rotate(180) translate(-30 -48)" onmousedown="handlePan(0,1)">
                  <use xlink:href="#rim" fill="#404040">
                        <set attributeName="fill" to="#808080" begin="arrowDown.mouseover" end="arrowDown.mouseout"/>
                  </use>
                  <path fill="none" stroke="white" stroke-width="1.5" d="M0,-3.0v7 M-2.5,-0.5L0,-3.0L2.5,-0.5"/>
                </g>
                <g id="arrowLeft" xlink:href="#dirArrow" transform="rotate(270) translate(-36 17)" onmousedown="handlePan(-1,0)">
                  <use xlink:href="#rim" fill="#404040">
                        <set attributeName="fill" to="#808080" begin="arrowLeft.mouseover" end="arrowLeft.mouseout"/>
                  </use>
                  <path fill="none" stroke="white" stroke-width="1.5" d="M0,-3.0v7 M-2.5,-0.5L0,-3.0L2.5,-0.5"/>
                </g>
        </g>
        <svg viewBox="0 0 15 15" width="100%" height="30px" preserveAspectRatio="xMaxYMin meet">
         <g id="arrow_out" transform="scale(0.3 0.3)">
          <a xlink:href="classmodel_1_1_turtle_ab69148692c7de79ad6c276902b81553a_icgraph_org.svg" target="_base">
           <rect id="button" ry="5" rx="5" y="6" x="6" height="38" width="38"
                fill="#f2f5e9" fill-opacity="0.5" stroke="#606060" stroke-width="1.0"/>
           <path id="arrow"
             d="M 11.500037,31.436501 C 11.940474,20.09759 22.043105,11.32322 32.158766,21.979434 L 37.068811,17.246167 C 37.068811,17.246167 37.088388,32 37.088388,32 L 22.160133,31.978069 C 22.160133,31.978069 26.997745,27.140456 26.997745,27.140456 C 18.528582,18.264221 13.291696,25.230495 11.500037,31.436501 z"
             style="fill:#404040;"/>
          </a>
         </g>
        </svg>
</svg>
