<?xml version="1.0" encoding="UTF-8" standalone="no"?>
<!DOCTYPE svg PUBLIC "-//W3C//DTD SVG 1.1//EN"
 "http://www.w3.org/Graphics/SVG/1.1/DTD/svg11.dtd">
<!-- Generated by graphviz version 2.36.0 (20140111.2315)
 -->
<!-- Title: model.Turtle.setXY Pages: 1 -->
<svg width="388pt" height="234pt"
 viewBox="0.00 0.00 388.00 234.00" xmlns="http://www.w3.org/2000/svg" xmlns:xlink="http://www.w3.org/1999/xlink">
<g id="graph0" class="graph" transform="scale(1 1) rotate(0) translate(4 230)">
<title>model.Turtle.setXY</title>
<polygon fill="white" stroke="none" points="-4,4 -4,-230 384,-230 384,4 -4,4"/>
<!-- Node1 -->
<g id="node1" class="node"><title>Node1</title>
<polygon fill="#bfbfbf" stroke="black" points="0,-103.5 0,-122.5 104,-122.5 104,-103.5 0,-103.5"/>
<text text-anchor="middle" x="52" y="-110.5" font-family="Helvetica,sans-Serif" font-size="10.00">model.Turtle.setXY</text>
</g>
<!-- Node2 -->
<g id="node2" class="node"><title>Node2</title>
<g id="a_node2"><a xlink:href="../../d9/d93/classcommand_1_1turtle_1_1_home_command.html#a7bfe956b631e13d950aa71b2c08f648f" target="_top" xlink:title="command.turtle.HomeCommand.calculate\lValue">
<polygon fill="white" stroke="black" points="149,-196 149,-226 371,-226 371,-196 149,-196"/>
<text text-anchor="start" x="157" y="-214" font-family="Helvetica,sans-Serif" font-size="10.00">command.turtle.HomeCommand.calculate</text>
<text text-anchor="middle" x="260" y="-203" font-family="Helvetica,sans-Serif" font-size="10.00">Value</text>
</a>
</g>
</g>
<!-- Node1&#45;&gt;Node2 -->
<g id="edge1" class="edge"><title>Node1&#45;&gt;Node2</title>
<path fill="none" stroke="midnightblue" d="M68.3458,-130.056C84.5013,-146.917 111.505,-172.144 140,-186 147.974,-189.877 156.534,-193.155 165.274,-195.926"/>
<polygon fill="midnightblue" stroke="midnightblue" points="70.7095,-127.459 61.3273,-122.537 65.5924,-132.235 70.7095,-127.459"/>
</g>
<!-- Node3 -->
<g id="node3" class="node"><title>Node3</title>
<g id="a_node3"><a xlink:href="../../dc/d3e/classcommand_1_1turtle_1_1_clear_screen_command.html#a5db1eed25b73b6ed1d8af858ae9dd541" target="_top" xlink:title="command.turtle.ClearScreen\lCommand.calculateValue">
<polygon fill="white" stroke="black" points="182.5,-147 182.5,-177 337.5,-177 337.5,-147 182.5,-147"/>
<text text-anchor="start" x="190.5" y="-165" font-family="Helvetica,sans-Serif" font-size="10.00">command.turtle.ClearScreen</text>
<text text-anchor="middle" x="260" y="-154" font-family="Helvetica,sans-Serif" font-size="10.00">Command.calculateValue</text>
</a>
</g>
</g>
<!-- Node1&#45;&gt;Node3 -->
<g id="edge2" class="edge"><title>Node1&#45;&gt;Node3</title>
<path fill="none" stroke="midnightblue" d="M95.8067,-125.378C109.841,-129.283 125.542,-133.491 140,-137 154.155,-140.436 169.325,-143.836 183.934,-146.969"/>
<polygon fill="midnightblue" stroke="midnightblue" points="96.4983,-121.936 85.9243,-122.602 94.6052,-128.676 96.4983,-121.936"/>
</g>
<!-- Node4 -->
<g id="node4" class="node"><title>Node4</title>
<g id="a_node4"><a xlink:href="../../d4/d2f/classcommand_1_1turtle_1_1_set_position_command.html#a76724dcf27154b54e56b822e4cfa8ec6" target="_top" xlink:title="command.turtle.SetPosition\lCommand.calculateValue">
<polygon fill="white" stroke="black" points="184.5,-98 184.5,-128 335.5,-128 335.5,-98 184.5,-98"/>
<text text-anchor="start" x="192.5" y="-116" font-family="Helvetica,sans-Serif" font-size="10.00">command.turtle.SetPosition</text>
<text text-anchor="middle" x="260" y="-105" font-family="Helvetica,sans-Serif" font-size="10.00">Command.calculateValue</text>
</a>
</g>
</g>
<!-- Node1&#45;&gt;Node4 -->
<g id="edge3" class="edge"><title>Node1&#45;&gt;Node4</title>
<path fill="none" stroke="midnightblue" d="M114.376,-113C136.348,-113 161.358,-113 184.329,-113"/>
<polygon fill="midnightblue" stroke="midnightblue" points="114.186,-109.5 104.186,-113 114.186,-116.5 114.186,-109.5"/>
</g>
<!-- Node5 -->
<g id="node5" class="node"><title>Node5</title>
<g id="a_node5"><a xlink:href="../../da/d7e/classcommand_1_1turtle_1_1_forward_command.html#a443575ff67afc5873d2c1f78d89b7feb" target="_top" xlink:title="command.turtle.ForwardCommand.calculate\lValue">
<polygon fill="white" stroke="black" points="145,-49 145,-79 375,-79 375,-49 145,-49"/>
<text text-anchor="start" x="153" y="-67" font-family="Helvetica,sans-Serif" font-size="10.00">command.turtle.ForwardCommand.calculate</text>
<text text-anchor="middle" x="260" y="-56" font-family="Helvetica,sans-Serif" font-size="10.00">Value</text>
</a>
</g>
</g>
<!-- Node1&#45;&gt;Node5 -->
<g id="edge4" class="edge"><title>Node1&#45;&gt;Node5</title>
<path fill="none" stroke="midnightblue" d="M95.8067,-100.622C109.841,-96.7171 125.542,-92.5093 140,-89 154.155,-85.5641 169.325,-82.1642 183.934,-79.0305"/>
<polygon fill="midnightblue" stroke="midnightblue" points="94.6052,-97.3244 85.9243,-103.398 96.4983,-104.064 94.6052,-97.3244"/>
</g>
<!-- Node6 -->
<g id="node6" class="node"><title>Node6</title>
<g id="a_node6"><a xlink:href="../../d2/daf/classcommand_1_1turtle_1_1_backward_command.html#a0395fc1ee91a90dc335193fc10b791a1" target="_top" xlink:title="command.turtle.BackwardCommand.calculate\lValue">
<polygon fill="white" stroke="black" points="140.5,-0 140.5,-30 379.5,-30 379.5,-0 140.5,-0"/>
<text text-anchor="start" x="148.5" y="-18" font-family="Helvetica,sans-Serif" font-size="10.00">command.turtle.BackwardCommand.calculate</text>
<text text-anchor="middle" x="260" y="-7" font-family="Helvetica,sans-Serif" font-size="10.00">Value</text>
</a>
</g>
</g>
<!-- Node1&#45;&gt;Node6 -->
<g id="edge5" class="edge"><title>Node1&#45;&gt;Node6</title>
<path fill="none" stroke="midnightblue" d="M68.3458,-95.9442C84.5013,-79.0828 111.505,-53.8562 140,-40 147.974,-36.1227 156.534,-32.8447 165.274,-30.0737"/>
<polygon fill="midnightblue" stroke="midnightblue" points="65.5924,-93.7646 61.3273,-103.463 70.7095,-98.5412 65.5924,-93.7646"/>
</g>
</g>
</svg>
