<?xml version="1.0" encoding="UTF-8" standalone="no"?>
<!DOCTYPE svg PUBLIC "-//W3C//DTD SVG 1.1//EN"
 "http://www.w3.org/Graphics/SVG/1.1/DTD/svg11.dtd">
<!-- Generated by graphviz version 2.36.0 (20140111.2315)
 -->
<!-- Title: model.Turtle.setLine Pages: 1 -->
<svg width="396pt" height="87pt"
 viewBox="0.00 0.00 396.00 87.00" xmlns="http://www.w3.org/2000/svg" xmlns:xlink="http://www.w3.org/1999/xlink">
<g id="graph0" class="graph" transform="scale(1 1) rotate(0) translate(4 83)">
<title>model.Turtle.setLine</title>
<polygon fill="white" stroke="none" points="-4,4 -4,-83 392,-83 392,4 -4,4"/>
<!-- Node1 -->
<g id="node1" class="node"><title>Node1</title>
<polygon fill="#bfbfbf" stroke="black" points="0.5,-29.5 0.5,-48.5 113.5,-48.5 113.5,-29.5 0.5,-29.5"/>
<text text-anchor="middle" x="57" y="-36.5" font-family="Helvetica,sans-Serif" font-size="10.00">model.Turtle.setLine</text>
</g>
<!-- Node2 -->
<g id="node2" class="node"><title>Node2</title>
<g id="a_node2"><a xlink:href="../../d3/d1b/classcommand_1_1turtle_1_1_pen_down_command.html#a4688a636ecc9c4d31ca633f07778ca18" target="_top" xlink:title="command.turtle.PenDownCommand.calculate\lValue">
<polygon fill="white" stroke="black" points="150.5,-49 150.5,-79 387.5,-79 387.5,-49 150.5,-49"/>
<text text-anchor="start" x="158.5" y="-67" font-family="Helvetica,sans-Serif" font-size="10.00">command.turtle.PenDownCommand.calculate</text>
<text text-anchor="middle" x="269" y="-56" font-family="Helvetica,sans-Serif" font-size="10.00">Value</text>
</a>
</g>
</g>
<!-- Node1&#45;&gt;Node2 -->
<g id="edge1" class="edge"><title>Node1&#45;&gt;Node2</title>
<path fill="none" stroke="midnightblue" d="M123.864,-46.8409C132.353,-47.8515 141.24,-48.9095 150.255,-49.9827"/>
<polygon fill="midnightblue" stroke="midnightblue" points="124.068,-43.3407 113.725,-45.6339 123.241,-50.2916 124.068,-43.3407"/>
</g>
<!-- Node3 -->
<g id="node3" class="node"><title>Node3</title>
<g id="a_node3"><a xlink:href="../../d9/d48/classcommand_1_1turtle_1_1_pen_up_command.html#ab16f45461382237eec3dba9509218e02" target="_top" xlink:title="command.turtle.PenUpCommand.calculate\lValue">
<polygon fill="white" stroke="black" points="157,-0 157,-30 381,-30 381,-0 157,-0"/>
<text text-anchor="start" x="165" y="-18" font-family="Helvetica,sans-Serif" font-size="10.00">command.turtle.PenUpCommand.calculate</text>
<text text-anchor="middle" x="269" y="-7" font-family="Helvetica,sans-Serif" font-size="10.00">Value</text>
</a>
</g>
</g>
<!-- Node1&#45;&gt;Node3 -->
<g id="edge2" class="edge"><title>Node1&#45;&gt;Node3</title>
<path fill="none" stroke="midnightblue" d="M123.661,-31.4958C134.242,-30.2866 145.447,-29.0061 156.748,-27.7146"/>
<polygon fill="midnightblue" stroke="midnightblue" points="123.263,-28.0185 113.725,-32.6315 124.058,-34.9733 123.263,-28.0185"/>
</g>
</g>
</svg>
