<?xml version="1.0" encoding="UTF-8" standalone="no"?>
<!DOCTYPE svg PUBLIC "-//W3C//DTD SVG 1.1//EN"
 "http://www.w3.org/Graphics/SVG/1.1/DTD/svg11.dtd">
<!-- Generated by graphviz version 2.36.0 (20140111.2315)
 -->
<!-- Title: model.Turtle.getX Pages: 1 -->
<svg width="384pt" height="371pt"
 viewBox="0.00 0.00 384.00 371.00" xmlns="http://www.w3.org/2000/svg" xmlns:xlink="http://www.w3.org/1999/xlink">
<g id="graph0" class="graph" transform="scale(1 1) rotate(0) translate(4 367)">
<title>model.Turtle.getX</title>
<polygon fill="white" stroke="none" points="-4,4 -4,-367 380,-367 380,4 -4,4"/>
<!-- Node1 -->
<g id="node1" class="node"><title>Node1</title>
<polygon fill="#bfbfbf" stroke="black" points="0,-166.5 0,-185.5 100,-185.5 100,-166.5 0,-166.5"/>
<text text-anchor="middle" x="50" y="-173.5" font-family="Helvetica,sans-Serif" font-size="10.00">model.Turtle.getX</text>
</g>
<!-- Node2 -->
<g id="node2" class="node"><title>Node2</title>
<g id="a_node2"><a xlink:href="../../dd/d36/classcommand_1_1turtle_1_1_x_coordinate_command.html#a1231fa1836999506427cf76a1a569ed2" target="_top" xlink:title="command.turtle.XCoordinate\lCommand.calculateValue">
<polygon fill="white" stroke="black" points="178.5,-333 178.5,-363 333.5,-363 333.5,-333 178.5,-333"/>
<text text-anchor="start" x="186.5" y="-351" font-family="Helvetica,sans-Serif" font-size="10.00">command.turtle.XCoordinate</text>
<text text-anchor="middle" x="256" y="-340" font-family="Helvetica,sans-Serif" font-size="10.00">Command.calculateValue</text>
</a>
</g>
</g>
<!-- Node1&#45;&gt;Node2 -->
<g id="edge1" class="edge"><title>Node1&#45;&gt;Node2</title>
<path fill="none" stroke="midnightblue" d="M56.6187,-195.715C66.8259,-227.768 91.5754,-290.826 136,-323 148.396,-331.977 163.315,-337.875 178.334,-341.717"/>
<polygon fill="midnightblue" stroke="midnightblue" points="59.8556,-194.328 53.6064,-185.773 53.1563,-196.358 59.8556,-194.328"/>
</g>
<!-- Node3 -->
<g id="node3" class="node"><title>Node3</title>
<g id="a_node3"><a xlink:href="../../d9/d93/classcommand_1_1turtle_1_1_home_command.html#a7bfe956b631e13d950aa71b2c08f648f" target="_top" xlink:title="command.turtle.HomeCommand.calculate\lValue">
<polygon fill="white" stroke="black" points="145,-284 145,-314 367,-314 367,-284 145,-284"/>
<text text-anchor="start" x="153" y="-302" font-family="Helvetica,sans-Serif" font-size="10.00">command.turtle.HomeCommand.calculate</text>
<text text-anchor="middle" x="256" y="-291" font-family="Helvetica,sans-Serif" font-size="10.00">Value</text>
</a>
</g>
</g>
<!-- Node1&#45;&gt;Node3 -->
<g id="edge2" class="edge"><title>Node1&#45;&gt;Node3</title>
<path fill="none" stroke="midnightblue" d="M61.5724,-194.239C75.6002,-216.709 102.537,-254.317 136,-274 142.642,-277.907 149.809,-281.207 157.216,-283.996"/>
<polygon fill="midnightblue" stroke="midnightblue" points="64.5382,-192.379 56.3695,-185.632 58.5477,-196.001 64.5382,-192.379"/>
</g>
<!-- Node4 -->
<g id="node4" class="node"><title>Node4</title>
<g id="a_node4"><a xlink:href="../../dc/d3e/classcommand_1_1turtle_1_1_clear_screen_command.html#a5db1eed25b73b6ed1d8af858ae9dd541" target="_top" xlink:title="command.turtle.ClearScreen\lCommand.calculateValue">
<polygon fill="white" stroke="black" points="178.5,-235 178.5,-265 333.5,-265 333.5,-235 178.5,-235"/>
<text text-anchor="start" x="186.5" y="-253" font-family="Helvetica,sans-Serif" font-size="10.00">command.turtle.ClearScreen</text>
<text text-anchor="middle" x="256" y="-242" font-family="Helvetica,sans-Serif" font-size="10.00">Command.calculateValue</text>
</a>
</g>
</g>
<!-- Node1&#45;&gt;Node4 -->
<g id="edge3" class="edge"><title>Node1&#45;&gt;Node4</title>
<path fill="none" stroke="midnightblue" d="M72.9058,-191.224C89.5266,-202.116 113.312,-216.33 136,-225 149.41,-230.124 164.092,-234.29 178.424,-237.645"/>
<polygon fill="midnightblue" stroke="midnightblue" points="74.7184,-188.226 64.4616,-185.571 70.8243,-194.042 74.7184,-188.226"/>
</g>
<!-- Node5 -->
<g id="node5" class="node"><title>Node5</title>
<g id="a_node5"><a xlink:href="../../d4/d2f/classcommand_1_1turtle_1_1_set_position_command.html#a76724dcf27154b54e56b822e4cfa8ec6" target="_top" xlink:title="command.turtle.SetPosition\lCommand.calculateValue">
<polygon fill="white" stroke="black" points="180.5,-186 180.5,-216 331.5,-216 331.5,-186 180.5,-186"/>
<text text-anchor="start" x="188.5" y="-204" font-family="Helvetica,sans-Serif" font-size="10.00">command.turtle.SetPosition</text>
<text text-anchor="middle" x="256" y="-193" font-family="Helvetica,sans-Serif" font-size="10.00">Command.calculateValue</text>
</a>
</g>
</g>
<!-- Node1&#45;&gt;Node5 -->
<g id="edge4" class="edge"><title>Node1&#45;&gt;Node5</title>
<path fill="none" stroke="midnightblue" d="M110.271,-183.264C132.182,-185.949 157.304,-189.027 180.402,-191.858"/>
<polygon fill="midnightblue" stroke="midnightblue" points="110.474,-179.762 100.123,-182.02 109.623,-186.71 110.474,-179.762"/>
</g>
<!-- Node6 -->
<g id="node6" class="node"><title>Node6</title>
<g id="a_node6"><a xlink:href="../../dd/d2a/classcommand_1_1turtle_1_1_set_towards_command.html#a219218f331b9b73e0b65e3bc96964bd5" target="_top" xlink:title="command.turtle.SetTowards\lCommand.calculateValue">
<polygon fill="white" stroke="black" points="180.5,-137 180.5,-167 331.5,-167 331.5,-137 180.5,-137"/>
<text text-anchor="start" x="188.5" y="-155" font-family="Helvetica,sans-Serif" font-size="10.00">command.turtle.SetTowards</text>
<text text-anchor="middle" x="256" y="-144" font-family="Helvetica,sans-Serif" font-size="10.00">Command.calculateValue</text>
</a>
</g>
</g>
<!-- Node1&#45;&gt;Node6 -->
<g id="edge5" class="edge"><title>Node1&#45;&gt;Node6</title>
<path fill="none" stroke="midnightblue" d="M110.271,-169.027C132.182,-166.449 157.304,-163.494 180.402,-160.776"/>
<polygon fill="midnightblue" stroke="midnightblue" points="109.645,-165.576 100.123,-170.221 110.463,-172.528 109.645,-165.576"/>
</g>
<!-- Node7 -->
<g id="node7" class="node"><title>Node7</title>
<g id="a_node7"><a xlink:href="../../da/d7e/classcommand_1_1turtle_1_1_forward_command.html#a443575ff67afc5873d2c1f78d89b7feb" target="_top" xlink:title="command.turtle.ForwardCommand.calculate\lValue">
<polygon fill="white" stroke="black" points="141,-88 141,-118 371,-118 371,-88 141,-88"/>
<text text-anchor="start" x="149" y="-106" font-family="Helvetica,sans-Serif" font-size="10.00">command.turtle.ForwardCommand.calculate</text>
<text text-anchor="middle" x="256" y="-95" font-family="Helvetica,sans-Serif" font-size="10.00">Value</text>
</a>
</g>
</g>
<!-- Node1&#45;&gt;Node7 -->
<g id="edge6" class="edge"><title>Node1&#45;&gt;Node7</title>
<path fill="none" stroke="midnightblue" d="M73.2471,-160.917C89.8759,-150.282 113.522,-136.475 136,-128 146.173,-124.164 157.069,-120.86 167.985,-118.029"/>
<polygon fill="midnightblue" stroke="midnightblue" points="71.2414,-158.046 64.7827,-166.445 75.0691,-163.907 71.2414,-158.046"/>
</g>
<!-- Node8 -->
<g id="node8" class="node"><title>Node8</title>
<g id="a_node8"><a xlink:href="../../d2/daf/classcommand_1_1turtle_1_1_backward_command.html#a0395fc1ee91a90dc335193fc10b791a1" target="_top" xlink:title="command.turtle.BackwardCommand.calculate\lValue">
<polygon fill="white" stroke="black" points="136.5,-39 136.5,-69 375.5,-69 375.5,-39 136.5,-39"/>
<text text-anchor="start" x="144.5" y="-57" font-family="Helvetica,sans-Serif" font-size="10.00">command.turtle.BackwardCommand.calculate</text>
<text text-anchor="middle" x="256" y="-46" font-family="Helvetica,sans-Serif" font-size="10.00">Value</text>
</a>
</g>
</g>
<!-- Node1&#45;&gt;Node8 -->
<g id="edge7" class="edge"><title>Node1&#45;&gt;Node8</title>
<path fill="none" stroke="midnightblue" d="M61.8081,-157.649C75.9359,-135.376 102.831,-98.3968 136,-79 142.652,-75.1103 149.826,-71.8215 157.238,-69.0414"/>
<polygon fill="midnightblue" stroke="midnightblue" points="58.6443,-156.113 56.3959,-166.466 64.6101,-159.775 58.6443,-156.113"/>
</g>
<!-- Node9 -->
<g id="node9" class="node"><title>Node9</title>
<g id="a_node9"><a xlink:href="../../d3/db6/classui_1_1_turtle_view.html#a08c1ab80fb36ee57f17dcdd42bcf9143" target="_top" xlink:title="ui.TurtleView.update">
<polygon fill="white" stroke="black" points="200.5,-0.5 200.5,-19.5 311.5,-19.5 311.5,-0.5 200.5,-0.5"/>
<text text-anchor="middle" x="256" y="-7.5" font-family="Helvetica,sans-Serif" font-size="10.00">ui.TurtleView.update</text>
</a>
</g>
</g>
<!-- Node1&#45;&gt;Node9 -->
<g id="edge8" class="edge"><title>Node1&#45;&gt;Node9</title>
<path fill="none" stroke="midnightblue" d="M56.5158,-156.214C66.5747,-124.084 91.1156,-61.0405 136,-30 154.609,-17.1307 178.696,-11.5603 200.327,-9.42084"/>
<polygon fill="midnightblue" stroke="midnightblue" points="53.046,-155.603 53.5522,-166.186 59.756,-157.598 53.046,-155.603"/>
</g>
</g>
</svg>
