<?xml version="1.0" encoding="UTF-8" standalone="no"?>
<!DOCTYPE svg PUBLIC "-//W3C//DTD SVG 1.1//EN"
 "http://www.w3.org/Graphics/SVG/1.1/DTD/svg11.dtd">
<!-- Generated by graphviz version 2.36.0 (20140111.2315)
 -->
<!-- Title: model.Turtle.setHeading Pages: 1 -->
<svg width="396pt" height="234pt"
 viewBox="0.00 0.00 396.00 234.00" xmlns="http://www.w3.org/2000/svg" xmlns:xlink="http://www.w3.org/1999/xlink">
<g id="graph0" class="graph" transform="scale(1 1) rotate(0) translate(4 230)">
<title>model.Turtle.setHeading</title>
<polygon fill="white" stroke="none" points="-4,4 -4,-230 392,-230 392,4 -4,4"/>
<!-- Node1 -->
<g id="node1" class="node"><title>Node1</title>
<polygon fill="#bfbfbf" stroke="black" points="0.5,-103.5 0.5,-122.5 133.5,-122.5 133.5,-103.5 0.5,-103.5"/>
<text text-anchor="middle" x="67" y="-110.5" font-family="Helvetica,sans-Serif" font-size="10.00">model.Turtle.setHeading</text>
</g>
<!-- Node2 -->
<g id="node2" class="node"><title>Node2</title>
<g id="a_node2"><a xlink:href="../../dc/d3e/classcommand_1_1turtle_1_1_clear_screen_command.html#a5db1eed25b73b6ed1d8af858ae9dd541" target="_top" xlink:title="command.turtle.ClearScreen\lCommand.calculateValue">
<polygon fill="white" stroke="black" points="201.5,-196 201.5,-226 356.5,-226 356.5,-196 201.5,-196"/>
<text text-anchor="start" x="209.5" y="-214" font-family="Helvetica,sans-Serif" font-size="10.00">command.turtle.ClearScreen</text>
<text text-anchor="middle" x="279" y="-203" font-family="Helvetica,sans-Serif" font-size="10.00">Command.calculateValue</text>
</a>
</g>
</g>
<!-- Node1&#45;&gt;Node2 -->
<g id="edge1" class="edge"><title>Node1&#45;&gt;Node2</title>
<path fill="none" stroke="midnightblue" d="M86.1456,-129.417C105.535,-146.094 137.846,-171.474 170,-186 179.822,-190.437 190.515,-194.129 201.227,-197.19"/>
<polygon fill="midnightblue" stroke="midnightblue" points="88.2548,-126.612 78.4289,-122.649 83.639,-131.874 88.2548,-126.612"/>
</g>
<!-- Node3 -->
<g id="node3" class="node"><title>Node3</title>
<g id="a_node3"><a xlink:href="../../d2/d35/classcommand_1_1turtle_1_1_set_heading_command.html#a12e31ecb910654ccf1080d9a79c903e5" target="_top" xlink:title="command.turtle.SetHeading\lCommand.calculateValue">
<polygon fill="white" stroke="black" points="202.5,-147 202.5,-177 355.5,-177 355.5,-147 202.5,-147"/>
<text text-anchor="start" x="210.5" y="-165" font-family="Helvetica,sans-Serif" font-size="10.00">command.turtle.SetHeading</text>
<text text-anchor="middle" x="279" y="-154" font-family="Helvetica,sans-Serif" font-size="10.00">Command.calculateValue</text>
</a>
</g>
</g>
<!-- Node1&#45;&gt;Node3 -->
<g id="edge2" class="edge"><title>Node1&#45;&gt;Node3</title>
<path fill="none" stroke="midnightblue" d="M118.625,-124.95C135.014,-128.808 153.275,-133.097 170,-137 183.869,-140.237 198.744,-143.691 212.885,-146.967"/>
<polygon fill="midnightblue" stroke="midnightblue" points="119.228,-121.496 108.692,-122.61 117.623,-128.31 119.228,-121.496"/>
</g>
<!-- Node4 -->
<g id="node4" class="node"><title>Node4</title>
<g id="a_node4"><a xlink:href="../../d9/d69/classcommand_1_1turtle_1_1_right_command.html#aaa862b47aa679520e6975a9f5a655438" target="_top" xlink:title="command.turtle.RightCommand.calculate\lValue">
<polygon fill="white" stroke="black" points="170.5,-98 170.5,-128 387.5,-128 387.5,-98 170.5,-98"/>
<text text-anchor="start" x="178.5" y="-116" font-family="Helvetica,sans-Serif" font-size="10.00">command.turtle.RightCommand.calculate</text>
<text text-anchor="middle" x="279" y="-105" font-family="Helvetica,sans-Serif" font-size="10.00">Value</text>
</a>
</g>
</g>
<!-- Node1&#45;&gt;Node4 -->
<g id="edge3" class="edge"><title>Node1&#45;&gt;Node4</title>
<path fill="none" stroke="midnightblue" d="M143.596,-113C152.253,-113 161.201,-113 170.176,-113"/>
<polygon fill="midnightblue" stroke="midnightblue" points="143.582,-109.5 133.582,-113 143.581,-116.5 143.582,-109.5"/>
</g>
<!-- Node5 -->
<g id="node5" class="node"><title>Node5</title>
<g id="a_node5"><a xlink:href="../../dd/d2a/classcommand_1_1turtle_1_1_set_towards_command.html#a219218f331b9b73e0b65e3bc96964bd5" target="_top" xlink:title="command.turtle.SetTowards\lCommand.calculateValue">
<polygon fill="white" stroke="black" points="203.5,-49 203.5,-79 354.5,-79 354.5,-49 203.5,-49"/>
<text text-anchor="start" x="211.5" y="-67" font-family="Helvetica,sans-Serif" font-size="10.00">command.turtle.SetTowards</text>
<text text-anchor="middle" x="279" y="-56" font-family="Helvetica,sans-Serif" font-size="10.00">Command.calculateValue</text>
</a>
</g>
</g>
<!-- Node1&#45;&gt;Node5 -->
<g id="edge4" class="edge"><title>Node1&#45;&gt;Node5</title>
<path fill="none" stroke="midnightblue" d="M118.625,-101.05C135.014,-97.1917 153.275,-92.9034 170,-89 183.869,-85.7631 198.744,-82.3086 212.885,-79.0328"/>
<polygon fill="midnightblue" stroke="midnightblue" points="117.623,-97.6902 108.692,-103.39 119.228,-104.504 117.623,-97.6902"/>
</g>
<!-- Node6 -->
<g id="node6" class="node"><title>Node6</title>
<g id="a_node6"><a xlink:href="../../db/d9d/classcommand_1_1turtle_1_1_left_command.html#ac019428d4af8546f70d6c3aa6ffb36de" target="_top" xlink:title="command.turtle.LeftCommand.calculate\lValue">
<polygon fill="white" stroke="black" points="173.5,-0 173.5,-30 384.5,-30 384.5,-0 173.5,-0"/>
<text text-anchor="start" x="181.5" y="-18" font-family="Helvetica,sans-Serif" font-size="10.00">command.turtle.LeftCommand.calculate</text>
<text text-anchor="middle" x="279" y="-7" font-family="Helvetica,sans-Serif" font-size="10.00">Value</text>
</a>
</g>
</g>
<!-- Node1&#45;&gt;Node6 -->
<g id="edge5" class="edge"><title>Node1&#45;&gt;Node6</title>
<path fill="none" stroke="midnightblue" d="M86.1456,-96.5828C105.535,-79.9064 137.846,-54.5261 170,-40 178.506,-36.157 187.666,-32.8729 196.926,-30.0738"/>
<polygon fill="midnightblue" stroke="midnightblue" points="83.639,-94.1258 78.4289,-103.351 88.2548,-99.3884 83.639,-94.1258"/>
</g>
</g>
</svg>
