<?xml version="1.0" encoding="UTF-8" standalone="no"?>
<!DOCTYPE svg PUBLIC "-//W3C//DTD SVG 1.1//EN"
 "http://www.w3.org/Graphics/SVG/1.1/DTD/svg11.dtd">
<!-- Generated by graphviz version 2.36.0 (20140111.2315)
 -->
<!-- Title: model.Turtle.setTurtleVisibility Pages: 1 -->
<svg width="350pt" height="87pt"
 viewBox="0.00 0.00 350.00 87.00" xmlns="http://www.w3.org/2000/svg" xmlns:xlink="http://www.w3.org/1999/xlink">
<g id="graph0" class="graph" transform="scale(1 1) rotate(0) translate(4 83)">
<title>model.Turtle.setTurtleVisibility</title>
<polygon fill="white" stroke="none" points="-4,4 -4,-83 346,-83 346,4 -4,4"/>
<!-- Node1 -->
<g id="node1" class="node"><title>Node1</title>
<polygon fill="#bfbfbf" stroke="black" points="0.5,-29.5 0.5,-48.5 157.5,-48.5 157.5,-29.5 0.5,-29.5"/>
<text text-anchor="middle" x="79" y="-36.5" font-family="Helvetica,sans-Serif" font-size="10.00">model.Turtle.setTurtleVisibility</text>
</g>
<!-- Node2 -->
<g id="node2" class="node"><title>Node2</title>
<g id="a_node2"><a xlink:href="../../d7/d32/classcommand_1_1turtle_1_1_show_turtle_command.html#a8b52bc50a3bc22d863b3b4ad6c252024" target="_top" xlink:title="command.turtle.ShowTurtle\lCommand.calculateValue">
<polygon fill="white" stroke="black" points="194,-49 194,-79 342,-79 342,-49 194,-49"/>
<text text-anchor="start" x="202" y="-67" font-family="Helvetica,sans-Serif" font-size="10.00">command.turtle.ShowTurtle</text>
<text text-anchor="middle" x="268" y="-56" font-family="Helvetica,sans-Serif" font-size="10.00">Command.calculateValue</text>
</a>
</g>
</g>
<!-- Node1&#45;&gt;Node2 -->
<g id="edge1" class="edge"><title>Node1&#45;&gt;Node2</title>
<path fill="none" stroke="midnightblue" d="M161.458,-49.8902C172.215,-51.3283 183.189,-52.7953 193.796,-54.2134"/>
<polygon fill="midnightblue" stroke="midnightblue" points="161.606,-46.3788 151.23,-48.5227 160.678,-53.3171 161.606,-46.3788"/>
</g>
<!-- Node3 -->
<g id="node3" class="node"><title>Node3</title>
<g id="a_node3"><a xlink:href="../../d0/d11/classcommand_1_1turtle_1_1_hide_turtle_command.html#a421567b477f6c3f62d4df4125fe07bad" target="_top" xlink:title="command.turtle.HideTurtle\lCommand.calculateValue">
<polygon fill="white" stroke="black" points="196,-0 196,-30 340,-30 340,-0 196,-0"/>
<text text-anchor="start" x="204" y="-18" font-family="Helvetica,sans-Serif" font-size="10.00">command.turtle.HideTurtle</text>
<text text-anchor="middle" x="268" y="-7" font-family="Helvetica,sans-Serif" font-size="10.00">Command.calculateValue</text>
</a>
</g>
</g>
<!-- Node1&#45;&gt;Node3 -->
<g id="edge2" class="edge"><title>Node1&#45;&gt;Node3</title>
<path fill="none" stroke="midnightblue" d="M164.263,-28.1855C174.853,-26.8263 185.603,-25.4467 195.962,-24.1172"/>
<polygon fill="midnightblue" stroke="midnightblue" points="163.649,-24.7355 154.176,-29.4801 164.54,-31.6786 163.649,-24.7355"/>
</g>
</g>
</svg>
