<?xml version="1.0" encoding="UTF-8" standalone="no"?>
<!DOCTYPE svg PUBLIC "-//W3C//DTD SVG 1.1//EN"
 "http://www.w3.org/Graphics/SVG/1.1/DTD/svg11.dtd">
<!-- Generated by graphviz version 2.36.0 (20140111.2315)
 -->
<!-- Title: command.control.AskCommand Pages: 1 -->
<svg width="962pt" height="154pt"
 viewBox="0.00 0.00 962.00 154.00" xmlns="http://www.w3.org/2000/svg" xmlns:xlink="http://www.w3.org/1999/xlink">
<g id="graph0" class="graph" transform="scale(1 1) rotate(0) translate(4 150)">
<title>command.control.AskCommand</title>
<polygon fill="white" stroke="none" points="-4,4 -4,-150 958,-150 958,4 -4,4"/>
<!-- Node1 -->
<g id="node1" class="node"><title>Node1</title>
<polygon fill="#bfbfbf" stroke="black" points="782,-69.5 782,-88.5 954,-88.5 954,-69.5 782,-69.5"/>
<text text-anchor="middle" x="868" y="-76.5" font-family="Helvetica,sans-Serif" font-size="10.00">command.control.AskCommand</text>
</g>
<!-- Node2 -->
<g id="node2" class="node"><title>Node2</title>
<g id="a_node2"><a xlink:href="../../d7/d35/classcommand_1_1_command.html" target="_top" xlink:title="command.Command">
<polygon fill="white" stroke="black" points="536.5,-106.5 536.5,-125.5 655.5,-125.5 655.5,-106.5 536.5,-106.5"/>
<text text-anchor="middle" x="596" y="-113.5" font-family="Helvetica,sans-Serif" font-size="10.00">command.Command</text>
</a>
</g>
</g>
<!-- Node2&#45;&gt;Node1 -->
<g id="edge1" class="edge"><title>Node2&#45;&gt;Node1</title>
<path fill="none" stroke="midnightblue" d="M665.762,-107.156C695.919,-103.222 731.73,-98.4752 764,-94 776.44,-92.2749 789.717,-90.3809 802.46,-88.5368"/>
<polygon fill="midnightblue" stroke="midnightblue" points="665.229,-103.696 655.764,-108.457 666.132,-110.637 665.229,-103.696"/>
</g>
<!-- Node3 -->
<g id="node3" class="node"><title>Node3</title>
<g id="a_node3"><a xlink:href="../../d9/d88/classmodel_1_1_tree_interpreter.html" target="_top" xlink:title="model.TreeInterpreter">
<polygon fill="white" stroke="black" points="536,-68.5 536,-87.5 656,-87.5 656,-68.5 536,-68.5"/>
<text text-anchor="middle" x="596" y="-75.5" font-family="Helvetica,sans-Serif" font-size="10.00">model.TreeInterpreter</text>
</a>
</g>
</g>
<!-- Node3&#45;&gt;Node1 -->
<g id="edge2" class="edge"><title>Node3&#45;&gt;Node1</title>
<path fill="none" stroke="#9a32cd" stroke-dasharray="5,2" d="M666.424,-78.2571C701.59,-78.3874 744.598,-78.5467 781.757,-78.6843"/>
<polygon fill="#9a32cd" stroke="#9a32cd" points="666.266,-74.7566 656.253,-78.2195 666.24,-81.7566 666.266,-74.7566"/>
<text text-anchor="middle" x="726" y="-82" font-family="Helvetica,sans-Serif" font-size="10.00"> tree</text>
</g>
<!-- Node4 -->
<g id="node4" class="node"><title>Node4</title>
<g id="a_node4"><a xlink:href="../../db/d55/classmodel_1_1_variable_list.html" target="_top" xlink:title="model.VariableList">
<polygon fill="white" stroke="black" points="269,-125.5 269,-144.5 373,-144.5 373,-125.5 269,-125.5"/>
<text text-anchor="middle" x="321" y="-132.5" font-family="Helvetica,sans-Serif" font-size="10.00">model.VariableList</text>
</a>
</g>
</g>
<!-- Node4&#45;&gt;Node3 -->
<g id="edge3" class="edge"><title>Node4&#45;&gt;Node3</title>
<path fill="none" stroke="#9a32cd" stroke-dasharray="5,2" d="M383.651,-128.801C419.318,-124.238 464.768,-116.741 504,-105 512.387,-102.49 513.736,-99.89 522,-97 532.013,-93.4983 542.998,-90.3103 553.337,-87.5882"/>
<polygon fill="#9a32cd" stroke="#9a32cd" points="382.886,-125.369 373.39,-130.068 383.743,-132.316 382.886,-125.369"/>
<text text-anchor="middle" x="464" y="-126" font-family="Helvetica,sans-Serif" font-size="10.00"> variables</text>
</g>
<!-- Node5 -->
<g id="node5" class="node"><title>Node5</title>
<polygon fill="white" stroke="#bfbfbf" points="0.5,-125.5 0.5,-144.5 181.5,-144.5 181.5,-125.5 0.5,-125.5"/>
<text text-anchor="middle" x="91" y="-132.5" font-family="Helvetica,sans-Serif" font-size="10.00">ObservableList&lt; model.Variable &gt;</text>
</g>
<!-- Node5&#45;&gt;Node4 -->
<g id="edge4" class="edge"><title>Node5&#45;&gt;Node4</title>
<path fill="none" stroke="#9a32cd" stroke-dasharray="5,2" d="M191.896,-135C218.445,-135 246.031,-135 268.773,-135"/>
<polygon fill="#9a32cd" stroke="#9a32cd" points="191.784,-131.5 181.784,-135 191.784,-138.5 191.784,-131.5"/>
<text text-anchor="middle" x="209" y="-138" font-family="Helvetica,sans-Serif" font-size="10.00"> list</text>
</g>
<!-- Node6 -->
<g id="node6" class="node"><title>Node6</title>
<polygon fill="white" stroke="#bfbfbf" points="264,-87.5 264,-106.5 378,-106.5 378,-87.5 264,-87.5"/>
<text text-anchor="middle" x="321" y="-94.5" font-family="Helvetica,sans-Serif" font-size="10.00">List&lt; model.Turtle &gt;</text>
</g>
<!-- Node6&#45;&gt;Node3 -->
<g id="edge5" class="edge"><title>Node6&#45;&gt;Node3</title>
<path fill="none" stroke="#9a32cd" stroke-dasharray="5,2" d="M388.464,-92.3743C433.377,-89.2485 492.164,-85.1571 535.53,-82.1389"/>
<polygon fill="#9a32cd" stroke="#9a32cd" points="387.968,-88.9003 378.235,-93.0862 388.454,-95.8834 387.968,-88.9003"/>
<text text-anchor="middle" x="464" y="-93" font-family="Helvetica,sans-Serif" font-size="10.00"> listTurtles</text>
</g>
<!-- Node7 -->
<g id="node7" class="node"><title>Node7</title>
<g id="a_node7"><a xlink:href="../../db/d10/classmodel_1_1_command_factory.html" target="_top" xlink:title="model.CommandFactory">
<polygon fill="white" stroke="black" points="254,-49.5 254,-68.5 388,-68.5 388,-49.5 254,-49.5"/>
<text text-anchor="middle" x="321" y="-56.5" font-family="Helvetica,sans-Serif" font-size="10.00">model.CommandFactory</text>
</a>
</g>
</g>
<!-- Node7&#45;&gt;Node3 -->
<g id="edge6" class="edge"><title>Node7&#45;&gt;Node3</title>
<path fill="none" stroke="#9a32cd" stroke-dasharray="5,2" d="M398.51,-63.1585C431.044,-65.0475 469.39,-67.4333 504,-70 514.28,-70.7624 525.207,-71.6534 535.789,-72.5586"/>
<polygon fill="#9a32cd" stroke="#9a32cd" points="398.348,-59.6435 388.163,-62.563 397.946,-66.6319 398.348,-59.6435"/>
<text text-anchor="middle" x="464" y="-73" font-family="Helvetica,sans-Serif" font-size="10.00"> factory</text>
</g>
<!-- Node8 -->
<g id="node8" class="node"><title>Node8</title>
<polygon fill="white" stroke="#bfbfbf" points="236,-0 236,-30 406,-30 406,-0 236,-0"/>
<text text-anchor="start" x="244" y="-18" font-family="Helvetica,sans-Serif" font-size="10.00">Map&lt; String, List&lt;</text>
<text text-anchor="middle" x="321" y="-7" font-family="Helvetica,sans-Serif" font-size="10.00"> parser.CommandTreeNode &gt; &gt;</text>
</g>
<!-- Node8&#45;&gt;Node3 -->
<g id="edge7" class="edge"><title>Node8&#45;&gt;Node3</title>
<path fill="none" stroke="#9a32cd" stroke-dasharray="5,2" d="M416.314,-28.9072C444.825,-34.2383 475.989,-41.2089 504,-50 512.353,-52.6215 513.755,-55.0572 522,-58 532.891,-61.8871 544.92,-65.4651 556.019,-68.4872"/>
<polygon fill="#9a32cd" stroke="#9a32cd" points="416.816,-25.441 406.35,-27.0896 415.56,-32.3273 416.816,-25.441"/>
<text text-anchor="middle" x="464" y="-53" font-family="Helvetica,sans-Serif" font-size="10.00"> userCommands</text>
</g>
<!-- Node9 -->
<g id="node9" class="node"><title>Node9</title>
<polygon fill="white" stroke="#bfbfbf" points="522.5,-19 522.5,-49 669.5,-49 669.5,-19 522.5,-19"/>
<text text-anchor="start" x="530.5" y="-37" font-family="Helvetica,sans-Serif" font-size="10.00">List&lt; parser.CommandTree</text>
<text text-anchor="middle" x="596" y="-26" font-family="Helvetica,sans-Serif" font-size="10.00">Node &gt;</text>
</g>
<!-- Node9&#45;&gt;Node1 -->
<g id="edge8" class="edge"><title>Node9&#45;&gt;Node1</title>
<path fill="none" stroke="#9a32cd" stroke-dasharray="5,2" d="M679.819,-41.206C706.776,-44.1417 736.763,-48.036 764,-53 787.587,-57.2988 813.78,-63.9364 833.849,-69.4288"/>
<polygon fill="#9a32cd" stroke="#9a32cd" points="679.961,-37.7015 669.648,-40.1276 679.223,-44.6625 679.961,-37.7015"/>
<text text-anchor="middle" x="726" y="-67" font-family="Helvetica,sans-Serif" font-size="10.00"> subCommands</text>
<text text-anchor="middle" x="726" y="-56" font-family="Helvetica,sans-Serif" font-size="10.00">turtles</text>
</g>
</g>
</svg>
