<?xml version="1.0" encoding="UTF-8" standalone="no"?>
<!DOCTYPE svg PUBLIC "-//W3C//DTD SVG 1.1//EN"
 "http://www.w3.org/Graphics/SVG/1.1/DTD/svg11.dtd">
<!-- Generated by graphviz version 2.36.0 (20140111.2315)
 -->
<!-- Title: command.turtle.ShowTurtleCommand.calculateValue Pages: 1 -->
<svg width="350pt" height="77pt"
 viewBox="0.00 0.00 350.00 77.00" xmlns="http://www.w3.org/2000/svg" xmlns:xlink="http://www.w3.org/1999/xlink">
<g id="graph0" class="graph" transform="scale(1 1) rotate(0) translate(4 73)">
<title>command.turtle.ShowTurtleCommand.calculateValue</title>
<polygon fill="white" stroke="none" points="-4,4 -4,-73 346,-73 346,4 -4,4"/>
<!-- Node1 -->
<g id="node1" class="node"><title>Node1</title>
<polygon fill="#bfbfbf" stroke="black" points="0,-22 0,-52 148,-52 148,-22 0,-22"/>
<text text-anchor="start" x="8" y="-40" font-family="Helvetica,sans-Serif" font-size="10.00">command.turtle.ShowTurtle</text>
<text text-anchor="middle" x="74" y="-29" font-family="Helvetica,sans-Serif" font-size="10.00">Command.calculateValue</text>
</g>
<!-- Node2 -->
<g id="node2" class="node"><title>Node2</title>
<g id="a_node2"><a xlink:href="../../d6/d34/classmodel_1_1_turtle.html#afbb33ed0634e2119072cb853f96ae2aa" target="_top" xlink:title="model.Turtle.setTurtleVisibility">
<polygon fill="white" stroke="black" points="184.5,-49.5 184.5,-68.5 341.5,-68.5 341.5,-49.5 184.5,-49.5"/>
<text text-anchor="middle" x="263" y="-56.5" font-family="Helvetica,sans-Serif" font-size="10.00">model.Turtle.setTurtleVisibility</text>
</a>
</g>
</g>
<!-- Node1&#45;&gt;Node2 -->
<g id="edge1" class="edge"><title>Node1&#45;&gt;Node2</title>
<path fill="none" stroke="midnightblue" d="M148.103,-45.6003C156.643,-46.6051 165.423,-47.638 174.137,-48.6631"/>
<polygon fill="midnightblue" stroke="midnightblue" points="173.977,-52.1684 184.318,-49.8609 174.795,-45.2164 173.977,-52.1684"/>
</g>
<!-- Node3 -->
<g id="node3" class="node"><title>Node3</title>
<g id="a_node3"><a xlink:href="../../d6/d34/classmodel_1_1_turtle.html#ab69148692c7de79ad6c276902b81553a" target="_top" xlink:title="model.Turtle.updateTurtle\lViewers">
<polygon fill="white" stroke="black" points="194.5,-0 194.5,-30 331.5,-30 331.5,-0 194.5,-0"/>
<text text-anchor="start" x="202.5" y="-18" font-family="Helvetica,sans-Serif" font-size="10.00">model.Turtle.updateTurtle</text>
<text text-anchor="middle" x="263" y="-7" font-family="Helvetica,sans-Serif" font-size="10.00">Viewers</text>
</a>
</g>
</g>
<!-- Node1&#45;&gt;Node3 -->
<g id="edge2" class="edge"><title>Node1&#45;&gt;Node3</title>
<path fill="none" stroke="midnightblue" d="M148.103,-28.3997C160.027,-26.9968 172.417,-25.5392 184.444,-24.1243"/>
<polygon fill="midnightblue" stroke="midnightblue" points="184.92,-27.5924 194.443,-22.9479 184.102,-20.6404 184.92,-27.5924"/>
</g>
</g>
</svg>
