<?xml version="1.0" encoding="UTF-8" standalone="no"?>
<!DOCTYPE svg PUBLIC "-//W3C//DTD SVG 1.1//EN"
 "http://www.w3.org/Graphics/SVG/1.1/DTD/svg11.dtd">
<!-- Generated by graphviz version 2.36.0 (20140111.2315)
 -->
<!-- Title: ui.elements.CanvasElement.getBaseNode Pages: 1 -->
<svg width="2326pt" height="105pt"
 viewBox="0.00 0.00 2326.00 105.00" xmlns="http://www.w3.org/2000/svg" xmlns:xlink="http://www.w3.org/1999/xlink">
<g id="graph0" class="graph" transform="scale(1 1) rotate(0) translate(4 101)">
<title>ui.elements.CanvasElement.getBaseNode</title>
<polygon fill="white" stroke="none" points="-4,4 -4,-101 2322,-101 2322,4 -4,4"/>
<!-- Node1 -->
<g id="node1" class="node"><title>Node1</title>
<polygon fill="#bfbfbf" stroke="black" points="0,-23 0,-53 170,-53 170,-23 0,-23"/>
<text text-anchor="start" x="8" y="-41" font-family="Helvetica,sans-Serif" font-size="10.00">ui.elements.CanvasElement.get</text>
<text text-anchor="middle" x="85" y="-30" font-family="Helvetica,sans-Serif" font-size="10.00">BaseNode</text>
</g>
<!-- Node2 -->
<g id="node2" class="node"><title>Node2</title>
<g id="a_node2"><a xlink:href="../../dc/d3b/classui_1_1_g_u_i.html#a765d554102f38969231261686f2f8e27" target="_top" xlink:title="ui.GUI.initialize">
<polygon fill="white" stroke="black" points="415,-47.5 415,-66.5 501,-66.5 501,-47.5 415,-47.5"/>
<text text-anchor="middle" x="458" y="-54.5" font-family="Helvetica,sans-Serif" font-size="10.00">ui.GUI.initialize</text>
</a>
</g>
</g>
<!-- Node1&#45;&gt;Node2 -->
<g id="edge1" class="edge"><title>Node1&#45;&gt;Node2</title>
<path fill="none" stroke="midnightblue" d="M180.634,-42.8465C255.982,-46.7053 357.892,-51.9244 414.543,-54.8257"/>
<polygon fill="midnightblue" stroke="midnightblue" points="180.352,-39.3275 170.186,-42.3114 179.994,-46.3184 180.352,-39.3275"/>
</g>
<!-- Node13 -->
<g id="node13" class="node"><title>Node13</title>
<g id="a_node13"><a xlink:href="../../dc/d3b/classui_1_1_g_u_i.html#a0337dd1c0a04ce5b2475037e66b5e3a7" target="_top" xlink:title="ui.GUI.makeTurtleView">
<polygon fill="white" stroke="black" points="206,-9.5 206,-28.5 328,-28.5 328,-9.5 206,-9.5"/>
<text text-anchor="middle" x="267" y="-16.5" font-family="Helvetica,sans-Serif" font-size="10.00">ui.GUI.makeTurtleView</text>
</a>
</g>
</g>
<!-- Node1&#45;&gt;Node13 -->
<g id="edge12" class="edge"><title>Node1&#45;&gt;Node13</title>
<path fill="none" stroke="midnightblue" d="M180.407,-28.0348C189.095,-27.1178 197.727,-26.2065 205.981,-25.3354"/>
<polygon fill="midnightblue" stroke="midnightblue" points="179.78,-24.5815 170.203,-29.1119 180.515,-31.5428 179.78,-24.5815"/>
</g>
<!-- Node3 -->
<g id="node3" class="node"><title>Node3</title>
<g id="a_node3"><a xlink:href="../../d5/d06/classui_1_1_scene_updater.html#aeef5dd7a8ec2ad6179e33fdd71ea90d6" target="_top" xlink:title="ui.SceneUpdater.initGUI">
<polygon fill="white" stroke="black" points="609.5,-49.5 609.5,-68.5 740.5,-68.5 740.5,-49.5 609.5,-49.5"/>
<text text-anchor="middle" x="675" y="-56.5" font-family="Helvetica,sans-Serif" font-size="10.00">ui.SceneUpdater.initGUI</text>
</a>
</g>
</g>
<!-- Node2&#45;&gt;Node3 -->
<g id="edge2" class="edge"><title>Node2&#45;&gt;Node3</title>
<path fill="none" stroke="midnightblue" d="M511.334,-57.4868C540.888,-57.7617 578.072,-58.1076 609.427,-58.3993"/>
<polygon fill="midnightblue" stroke="midnightblue" points="511.253,-53.986 501.221,-57.3927 511.188,-60.9857 511.253,-53.986"/>
</g>
<!-- Node4 -->
<g id="node4" class="node"><title>Node4</title>
<g id="a_node4"><a xlink:href="../../d9/df7/classcontroller_1_1_controller.html#a57e42ba83ee2145e6262cd72eac59570" target="_top" xlink:title="controller.Controller.init">
<polygon fill="white" stroke="black" points="798.5,-49.5 798.5,-68.5 925.5,-68.5 925.5,-49.5 798.5,-49.5"/>
<text text-anchor="middle" x="862" y="-56.5" font-family="Helvetica,sans-Serif" font-size="10.00">controller.Controller.init</text>
</a>
</g>
</g>
<!-- Node3&#45;&gt;Node4 -->
<g id="edge3" class="edge"><title>Node3&#45;&gt;Node4</title>
<path fill="none" stroke="midnightblue" d="M750.899,-59C766.598,-59 782.999,-59 798.202,-59"/>
<polygon fill="midnightblue" stroke="midnightblue" points="750.704,-55.5001 740.704,-59 750.704,-62.5001 750.704,-55.5001"/>
</g>
<!-- Node5 -->
<g id="node5" class="node"><title>Node5</title>
<g id="a_node5"><a xlink:href="../../dd/df2/classmain_1_1_workspace_manager.html#abc818b59211f6e14940b86a42bb868d0" target="_top" xlink:title="main.WorkspaceManager.create\lWorkspace">
<polygon fill="white" stroke="black" points="962,-44 962,-74 1132,-74 1132,-44 962,-44"/>
<text text-anchor="start" x="970" y="-62" font-family="Helvetica,sans-Serif" font-size="10.00">main.WorkspaceManager.create</text>
<text text-anchor="middle" x="1047" y="-51" font-family="Helvetica,sans-Serif" font-size="10.00">Workspace</text>
</a>
</g>
</g>
<!-- Node4&#45;&gt;Node5 -->
<g id="edge4" class="edge"><title>Node4&#45;&gt;Node5</title>
<path fill="none" stroke="midnightblue" d="M935.923,-59C944.392,-59 953.083,-59 961.689,-59"/>
<polygon fill="midnightblue" stroke="midnightblue" points="935.722,-55.5001 925.722,-59 935.722,-62.5001 935.722,-55.5001"/>
</g>
<!-- Node6 -->
<g id="node6" class="node"><title>Node6</title>
<g id="a_node6"><a xlink:href="../../d9/df7/classcontroller_1_1_controller.html#a3a9d672bb57047df70945ad1a9582c9a" target="_top" xlink:title="controller.Controller.create\lNewWorkspace">
<polygon fill="white" stroke="black" points="1168.5,-66 1168.5,-96 1311.5,-96 1311.5,-66 1168.5,-66"/>
<text text-anchor="start" x="1176.5" y="-84" font-family="Helvetica,sans-Serif" font-size="10.00">controller.Controller.create</text>
<text text-anchor="middle" x="1240" y="-73" font-family="Helvetica,sans-Serif" font-size="10.00">NewWorkspace</text>
</a>
</g>
</g>
<!-- Node5&#45;&gt;Node6 -->
<g id="edge5" class="edge"><title>Node5&#45;&gt;Node6</title>
<path fill="none" stroke="midnightblue" d="M1142.03,-69.8303C1150.88,-70.8503 1159.75,-71.8721 1168.34,-72.8608"/>
<polygon fill="midnightblue" stroke="midnightblue" points="1142.39,-66.3489 1132.05,-68.6815 1141.59,-73.3029 1142.39,-66.3489"/>
</g>
<!-- Node12 -->
<g id="node12" class="node"><title>Node12</title>
<g id="a_node12"><a xlink:href="../../d1/d0b/classmain_1_1_main.html#a9f1e5657b2f6f9bdd69a3b6412ceda74" target="_top" xlink:title="main.Main.start">
<polygon fill="white" stroke="black" points="1194,-27.5 1194,-46.5 1286,-46.5 1286,-27.5 1194,-27.5"/>
<text text-anchor="middle" x="1240" y="-34.5" font-family="Helvetica,sans-Serif" font-size="10.00">main.Main.start</text>
</a>
</g>
</g>
<!-- Node5&#45;&gt;Node12 -->
<g id="edge11" class="edge"><title>Node5&#45;&gt;Node12</title>
<path fill="none" stroke="midnightblue" d="M1142.09,-48.1629C1160.19,-46.0779 1178.36,-43.9851 1193.99,-42.1843"/>
<polygon fill="midnightblue" stroke="midnightblue" points="1141.59,-44.6971 1132.05,-49.3185 1142.39,-51.6511 1141.59,-44.6971"/>
</g>
<!-- Node7 -->
<g id="node7" class="node"><title>Node7</title>
<g id="a_node7"><a xlink:href="../../d5/d06/classui_1_1_scene_updater.html#a2858ad8edb0c0f59a21e2ae015f2fa1e" target="_top" xlink:title="ui.SceneUpdater.createNew\lWorkspace">
<polygon fill="white" stroke="black" points="1348,-66 1348,-96 1498,-96 1498,-66 1348,-66"/>
<text text-anchor="start" x="1356" y="-84" font-family="Helvetica,sans-Serif" font-size="10.00">ui.SceneUpdater.createNew</text>
<text text-anchor="middle" x="1423" y="-73" font-family="Helvetica,sans-Serif" font-size="10.00">Workspace</text>
</a>
</g>
</g>
<!-- Node6&#45;&gt;Node7 -->
<g id="edge6" class="edge"><title>Node6&#45;&gt;Node7</title>
<path fill="none" stroke="midnightblue" d="M1321.8,-81C1330.43,-81 1339.17,-81 1347.71,-81"/>
<polygon fill="midnightblue" stroke="midnightblue" points="1321.76,-77.5001 1311.76,-81 1321.76,-84.5001 1321.76,-77.5001"/>
</g>
<!-- Node8 -->
<g id="node8" class="node"><title>Node8</title>
<g id="a_node8"><a xlink:href="../../dc/d3b/classui_1_1_g_u_i.html#a2edc294ba07311e6c4b85c9fe749d1bf" target="_top" xlink:title="ui.GUI.createNewWorkspace">
<polygon fill="white" stroke="black" points="1534,-71.5 1534,-90.5 1684,-90.5 1684,-71.5 1534,-71.5"/>
<text text-anchor="middle" x="1609" y="-78.5" font-family="Helvetica,sans-Serif" font-size="10.00">ui.GUI.createNewWorkspace</text>
</a>
</g>
</g>
<!-- Node7&#45;&gt;Node8 -->
<g id="edge7" class="edge"><title>Node7&#45;&gt;Node8</title>
<path fill="none" stroke="midnightblue" d="M1508.07,-81C1516.65,-81 1525.34,-81 1533.81,-81"/>
<polygon fill="midnightblue" stroke="midnightblue" points="1508.04,-77.5001 1498.04,-81 1508.04,-84.5001 1508.04,-77.5001"/>
</g>
<!-- Node9 -->
<g id="node9" class="node"><title>Node9</title>
<g id="a_node9"><a xlink:href="../../d0/de6/classui_1_1elements_1_1_menu_bar_element.html#a98c13995a31d997aa10f2950583da6cc" target="_top" xlink:title="ui.elements.MenuBarElement.make\lMenuBar">
<polygon fill="white" stroke="black" points="1720,-66 1720,-96 1908,-96 1908,-66 1720,-66"/>
<text text-anchor="start" x="1728" y="-84" font-family="Helvetica,sans-Serif" font-size="10.00">ui.elements.MenuBarElement.make</text>
<text text-anchor="middle" x="1814" y="-73" font-family="Helvetica,sans-Serif" font-size="10.00">MenuBar</text>
</a>
</g>
</g>
<!-- Node8&#45;&gt;Node9 -->
<g id="edge8" class="edge"><title>Node8&#45;&gt;Node9</title>
<path fill="none" stroke="midnightblue" d="M1694.28,-81C1702.66,-81 1711.21,-81 1719.68,-81"/>
<polygon fill="midnightblue" stroke="midnightblue" points="1694.15,-77.5001 1684.15,-81 1694.15,-84.5001 1694.15,-77.5001"/>
</g>
<!-- Node10 -->
<g id="node10" class="node"><title>Node10</title>
<g id="a_node10"><a xlink:href="../../d0/de6/classui_1_1elements_1_1_menu_bar_element.html#a7bdb58f78cf8b61ba28498c5c86ab682" target="_top" xlink:title="ui.elements.MenuBarElement.init">
<polygon fill="white" stroke="black" points="1944,-71.5 1944,-90.5 2120,-90.5 2120,-71.5 1944,-71.5"/>
<text text-anchor="middle" x="2032" y="-78.5" font-family="Helvetica,sans-Serif" font-size="10.00">ui.elements.MenuBarElement.init</text>
</a>
</g>
</g>
<!-- Node9&#45;&gt;Node10 -->
<g id="edge9" class="edge"><title>Node9&#45;&gt;Node10</title>
<path fill="none" stroke="midnightblue" d="M1918.23,-81C1926.83,-81 1935.48,-81 1943.94,-81"/>
<polygon fill="midnightblue" stroke="midnightblue" points="1918.17,-77.5001 1908.17,-81 1918.17,-84.5001 1918.17,-77.5001"/>
</g>
<!-- Node11 -->
<g id="node11" class="node"><title>Node11</title>
<g id="a_node11"><a xlink:href="../../d0/de6/classui_1_1elements_1_1_menu_bar_element.html#ab4a4e6841c924a9d9c70b8073b56dffc" target="_top" xlink:title="ui.elements.MenuBarElement.\lMenuBarElement">
<polygon fill="white" stroke="black" points="2156.5,-66 2156.5,-96 2317.5,-96 2317.5,-66 2156.5,-66"/>
<text text-anchor="start" x="2164.5" y="-84" font-family="Helvetica,sans-Serif" font-size="10.00">ui.elements.MenuBarElement.</text>
<text text-anchor="middle" x="2237" y="-73" font-family="Helvetica,sans-Serif" font-size="10.00">MenuBarElement</text>
</a>
</g>
</g>
<!-- Node10&#45;&gt;Node11 -->
<g id="edge10" class="edge"><title>Node10&#45;&gt;Node11</title>
<path fill="none" stroke="midnightblue" d="M2130.47,-81C2139.19,-81 2147.95,-81 2156.5,-81"/>
<polygon fill="midnightblue" stroke="midnightblue" points="2130.27,-77.5001 2120.27,-81 2130.27,-84.5001 2130.27,-77.5001"/>
</g>
<!-- Node13&#45;&gt;Node2 -->
<g id="edge15" class="edge"><title>Node13&#45;&gt;Node2</title>
<path fill="none" stroke="midnightblue" d="M325.615,-30.584C354.366,-36.3646 388.52,-43.2315 414.798,-48.5149"/>
<polygon fill="midnightblue" stroke="midnightblue" points="326.186,-27.1289 315.693,-28.589 324.807,-33.9916 326.186,-27.1289"/>
</g>
<!-- Node14 -->
<g id="node14" class="node"><title>Node14</title>
<g id="a_node14"><a xlink:href="../../df/d9f/classui_1_1elements_1_1_t_properties_element.html#aa9783f0d27dd4082e08b8a23d60883fe" target="_top" xlink:title="ui.elements.TPropertiesElement.init">
<polygon fill="white" stroke="black" points="364.5,-8.5 364.5,-27.5 551.5,-27.5 551.5,-8.5 364.5,-8.5"/>
<text text-anchor="middle" x="458" y="-15.5" font-family="Helvetica,sans-Serif" font-size="10.00">ui.elements.TPropertiesElement.init</text>
</a>
</g>
</g>
<!-- Node13&#45;&gt;Node14 -->
<g id="edge13" class="edge"><title>Node13&#45;&gt;Node14</title>
<path fill="none" stroke="midnightblue" d="M338.27,-18.6282C346.77,-18.5832 355.551,-18.5368 364.311,-18.4904"/>
<polygon fill="midnightblue" stroke="midnightblue" points="338.042,-15.1293 328.06,-18.6822 338.079,-22.1292 338.042,-15.1293"/>
</g>
<!-- Node15 -->
<g id="node15" class="node"><title>Node15</title>
<g id="a_node15"><a xlink:href="../../df/d9f/classui_1_1elements_1_1_t_properties_element.html#a6c665abf2d1d12f6cc29c03f0b428efb" target="_top" xlink:title="ui.elements.TPropertiesElement.\lTPropertiesElement">
<polygon fill="white" stroke="black" points="588.5,-0 588.5,-30 761.5,-30 761.5,-0 588.5,-0"/>
<text text-anchor="start" x="596.5" y="-18" font-family="Helvetica,sans-Serif" font-size="10.00">ui.elements.TPropertiesElement.</text>
<text text-anchor="middle" x="675" y="-7" font-family="Helvetica,sans-Serif" font-size="10.00">TPropertiesElement</text>
</a>
</g>
</g>
<!-- Node14&#45;&gt;Node15 -->
<g id="edge14" class="edge"><title>Node14&#45;&gt;Node15</title>
<path fill="none" stroke="midnightblue" d="M561.759,-16.5661C570.662,-16.4419 579.609,-16.3171 588.354,-16.1951"/>
<polygon fill="midnightblue" stroke="midnightblue" points="561.689,-13.0667 551.739,-16.706 561.787,-20.066 561.689,-13.0667"/>
</g>
</g>
</svg>
