<?xml version="1.0" encoding="UTF-8" standalone="no"?>
<!DOCTYPE svg PUBLIC "-//W3C//DTD SVG 1.1//EN"
 "http://www.w3.org/Graphics/SVG/1.1/DTD/svg11.dtd">
<!-- Generated by graphviz version 2.36.0 (20140111.2315)
 -->
<!-- Title: ui.elements.InfoElement.setBindCommandList Pages: 1 -->
<!--zoomable 123 -->
<svg id="main" version="1.1" xmlns="http://www.w3.org/2000/svg" xmlns:xlink="http://www.w3.org/1999/xlink" xml:space="preserve" onload="init(evt)">
<style type="text/css"><![CDATA[
.edge:hover path { stroke: red; }
.edge:hover polygon { stroke: red; fill: red; }
]]></style>
<script type="text/javascript"><![CDATA[
var edges = document.getElementsByTagName('g');
if (edges && edges.length) {
  for (var i=0;i<edges.length;i++) {
    if (edges[i].id.substr(0,4)=='edge') {
      edges[i].setAttribute('class','edge');
    }
  }
}
]]></script>
        <defs>
                <circle id="rim" cx="0" cy="0" r="7"/>
                <circle id="rim2" cx="0" cy="0" r="3.5"/>
                <g id="zoomPlus">
                        <use xlink:href="#rim" fill="#404040">
                                <set attributeName="fill" to="#808080" begin="zoomplus.mouseover" end="zoomplus.mouseout"/>
                        </use>
                        <path d="M-4,0h8M0,-4v8" fill="none" stroke="white" stroke-width="1.5" pointer-events="none"/>
                </g>
                <g id="zoomMin">
                        <use xlink:href="#rim" fill="#404040">
                                <set attributeName="fill" to="#808080" begin="zoomminus.mouseover" end="zoomminus.mouseout"/>
                        </use>
                        <path d="M-4,0h8" fill="none" stroke="white" stroke-width="1.5" pointer-events="none"/>
                </g>
                <g id="dirArrow">
                        <path fill="none" stroke="white" stroke-width="1.5" d="M0,-3.0v7 M-2.5,-0.5L0,-3.0L2.5,-0.5"/>
                </g>
               <g id="resetDef">
                       <use xlink:href="#rim2" fill="#404040">
                               <set attributeName="fill" to="#808080" begin="reset.mouseover" end="reset.mouseout"/>
                       </use>
               </g>
        </defs>

<script type="text/javascript">
var viewWidth = 3252;
var viewHeight = 123;
var sectionId = 'dynsection-9';
</script>
<script xlink:href="../../svgpan.js"/>
<svg id="graph" class="graph">
<g id="viewport">
<title>ui.elements.InfoElement.setBindCommandList</title>
<polygon fill="white" stroke="none" points="-4,4 -4,-119 3248,-119 3248,4 -4,4"/>
<!-- Node1 -->
<g id="node1" class="node"><title>Node1</title>
<polygon fill="#bfbfbf" stroke="black" points="0.5,-60 0.5,-90 151.5,-90 151.5,-60 0.5,-60"/>
<text text-anchor="start" x="8.5" y="-78" font-family="Helvetica,sans-Serif" font-size="10.00">ui.elements.InfoElement.set</text>
<text text-anchor="middle" x="76" y="-67" font-family="Helvetica,sans-Serif" font-size="10.00">BindCommandList</text>
</g>
<!-- Node2 -->
<g id="node2" class="node"><title>Node2</title>
<g id="a_node2"><a xlink:href="../../dc/d3b/classui_1_1_g_u_i.html#a3c16c78e8d953dbf8ef41113ca03621e" target="_top" xlink:title="ui.GUI.addCommandHistory">
<polygon fill="white" stroke="black" points="188,-65.5 188,-84.5 338,-84.5 338,-65.5 188,-65.5"/>
<text text-anchor="middle" x="263" y="-72.5" font-family="Helvetica,sans-Serif" font-size="10.00">ui.GUI.addCommandHistory</text>
</a>
</g>
</g>
<!-- Node1&#45;&gt;Node2 -->
<g id="edge1" class="edge"><title>Node1&#45;&gt;Node2</title>
<path fill="none" stroke="midnightblue" d="M161.861,-75C170.557,-75 179.343,-75 187.91,-75"/>
<polygon fill="midnightblue" stroke="midnightblue" points="161.713,-71.5001 151.713,-75 161.713,-78.5001 161.713,-71.5001"/>
</g>
<!-- Node3 -->
<g id="node3" class="node"><title>Node3</title>
<g id="a_node3"><a xlink:href="../../d5/d06/classui_1_1_scene_updater.html#ac93c2b014447efef3a09141521fb4d9e" target="_top" xlink:title="ui.SceneUpdater.addCommand\lHistory">
<polygon fill="white" stroke="black" points="374.5,-60 374.5,-90 541.5,-90 541.5,-60 374.5,-60"/>
<text text-anchor="start" x="382.5" y="-78" font-family="Helvetica,sans-Serif" font-size="10.00">ui.SceneUpdater.addCommand</text>
<text text-anchor="middle" x="458" y="-67" font-family="Helvetica,sans-Serif" font-size="10.00">History</text>
</a>
</g>
</g>
<!-- Node2&#45;&gt;Node3 -->
<g id="edge2" class="edge"><title>Node2&#45;&gt;Node3</title>
<path fill="none" stroke="midnightblue" d="M348.21,-75C356.918,-75 365.761,-75 374.451,-75"/>
<polygon fill="midnightblue" stroke="midnightblue" points="348.067,-71.5001 338.067,-75 348.067,-78.5001 348.067,-71.5001"/>
</g>
<!-- Node4 -->
<g id="node4" class="node"><title>Node4</title>
<g id="a_node4"><a xlink:href="../../d9/df7/classcontroller_1_1_controller.html#a2dc441a48a86dce731d5bb2dd76b3381" target="_top" xlink:title="controller.Controller.add\lCommandHistory">
<polygon fill="white" stroke="black" points="582.5,-85 582.5,-115 713.5,-115 713.5,-85 582.5,-85"/>
<text text-anchor="start" x="590.5" y="-103" font-family="Helvetica,sans-Serif" font-size="10.00">controller.Controller.add</text>
<text text-anchor="middle" x="648" y="-92" font-family="Helvetica,sans-Serif" font-size="10.00">CommandHistory</text>
</a>
</g>
</g>
<!-- Node3&#45;&gt;Node4 -->
<g id="edge3" class="edge"><title>Node3&#45;&gt;Node4</title>
<path fill="none" stroke="midnightblue" d="M551.65,-87.3205C562.018,-88.6992 572.408,-90.0808 582.314,-91.3982"/>
<polygon fill="midnightblue" stroke="midnightblue" points="552.107,-83.8506 541.733,-86.0017 551.184,-90.7895 552.107,-83.8506"/>
</g>
<!-- Node5 -->
<g id="node5" class="node"><title>Node5</title>
<g id="a_node5"><a xlink:href="../../d9/df7/classcontroller_1_1_controller.html#a3d81fb1a57114f96fb6c319f4c5df370" target="_top" xlink:title="controller.Controller.parse\lCommand">
<polygon fill="white" stroke="black" points="578,-36 578,-66 718,-66 718,-36 578,-36"/>
<text text-anchor="start" x="586" y="-54" font-family="Helvetica,sans-Serif" font-size="10.00">controller.Controller.parse</text>
<text text-anchor="middle" x="648" y="-43" font-family="Helvetica,sans-Serif" font-size="10.00">Command</text>
</a>
</g>
</g>
<!-- Node3&#45;&gt;Node5 -->
<g id="edge4" class="edge"><title>Node3&#45;&gt;Node5</title>
<path fill="none" stroke="midnightblue" d="M551.915,-63.1385C560.609,-62.0287 569.314,-60.9173 577.735,-59.8423"/>
<polygon fill="midnightblue" stroke="midnightblue" points="551.209,-59.7001 541.733,-64.4383 552.096,-66.6437 551.209,-59.7001"/>
</g>
<!-- Node6 -->
<g id="node6" class="node"><title>Node6</title>
<g id="a_node6"><a xlink:href="../../d5/d06/classui_1_1_scene_updater.html#ab77a04f8b0038429b09237aac18906e8" target="_top" xlink:title="ui.SceneUpdater.sendCommands">
<polygon fill="white" stroke="black" points="754,-41.5 754,-60.5 932,-60.5 932,-41.5 754,-41.5"/>
<text text-anchor="middle" x="843" y="-48.5" font-family="Helvetica,sans-Serif" font-size="10.00">ui.SceneUpdater.sendCommands</text>
</a>
</g>
</g>
<!-- Node5&#45;&gt;Node6 -->
<g id="edge5" class="edge"><title>Node5&#45;&gt;Node6</title>
<path fill="none" stroke="midnightblue" d="M728.294,-51C736.713,-51 745.313,-51 753.825,-51"/>
<polygon fill="midnightblue" stroke="midnightblue" points="728.132,-47.5001 718.132,-51 728.132,-54.5001 728.132,-47.5001"/>
</g>
<!-- Node7 -->
<g id="node7" class="node"><title>Node7</title>
<g id="a_node7"><a xlink:href="../../dc/d3b/classui_1_1_g_u_i.html#ad8f08a79a20a498bcaafdc7e2e2ce0a9" target="_top" xlink:title="ui.GUI.parseCommand">
<polygon fill="white" stroke="black" points="968.5,-41.5 968.5,-60.5 1093.5,-60.5 1093.5,-41.5 968.5,-41.5"/>
<text text-anchor="middle" x="1031" y="-48.5" font-family="Helvetica,sans-Serif" font-size="10.00">ui.GUI.parseCommand</text>
</a>
</g>
</g>
<!-- Node6&#45;&gt;Node7 -->
<g id="edge6" class="edge"><title>Node6&#45;&gt;Node7</title>
<path fill="none" stroke="midnightblue" d="M942.196,-51C951.132,-51 960.003,-51 968.479,-51"/>
<polygon fill="midnightblue" stroke="midnightblue" points="942.098,-47.5001 932.098,-51 942.098,-54.5001 942.098,-47.5001"/>
</g>
<!-- Node8 -->
<g id="node8" class="node"><title>Node8</title>
<g id="a_node8"><a xlink:href="../../d8/d3c/classui_1_1elements_1_1_i_o_element.html#a139a046f0c771f86696f2eee04047c64" target="_top" xlink:title="ui.elements.IOElement.init">
<polygon fill="white" stroke="black" points="1146.5,-60.5 1146.5,-79.5 1289.5,-79.5 1289.5,-60.5 1146.5,-60.5"/>
<text text-anchor="middle" x="1218" y="-67.5" font-family="Helvetica,sans-Serif" font-size="10.00">ui.elements.IOElement.init</text>
</a>
</g>
</g>
<!-- Node7&#45;&gt;Node8 -->
<g id="edge7" class="edge"><title>Node7&#45;&gt;Node8</title>
<path fill="none" stroke="midnightblue" d="M1103.68,-58.3614C1117.7,-59.8019 1132.4,-61.3116 1146.39,-62.7485"/>
<polygon fill="midnightblue" stroke="midnightblue" points="1103.91,-54.8668 1093.6,-57.3267 1103.19,-61.8302 1103.91,-54.8668"/>
</g>
<!-- Node10 -->
<g id="node10" class="node"><title>Node10</title>
<g id="a_node10"><a xlink:href="../../dc/d3b/classui_1_1_g_u_i.html#ab8ec2a37b3d5bd9e8c2abbb3642fb965" target="_top" xlink:title="ui.GUI.setupKeyboardCommands">
<polygon fill="white" stroke="black" points="1130.5,-22.5 1130.5,-41.5 1305.5,-41.5 1305.5,-22.5 1130.5,-22.5"/>
<text text-anchor="middle" x="1218" y="-29.5" font-family="Helvetica,sans-Serif" font-size="10.00">ui.GUI.setupKeyboardCommands</text>
</a>
</g>
</g>
<!-- Node7&#45;&gt;Node10 -->
<g id="edge9" class="edge"><title>Node7&#45;&gt;Node10</title>
<path fill="none" stroke="midnightblue" d="M1103.69,-43.6368C1112.41,-42.7417 1121.39,-41.8199 1130.29,-40.9054"/>
<polygon fill="midnightblue" stroke="midnightblue" points="1103.19,-40.1698 1093.6,-44.6733 1103.91,-47.1332 1103.19,-40.1698"/>
</g>
<!-- Node9 -->
<g id="node9" class="node"><title>Node9</title>
<g id="a_node9"><a xlink:href="../../d8/d3c/classui_1_1elements_1_1_i_o_element.html#a556e1a3ad292fe3ab731065eef59b187" target="_top" xlink:title="ui.elements.IOElement.IOElement">
<polygon fill="white" stroke="black" points="1342,-60.5 1342,-79.5 1520,-79.5 1520,-60.5 1342,-60.5"/>
<text text-anchor="middle" x="1431" y="-67.5" font-family="Helvetica,sans-Serif" font-size="10.00">ui.elements.IOElement.IOElement</text>
</a>
</g>
</g>
<!-- Node8&#45;&gt;Node9 -->
<g id="edge8" class="edge"><title>Node8&#45;&gt;Node9</title>
<path fill="none" stroke="midnightblue" d="M1299.92,-70C1313.65,-70 1327.97,-70 1341.88,-70"/>
<polygon fill="midnightblue" stroke="midnightblue" points="1299.55,-66.5001 1289.55,-70 1299.55,-73.5001 1299.55,-66.5001"/>
</g>
<!-- Node11 -->
<g id="node11" class="node"><title>Node11</title>
<g id="a_node11"><a xlink:href="../../dc/d3b/classui_1_1_g_u_i.html#a765d554102f38969231261686f2f8e27" target="_top" xlink:title="ui.GUI.initialize">
<polygon fill="white" stroke="black" points="1388,-22.5 1388,-41.5 1474,-41.5 1474,-22.5 1388,-22.5"/>
<text text-anchor="middle" x="1431" y="-29.5" font-family="Helvetica,sans-Serif" font-size="10.00">ui.GUI.initialize</text>
</a>
</g>
</g>
<!-- Node10&#45;&gt;Node11 -->
<g id="edge10" class="edge"><title>Node10&#45;&gt;Node11</title>
<path fill="none" stroke="midnightblue" d="M1315.75,-32C1341.02,-32 1366.96,-32 1387.72,-32"/>
<polygon fill="midnightblue" stroke="midnightblue" points="1315.74,-28.5001 1305.74,-32 1315.74,-35.5001 1315.74,-28.5001"/>
</g>
<!-- Node12 -->
<g id="node12" class="node"><title>Node12</title>
<g id="a_node12"><a xlink:href="../../d5/d06/classui_1_1_scene_updater.html#aeef5dd7a8ec2ad6179e33fdd71ea90d6" target="_top" xlink:title="ui.SceneUpdater.initGUI">
<polygon fill="white" stroke="black" points="1556.5,-22.5 1556.5,-41.5 1687.5,-41.5 1687.5,-22.5 1556.5,-22.5"/>
<text text-anchor="middle" x="1622" y="-29.5" font-family="Helvetica,sans-Serif" font-size="10.00">ui.SceneUpdater.initGUI</text>
</a>
</g>
</g>
<!-- Node11&#45;&gt;Node12 -->
<g id="edge11" class="edge"><title>Node11&#45;&gt;Node12</title>
<path fill="none" stroke="midnightblue" d="M1484.67,-32C1506.92,-32 1533.05,-32 1556.45,-32"/>
<polygon fill="midnightblue" stroke="midnightblue" points="1484.42,-28.5001 1474.42,-32 1484.42,-35.5001 1484.42,-28.5001"/>
</g>
<!-- Node13 -->
<g id="node13" class="node"><title>Node13</title>
<g id="a_node13"><a xlink:href="../../d9/df7/classcontroller_1_1_controller.html#a57e42ba83ee2145e6262cd72eac59570" target="_top" xlink:title="controller.Controller.init">
<polygon fill="white" stroke="black" points="1724.5,-22.5 1724.5,-41.5 1851.5,-41.5 1851.5,-22.5 1724.5,-22.5"/>
<text text-anchor="middle" x="1788" y="-29.5" font-family="Helvetica,sans-Serif" font-size="10.00">controller.Controller.init</text>
</a>
</g>
</g>
<!-- Node12&#45;&gt;Node13 -->
<g id="edge12" class="edge"><title>Node12&#45;&gt;Node13</title>
<path fill="none" stroke="midnightblue" d="M1698.04,-32C1706.81,-32 1715.68,-32 1724.26,-32"/>
<polygon fill="midnightblue" stroke="midnightblue" points="1697.82,-28.5001 1687.82,-32 1697.82,-35.5001 1697.82,-28.5001"/>
</g>
<!-- Node14 -->
<g id="node14" class="node"><title>Node14</title>
<g id="a_node14"><a xlink:href="../../dd/df2/classmain_1_1_workspace_manager.html#abc818b59211f6e14940b86a42bb868d0" target="_top" xlink:title="main.WorkspaceManager.create\lWorkspace">
<polygon fill="white" stroke="black" points="1888,-17 1888,-47 2058,-47 2058,-17 1888,-17"/>
<text text-anchor="start" x="1896" y="-35" font-family="Helvetica,sans-Serif" font-size="10.00">main.WorkspaceManager.create</text>
<text text-anchor="middle" x="1973" y="-24" font-family="Helvetica,sans-Serif" font-size="10.00">Workspace</text>
</a>
</g>
</g>
<!-- Node13&#45;&gt;Node14 -->
<g id="edge13" class="edge"><title>Node13&#45;&gt;Node14</title>
<path fill="none" stroke="midnightblue" d="M1861.92,-32C1870.39,-32 1879.08,-32 1887.69,-32"/>
<polygon fill="midnightblue" stroke="midnightblue" points="1861.72,-28.5001 1851.72,-32 1861.72,-35.5001 1861.72,-28.5001"/>
</g>
<!-- Node15 -->
<g id="node15" class="node"><title>Node15</title>
<g id="a_node15"><a xlink:href="../../d9/df7/classcontroller_1_1_controller.html#a3a9d672bb57047df70945ad1a9582c9a" target="_top" xlink:title="controller.Controller.create\lNewWorkspace">
<polygon fill="white" stroke="black" points="2094.5,-39 2094.5,-69 2237.5,-69 2237.5,-39 2094.5,-39"/>
<text text-anchor="start" x="2102.5" y="-57" font-family="Helvetica,sans-Serif" font-size="10.00">controller.Controller.create</text>
<text text-anchor="middle" x="2166" y="-46" font-family="Helvetica,sans-Serif" font-size="10.00">NewWorkspace</text>
</a>
</g>
</g>
<!-- Node14&#45;&gt;Node15 -->
<g id="edge14" class="edge"><title>Node14&#45;&gt;Node15</title>
<path fill="none" stroke="midnightblue" d="M2068.03,-42.8303C2076.88,-43.8503 2085.75,-44.8721 2094.34,-45.8608"/>
<polygon fill="midnightblue" stroke="midnightblue" points="2068.39,-39.3489 2058.05,-41.6815 2067.59,-46.3029 2068.39,-39.3489"/>
</g>
<!-- Node21 -->
<g id="node21" class="node"><title>Node21</title>
<g id="a_node21"><a xlink:href="../../d1/d0b/classmain_1_1_main.html#a9f1e5657b2f6f9bdd69a3b6412ceda74" target="_top" xlink:title="main.Main.start">
<polygon fill="white" stroke="black" points="2120,-0.5 2120,-19.5 2212,-19.5 2212,-0.5 2120,-0.5"/>
<text text-anchor="middle" x="2166" y="-7.5" font-family="Helvetica,sans-Serif" font-size="10.00">main.Main.start</text>
</a>
</g>
</g>
<!-- Node14&#45;&gt;Node21 -->
<g id="edge20" class="edge"><title>Node14&#45;&gt;Node21</title>
<path fill="none" stroke="midnightblue" d="M2068.09,-21.1629C2086.19,-19.0779 2104.36,-16.9851 2119.99,-15.1843"/>
<polygon fill="midnightblue" stroke="midnightblue" points="2067.59,-17.6971 2058.05,-22.3185 2068.39,-24.6511 2067.59,-17.6971"/>
</g>
<!-- Node16 -->
<g id="node16" class="node"><title>Node16</title>
<g id="a_node16"><a xlink:href="../../d5/d06/classui_1_1_scene_updater.html#a2858ad8edb0c0f59a21e2ae015f2fa1e" target="_top" xlink:title="ui.SceneUpdater.createNew\lWorkspace">
<polygon fill="white" stroke="black" points="2274,-39 2274,-69 2424,-69 2424,-39 2274,-39"/>
<text text-anchor="start" x="2282" y="-57" font-family="Helvetica,sans-Serif" font-size="10.00">ui.SceneUpdater.createNew</text>
<text text-anchor="middle" x="2349" y="-46" font-family="Helvetica,sans-Serif" font-size="10.00">Workspace</text>
</a>
</g>
</g>
<!-- Node15&#45;&gt;Node16 -->
<g id="edge15" class="edge"><title>Node15&#45;&gt;Node16</title>
<path fill="none" stroke="midnightblue" d="M2247.8,-54C2256.43,-54 2265.17,-54 2273.71,-54"/>
<polygon fill="midnightblue" stroke="midnightblue" points="2247.76,-50.5001 2237.76,-54 2247.76,-57.5001 2247.76,-50.5001"/>
</g>
<!-- Node17 -->
<g id="node17" class="node"><title>Node17</title>
<g id="a_node17"><a xlink:href="../../dc/d3b/classui_1_1_g_u_i.html#a2edc294ba07311e6c4b85c9fe749d1bf" target="_top" xlink:title="ui.GUI.createNewWorkspace">
<polygon fill="white" stroke="black" points="2460,-44.5 2460,-63.5 2610,-63.5 2610,-44.5 2460,-44.5"/>
<text text-anchor="middle" x="2535" y="-51.5" font-family="Helvetica,sans-Serif" font-size="10.00">ui.GUI.createNewWorkspace</text>
</a>
</g>
</g>
<!-- Node16&#45;&gt;Node17 -->
<g id="edge16" class="edge"><title>Node16&#45;&gt;Node17</title>
<path fill="none" stroke="midnightblue" d="M2434.07,-54C2442.65,-54 2451.34,-54 2459.81,-54"/>
<polygon fill="midnightblue" stroke="midnightblue" points="2434.04,-50.5001 2424.04,-54 2434.04,-57.5001 2434.04,-50.5001"/>
</g>
<!-- Node18 -->
<g id="node18" class="node"><title>Node18</title>
<g id="a_node18"><a xlink:href="../../d0/de6/classui_1_1elements_1_1_menu_bar_element.html#a98c13995a31d997aa10f2950583da6cc" target="_top" xlink:title="ui.elements.MenuBarElement.make\lMenuBar">
<polygon fill="white" stroke="black" points="2646,-39 2646,-69 2834,-69 2834,-39 2646,-39"/>
<text text-anchor="start" x="2654" y="-57" font-family="Helvetica,sans-Serif" font-size="10.00">ui.elements.MenuBarElement.make</text>
<text text-anchor="middle" x="2740" y="-46" font-family="Helvetica,sans-Serif" font-size="10.00">MenuBar</text>
</a>
</g>
</g>
<!-- Node17&#45;&gt;Node18 -->
<g id="edge17" class="edge"><title>Node17&#45;&gt;Node18</title>
<path fill="none" stroke="midnightblue" d="M2620.28,-54C2628.66,-54 2637.21,-54 2645.68,-54"/>
<polygon fill="midnightblue" stroke="midnightblue" points="2620.15,-50.5001 2610.15,-54 2620.15,-57.5001 2620.15,-50.5001"/>
</g>
<!-- Node19 -->
<g id="node19" class="node"><title>Node19</title>
<g id="a_node19"><a xlink:href="../../d0/de6/classui_1_1elements_1_1_menu_bar_element.html#a7bdb58f78cf8b61ba28498c5c86ab682" target="_top" xlink:title="ui.elements.MenuBarElement.init">
<polygon fill="white" stroke="black" points="2870,-44.5 2870,-63.5 3046,-63.5 3046,-44.5 2870,-44.5"/>
<text text-anchor="middle" x="2958" y="-51.5" font-family="Helvetica,sans-Serif" font-size="10.00">ui.elements.MenuBarElement.init</text>
</a>
</g>
</g>
<!-- Node18&#45;&gt;Node19 -->
<g id="edge18" class="edge"><title>Node18&#45;&gt;Node19</title>
<path fill="none" stroke="midnightblue" d="M2844.23,-54C2852.83,-54 2861.48,-54 2869.94,-54"/>
<polygon fill="midnightblue" stroke="midnightblue" points="2844.17,-50.5001 2834.17,-54 2844.17,-57.5001 2844.17,-50.5001"/>
</g>
<!-- Node20 -->
<g id="node20" class="node"><title>Node20</title>
<g id="a_node20"><a xlink:href="../../d0/de6/classui_1_1elements_1_1_menu_bar_element.html#ab4a4e6841c924a9d9c70b8073b56dffc" target="_top" xlink:title="ui.elements.MenuBarElement.\lMenuBarElement">
<polygon fill="white" stroke="black" points="3082.5,-39 3082.5,-69 3243.5,-69 3243.5,-39 3082.5,-39"/>
<text text-anchor="start" x="3090.5" y="-57" font-family="Helvetica,sans-Serif" font-size="10.00">ui.elements.MenuBarElement.</text>
<text text-anchor="middle" x="3163" y="-46" font-family="Helvetica,sans-Serif" font-size="10.00">MenuBarElement</text>
</a>
</g>
</g>
<!-- Node19&#45;&gt;Node20 -->
<g id="edge19" class="edge"><title>Node19&#45;&gt;Node20</title>
<path fill="none" stroke="midnightblue" d="M3056.47,-54C3065.19,-54 3073.95,-54 3082.5,-54"/>
<polygon fill="midnightblue" stroke="midnightblue" points="3056.27,-50.5001 3046.27,-54 3056.27,-57.5001 3056.27,-50.5001"/>
</g>
</g>
</svg>
        <g id="navigator" transform="translate(0 0)" fill="#404254">
                <rect fill="#f2f5e9" fill-opacity="0.5" stroke="#606060" stroke-width=".5" x="0" y="0" width="60" height="60"/>
                <use id="zoomplus" xlink:href="#zoomPlus" x="17" y="9" onmousedown="handleZoom(evt,'in')"/>
                <use id="zoomminus" xlink:href="#zoomMin" x="42" y="9" onmousedown="handleZoom(evt,'out')"/>
                <use id="reset" xlink:href="#resetDef" x="30" y="36" onmousedown="handleReset()"/>
                <g id="arrowUp" xlink:href="#dirArrow" transform="translate(30 24)" onmousedown="handlePan(0,-1)">
                  <use xlink:href="#rim" fill="#404040">
                        <set attributeName="fill" to="#808080" begin="arrowUp.mouseover" end="arrowUp.mouseout"/>
                  </use>
                  <path fill="none" stroke="white" stroke-width="1.5" d="M0,-3.0v7 M-2.5,-0.5L0,-3.0L2.5,-0.5"/>
                </g>
                <g id="arrowRight" xlink:href="#dirArrow" transform="rotate(90) translate(36 -43)" onmousedown="handlePan(1,0)">
                  <use xlink:href="#rim" fill="#404040">
                        <set attributeName="fill" to="#808080" begin="arrowRight.mouseover" end="arrowRight.mouseout"/>
                  </use>
                  <path fill="none" stroke="white" stroke-width="1.5" d="M0,-3.0v7 M-2.5,-0.5L0,-3.0L2.5,-0.5"/>
                </g>
                <g id="arrowDown" xlink:href="#dirArrow" transform="rotate(180) translate(-30 -48)" onmousedown="handlePan(0,1)">
                  <use xlink:href="#rim" fill="#404040">
                        <set attributeName="fill" to="#808080" begin="arrowDown.mouseover" end="arrowDown.mouseout"/>
                  </use>
                  <path fill="none" stroke="white" stroke-width="1.5" d="M0,-3.0v7 M-2.5,-0.5L0,-3.0L2.5,-0.5"/>
                </g>
                <g id="arrowLeft" xlink:href="#dirArrow" transform="rotate(270) translate(-36 17)" onmousedown="handlePan(-1,0)">
                  <use xlink:href="#rim" fill="#404040">
                        <set attributeName="fill" to="#808080" begin="arrowLeft.mouseover" end="arrowLeft.mouseout"/>
                  </use>
                  <path fill="none" stroke="white" stroke-width="1.5" d="M0,-3.0v7 M-2.5,-0.5L0,-3.0L2.5,-0.5"/>
                </g>
        </g>
        <svg viewBox="0 0 15 15" width="100%" height="30px" preserveAspectRatio="xMaxYMin meet">
         <g id="arrow_out" transform="scale(0.3 0.3)">
          <a xlink:href="classui_1_1elements_1_1_info_element_aa14d00daf19b5c3d7cd792c2590f23b3_icgraph_org.svg" target="_base">
           <rect id="button" ry="5" rx="5" y="6" x="6" height="38" width="38"
                fill="#f2f5e9" fill-opacity="0.5" stroke="#606060" stroke-width="1.0"/>
           <path id="arrow"
             d="M 11.500037,31.436501 C 11.940474,20.09759 22.043105,11.32322 32.158766,21.979434 L 37.068811,17.246167 C 37.068811,17.246167 37.088388,32 37.088388,32 L 22.160133,31.978069 C 22.160133,31.978069 26.997745,27.140456 26.997745,27.140456 C 18.528582,18.264221 13.291696,25.230495 11.500037,31.436501 z"
             style="fill:#404040;"/>
          </a>
         </g>
        </svg>
</svg>
