<?xml version="1.0" encoding="UTF-8" standalone="no"?>
<!DOCTYPE svg PUBLIC "-//W3C//DTD SVG 1.1//EN"
 "http://www.w3.org/Graphics/SVG/1.1/DTD/svg11.dtd">
<!-- Generated by graphviz version 2.36.0 (20140111.2315)
 -->
<!-- Title: ui.elements.InfoElement.update Pages: 1 -->
<svg width="3458pt" height="123pt"
 viewBox="0.00 0.00 3458.00 123.00" xmlns="http://www.w3.org/2000/svg" xmlns:xlink="http://www.w3.org/1999/xlink">
<g id="graph0" class="graph" transform="scale(1 1) rotate(0) translate(4 119)">
<title>ui.elements.InfoElement.update</title>
<polygon fill="white" stroke="none" points="-4,4 -4,-119 3454,-119 3454,4 -4,4"/>
<!-- Node1 -->
<g id="node1" class="node"><title>Node1</title>
<polygon fill="#bfbfbf" stroke="black" points="0,-40.5 0,-59.5 170,-59.5 170,-40.5 0,-40.5"/>
<text text-anchor="middle" x="85" y="-47.5" font-family="Helvetica,sans-Serif" font-size="10.00">ui.elements.InfoElement.update</text>
</g>
<!-- Node2 -->
<g id="node2" class="node"><title>Node2</title>
<g id="a_node2"><a xlink:href="../../d6/dd8/classui_1_1elements_1_1_info_element.html#aa14d00daf19b5c3d7cd792c2590f23b3" target="_top" xlink:title="ui.elements.InfoElement.set\lBindCommandList">
<polygon fill="white" stroke="black" points="206.5,-60 206.5,-90 357.5,-90 357.5,-60 206.5,-60"/>
<text text-anchor="start" x="214.5" y="-78" font-family="Helvetica,sans-Serif" font-size="10.00">ui.elements.InfoElement.set</text>
<text text-anchor="middle" x="282" y="-67" font-family="Helvetica,sans-Serif" font-size="10.00">BindCommandList</text>
</a>
</g>
</g>
<!-- Node1&#45;&gt;Node2 -->
<g id="edge1" class="edge"><title>Node1&#45;&gt;Node2</title>
<path fill="none" stroke="midnightblue" d="M170.262,-60.8029C182.245,-62.3391 194.499,-63.9102 206.283,-65.4209"/>
<polygon fill="midnightblue" stroke="midnightblue" points="170.641,-57.3229 160.277,-59.5227 169.751,-64.2661 170.641,-57.3229"/>
</g>
<!-- Node23 -->
<g id="node23" class="node"><title>Node23</title>
<g id="a_node23"><a xlink:href="../../d6/dd8/classui_1_1elements_1_1_info_element.html#afb4dbecfadcfe6f073358912f354e289" target="_top" xlink:title="ui.elements.InfoElement.set\lBindVariableList">
<polygon fill="white" stroke="black" points="206.5,-11 206.5,-41 357.5,-41 357.5,-11 206.5,-11"/>
<text text-anchor="start" x="214.5" y="-29" font-family="Helvetica,sans-Serif" font-size="10.00">ui.elements.InfoElement.set</text>
<text text-anchor="middle" x="282" y="-18" font-family="Helvetica,sans-Serif" font-size="10.00">BindVariableList</text>
</a>
</g>
</g>
<!-- Node1&#45;&gt;Node23 -->
<g id="edge22" class="edge"><title>Node1&#45;&gt;Node23</title>
<path fill="none" stroke="midnightblue" d="M173.374,-39.2462C184.361,-37.894 195.522,-36.5204 206.289,-35.1952"/>
<polygon fill="midnightblue" stroke="midnightblue" points="172.847,-35.7847 163.349,-40.4801 173.702,-42.7322 172.847,-35.7847"/>
</g>
<!-- Node3 -->
<g id="node3" class="node"><title>Node3</title>
<g id="a_node3"><a xlink:href="../../dc/d3b/classui_1_1_g_u_i.html#a3c16c78e8d953dbf8ef41113ca03621e" target="_top" xlink:title="ui.GUI.addCommandHistory">
<polygon fill="white" stroke="black" points="394,-65.5 394,-84.5 544,-84.5 544,-65.5 394,-65.5"/>
<text text-anchor="middle" x="469" y="-72.5" font-family="Helvetica,sans-Serif" font-size="10.00">ui.GUI.addCommandHistory</text>
</a>
</g>
</g>
<!-- Node2&#45;&gt;Node3 -->
<g id="edge2" class="edge"><title>Node2&#45;&gt;Node3</title>
<path fill="none" stroke="midnightblue" d="M367.861,-75C376.557,-75 385.343,-75 393.91,-75"/>
<polygon fill="midnightblue" stroke="midnightblue" points="367.713,-71.5001 357.713,-75 367.713,-78.5001 367.713,-71.5001"/>
</g>
<!-- Node4 -->
<g id="node4" class="node"><title>Node4</title>
<g id="a_node4"><a xlink:href="../../d5/d06/classui_1_1_scene_updater.html#ac93c2b014447efef3a09141521fb4d9e" target="_top" xlink:title="ui.SceneUpdater.addCommand\lHistory">
<polygon fill="white" stroke="black" points="580.5,-60 580.5,-90 747.5,-90 747.5,-60 580.5,-60"/>
<text text-anchor="start" x="588.5" y="-78" font-family="Helvetica,sans-Serif" font-size="10.00">ui.SceneUpdater.addCommand</text>
<text text-anchor="middle" x="664" y="-67" font-family="Helvetica,sans-Serif" font-size="10.00">History</text>
</a>
</g>
</g>
<!-- Node3&#45;&gt;Node4 -->
<g id="edge3" class="edge"><title>Node3&#45;&gt;Node4</title>
<path fill="none" stroke="midnightblue" d="M554.21,-75C562.918,-75 571.761,-75 580.451,-75"/>
<polygon fill="midnightblue" stroke="midnightblue" points="554.067,-71.5001 544.067,-75 554.067,-78.5001 554.067,-71.5001"/>
</g>
<!-- Node5 -->
<g id="node5" class="node"><title>Node5</title>
<g id="a_node5"><a xlink:href="../../d9/df7/classcontroller_1_1_controller.html#a2dc441a48a86dce731d5bb2dd76b3381" target="_top" xlink:title="controller.Controller.add\lCommandHistory">
<polygon fill="white" stroke="black" points="788.5,-85 788.5,-115 919.5,-115 919.5,-85 788.5,-85"/>
<text text-anchor="start" x="796.5" y="-103" font-family="Helvetica,sans-Serif" font-size="10.00">controller.Controller.add</text>
<text text-anchor="middle" x="854" y="-92" font-family="Helvetica,sans-Serif" font-size="10.00">CommandHistory</text>
</a>
</g>
</g>
<!-- Node4&#45;&gt;Node5 -->
<g id="edge4" class="edge"><title>Node4&#45;&gt;Node5</title>
<path fill="none" stroke="midnightblue" d="M757.65,-87.3205C768.018,-88.6992 778.408,-90.0808 788.314,-91.3982"/>
<polygon fill="midnightblue" stroke="midnightblue" points="758.107,-83.8506 747.733,-86.0017 757.184,-90.7895 758.107,-83.8506"/>
</g>
<!-- Node6 -->
<g id="node6" class="node"><title>Node6</title>
<g id="a_node6"><a xlink:href="../../d9/df7/classcontroller_1_1_controller.html#a3d81fb1a57114f96fb6c319f4c5df370" target="_top" xlink:title="controller.Controller.parse\lCommand">
<polygon fill="white" stroke="black" points="784,-36 784,-66 924,-66 924,-36 784,-36"/>
<text text-anchor="start" x="792" y="-54" font-family="Helvetica,sans-Serif" font-size="10.00">controller.Controller.parse</text>
<text text-anchor="middle" x="854" y="-43" font-family="Helvetica,sans-Serif" font-size="10.00">Command</text>
</a>
</g>
</g>
<!-- Node4&#45;&gt;Node6 -->
<g id="edge5" class="edge"><title>Node4&#45;&gt;Node6</title>
<path fill="none" stroke="midnightblue" d="M757.915,-63.1385C766.609,-62.0287 775.314,-60.9173 783.735,-59.8423"/>
<polygon fill="midnightblue" stroke="midnightblue" points="757.209,-59.7001 747.733,-64.4383 758.096,-66.6437 757.209,-59.7001"/>
</g>
<!-- Node7 -->
<g id="node7" class="node"><title>Node7</title>
<g id="a_node7"><a xlink:href="../../d5/d06/classui_1_1_scene_updater.html#ab77a04f8b0038429b09237aac18906e8" target="_top" xlink:title="ui.SceneUpdater.sendCommands">
<polygon fill="white" stroke="black" points="960,-41.5 960,-60.5 1138,-60.5 1138,-41.5 960,-41.5"/>
<text text-anchor="middle" x="1049" y="-48.5" font-family="Helvetica,sans-Serif" font-size="10.00">ui.SceneUpdater.sendCommands</text>
</a>
</g>
</g>
<!-- Node6&#45;&gt;Node7 -->
<g id="edge6" class="edge"><title>Node6&#45;&gt;Node7</title>
<path fill="none" stroke="midnightblue" d="M934.294,-51C942.713,-51 951.313,-51 959.825,-51"/>
<polygon fill="midnightblue" stroke="midnightblue" points="934.132,-47.5001 924.132,-51 934.132,-54.5001 934.132,-47.5001"/>
</g>
<!-- Node8 -->
<g id="node8" class="node"><title>Node8</title>
<g id="a_node8"><a xlink:href="../../dc/d3b/classui_1_1_g_u_i.html#ad8f08a79a20a498bcaafdc7e2e2ce0a9" target="_top" xlink:title="ui.GUI.parseCommand">
<polygon fill="white" stroke="black" points="1174.5,-41.5 1174.5,-60.5 1299.5,-60.5 1299.5,-41.5 1174.5,-41.5"/>
<text text-anchor="middle" x="1237" y="-48.5" font-family="Helvetica,sans-Serif" font-size="10.00">ui.GUI.parseCommand</text>
</a>
</g>
</g>
<!-- Node7&#45;&gt;Node8 -->
<g id="edge7" class="edge"><title>Node7&#45;&gt;Node8</title>
<path fill="none" stroke="midnightblue" d="M1148.2,-51C1157.13,-51 1166,-51 1174.48,-51"/>
<polygon fill="midnightblue" stroke="midnightblue" points="1148.1,-47.5001 1138.1,-51 1148.1,-54.5001 1148.1,-47.5001"/>
</g>
<!-- Node9 -->
<g id="node9" class="node"><title>Node9</title>
<g id="a_node9"><a xlink:href="../../d8/d3c/classui_1_1elements_1_1_i_o_element.html#a139a046f0c771f86696f2eee04047c64" target="_top" xlink:title="ui.elements.IOElement.init">
<polygon fill="white" stroke="black" points="1352.5,-60.5 1352.5,-79.5 1495.5,-79.5 1495.5,-60.5 1352.5,-60.5"/>
<text text-anchor="middle" x="1424" y="-67.5" font-family="Helvetica,sans-Serif" font-size="10.00">ui.elements.IOElement.init</text>
</a>
</g>
</g>
<!-- Node8&#45;&gt;Node9 -->
<g id="edge8" class="edge"><title>Node8&#45;&gt;Node9</title>
<path fill="none" stroke="midnightblue" d="M1309.68,-58.3614C1323.7,-59.8019 1338.4,-61.3116 1352.39,-62.7485"/>
<polygon fill="midnightblue" stroke="midnightblue" points="1309.91,-54.8668 1299.6,-57.3267 1309.19,-61.8302 1309.91,-54.8668"/>
</g>
<!-- Node11 -->
<g id="node11" class="node"><title>Node11</title>
<g id="a_node11"><a xlink:href="../../dc/d3b/classui_1_1_g_u_i.html#ab8ec2a37b3d5bd9e8c2abbb3642fb965" target="_top" xlink:title="ui.GUI.setupKeyboardCommands">
<polygon fill="white" stroke="black" points="1336.5,-22.5 1336.5,-41.5 1511.5,-41.5 1511.5,-22.5 1336.5,-22.5"/>
<text text-anchor="middle" x="1424" y="-29.5" font-family="Helvetica,sans-Serif" font-size="10.00">ui.GUI.setupKeyboardCommands</text>
</a>
</g>
</g>
<!-- Node8&#45;&gt;Node11 -->
<g id="edge10" class="edge"><title>Node8&#45;&gt;Node11</title>
<path fill="none" stroke="midnightblue" d="M1309.69,-43.6368C1318.41,-42.7417 1327.39,-41.8199 1336.29,-40.9054"/>
<polygon fill="midnightblue" stroke="midnightblue" points="1309.19,-40.1698 1299.6,-44.6733 1309.91,-47.1332 1309.19,-40.1698"/>
</g>
<!-- Node10 -->
<g id="node10" class="node"><title>Node10</title>
<g id="a_node10"><a xlink:href="../../d8/d3c/classui_1_1elements_1_1_i_o_element.html#a556e1a3ad292fe3ab731065eef59b187" target="_top" xlink:title="ui.elements.IOElement.IOElement">
<polygon fill="white" stroke="black" points="1548,-60.5 1548,-79.5 1726,-79.5 1726,-60.5 1548,-60.5"/>
<text text-anchor="middle" x="1637" y="-67.5" font-family="Helvetica,sans-Serif" font-size="10.00">ui.elements.IOElement.IOElement</text>
</a>
</g>
</g>
<!-- Node9&#45;&gt;Node10 -->
<g id="edge9" class="edge"><title>Node9&#45;&gt;Node10</title>
<path fill="none" stroke="midnightblue" d="M1505.92,-70C1519.65,-70 1533.97,-70 1547.88,-70"/>
<polygon fill="midnightblue" stroke="midnightblue" points="1505.55,-66.5001 1495.55,-70 1505.55,-73.5001 1505.55,-66.5001"/>
</g>
<!-- Node12 -->
<g id="node12" class="node"><title>Node12</title>
<g id="a_node12"><a xlink:href="../../dc/d3b/classui_1_1_g_u_i.html#a765d554102f38969231261686f2f8e27" target="_top" xlink:title="ui.GUI.initialize">
<polygon fill="white" stroke="black" points="1594,-22.5 1594,-41.5 1680,-41.5 1680,-22.5 1594,-22.5"/>
<text text-anchor="middle" x="1637" y="-29.5" font-family="Helvetica,sans-Serif" font-size="10.00">ui.GUI.initialize</text>
</a>
</g>
</g>
<!-- Node11&#45;&gt;Node12 -->
<g id="edge11" class="edge"><title>Node11&#45;&gt;Node12</title>
<path fill="none" stroke="midnightblue" d="M1521.75,-32C1547.02,-32 1572.96,-32 1593.72,-32"/>
<polygon fill="midnightblue" stroke="midnightblue" points="1521.74,-28.5001 1511.74,-32 1521.74,-35.5001 1521.74,-28.5001"/>
</g>
<!-- Node13 -->
<g id="node13" class="node"><title>Node13</title>
<g id="a_node13"><a xlink:href="../../d5/d06/classui_1_1_scene_updater.html#aeef5dd7a8ec2ad6179e33fdd71ea90d6" target="_top" xlink:title="ui.SceneUpdater.initGUI">
<polygon fill="white" stroke="black" points="1762.5,-22.5 1762.5,-41.5 1893.5,-41.5 1893.5,-22.5 1762.5,-22.5"/>
<text text-anchor="middle" x="1828" y="-29.5" font-family="Helvetica,sans-Serif" font-size="10.00">ui.SceneUpdater.initGUI</text>
</a>
</g>
</g>
<!-- Node12&#45;&gt;Node13 -->
<g id="edge12" class="edge"><title>Node12&#45;&gt;Node13</title>
<path fill="none" stroke="midnightblue" d="M1690.67,-32C1712.92,-32 1739.05,-32 1762.45,-32"/>
<polygon fill="midnightblue" stroke="midnightblue" points="1690.42,-28.5001 1680.42,-32 1690.42,-35.5001 1690.42,-28.5001"/>
</g>
<!-- Node14 -->
<g id="node14" class="node"><title>Node14</title>
<g id="a_node14"><a xlink:href="../../d9/df7/classcontroller_1_1_controller.html#a57e42ba83ee2145e6262cd72eac59570" target="_top" xlink:title="controller.Controller.init">
<polygon fill="white" stroke="black" points="1930.5,-22.5 1930.5,-41.5 2057.5,-41.5 2057.5,-22.5 1930.5,-22.5"/>
<text text-anchor="middle" x="1994" y="-29.5" font-family="Helvetica,sans-Serif" font-size="10.00">controller.Controller.init</text>
</a>
</g>
</g>
<!-- Node13&#45;&gt;Node14 -->
<g id="edge13" class="edge"><title>Node13&#45;&gt;Node14</title>
<path fill="none" stroke="midnightblue" d="M1904.04,-32C1912.81,-32 1921.68,-32 1930.26,-32"/>
<polygon fill="midnightblue" stroke="midnightblue" points="1903.82,-28.5001 1893.82,-32 1903.82,-35.5001 1903.82,-28.5001"/>
</g>
<!-- Node15 -->
<g id="node15" class="node"><title>Node15</title>
<g id="a_node15"><a xlink:href="../../dd/df2/classmain_1_1_workspace_manager.html#abc818b59211f6e14940b86a42bb868d0" target="_top" xlink:title="main.WorkspaceManager.create\lWorkspace">
<polygon fill="white" stroke="black" points="2094,-17 2094,-47 2264,-47 2264,-17 2094,-17"/>
<text text-anchor="start" x="2102" y="-35" font-family="Helvetica,sans-Serif" font-size="10.00">main.WorkspaceManager.create</text>
<text text-anchor="middle" x="2179" y="-24" font-family="Helvetica,sans-Serif" font-size="10.00">Workspace</text>
</a>
</g>
</g>
<!-- Node14&#45;&gt;Node15 -->
<g id="edge14" class="edge"><title>Node14&#45;&gt;Node15</title>
<path fill="none" stroke="midnightblue" d="M2067.92,-32C2076.39,-32 2085.08,-32 2093.69,-32"/>
<polygon fill="midnightblue" stroke="midnightblue" points="2067.72,-28.5001 2057.72,-32 2067.72,-35.5001 2067.72,-28.5001"/>
</g>
<!-- Node16 -->
<g id="node16" class="node"><title>Node16</title>
<g id="a_node16"><a xlink:href="../../d9/df7/classcontroller_1_1_controller.html#a3a9d672bb57047df70945ad1a9582c9a" target="_top" xlink:title="controller.Controller.create\lNewWorkspace">
<polygon fill="white" stroke="black" points="2300.5,-39 2300.5,-69 2443.5,-69 2443.5,-39 2300.5,-39"/>
<text text-anchor="start" x="2308.5" y="-57" font-family="Helvetica,sans-Serif" font-size="10.00">controller.Controller.create</text>
<text text-anchor="middle" x="2372" y="-46" font-family="Helvetica,sans-Serif" font-size="10.00">NewWorkspace</text>
</a>
</g>
</g>
<!-- Node15&#45;&gt;Node16 -->
<g id="edge15" class="edge"><title>Node15&#45;&gt;Node16</title>
<path fill="none" stroke="midnightblue" d="M2274.03,-42.8303C2282.88,-43.8503 2291.75,-44.8721 2300.34,-45.8608"/>
<polygon fill="midnightblue" stroke="midnightblue" points="2274.39,-39.3489 2264.05,-41.6815 2273.59,-46.3029 2274.39,-39.3489"/>
</g>
<!-- Node22 -->
<g id="node22" class="node"><title>Node22</title>
<g id="a_node22"><a xlink:href="../../d1/d0b/classmain_1_1_main.html#a9f1e5657b2f6f9bdd69a3b6412ceda74" target="_top" xlink:title="main.Main.start">
<polygon fill="white" stroke="black" points="2326,-0.5 2326,-19.5 2418,-19.5 2418,-0.5 2326,-0.5"/>
<text text-anchor="middle" x="2372" y="-7.5" font-family="Helvetica,sans-Serif" font-size="10.00">main.Main.start</text>
</a>
</g>
</g>
<!-- Node15&#45;&gt;Node22 -->
<g id="edge21" class="edge"><title>Node15&#45;&gt;Node22</title>
<path fill="none" stroke="midnightblue" d="M2274.09,-21.1629C2292.19,-19.0779 2310.36,-16.9851 2325.99,-15.1843"/>
<polygon fill="midnightblue" stroke="midnightblue" points="2273.59,-17.6971 2264.05,-22.3185 2274.39,-24.6511 2273.59,-17.6971"/>
</g>
<!-- Node17 -->
<g id="node17" class="node"><title>Node17</title>
<g id="a_node17"><a xlink:href="../../d5/d06/classui_1_1_scene_updater.html#a2858ad8edb0c0f59a21e2ae015f2fa1e" target="_top" xlink:title="ui.SceneUpdater.createNew\lWorkspace">
<polygon fill="white" stroke="black" points="2480,-39 2480,-69 2630,-69 2630,-39 2480,-39"/>
<text text-anchor="start" x="2488" y="-57" font-family="Helvetica,sans-Serif" font-size="10.00">ui.SceneUpdater.createNew</text>
<text text-anchor="middle" x="2555" y="-46" font-family="Helvetica,sans-Serif" font-size="10.00">Workspace</text>
</a>
</g>
</g>
<!-- Node16&#45;&gt;Node17 -->
<g id="edge16" class="edge"><title>Node16&#45;&gt;Node17</title>
<path fill="none" stroke="midnightblue" d="M2453.8,-54C2462.43,-54 2471.17,-54 2479.71,-54"/>
<polygon fill="midnightblue" stroke="midnightblue" points="2453.76,-50.5001 2443.76,-54 2453.76,-57.5001 2453.76,-50.5001"/>
</g>
<!-- Node18 -->
<g id="node18" class="node"><title>Node18</title>
<g id="a_node18"><a xlink:href="../../dc/d3b/classui_1_1_g_u_i.html#a2edc294ba07311e6c4b85c9fe749d1bf" target="_top" xlink:title="ui.GUI.createNewWorkspace">
<polygon fill="white" stroke="black" points="2666,-44.5 2666,-63.5 2816,-63.5 2816,-44.5 2666,-44.5"/>
<text text-anchor="middle" x="2741" y="-51.5" font-family="Helvetica,sans-Serif" font-size="10.00">ui.GUI.createNewWorkspace</text>
</a>
</g>
</g>
<!-- Node17&#45;&gt;Node18 -->
<g id="edge17" class="edge"><title>Node17&#45;&gt;Node18</title>
<path fill="none" stroke="midnightblue" d="M2640.07,-54C2648.65,-54 2657.34,-54 2665.81,-54"/>
<polygon fill="midnightblue" stroke="midnightblue" points="2640.04,-50.5001 2630.04,-54 2640.04,-57.5001 2640.04,-50.5001"/>
</g>
<!-- Node19 -->
<g id="node19" class="node"><title>Node19</title>
<g id="a_node19"><a xlink:href="../../d0/de6/classui_1_1elements_1_1_menu_bar_element.html#a98c13995a31d997aa10f2950583da6cc" target="_top" xlink:title="ui.elements.MenuBarElement.make\lMenuBar">
<polygon fill="white" stroke="black" points="2852,-39 2852,-69 3040,-69 3040,-39 2852,-39"/>
<text text-anchor="start" x="2860" y="-57" font-family="Helvetica,sans-Serif" font-size="10.00">ui.elements.MenuBarElement.make</text>
<text text-anchor="middle" x="2946" y="-46" font-family="Helvetica,sans-Serif" font-size="10.00">MenuBar</text>
</a>
</g>
</g>
<!-- Node18&#45;&gt;Node19 -->
<g id="edge18" class="edge"><title>Node18&#45;&gt;Node19</title>
<path fill="none" stroke="midnightblue" d="M2826.28,-54C2834.66,-54 2843.21,-54 2851.68,-54"/>
<polygon fill="midnightblue" stroke="midnightblue" points="2826.15,-50.5001 2816.15,-54 2826.15,-57.5001 2826.15,-50.5001"/>
</g>
<!-- Node20 -->
<g id="node20" class="node"><title>Node20</title>
<g id="a_node20"><a xlink:href="../../d0/de6/classui_1_1elements_1_1_menu_bar_element.html#a7bdb58f78cf8b61ba28498c5c86ab682" target="_top" xlink:title="ui.elements.MenuBarElement.init">
<polygon fill="white" stroke="black" points="3076,-44.5 3076,-63.5 3252,-63.5 3252,-44.5 3076,-44.5"/>
<text text-anchor="middle" x="3164" y="-51.5" font-family="Helvetica,sans-Serif" font-size="10.00">ui.elements.MenuBarElement.init</text>
</a>
</g>
</g>
<!-- Node19&#45;&gt;Node20 -->
<g id="edge19" class="edge"><title>Node19&#45;&gt;Node20</title>
<path fill="none" stroke="midnightblue" d="M3050.23,-54C3058.83,-54 3067.48,-54 3075.94,-54"/>
<polygon fill="midnightblue" stroke="midnightblue" points="3050.17,-50.5001 3040.17,-54 3050.17,-57.5001 3050.17,-50.5001"/>
</g>
<!-- Node21 -->
<g id="node21" class="node"><title>Node21</title>
<g id="a_node21"><a xlink:href="../../d0/de6/classui_1_1elements_1_1_menu_bar_element.html#ab4a4e6841c924a9d9c70b8073b56dffc" target="_top" xlink:title="ui.elements.MenuBarElement.\lMenuBarElement">
<polygon fill="white" stroke="black" points="3288.5,-39 3288.5,-69 3449.5,-69 3449.5,-39 3288.5,-39"/>
<text text-anchor="start" x="3296.5" y="-57" font-family="Helvetica,sans-Serif" font-size="10.00">ui.elements.MenuBarElement.</text>
<text text-anchor="middle" x="3369" y="-46" font-family="Helvetica,sans-Serif" font-size="10.00">MenuBarElement</text>
</a>
</g>
</g>
<!-- Node20&#45;&gt;Node21 -->
<g id="edge20" class="edge"><title>Node20&#45;&gt;Node21</title>
<path fill="none" stroke="midnightblue" d="M3262.47,-54C3271.19,-54 3279.95,-54 3288.5,-54"/>
<polygon fill="midnightblue" stroke="midnightblue" points="3262.27,-50.5001 3252.27,-54 3262.27,-57.5001 3262.27,-50.5001"/>
</g>
</g>
</svg>
