<?xml version="1.0" encoding="UTF-8" standalone="no"?>
<!DOCTYPE svg PUBLIC "-//W3C//DTD SVG 1.1//EN"
 "http://www.w3.org/Graphics/SVG/1.1/DTD/svg11.dtd">
<!-- Generated by graphviz version 2.36.0 (20140111.2315)
 -->
<!-- Title: ui.elements.InfoElement.init Pages: 1 -->
<svg width="680pt" height="38pt"
 viewBox="0.00 0.00 680.00 38.00" xmlns="http://www.w3.org/2000/svg" xmlns:xlink="http://www.w3.org/1999/xlink">
<g id="graph0" class="graph" transform="scale(1 1) rotate(0) translate(4 34)">
<title>ui.elements.InfoElement.init</title>
<polygon fill="white" stroke="none" points="-4,4 -4,-34 676,-34 676,4 -4,4"/>
<!-- Node1 -->
<g id="node1" class="node"><title>Node1</title>
<polygon fill="#bfbfbf" stroke="black" points="0,-5.5 0,-24.5 150,-24.5 150,-5.5 0,-5.5"/>
<text text-anchor="middle" x="75" y="-12.5" font-family="Helvetica,sans-Serif" font-size="10.00">ui.elements.InfoElement.init</text>
</g>
<!-- Node2 -->
<g id="node2" class="node"><title>Node2</title>
<g id="a_node2"><a xlink:href="../../d6/dd8/classui_1_1elements_1_1_info_element.html#a0751ba2956cfc8eb22668ac7dd5b1e88" target="_top" xlink:title="ui.elements.InfoElement.make\lTable">
<polygon fill="white" stroke="black" points="186.5,-0 186.5,-30 349.5,-30 349.5,-0 186.5,-0"/>
<text text-anchor="start" x="194.5" y="-18" font-family="Helvetica,sans-Serif" font-size="10.00">ui.elements.InfoElement.make</text>
<text text-anchor="middle" x="268" y="-7" font-family="Helvetica,sans-Serif" font-size="10.00">Table</text>
</a>
</g>
</g>
<!-- Node1&#45;&gt;Node2 -->
<g id="edge1" class="edge"><title>Node1&#45;&gt;Node2</title>
<path fill="none" stroke="midnightblue" d="M150.119,-15C158.636,-15 167.391,-15 176.096,-15"/>
<polygon fill="midnightblue" stroke="midnightblue" points="176.274,-18.5001 186.274,-15 176.274,-11.5001 176.274,-18.5001"/>
</g>
<!-- Node3 -->
<g id="node3" class="node"><title>Node3</title>
<g id="a_node3"><a xlink:href="../../dc/d3b/classui_1_1_g_u_i.html#ada22074441d08ce00bb69499f8707fc3" target="_top" xlink:title="ui.GUI.setInputText">
<polygon fill="white" stroke="black" points="386,-5.5 386,-24.5 492,-24.5 492,-5.5 386,-5.5"/>
<text text-anchor="middle" x="439" y="-12.5" font-family="Helvetica,sans-Serif" font-size="10.00">ui.GUI.setInputText</text>
</a>
</g>
</g>
<!-- Node2&#45;&gt;Node3 -->
<g id="edge2" class="edge"><title>Node2&#45;&gt;Node3</title>
<path fill="none" stroke="midnightblue" d="M349.54,-15C358.244,-15 367.003,-15 375.449,-15"/>
<polygon fill="midnightblue" stroke="midnightblue" points="375.569,-18.5001 385.569,-15 375.569,-11.5001 375.569,-18.5001"/>
</g>
<!-- Node4 -->
<g id="node4" class="node"><title>Node4</title>
<g id="a_node4"><a xlink:href="../../d8/d3c/classui_1_1elements_1_1_i_o_element.html#a3b1244fbac1fbbee1183143097b1e4ef" target="_top" xlink:title="ui.elements.IOElement.get\lInputField">
<polygon fill="white" stroke="black" points="528,-0 528,-30 672,-30 672,-0 528,-0"/>
<text text-anchor="start" x="536" y="-18" font-family="Helvetica,sans-Serif" font-size="10.00">ui.elements.IOElement.get</text>
<text text-anchor="middle" x="600" y="-7" font-family="Helvetica,sans-Serif" font-size="10.00">InputField</text>
</a>
</g>
</g>
<!-- Node3&#45;&gt;Node4 -->
<g id="edge3" class="edge"><title>Node3&#45;&gt;Node4</title>
<path fill="none" stroke="midnightblue" d="M492.063,-15C500.265,-15 508.911,-15 517.588,-15"/>
<polygon fill="midnightblue" stroke="midnightblue" points="517.762,-18.5001 527.762,-15 517.762,-11.5001 517.762,-18.5001"/>
</g>
</g>
</svg>
