<?xml version="1.0" encoding="UTF-8" standalone="no"?>
<!DOCTYPE svg PUBLIC "-//W3C//DTD SVG 1.1//EN"
 "http://www.w3.org/Graphics/SVG/1.1/DTD/svg11.dtd">
<!-- Generated by graphviz version 2.36.0 (20140111.2315)
 -->
<!-- Title: ui.elements.InfoElement.getTables Pages: 1 -->
<svg width="476pt" height="38pt"
 viewBox="0.00 0.00 476.00 38.00" xmlns="http://www.w3.org/2000/svg" xmlns:xlink="http://www.w3.org/1999/xlink">
<g id="graph0" class="graph" transform="scale(1 1) rotate(0) translate(4 34)">
<title>ui.elements.InfoElement.getTables</title>
<polygon fill="white" stroke="none" points="-4,4 -4,-34 472,-34 472,4 -4,4"/>
<!-- Node1 -->
<g id="node1" class="node"><title>Node1</title>
<polygon fill="#bfbfbf" stroke="black" points="0,-0 0,-30 152,-30 152,-0 0,-0"/>
<text text-anchor="start" x="8" y="-18" font-family="Helvetica,sans-Serif" font-size="10.00">ui.elements.InfoElement.get</text>
<text text-anchor="middle" x="76" y="-7" font-family="Helvetica,sans-Serif" font-size="10.00">Tables</text>
</g>
<!-- Node2 -->
<g id="node2" class="node"><title>Node2</title>
<g id="a_node2"><a xlink:href="../../dc/d3b/classui_1_1_g_u_i.html#ad1cf0798aa4e32ad69acee0fd53dc5c0" target="_top" xlink:title="ui.GUI.bindTable">
<polygon fill="white" stroke="black" points="188,-5.5 188,-24.5 280,-24.5 280,-5.5 188,-5.5"/>
<text text-anchor="middle" x="234" y="-12.5" font-family="Helvetica,sans-Serif" font-size="10.00">ui.GUI.bindTable</text>
</a>
</g>
</g>
<!-- Node1&#45;&gt;Node2 -->
<g id="edge1" class="edge"><title>Node1&#45;&gt;Node2</title>
<path fill="none" stroke="midnightblue" d="M162.509,-15C171.213,-15 179.792,-15 187.806,-15"/>
<polygon fill="midnightblue" stroke="midnightblue" points="162.258,-11.5001 152.258,-15 162.258,-18.5001 162.258,-11.5001"/>
</g>
<!-- Node3 -->
<g id="node3" class="node"><title>Node3</title>
<g id="a_node3"><a xlink:href="../../d5/d06/classui_1_1_scene_updater.html#a12acb565e41e7ad1437eddb2dd032539" target="_top" xlink:title="ui.SceneUpdater.setListBind">
<polygon fill="white" stroke="black" points="316,-5.5 316,-24.5 468,-24.5 468,-5.5 316,-5.5"/>
<text text-anchor="middle" x="392" y="-12.5" font-family="Helvetica,sans-Serif" font-size="10.00">ui.SceneUpdater.setListBind</text>
</a>
</g>
</g>
<!-- Node2&#45;&gt;Node3 -->
<g id="edge2" class="edge"><title>Node2&#45;&gt;Node3</title>
<path fill="none" stroke="midnightblue" d="M290.319,-15C298.55,-15 307.15,-15 315.706,-15"/>
<polygon fill="midnightblue" stroke="midnightblue" points="290.122,-11.5001 280.122,-15 290.122,-18.5001 290.122,-11.5001"/>
</g>
</g>
</svg>
