<?xml version="1.0" encoding="UTF-8" standalone="no"?>
<!DOCTYPE svg PUBLIC "-//W3C//DTD SVG 1.1//EN"
 "http://www.w3.org/Graphics/SVG/1.1/DTD/svg11.dtd">
<!-- Generated by graphviz version 2.36.0 (20140111.2315)
 -->
<!-- Title: ui.elements.InfoElement.getBaseNode Pages: 1 -->
<svg width="2308pt" height="105pt"
 viewBox="0.00 0.00 2308.00 105.00" xmlns="http://www.w3.org/2000/svg" xmlns:xlink="http://www.w3.org/1999/xlink">
<g id="graph0" class="graph" transform="scale(1 1) rotate(0) translate(4 101)">
<title>ui.elements.InfoElement.getBaseNode</title>
<polygon fill="white" stroke="none" points="-4,4 -4,-101 2304,-101 2304,4 -4,4"/>
<!-- Node1 -->
<g id="node1" class="node"><title>Node1</title>
<polygon fill="#bfbfbf" stroke="black" points="0,-23 0,-53 152,-53 152,-23 0,-23"/>
<text text-anchor="start" x="8" y="-41" font-family="Helvetica,sans-Serif" font-size="10.00">ui.elements.InfoElement.get</text>
<text text-anchor="middle" x="76" y="-30" font-family="Helvetica,sans-Serif" font-size="10.00">BaseNode</text>
</g>
<!-- Node2 -->
<g id="node2" class="node"><title>Node2</title>
<g id="a_node2"><a xlink:href="../../dc/d3b/classui_1_1_g_u_i.html#a765d554102f38969231261686f2f8e27" target="_top" xlink:title="ui.GUI.initialize">
<polygon fill="white" stroke="black" points="397,-47.5 397,-66.5 483,-66.5 483,-47.5 397,-47.5"/>
<text text-anchor="middle" x="440" y="-54.5" font-family="Helvetica,sans-Serif" font-size="10.00">ui.GUI.initialize</text>
</a>
</g>
</g>
<!-- Node1&#45;&gt;Node2 -->
<g id="edge1" class="edge"><title>Node1&#45;&gt;Node2</title>
<path fill="none" stroke="midnightblue" d="M162.212,-42.4725C235.996,-46.3451 339.611,-51.7835 396.849,-54.7876"/>
<polygon fill="midnightblue" stroke="midnightblue" points="162.176,-38.9659 152.007,-41.9368 161.809,-45.9562 162.176,-38.9659"/>
</g>
<!-- Node13 -->
<g id="node13" class="node"><title>Node13</title>
<g id="a_node13"><a xlink:href="../../dc/d3b/classui_1_1_g_u_i.html#a0337dd1c0a04ce5b2475037e66b5e3a7" target="_top" xlink:title="ui.GUI.makeTurtleView">
<polygon fill="white" stroke="black" points="188,-9.5 188,-28.5 310,-28.5 310,-9.5 188,-9.5"/>
<text text-anchor="middle" x="249" y="-16.5" font-family="Helvetica,sans-Serif" font-size="10.00">ui.GUI.makeTurtleView</text>
</a>
</g>
</g>
<!-- Node1&#45;&gt;Node13 -->
<g id="edge12" class="edge"><title>Node1&#45;&gt;Node13</title>
<path fill="none" stroke="midnightblue" d="M162.194,-28.534C170.896,-27.5672 179.601,-26.5999 187.95,-25.6722"/>
<polygon fill="midnightblue" stroke="midnightblue" points="161.555,-25.0833 152.003,-29.6663 162.328,-32.0405 161.555,-25.0833"/>
</g>
<!-- Node3 -->
<g id="node3" class="node"><title>Node3</title>
<g id="a_node3"><a xlink:href="../../d5/d06/classui_1_1_scene_updater.html#aeef5dd7a8ec2ad6179e33fdd71ea90d6" target="_top" xlink:title="ui.SceneUpdater.initGUI">
<polygon fill="white" stroke="black" points="591.5,-49.5 591.5,-68.5 722.5,-68.5 722.5,-49.5 591.5,-49.5"/>
<text text-anchor="middle" x="657" y="-56.5" font-family="Helvetica,sans-Serif" font-size="10.00">ui.SceneUpdater.initGUI</text>
</a>
</g>
</g>
<!-- Node2&#45;&gt;Node3 -->
<g id="edge2" class="edge"><title>Node2&#45;&gt;Node3</title>
<path fill="none" stroke="midnightblue" d="M493.334,-57.4868C522.888,-57.7617 560.072,-58.1076 591.427,-58.3993"/>
<polygon fill="midnightblue" stroke="midnightblue" points="493.253,-53.986 483.221,-57.3927 493.188,-60.9857 493.253,-53.986"/>
</g>
<!-- Node4 -->
<g id="node4" class="node"><title>Node4</title>
<g id="a_node4"><a xlink:href="../../d9/df7/classcontroller_1_1_controller.html#a57e42ba83ee2145e6262cd72eac59570" target="_top" xlink:title="controller.Controller.init">
<polygon fill="white" stroke="black" points="780.5,-49.5 780.5,-68.5 907.5,-68.5 907.5,-49.5 780.5,-49.5"/>
<text text-anchor="middle" x="844" y="-56.5" font-family="Helvetica,sans-Serif" font-size="10.00">controller.Controller.init</text>
</a>
</g>
</g>
<!-- Node3&#45;&gt;Node4 -->
<g id="edge3" class="edge"><title>Node3&#45;&gt;Node4</title>
<path fill="none" stroke="midnightblue" d="M732.899,-59C748.598,-59 764.999,-59 780.202,-59"/>
<polygon fill="midnightblue" stroke="midnightblue" points="732.704,-55.5001 722.704,-59 732.704,-62.5001 732.704,-55.5001"/>
</g>
<!-- Node5 -->
<g id="node5" class="node"><title>Node5</title>
<g id="a_node5"><a xlink:href="../../dd/df2/classmain_1_1_workspace_manager.html#abc818b59211f6e14940b86a42bb868d0" target="_top" xlink:title="main.WorkspaceManager.create\lWorkspace">
<polygon fill="white" stroke="black" points="944,-44 944,-74 1114,-74 1114,-44 944,-44"/>
<text text-anchor="start" x="952" y="-62" font-family="Helvetica,sans-Serif" font-size="10.00">main.WorkspaceManager.create</text>
<text text-anchor="middle" x="1029" y="-51" font-family="Helvetica,sans-Serif" font-size="10.00">Workspace</text>
</a>
</g>
</g>
<!-- Node4&#45;&gt;Node5 -->
<g id="edge4" class="edge"><title>Node4&#45;&gt;Node5</title>
<path fill="none" stroke="midnightblue" d="M917.923,-59C926.392,-59 935.083,-59 943.689,-59"/>
<polygon fill="midnightblue" stroke="midnightblue" points="917.722,-55.5001 907.722,-59 917.722,-62.5001 917.722,-55.5001"/>
</g>
<!-- Node6 -->
<g id="node6" class="node"><title>Node6</title>
<g id="a_node6"><a xlink:href="../../d9/df7/classcontroller_1_1_controller.html#a3a9d672bb57047df70945ad1a9582c9a" target="_top" xlink:title="controller.Controller.create\lNewWorkspace">
<polygon fill="white" stroke="black" points="1150.5,-66 1150.5,-96 1293.5,-96 1293.5,-66 1150.5,-66"/>
<text text-anchor="start" x="1158.5" y="-84" font-family="Helvetica,sans-Serif" font-size="10.00">controller.Controller.create</text>
<text text-anchor="middle" x="1222" y="-73" font-family="Helvetica,sans-Serif" font-size="10.00">NewWorkspace</text>
</a>
</g>
</g>
<!-- Node5&#45;&gt;Node6 -->
<g id="edge5" class="edge"><title>Node5&#45;&gt;Node6</title>
<path fill="none" stroke="midnightblue" d="M1124.03,-69.8303C1132.88,-70.8503 1141.75,-71.8721 1150.34,-72.8608"/>
<polygon fill="midnightblue" stroke="midnightblue" points="1124.39,-66.3489 1114.05,-68.6815 1123.59,-73.3029 1124.39,-66.3489"/>
</g>
<!-- Node12 -->
<g id="node12" class="node"><title>Node12</title>
<g id="a_node12"><a xlink:href="../../d1/d0b/classmain_1_1_main.html#a9f1e5657b2f6f9bdd69a3b6412ceda74" target="_top" xlink:title="main.Main.start">
<polygon fill="white" stroke="black" points="1176,-27.5 1176,-46.5 1268,-46.5 1268,-27.5 1176,-27.5"/>
<text text-anchor="middle" x="1222" y="-34.5" font-family="Helvetica,sans-Serif" font-size="10.00">main.Main.start</text>
</a>
</g>
</g>
<!-- Node5&#45;&gt;Node12 -->
<g id="edge11" class="edge"><title>Node5&#45;&gt;Node12</title>
<path fill="none" stroke="midnightblue" d="M1124.09,-48.1629C1142.19,-46.0779 1160.36,-43.9851 1175.99,-42.1843"/>
<polygon fill="midnightblue" stroke="midnightblue" points="1123.59,-44.6971 1114.05,-49.3185 1124.39,-51.6511 1123.59,-44.6971"/>
</g>
<!-- Node7 -->
<g id="node7" class="node"><title>Node7</title>
<g id="a_node7"><a xlink:href="../../d5/d06/classui_1_1_scene_updater.html#a2858ad8edb0c0f59a21e2ae015f2fa1e" target="_top" xlink:title="ui.SceneUpdater.createNew\lWorkspace">
<polygon fill="white" stroke="black" points="1330,-66 1330,-96 1480,-96 1480,-66 1330,-66"/>
<text text-anchor="start" x="1338" y="-84" font-family="Helvetica,sans-Serif" font-size="10.00">ui.SceneUpdater.createNew</text>
<text text-anchor="middle" x="1405" y="-73" font-family="Helvetica,sans-Serif" font-size="10.00">Workspace</text>
</a>
</g>
</g>
<!-- Node6&#45;&gt;Node7 -->
<g id="edge6" class="edge"><title>Node6&#45;&gt;Node7</title>
<path fill="none" stroke="midnightblue" d="M1303.8,-81C1312.43,-81 1321.17,-81 1329.71,-81"/>
<polygon fill="midnightblue" stroke="midnightblue" points="1303.76,-77.5001 1293.76,-81 1303.76,-84.5001 1303.76,-77.5001"/>
</g>
<!-- Node8 -->
<g id="node8" class="node"><title>Node8</title>
<g id="a_node8"><a xlink:href="../../dc/d3b/classui_1_1_g_u_i.html#a2edc294ba07311e6c4b85c9fe749d1bf" target="_top" xlink:title="ui.GUI.createNewWorkspace">
<polygon fill="white" stroke="black" points="1516,-71.5 1516,-90.5 1666,-90.5 1666,-71.5 1516,-71.5"/>
<text text-anchor="middle" x="1591" y="-78.5" font-family="Helvetica,sans-Serif" font-size="10.00">ui.GUI.createNewWorkspace</text>
</a>
</g>
</g>
<!-- Node7&#45;&gt;Node8 -->
<g id="edge7" class="edge"><title>Node7&#45;&gt;Node8</title>
<path fill="none" stroke="midnightblue" d="M1490.07,-81C1498.65,-81 1507.34,-81 1515.81,-81"/>
<polygon fill="midnightblue" stroke="midnightblue" points="1490.04,-77.5001 1480.04,-81 1490.04,-84.5001 1490.04,-77.5001"/>
</g>
<!-- Node9 -->
<g id="node9" class="node"><title>Node9</title>
<g id="a_node9"><a xlink:href="../../d0/de6/classui_1_1elements_1_1_menu_bar_element.html#a98c13995a31d997aa10f2950583da6cc" target="_top" xlink:title="ui.elements.MenuBarElement.make\lMenuBar">
<polygon fill="white" stroke="black" points="1702,-66 1702,-96 1890,-96 1890,-66 1702,-66"/>
<text text-anchor="start" x="1710" y="-84" font-family="Helvetica,sans-Serif" font-size="10.00">ui.elements.MenuBarElement.make</text>
<text text-anchor="middle" x="1796" y="-73" font-family="Helvetica,sans-Serif" font-size="10.00">MenuBar</text>
</a>
</g>
</g>
<!-- Node8&#45;&gt;Node9 -->
<g id="edge8" class="edge"><title>Node8&#45;&gt;Node9</title>
<path fill="none" stroke="midnightblue" d="M1676.28,-81C1684.66,-81 1693.21,-81 1701.68,-81"/>
<polygon fill="midnightblue" stroke="midnightblue" points="1676.15,-77.5001 1666.15,-81 1676.15,-84.5001 1676.15,-77.5001"/>
</g>
<!-- Node10 -->
<g id="node10" class="node"><title>Node10</title>
<g id="a_node10"><a xlink:href="../../d0/de6/classui_1_1elements_1_1_menu_bar_element.html#a7bdb58f78cf8b61ba28498c5c86ab682" target="_top" xlink:title="ui.elements.MenuBarElement.init">
<polygon fill="white" stroke="black" points="1926,-71.5 1926,-90.5 2102,-90.5 2102,-71.5 1926,-71.5"/>
<text text-anchor="middle" x="2014" y="-78.5" font-family="Helvetica,sans-Serif" font-size="10.00">ui.elements.MenuBarElement.init</text>
</a>
</g>
</g>
<!-- Node9&#45;&gt;Node10 -->
<g id="edge9" class="edge"><title>Node9&#45;&gt;Node10</title>
<path fill="none" stroke="midnightblue" d="M1900.23,-81C1908.83,-81 1917.48,-81 1925.94,-81"/>
<polygon fill="midnightblue" stroke="midnightblue" points="1900.17,-77.5001 1890.17,-81 1900.17,-84.5001 1900.17,-77.5001"/>
</g>
<!-- Node11 -->
<g id="node11" class="node"><title>Node11</title>
<g id="a_node11"><a xlink:href="../../d0/de6/classui_1_1elements_1_1_menu_bar_element.html#ab4a4e6841c924a9d9c70b8073b56dffc" target="_top" xlink:title="ui.elements.MenuBarElement.\lMenuBarElement">
<polygon fill="white" stroke="black" points="2138.5,-66 2138.5,-96 2299.5,-96 2299.5,-66 2138.5,-66"/>
<text text-anchor="start" x="2146.5" y="-84" font-family="Helvetica,sans-Serif" font-size="10.00">ui.elements.MenuBarElement.</text>
<text text-anchor="middle" x="2219" y="-73" font-family="Helvetica,sans-Serif" font-size="10.00">MenuBarElement</text>
</a>
</g>
</g>
<!-- Node10&#45;&gt;Node11 -->
<g id="edge10" class="edge"><title>Node10&#45;&gt;Node11</title>
<path fill="none" stroke="midnightblue" d="M2112.47,-81C2121.19,-81 2129.95,-81 2138.5,-81"/>
<polygon fill="midnightblue" stroke="midnightblue" points="2112.27,-77.5001 2102.27,-81 2112.27,-84.5001 2112.27,-77.5001"/>
</g>
<!-- Node13&#45;&gt;Node2 -->
<g id="edge15" class="edge"><title>Node13&#45;&gt;Node2</title>
<path fill="none" stroke="midnightblue" d="M307.615,-30.584C336.366,-36.3646 370.52,-43.2315 396.798,-48.5149"/>
<polygon fill="midnightblue" stroke="midnightblue" points="308.186,-27.1289 297.693,-28.589 306.807,-33.9916 308.186,-27.1289"/>
</g>
<!-- Node14 -->
<g id="node14" class="node"><title>Node14</title>
<g id="a_node14"><a xlink:href="../../df/d9f/classui_1_1elements_1_1_t_properties_element.html#aa9783f0d27dd4082e08b8a23d60883fe" target="_top" xlink:title="ui.elements.TPropertiesElement.init">
<polygon fill="white" stroke="black" points="346.5,-8.5 346.5,-27.5 533.5,-27.5 533.5,-8.5 346.5,-8.5"/>
<text text-anchor="middle" x="440" y="-15.5" font-family="Helvetica,sans-Serif" font-size="10.00">ui.elements.TPropertiesElement.init</text>
</a>
</g>
</g>
<!-- Node13&#45;&gt;Node14 -->
<g id="edge13" class="edge"><title>Node13&#45;&gt;Node14</title>
<path fill="none" stroke="midnightblue" d="M320.27,-18.6282C328.77,-18.5832 337.551,-18.5368 346.311,-18.4904"/>
<polygon fill="midnightblue" stroke="midnightblue" points="320.042,-15.1293 310.06,-18.6822 320.079,-22.1292 320.042,-15.1293"/>
</g>
<!-- Node15 -->
<g id="node15" class="node"><title>Node15</title>
<g id="a_node15"><a xlink:href="../../df/d9f/classui_1_1elements_1_1_t_properties_element.html#a6c665abf2d1d12f6cc29c03f0b428efb" target="_top" xlink:title="ui.elements.TPropertiesElement.\lTPropertiesElement">
<polygon fill="white" stroke="black" points="570.5,-0 570.5,-30 743.5,-30 743.5,-0 570.5,-0"/>
<text text-anchor="start" x="578.5" y="-18" font-family="Helvetica,sans-Serif" font-size="10.00">ui.elements.TPropertiesElement.</text>
<text text-anchor="middle" x="657" y="-7" font-family="Helvetica,sans-Serif" font-size="10.00">TPropertiesElement</text>
</a>
</g>
</g>
<!-- Node14&#45;&gt;Node15 -->
<g id="edge14" class="edge"><title>Node14&#45;&gt;Node15</title>
<path fill="none" stroke="midnightblue" d="M543.759,-16.5661C552.662,-16.4419 561.609,-16.3171 570.354,-16.1951"/>
<polygon fill="midnightblue" stroke="midnightblue" points="543.689,-13.0667 533.739,-16.706 543.787,-20.066 543.689,-13.0667"/>
</g>
</g>
</svg>
