<?xml version="1.0" encoding="UTF-8" standalone="no"?>
<!DOCTYPE svg PUBLIC "-//W3C//DTD SVG 1.1//EN"
 "http://www.w3.org/Graphics/SVG/1.1/DTD/svg11.dtd">
<!-- Generated by graphviz version 2.36.0 (20140111.2315)
 -->
<!-- Title: ui.elements.InfoElement.InfoElement Pages: 1 -->
<svg width="852pt" height="38pt"
 viewBox="0.00 0.00 852.00 38.00" xmlns="http://www.w3.org/2000/svg" xmlns:xlink="http://www.w3.org/1999/xlink">
<g id="graph0" class="graph" transform="scale(1 1) rotate(0) translate(4 34)">
<title>ui.elements.InfoElement.InfoElement</title>
<polygon fill="white" stroke="none" points="-4,4 -4,-34 848,-34 848,4 -4,4"/>
<!-- Node1 -->
<g id="node1" class="node"><title>Node1</title>
<polygon fill="#bfbfbf" stroke="black" points="0,-0 0,-30 136,-30 136,-0 0,-0"/>
<text text-anchor="start" x="8" y="-18" font-family="Helvetica,sans-Serif" font-size="10.00">ui.elements.InfoElement.</text>
<text text-anchor="middle" x="68" y="-7" font-family="Helvetica,sans-Serif" font-size="10.00">InfoElement</text>
</g>
<!-- Node2 -->
<g id="node2" class="node"><title>Node2</title>
<g id="a_node2"><a xlink:href="../../d6/dd8/classui_1_1elements_1_1_info_element.html#a903c163f8db1ff4a909d837c202c25ba" target="_top" xlink:title="ui.elements.InfoElement.init">
<polygon fill="white" stroke="black" points="172,-5.5 172,-24.5 322,-24.5 322,-5.5 172,-5.5"/>
<text text-anchor="middle" x="247" y="-12.5" font-family="Helvetica,sans-Serif" font-size="10.00">ui.elements.InfoElement.init</text>
</a>
</g>
</g>
<!-- Node1&#45;&gt;Node2 -->
<g id="edge1" class="edge"><title>Node1&#45;&gt;Node2</title>
<path fill="none" stroke="midnightblue" d="M136.168,-15C144.533,-15 153.168,-15 161.75,-15"/>
<polygon fill="midnightblue" stroke="midnightblue" points="161.78,-18.5001 171.78,-15 161.78,-11.5001 161.78,-18.5001"/>
</g>
<!-- Node3 -->
<g id="node3" class="node"><title>Node3</title>
<g id="a_node3"><a xlink:href="../../d6/dd8/classui_1_1elements_1_1_info_element.html#a0751ba2956cfc8eb22668ac7dd5b1e88" target="_top" xlink:title="ui.elements.InfoElement.make\lTable">
<polygon fill="white" stroke="black" points="358.5,-0 358.5,-30 521.5,-30 521.5,-0 358.5,-0"/>
<text text-anchor="start" x="366.5" y="-18" font-family="Helvetica,sans-Serif" font-size="10.00">ui.elements.InfoElement.make</text>
<text text-anchor="middle" x="440" y="-7" font-family="Helvetica,sans-Serif" font-size="10.00">Table</text>
</a>
</g>
</g>
<!-- Node2&#45;&gt;Node3 -->
<g id="edge2" class="edge"><title>Node2&#45;&gt;Node3</title>
<path fill="none" stroke="midnightblue" d="M322.119,-15C330.636,-15 339.391,-15 348.096,-15"/>
<polygon fill="midnightblue" stroke="midnightblue" points="348.274,-18.5001 358.274,-15 348.274,-11.5001 348.274,-18.5001"/>
</g>
<!-- Node4 -->
<g id="node4" class="node"><title>Node4</title>
<g id="a_node4"><a xlink:href="../../dc/d3b/classui_1_1_g_u_i.html#ada22074441d08ce00bb69499f8707fc3" target="_top" xlink:title="ui.GUI.setInputText">
<polygon fill="white" stroke="black" points="558,-5.5 558,-24.5 664,-24.5 664,-5.5 558,-5.5"/>
<text text-anchor="middle" x="611" y="-12.5" font-family="Helvetica,sans-Serif" font-size="10.00">ui.GUI.setInputText</text>
</a>
</g>
</g>
<!-- Node3&#45;&gt;Node4 -->
<g id="edge3" class="edge"><title>Node3&#45;&gt;Node4</title>
<path fill="none" stroke="midnightblue" d="M521.54,-15C530.244,-15 539.003,-15 547.449,-15"/>
<polygon fill="midnightblue" stroke="midnightblue" points="547.569,-18.5001 557.569,-15 547.569,-11.5001 547.569,-18.5001"/>
</g>
<!-- Node5 -->
<g id="node5" class="node"><title>Node5</title>
<g id="a_node5"><a xlink:href="../../d8/d3c/classui_1_1elements_1_1_i_o_element.html#a3b1244fbac1fbbee1183143097b1e4ef" target="_top" xlink:title="ui.elements.IOElement.get\lInputField">
<polygon fill="white" stroke="black" points="700,-0 700,-30 844,-30 844,-0 700,-0"/>
<text text-anchor="start" x="708" y="-18" font-family="Helvetica,sans-Serif" font-size="10.00">ui.elements.IOElement.get</text>
<text text-anchor="middle" x="772" y="-7" font-family="Helvetica,sans-Serif" font-size="10.00">InputField</text>
</a>
</g>
</g>
<!-- Node4&#45;&gt;Node5 -->
<g id="edge4" class="edge"><title>Node4&#45;&gt;Node5</title>
<path fill="none" stroke="midnightblue" d="M664.063,-15C672.265,-15 680.911,-15 689.588,-15"/>
<polygon fill="midnightblue" stroke="midnightblue" points="689.762,-18.5001 699.762,-15 689.762,-11.5001 689.762,-18.5001"/>
</g>
</g>
</svg>
