<?xml version="1.0" encoding="UTF-8" standalone="no"?>
<!DOCTYPE svg PUBLIC "-//W3C//DTD SVG 1.1//EN"
 "http://www.w3.org/Graphics/SVG/1.1/DTD/svg11.dtd">
<!-- Generated by graphviz version 2.36.0 (20140111.2315)
 -->
<!-- Title: ui.elements.InfoElement.makeTable Pages: 1 -->
<svg width="530pt" height="38pt"
 viewBox="0.00 0.00 530.00 38.00" xmlns="http://www.w3.org/2000/svg" xmlns:xlink="http://www.w3.org/1999/xlink">
<g id="graph0" class="graph" transform="scale(1 1) rotate(0) translate(4 34)">
<title>ui.elements.InfoElement.makeTable</title>
<polygon fill="white" stroke="none" points="-4,4 -4,-34 526,-34 526,4 -4,4"/>
<!-- Node1 -->
<g id="node1" class="node"><title>Node1</title>
<polygon fill="#bfbfbf" stroke="black" points="0.5,-0 0.5,-30 163.5,-30 163.5,-0 0.5,-0"/>
<text text-anchor="start" x="8.5" y="-18" font-family="Helvetica,sans-Serif" font-size="10.00">ui.elements.InfoElement.make</text>
<text text-anchor="middle" x="82" y="-7" font-family="Helvetica,sans-Serif" font-size="10.00">Table</text>
</g>
<!-- Node2 -->
<g id="node2" class="node"><title>Node2</title>
<g id="a_node2"><a xlink:href="../../d6/dd8/classui_1_1elements_1_1_info_element.html#a903c163f8db1ff4a909d837c202c25ba" target="_top" xlink:title="ui.elements.InfoElement.init">
<polygon fill="white" stroke="black" points="200,-5.5 200,-24.5 350,-24.5 350,-5.5 200,-5.5"/>
<text text-anchor="middle" x="275" y="-12.5" font-family="Helvetica,sans-Serif" font-size="10.00">ui.elements.InfoElement.init</text>
</a>
</g>
</g>
<!-- Node1&#45;&gt;Node2 -->
<g id="edge1" class="edge"><title>Node1&#45;&gt;Node2</title>
<path fill="none" stroke="midnightblue" d="M173.92,-15C182.639,-15 191.41,-15 199.94,-15"/>
<polygon fill="midnightblue" stroke="midnightblue" points="173.724,-11.5001 163.724,-15 173.724,-18.5001 173.724,-11.5001"/>
</g>
<!-- Node3 -->
<g id="node3" class="node"><title>Node3</title>
<g id="a_node3"><a xlink:href="../../d6/dd8/classui_1_1elements_1_1_info_element.html#a74e5d4ca26d93950429bd7e287ac12e3" target="_top" xlink:title="ui.elements.InfoElement.\lInfoElement">
<polygon fill="white" stroke="black" points="386,-0 386,-30 522,-30 522,-0 386,-0"/>
<text text-anchor="start" x="394" y="-18" font-family="Helvetica,sans-Serif" font-size="10.00">ui.elements.InfoElement.</text>
<text text-anchor="middle" x="454" y="-7" font-family="Helvetica,sans-Serif" font-size="10.00">InfoElement</text>
</a>
</g>
</g>
<!-- Node2&#45;&gt;Node3 -->
<g id="edge2" class="edge"><title>Node2&#45;&gt;Node3</title>
<path fill="none" stroke="midnightblue" d="M360.094,-15C368.699,-15 377.359,-15 385.749,-15"/>
<polygon fill="midnightblue" stroke="midnightblue" points="360.038,-11.5001 350.038,-15 360.038,-18.5001 360.038,-11.5001"/>
</g>
</g>
</svg>
