<?xml version="1.0" encoding="UTF-8" standalone="no"?>
<!DOCTYPE svg PUBLIC "-//W3C//DTD SVG 1.1//EN"
 "http://www.w3.org/Graphics/SVG/1.1/DTD/svg11.dtd">
<!-- Generated by graphviz version 2.36.0 (20140111.2315)
 -->
<!-- Title: ui.SceneUpdater.setOutputText Pages: 1 -->
<svg width="506pt" height="38pt"
 viewBox="0.00 0.00 506.00 38.00" xmlns="http://www.w3.org/2000/svg" xmlns:xlink="http://www.w3.org/1999/xlink">
<g id="graph0" class="graph" transform="scale(1 1) rotate(0) translate(4 34)">
<title>ui.SceneUpdater.setOutputText</title>
<polygon fill="white" stroke="none" points="-4,4 -4,-34 502,-34 502,4 -4,4"/>
<!-- Node1 -->
<g id="node1" class="node"><title>Node1</title>
<polygon fill="#bfbfbf" stroke="black" points="0,-5.5 0,-24.5 166,-24.5 166,-5.5 0,-5.5"/>
<text text-anchor="middle" x="83" y="-12.5" font-family="Helvetica,sans-Serif" font-size="10.00">ui.SceneUpdater.setOutputText</text>
</g>
<!-- Node2 -->
<g id="node2" class="node"><title>Node2</title>
<g id="a_node2"><a xlink:href="../../dc/d3b/classui_1_1_g_u_i.html#a203fbe4e50ca1066c5c0ea8cc182adc4" target="_top" xlink:title="ui.GUI.setOutputText">
<polygon fill="white" stroke="black" points="202.5,-5.5 202.5,-24.5 317.5,-24.5 317.5,-5.5 202.5,-5.5"/>
<text text-anchor="middle" x="260" y="-12.5" font-family="Helvetica,sans-Serif" font-size="10.00">ui.GUI.setOutputText</text>
</a>
</g>
</g>
<!-- Node1&#45;&gt;Node2 -->
<g id="edge1" class="edge"><title>Node1&#45;&gt;Node2</title>
<path fill="none" stroke="midnightblue" d="M166.12,-15C174.832,-15 183.616,-15 192.124,-15"/>
<polygon fill="midnightblue" stroke="midnightblue" points="192.342,-18.5001 202.342,-15 192.342,-11.5001 192.342,-18.5001"/>
</g>
<!-- Node3 -->
<g id="node3" class="node"><title>Node3</title>
<g id="a_node3"><a xlink:href="../../d8/d3c/classui_1_1elements_1_1_i_o_element.html#a39ffe51bb8b4ef8ad25dd48e65c92ac6" target="_top" xlink:title="ui.elements.IOElement.get\lOutputField">
<polygon fill="white" stroke="black" points="354,-0 354,-30 498,-30 498,-0 354,-0"/>
<text text-anchor="start" x="362" y="-18" font-family="Helvetica,sans-Serif" font-size="10.00">ui.elements.IOElement.get</text>
<text text-anchor="middle" x="426" y="-7" font-family="Helvetica,sans-Serif" font-size="10.00">OutputField</text>
</a>
</g>
</g>
<!-- Node2&#45;&gt;Node3 -->
<g id="edge2" class="edge"><title>Node2&#45;&gt;Node3</title>
<path fill="none" stroke="midnightblue" d="M317.899,-15C326.211,-15 334.903,-15 343.587,-15"/>
<polygon fill="midnightblue" stroke="midnightblue" points="343.754,-18.5001 353.754,-15 343.754,-11.5001 343.754,-18.5001"/>
</g>
</g>
</svg>
