<?xml version="1.0" encoding="UTF-8" standalone="no"?>
<!DOCTYPE svg PUBLIC "-//W3C//DTD SVG 1.1//EN"
 "http://www.w3.org/Graphics/SVG/1.1/DTD/svg11.dtd">
<!-- Generated by graphviz version 2.36.0 (20140111.2315)
 -->
<!-- Title: ui.SceneUpdater.sendCommands Pages: 1 -->
<svg width="2498pt" height="88pt"
 viewBox="0.00 0.00 2498.00 88.00" xmlns="http://www.w3.org/2000/svg" xmlns:xlink="http://www.w3.org/1999/xlink">
<g id="graph0" class="graph" transform="scale(1 1) rotate(0) translate(4 84)">
<title>ui.SceneUpdater.sendCommands</title>
<polygon fill="white" stroke="none" points="-4,4 -4,-84 2494,-84 2494,4 -4,4"/>
<!-- Node1 -->
<g id="node1" class="node"><title>Node1</title>
<polygon fill="#bfbfbf" stroke="black" points="0,-41.5 0,-60.5 178,-60.5 178,-41.5 0,-41.5"/>
<text text-anchor="middle" x="89" y="-48.5" font-family="Helvetica,sans-Serif" font-size="10.00">ui.SceneUpdater.sendCommands</text>
</g>
<!-- Node2 -->
<g id="node2" class="node"><title>Node2</title>
<g id="a_node2"><a xlink:href="../../dc/d3b/classui_1_1_g_u_i.html#ad8f08a79a20a498bcaafdc7e2e2ce0a9" target="_top" xlink:title="ui.GUI.parseCommand">
<polygon fill="white" stroke="black" points="214.5,-41.5 214.5,-60.5 339.5,-60.5 339.5,-41.5 214.5,-41.5"/>
<text text-anchor="middle" x="277" y="-48.5" font-family="Helvetica,sans-Serif" font-size="10.00">ui.GUI.parseCommand</text>
</a>
</g>
</g>
<!-- Node1&#45;&gt;Node2 -->
<g id="edge1" class="edge"><title>Node1&#45;&gt;Node2</title>
<path fill="none" stroke="midnightblue" d="M188.196,-51C197.132,-51 206.003,-51 214.479,-51"/>
<polygon fill="midnightblue" stroke="midnightblue" points="188.098,-47.5001 178.098,-51 188.098,-54.5001 188.098,-47.5001"/>
</g>
<!-- Node3 -->
<g id="node3" class="node"><title>Node3</title>
<g id="a_node3"><a xlink:href="../../d8/d3c/classui_1_1elements_1_1_i_o_element.html#a139a046f0c771f86696f2eee04047c64" target="_top" xlink:title="ui.elements.IOElement.init">
<polygon fill="white" stroke="black" points="392.5,-60.5 392.5,-79.5 535.5,-79.5 535.5,-60.5 392.5,-60.5"/>
<text text-anchor="middle" x="464" y="-67.5" font-family="Helvetica,sans-Serif" font-size="10.00">ui.elements.IOElement.init</text>
</a>
</g>
</g>
<!-- Node2&#45;&gt;Node3 -->
<g id="edge2" class="edge"><title>Node2&#45;&gt;Node3</title>
<path fill="none" stroke="midnightblue" d="M349.677,-58.3614C363.703,-59.8019 378.403,-61.3116 392.393,-62.7485"/>
<polygon fill="midnightblue" stroke="midnightblue" points="349.908,-54.8668 339.602,-57.3267 349.192,-61.8302 349.908,-54.8668"/>
</g>
<!-- Node5 -->
<g id="node5" class="node"><title>Node5</title>
<g id="a_node5"><a xlink:href="../../dc/d3b/classui_1_1_g_u_i.html#ab8ec2a37b3d5bd9e8c2abbb3642fb965" target="_top" xlink:title="ui.GUI.setupKeyboardCommands">
<polygon fill="white" stroke="black" points="376.5,-22.5 376.5,-41.5 551.5,-41.5 551.5,-22.5 376.5,-22.5"/>
<text text-anchor="middle" x="464" y="-29.5" font-family="Helvetica,sans-Serif" font-size="10.00">ui.GUI.setupKeyboardCommands</text>
</a>
</g>
</g>
<!-- Node2&#45;&gt;Node5 -->
<g id="edge4" class="edge"><title>Node2&#45;&gt;Node5</title>
<path fill="none" stroke="midnightblue" d="M349.694,-43.6368C358.41,-42.7417 367.385,-41.8199 376.289,-40.9054"/>
<polygon fill="midnightblue" stroke="midnightblue" points="349.192,-40.1698 339.602,-44.6733 349.908,-47.1332 349.192,-40.1698"/>
</g>
<!-- Node4 -->
<g id="node4" class="node"><title>Node4</title>
<g id="a_node4"><a xlink:href="../../d8/d3c/classui_1_1elements_1_1_i_o_element.html#a556e1a3ad292fe3ab731065eef59b187" target="_top" xlink:title="ui.elements.IOElement.IOElement">
<polygon fill="white" stroke="black" points="588,-60.5 588,-79.5 766,-79.5 766,-60.5 588,-60.5"/>
<text text-anchor="middle" x="677" y="-67.5" font-family="Helvetica,sans-Serif" font-size="10.00">ui.elements.IOElement.IOElement</text>
</a>
</g>
</g>
<!-- Node3&#45;&gt;Node4 -->
<g id="edge3" class="edge"><title>Node3&#45;&gt;Node4</title>
<path fill="none" stroke="midnightblue" d="M545.922,-70C559.652,-70 573.971,-70 587.876,-70"/>
<polygon fill="midnightblue" stroke="midnightblue" points="545.553,-66.5001 535.553,-70 545.553,-73.5001 545.553,-66.5001"/>
</g>
<!-- Node6 -->
<g id="node6" class="node"><title>Node6</title>
<g id="a_node6"><a xlink:href="../../dc/d3b/classui_1_1_g_u_i.html#a765d554102f38969231261686f2f8e27" target="_top" xlink:title="ui.GUI.initialize">
<polygon fill="white" stroke="black" points="634,-22.5 634,-41.5 720,-41.5 720,-22.5 634,-22.5"/>
<text text-anchor="middle" x="677" y="-29.5" font-family="Helvetica,sans-Serif" font-size="10.00">ui.GUI.initialize</text>
</a>
</g>
</g>
<!-- Node5&#45;&gt;Node6 -->
<g id="edge5" class="edge"><title>Node5&#45;&gt;Node6</title>
<path fill="none" stroke="midnightblue" d="M561.748,-32C587.016,-32 612.959,-32 633.724,-32"/>
<polygon fill="midnightblue" stroke="midnightblue" points="561.735,-28.5001 551.735,-32 561.735,-35.5001 561.735,-28.5001"/>
</g>
<!-- Node7 -->
<g id="node7" class="node"><title>Node7</title>
<g id="a_node7"><a xlink:href="../../d5/d06/classui_1_1_scene_updater.html#aeef5dd7a8ec2ad6179e33fdd71ea90d6" target="_top" xlink:title="ui.SceneUpdater.initGUI">
<polygon fill="white" stroke="black" points="802.5,-22.5 802.5,-41.5 933.5,-41.5 933.5,-22.5 802.5,-22.5"/>
<text text-anchor="middle" x="868" y="-29.5" font-family="Helvetica,sans-Serif" font-size="10.00">ui.SceneUpdater.initGUI</text>
</a>
</g>
</g>
<!-- Node6&#45;&gt;Node7 -->
<g id="edge6" class="edge"><title>Node6&#45;&gt;Node7</title>
<path fill="none" stroke="midnightblue" d="M730.669,-32C752.921,-32 779.049,-32 802.446,-32"/>
<polygon fill="midnightblue" stroke="midnightblue" points="730.415,-28.5001 720.415,-32 730.415,-35.5001 730.415,-28.5001"/>
</g>
<!-- Node8 -->
<g id="node8" class="node"><title>Node8</title>
<g id="a_node8"><a xlink:href="../../d9/df7/classcontroller_1_1_controller.html#a57e42ba83ee2145e6262cd72eac59570" target="_top" xlink:title="controller.Controller.init">
<polygon fill="white" stroke="black" points="970.5,-22.5 970.5,-41.5 1097.5,-41.5 1097.5,-22.5 970.5,-22.5"/>
<text text-anchor="middle" x="1034" y="-29.5" font-family="Helvetica,sans-Serif" font-size="10.00">controller.Controller.init</text>
</a>
</g>
</g>
<!-- Node7&#45;&gt;Node8 -->
<g id="edge7" class="edge"><title>Node7&#45;&gt;Node8</title>
<path fill="none" stroke="midnightblue" d="M944.038,-32C952.806,-32 961.682,-32 970.26,-32"/>
<polygon fill="midnightblue" stroke="midnightblue" points="943.817,-28.5001 933.817,-32 943.817,-35.5001 943.817,-28.5001"/>
</g>
<!-- Node9 -->
<g id="node9" class="node"><title>Node9</title>
<g id="a_node9"><a xlink:href="../../dd/df2/classmain_1_1_workspace_manager.html#abc818b59211f6e14940b86a42bb868d0" target="_top" xlink:title="main.WorkspaceManager.create\lWorkspace">
<polygon fill="white" stroke="black" points="1134,-17 1134,-47 1304,-47 1304,-17 1134,-17"/>
<text text-anchor="start" x="1142" y="-35" font-family="Helvetica,sans-Serif" font-size="10.00">main.WorkspaceManager.create</text>
<text text-anchor="middle" x="1219" y="-24" font-family="Helvetica,sans-Serif" font-size="10.00">Workspace</text>
</a>
</g>
</g>
<!-- Node8&#45;&gt;Node9 -->
<g id="edge8" class="edge"><title>Node8&#45;&gt;Node9</title>
<path fill="none" stroke="midnightblue" d="M1107.92,-32C1116.39,-32 1125.08,-32 1133.69,-32"/>
<polygon fill="midnightblue" stroke="midnightblue" points="1107.72,-28.5001 1097.72,-32 1107.72,-35.5001 1107.72,-28.5001"/>
</g>
<!-- Node10 -->
<g id="node10" class="node"><title>Node10</title>
<g id="a_node10"><a xlink:href="../../d9/df7/classcontroller_1_1_controller.html#a3a9d672bb57047df70945ad1a9582c9a" target="_top" xlink:title="controller.Controller.create\lNewWorkspace">
<polygon fill="white" stroke="black" points="1340.5,-39 1340.5,-69 1483.5,-69 1483.5,-39 1340.5,-39"/>
<text text-anchor="start" x="1348.5" y="-57" font-family="Helvetica,sans-Serif" font-size="10.00">controller.Controller.create</text>
<text text-anchor="middle" x="1412" y="-46" font-family="Helvetica,sans-Serif" font-size="10.00">NewWorkspace</text>
</a>
</g>
</g>
<!-- Node9&#45;&gt;Node10 -->
<g id="edge9" class="edge"><title>Node9&#45;&gt;Node10</title>
<path fill="none" stroke="midnightblue" d="M1314.03,-42.8303C1322.88,-43.8503 1331.75,-44.8721 1340.34,-45.8608"/>
<polygon fill="midnightblue" stroke="midnightblue" points="1314.39,-39.3489 1304.05,-41.6815 1313.59,-46.3029 1314.39,-39.3489"/>
</g>
<!-- Node16 -->
<g id="node16" class="node"><title>Node16</title>
<g id="a_node16"><a xlink:href="../../d1/d0b/classmain_1_1_main.html#a9f1e5657b2f6f9bdd69a3b6412ceda74" target="_top" xlink:title="main.Main.start">
<polygon fill="white" stroke="black" points="1366,-0.5 1366,-19.5 1458,-19.5 1458,-0.5 1366,-0.5"/>
<text text-anchor="middle" x="1412" y="-7.5" font-family="Helvetica,sans-Serif" font-size="10.00">main.Main.start</text>
</a>
</g>
</g>
<!-- Node9&#45;&gt;Node16 -->
<g id="edge15" class="edge"><title>Node9&#45;&gt;Node16</title>
<path fill="none" stroke="midnightblue" d="M1314.09,-21.1629C1332.19,-19.0779 1350.36,-16.9851 1365.99,-15.1843"/>
<polygon fill="midnightblue" stroke="midnightblue" points="1313.59,-17.6971 1304.05,-22.3185 1314.39,-24.6511 1313.59,-17.6971"/>
</g>
<!-- Node11 -->
<g id="node11" class="node"><title>Node11</title>
<g id="a_node11"><a xlink:href="../../d5/d06/classui_1_1_scene_updater.html#a2858ad8edb0c0f59a21e2ae015f2fa1e" target="_top" xlink:title="ui.SceneUpdater.createNew\lWorkspace">
<polygon fill="white" stroke="black" points="1520,-39 1520,-69 1670,-69 1670,-39 1520,-39"/>
<text text-anchor="start" x="1528" y="-57" font-family="Helvetica,sans-Serif" font-size="10.00">ui.SceneUpdater.createNew</text>
<text text-anchor="middle" x="1595" y="-46" font-family="Helvetica,sans-Serif" font-size="10.00">Workspace</text>
</a>
</g>
</g>
<!-- Node10&#45;&gt;Node11 -->
<g id="edge10" class="edge"><title>Node10&#45;&gt;Node11</title>
<path fill="none" stroke="midnightblue" d="M1493.8,-54C1502.43,-54 1511.17,-54 1519.71,-54"/>
<polygon fill="midnightblue" stroke="midnightblue" points="1493.76,-50.5001 1483.76,-54 1493.76,-57.5001 1493.76,-50.5001"/>
</g>
<!-- Node12 -->
<g id="node12" class="node"><title>Node12</title>
<g id="a_node12"><a xlink:href="../../dc/d3b/classui_1_1_g_u_i.html#a2edc294ba07311e6c4b85c9fe749d1bf" target="_top" xlink:title="ui.GUI.createNewWorkspace">
<polygon fill="white" stroke="black" points="1706,-44.5 1706,-63.5 1856,-63.5 1856,-44.5 1706,-44.5"/>
<text text-anchor="middle" x="1781" y="-51.5" font-family="Helvetica,sans-Serif" font-size="10.00">ui.GUI.createNewWorkspace</text>
</a>
</g>
</g>
<!-- Node11&#45;&gt;Node12 -->
<g id="edge11" class="edge"><title>Node11&#45;&gt;Node12</title>
<path fill="none" stroke="midnightblue" d="M1680.07,-54C1688.65,-54 1697.34,-54 1705.81,-54"/>
<polygon fill="midnightblue" stroke="midnightblue" points="1680.04,-50.5001 1670.04,-54 1680.04,-57.5001 1680.04,-50.5001"/>
</g>
<!-- Node13 -->
<g id="node13" class="node"><title>Node13</title>
<g id="a_node13"><a xlink:href="../../d0/de6/classui_1_1elements_1_1_menu_bar_element.html#a98c13995a31d997aa10f2950583da6cc" target="_top" xlink:title="ui.elements.MenuBarElement.make\lMenuBar">
<polygon fill="white" stroke="black" points="1892,-39 1892,-69 2080,-69 2080,-39 1892,-39"/>
<text text-anchor="start" x="1900" y="-57" font-family="Helvetica,sans-Serif" font-size="10.00">ui.elements.MenuBarElement.make</text>
<text text-anchor="middle" x="1986" y="-46" font-family="Helvetica,sans-Serif" font-size="10.00">MenuBar</text>
</a>
</g>
</g>
<!-- Node12&#45;&gt;Node13 -->
<g id="edge12" class="edge"><title>Node12&#45;&gt;Node13</title>
<path fill="none" stroke="midnightblue" d="M1866.28,-54C1874.66,-54 1883.21,-54 1891.68,-54"/>
<polygon fill="midnightblue" stroke="midnightblue" points="1866.15,-50.5001 1856.15,-54 1866.15,-57.5001 1866.15,-50.5001"/>
</g>
<!-- Node14 -->
<g id="node14" class="node"><title>Node14</title>
<g id="a_node14"><a xlink:href="../../d0/de6/classui_1_1elements_1_1_menu_bar_element.html#a7bdb58f78cf8b61ba28498c5c86ab682" target="_top" xlink:title="ui.elements.MenuBarElement.init">
<polygon fill="white" stroke="black" points="2116,-44.5 2116,-63.5 2292,-63.5 2292,-44.5 2116,-44.5"/>
<text text-anchor="middle" x="2204" y="-51.5" font-family="Helvetica,sans-Serif" font-size="10.00">ui.elements.MenuBarElement.init</text>
</a>
</g>
</g>
<!-- Node13&#45;&gt;Node14 -->
<g id="edge13" class="edge"><title>Node13&#45;&gt;Node14</title>
<path fill="none" stroke="midnightblue" d="M2090.23,-54C2098.83,-54 2107.48,-54 2115.94,-54"/>
<polygon fill="midnightblue" stroke="midnightblue" points="2090.17,-50.5001 2080.17,-54 2090.17,-57.5001 2090.17,-50.5001"/>
</g>
<!-- Node15 -->
<g id="node15" class="node"><title>Node15</title>
<g id="a_node15"><a xlink:href="../../d0/de6/classui_1_1elements_1_1_menu_bar_element.html#ab4a4e6841c924a9d9c70b8073b56dffc" target="_top" xlink:title="ui.elements.MenuBarElement.\lMenuBarElement">
<polygon fill="white" stroke="black" points="2328.5,-39 2328.5,-69 2489.5,-69 2489.5,-39 2328.5,-39"/>
<text text-anchor="start" x="2336.5" y="-57" font-family="Helvetica,sans-Serif" font-size="10.00">ui.elements.MenuBarElement.</text>
<text text-anchor="middle" x="2409" y="-46" font-family="Helvetica,sans-Serif" font-size="10.00">MenuBarElement</text>
</a>
</g>
</g>
<!-- Node14&#45;&gt;Node15 -->
<g id="edge14" class="edge"><title>Node14&#45;&gt;Node15</title>
<path fill="none" stroke="midnightblue" d="M2302.47,-54C2311.19,-54 2319.95,-54 2328.5,-54"/>
<polygon fill="midnightblue" stroke="midnightblue" points="2302.27,-50.5001 2292.27,-54 2302.27,-57.5001 2302.27,-50.5001"/>
</g>
</g>
</svg>
