<?xml version="1.0" encoding="UTF-8" standalone="no"?>
<!DOCTYPE svg PUBLIC "-//W3C//DTD SVG 1.1//EN"
 "http://www.w3.org/Graphics/SVG/1.1/DTD/svg11.dtd">
<!-- Generated by graphviz version 2.36.0 (20140111.2315)
 -->
<!-- Title: ui.SceneUpdater.sendCommands Pages: 1 -->
<!--zoomable 729 -->
<svg id="main" version="1.1" xmlns="http://www.w3.org/2000/svg" xmlns:xlink="http://www.w3.org/1999/xlink" xml:space="preserve" onload="init(evt)">
<style type="text/css"><![CDATA[
.edge:hover path { stroke: red; }
.edge:hover polygon { stroke: red; fill: red; }
]]></style>
<script type="text/javascript"><![CDATA[
var edges = document.getElementsByTagName('g');
if (edges && edges.length) {
  for (var i=0;i<edges.length;i++) {
    if (edges[i].id.substr(0,4)=='edge') {
      edges[i].setAttribute('class','edge');
    }
  }
}
]]></script>
        <defs>
                <circle id="rim" cx="0" cy="0" r="7"/>
                <circle id="rim2" cx="0" cy="0" r="3.5"/>
                <g id="zoomPlus">
                        <use xlink:href="#rim" fill="#404040">
                                <set attributeName="fill" to="#808080" begin="zoomplus.mouseover" end="zoomplus.mouseout"/>
                        </use>
                        <path d="M-4,0h8M0,-4v8" fill="none" stroke="white" stroke-width="1.5" pointer-events="none"/>
                </g>
                <g id="zoomMin">
                        <use xlink:href="#rim" fill="#404040">
                                <set attributeName="fill" to="#808080" begin="zoomminus.mouseover" end="zoomminus.mouseout"/>
                        </use>
                        <path d="M-4,0h8" fill="none" stroke="white" stroke-width="1.5" pointer-events="none"/>
                </g>
                <g id="dirArrow">
                        <path fill="none" stroke="white" stroke-width="1.5" d="M0,-3.0v7 M-2.5,-0.5L0,-3.0L2.5,-0.5"/>
                </g>
               <g id="resetDef">
                       <use xlink:href="#rim2" fill="#404040">
                               <set attributeName="fill" to="#808080" begin="reset.mouseover" end="reset.mouseout"/>
                       </use>
               </g>
        </defs>

<script type="text/javascript">
var viewWidth = 1272;
var viewHeight = 729;
var sectionId = 'dynsection-11';
</script>
<script xlink:href="../../svgpan.js"/>
<svg id="graph" class="graph">
<g id="viewport">
<title>ui.SceneUpdater.sendCommands</title>
<polygon fill="white" stroke="none" points="-4,4 -4,-725 1268,-725 1268,4 -4,4"/>
<!-- Node1 -->
<g id="node1" class="node"><title>Node1</title>
<polygon fill="#bfbfbf" stroke="black" points="0,-230.5 0,-249.5 178,-249.5 178,-230.5 0,-230.5"/>
<text text-anchor="middle" x="89" y="-237.5" font-family="Helvetica,sans-Serif" font-size="10.00">ui.SceneUpdater.sendCommands</text>
</g>
<!-- Node2 -->
<g id="node2" class="node"><title>Node2</title>
<g id="a_node2"><a xlink:href="../../d9/df7/classcontroller_1_1_controller.html#a3d81fb1a57114f96fb6c319f4c5df370" target="_top" xlink:title="controller.Controller.parse\lCommand">
<polygon fill="white" stroke="black" points="214,-225 214,-255 354,-255 354,-225 214,-225"/>
<text text-anchor="start" x="222" y="-243" font-family="Helvetica,sans-Serif" font-size="10.00">controller.Controller.parse</text>
<text text-anchor="middle" x="284" y="-232" font-family="Helvetica,sans-Serif" font-size="10.00">Command</text>
</a>
</g>
</g>
<!-- Node1&#45;&gt;Node2 -->
<g id="edge1" class="edge"><title>Node1&#45;&gt;Node2</title>
<path fill="none" stroke="midnightblue" d="M178.028,-240C186.581,-240 195.222,-240 203.682,-240"/>
<polygon fill="midnightblue" stroke="midnightblue" points="203.892,-243.5 213.892,-240 203.892,-236.5 203.892,-243.5"/>
</g>
<!-- Node3 -->
<g id="node3" class="node"><title>Node3</title>
<g id="a_node3"><a xlink:href="../../d5/d06/classui_1_1_scene_updater.html#ac93c2b014447efef3a09141521fb4d9e" target="_top" xlink:title="ui.SceneUpdater.addCommand\lHistory">
<polygon fill="white" stroke="black" points="398.5,-570 398.5,-600 565.5,-600 565.5,-570 398.5,-570"/>
<text text-anchor="start" x="406.5" y="-588" font-family="Helvetica,sans-Serif" font-size="10.00">ui.SceneUpdater.addCommand</text>
<text text-anchor="middle" x="482" y="-577" font-family="Helvetica,sans-Serif" font-size="10.00">History</text>
</a>
</g>
</g>
<!-- Node2&#45;&gt;Node3 -->
<g id="edge2" class="edge"><title>Node2&#45;&gt;Node3</title>
<path fill="none" stroke="midnightblue" d="M288.92,-255.106C300.05,-296.206 334.665,-412.493 390,-495 407.731,-521.438 434.115,-546.471 453.915,-563.392"/>
<polygon fill="midnightblue" stroke="midnightblue" points="451.773,-566.163 461.684,-569.906 456.27,-560.799 451.773,-566.163"/>
</g>
<!-- Node7 -->
<g id="node7" class="node"><title>Node7</title>
<g id="a_node7"><a xlink:href="../../d0/d05/classparser_1_1_tree_generator.html#acf44e3a80bec76756c2bb09124dc4c8d" target="_top" xlink:title="parser.TreeGenerator.create\lCommands">
<polygon fill="white" stroke="black" points="406.5,-456 406.5,-486 557.5,-486 557.5,-456 406.5,-456"/>
<text text-anchor="start" x="414.5" y="-474" font-family="Helvetica,sans-Serif" font-size="10.00">parser.TreeGenerator.create</text>
<text text-anchor="middle" x="482" y="-463" font-family="Helvetica,sans-Serif" font-size="10.00">Commands</text>
</a>
</g>
</g>
<!-- Node2&#45;&gt;Node7 -->
<g id="edge6" class="edge"><title>Node2&#45;&gt;Node7</title>
<path fill="none" stroke="midnightblue" d="M297.86,-255.157C331.363,-294.642 421.495,-400.869 461.46,-447.97"/>
<polygon fill="midnightblue" stroke="midnightblue" points="458.954,-450.427 468.093,-455.788 464.292,-445.898 458.954,-450.427"/>
</g>
<!-- Node20 -->
<g id="node20" class="node"><title>Node20</title>
<g id="a_node20"><a xlink:href="../../d0/d05/classparser_1_1_tree_generator.html#a6b0c994d90d372250a24f81f439de007" target="_top" xlink:title="parser.TreeGenerator.get\lMethodsList">
<polygon fill="white" stroke="black" points="414,-250 414,-280 550,-280 550,-250 414,-250"/>
<text text-anchor="start" x="422" y="-268" font-family="Helvetica,sans-Serif" font-size="10.00">parser.TreeGenerator.get</text>
<text text-anchor="middle" x="482" y="-257" font-family="Helvetica,sans-Serif" font-size="10.00">MethodsList</text>
</a>
</g>
</g>
<!-- Node2&#45;&gt;Node20 -->
<g id="edge20" class="edge"><title>Node2&#45;&gt;Node20</title>
<path fill="none" stroke="midnightblue" d="M354.102,-248.814C370.166,-250.863 387.367,-253.057 403.757,-255.148"/>
<polygon fill="midnightblue" stroke="midnightblue" points="403.477,-258.64 413.839,-256.434 404.363,-251.696 403.477,-258.64"/>
</g>
<!-- Node22 -->
<g id="node22" class="node"><title>Node22</title>
<g id="a_node22"><a xlink:href="../../dc/d9e/classparser_1_1_command_tree_node.html#aea6176c10780becfc79a23924bb6fdc2" target="_top" xlink:title="parser.CommandTreeNode.get\lValue">
<polygon fill="white" stroke="black" points="400,-201 400,-231 564,-231 564,-201 400,-201"/>
<text text-anchor="start" x="408" y="-219" font-family="Helvetica,sans-Serif" font-size="10.00">parser.CommandTreeNode.get</text>
<text text-anchor="middle" x="482" y="-208" font-family="Helvetica,sans-Serif" font-size="10.00">Value</text>
</a>
</g>
</g>
<!-- Node2&#45;&gt;Node22 -->
<g id="edge22" class="edge"><title>Node2&#45;&gt;Node22</title>
<path fill="none" stroke="midnightblue" d="M354.102,-231.538C365.64,-230.126 377.765,-228.641 389.755,-227.173"/>
<polygon fill="midnightblue" stroke="midnightblue" points="390.278,-230.635 399.778,-225.946 389.427,-223.687 390.278,-230.635"/>
</g>
<!-- Node23 -->
<g id="node23" class="node"><title>Node23</title>
<g id="a_node23"><a xlink:href="../../d9/d88/classmodel_1_1_tree_interpreter.html#a501df6b8cfe1a8175a9da0ed96d30d6f" target="_top" xlink:title="model.TreeInterpreter.interpretTree">
<polygon fill="white" stroke="black" points="390.5,-162.5 390.5,-181.5 573.5,-181.5 573.5,-162.5 390.5,-162.5"/>
<text text-anchor="middle" x="482" y="-169.5" font-family="Helvetica,sans-Serif" font-size="10.00">model.TreeInterpreter.interpretTree</text>
</a>
</g>
</g>
<!-- Node2&#45;&gt;Node23 -->
<g id="edge23" class="edge"><title>Node2&#45;&gt;Node23</title>
<path fill="none" stroke="midnightblue" d="M312.797,-224.869C333.554,-214.109 362.896,-200.019 390,-191 398.035,-188.326 406.599,-185.951 415.137,-183.863"/>
<polygon fill="midnightblue" stroke="midnightblue" points="416.168,-187.217 425.116,-181.544 414.583,-180.398 416.168,-187.217"/>
</g>
<!-- Node33 -->
<g id="node33" class="node"><title>Node33</title>
<g id="a_node33"><a xlink:href="../../d5/d06/classui_1_1_scene_updater.html#ab8b88b95b646266ee4a8ef3d77e4c3e3" target="_top" xlink:title="ui.SceneUpdater.setOutputText">
<polygon fill="white" stroke="black" points="399,-77.5 399,-96.5 565,-96.5 565,-77.5 399,-77.5"/>
<text text-anchor="middle" x="482" y="-84.5" font-family="Helvetica,sans-Serif" font-size="10.00">ui.SceneUpdater.setOutputText</text>
</a>
</g>
</g>
<!-- Node2&#45;&gt;Node33 -->
<g id="edge38" class="edge"><title>Node2&#45;&gt;Node33</title>
<path fill="none" stroke="midnightblue" d="M302.551,-224.868C323.175,-207.226 358.574,-177.375 390,-153 413.06,-135.114 440.228,-115.605 458.838,-102.471"/>
<polygon fill="midnightblue" stroke="midnightblue" points="461.063,-105.185 467.231,-96.5706 457.037,-99.4587 461.063,-105.185"/>
</g>
<!-- Node4 -->
<g id="node4" class="node"><title>Node4</title>
<g id="a_node4"><a xlink:href="../../dc/d3b/classui_1_1_g_u_i.html#a3c16c78e8d953dbf8ef41113ca03621e" target="_top" xlink:title="ui.GUI.addCommandHistory">
<polygon fill="white" stroke="black" points="635,-641.5 635,-660.5 785,-660.5 785,-641.5 635,-641.5"/>
<text text-anchor="middle" x="710" y="-648.5" font-family="Helvetica,sans-Serif" font-size="10.00">ui.GUI.addCommandHistory</text>
</a>
</g>
</g>
<!-- Node3&#45;&gt;Node4 -->
<g id="edge3" class="edge"><title>Node3&#45;&gt;Node4</title>
<path fill="none" stroke="midnightblue" d="M534.566,-600.059C574.339,-611.674 628.701,-627.55 666.112,-638.475"/>
<polygon fill="midnightblue" stroke="midnightblue" points="665.607,-641.974 676.188,-641.418 667.57,-635.255 665.607,-641.974"/>
</g>
<!-- Node5 -->
<g id="node5" class="node"><title>Node5</title>
<g id="a_node5"><a xlink:href="../../d6/dd8/classui_1_1elements_1_1_info_element.html#aa14d00daf19b5c3d7cd792c2590f23b3" target="_top" xlink:title="ui.elements.InfoElement.set\lBindCommandList">
<polygon fill="white" stroke="black" points="864.5,-691 864.5,-721 1015.5,-721 1015.5,-691 864.5,-691"/>
<text text-anchor="start" x="872.5" y="-709" font-family="Helvetica,sans-Serif" font-size="10.00">ui.elements.InfoElement.set</text>
<text text-anchor="middle" x="940" y="-698" font-family="Helvetica,sans-Serif" font-size="10.00">BindCommandList</text>
</a>
</g>
</g>
<!-- Node4&#45;&gt;Node5 -->
<g id="edge4" class="edge"><title>Node4&#45;&gt;Node5</title>
<path fill="none" stroke="midnightblue" d="M750.454,-660.517C782.278,-668.194 827.903,-679.2 866.3,-688.463"/>
<polygon fill="midnightblue" stroke="midnightblue" points="865.864,-691.958 876.406,-690.901 867.505,-685.153 865.864,-691.958"/>
</g>
<!-- Node6 -->
<g id="node6" class="node"><title>Node6</title>
<g id="a_node6"><a xlink:href="../../d6/dd8/classui_1_1elements_1_1_info_element.html#a54dbeca14ae734678154142637d3c4ab" target="_top" xlink:title="ui.elements.InfoElement.update">
<polygon fill="white" stroke="black" points="1082,-696.5 1082,-715.5 1252,-715.5 1252,-696.5 1082,-696.5"/>
<text text-anchor="middle" x="1167" y="-703.5" font-family="Helvetica,sans-Serif" font-size="10.00">ui.elements.InfoElement.update</text>
</a>
</g>
</g>
<!-- Node5&#45;&gt;Node6 -->
<g id="edge5" class="edge"><title>Node5&#45;&gt;Node6</title>
<path fill="none" stroke="midnightblue" d="M1015.61,-706C1033.61,-706 1053.07,-706 1071.84,-706"/>
<polygon fill="midnightblue" stroke="midnightblue" points="1071.88,-709.5 1081.88,-706 1071.88,-702.5 1071.88,-709.5"/>
</g>
<!-- Node8 -->
<g id="node8" class="node"><title>Node8</title>
<g id="a_node8"><a xlink:href="../../d0/d05/classparser_1_1_tree_generator.html#a6c5a626cea851fb68c59f83a27ab56a5" target="_top" xlink:title="parser.TreeGenerator.create\lHandlerMap">
<polygon fill="white" stroke="black" points="634.5,-500 634.5,-530 785.5,-530 785.5,-500 634.5,-500"/>
<text text-anchor="start" x="642.5" y="-518" font-family="Helvetica,sans-Serif" font-size="10.00">parser.TreeGenerator.create</text>
<text text-anchor="middle" x="710" y="-507" font-family="Helvetica,sans-Serif" font-size="10.00">HandlerMap</text>
</a>
</g>
</g>
<!-- Node7&#45;&gt;Node8 -->
<g id="edge7" class="edge"><title>Node7&#45;&gt;Node8</title>
<path fill="none" stroke="midnightblue" d="M557.627,-485.529C579.034,-489.697 602.527,-494.271 624.484,-498.546"/>
<polygon fill="midnightblue" stroke="midnightblue" points="623.967,-502.01 634.451,-500.486 625.304,-495.139 623.967,-502.01"/>
</g>
<!-- Node10 -->
<g id="node10" class="node"><title>Node10</title>
<g id="a_node10"><a xlink:href="../../dc/d9e/classparser_1_1_command_tree_node.html#a73e4ab6ebca47d41b993f0e66ee4c8d2" target="_top" xlink:title="parser.CommandTreeNode.getName">
<polygon fill="white" stroke="black" points="1070.5,-295.5 1070.5,-314.5 1263.5,-314.5 1263.5,-295.5 1070.5,-295.5"/>
<text text-anchor="middle" x="1167" y="-302.5" font-family="Helvetica,sans-Serif" font-size="10.00">parser.CommandTreeNode.getName</text>
</a>
</g>
</g>
<!-- Node7&#45;&gt;Node10 -->
<g id="edge9" class="edge"><title>Node7&#45;&gt;Node10</title>
<path fill="none" stroke="midnightblue" d="M510.148,-455.812C569.096,-423.724 714.126,-349.562 846,-320 916.172,-304.27 997.094,-300.603 1060,-300.827"/>
<polygon fill="midnightblue" stroke="midnightblue" points="1060.31,-304.329 1070.34,-300.899 1060.36,-297.329 1060.31,-304.329"/>
</g>
<!-- Node11 -->
<g id="node11" class="node"><title>Node11</title>
<g id="a_node11"><a xlink:href="../../d5/d30/classparser_1_1_command_case.html#a416a33e71d0a91f9d167980ff9779119" target="_top" xlink:title="parser.CommandCase.getRoot">
<polygon fill="white" stroke="black" points="628,-549.5 628,-568.5 792,-568.5 792,-549.5 628,-549.5"/>
<text text-anchor="middle" x="710" y="-556.5" font-family="Helvetica,sans-Serif" font-size="10.00">parser.CommandCase.getRoot</text>
</a>
</g>
</g>
<!-- Node7&#45;&gt;Node11 -->
<g id="edge10" class="edge"><title>Node7&#45;&gt;Node11</title>
<path fill="none" stroke="midnightblue" d="M506.374,-486.222C531.146,-501.693 571.877,-525.28 610,-539 618.817,-542.173 628.266,-544.893 637.7,-547.21"/>
<polygon fill="midnightblue" stroke="midnightblue" points="636.966,-550.633 647.498,-549.482 638.547,-543.814 636.966,-550.633"/>
</g>
<!-- Node12 -->
<g id="node12" class="node"><title>Node12</title>
<g id="a_node12"><a xlink:href="../../d5/d30/classparser_1_1_command_case.html#a309ba0623929f8d96219c98de00023b0" target="_top" xlink:title="parser.CommandCase.initialize">
<polygon fill="white" stroke="black" points="627.5,-461.5 627.5,-480.5 792.5,-480.5 792.5,-461.5 627.5,-461.5"/>
<text text-anchor="middle" x="710" y="-468.5" font-family="Helvetica,sans-Serif" font-size="10.00">parser.CommandCase.initialize</text>
</a>
</g>
</g>
<!-- Node7&#45;&gt;Node12 -->
<g id="edge11" class="edge"><title>Node7&#45;&gt;Node12</title>
<path fill="none" stroke="midnightblue" d="M557.627,-471C576.678,-471 597.38,-471 617.182,-471"/>
<polygon fill="midnightblue" stroke="midnightblue" points="617.441,-474.5 627.441,-471 617.441,-467.5 617.441,-474.5"/>
</g>
<!-- Node9 -->
<g id="node9" class="node"><title>Node9</title>
<g id="a_node9"><a xlink:href="../../d0/d22/classutil_1_1_pattern_mapper.html#a257efa051dc3d89b728922a22901fb7d" target="_top" xlink:title="util.PatternMapper.makePatterns">
<polygon fill="white" stroke="black" points="853.5,-652.5 853.5,-671.5 1026.5,-671.5 1026.5,-652.5 853.5,-652.5"/>
<text text-anchor="middle" x="940" y="-659.5" font-family="Helvetica,sans-Serif" font-size="10.00">util.PatternMapper.makePatterns</text>
</a>
</g>
</g>
<!-- Node8&#45;&gt;Node9 -->
<g id="edge8" class="edge"><title>Node8&#45;&gt;Node9</title>
<path fill="none" stroke="midnightblue" d="M785.932,-525.286C794.747,-528.888 803.058,-533.669 810,-540 845.52,-572.395 809.911,-610.241 846,-642 848.342,-644.061 850.845,-645.927 853.472,-647.615"/>
<polygon fill="midnightblue" stroke="midnightblue" points="851.789,-650.684 862.24,-652.423 855.155,-644.546 851.789,-650.684"/>
</g>
<!-- Node12&#45;&gt;Node9 -->
<g id="edge14" class="edge"><title>Node12&#45;&gt;Node9</title>
<path fill="none" stroke="midnightblue" d="M792.73,-479.281C799.07,-482.289 804.955,-486.127 810,-491 859.624,-538.931 796.676,-593.76 846,-642 847.727,-643.689 849.56,-645.25 851.481,-646.692"/>
<polygon fill="midnightblue" stroke="midnightblue" points="850.084,-649.947 860.417,-652.286 853.798,-644.013 850.084,-649.947"/>
</g>
<!-- Node13 -->
<g id="node13" class="node"><title>Node13</title>
<g id="a_node13"><a xlink:href="../../d9/dc0/interfaceparser_1_1_tree_wrapper.html#abf33b5a3ce13b389b9f69be49b18b998" target="_top" xlink:title="parser.TreeWrapper.getIndex">
<polygon fill="white" stroke="black" points="864,-329.5 864,-348.5 1016,-348.5 1016,-329.5 864,-329.5"/>
<text text-anchor="middle" x="940" y="-336.5" font-family="Helvetica,sans-Serif" font-size="10.00">parser.TreeWrapper.getIndex</text>
</a>
</g>
</g>
<!-- Node12&#45;&gt;Node13 -->
<g id="edge12" class="edge"><title>Node12&#45;&gt;Node13</title>
<path fill="none" stroke="midnightblue" d="M719.353,-461.288C738.998,-439.125 790.661,-384.679 846,-358 851.01,-355.585 856.315,-353.476 861.751,-351.635"/>
<polygon fill="midnightblue" stroke="midnightblue" points="863.107,-354.88 871.641,-348.602 861.054,-348.188 863.107,-354.88"/>
</g>
<!-- Node14 -->
<g id="node14" class="node"><title>Node14</title>
<g id="a_node14"><a xlink:href="../../d9/dc0/interfaceparser_1_1_tree_wrapper.html#a251d9d9bb7c3ea34688bfa30cc465270" target="_top" xlink:title="parser.TreeWrapper.increment\lIndex">
<polygon fill="white" stroke="black" points="860.5,-603 860.5,-633 1019.5,-633 1019.5,-603 860.5,-603"/>
<text text-anchor="start" x="868.5" y="-621" font-family="Helvetica,sans-Serif" font-size="10.00">parser.TreeWrapper.increment</text>
<text text-anchor="middle" x="940" y="-610" font-family="Helvetica,sans-Serif" font-size="10.00">Index</text>
</a>
</g>
</g>
<!-- Node12&#45;&gt;Node14 -->
<g id="edge13" class="edge"><title>Node12&#45;&gt;Node14</title>
<path fill="none" stroke="midnightblue" d="M792.68,-480.08C798.951,-482.931 804.838,-486.514 810,-491 846.287,-522.533 810.728,-560.335 846,-593 847.744,-594.615 849.581,-596.128 851.496,-597.545"/>
<polygon fill="midnightblue" stroke="midnightblue" points="850.021,-600.755 860.339,-603.164 853.775,-594.847 850.021,-600.755"/>
</g>
<!-- Node15 -->
<g id="node15" class="node"><title>Node15</title>
<g id="a_node15"><a xlink:href="../../d5/d30/classparser_1_1_command_case.html#a7c49338f11e46369db6a009f6a07a837" target="_top" xlink:title="parser.CommandCase.obtain\lNumParams">
<polygon fill="white" stroke="black" points="861.5,-554 861.5,-584 1018.5,-584 1018.5,-554 861.5,-554"/>
<text text-anchor="start" x="869.5" y="-572" font-family="Helvetica,sans-Serif" font-size="10.00">parser.CommandCase.obtain</text>
<text text-anchor="middle" x="940" y="-561" font-family="Helvetica,sans-Serif" font-size="10.00">NumParams</text>
</a>
</g>
</g>
<!-- Node12&#45;&gt;Node15 -->
<g id="edge15" class="edge"><title>Node12&#45;&gt;Node15</title>
<path fill="none" stroke="midnightblue" d="M788.76,-480.551C796.272,-483.257 803.502,-486.68 810,-491 833.713,-506.765 822.797,-527.492 846,-544 848.725,-545.938 851.591,-547.727 854.561,-549.376"/>
<polygon fill="midnightblue" stroke="midnightblue" points="853.225,-552.62 863.74,-553.92 856.331,-546.347 853.225,-552.62"/>
</g>
<!-- Node16 -->
<g id="node16" class="node"><title>Node16</title>
<g id="a_node16"><a xlink:href="../../d5/d30/classparser_1_1_command_case.html#a37b719ff1e44b8c2539ec8a3d3dec65e" target="_top" xlink:title="parser.CommandCase.obtain\lSubCommand">
<polygon fill="white" stroke="black" points="861.5,-505 861.5,-535 1018.5,-535 1018.5,-505 861.5,-505"/>
<text text-anchor="start" x="869.5" y="-523" font-family="Helvetica,sans-Serif" font-size="10.00">parser.CommandCase.obtain</text>
<text text-anchor="middle" x="940" y="-512" font-family="Helvetica,sans-Serif" font-size="10.00">SubCommand</text>
</a>
</g>
</g>
<!-- Node12&#45;&gt;Node16 -->
<g id="edge16" class="edge"><title>Node12&#45;&gt;Node16</title>
<path fill="none" stroke="midnightblue" d="M759.132,-480.505C775.312,-483.758 793.452,-487.469 810,-491 827.265,-494.684 845.799,-498.772 863.281,-502.688"/>
<polygon fill="midnightblue" stroke="midnightblue" points="862.911,-506.192 873.435,-504.97 864.446,-499.363 862.911,-506.192"/>
</g>
<!-- Node17 -->
<g id="node17" class="node"><title>Node17</title>
<g id="a_node17"><a xlink:href="../../d9/dc0/interfaceparser_1_1_tree_wrapper.html#a593548eb4ae82f686022f08f45908a1d" target="_top" xlink:title="parser.TreeWrapper.print\lTestStatements">
<polygon fill="white" stroke="black" points="874,-456 874,-486 1006,-486 1006,-456 874,-456"/>
<text text-anchor="start" x="882" y="-474" font-family="Helvetica,sans-Serif" font-size="10.00">parser.TreeWrapper.print</text>
<text text-anchor="middle" x="940" y="-463" font-family="Helvetica,sans-Serif" font-size="10.00">TestStatements</text>
</a>
</g>
</g>
<!-- Node12&#45;&gt;Node17 -->
<g id="edge17" class="edge"><title>Node12&#45;&gt;Node17</title>
<path fill="none" stroke="midnightblue" d="M792.669,-471C815.828,-471 840.927,-471 863.691,-471"/>
<polygon fill="midnightblue" stroke="midnightblue" points="863.971,-474.5 873.971,-471 863.971,-467.5 863.971,-474.5"/>
</g>
<!-- Node18 -->
<g id="node18" class="node"><title>Node18</title>
<g id="a_node18"><a xlink:href="../../d9/dc0/interfaceparser_1_1_tree_wrapper.html#a48f9f037c84b1fecfdefcb3268640f88" target="_top" xlink:title="parser.TreeWrapper.recurse">
<polygon fill="white" stroke="black" points="867,-417.5 867,-436.5 1013,-436.5 1013,-417.5 867,-417.5"/>
<text text-anchor="middle" x="940" y="-424.5" font-family="Helvetica,sans-Serif" font-size="10.00">parser.TreeWrapper.recurse</text>
</a>
</g>
</g>
<!-- Node12&#45;&gt;Node18 -->
<g id="edge18" class="edge"><title>Node12&#45;&gt;Node18</title>
<path fill="none" stroke="midnightblue" d="M760.473,-461.453C795.429,-454.707 842.456,-445.631 879.468,-438.489"/>
<polygon fill="midnightblue" stroke="midnightblue" points="880.468,-441.86 889.624,-436.529 879.142,-434.987 880.468,-441.86"/>
</g>
<!-- Node19 -->
<g id="node19" class="node"><title>Node19</title>
<g id="a_node19"><a xlink:href="../../d5/d30/classparser_1_1_command_case.html#a9afa1f06d36261ade7169970904fabee" target="_top" xlink:title="parser.CommandCase.useResource\lBundle">
<polygon fill="white" stroke="black" points="846,-368 846,-398 1034,-398 1034,-368 846,-368"/>
<text text-anchor="start" x="854" y="-386" font-family="Helvetica,sans-Serif" font-size="10.00">parser.CommandCase.useResource</text>
<text text-anchor="middle" x="940" y="-375" font-family="Helvetica,sans-Serif" font-size="10.00">Bundle</text>
</a>
</g>
</g>
<!-- Node12&#45;&gt;Node19 -->
<g id="edge19" class="edge"><title>Node12&#45;&gt;Node19</title>
<path fill="none" stroke="midnightblue" d="M728.915,-461.41C754.376,-448.068 802.747,-423.77 846,-408 852.803,-405.52 859.967,-403.163 867.174,-400.959"/>
<polygon fill="midnightblue" stroke="midnightblue" points="868.403,-404.245 876.998,-398.051 866.416,-397.533 868.403,-404.245"/>
</g>
<!-- Node21 -->
<g id="node21" class="node"><title>Node21</title>
<g id="a_node21"><a xlink:href="../../d5/d30/classparser_1_1_command_case.html#a0a36df1183543407fec197f435a5ba2c" target="_top" xlink:title="parser.CommandCase.getMethodsList">
<polygon fill="white" stroke="black" points="610,-253.5 610,-272.5 810,-272.5 810,-253.5 610,-253.5"/>
<text text-anchor="middle" x="710" y="-260.5" font-family="Helvetica,sans-Serif" font-size="10.00">parser.CommandCase.getMethodsList</text>
</a>
</g>
</g>
<!-- Node20&#45;&gt;Node21 -->
<g id="edge21" class="edge"><title>Node20&#45;&gt;Node21</title>
<path fill="none" stroke="midnightblue" d="M550.196,-264.405C565.712,-264.268 582.615,-264.118 599.417,-263.97"/>
<polygon fill="midnightblue" stroke="midnightblue" points="599.884,-267.466 609.853,-263.877 599.822,-260.466 599.884,-267.466"/>
</g>
<!-- Node24 -->
<g id="node24" class="node"><title>Node24</title>
<g id="a_node24"><a xlink:href="../../dc/d9e/classparser_1_1_command_tree_node.html#a2700486f6a49c0a080114bee6e51f271" target="_top" xlink:title="parser.CommandTreeNode.get\lChildren">
<polygon fill="white" stroke="black" points="628,-201 628,-231 792,-231 792,-201 628,-201"/>
<text text-anchor="start" x="636" y="-219" font-family="Helvetica,sans-Serif" font-size="10.00">parser.CommandTreeNode.get</text>
<text text-anchor="middle" x="710" y="-208" font-family="Helvetica,sans-Serif" font-size="10.00">Children</text>
</a>
</g>
</g>
<!-- Node23&#45;&gt;Node24 -->
<g id="edge24" class="edge"><title>Node23&#45;&gt;Node24</title>
<path fill="none" stroke="midnightblue" d="M532.039,-181.547C558.165,-186.634 591.093,-193.045 621.44,-198.953"/>
<polygon fill="midnightblue" stroke="midnightblue" points="621.134,-202.459 631.619,-200.935 622.472,-195.588 621.134,-202.459"/>
</g>
<!-- Node25 -->
<g id="node25" class="node"><title>Node25</title>
<g id="a_node25"><a xlink:href="../../dc/d9e/classparser_1_1_command_tree_node.html#a8bb8a112395f78809b0be06f1c3f5282" target="_top" xlink:title="parser.CommandTreeNode.getType">
<polygon fill="white" stroke="black" points="1074.5,-109.5 1074.5,-128.5 1259.5,-128.5 1259.5,-109.5 1074.5,-109.5"/>
<text text-anchor="middle" x="1167" y="-116.5" font-family="Helvetica,sans-Serif" font-size="10.00">parser.CommandTreeNode.getType</text>
</a>
</g>
</g>
<!-- Node23&#45;&gt;Node25 -->
<g id="edge25" class="edge"><title>Node23&#45;&gt;Node25</title>
<path fill="none" stroke="midnightblue" d="M542.029,-162.472C563.406,-159.206 587.758,-155.698 610,-153 714.577,-140.313 740.88,-137.865 846,-131 918.783,-126.247 1001.01,-123.214 1063.89,-121.386"/>
<polygon fill="midnightblue" stroke="midnightblue" points="1064.31,-124.876 1074.2,-121.092 1064.11,-117.878 1064.31,-124.876"/>
</g>
<!-- Node26 -->
<g id="node26" class="node"><title>Node26</title>
<g id="a_node26"><a xlink:href="../../d9/d88/classmodel_1_1_tree_interpreter.html#a3e460e5ebe66f781afb480f0f0ec2ce7" target="_top" xlink:title="model.TreeInterpreter.update">
<polygon fill="white" stroke="black" points="632,-162.5 632,-181.5 788,-181.5 788,-162.5 632,-162.5"/>
<text text-anchor="middle" x="710" y="-169.5" font-family="Helvetica,sans-Serif" font-size="10.00">model.TreeInterpreter.update</text>
</a>
</g>
</g>
<!-- Node23&#45;&gt;Node26 -->
<g id="edge26" class="edge"><title>Node23&#45;&gt;Node26</title>
<path fill="none" stroke="midnightblue" d="M573.621,-172C589.436,-172 605.861,-172 621.588,-172"/>
<polygon fill="midnightblue" stroke="midnightblue" points="621.809,-175.5 631.809,-172 621.809,-168.5 621.809,-175.5"/>
</g>
<!-- Node26&#45;&gt;Node10 -->
<g id="edge35" class="edge"><title>Node26&#45;&gt;Node10</title>
<path fill="none" stroke="midnightblue" d="M788.116,-180.721C795.835,-183.353 803.288,-186.715 810,-191 833.08,-205.735 822.977,-226.175 846,-241 866.841,-254.42 1008.73,-279.401 1096.43,-293.865"/>
<polygon fill="midnightblue" stroke="midnightblue" points="1095.88,-297.322 1106.32,-295.489 1097.02,-290.414 1095.88,-297.322"/>
</g>
<!-- Node26&#45;&gt;Node25 -->
<g id="edge36" class="edge"><title>Node26&#45;&gt;Node25</title>
<path fill="none" stroke="midnightblue" d="M788.185,-163.009C867.245,-153.8 990.144,-139.484 1074.16,-129.698"/>
<polygon fill="midnightblue" stroke="midnightblue" points="1074.68,-133.161 1084.21,-128.528 1073.87,-126.208 1074.68,-133.161"/>
</g>
<!-- Node27 -->
<g id="node27" class="node"><title>Node27</title>
<g id="a_node27"><a xlink:href="../../d9/d88/classmodel_1_1_tree_interpreter.html#af4d24e7867eb3a4a53f79f4a9288f9fd" target="_top" xlink:title="model.TreeInterpreter.execute\lCommand">
<polygon fill="white" stroke="black" points="859.5,-202 859.5,-232 1020.5,-232 1020.5,-202 859.5,-202"/>
<text text-anchor="start" x="867.5" y="-220" font-family="Helvetica,sans-Serif" font-size="10.00">model.TreeInterpreter.execute</text>
<text text-anchor="middle" x="940" y="-209" font-family="Helvetica,sans-Serif" font-size="10.00">Command</text>
</a>
</g>
</g>
<!-- Node26&#45;&gt;Node27 -->
<g id="edge27" class="edge"><title>Node26&#45;&gt;Node27</title>
<path fill="none" stroke="midnightblue" d="M761.127,-181.527C776.785,-184.528 794.116,-187.875 810,-191 824.48,-193.849 839.865,-196.915 854.777,-199.908"/>
<polygon fill="midnightblue" stroke="midnightblue" points="854.515,-203.425 865.009,-201.965 855.895,-196.562 854.515,-203.425"/>
</g>
<!-- Node30 -->
<g id="node30" class="node"><title>Node30</title>
<g id="a_node30"><a xlink:href="../../dc/d9e/classparser_1_1_command_tree_node.html#a3d691b68da13689c03ebd9de665c379c" target="_top" xlink:title="parser.CommandTreeNode.set\lValue">
<polygon fill="white" stroke="black" points="1085.5,-148 1085.5,-178 1248.5,-178 1248.5,-148 1085.5,-148"/>
<text text-anchor="start" x="1093.5" y="-166" font-family="Helvetica,sans-Serif" font-size="10.00">parser.CommandTreeNode.set</text>
<text text-anchor="middle" x="1167" y="-155" font-family="Helvetica,sans-Serif" font-size="10.00">Value</text>
</a>
</g>
</g>
<!-- Node26&#45;&gt;Node30 -->
<g id="edge37" class="edge"><title>Node26&#45;&gt;Node30</title>
<path fill="none" stroke="midnightblue" d="M788.185,-170.473C867.611,-168.902 991.281,-166.456 1075.32,-164.794"/>
<polygon fill="midnightblue" stroke="midnightblue" points="1075.44,-168.292 1085.37,-164.595 1075.3,-161.293 1075.44,-168.292"/>
</g>
<!-- Node31 -->
<g id="node31" class="node"><title>Node31</title>
<g id="a_node31"><a xlink:href="../../db/d55/classmodel_1_1_variable_list.html#a09697cca38c12cf837ee40e71d02f78b" target="_top" xlink:title="model.VariableList.get">
<polygon fill="white" stroke="black" points="878.5,-49.5 878.5,-68.5 1001.5,-68.5 1001.5,-49.5 878.5,-49.5"/>
<text text-anchor="middle" x="940" y="-56.5" font-family="Helvetica,sans-Serif" font-size="10.00">model.VariableList.get</text>
</a>
</g>
</g>
<!-- Node26&#45;&gt;Node31 -->
<g id="edge33" class="edge"><title>Node26&#45;&gt;Node31</title>
<path fill="none" stroke="midnightblue" d="M730.439,-162.366C770.738,-142.393 863.544,-96.3972 910.574,-73.0884"/>
<polygon fill="midnightblue" stroke="midnightblue" points="912.204,-76.1866 919.61,-68.6099 909.096,-69.9147 912.204,-76.1866"/>
</g>
<!-- Node27&#45;&gt;Node10 -->
<g id="edge30" class="edge"><title>Node27&#45;&gt;Node10</title>
<path fill="none" stroke="midnightblue" d="M1000.47,-232.106C1012.05,-236.332 1023.76,-241.577 1034,-248 1053.43,-260.196 1049.89,-273.955 1070,-285 1075.11,-287.809 1080.58,-290.224 1086.21,-292.301"/>
<polygon fill="midnightblue" stroke="midnightblue" points="1085.22,-295.659 1095.81,-295.486 1087.42,-289.015 1085.22,-295.659"/>
</g>
<!-- Node27&#45;&gt;Node25 -->
<g id="edge31" class="edge"><title>Node27&#45;&gt;Node25</title>
<path fill="none" stroke="midnightblue" d="M960.814,-201.744C985.174,-183.753 1028.42,-154.246 1070,-138 1076.8,-135.343 1084.02,-133.043 1091.33,-131.055"/>
<polygon fill="midnightblue" stroke="midnightblue" points="1092.49,-134.374 1101.32,-128.533 1090.77,-127.587 1092.49,-134.374"/>
</g>
<!-- Node28 -->
<g id="node28" class="node"><title>Node28</title>
<g id="a_node28"><a xlink:href="../../db/d10/classmodel_1_1_command_factory.html#a3982ff8b4387b7e50c9ec4350ee01733" target="_top" xlink:title="model.CommandFactory.create\lCommand">
<polygon fill="white" stroke="black" points="1083.5,-246 1083.5,-276 1250.5,-276 1250.5,-246 1083.5,-246"/>
<text text-anchor="start" x="1091.5" y="-264" font-family="Helvetica,sans-Serif" font-size="10.00">model.CommandFactory.create</text>
<text text-anchor="middle" x="1167" y="-253" font-family="Helvetica,sans-Serif" font-size="10.00">Command</text>
</a>
</g>
</g>
<!-- Node27&#45;&gt;Node28 -->
<g id="edge28" class="edge"><title>Node27&#45;&gt;Node28</title>
<path fill="none" stroke="midnightblue" d="M1017.8,-232.019C1037.61,-235.892 1059.05,-240.086 1079.32,-244.049"/>
<polygon fill="midnightblue" stroke="midnightblue" points="1078.68,-247.489 1089.16,-245.974 1080.02,-240.62 1078.68,-247.489"/>
</g>
<!-- Node29 -->
<g id="node29" class="node"><title>Node29</title>
<g id="a_node29"><a xlink:href="../../d9/d88/classmodel_1_1_tree_interpreter.html#adc0cf2c5819ec7f42db4e37db51b1893" target="_top" xlink:title="model.TreeInterpreter.get\lConstructors">
<polygon fill="white" stroke="black" points="1098,-197 1098,-227 1236,-227 1236,-197 1098,-197"/>
<text text-anchor="start" x="1106" y="-215" font-family="Helvetica,sans-Serif" font-size="10.00">model.TreeInterpreter.get</text>
<text text-anchor="middle" x="1167" y="-204" font-family="Helvetica,sans-Serif" font-size="10.00">Constructors</text>
</a>
</g>
</g>
<!-- Node27&#45;&gt;Node29 -->
<g id="edge29" class="edge"><title>Node27&#45;&gt;Node29</title>
<path fill="none" stroke="midnightblue" d="M1020.64,-215.23C1042.36,-214.748 1065.87,-214.225 1087.52,-213.744"/>
<polygon fill="midnightblue" stroke="midnightblue" points="1087.73,-217.24 1097.65,-213.519 1087.58,-210.242 1087.73,-217.24"/>
</g>
<!-- Node27&#45;&gt;Node30 -->
<g id="edge32" class="edge"><title>Node27&#45;&gt;Node30</title>
<path fill="none" stroke="midnightblue" d="M1003.68,-201.958C1031.47,-195.286 1064.36,-187.393 1093.24,-180.463"/>
<polygon fill="midnightblue" stroke="midnightblue" points="1094.36,-183.792 1103.27,-178.055 1092.73,-176.985 1094.36,-183.792"/>
</g>
<!-- Node32 -->
<g id="node32" class="node"><title>Node32</title>
<g id="a_node32"><a xlink:href="../../db/d55/classmodel_1_1_variable_list.html#a0adb554303c7191db1da43ddb5fa2c45" target="_top" xlink:title="model.VariableList.add">
<polygon fill="white" stroke="black" points="1104.5,-49.5 1104.5,-68.5 1229.5,-68.5 1229.5,-49.5 1104.5,-49.5"/>
<text text-anchor="middle" x="1167" y="-56.5" font-family="Helvetica,sans-Serif" font-size="10.00">model.VariableList.add</text>
</a>
</g>
</g>
<!-- Node31&#45;&gt;Node32 -->
<g id="edge34" class="edge"><title>Node31&#45;&gt;Node32</title>
<path fill="none" stroke="midnightblue" d="M1001.59,-59C1030,-59 1064.07,-59 1093.8,-59"/>
<polygon fill="midnightblue" stroke="midnightblue" points="1094.12,-62.5001 1104.12,-59 1094.12,-55.5001 1094.12,-62.5001"/>
</g>
<!-- Node34 -->
<g id="node34" class="node"><title>Node34</title>
<g id="a_node34"><a xlink:href="../../dc/d3b/classui_1_1_g_u_i.html#a203fbe4e50ca1066c5c0ea8cc182adc4" target="_top" xlink:title="ui.GUI.setOutputText">
<polygon fill="white" stroke="black" points="652.5,-27.5 652.5,-46.5 767.5,-46.5 767.5,-27.5 652.5,-27.5"/>
<text text-anchor="middle" x="710" y="-34.5" font-family="Helvetica,sans-Serif" font-size="10.00">ui.GUI.setOutputText</text>
</a>
</g>
</g>
<!-- Node33&#45;&gt;Node34 -->
<g id="edge39" class="edge"><title>Node33&#45;&gt;Node34</title>
<path fill="none" stroke="midnightblue" d="M526.041,-77.4777C562.917,-69.3193 616.18,-57.5354 655.737,-48.784"/>
<polygon fill="midnightblue" stroke="midnightblue" points="656.727,-52.1495 665.735,-46.5719 655.215,-45.3147 656.727,-52.1495"/>
</g>
<!-- Node35 -->
<g id="node35" class="node"><title>Node35</title>
<g id="a_node35"><a xlink:href="../../d8/d3c/classui_1_1elements_1_1_i_o_element.html#a39ffe51bb8b4ef8ad25dd48e65c92ac6" target="_top" xlink:title="ui.elements.IOElement.get\lOutputField">
<polygon fill="white" stroke="black" points="868,-0 868,-30 1012,-30 1012,-0 868,-0"/>
<text text-anchor="start" x="876" y="-18" font-family="Helvetica,sans-Serif" font-size="10.00">ui.elements.IOElement.get</text>
<text text-anchor="middle" x="940" y="-7" font-family="Helvetica,sans-Serif" font-size="10.00">OutputField</text>
</a>
</g>
</g>
<!-- Node34&#45;&gt;Node35 -->
<g id="edge40" class="edge"><title>Node34&#45;&gt;Node35</title>
<path fill="none" stroke="midnightblue" d="M767.652,-31.5335C794.905,-28.9039 828.071,-25.7037 857.937,-22.8219"/>
<polygon fill="midnightblue" stroke="midnightblue" points="858.308,-26.3025 867.925,-21.8581 857.635,-19.3348 858.308,-26.3025"/>
</g>
</g>
</svg>
        <g id="navigator" transform="translate(0 0)" fill="#404254">
                <rect fill="#f2f5e9" fill-opacity="0.5" stroke="#606060" stroke-width=".5" x="0" y="0" width="60" height="60"/>
                <use id="zoomplus" xlink:href="#zoomPlus" x="17" y="9" onmousedown="handleZoom(evt,'in')"/>
                <use id="zoomminus" xlink:href="#zoomMin" x="42" y="9" onmousedown="handleZoom(evt,'out')"/>
                <use id="reset" xlink:href="#resetDef" x="30" y="36" onmousedown="handleReset()"/>
                <g id="arrowUp" xlink:href="#dirArrow" transform="translate(30 24)" onmousedown="handlePan(0,-1)">
                  <use xlink:href="#rim" fill="#404040">
                        <set attributeName="fill" to="#808080" begin="arrowUp.mouseover" end="arrowUp.mouseout"/>
                  </use>
                  <path fill="none" stroke="white" stroke-width="1.5" d="M0,-3.0v7 M-2.5,-0.5L0,-3.0L2.5,-0.5"/>
                </g>
                <g id="arrowRight" xlink:href="#dirArrow" transform="rotate(90) translate(36 -43)" onmousedown="handlePan(1,0)">
                  <use xlink:href="#rim" fill="#404040">
                        <set attributeName="fill" to="#808080" begin="arrowRight.mouseover" end="arrowRight.mouseout"/>
                  </use>
                  <path fill="none" stroke="white" stroke-width="1.5" d="M0,-3.0v7 M-2.5,-0.5L0,-3.0L2.5,-0.5"/>
                </g>
                <g id="arrowDown" xlink:href="#dirArrow" transform="rotate(180) translate(-30 -48)" onmousedown="handlePan(0,1)">
                  <use xlink:href="#rim" fill="#404040">
                        <set attributeName="fill" to="#808080" begin="arrowDown.mouseover" end="arrowDown.mouseout"/>
                  </use>
                  <path fill="none" stroke="white" stroke-width="1.5" d="M0,-3.0v7 M-2.5,-0.5L0,-3.0L2.5,-0.5"/>
                </g>
                <g id="arrowLeft" xlink:href="#dirArrow" transform="rotate(270) translate(-36 17)" onmousedown="handlePan(-1,0)">
                  <use xlink:href="#rim" fill="#404040">
                        <set attributeName="fill" to="#808080" begin="arrowLeft.mouseover" end="arrowLeft.mouseout"/>
                  </use>
                  <path fill="none" stroke="white" stroke-width="1.5" d="M0,-3.0v7 M-2.5,-0.5L0,-3.0L2.5,-0.5"/>
                </g>
        </g>
        <svg viewBox="0 0 15 15" width="100%" height="30px" preserveAspectRatio="xMaxYMin meet">
         <g id="arrow_out" transform="scale(0.3 0.3)">
          <a xlink:href="classui_1_1_scene_updater_ab77a04f8b0038429b09237aac18906e8_cgraph_org.svg" target="_base">
           <rect id="button" ry="5" rx="5" y="6" x="6" height="38" width="38"
                fill="#f2f5e9" fill-opacity="0.5" stroke="#606060" stroke-width="1.0"/>
           <path id="arrow"
             d="M 11.500037,31.436501 C 11.940474,20.09759 22.043105,11.32322 32.158766,21.979434 L 37.068811,17.246167 C 37.068811,17.246167 37.088388,32 37.088388,32 L 22.160133,31.978069 C 22.160133,31.978069 26.997745,27.140456 26.997745,27.140456 C 18.528582,18.264221 13.291696,25.230495 11.500037,31.436501 z"
             style="fill:#404040;"/>
          </a>
         </g>
        </svg>
</svg>
