<?xml version="1.0" encoding="UTF-8" standalone="no"?>
<!DOCTYPE svg PUBLIC "-//W3C//DTD SVG 1.1//EN"
 "http://www.w3.org/Graphics/SVG/1.1/DTD/svg11.dtd">
<!-- Generated by graphviz version 2.36.0 (20140111.2315)
 -->
<!-- Title: ui.SceneUpdater.addCommandHistory Pages: 1 -->
<svg width="2878pt" height="123pt"
 viewBox="0.00 0.00 2878.00 123.00" xmlns="http://www.w3.org/2000/svg" xmlns:xlink="http://www.w3.org/1999/xlink">
<g id="graph0" class="graph" transform="scale(1 1) rotate(0) translate(4 119)">
<title>ui.SceneUpdater.addCommandHistory</title>
<polygon fill="white" stroke="none" points="-4,4 -4,-119 2874,-119 2874,4 -4,4"/>
<!-- Node1 -->
<g id="node1" class="node"><title>Node1</title>
<polygon fill="#bfbfbf" stroke="black" points="0.5,-60 0.5,-90 167.5,-90 167.5,-60 0.5,-60"/>
<text text-anchor="start" x="8.5" y="-78" font-family="Helvetica,sans-Serif" font-size="10.00">ui.SceneUpdater.addCommand</text>
<text text-anchor="middle" x="84" y="-67" font-family="Helvetica,sans-Serif" font-size="10.00">History</text>
</g>
<!-- Node2 -->
<g id="node2" class="node"><title>Node2</title>
<g id="a_node2"><a xlink:href="../../d9/df7/classcontroller_1_1_controller.html#a2dc441a48a86dce731d5bb2dd76b3381" target="_top" xlink:title="controller.Controller.add\lCommandHistory">
<polygon fill="white" stroke="black" points="208.5,-85 208.5,-115 339.5,-115 339.5,-85 208.5,-85"/>
<text text-anchor="start" x="216.5" y="-103" font-family="Helvetica,sans-Serif" font-size="10.00">controller.Controller.add</text>
<text text-anchor="middle" x="274" y="-92" font-family="Helvetica,sans-Serif" font-size="10.00">CommandHistory</text>
</a>
</g>
</g>
<!-- Node1&#45;&gt;Node2 -->
<g id="edge1" class="edge"><title>Node1&#45;&gt;Node2</title>
<path fill="none" stroke="midnightblue" d="M177.65,-87.3205C188.018,-88.6992 198.408,-90.0808 208.314,-91.3982"/>
<polygon fill="midnightblue" stroke="midnightblue" points="178.107,-83.8506 167.733,-86.0017 177.184,-90.7895 178.107,-83.8506"/>
</g>
<!-- Node3 -->
<g id="node3" class="node"><title>Node3</title>
<g id="a_node3"><a xlink:href="../../d9/df7/classcontroller_1_1_controller.html#a3d81fb1a57114f96fb6c319f4c5df370" target="_top" xlink:title="controller.Controller.parse\lCommand">
<polygon fill="white" stroke="black" points="204,-36 204,-66 344,-66 344,-36 204,-36"/>
<text text-anchor="start" x="212" y="-54" font-family="Helvetica,sans-Serif" font-size="10.00">controller.Controller.parse</text>
<text text-anchor="middle" x="274" y="-43" font-family="Helvetica,sans-Serif" font-size="10.00">Command</text>
</a>
</g>
</g>
<!-- Node1&#45;&gt;Node3 -->
<g id="edge2" class="edge"><title>Node1&#45;&gt;Node3</title>
<path fill="none" stroke="midnightblue" d="M177.915,-63.1385C186.609,-62.0287 195.314,-60.9173 203.735,-59.8423"/>
<polygon fill="midnightblue" stroke="midnightblue" points="177.209,-59.7001 167.733,-64.4383 178.096,-66.6437 177.209,-59.7001"/>
</g>
<!-- Node4 -->
<g id="node4" class="node"><title>Node4</title>
<g id="a_node4"><a xlink:href="../../d5/d06/classui_1_1_scene_updater.html#ab77a04f8b0038429b09237aac18906e8" target="_top" xlink:title="ui.SceneUpdater.sendCommands">
<polygon fill="white" stroke="black" points="380,-41.5 380,-60.5 558,-60.5 558,-41.5 380,-41.5"/>
<text text-anchor="middle" x="469" y="-48.5" font-family="Helvetica,sans-Serif" font-size="10.00">ui.SceneUpdater.sendCommands</text>
</a>
</g>
</g>
<!-- Node3&#45;&gt;Node4 -->
<g id="edge3" class="edge"><title>Node3&#45;&gt;Node4</title>
<path fill="none" stroke="midnightblue" d="M354.294,-51C362.713,-51 371.313,-51 379.825,-51"/>
<polygon fill="midnightblue" stroke="midnightblue" points="354.132,-47.5001 344.132,-51 354.132,-54.5001 354.132,-47.5001"/>
</g>
<!-- Node5 -->
<g id="node5" class="node"><title>Node5</title>
<g id="a_node5"><a xlink:href="../../dc/d3b/classui_1_1_g_u_i.html#ad8f08a79a20a498bcaafdc7e2e2ce0a9" target="_top" xlink:title="ui.GUI.parseCommand">
<polygon fill="white" stroke="black" points="594.5,-41.5 594.5,-60.5 719.5,-60.5 719.5,-41.5 594.5,-41.5"/>
<text text-anchor="middle" x="657" y="-48.5" font-family="Helvetica,sans-Serif" font-size="10.00">ui.GUI.parseCommand</text>
</a>
</g>
</g>
<!-- Node4&#45;&gt;Node5 -->
<g id="edge4" class="edge"><title>Node4&#45;&gt;Node5</title>
<path fill="none" stroke="midnightblue" d="M568.196,-51C577.132,-51 586.003,-51 594.479,-51"/>
<polygon fill="midnightblue" stroke="midnightblue" points="568.098,-47.5001 558.098,-51 568.098,-54.5001 568.098,-47.5001"/>
</g>
<!-- Node6 -->
<g id="node6" class="node"><title>Node6</title>
<g id="a_node6"><a xlink:href="../../d8/d3c/classui_1_1elements_1_1_i_o_element.html#a139a046f0c771f86696f2eee04047c64" target="_top" xlink:title="ui.elements.IOElement.init">
<polygon fill="white" stroke="black" points="772.5,-60.5 772.5,-79.5 915.5,-79.5 915.5,-60.5 772.5,-60.5"/>
<text text-anchor="middle" x="844" y="-67.5" font-family="Helvetica,sans-Serif" font-size="10.00">ui.elements.IOElement.init</text>
</a>
</g>
</g>
<!-- Node5&#45;&gt;Node6 -->
<g id="edge5" class="edge"><title>Node5&#45;&gt;Node6</title>
<path fill="none" stroke="midnightblue" d="M729.677,-58.3614C743.703,-59.8019 758.403,-61.3116 772.393,-62.7485"/>
<polygon fill="midnightblue" stroke="midnightblue" points="729.908,-54.8668 719.602,-57.3267 729.192,-61.8302 729.908,-54.8668"/>
</g>
<!-- Node8 -->
<g id="node8" class="node"><title>Node8</title>
<g id="a_node8"><a xlink:href="../../dc/d3b/classui_1_1_g_u_i.html#ab8ec2a37b3d5bd9e8c2abbb3642fb965" target="_top" xlink:title="ui.GUI.setupKeyboardCommands">
<polygon fill="white" stroke="black" points="756.5,-22.5 756.5,-41.5 931.5,-41.5 931.5,-22.5 756.5,-22.5"/>
<text text-anchor="middle" x="844" y="-29.5" font-family="Helvetica,sans-Serif" font-size="10.00">ui.GUI.setupKeyboardCommands</text>
</a>
</g>
</g>
<!-- Node5&#45;&gt;Node8 -->
<g id="edge7" class="edge"><title>Node5&#45;&gt;Node8</title>
<path fill="none" stroke="midnightblue" d="M729.694,-43.6368C738.41,-42.7417 747.385,-41.8199 756.289,-40.9054"/>
<polygon fill="midnightblue" stroke="midnightblue" points="729.192,-40.1698 719.602,-44.6733 729.908,-47.1332 729.192,-40.1698"/>
</g>
<!-- Node7 -->
<g id="node7" class="node"><title>Node7</title>
<g id="a_node7"><a xlink:href="../../d8/d3c/classui_1_1elements_1_1_i_o_element.html#a556e1a3ad292fe3ab731065eef59b187" target="_top" xlink:title="ui.elements.IOElement.IOElement">
<polygon fill="white" stroke="black" points="968,-60.5 968,-79.5 1146,-79.5 1146,-60.5 968,-60.5"/>
<text text-anchor="middle" x="1057" y="-67.5" font-family="Helvetica,sans-Serif" font-size="10.00">ui.elements.IOElement.IOElement</text>
</a>
</g>
</g>
<!-- Node6&#45;&gt;Node7 -->
<g id="edge6" class="edge"><title>Node6&#45;&gt;Node7</title>
<path fill="none" stroke="midnightblue" d="M925.922,-70C939.652,-70 953.971,-70 967.876,-70"/>
<polygon fill="midnightblue" stroke="midnightblue" points="925.553,-66.5001 915.553,-70 925.553,-73.5001 925.553,-66.5001"/>
</g>
<!-- Node9 -->
<g id="node9" class="node"><title>Node9</title>
<g id="a_node9"><a xlink:href="../../dc/d3b/classui_1_1_g_u_i.html#a765d554102f38969231261686f2f8e27" target="_top" xlink:title="ui.GUI.initialize">
<polygon fill="white" stroke="black" points="1014,-22.5 1014,-41.5 1100,-41.5 1100,-22.5 1014,-22.5"/>
<text text-anchor="middle" x="1057" y="-29.5" font-family="Helvetica,sans-Serif" font-size="10.00">ui.GUI.initialize</text>
</a>
</g>
</g>
<!-- Node8&#45;&gt;Node9 -->
<g id="edge8" class="edge"><title>Node8&#45;&gt;Node9</title>
<path fill="none" stroke="midnightblue" d="M941.748,-32C967.016,-32 992.959,-32 1013.72,-32"/>
<polygon fill="midnightblue" stroke="midnightblue" points="941.735,-28.5001 931.735,-32 941.735,-35.5001 941.735,-28.5001"/>
</g>
<!-- Node10 -->
<g id="node10" class="node"><title>Node10</title>
<g id="a_node10"><a xlink:href="../../d5/d06/classui_1_1_scene_updater.html#aeef5dd7a8ec2ad6179e33fdd71ea90d6" target="_top" xlink:title="ui.SceneUpdater.initGUI">
<polygon fill="white" stroke="black" points="1182.5,-22.5 1182.5,-41.5 1313.5,-41.5 1313.5,-22.5 1182.5,-22.5"/>
<text text-anchor="middle" x="1248" y="-29.5" font-family="Helvetica,sans-Serif" font-size="10.00">ui.SceneUpdater.initGUI</text>
</a>
</g>
</g>
<!-- Node9&#45;&gt;Node10 -->
<g id="edge9" class="edge"><title>Node9&#45;&gt;Node10</title>
<path fill="none" stroke="midnightblue" d="M1110.67,-32C1132.92,-32 1159.05,-32 1182.45,-32"/>
<polygon fill="midnightblue" stroke="midnightblue" points="1110.42,-28.5001 1100.42,-32 1110.42,-35.5001 1110.42,-28.5001"/>
</g>
<!-- Node11 -->
<g id="node11" class="node"><title>Node11</title>
<g id="a_node11"><a xlink:href="../../d9/df7/classcontroller_1_1_controller.html#a57e42ba83ee2145e6262cd72eac59570" target="_top" xlink:title="controller.Controller.init">
<polygon fill="white" stroke="black" points="1350.5,-22.5 1350.5,-41.5 1477.5,-41.5 1477.5,-22.5 1350.5,-22.5"/>
<text text-anchor="middle" x="1414" y="-29.5" font-family="Helvetica,sans-Serif" font-size="10.00">controller.Controller.init</text>
</a>
</g>
</g>
<!-- Node10&#45;&gt;Node11 -->
<g id="edge10" class="edge"><title>Node10&#45;&gt;Node11</title>
<path fill="none" stroke="midnightblue" d="M1324.04,-32C1332.81,-32 1341.68,-32 1350.26,-32"/>
<polygon fill="midnightblue" stroke="midnightblue" points="1323.82,-28.5001 1313.82,-32 1323.82,-35.5001 1323.82,-28.5001"/>
</g>
<!-- Node12 -->
<g id="node12" class="node"><title>Node12</title>
<g id="a_node12"><a xlink:href="../../dd/df2/classmain_1_1_workspace_manager.html#abc818b59211f6e14940b86a42bb868d0" target="_top" xlink:title="main.WorkspaceManager.create\lWorkspace">
<polygon fill="white" stroke="black" points="1514,-17 1514,-47 1684,-47 1684,-17 1514,-17"/>
<text text-anchor="start" x="1522" y="-35" font-family="Helvetica,sans-Serif" font-size="10.00">main.WorkspaceManager.create</text>
<text text-anchor="middle" x="1599" y="-24" font-family="Helvetica,sans-Serif" font-size="10.00">Workspace</text>
</a>
</g>
</g>
<!-- Node11&#45;&gt;Node12 -->
<g id="edge11" class="edge"><title>Node11&#45;&gt;Node12</title>
<path fill="none" stroke="midnightblue" d="M1487.92,-32C1496.39,-32 1505.08,-32 1513.69,-32"/>
<polygon fill="midnightblue" stroke="midnightblue" points="1487.72,-28.5001 1477.72,-32 1487.72,-35.5001 1487.72,-28.5001"/>
</g>
<!-- Node13 -->
<g id="node13" class="node"><title>Node13</title>
<g id="a_node13"><a xlink:href="../../d9/df7/classcontroller_1_1_controller.html#a3a9d672bb57047df70945ad1a9582c9a" target="_top" xlink:title="controller.Controller.create\lNewWorkspace">
<polygon fill="white" stroke="black" points="1720.5,-39 1720.5,-69 1863.5,-69 1863.5,-39 1720.5,-39"/>
<text text-anchor="start" x="1728.5" y="-57" font-family="Helvetica,sans-Serif" font-size="10.00">controller.Controller.create</text>
<text text-anchor="middle" x="1792" y="-46" font-family="Helvetica,sans-Serif" font-size="10.00">NewWorkspace</text>
</a>
</g>
</g>
<!-- Node12&#45;&gt;Node13 -->
<g id="edge12" class="edge"><title>Node12&#45;&gt;Node13</title>
<path fill="none" stroke="midnightblue" d="M1694.03,-42.8303C1702.88,-43.8503 1711.75,-44.8721 1720.34,-45.8608"/>
<polygon fill="midnightblue" stroke="midnightblue" points="1694.39,-39.3489 1684.05,-41.6815 1693.59,-46.3029 1694.39,-39.3489"/>
</g>
<!-- Node19 -->
<g id="node19" class="node"><title>Node19</title>
<g id="a_node19"><a xlink:href="../../d1/d0b/classmain_1_1_main.html#a9f1e5657b2f6f9bdd69a3b6412ceda74" target="_top" xlink:title="main.Main.start">
<polygon fill="white" stroke="black" points="1746,-0.5 1746,-19.5 1838,-19.5 1838,-0.5 1746,-0.5"/>
<text text-anchor="middle" x="1792" y="-7.5" font-family="Helvetica,sans-Serif" font-size="10.00">main.Main.start</text>
</a>
</g>
</g>
<!-- Node12&#45;&gt;Node19 -->
<g id="edge18" class="edge"><title>Node12&#45;&gt;Node19</title>
<path fill="none" stroke="midnightblue" d="M1694.09,-21.1629C1712.19,-19.0779 1730.36,-16.9851 1745.99,-15.1843"/>
<polygon fill="midnightblue" stroke="midnightblue" points="1693.59,-17.6971 1684.05,-22.3185 1694.39,-24.6511 1693.59,-17.6971"/>
</g>
<!-- Node14 -->
<g id="node14" class="node"><title>Node14</title>
<g id="a_node14"><a xlink:href="../../d5/d06/classui_1_1_scene_updater.html#a2858ad8edb0c0f59a21e2ae015f2fa1e" target="_top" xlink:title="ui.SceneUpdater.createNew\lWorkspace">
<polygon fill="white" stroke="black" points="1900,-39 1900,-69 2050,-69 2050,-39 1900,-39"/>
<text text-anchor="start" x="1908" y="-57" font-family="Helvetica,sans-Serif" font-size="10.00">ui.SceneUpdater.createNew</text>
<text text-anchor="middle" x="1975" y="-46" font-family="Helvetica,sans-Serif" font-size="10.00">Workspace</text>
</a>
</g>
</g>
<!-- Node13&#45;&gt;Node14 -->
<g id="edge13" class="edge"><title>Node13&#45;&gt;Node14</title>
<path fill="none" stroke="midnightblue" d="M1873.8,-54C1882.43,-54 1891.17,-54 1899.71,-54"/>
<polygon fill="midnightblue" stroke="midnightblue" points="1873.76,-50.5001 1863.76,-54 1873.76,-57.5001 1873.76,-50.5001"/>
</g>
<!-- Node15 -->
<g id="node15" class="node"><title>Node15</title>
<g id="a_node15"><a xlink:href="../../dc/d3b/classui_1_1_g_u_i.html#a2edc294ba07311e6c4b85c9fe749d1bf" target="_top" xlink:title="ui.GUI.createNewWorkspace">
<polygon fill="white" stroke="black" points="2086,-44.5 2086,-63.5 2236,-63.5 2236,-44.5 2086,-44.5"/>
<text text-anchor="middle" x="2161" y="-51.5" font-family="Helvetica,sans-Serif" font-size="10.00">ui.GUI.createNewWorkspace</text>
</a>
</g>
</g>
<!-- Node14&#45;&gt;Node15 -->
<g id="edge14" class="edge"><title>Node14&#45;&gt;Node15</title>
<path fill="none" stroke="midnightblue" d="M2060.07,-54C2068.65,-54 2077.34,-54 2085.81,-54"/>
<polygon fill="midnightblue" stroke="midnightblue" points="2060.04,-50.5001 2050.04,-54 2060.04,-57.5001 2060.04,-50.5001"/>
</g>
<!-- Node16 -->
<g id="node16" class="node"><title>Node16</title>
<g id="a_node16"><a xlink:href="../../d0/de6/classui_1_1elements_1_1_menu_bar_element.html#a98c13995a31d997aa10f2950583da6cc" target="_top" xlink:title="ui.elements.MenuBarElement.make\lMenuBar">
<polygon fill="white" stroke="black" points="2272,-39 2272,-69 2460,-69 2460,-39 2272,-39"/>
<text text-anchor="start" x="2280" y="-57" font-family="Helvetica,sans-Serif" font-size="10.00">ui.elements.MenuBarElement.make</text>
<text text-anchor="middle" x="2366" y="-46" font-family="Helvetica,sans-Serif" font-size="10.00">MenuBar</text>
</a>
</g>
</g>
<!-- Node15&#45;&gt;Node16 -->
<g id="edge15" class="edge"><title>Node15&#45;&gt;Node16</title>
<path fill="none" stroke="midnightblue" d="M2246.28,-54C2254.66,-54 2263.21,-54 2271.68,-54"/>
<polygon fill="midnightblue" stroke="midnightblue" points="2246.15,-50.5001 2236.15,-54 2246.15,-57.5001 2246.15,-50.5001"/>
</g>
<!-- Node17 -->
<g id="node17" class="node"><title>Node17</title>
<g id="a_node17"><a xlink:href="../../d0/de6/classui_1_1elements_1_1_menu_bar_element.html#a7bdb58f78cf8b61ba28498c5c86ab682" target="_top" xlink:title="ui.elements.MenuBarElement.init">
<polygon fill="white" stroke="black" points="2496,-44.5 2496,-63.5 2672,-63.5 2672,-44.5 2496,-44.5"/>
<text text-anchor="middle" x="2584" y="-51.5" font-family="Helvetica,sans-Serif" font-size="10.00">ui.elements.MenuBarElement.init</text>
</a>
</g>
</g>
<!-- Node16&#45;&gt;Node17 -->
<g id="edge16" class="edge"><title>Node16&#45;&gt;Node17</title>
<path fill="none" stroke="midnightblue" d="M2470.23,-54C2478.83,-54 2487.48,-54 2495.94,-54"/>
<polygon fill="midnightblue" stroke="midnightblue" points="2470.17,-50.5001 2460.17,-54 2470.17,-57.5001 2470.17,-50.5001"/>
</g>
<!-- Node18 -->
<g id="node18" class="node"><title>Node18</title>
<g id="a_node18"><a xlink:href="../../d0/de6/classui_1_1elements_1_1_menu_bar_element.html#ab4a4e6841c924a9d9c70b8073b56dffc" target="_top" xlink:title="ui.elements.MenuBarElement.\lMenuBarElement">
<polygon fill="white" stroke="black" points="2708.5,-39 2708.5,-69 2869.5,-69 2869.5,-39 2708.5,-39"/>
<text text-anchor="start" x="2716.5" y="-57" font-family="Helvetica,sans-Serif" font-size="10.00">ui.elements.MenuBarElement.</text>
<text text-anchor="middle" x="2789" y="-46" font-family="Helvetica,sans-Serif" font-size="10.00">MenuBarElement</text>
</a>
</g>
</g>
<!-- Node17&#45;&gt;Node18 -->
<g id="edge17" class="edge"><title>Node17&#45;&gt;Node18</title>
<path fill="none" stroke="midnightblue" d="M2682.47,-54C2691.19,-54 2699.95,-54 2708.5,-54"/>
<polygon fill="midnightblue" stroke="midnightblue" points="2682.27,-50.5001 2672.27,-54 2682.27,-57.5001 2682.27,-50.5001"/>
</g>
</g>
</svg>
