<?xml version="1.0" encoding="UTF-8" standalone="no"?>
<!DOCTYPE svg PUBLIC "-//W3C//DTD SVG 1.1//EN"
 "http://www.w3.org/Graphics/SVG/1.1/DTD/svg11.dtd">
<!-- Generated by graphviz version 2.36.0 (20140111.2315)
 -->
<!-- Title: ui.SceneUpdater.initGUI Pages: 1 -->
<svg width="1696pt" height="77pt"
 viewBox="0.00 0.00 1696.00 77.00" xmlns="http://www.w3.org/2000/svg" xmlns:xlink="http://www.w3.org/1999/xlink">
<g id="graph0" class="graph" transform="scale(1 1) rotate(0) translate(4 73)">
<title>ui.SceneUpdater.initGUI</title>
<polygon fill="white" stroke="none" points="-4,4 -4,-73 1692,-73 1692,4 -4,4"/>
<!-- Node1 -->
<g id="node1" class="node"><title>Node1</title>
<polygon fill="#bfbfbf" stroke="black" points="0.5,-22.5 0.5,-41.5 131.5,-41.5 131.5,-22.5 0.5,-22.5"/>
<text text-anchor="middle" x="66" y="-29.5" font-family="Helvetica,sans-Serif" font-size="10.00">ui.SceneUpdater.initGUI</text>
</g>
<!-- Node2 -->
<g id="node2" class="node"><title>Node2</title>
<g id="a_node2"><a xlink:href="../../d9/df7/classcontroller_1_1_controller.html#a57e42ba83ee2145e6262cd72eac59570" target="_top" xlink:title="controller.Controller.init">
<polygon fill="white" stroke="black" points="168.5,-22.5 168.5,-41.5 295.5,-41.5 295.5,-22.5 168.5,-22.5"/>
<text text-anchor="middle" x="232" y="-29.5" font-family="Helvetica,sans-Serif" font-size="10.00">controller.Controller.init</text>
</a>
</g>
</g>
<!-- Node1&#45;&gt;Node2 -->
<g id="edge1" class="edge"><title>Node1&#45;&gt;Node2</title>
<path fill="none" stroke="midnightblue" d="M142.038,-32C150.806,-32 159.682,-32 168.26,-32"/>
<polygon fill="midnightblue" stroke="midnightblue" points="141.817,-28.5001 131.817,-32 141.817,-35.5001 141.817,-28.5001"/>
</g>
<!-- Node3 -->
<g id="node3" class="node"><title>Node3</title>
<g id="a_node3"><a xlink:href="../../dd/df2/classmain_1_1_workspace_manager.html#abc818b59211f6e14940b86a42bb868d0" target="_top" xlink:title="main.WorkspaceManager.create\lWorkspace">
<polygon fill="white" stroke="black" points="332,-17 332,-47 502,-47 502,-17 332,-17"/>
<text text-anchor="start" x="340" y="-35" font-family="Helvetica,sans-Serif" font-size="10.00">main.WorkspaceManager.create</text>
<text text-anchor="middle" x="417" y="-24" font-family="Helvetica,sans-Serif" font-size="10.00">Workspace</text>
</a>
</g>
</g>
<!-- Node2&#45;&gt;Node3 -->
<g id="edge2" class="edge"><title>Node2&#45;&gt;Node3</title>
<path fill="none" stroke="midnightblue" d="M305.923,-32C314.392,-32 323.083,-32 331.689,-32"/>
<polygon fill="midnightblue" stroke="midnightblue" points="305.722,-28.5001 295.722,-32 305.722,-35.5001 305.722,-28.5001"/>
</g>
<!-- Node4 -->
<g id="node4" class="node"><title>Node4</title>
<g id="a_node4"><a xlink:href="../../d9/df7/classcontroller_1_1_controller.html#a3a9d672bb57047df70945ad1a9582c9a" target="_top" xlink:title="controller.Controller.create\lNewWorkspace">
<polygon fill="white" stroke="black" points="538.5,-39 538.5,-69 681.5,-69 681.5,-39 538.5,-39"/>
<text text-anchor="start" x="546.5" y="-57" font-family="Helvetica,sans-Serif" font-size="10.00">controller.Controller.create</text>
<text text-anchor="middle" x="610" y="-46" font-family="Helvetica,sans-Serif" font-size="10.00">NewWorkspace</text>
</a>
</g>
</g>
<!-- Node3&#45;&gt;Node4 -->
<g id="edge3" class="edge"><title>Node3&#45;&gt;Node4</title>
<path fill="none" stroke="midnightblue" d="M512.027,-42.8303C520.882,-43.8503 529.753,-44.8721 538.337,-45.8608"/>
<polygon fill="midnightblue" stroke="midnightblue" points="512.388,-39.3489 502.053,-41.6815 511.587,-46.3029 512.388,-39.3489"/>
</g>
<!-- Node10 -->
<g id="node10" class="node"><title>Node10</title>
<g id="a_node10"><a xlink:href="../../d1/d0b/classmain_1_1_main.html#a9f1e5657b2f6f9bdd69a3b6412ceda74" target="_top" xlink:title="main.Main.start">
<polygon fill="white" stroke="black" points="564,-0.5 564,-19.5 656,-19.5 656,-0.5 564,-0.5"/>
<text text-anchor="middle" x="610" y="-7.5" font-family="Helvetica,sans-Serif" font-size="10.00">main.Main.start</text>
</a>
</g>
</g>
<!-- Node3&#45;&gt;Node10 -->
<g id="edge9" class="edge"><title>Node3&#45;&gt;Node10</title>
<path fill="none" stroke="midnightblue" d="M512.086,-21.1629C530.187,-19.0779 548.356,-16.9851 563.991,-15.1843"/>
<polygon fill="midnightblue" stroke="midnightblue" points="511.587,-17.6971 502.053,-22.3185 512.388,-24.6511 511.587,-17.6971"/>
</g>
<!-- Node5 -->
<g id="node5" class="node"><title>Node5</title>
<g id="a_node5"><a xlink:href="../../d5/d06/classui_1_1_scene_updater.html#a2858ad8edb0c0f59a21e2ae015f2fa1e" target="_top" xlink:title="ui.SceneUpdater.createNew\lWorkspace">
<polygon fill="white" stroke="black" points="718,-39 718,-69 868,-69 868,-39 718,-39"/>
<text text-anchor="start" x="726" y="-57" font-family="Helvetica,sans-Serif" font-size="10.00">ui.SceneUpdater.createNew</text>
<text text-anchor="middle" x="793" y="-46" font-family="Helvetica,sans-Serif" font-size="10.00">Workspace</text>
</a>
</g>
</g>
<!-- Node4&#45;&gt;Node5 -->
<g id="edge4" class="edge"><title>Node4&#45;&gt;Node5</title>
<path fill="none" stroke="midnightblue" d="M691.805,-54C700.427,-54 709.168,-54 717.71,-54"/>
<polygon fill="midnightblue" stroke="midnightblue" points="691.757,-50.5001 681.757,-54 691.757,-57.5001 691.757,-50.5001"/>
</g>
<!-- Node6 -->
<g id="node6" class="node"><title>Node6</title>
<g id="a_node6"><a xlink:href="../../dc/d3b/classui_1_1_g_u_i.html#a2edc294ba07311e6c4b85c9fe749d1bf" target="_top" xlink:title="ui.GUI.createNewWorkspace">
<polygon fill="white" stroke="black" points="904,-44.5 904,-63.5 1054,-63.5 1054,-44.5 904,-44.5"/>
<text text-anchor="middle" x="979" y="-51.5" font-family="Helvetica,sans-Serif" font-size="10.00">ui.GUI.createNewWorkspace</text>
</a>
</g>
</g>
<!-- Node5&#45;&gt;Node6 -->
<g id="edge5" class="edge"><title>Node5&#45;&gt;Node6</title>
<path fill="none" stroke="midnightblue" d="M878.066,-54C886.654,-54 895.336,-54 903.808,-54"/>
<polygon fill="midnightblue" stroke="midnightblue" points="878.045,-50.5001 868.044,-54 878.044,-57.5001 878.045,-50.5001"/>
</g>
<!-- Node7 -->
<g id="node7" class="node"><title>Node7</title>
<g id="a_node7"><a xlink:href="../../d0/de6/classui_1_1elements_1_1_menu_bar_element.html#a98c13995a31d997aa10f2950583da6cc" target="_top" xlink:title="ui.elements.MenuBarElement.make\lMenuBar">
<polygon fill="white" stroke="black" points="1090,-39 1090,-69 1278,-69 1278,-39 1090,-39"/>
<text text-anchor="start" x="1098" y="-57" font-family="Helvetica,sans-Serif" font-size="10.00">ui.elements.MenuBarElement.make</text>
<text text-anchor="middle" x="1184" y="-46" font-family="Helvetica,sans-Serif" font-size="10.00">MenuBar</text>
</a>
</g>
</g>
<!-- Node6&#45;&gt;Node7 -->
<g id="edge6" class="edge"><title>Node6&#45;&gt;Node7</title>
<path fill="none" stroke="midnightblue" d="M1064.28,-54C1072.66,-54 1081.21,-54 1089.68,-54"/>
<polygon fill="midnightblue" stroke="midnightblue" points="1064.15,-50.5001 1054.15,-54 1064.15,-57.5001 1064.15,-50.5001"/>
</g>
<!-- Node8 -->
<g id="node8" class="node"><title>Node8</title>
<g id="a_node8"><a xlink:href="../../d0/de6/classui_1_1elements_1_1_menu_bar_element.html#a7bdb58f78cf8b61ba28498c5c86ab682" target="_top" xlink:title="ui.elements.MenuBarElement.init">
<polygon fill="white" stroke="black" points="1314,-44.5 1314,-63.5 1490,-63.5 1490,-44.5 1314,-44.5"/>
<text text-anchor="middle" x="1402" y="-51.5" font-family="Helvetica,sans-Serif" font-size="10.00">ui.elements.MenuBarElement.init</text>
</a>
</g>
</g>
<!-- Node7&#45;&gt;Node8 -->
<g id="edge7" class="edge"><title>Node7&#45;&gt;Node8</title>
<path fill="none" stroke="midnightblue" d="M1288.23,-54C1296.83,-54 1305.48,-54 1313.94,-54"/>
<polygon fill="midnightblue" stroke="midnightblue" points="1288.17,-50.5001 1278.17,-54 1288.17,-57.5001 1288.17,-50.5001"/>
</g>
<!-- Node9 -->
<g id="node9" class="node"><title>Node9</title>
<g id="a_node9"><a xlink:href="../../d0/de6/classui_1_1elements_1_1_menu_bar_element.html#ab4a4e6841c924a9d9c70b8073b56dffc" target="_top" xlink:title="ui.elements.MenuBarElement.\lMenuBarElement">
<polygon fill="white" stroke="black" points="1526.5,-39 1526.5,-69 1687.5,-69 1687.5,-39 1526.5,-39"/>
<text text-anchor="start" x="1534.5" y="-57" font-family="Helvetica,sans-Serif" font-size="10.00">ui.elements.MenuBarElement.</text>
<text text-anchor="middle" x="1607" y="-46" font-family="Helvetica,sans-Serif" font-size="10.00">MenuBarElement</text>
</a>
</g>
</g>
<!-- Node8&#45;&gt;Node9 -->
<g id="edge8" class="edge"><title>Node8&#45;&gt;Node9</title>
<path fill="none" stroke="midnightblue" d="M1500.47,-54C1509.19,-54 1517.95,-54 1526.5,-54"/>
<polygon fill="midnightblue" stroke="midnightblue" points="1500.27,-50.5001 1490.27,-54 1500.27,-57.5001 1500.27,-50.5001"/>
</g>
</g>
</svg>
