<?xml version="1.0" encoding="UTF-8" standalone="no"?>
<!DOCTYPE svg PUBLIC "-//W3C//DTD SVG 1.1//EN"
 "http://www.w3.org/Graphics/SVG/1.1/DTD/svg11.dtd">
<!-- Generated by graphviz version 2.36.0 (20140111.2315)
 -->
<!-- Title: ui.SceneUpdater.setListBind Pages: 1 -->
<svg width="476pt" height="38pt"
 viewBox="0.00 0.00 476.00 38.00" xmlns="http://www.w3.org/2000/svg" xmlns:xlink="http://www.w3.org/1999/xlink">
<g id="graph0" class="graph" transform="scale(1 1) rotate(0) translate(4 34)">
<title>ui.SceneUpdater.setListBind</title>
<polygon fill="white" stroke="none" points="-4,4 -4,-34 472,-34 472,4 -4,4"/>
<!-- Node1 -->
<g id="node1" class="node"><title>Node1</title>
<polygon fill="#bfbfbf" stroke="black" points="0,-5.5 0,-24.5 152,-24.5 152,-5.5 0,-5.5"/>
<text text-anchor="middle" x="76" y="-12.5" font-family="Helvetica,sans-Serif" font-size="10.00">ui.SceneUpdater.setListBind</text>
</g>
<!-- Node2 -->
<g id="node2" class="node"><title>Node2</title>
<g id="a_node2"><a xlink:href="../../dc/d3b/classui_1_1_g_u_i.html#ad1cf0798aa4e32ad69acee0fd53dc5c0" target="_top" xlink:title="ui.GUI.bindTable">
<polygon fill="white" stroke="black" points="188,-5.5 188,-24.5 280,-24.5 280,-5.5 188,-5.5"/>
<text text-anchor="middle" x="234" y="-12.5" font-family="Helvetica,sans-Serif" font-size="10.00">ui.GUI.bindTable</text>
</a>
</g>
</g>
<!-- Node1&#45;&gt;Node2 -->
<g id="edge1" class="edge"><title>Node1&#45;&gt;Node2</title>
<path fill="none" stroke="midnightblue" d="M152.258,-15C160.805,-15 169.395,-15 177.618,-15"/>
<polygon fill="midnightblue" stroke="midnightblue" points="177.806,-18.5001 187.806,-15 177.806,-11.5001 177.806,-18.5001"/>
</g>
<!-- Node3 -->
<g id="node3" class="node"><title>Node3</title>
<g id="a_node3"><a xlink:href="../../d6/dd8/classui_1_1elements_1_1_info_element.html#a691e1b96c90ab21160ebabf5306df327" target="_top" xlink:title="ui.elements.InfoElement.get\lTables">
<polygon fill="white" stroke="black" points="316,-0 316,-30 468,-30 468,-0 316,-0"/>
<text text-anchor="start" x="324" y="-18" font-family="Helvetica,sans-Serif" font-size="10.00">ui.elements.InfoElement.get</text>
<text text-anchor="middle" x="392" y="-7" font-family="Helvetica,sans-Serif" font-size="10.00">Tables</text>
</a>
</g>
</g>
<!-- Node2&#45;&gt;Node3 -->
<g id="edge2" class="edge"><title>Node2&#45;&gt;Node3</title>
<path fill="none" stroke="midnightblue" d="M280.122,-15C288.142,-15 296.729,-15 305.444,-15"/>
<polygon fill="midnightblue" stroke="midnightblue" points="305.706,-18.5001 315.706,-15 305.706,-11.5001 305.706,-18.5001"/>
</g>
</g>
</svg>
