<?xml version="1.0" encoding="UTF-8" standalone="no"?>
<!DOCTYPE svg PUBLIC "-//W3C//DTD SVG 1.1//EN"
 "http://www.w3.org/Graphics/SVG/1.1/DTD/svg11.dtd">
<!-- Generated by graphviz version 2.36.0 (20140111.2315)
 -->
<!-- Title: ui.SceneUpdater.createTurtle Pages: 1 -->
<svg width="2312pt" height="99pt"
 viewBox="0.00 0.00 2312.00 99.00" xmlns="http://www.w3.org/2000/svg" xmlns:xlink="http://www.w3.org/1999/xlink">
<g id="graph0" class="graph" transform="scale(1 1) rotate(0) translate(4 95)">
<title>ui.SceneUpdater.createTurtle</title>
<polygon fill="white" stroke="none" points="-4,4 -4,-95 2308,-95 2308,4 -4,4"/>
<!-- Node1 -->
<g id="node1" class="node"><title>Node1</title>
<polygon fill="#bfbfbf" stroke="black" points="0.5,-44.5 0.5,-63.5 155.5,-63.5 155.5,-44.5 0.5,-44.5"/>
<text text-anchor="middle" x="78" y="-51.5" font-family="Helvetica,sans-Serif" font-size="10.00">ui.SceneUpdater.createTurtle</text>
</g>
<!-- Node2 -->
<g id="node2" class="node"><title>Node2</title>
<g id="a_node2"><a xlink:href="../../dc/d3b/classui_1_1_g_u_i.html#a0337dd1c0a04ce5b2475037e66b5e3a7" target="_top" xlink:title="ui.GUI.makeTurtleView">
<polygon fill="white" stroke="black" points="192,-44.5 192,-63.5 314,-63.5 314,-44.5 192,-44.5"/>
<text text-anchor="middle" x="253" y="-51.5" font-family="Helvetica,sans-Serif" font-size="10.00">ui.GUI.makeTurtleView</text>
</a>
</g>
</g>
<!-- Node1&#45;&gt;Node2 -->
<g id="edge1" class="edge"><title>Node1&#45;&gt;Node2</title>
<path fill="none" stroke="midnightblue" d="M165.895,-54C174.65,-54 183.4,-54 191.786,-54"/>
<polygon fill="midnightblue" stroke="midnightblue" points="165.636,-50.5001 155.636,-54 165.636,-57.5001 165.636,-50.5001"/>
</g>
<!-- Node3 -->
<g id="node3" class="node"><title>Node3</title>
<g id="a_node3"><a xlink:href="../../df/d9f/classui_1_1elements_1_1_t_properties_element.html#aa9783f0d27dd4082e08b8a23d60883fe" target="_top" xlink:title="ui.elements.TPropertiesElement.init">
<polygon fill="white" stroke="black" points="350.5,-64.5 350.5,-83.5 537.5,-83.5 537.5,-64.5 350.5,-64.5"/>
<text text-anchor="middle" x="444" y="-71.5" font-family="Helvetica,sans-Serif" font-size="10.00">ui.elements.TPropertiesElement.init</text>
</a>
</g>
</g>
<!-- Node2&#45;&gt;Node3 -->
<g id="edge2" class="edge"><title>Node2&#45;&gt;Node3</title>
<path fill="none" stroke="midnightblue" d="M324.141,-61.4224C333.575,-62.4207 343.357,-63.4557 353.074,-64.484"/>
<polygon fill="midnightblue" stroke="midnightblue" points="324.373,-57.9275 314.06,-60.3556 323.637,-64.8886 324.373,-57.9275"/>
</g>
<!-- Node5 -->
<g id="node5" class="node"><title>Node5</title>
<g id="a_node5"><a xlink:href="../../dc/d3b/classui_1_1_g_u_i.html#a765d554102f38969231261686f2f8e27" target="_top" xlink:title="ui.GUI.initialize">
<polygon fill="white" stroke="black" points="401,-25.5 401,-44.5 487,-44.5 487,-25.5 401,-25.5"/>
<text text-anchor="middle" x="444" y="-32.5" font-family="Helvetica,sans-Serif" font-size="10.00">ui.GUI.initialize</text>
</a>
</g>
</g>
<!-- Node2&#45;&gt;Node5 -->
<g id="edge4" class="edge"><title>Node2&#45;&gt;Node5</title>
<path fill="none" stroke="midnightblue" d="M324.154,-46.9474C349.894,-44.3599 378.219,-41.5124 400.759,-39.2465"/>
<polygon fill="midnightblue" stroke="midnightblue" points="323.66,-43.4794 314.06,-47.9622 324.36,-50.4443 323.66,-43.4794"/>
</g>
<!-- Node4 -->
<g id="node4" class="node"><title>Node4</title>
<g id="a_node4"><a xlink:href="../../df/d9f/classui_1_1elements_1_1_t_properties_element.html#a6c665abf2d1d12f6cc29c03f0b428efb" target="_top" xlink:title="ui.elements.TPropertiesElement.\lTPropertiesElement">
<polygon fill="white" stroke="black" points="574.5,-61 574.5,-91 747.5,-91 747.5,-61 574.5,-61"/>
<text text-anchor="start" x="582.5" y="-79" font-family="Helvetica,sans-Serif" font-size="10.00">ui.elements.TPropertiesElement.</text>
<text text-anchor="middle" x="661" y="-68" font-family="Helvetica,sans-Serif" font-size="10.00">TPropertiesElement</text>
</a>
</g>
</g>
<!-- Node3&#45;&gt;Node4 -->
<g id="edge3" class="edge"><title>Node3&#45;&gt;Node4</title>
<path fill="none" stroke="midnightblue" d="M547.759,-74.9559C556.662,-75.0387 565.609,-75.1219 574.354,-75.2033"/>
<polygon fill="midnightblue" stroke="midnightblue" points="547.771,-71.456 537.739,-74.8627 547.706,-78.4557 547.771,-71.456"/>
</g>
<!-- Node6 -->
<g id="node6" class="node"><title>Node6</title>
<g id="a_node6"><a xlink:href="../../d5/d06/classui_1_1_scene_updater.html#aeef5dd7a8ec2ad6179e33fdd71ea90d6" target="_top" xlink:title="ui.SceneUpdater.initGUI">
<polygon fill="white" stroke="black" points="595.5,-22.5 595.5,-41.5 726.5,-41.5 726.5,-22.5 595.5,-22.5"/>
<text text-anchor="middle" x="661" y="-29.5" font-family="Helvetica,sans-Serif" font-size="10.00">ui.SceneUpdater.initGUI</text>
</a>
</g>
</g>
<!-- Node5&#45;&gt;Node6 -->
<g id="edge5" class="edge"><title>Node5&#45;&gt;Node6</title>
<path fill="none" stroke="midnightblue" d="M497.334,-34.2698C526.888,-33.8574 564.072,-33.3385 595.427,-32.901"/>
<polygon fill="midnightblue" stroke="midnightblue" points="497.171,-30.7716 487.221,-34.4109 497.268,-37.7709 497.171,-30.7716"/>
</g>
<!-- Node7 -->
<g id="node7" class="node"><title>Node7</title>
<g id="a_node7"><a xlink:href="../../d9/df7/classcontroller_1_1_controller.html#a57e42ba83ee2145e6262cd72eac59570" target="_top" xlink:title="controller.Controller.init">
<polygon fill="white" stroke="black" points="784.5,-22.5 784.5,-41.5 911.5,-41.5 911.5,-22.5 784.5,-22.5"/>
<text text-anchor="middle" x="848" y="-29.5" font-family="Helvetica,sans-Serif" font-size="10.00">controller.Controller.init</text>
</a>
</g>
</g>
<!-- Node6&#45;&gt;Node7 -->
<g id="edge6" class="edge"><title>Node6&#45;&gt;Node7</title>
<path fill="none" stroke="midnightblue" d="M736.899,-32C752.598,-32 768.999,-32 784.202,-32"/>
<polygon fill="midnightblue" stroke="midnightblue" points="736.704,-28.5001 726.704,-32 736.704,-35.5001 736.704,-28.5001"/>
</g>
<!-- Node8 -->
<g id="node8" class="node"><title>Node8</title>
<g id="a_node8"><a xlink:href="../../dd/df2/classmain_1_1_workspace_manager.html#abc818b59211f6e14940b86a42bb868d0" target="_top" xlink:title="main.WorkspaceManager.create\lWorkspace">
<polygon fill="white" stroke="black" points="948,-17 948,-47 1118,-47 1118,-17 948,-17"/>
<text text-anchor="start" x="956" y="-35" font-family="Helvetica,sans-Serif" font-size="10.00">main.WorkspaceManager.create</text>
<text text-anchor="middle" x="1033" y="-24" font-family="Helvetica,sans-Serif" font-size="10.00">Workspace</text>
</a>
</g>
</g>
<!-- Node7&#45;&gt;Node8 -->
<g id="edge7" class="edge"><title>Node7&#45;&gt;Node8</title>
<path fill="none" stroke="midnightblue" d="M921.923,-32C930.392,-32 939.083,-32 947.689,-32"/>
<polygon fill="midnightblue" stroke="midnightblue" points="921.722,-28.5001 911.722,-32 921.722,-35.5001 921.722,-28.5001"/>
</g>
<!-- Node9 -->
<g id="node9" class="node"><title>Node9</title>
<g id="a_node9"><a xlink:href="../../d9/df7/classcontroller_1_1_controller.html#a3a9d672bb57047df70945ad1a9582c9a" target="_top" xlink:title="controller.Controller.create\lNewWorkspace">
<polygon fill="white" stroke="black" points="1154.5,-39 1154.5,-69 1297.5,-69 1297.5,-39 1154.5,-39"/>
<text text-anchor="start" x="1162.5" y="-57" font-family="Helvetica,sans-Serif" font-size="10.00">controller.Controller.create</text>
<text text-anchor="middle" x="1226" y="-46" font-family="Helvetica,sans-Serif" font-size="10.00">NewWorkspace</text>
</a>
</g>
</g>
<!-- Node8&#45;&gt;Node9 -->
<g id="edge8" class="edge"><title>Node8&#45;&gt;Node9</title>
<path fill="none" stroke="midnightblue" d="M1128.03,-42.8303C1136.88,-43.8503 1145.75,-44.8721 1154.34,-45.8608"/>
<polygon fill="midnightblue" stroke="midnightblue" points="1128.39,-39.3489 1118.05,-41.6815 1127.59,-46.3029 1128.39,-39.3489"/>
</g>
<!-- Node15 -->
<g id="node15" class="node"><title>Node15</title>
<g id="a_node15"><a xlink:href="../../d1/d0b/classmain_1_1_main.html#a9f1e5657b2f6f9bdd69a3b6412ceda74" target="_top" xlink:title="main.Main.start">
<polygon fill="white" stroke="black" points="1180,-0.5 1180,-19.5 1272,-19.5 1272,-0.5 1180,-0.5"/>
<text text-anchor="middle" x="1226" y="-7.5" font-family="Helvetica,sans-Serif" font-size="10.00">main.Main.start</text>
</a>
</g>
</g>
<!-- Node8&#45;&gt;Node15 -->
<g id="edge14" class="edge"><title>Node8&#45;&gt;Node15</title>
<path fill="none" stroke="midnightblue" d="M1128.09,-21.1629C1146.19,-19.0779 1164.36,-16.9851 1179.99,-15.1843"/>
<polygon fill="midnightblue" stroke="midnightblue" points="1127.59,-17.6971 1118.05,-22.3185 1128.39,-24.6511 1127.59,-17.6971"/>
</g>
<!-- Node10 -->
<g id="node10" class="node"><title>Node10</title>
<g id="a_node10"><a xlink:href="../../d5/d06/classui_1_1_scene_updater.html#a2858ad8edb0c0f59a21e2ae015f2fa1e" target="_top" xlink:title="ui.SceneUpdater.createNew\lWorkspace">
<polygon fill="white" stroke="black" points="1334,-39 1334,-69 1484,-69 1484,-39 1334,-39"/>
<text text-anchor="start" x="1342" y="-57" font-family="Helvetica,sans-Serif" font-size="10.00">ui.SceneUpdater.createNew</text>
<text text-anchor="middle" x="1409" y="-46" font-family="Helvetica,sans-Serif" font-size="10.00">Workspace</text>
</a>
</g>
</g>
<!-- Node9&#45;&gt;Node10 -->
<g id="edge9" class="edge"><title>Node9&#45;&gt;Node10</title>
<path fill="none" stroke="midnightblue" d="M1307.8,-54C1316.43,-54 1325.17,-54 1333.71,-54"/>
<polygon fill="midnightblue" stroke="midnightblue" points="1307.76,-50.5001 1297.76,-54 1307.76,-57.5001 1307.76,-50.5001"/>
</g>
<!-- Node11 -->
<g id="node11" class="node"><title>Node11</title>
<g id="a_node11"><a xlink:href="../../dc/d3b/classui_1_1_g_u_i.html#a2edc294ba07311e6c4b85c9fe749d1bf" target="_top" xlink:title="ui.GUI.createNewWorkspace">
<polygon fill="white" stroke="black" points="1520,-44.5 1520,-63.5 1670,-63.5 1670,-44.5 1520,-44.5"/>
<text text-anchor="middle" x="1595" y="-51.5" font-family="Helvetica,sans-Serif" font-size="10.00">ui.GUI.createNewWorkspace</text>
</a>
</g>
</g>
<!-- Node10&#45;&gt;Node11 -->
<g id="edge10" class="edge"><title>Node10&#45;&gt;Node11</title>
<path fill="none" stroke="midnightblue" d="M1494.07,-54C1502.65,-54 1511.34,-54 1519.81,-54"/>
<polygon fill="midnightblue" stroke="midnightblue" points="1494.04,-50.5001 1484.04,-54 1494.04,-57.5001 1494.04,-50.5001"/>
</g>
<!-- Node12 -->
<g id="node12" class="node"><title>Node12</title>
<g id="a_node12"><a xlink:href="../../d0/de6/classui_1_1elements_1_1_menu_bar_element.html#a98c13995a31d997aa10f2950583da6cc" target="_top" xlink:title="ui.elements.MenuBarElement.make\lMenuBar">
<polygon fill="white" stroke="black" points="1706,-39 1706,-69 1894,-69 1894,-39 1706,-39"/>
<text text-anchor="start" x="1714" y="-57" font-family="Helvetica,sans-Serif" font-size="10.00">ui.elements.MenuBarElement.make</text>
<text text-anchor="middle" x="1800" y="-46" font-family="Helvetica,sans-Serif" font-size="10.00">MenuBar</text>
</a>
</g>
</g>
<!-- Node11&#45;&gt;Node12 -->
<g id="edge11" class="edge"><title>Node11&#45;&gt;Node12</title>
<path fill="none" stroke="midnightblue" d="M1680.28,-54C1688.66,-54 1697.21,-54 1705.68,-54"/>
<polygon fill="midnightblue" stroke="midnightblue" points="1680.15,-50.5001 1670.15,-54 1680.15,-57.5001 1680.15,-50.5001"/>
</g>
<!-- Node13 -->
<g id="node13" class="node"><title>Node13</title>
<g id="a_node13"><a xlink:href="../../d0/de6/classui_1_1elements_1_1_menu_bar_element.html#a7bdb58f78cf8b61ba28498c5c86ab682" target="_top" xlink:title="ui.elements.MenuBarElement.init">
<polygon fill="white" stroke="black" points="1930,-44.5 1930,-63.5 2106,-63.5 2106,-44.5 1930,-44.5"/>
<text text-anchor="middle" x="2018" y="-51.5" font-family="Helvetica,sans-Serif" font-size="10.00">ui.elements.MenuBarElement.init</text>
</a>
</g>
</g>
<!-- Node12&#45;&gt;Node13 -->
<g id="edge12" class="edge"><title>Node12&#45;&gt;Node13</title>
<path fill="none" stroke="midnightblue" d="M1904.23,-54C1912.83,-54 1921.48,-54 1929.94,-54"/>
<polygon fill="midnightblue" stroke="midnightblue" points="1904.17,-50.5001 1894.17,-54 1904.17,-57.5001 1904.17,-50.5001"/>
</g>
<!-- Node14 -->
<g id="node14" class="node"><title>Node14</title>
<g id="a_node14"><a xlink:href="../../d0/de6/classui_1_1elements_1_1_menu_bar_element.html#ab4a4e6841c924a9d9c70b8073b56dffc" target="_top" xlink:title="ui.elements.MenuBarElement.\lMenuBarElement">
<polygon fill="white" stroke="black" points="2142.5,-39 2142.5,-69 2303.5,-69 2303.5,-39 2142.5,-39"/>
<text text-anchor="start" x="2150.5" y="-57" font-family="Helvetica,sans-Serif" font-size="10.00">ui.elements.MenuBarElement.</text>
<text text-anchor="middle" x="2223" y="-46" font-family="Helvetica,sans-Serif" font-size="10.00">MenuBarElement</text>
</a>
</g>
</g>
<!-- Node13&#45;&gt;Node14 -->
<g id="edge13" class="edge"><title>Node13&#45;&gt;Node14</title>
<path fill="none" stroke="midnightblue" d="M2116.47,-54C2125.19,-54 2133.95,-54 2142.5,-54"/>
<polygon fill="midnightblue" stroke="midnightblue" points="2116.27,-50.5001 2106.27,-54 2116.27,-57.5001 2116.27,-50.5001"/>
</g>
</g>
</svg>
