<?xml version="1.0" encoding="UTF-8" standalone="no"?>
<!DOCTYPE svg PUBLIC "-//W3C//DTD SVG 1.1//EN"
 "http://www.w3.org/Graphics/SVG/1.1/DTD/svg11.dtd">
<!-- Generated by graphviz version 2.36.0 (20140111.2315)
 -->
<!-- Title: command.turtle.ClearScreenCommand.calculateValue Pages: 1 -->
<svg width="338pt" height="229pt"
 viewBox="0.00 0.00 338.00 229.00" xmlns="http://www.w3.org/2000/svg" xmlns:xlink="http://www.w3.org/1999/xlink">
<g id="graph0" class="graph" transform="scale(1 1) rotate(0) translate(4 225)">
<title>command.turtle.ClearScreenCommand.calculateValue</title>
<polygon fill="white" stroke="none" points="-4,4 -4,-225 334,-225 334,4 -4,4"/>
<!-- Node1 -->
<g id="node1" class="node"><title>Node1</title>
<polygon fill="#bfbfbf" stroke="black" points="0.5,-101 0.5,-131 155.5,-131 155.5,-101 0.5,-101"/>
<text text-anchor="start" x="8.5" y="-119" font-family="Helvetica,sans-Serif" font-size="10.00">command.turtle.ClearScreen</text>
<text text-anchor="middle" x="78" y="-108" font-family="Helvetica,sans-Serif" font-size="10.00">Command.calculateValue</text>
</g>
<!-- Node2 -->
<g id="node2" class="node"><title>Node2</title>
<g id="a_node2"><a xlink:href="../../d6/d34/classmodel_1_1_turtle.html#a5c92e7274d592bbd3df40913004dfa71" target="_top" xlink:title="model.Turtle.getX">
<polygon fill="white" stroke="black" points="211,-201.5 211,-220.5 311,-220.5 311,-201.5 211,-201.5"/>
<text text-anchor="middle" x="261" y="-208.5" font-family="Helvetica,sans-Serif" font-size="10.00">model.Turtle.getX</text>
</a>
</g>
</g>
<!-- Node1&#45;&gt;Node2 -->
<g id="edge1" class="edge"><title>Node1&#45;&gt;Node2</title>
<path fill="none" stroke="midnightblue" d="M97.4774,-131.173C118.985,-148.157 156.149,-175.459 192,-192 197.009,-194.311 202.358,-196.396 207.772,-198.264"/>
<polygon fill="midnightblue" stroke="midnightblue" points="206.94,-201.673 217.531,-201.394 209.077,-195.007 206.94,-201.673"/>
</g>
<!-- Node3 -->
<g id="node3" class="node"><title>Node3</title>
<g id="a_node3"><a xlink:href="../../d6/d34/classmodel_1_1_turtle.html#a60ba63667ad6fe29a4570821539db8c8" target="_top" xlink:title="model.Turtle.getY">
<polygon fill="white" stroke="black" points="211.5,-163.5 211.5,-182.5 310.5,-182.5 310.5,-163.5 211.5,-163.5"/>
<text text-anchor="middle" x="261" y="-170.5" font-family="Helvetica,sans-Serif" font-size="10.00">model.Turtle.getY</text>
</a>
</g>
</g>
<!-- Node1&#45;&gt;Node3 -->
<g id="edge2" class="edge"><title>Node1&#45;&gt;Node3</title>
<path fill="none" stroke="midnightblue" d="M122.026,-131.054C143.043,-138.258 168.755,-146.849 192,-154 199.332,-156.255 207.142,-158.543 214.759,-160.713"/>
<polygon fill="midnightblue" stroke="midnightblue" points="214.031,-164.144 224.605,-163.485 215.928,-157.406 214.031,-164.144"/>
</g>
<!-- Node4 -->
<g id="node4" class="node"><title>Node4</title>
<g id="a_node4"><a xlink:href="../../d6/d34/classmodel_1_1_turtle.html#a9a2279c364f9e9673b7d88df6314677b" target="_top" xlink:title="model.Turtle.setClear">
<polygon fill="white" stroke="black" points="202,-125.5 202,-144.5 320,-144.5 320,-125.5 202,-125.5"/>
<text text-anchor="middle" x="261" y="-132.5" font-family="Helvetica,sans-Serif" font-size="10.00">model.Turtle.setClear</text>
</a>
</g>
</g>
<!-- Node1&#45;&gt;Node4 -->
<g id="edge3" class="edge"><title>Node1&#45;&gt;Node4</title>
<path fill="none" stroke="midnightblue" d="M155.76,-124.058C167.684,-125.309 179.933,-126.595 191.654,-127.826"/>
<polygon fill="midnightblue" stroke="midnightblue" points="191.486,-131.327 201.797,-128.89 192.217,-124.365 191.486,-131.327"/>
</g>
<!-- Node5 -->
<g id="node5" class="node"><title>Node5</title>
<g id="a_node5"><a xlink:href="../../d6/d34/classmodel_1_1_turtle.html#a2b2a79e69080a0bacbefea42068da2dd" target="_top" xlink:title="model.Turtle.setHeading">
<polygon fill="white" stroke="black" points="194.5,-87.5 194.5,-106.5 327.5,-106.5 327.5,-87.5 194.5,-87.5"/>
<text text-anchor="middle" x="261" y="-94.5" font-family="Helvetica,sans-Serif" font-size="10.00">model.Turtle.setHeading</text>
</a>
</g>
</g>
<!-- Node1&#45;&gt;Node5 -->
<g id="edge4" class="edge"><title>Node1&#45;&gt;Node5</title>
<path fill="none" stroke="midnightblue" d="M155.76,-107.942C165.171,-106.954 174.785,-105.945 184.181,-104.959"/>
<polygon fill="midnightblue" stroke="midnightblue" points="184.693,-108.424 194.273,-103.9 183.962,-101.463 184.693,-108.424"/>
</g>
<!-- Node6 -->
<g id="node6" class="node"><title>Node6</title>
<g id="a_node6"><a xlink:href="../../d6/d34/classmodel_1_1_turtle.html#a964ce9be930d2ad7c46f0700564bf73c" target="_top" xlink:title="model.Turtle.setXY">
<polygon fill="white" stroke="black" points="209,-49.5 209,-68.5 313,-68.5 313,-49.5 209,-49.5"/>
<text text-anchor="middle" x="261" y="-56.5" font-family="Helvetica,sans-Serif" font-size="10.00">model.Turtle.setXY</text>
</a>
</g>
</g>
<!-- Node1&#45;&gt;Node6 -->
<g id="edge5" class="edge"><title>Node1&#45;&gt;Node6</title>
<path fill="none" stroke="midnightblue" d="M122.026,-100.946C143.043,-93.7425 168.755,-85.1506 192,-78 199.332,-75.7447 207.142,-73.4566 214.759,-71.2866"/>
<polygon fill="midnightblue" stroke="midnightblue" points="215.928,-74.5938 224.605,-68.5146 214.031,-67.8557 215.928,-74.5938"/>
</g>
<!-- Node7 -->
<g id="node7" class="node"><title>Node7</title>
<g id="a_node7"><a xlink:href="../../d6/d34/classmodel_1_1_turtle.html#ab69148692c7de79ad6c276902b81553a" target="_top" xlink:title="model.Turtle.updateTurtle\lViewers">
<polygon fill="white" stroke="black" points="192.5,-0 192.5,-30 329.5,-30 329.5,-0 192.5,-0"/>
<text text-anchor="start" x="200.5" y="-18" font-family="Helvetica,sans-Serif" font-size="10.00">model.Turtle.updateTurtle</text>
<text text-anchor="middle" x="261" y="-7" font-family="Helvetica,sans-Serif" font-size="10.00">Viewers</text>
</a>
</g>
</g>
<!-- Node1&#45;&gt;Node7 -->
<g id="edge6" class="edge"><title>Node1&#45;&gt;Node7</title>
<path fill="none" stroke="midnightblue" d="M98.5148,-100.744C120.359,-84.1863 157.259,-57.7433 192,-40 196.19,-37.86 200.608,-35.8116 205.097,-33.8737"/>
<polygon fill="midnightblue" stroke="midnightblue" points="206.448,-37.1025 214.361,-30.0573 203.782,-30.6301 206.448,-37.1025"/>
</g>
</g>
</svg>
