<?xml version="1.0" encoding="UTF-8" standalone="no"?>
<!DOCTYPE svg PUBLIC "-//W3C//DTD SVG 1.1//EN"
 "http://www.w3.org/Graphics/SVG/1.1/DTD/svg11.dtd">
<!-- Generated by graphviz version 2.36.0 (20140111.2315)
 -->
<!-- Title: model.CommandFactory.createCommand Pages: 1 -->
<svg width="3590pt" height="466pt"
 viewBox="0.00 0.00 3590.00 466.00" xmlns="http://www.w3.org/2000/svg" xmlns:xlink="http://www.w3.org/1999/xlink">
<g id="graph0" class="graph" transform="scale(1 1) rotate(0) translate(4 462)">
<title>model.CommandFactory.createCommand</title>
<polygon fill="white" stroke="none" points="-4,4 -4,-462 3586,-462 3586,4 -4,4"/>
<!-- Node1 -->
<g id="node1" class="node"><title>Node1</title>
<polygon fill="#bfbfbf" stroke="black" points="0.5,-232 0.5,-262 167.5,-262 167.5,-232 0.5,-232"/>
<text text-anchor="start" x="8.5" y="-250" font-family="Helvetica,sans-Serif" font-size="10.00">model.CommandFactory.create</text>
<text text-anchor="middle" x="84" y="-239" font-family="Helvetica,sans-Serif" font-size="10.00">Command</text>
</g>
<!-- Node2 -->
<g id="node2" class="node"><title>Node2</title>
<g id="a_node2"><a xlink:href="../../d9/d88/classmodel_1_1_tree_interpreter.html#af4d24e7867eb3a4a53f79f4a9288f9fd" target="_top" xlink:title="model.TreeInterpreter.execute\lCommand">
<polygon fill="white" stroke="black" points="204.5,-232 204.5,-262 365.5,-262 365.5,-232 204.5,-232"/>
<text text-anchor="start" x="212.5" y="-250" font-family="Helvetica,sans-Serif" font-size="10.00">model.TreeInterpreter.execute</text>
<text text-anchor="middle" x="285" y="-239" font-family="Helvetica,sans-Serif" font-size="10.00">Command</text>
</a>
</g>
</g>
<!-- Node1&#45;&gt;Node2 -->
<g id="edge1" class="edge"><title>Node1&#45;&gt;Node2</title>
<path fill="none" stroke="midnightblue" d="M177.714,-247C186.655,-247 195.67,-247 204.467,-247"/>
<polygon fill="midnightblue" stroke="midnightblue" points="177.665,-243.5 167.665,-247 177.665,-250.5 177.665,-243.5"/>
</g>
<!-- Node3 -->
<g id="node3" class="node"><title>Node3</title>
<g id="a_node3"><a xlink:href="../../d9/d88/classmodel_1_1_tree_interpreter.html#a3e460e5ebe66f781afb480f0f0ec2ce7" target="_top" xlink:title="model.TreeInterpreter.update">
<polygon fill="white" stroke="black" points="402,-237.5 402,-256.5 558,-256.5 558,-237.5 402,-237.5"/>
<text text-anchor="middle" x="480" y="-244.5" font-family="Helvetica,sans-Serif" font-size="10.00">model.TreeInterpreter.update</text>
</a>
</g>
</g>
<!-- Node2&#45;&gt;Node3 -->
<g id="edge2" class="edge"><title>Node2&#45;&gt;Node3</title>
<path fill="none" stroke="midnightblue" d="M375.758,-247C384.441,-247 393.197,-247 401.744,-247"/>
<polygon fill="midnightblue" stroke="midnightblue" points="375.615,-243.5 365.615,-247 375.615,-250.5 375.615,-243.5"/>
</g>
<!-- Node4 -->
<g id="node4" class="node"><title>Node4</title>
<g id="a_node4"><a xlink:href="../../d9/d88/classmodel_1_1_tree_interpreter.html#a501df6b8cfe1a8175a9da0ed96d30d6f" target="_top" xlink:title="model.TreeInterpreter.interpretTree">
<polygon fill="white" stroke="black" points="594.5,-237.5 594.5,-256.5 777.5,-256.5 777.5,-237.5 594.5,-237.5"/>
<text text-anchor="middle" x="686" y="-244.5" font-family="Helvetica,sans-Serif" font-size="10.00">model.TreeInterpreter.interpretTree</text>
</a>
</g>
</g>
<!-- Node3&#45;&gt;Node4 -->
<g id="edge3" class="edge"><title>Node3&#45;&gt;Node4</title>
<path fill="none" stroke="midnightblue" d="M568.217,-247C576.886,-247 585.7,-247 594.402,-247"/>
<polygon fill="midnightblue" stroke="midnightblue" points="568.124,-243.5 558.124,-247 568.124,-250.5 568.124,-243.5"/>
</g>
<!-- Node5 -->
<g id="node5" class="node"><title>Node5</title>
<g id="a_node5"><a xlink:href="../../d4/dea/classcommand_1_1control_1_1_ask_command.html#a0e92735076727a8f4ef8affeb592e8b4" target="_top" xlink:title="command.control.AskCommand.calculate\lValue">
<polygon fill="white" stroke="black" points="826,-428 826,-458 1044,-458 1044,-428 826,-428"/>
<text text-anchor="start" x="834" y="-446" font-family="Helvetica,sans-Serif" font-size="10.00">command.control.AskCommand.calculate</text>
<text text-anchor="middle" x="935" y="-435" font-family="Helvetica,sans-Serif" font-size="10.00">Value</text>
</a>
</g>
</g>
<!-- Node4&#45;&gt;Node5 -->
<g id="edge4" class="edge"><title>Node4&#45;&gt;Node5</title>
<path fill="none" stroke="midnightblue" d="M695.375,-266.014C712.238,-301.928 753.877,-379.574 814,-418 820.097,-421.896 826.69,-425.199 833.542,-427.996"/>
<polygon fill="midnightblue" stroke="midnightblue" points="698.449,-264.319 691.111,-256.677 692.081,-267.227 698.449,-264.319"/>
</g>
<!-- Node6 -->
<g id="node6" class="node"><title>Node6</title>
<g id="a_node6"><a xlink:href="../../d5/d1a/classcommand_1_1control_1_1_ask_with_command.html#a2a79128bce4d0ce305a2fe690675a70e" target="_top" xlink:title="command.control.AskWithCommand.calculate\lValue">
<polygon fill="white" stroke="black" points="816,-379 816,-409 1054,-409 1054,-379 816,-379"/>
<text text-anchor="start" x="824" y="-397" font-family="Helvetica,sans-Serif" font-size="10.00">command.control.AskWithCommand.calculate</text>
<text text-anchor="middle" x="935" y="-386" font-family="Helvetica,sans-Serif" font-size="10.00">Value</text>
</a>
</g>
</g>
<!-- Node4&#45;&gt;Node6 -->
<g id="edge5" class="edge"><title>Node4&#45;&gt;Node6</title>
<path fill="none" stroke="midnightblue" d="M700.231,-265.01C721.173,-292.116 764.679,-342.986 814,-369 821.341,-372.872 829.23,-376.144 837.33,-378.91"/>
<polygon fill="midnightblue" stroke="midnightblue" points="702.843,-262.662 694.018,-256.799 697.261,-266.885 702.843,-262.662"/>
</g>
<!-- Node7 -->
<g id="node7" class="node"><title>Node7</title>
<g id="a_node7"><a xlink:href="../../d7/dae/classcommand_1_1control_1_1_do_times_command.html#a932eb0f99c5b2fecf8fd6939ef4b0c5b" target="_top" xlink:title="command.control.DoTimesCommand.calculate\lValue">
<polygon fill="white" stroke="black" points="814,-330 814,-360 1056,-360 1056,-330 814,-330"/>
<text text-anchor="start" x="822" y="-348" font-family="Helvetica,sans-Serif" font-size="10.00">command.control.DoTimesCommand.calculate</text>
<text text-anchor="middle" x="935" y="-337" font-family="Helvetica,sans-Serif" font-size="10.00">Value</text>
</a>
</g>
</g>
<!-- Node4&#45;&gt;Node7 -->
<g id="edge6" class="edge"><title>Node4&#45;&gt;Node7</title>
<path fill="none" stroke="midnightblue" d="M708.898,-262.48C733.394,-279.089 774.797,-305.085 814,-320 824.044,-323.821 834.796,-327.108 845.584,-329.922"/>
<polygon fill="midnightblue" stroke="midnightblue" points="710.599,-259.402 700.377,-256.616 706.631,-265.169 710.599,-259.402"/>
</g>
<!-- Node8 -->
<g id="node8" class="node"><title>Node8</title>
<g id="a_node8"><a xlink:href="../../d1/d18/classcommand_1_1control_1_1_execute_user_command.html#a1ce1cab877c9c9199aee9f8e687f74fb" target="_top" xlink:title="command.control.ExecuteUser\lCommand.calculateValue">
<polygon fill="white" stroke="black" points="852.5,-281 852.5,-311 1017.5,-311 1017.5,-281 852.5,-281"/>
<text text-anchor="start" x="860.5" y="-299" font-family="Helvetica,sans-Serif" font-size="10.00">command.control.ExecuteUser</text>
<text text-anchor="middle" x="935" y="-288" font-family="Helvetica,sans-Serif" font-size="10.00">Command.calculateValue</text>
</a>
</g>
</g>
<!-- Node4&#45;&gt;Node8 -->
<g id="edge7" class="edge"><title>Node4&#45;&gt;Node8</title>
<path fill="none" stroke="midnightblue" d="M745.07,-258.52C778.788,-265.209 821.654,-273.713 858.028,-280.929"/>
<polygon fill="midnightblue" stroke="midnightblue" points="745.407,-255.019 734.917,-256.506 744.045,-261.885 745.407,-255.019"/>
</g>
<!-- Node9 -->
<g id="node9" class="node"><title>Node9</title>
<g id="a_node9"><a xlink:href="../../da/db2/classcommand_1_1control_1_1_for_command.html#ad494f107c7c0e97f862dcfddc476a064" target="_top" xlink:title="command.control.ForCommand.calculate\lValue">
<polygon fill="white" stroke="black" points="827.5,-232 827.5,-262 1042.5,-262 1042.5,-232 827.5,-232"/>
<text text-anchor="start" x="835.5" y="-250" font-family="Helvetica,sans-Serif" font-size="10.00">command.control.ForCommand.calculate</text>
<text text-anchor="middle" x="935" y="-239" font-family="Helvetica,sans-Serif" font-size="10.00">Value</text>
</a>
</g>
</g>
<!-- Node4&#45;&gt;Node9 -->
<g id="edge8" class="edge"><title>Node4&#45;&gt;Node9</title>
<path fill="none" stroke="midnightblue" d="M787.861,-247C800.798,-247 814.078,-247 827.107,-247"/>
<polygon fill="midnightblue" stroke="midnightblue" points="787.571,-243.5 777.571,-247 787.571,-250.5 787.571,-243.5"/>
</g>
<!-- Node10 -->
<g id="node10" class="node"><title>Node10</title>
<g id="a_node10"><a xlink:href="../../d6/d3b/classcommand_1_1control_1_1_if_command.html#acf428d2a9882866a2f00fbbee727f4f1" target="_top" xlink:title="command.control.IfCommand.calculate\lValue">
<polygon fill="white" stroke="black" points="832,-183 832,-213 1038,-213 1038,-183 832,-183"/>
<text text-anchor="start" x="840" y="-201" font-family="Helvetica,sans-Serif" font-size="10.00">command.control.IfCommand.calculate</text>
<text text-anchor="middle" x="935" y="-190" font-family="Helvetica,sans-Serif" font-size="10.00">Value</text>
</a>
</g>
</g>
<!-- Node4&#45;&gt;Node10 -->
<g id="edge9" class="edge"><title>Node4&#45;&gt;Node10</title>
<path fill="none" stroke="midnightblue" d="M745.07,-235.48C778.788,-228.791 821.654,-220.287 858.028,-213.071"/>
<polygon fill="midnightblue" stroke="midnightblue" points="744.045,-232.115 734.917,-237.494 745.407,-238.981 744.045,-232.115"/>
</g>
<!-- Node11 -->
<g id="node11" class="node"><title>Node11</title>
<g id="a_node11"><a xlink:href="../../d3/dcf/classcommand_1_1control_1_1_if_else_command.html#ac1a2c320a23705da633419c13a18ff91" target="_top" xlink:title="command.control.IfElseCommand.calculate\lValue">
<polygon fill="white" stroke="black" points="822.5,-134 822.5,-164 1047.5,-164 1047.5,-134 822.5,-134"/>
<text text-anchor="start" x="830.5" y="-152" font-family="Helvetica,sans-Serif" font-size="10.00">command.control.IfElseCommand.calculate</text>
<text text-anchor="middle" x="935" y="-141" font-family="Helvetica,sans-Serif" font-size="10.00">Value</text>
</a>
</g>
</g>
<!-- Node4&#45;&gt;Node11 -->
<g id="edge10" class="edge"><title>Node4&#45;&gt;Node11</title>
<path fill="none" stroke="midnightblue" d="M708.898,-231.52C733.394,-214.911 774.797,-188.915 814,-174 824.044,-170.179 834.796,-166.892 845.584,-164.078"/>
<polygon fill="midnightblue" stroke="midnightblue" points="706.631,-228.831 700.377,-237.384 710.599,-234.598 706.631,-228.831"/>
</g>
<!-- Node12 -->
<g id="node12" class="node"><title>Node12</title>
<g id="a_node12"><a xlink:href="../../d1/d0f/classcommand_1_1control_1_1_repeat_command.html#af9c3a3854b4eaabafc7c09bdbe83de0e" target="_top" xlink:title="command.control.RepeatCommand.calculate\lValue">
<polygon fill="white" stroke="black" points="818.5,-85 818.5,-115 1051.5,-115 1051.5,-85 818.5,-85"/>
<text text-anchor="start" x="826.5" y="-103" font-family="Helvetica,sans-Serif" font-size="10.00">command.control.RepeatCommand.calculate</text>
<text text-anchor="middle" x="935" y="-92" font-family="Helvetica,sans-Serif" font-size="10.00">Value</text>
</a>
</g>
</g>
<!-- Node4&#45;&gt;Node12 -->
<g id="edge11" class="edge"><title>Node4&#45;&gt;Node12</title>
<path fill="none" stroke="midnightblue" d="M700.231,-228.99C721.173,-201.884 764.679,-151.014 814,-125 821.341,-121.128 829.23,-117.856 837.33,-115.09"/>
<polygon fill="midnightblue" stroke="midnightblue" points="697.261,-227.115 694.018,-237.201 702.843,-231.338 697.261,-227.115"/>
</g>
<!-- Node13 -->
<g id="node13" class="node"><title>Node13</title>
<g id="a_node13"><a xlink:href="../../d9/df7/classcontroller_1_1_controller.html#a3d81fb1a57114f96fb6c319f4c5df370" target="_top" xlink:title="controller.Controller.parse\lCommand">
<polygon fill="white" stroke="black" points="865,-36 865,-66 1005,-66 1005,-36 865,-36"/>
<text text-anchor="start" x="873" y="-54" font-family="Helvetica,sans-Serif" font-size="10.00">controller.Controller.parse</text>
<text text-anchor="middle" x="935" y="-43" font-family="Helvetica,sans-Serif" font-size="10.00">Command</text>
</a>
</g>
</g>
<!-- Node4&#45;&gt;Node13 -->
<g id="edge12" class="edge"><title>Node4&#45;&gt;Node13</title>
<path fill="none" stroke="midnightblue" d="M695.375,-227.986C712.238,-192.072 753.877,-114.426 814,-76 829.152,-66.3161 847.375,-60.3012 864.992,-56.5884"/>
<polygon fill="midnightblue" stroke="midnightblue" points="692.081,-226.773 691.111,-237.323 698.449,-229.681 692.081,-226.773"/>
</g>
<!-- Node14 -->
<g id="node14" class="node"><title>Node14</title>
<g id="a_node14"><a xlink:href="../../d5/d06/classui_1_1_scene_updater.html#ab77a04f8b0038429b09237aac18906e8" target="_top" xlink:title="ui.SceneUpdater.sendCommands">
<polygon fill="white" stroke="black" points="1092,-41.5 1092,-60.5 1270,-60.5 1270,-41.5 1092,-41.5"/>
<text text-anchor="middle" x="1181" y="-48.5" font-family="Helvetica,sans-Serif" font-size="10.00">ui.SceneUpdater.sendCommands</text>
</a>
</g>
</g>
<!-- Node13&#45;&gt;Node14 -->
<g id="edge13" class="edge"><title>Node13&#45;&gt;Node14</title>
<path fill="none" stroke="midnightblue" d="M1015.54,-51C1039.92,-51 1066.89,-51 1091.81,-51"/>
<polygon fill="midnightblue" stroke="midnightblue" points="1015.27,-47.5001 1005.27,-51 1015.27,-54.5001 1015.27,-47.5001"/>
</g>
<!-- Node15 -->
<g id="node15" class="node"><title>Node15</title>
<g id="a_node15"><a xlink:href="../../dc/d3b/classui_1_1_g_u_i.html#ad8f08a79a20a498bcaafdc7e2e2ce0a9" target="_top" xlink:title="ui.GUI.parseCommand">
<polygon fill="white" stroke="black" points="1306.5,-41.5 1306.5,-60.5 1431.5,-60.5 1431.5,-41.5 1306.5,-41.5"/>
<text text-anchor="middle" x="1369" y="-48.5" font-family="Helvetica,sans-Serif" font-size="10.00">ui.GUI.parseCommand</text>
</a>
</g>
</g>
<!-- Node14&#45;&gt;Node15 -->
<g id="edge14" class="edge"><title>Node14&#45;&gt;Node15</title>
<path fill="none" stroke="midnightblue" d="M1280.2,-51C1289.13,-51 1298,-51 1306.48,-51"/>
<polygon fill="midnightblue" stroke="midnightblue" points="1280.1,-47.5001 1270.1,-51 1280.1,-54.5001 1280.1,-47.5001"/>
</g>
<!-- Node16 -->
<g id="node16" class="node"><title>Node16</title>
<g id="a_node16"><a xlink:href="../../d8/d3c/classui_1_1elements_1_1_i_o_element.html#a139a046f0c771f86696f2eee04047c64" target="_top" xlink:title="ui.elements.IOElement.init">
<polygon fill="white" stroke="black" points="1484.5,-60.5 1484.5,-79.5 1627.5,-79.5 1627.5,-60.5 1484.5,-60.5"/>
<text text-anchor="middle" x="1556" y="-67.5" font-family="Helvetica,sans-Serif" font-size="10.00">ui.elements.IOElement.init</text>
</a>
</g>
</g>
<!-- Node15&#45;&gt;Node16 -->
<g id="edge15" class="edge"><title>Node15&#45;&gt;Node16</title>
<path fill="none" stroke="midnightblue" d="M1441.68,-58.3614C1455.7,-59.8019 1470.4,-61.3116 1484.39,-62.7485"/>
<polygon fill="midnightblue" stroke="midnightblue" points="1441.91,-54.8668 1431.6,-57.3267 1441.19,-61.8302 1441.91,-54.8668"/>
</g>
<!-- Node18 -->
<g id="node18" class="node"><title>Node18</title>
<g id="a_node18"><a xlink:href="../../dc/d3b/classui_1_1_g_u_i.html#ab8ec2a37b3d5bd9e8c2abbb3642fb965" target="_top" xlink:title="ui.GUI.setupKeyboardCommands">
<polygon fill="white" stroke="black" points="1468.5,-22.5 1468.5,-41.5 1643.5,-41.5 1643.5,-22.5 1468.5,-22.5"/>
<text text-anchor="middle" x="1556" y="-29.5" font-family="Helvetica,sans-Serif" font-size="10.00">ui.GUI.setupKeyboardCommands</text>
</a>
</g>
</g>
<!-- Node15&#45;&gt;Node18 -->
<g id="edge17" class="edge"><title>Node15&#45;&gt;Node18</title>
<path fill="none" stroke="midnightblue" d="M1441.69,-43.6368C1450.41,-42.7417 1459.39,-41.8199 1468.29,-40.9054"/>
<polygon fill="midnightblue" stroke="midnightblue" points="1441.19,-40.1698 1431.6,-44.6733 1441.91,-47.1332 1441.19,-40.1698"/>
</g>
<!-- Node17 -->
<g id="node17" class="node"><title>Node17</title>
<g id="a_node17"><a xlink:href="../../d8/d3c/classui_1_1elements_1_1_i_o_element.html#a556e1a3ad292fe3ab731065eef59b187" target="_top" xlink:title="ui.elements.IOElement.IOElement">
<polygon fill="white" stroke="black" points="1680,-60.5 1680,-79.5 1858,-79.5 1858,-60.5 1680,-60.5"/>
<text text-anchor="middle" x="1769" y="-67.5" font-family="Helvetica,sans-Serif" font-size="10.00">ui.elements.IOElement.IOElement</text>
</a>
</g>
</g>
<!-- Node16&#45;&gt;Node17 -->
<g id="edge16" class="edge"><title>Node16&#45;&gt;Node17</title>
<path fill="none" stroke="midnightblue" d="M1637.92,-70C1651.65,-70 1665.97,-70 1679.88,-70"/>
<polygon fill="midnightblue" stroke="midnightblue" points="1637.55,-66.5001 1627.55,-70 1637.55,-73.5001 1637.55,-66.5001"/>
</g>
<!-- Node19 -->
<g id="node19" class="node"><title>Node19</title>
<g id="a_node19"><a xlink:href="../../dc/d3b/classui_1_1_g_u_i.html#a765d554102f38969231261686f2f8e27" target="_top" xlink:title="ui.GUI.initialize">
<polygon fill="white" stroke="black" points="1726,-22.5 1726,-41.5 1812,-41.5 1812,-22.5 1726,-22.5"/>
<text text-anchor="middle" x="1769" y="-29.5" font-family="Helvetica,sans-Serif" font-size="10.00">ui.GUI.initialize</text>
</a>
</g>
</g>
<!-- Node18&#45;&gt;Node19 -->
<g id="edge18" class="edge"><title>Node18&#45;&gt;Node19</title>
<path fill="none" stroke="midnightblue" d="M1653.75,-32C1679.02,-32 1704.96,-32 1725.72,-32"/>
<polygon fill="midnightblue" stroke="midnightblue" points="1653.74,-28.5001 1643.74,-32 1653.74,-35.5001 1653.74,-28.5001"/>
</g>
<!-- Node20 -->
<g id="node20" class="node"><title>Node20</title>
<g id="a_node20"><a xlink:href="../../d5/d06/classui_1_1_scene_updater.html#aeef5dd7a8ec2ad6179e33fdd71ea90d6" target="_top" xlink:title="ui.SceneUpdater.initGUI">
<polygon fill="white" stroke="black" points="1894.5,-22.5 1894.5,-41.5 2025.5,-41.5 2025.5,-22.5 1894.5,-22.5"/>
<text text-anchor="middle" x="1960" y="-29.5" font-family="Helvetica,sans-Serif" font-size="10.00">ui.SceneUpdater.initGUI</text>
</a>
</g>
</g>
<!-- Node19&#45;&gt;Node20 -->
<g id="edge19" class="edge"><title>Node19&#45;&gt;Node20</title>
<path fill="none" stroke="midnightblue" d="M1822.67,-32C1844.92,-32 1871.05,-32 1894.45,-32"/>
<polygon fill="midnightblue" stroke="midnightblue" points="1822.42,-28.5001 1812.42,-32 1822.42,-35.5001 1822.42,-28.5001"/>
</g>
<!-- Node21 -->
<g id="node21" class="node"><title>Node21</title>
<g id="a_node21"><a xlink:href="../../d9/df7/classcontroller_1_1_controller.html#a57e42ba83ee2145e6262cd72eac59570" target="_top" xlink:title="controller.Controller.init">
<polygon fill="white" stroke="black" points="2062.5,-22.5 2062.5,-41.5 2189.5,-41.5 2189.5,-22.5 2062.5,-22.5"/>
<text text-anchor="middle" x="2126" y="-29.5" font-family="Helvetica,sans-Serif" font-size="10.00">controller.Controller.init</text>
</a>
</g>
</g>
<!-- Node20&#45;&gt;Node21 -->
<g id="edge20" class="edge"><title>Node20&#45;&gt;Node21</title>
<path fill="none" stroke="midnightblue" d="M2036.04,-32C2044.81,-32 2053.68,-32 2062.26,-32"/>
<polygon fill="midnightblue" stroke="midnightblue" points="2035.82,-28.5001 2025.82,-32 2035.82,-35.5001 2035.82,-28.5001"/>
</g>
<!-- Node22 -->
<g id="node22" class="node"><title>Node22</title>
<g id="a_node22"><a xlink:href="../../dd/df2/classmain_1_1_workspace_manager.html#abc818b59211f6e14940b86a42bb868d0" target="_top" xlink:title="main.WorkspaceManager.create\lWorkspace">
<polygon fill="white" stroke="black" points="2226,-17 2226,-47 2396,-47 2396,-17 2226,-17"/>
<text text-anchor="start" x="2234" y="-35" font-family="Helvetica,sans-Serif" font-size="10.00">main.WorkspaceManager.create</text>
<text text-anchor="middle" x="2311" y="-24" font-family="Helvetica,sans-Serif" font-size="10.00">Workspace</text>
</a>
</g>
</g>
<!-- Node21&#45;&gt;Node22 -->
<g id="edge21" class="edge"><title>Node21&#45;&gt;Node22</title>
<path fill="none" stroke="midnightblue" d="M2199.92,-32C2208.39,-32 2217.08,-32 2225.69,-32"/>
<polygon fill="midnightblue" stroke="midnightblue" points="2199.72,-28.5001 2189.72,-32 2199.72,-35.5001 2199.72,-28.5001"/>
</g>
<!-- Node23 -->
<g id="node23" class="node"><title>Node23</title>
<g id="a_node23"><a xlink:href="../../d9/df7/classcontroller_1_1_controller.html#a3a9d672bb57047df70945ad1a9582c9a" target="_top" xlink:title="controller.Controller.create\lNewWorkspace">
<polygon fill="white" stroke="black" points="2432.5,-39 2432.5,-69 2575.5,-69 2575.5,-39 2432.5,-39"/>
<text text-anchor="start" x="2440.5" y="-57" font-family="Helvetica,sans-Serif" font-size="10.00">controller.Controller.create</text>
<text text-anchor="middle" x="2504" y="-46" font-family="Helvetica,sans-Serif" font-size="10.00">NewWorkspace</text>
</a>
</g>
</g>
<!-- Node22&#45;&gt;Node23 -->
<g id="edge22" class="edge"><title>Node22&#45;&gt;Node23</title>
<path fill="none" stroke="midnightblue" d="M2406.03,-42.8303C2414.88,-43.8503 2423.75,-44.8721 2432.34,-45.8608"/>
<polygon fill="midnightblue" stroke="midnightblue" points="2406.39,-39.3489 2396.05,-41.6815 2405.59,-46.3029 2406.39,-39.3489"/>
</g>
<!-- Node29 -->
<g id="node29" class="node"><title>Node29</title>
<g id="a_node29"><a xlink:href="../../d1/d0b/classmain_1_1_main.html#a9f1e5657b2f6f9bdd69a3b6412ceda74" target="_top" xlink:title="main.Main.start">
<polygon fill="white" stroke="black" points="2458,-0.5 2458,-19.5 2550,-19.5 2550,-0.5 2458,-0.5"/>
<text text-anchor="middle" x="2504" y="-7.5" font-family="Helvetica,sans-Serif" font-size="10.00">main.Main.start</text>
</a>
</g>
</g>
<!-- Node22&#45;&gt;Node29 -->
<g id="edge28" class="edge"><title>Node22&#45;&gt;Node29</title>
<path fill="none" stroke="midnightblue" d="M2406.09,-21.1629C2424.19,-19.0779 2442.36,-16.9851 2457.99,-15.1843"/>
<polygon fill="midnightblue" stroke="midnightblue" points="2405.59,-17.6971 2396.05,-22.3185 2406.39,-24.6511 2405.59,-17.6971"/>
</g>
<!-- Node24 -->
<g id="node24" class="node"><title>Node24</title>
<g id="a_node24"><a xlink:href="../../d5/d06/classui_1_1_scene_updater.html#a2858ad8edb0c0f59a21e2ae015f2fa1e" target="_top" xlink:title="ui.SceneUpdater.createNew\lWorkspace">
<polygon fill="white" stroke="black" points="2612,-39 2612,-69 2762,-69 2762,-39 2612,-39"/>
<text text-anchor="start" x="2620" y="-57" font-family="Helvetica,sans-Serif" font-size="10.00">ui.SceneUpdater.createNew</text>
<text text-anchor="middle" x="2687" y="-46" font-family="Helvetica,sans-Serif" font-size="10.00">Workspace</text>
</a>
</g>
</g>
<!-- Node23&#45;&gt;Node24 -->
<g id="edge23" class="edge"><title>Node23&#45;&gt;Node24</title>
<path fill="none" stroke="midnightblue" d="M2585.8,-54C2594.43,-54 2603.17,-54 2611.71,-54"/>
<polygon fill="midnightblue" stroke="midnightblue" points="2585.76,-50.5001 2575.76,-54 2585.76,-57.5001 2585.76,-50.5001"/>
</g>
<!-- Node25 -->
<g id="node25" class="node"><title>Node25</title>
<g id="a_node25"><a xlink:href="../../dc/d3b/classui_1_1_g_u_i.html#a2edc294ba07311e6c4b85c9fe749d1bf" target="_top" xlink:title="ui.GUI.createNewWorkspace">
<polygon fill="white" stroke="black" points="2798,-44.5 2798,-63.5 2948,-63.5 2948,-44.5 2798,-44.5"/>
<text text-anchor="middle" x="2873" y="-51.5" font-family="Helvetica,sans-Serif" font-size="10.00">ui.GUI.createNewWorkspace</text>
</a>
</g>
</g>
<!-- Node24&#45;&gt;Node25 -->
<g id="edge24" class="edge"><title>Node24&#45;&gt;Node25</title>
<path fill="none" stroke="midnightblue" d="M2772.07,-54C2780.65,-54 2789.34,-54 2797.81,-54"/>
<polygon fill="midnightblue" stroke="midnightblue" points="2772.04,-50.5001 2762.04,-54 2772.04,-57.5001 2772.04,-50.5001"/>
</g>
<!-- Node26 -->
<g id="node26" class="node"><title>Node26</title>
<g id="a_node26"><a xlink:href="../../d0/de6/classui_1_1elements_1_1_menu_bar_element.html#a98c13995a31d997aa10f2950583da6cc" target="_top" xlink:title="ui.elements.MenuBarElement.make\lMenuBar">
<polygon fill="white" stroke="black" points="2984,-39 2984,-69 3172,-69 3172,-39 2984,-39"/>
<text text-anchor="start" x="2992" y="-57" font-family="Helvetica,sans-Serif" font-size="10.00">ui.elements.MenuBarElement.make</text>
<text text-anchor="middle" x="3078" y="-46" font-family="Helvetica,sans-Serif" font-size="10.00">MenuBar</text>
</a>
</g>
</g>
<!-- Node25&#45;&gt;Node26 -->
<g id="edge25" class="edge"><title>Node25&#45;&gt;Node26</title>
<path fill="none" stroke="midnightblue" d="M2958.28,-54C2966.66,-54 2975.21,-54 2983.68,-54"/>
<polygon fill="midnightblue" stroke="midnightblue" points="2958.15,-50.5001 2948.15,-54 2958.15,-57.5001 2958.15,-50.5001"/>
</g>
<!-- Node27 -->
<g id="node27" class="node"><title>Node27</title>
<g id="a_node27"><a xlink:href="../../d0/de6/classui_1_1elements_1_1_menu_bar_element.html#a7bdb58f78cf8b61ba28498c5c86ab682" target="_top" xlink:title="ui.elements.MenuBarElement.init">
<polygon fill="white" stroke="black" points="3208,-44.5 3208,-63.5 3384,-63.5 3384,-44.5 3208,-44.5"/>
<text text-anchor="middle" x="3296" y="-51.5" font-family="Helvetica,sans-Serif" font-size="10.00">ui.elements.MenuBarElement.init</text>
</a>
</g>
</g>
<!-- Node26&#45;&gt;Node27 -->
<g id="edge26" class="edge"><title>Node26&#45;&gt;Node27</title>
<path fill="none" stroke="midnightblue" d="M3182.23,-54C3190.83,-54 3199.48,-54 3207.94,-54"/>
<polygon fill="midnightblue" stroke="midnightblue" points="3182.17,-50.5001 3172.17,-54 3182.17,-57.5001 3182.17,-50.5001"/>
</g>
<!-- Node28 -->
<g id="node28" class="node"><title>Node28</title>
<g id="a_node28"><a xlink:href="../../d0/de6/classui_1_1elements_1_1_menu_bar_element.html#ab4a4e6841c924a9d9c70b8073b56dffc" target="_top" xlink:title="ui.elements.MenuBarElement.\lMenuBarElement">
<polygon fill="white" stroke="black" points="3420.5,-39 3420.5,-69 3581.5,-69 3581.5,-39 3420.5,-39"/>
<text text-anchor="start" x="3428.5" y="-57" font-family="Helvetica,sans-Serif" font-size="10.00">ui.elements.MenuBarElement.</text>
<text text-anchor="middle" x="3501" y="-46" font-family="Helvetica,sans-Serif" font-size="10.00">MenuBarElement</text>
</a>
</g>
</g>
<!-- Node27&#45;&gt;Node28 -->
<g id="edge27" class="edge"><title>Node27&#45;&gt;Node28</title>
<path fill="none" stroke="midnightblue" d="M3394.47,-54C3403.19,-54 3411.95,-54 3420.5,-54"/>
<polygon fill="midnightblue" stroke="midnightblue" points="3394.27,-50.5001 3384.27,-54 3394.27,-57.5001 3394.27,-50.5001"/>
</g>
</g>
</svg>
