<?xml version="1.0" encoding="UTF-8" standalone="no"?>
<!DOCTYPE svg PUBLIC "-//W3C//DTD SVG 1.1//EN"
 "http://www.w3.org/Graphics/SVG/1.1/DTD/svg11.dtd">
<!-- Generated by graphviz version 2.36.0 (20140111.2315)
 -->
<!-- Title: model.Turtle Pages: 1 -->
<svg width="147pt" height="96pt"
 viewBox="0.00 0.00 147.00 96.00" xmlns="http://www.w3.org/2000/svg" xmlns:xlink="http://www.w3.org/1999/xlink">
<g id="graph0" class="graph" transform="scale(1 1) rotate(0) translate(4 92)">
<title>model.Turtle</title>
<polygon fill="white" stroke="none" points="-4,4 -4,-92 143,-92 143,4 -4,4"/>
<!-- Node1 -->
<g id="node1" class="node"><title>Node1</title>
<polygon fill="#bfbfbf" stroke="black" points="34.5,-0.5 34.5,-19.5 109.5,-19.5 109.5,-0.5 34.5,-0.5"/>
<text text-anchor="middle" x="72" y="-7.5" font-family="Helvetica,sans-Serif" font-size="10.00">model.Turtle</text>
</g>
<!-- Node2 -->
<g id="node2" class="node"><title>Node2</title>
<polygon fill="white" stroke="#bfbfbf" points="-0.5,-68.5 -0.5,-87.5 70.5,-87.5 70.5,-68.5 -0.5,-68.5"/>
<text text-anchor="middle" x="35" y="-75.5" font-family="Helvetica,sans-Serif" font-size="10.00">Observable</text>
</g>
<!-- Node2&#45;&gt;Node1 -->
<g id="edge1" class="edge"><title>Node2&#45;&gt;Node1</title>
<path fill="none" stroke="midnightblue" d="M44.7753,-59.563C51.9407,-46.7815 61.371,-29.9599 67.0436,-19.8411"/>
<polygon fill="midnightblue" stroke="midnightblue" points="41.6742,-57.9373 39.8371,-68.3717 47.7802,-61.3604 41.6742,-57.9373"/>
</g>
<!-- Node3 -->
<g id="node3" class="node"><title>Node3</title>
<polygon fill="white" stroke="#bfbfbf" points="88.5,-68.5 88.5,-87.5 129.5,-87.5 129.5,-68.5 88.5,-68.5"/>
<text text-anchor="middle" x="109" y="-75.5" font-family="Helvetica,sans-Serif" font-size="10.00">Color</text>
</g>
<!-- Node3&#45;&gt;Node1 -->
<g id="edge2" class="edge"><title>Node3&#45;&gt;Node1</title>
<path fill="none" stroke="#9a32cd" stroke-dasharray="5,2" d="M99.2247,-59.563C92.0593,-46.7815 82.629,-29.9599 76.9564,-19.8411"/>
<polygon fill="#9a32cd" stroke="#9a32cd" points="96.2198,-61.3604 104.163,-68.3717 102.326,-57.9373 96.2198,-61.3604"/>
<text text-anchor="middle" x="116" y="-41.5" font-family="Helvetica,sans-Serif" font-size="10.00"> penColor</text>
</g>
</g>
</svg>
