<?xml version="1.0" encoding="UTF-8" standalone="no"?>
<!DOCTYPE svg PUBLIC "-//W3C//DTD SVG 1.1//EN"
 "http://www.w3.org/Graphics/SVG/1.1/DTD/svg11.dtd">
<!-- Generated by graphviz version 2.36.0 (20140111.2315)
 -->
<!-- Title: parser.CommandTreeNode.add Pages: 1 -->
<!--zoomable 229 -->
<svg id="main" version="1.1" xmlns="http://www.w3.org/2000/svg" xmlns:xlink="http://www.w3.org/1999/xlink" xml:space="preserve" onload="init(evt)">
<style type="text/css"><![CDATA[
.edge:hover path { stroke: red; }
.edge:hover polygon { stroke: red; fill: red; }
]]></style>
<script type="text/javascript"><![CDATA[
var edges = document.getElementsByTagName('g');
if (edges && edges.length) {
  for (var i=0;i<edges.length;i++) {
    if (edges[i].id.substr(0,4)=='edge') {
      edges[i].setAttribute('class','edge');
    }
  }
}
]]></script>
        <defs>
                <circle id="rim" cx="0" cy="0" r="7"/>
                <circle id="rim2" cx="0" cy="0" r="3.5"/>
                <g id="zoomPlus">
                        <use xlink:href="#rim" fill="#404040">
                                <set attributeName="fill" to="#808080" begin="zoomplus.mouseover" end="zoomplus.mouseout"/>
                        </use>
                        <path d="M-4,0h8M0,-4v8" fill="none" stroke="white" stroke-width="1.5" pointer-events="none"/>
                </g>
                <g id="zoomMin">
                        <use xlink:href="#rim" fill="#404040">
                                <set attributeName="fill" to="#808080" begin="zoomminus.mouseover" end="zoomminus.mouseout"/>
                        </use>
                        <path d="M-4,0h8" fill="none" stroke="white" stroke-width="1.5" pointer-events="none"/>
                </g>
                <g id="dirArrow">
                        <path fill="none" stroke="white" stroke-width="1.5" d="M0,-3.0v7 M-2.5,-0.5L0,-3.0L2.5,-0.5"/>
                </g>
               <g id="resetDef">
                       <use xlink:href="#rim2" fill="#404040">
                               <set attributeName="fill" to="#808080" begin="reset.mouseover" end="reset.mouseout"/>
                       </use>
               </g>
        </defs>

<script type="text/javascript">
var viewWidth = 576;
var viewHeight = 229;
var sectionId = 'dynsection-1';
</script>
<script xlink:href="../../svgpan.js"/>
<svg id="graph" class="graph">
<g id="viewport">
<title>parser.CommandTreeNode.add</title>
<polygon fill="white" stroke="none" points="-4,4 -4,-225 572,-225 572,4 -4,4"/>
<!-- Node1 -->
<g id="node1" class="node"><title>Node1</title>
<polygon fill="#bfbfbf" stroke="black" points="0,-95.5 0,-114.5 166,-114.5 166,-95.5 0,-95.5"/>
<text text-anchor="middle" x="83" y="-102.5" font-family="Helvetica,sans-Serif" font-size="10.00">parser.CommandTreeNode.add</text>
</g>
<!-- Node2 -->
<g id="node2" class="node"><title>Node2</title>
<g id="a_node2"><a xlink:href="../../d5/d30/classparser_1_1_command_case.html#a02f0603f41bb9fa479d9608a195f203d" target="_top" xlink:title="parser.CommandCase.making\lInstructionsCase">
<polygon fill="white" stroke="black" points="204,-191 204,-221 366,-221 366,-191 204,-191"/>
<text text-anchor="start" x="212" y="-209" font-family="Helvetica,sans-Serif" font-size="10.00">parser.CommandCase.making</text>
<text text-anchor="middle" x="285" y="-198" font-family="Helvetica,sans-Serif" font-size="10.00">InstructionsCase</text>
</a>
</g>
</g>
<!-- Node1&#45;&gt;Node2 -->
<g id="edge1" class="edge"><title>Node1&#45;&gt;Node2</title>
<path fill="none" stroke="midnightblue" d="M106.486,-120.307C129.71,-135.686 167.347,-159.423 202,-176 213.35,-181.43 225.96,-186.492 237.82,-190.854"/>
<polygon fill="midnightblue" stroke="midnightblue" points="108.298,-117.309 98.0393,-114.661 104.408,-123.128 108.298,-117.309"/>
</g>
<!-- Node3 -->
<g id="node3" class="node"><title>Node3</title>
<g id="a_node3"><a xlink:href="../../d5/d30/classparser_1_1_command_case.html#a65e1e45269c10f4611f02192244755c3" target="_top" xlink:title="parser.CommandCase.recurse">
<polygon fill="white" stroke="black" points="404.5,-174.5 404.5,-193.5 567.5,-193.5 567.5,-174.5 404.5,-174.5"/>
<text text-anchor="middle" x="486" y="-181.5" font-family="Helvetica,sans-Serif" font-size="10.00">parser.CommandCase.recurse</text>
</a>
</g>
</g>
<!-- Node1&#45;&gt;Node3 -->
<g id="edge7" class="edge"><title>Node1&#45;&gt;Node3</title>
<path fill="none" stroke="midnightblue" d="M118.873,-117.933C142.139,-126.138 173.564,-136.411 202,-143 269.467,-158.634 347.439,-169.404 404.434,-175.969"/>
<polygon fill="midnightblue" stroke="midnightblue" points="120.028,-114.63 109.433,-114.561 117.673,-121.221 120.028,-114.63"/>
</g>
<!-- Node4 -->
<g id="node4" class="node"><title>Node4</title>
<g id="a_node4"><a xlink:href="../../df/d5d/classparser_1_1_variable_case.html#a20ff8b5f80ef27bdf7ff62f9ee5c08a8" target="_top" xlink:title="parser.VariableCase.recurse">
<polygon fill="white" stroke="black" points="209.5,-114.5 209.5,-133.5 360.5,-133.5 360.5,-114.5 209.5,-114.5"/>
<text text-anchor="middle" x="285" y="-121.5" font-family="Helvetica,sans-Serif" font-size="10.00">parser.VariableCase.recurse</text>
</a>
</g>
</g>
<!-- Node1&#45;&gt;Node4 -->
<g id="edge3" class="edge"><title>Node1&#45;&gt;Node4</title>
<path fill="none" stroke="midnightblue" d="M176.356,-113.774C187.456,-114.828 198.682,-115.895 209.484,-116.921"/>
<polygon fill="midnightblue" stroke="midnightblue" points="176.5,-110.272 166.213,-112.81 175.838,-117.24 176.5,-110.272"/>
</g>
<!-- Node5 -->
<g id="node5" class="node"><title>Node5</title>
<g id="a_node5"><a xlink:href="../../da/db7/classparser_1_1_list_start_case.html#a497e0fc6331cd969a3398c3f895afa92" target="_top" xlink:title="parser.ListStartCase.recurse">
<polygon fill="white" stroke="black" points="208.5,-76.5 208.5,-95.5 361.5,-95.5 361.5,-76.5 208.5,-76.5"/>
<text text-anchor="middle" x="285" y="-83.5" font-family="Helvetica,sans-Serif" font-size="10.00">parser.ListStartCase.recurse</text>
</a>
</g>
</g>
<!-- Node1&#45;&gt;Node5 -->
<g id="edge4" class="edge"><title>Node1&#45;&gt;Node5</title>
<path fill="none" stroke="midnightblue" d="M176.379,-96.224C187.035,-95.2116 197.808,-94.1882 208.209,-93.2002"/>
<polygon fill="midnightblue" stroke="midnightblue" points="175.838,-92.7596 166.213,-97.1897 176.5,-99.7282 175.838,-92.7596"/>
</g>
<!-- Node6 -->
<g id="node6" class="node"><title>Node6</title>
<g id="a_node6"><a xlink:href="../../df/d34/classparser_1_1_group_start_case.html#a605643dc0d07e20e571714c2200e1259" target="_top" xlink:title="parser.GroupStartCase.recurse">
<polygon fill="white" stroke="black" points="202,-38.5 202,-57.5 368,-57.5 368,-38.5 202,-38.5"/>
<text text-anchor="middle" x="285" y="-45.5" font-family="Helvetica,sans-Serif" font-size="10.00">parser.GroupStartCase.recurse</text>
</a>
</g>
</g>
<!-- Node1&#45;&gt;Node6 -->
<g id="edge5" class="edge"><title>Node1&#45;&gt;Node6</title>
<path fill="none" stroke="midnightblue" d="M121.206,-92.1343C144.315,-84.3643 174.714,-74.5405 202,-67 214.113,-63.6525 227.342,-60.4099 239.57,-57.5794"/>
<polygon fill="midnightblue" stroke="midnightblue" points="119.809,-88.9122 111.46,-95.4347 122.054,-95.5423 119.809,-88.9122"/>
</g>
<!-- Node7 -->
<g id="node7" class="node"><title>Node7</title>
<g id="a_node7"><a xlink:href="../../d9/d14/classparser_1_1_constant_case.html#a84fdd34b3b0f33742f2d2acb9af23c9c" target="_top" xlink:title="parser.ConstantCase.recurse">
<polygon fill="white" stroke="black" points="207,-0.5 207,-19.5 363,-19.5 363,-0.5 207,-0.5"/>
<text text-anchor="middle" x="285" y="-7.5" font-family="Helvetica,sans-Serif" font-size="10.00">parser.ConstantCase.recurse</text>
</a>
</g>
</g>
<!-- Node1&#45;&gt;Node7 -->
<g id="edge6" class="edge"><title>Node1&#45;&gt;Node7</title>
<path fill="none" stroke="midnightblue" d="M104.057,-88.979C126.612,-71.7298 164.947,-44.6631 202,-29 211.018,-25.1878 220.933,-22.0696 230.657,-19.5432"/>
<polygon fill="midnightblue" stroke="midnightblue" points="101.697,-86.3798 95.9488,-95.2795 105.993,-91.9072 101.697,-86.3798"/>
</g>
<!-- Node2&#45;&gt;Node3 -->
<g id="edge2" class="edge"><title>Node2&#45;&gt;Node3</title>
<path fill="none" stroke="midnightblue" d="M376.226,-196.025C385.631,-194.986 395.147,-193.933 404.435,-192.907"/>
<polygon fill="midnightblue" stroke="midnightblue" points="375.636,-192.569 366.081,-197.147 376.405,-199.527 375.636,-192.569"/>
</g>
</g>
</svg>
        <g id="navigator" transform="translate(0 0)" fill="#404254">
                <rect fill="#f2f5e9" fill-opacity="0.5" stroke="#606060" stroke-width=".5" x="0" y="0" width="60" height="60"/>
                <use id="zoomplus" xlink:href="#zoomPlus" x="17" y="9" onmousedown="handleZoom(evt,'in')"/>
                <use id="zoomminus" xlink:href="#zoomMin" x="42" y="9" onmousedown="handleZoom(evt,'out')"/>
                <use id="reset" xlink:href="#resetDef" x="30" y="36" onmousedown="handleReset()"/>
                <g id="arrowUp" xlink:href="#dirArrow" transform="translate(30 24)" onmousedown="handlePan(0,-1)">
                  <use xlink:href="#rim" fill="#404040">
                        <set attributeName="fill" to="#808080" begin="arrowUp.mouseover" end="arrowUp.mouseout"/>
                  </use>
                  <path fill="none" stroke="white" stroke-width="1.5" d="M0,-3.0v7 M-2.5,-0.5L0,-3.0L2.5,-0.5"/>
                </g>
                <g id="arrowRight" xlink:href="#dirArrow" transform="rotate(90) translate(36 -43)" onmousedown="handlePan(1,0)">
                  <use xlink:href="#rim" fill="#404040">
                        <set attributeName="fill" to="#808080" begin="arrowRight.mouseover" end="arrowRight.mouseout"/>
                  </use>
                  <path fill="none" stroke="white" stroke-width="1.5" d="M0,-3.0v7 M-2.5,-0.5L0,-3.0L2.5,-0.5"/>
                </g>
                <g id="arrowDown" xlink:href="#dirArrow" transform="rotate(180) translate(-30 -48)" onmousedown="handlePan(0,1)">
                  <use xlink:href="#rim" fill="#404040">
                        <set attributeName="fill" to="#808080" begin="arrowDown.mouseover" end="arrowDown.mouseout"/>
                  </use>
                  <path fill="none" stroke="white" stroke-width="1.5" d="M0,-3.0v7 M-2.5,-0.5L0,-3.0L2.5,-0.5"/>
                </g>
                <g id="arrowLeft" xlink:href="#dirArrow" transform="rotate(270) translate(-36 17)" onmousedown="handlePan(-1,0)">
                  <use xlink:href="#rim" fill="#404040">
                        <set attributeName="fill" to="#808080" begin="arrowLeft.mouseover" end="arrowLeft.mouseout"/>
                  </use>
                  <path fill="none" stroke="white" stroke-width="1.5" d="M0,-3.0v7 M-2.5,-0.5L0,-3.0L2.5,-0.5"/>
                </g>
        </g>
        <svg viewBox="0 0 15 15" width="100%" height="30px" preserveAspectRatio="xMaxYMin meet">
         <g id="arrow_out" transform="scale(0.3 0.3)">
          <a xlink:href="classparser_1_1_command_tree_node_ad6cbb5376973ef15c1831187b297d071_icgraph_org.svg" target="_base">
           <rect id="button" ry="5" rx="5" y="6" x="6" height="38" width="38"
                fill="#f2f5e9" fill-opacity="0.5" stroke="#606060" stroke-width="1.0"/>
           <path id="arrow"
             d="M 11.500037,31.436501 C 11.940474,20.09759 22.043105,11.32322 32.158766,21.979434 L 37.068811,17.246167 C 37.068811,17.246167 37.088388,32 37.088388,32 L 22.160133,31.978069 C 22.160133,31.978069 26.997745,27.140456 26.997745,27.140456 C 18.528582,18.264221 13.291696,25.230495 11.500037,31.436501 z"
             style="fill:#404040;"/>
          </a>
         </g>
        </svg>
</svg>
