<?xml version="1.0" encoding="UTF-8" standalone="no"?>
<!DOCTYPE svg PUBLIC "-//W3C//DTD SVG 1.1//EN"
 "http://www.w3.org/Graphics/SVG/1.1/DTD/svg11.dtd">
<!-- Generated by graphviz version 2.36.0 (20140111.2315)
 -->
<!-- Title: parser.CommandTreeNode.getName Pages: 1 -->
<!--zoomable 502 -->
<svg id="main" version="1.1" xmlns="http://www.w3.org/2000/svg" xmlns:xlink="http://www.w3.org/1999/xlink" xml:space="preserve" onload="init(evt)">
<style type="text/css"><![CDATA[
.edge:hover path { stroke: red; }
.edge:hover polygon { stroke: red; fill: red; }
]]></style>
<script type="text/javascript"><![CDATA[
var edges = document.getElementsByTagName('g');
if (edges && edges.length) {
  for (var i=0;i<edges.length;i++) {
    if (edges[i].id.substr(0,4)=='edge') {
      edges[i].setAttribute('class','edge');
    }
  }
}
]]></script>
        <defs>
                <circle id="rim" cx="0" cy="0" r="7"/>
                <circle id="rim2" cx="0" cy="0" r="3.5"/>
                <g id="zoomPlus">
                        <use xlink:href="#rim" fill="#404040">
                                <set attributeName="fill" to="#808080" begin="zoomplus.mouseover" end="zoomplus.mouseout"/>
                        </use>
                        <path d="M-4,0h8M0,-4v8" fill="none" stroke="white" stroke-width="1.5" pointer-events="none"/>
                </g>
                <g id="zoomMin">
                        <use xlink:href="#rim" fill="#404040">
                                <set attributeName="fill" to="#808080" begin="zoomminus.mouseover" end="zoomminus.mouseout"/>
                        </use>
                        <path d="M-4,0h8" fill="none" stroke="white" stroke-width="1.5" pointer-events="none"/>
                </g>
                <g id="dirArrow">
                        <path fill="none" stroke="white" stroke-width="1.5" d="M0,-3.0v7 M-2.5,-0.5L0,-3.0L2.5,-0.5"/>
                </g>
               <g id="resetDef">
                       <use xlink:href="#rim2" fill="#404040">
                               <set attributeName="fill" to="#808080" begin="reset.mouseover" end="reset.mouseout"/>
                       </use>
               </g>
        </defs>

<script type="text/javascript">
var viewWidth = 3680;
var viewHeight = 502;
var sectionId = 'dynsection-3';
</script>
<script xlink:href="../../svgpan.js"/>
<svg id="graph" class="graph">
<g id="viewport">
<title>parser.CommandTreeNode.getName</title>
<polygon fill="white" stroke="none" points="-4,4 -4,-498 3676,-498 3676,4 -4,4"/>
<!-- Node1 -->
<g id="node1" class="node"><title>Node1</title>
<polygon fill="#bfbfbf" stroke="black" points="0.5,-196.5 0.5,-215.5 193.5,-215.5 193.5,-196.5 0.5,-196.5"/>
<text text-anchor="middle" x="97" y="-203.5" font-family="Helvetica,sans-Serif" font-size="10.00">parser.CommandTreeNode.getName</text>
</g>
<!-- Node2 -->
<g id="node2" class="node"><title>Node2</title>
<g id="a_node2"><a xlink:href="../../d5/d8e/classcommand_1_1control_1_1_make_variable_command.html#a8f9ffb360b0bc51047bf673464598c90" target="_top" xlink:title="command.control.MakeVariable\lCommand.calculateValue">
<polygon fill="white" stroke="black" points="255,-426 255,-456 423,-456 423,-426 255,-426"/>
<text text-anchor="start" x="263" y="-444" font-family="Helvetica,sans-Serif" font-size="10.00">command.control.MakeVariable</text>
<text text-anchor="middle" x="339" y="-433" font-family="Helvetica,sans-Serif" font-size="10.00">Command.calculateValue</text>
</a>
</g>
</g>
<!-- Node1&#45;&gt;Node2 -->
<g id="edge1" class="edge"><title>Node1&#45;&gt;Node2</title>
<path fill="none" stroke="midnightblue" d="M105.016,-225.54C120.729,-266.459 162.733,-361.455 230,-411 238.383,-417.174 247.979,-422.078 257.914,-425.973"/>
<polygon fill="midnightblue" stroke="midnightblue" points="108.208,-224.084 101.434,-215.937 101.65,-226.53 108.208,-224.084"/>
</g>
<!-- Node3 -->
<g id="node3" class="node"><title>Node3</title>
<g id="a_node3"><a xlink:href="../../d0/d05/classparser_1_1_tree_generator.html#acf44e3a80bec76756c2bb09124dc4c8d" target="_top" xlink:title="parser.TreeGenerator.create\lCommands">
<polygon fill="white" stroke="black" points="700.5,-436 700.5,-466 851.5,-466 851.5,-436 700.5,-436"/>
<text text-anchor="start" x="708.5" y="-454" font-family="Helvetica,sans-Serif" font-size="10.00">parser.TreeGenerator.create</text>
<text text-anchor="middle" x="776" y="-443" font-family="Helvetica,sans-Serif" font-size="10.00">Commands</text>
</a>
</g>
</g>
<!-- Node1&#45;&gt;Node3 -->
<g id="edge2" class="edge"><title>Node1&#45;&gt;Node3</title>
<path fill="none" stroke="midnightblue" d="M106.676,-225.416C124.153,-262.016 167.352,-340.781 230,-377 250.15,-388.649 555.82,-425.487 700.347,-442.382"/>
<polygon fill="midnightblue" stroke="midnightblue" points="109.641,-223.49 102.258,-215.891 103.291,-226.436 109.641,-223.49"/>
</g>
<!-- Node21 -->
<g id="node21" class="node"><title>Node21</title>
<g id="a_node21"><a xlink:href="../../d9/d88/classmodel_1_1_tree_interpreter.html#af4d24e7867eb3a4a53f79f4a9288f9fd" target="_top" xlink:title="model.TreeInterpreter.execute\lCommand">
<polygon fill="white" stroke="black" points="258.5,-338 258.5,-368 419.5,-368 419.5,-338 258.5,-338"/>
<text text-anchor="start" x="266.5" y="-356" font-family="Helvetica,sans-Serif" font-size="10.00">model.TreeInterpreter.execute</text>
<text text-anchor="middle" x="339" y="-345" font-family="Helvetica,sans-Serif" font-size="10.00">Command</text>
</a>
</g>
</g>
<!-- Node1&#45;&gt;Node21 -->
<g id="edge20" class="edge"><title>Node1&#45;&gt;Node21</title>
<path fill="none" stroke="midnightblue" d="M112.968,-223.6C135.693,-249.214 181.418,-296.58 230,-323 241.112,-329.043 253.544,-333.951 265.909,-337.912"/>
<polygon fill="midnightblue" stroke="midnightblue" points="115.384,-221.044 106.173,-215.809 110.108,-225.646 115.384,-221.044"/>
</g>
<!-- Node22 -->
<g id="node22" class="node"><title>Node22</title>
<g id="a_node22"><a xlink:href="../../d9/d88/classmodel_1_1_tree_interpreter.html#a3e460e5ebe66f781afb480f0f0ec2ce7" target="_top" xlink:title="model.TreeInterpreter.update">
<polygon fill="white" stroke="black" points="488,-299.5 488,-318.5 644,-318.5 644,-299.5 488,-299.5"/>
<text text-anchor="middle" x="566" y="-306.5" font-family="Helvetica,sans-Serif" font-size="10.00">model.TreeInterpreter.update</text>
</a>
</g>
</g>
<!-- Node1&#45;&gt;Node22 -->
<g id="edge40" class="edge"><title>Node1&#45;&gt;Node22</title>
<path fill="none" stroke="midnightblue" d="M116.716,-222.127C140.986,-241.953 185.499,-274.722 230,-289 315.158,-316.323 418.636,-318.07 487.847,-315.089"/>
<polygon fill="midnightblue" stroke="midnightblue" points="118.933,-219.418 109.009,-215.706 114.452,-224.796 118.933,-219.418"/>
</g>
<!-- Node32 -->
<g id="node32" class="node"><title>Node32</title>
<g id="a_node32"><a xlink:href="../../d7/dac/classcommand_1_1control_1_1_make_user_instruction_command.html#a0350d4136e51ec18d57d4d8a05f7afd6" target="_top" xlink:title="command.control.MakeUser\lInstructionCommand.MakeUserInstruction\lCommand">
<polygon fill="white" stroke="black" points="230,-239.5 230,-280.5 448,-280.5 448,-239.5 230,-239.5"/>
<text text-anchor="start" x="238" y="-268.5" font-family="Helvetica,sans-Serif" font-size="10.00">command.control.MakeUser</text>
<text text-anchor="start" x="238" y="-257.5" font-family="Helvetica,sans-Serif" font-size="10.00">InstructionCommand.MakeUserInstruction</text>
<text text-anchor="middle" x="339" y="-246.5" font-family="Helvetica,sans-Serif" font-size="10.00">Command</text>
</a>
</g>
</g>
<!-- Node1&#45;&gt;Node32 -->
<g id="edge32" class="edge"><title>Node1&#45;&gt;Node32</title>
<path fill="none" stroke="midnightblue" d="M150.398,-217.79C178.622,-224.14 214.25,-232.156 246.856,-239.493"/>
<polygon fill="midnightblue" stroke="midnightblue" points="150.879,-214.31 140.355,-215.53 149.343,-221.14 150.879,-214.31"/>
</g>
<!-- Node33 -->
<g id="node33" class="node"><title>Node33</title>
<g id="a_node33"><a xlink:href="../../d5/d30/classparser_1_1_command_case.html#a02f0603f41bb9fa479d9608a195f203d" target="_top" xlink:title="parser.CommandCase.making\lInstructionsCase">
<polygon fill="white" stroke="black" points="258,-191 258,-221 420,-221 420,-191 258,-191"/>
<text text-anchor="start" x="266" y="-209" font-family="Helvetica,sans-Serif" font-size="10.00">parser.CommandCase.making</text>
<text text-anchor="middle" x="339" y="-198" font-family="Helvetica,sans-Serif" font-size="10.00">InstructionsCase</text>
</a>
</g>
</g>
<!-- Node1&#45;&gt;Node33 -->
<g id="edge33" class="edge"><title>Node1&#45;&gt;Node33</title>
<path fill="none" stroke="midnightblue" d="M203.6,-206C221.802,-206 240.453,-206 257.845,-206"/>
<polygon fill="midnightblue" stroke="midnightblue" points="203.544,-202.5 193.544,-206 203.544,-209.5 203.544,-202.5"/>
</g>
<!-- Node34 -->
<g id="node34" class="node"><title>Node34</title>
<g id="a_node34"><a xlink:href="../../d5/d30/classparser_1_1_command_case.html#a65e1e45269c10f4611f02192244755c3" target="_top" xlink:title="parser.CommandCase.recurse">
<polygon fill="white" stroke="black" points="484.5,-174.5 484.5,-193.5 647.5,-193.5 647.5,-174.5 484.5,-174.5"/>
<text text-anchor="middle" x="566" y="-181.5" font-family="Helvetica,sans-Serif" font-size="10.00">parser.CommandCase.recurse</text>
</a>
</g>
</g>
<!-- Node1&#45;&gt;Node34 -->
<g id="edge39" class="edge"><title>Node1&#45;&gt;Node34</title>
<path fill="none" stroke="midnightblue" d="M147.423,-194.366C172.078,-189.146 202.447,-183.586 230,-181 326.465,-171.946 351.119,-179.758 448,-181 459.784,-181.151 472.234,-181.388 484.444,-181.663"/>
<polygon fill="midnightblue" stroke="midnightblue" points="146.614,-190.961 137.58,-196.497 148.094,-197.802 146.614,-190.961"/>
</g>
<!-- Node35 -->
<g id="node35" class="node"><title>Node35</title>
<g id="a_node35"><a xlink:href="../../df/d5d/classparser_1_1_variable_case.html#a20ff8b5f80ef27bdf7ff62f9ee5c08a8" target="_top" xlink:title="parser.VariableCase.recurse">
<polygon fill="white" stroke="black" points="263.5,-114.5 263.5,-133.5 414.5,-133.5 414.5,-114.5 263.5,-114.5"/>
<text text-anchor="middle" x="339" y="-121.5" font-family="Helvetica,sans-Serif" font-size="10.00">parser.VariableCase.recurse</text>
</a>
</g>
</g>
<!-- Node1&#45;&gt;Node35 -->
<g id="edge35" class="edge"><title>Node1&#45;&gt;Node35</title>
<path fill="none" stroke="midnightblue" d="M125.772,-191.89C152.064,-178.994 192.922,-160.137 230,-148 247.798,-142.174 267.705,-137.305 285.532,-133.508"/>
<polygon fill="midnightblue" stroke="midnightblue" points="124.184,-188.77 116.779,-196.348 127.293,-195.042 124.184,-188.77"/>
</g>
<!-- Node36 -->
<g id="node36" class="node"><title>Node36</title>
<g id="a_node36"><a xlink:href="../../df/d34/classparser_1_1_group_start_case.html#a605643dc0d07e20e571714c2200e1259" target="_top" xlink:title="parser.GroupStartCase.recurse">
<polygon fill="white" stroke="black" points="256,-76.5 256,-95.5 422,-95.5 422,-76.5 256,-76.5"/>
<text text-anchor="middle" x="339" y="-83.5" font-family="Helvetica,sans-Serif" font-size="10.00">parser.GroupStartCase.recurse</text>
</a>
</g>
</g>
<!-- Node1&#45;&gt;Node36 -->
<g id="edge36" class="edge"><title>Node1&#45;&gt;Node36</title>
<path fill="none" stroke="midnightblue" d="M114.545,-188.992C137.975,-166.006 183.202,-125.542 230,-105 238.891,-101.097 248.525,-97.9957 258.254,-95.5306"/>
<polygon fill="midnightblue" stroke="midnightblue" points="111.8,-186.788 107.201,-196.332 116.748,-191.739 111.8,-186.788"/>
</g>
<!-- Node37 -->
<g id="node37" class="node"><title>Node37</title>
<g id="a_node37"><a xlink:href="../../da/db7/classparser_1_1_list_start_case.html#a497e0fc6331cd969a3398c3f895afa92" target="_top" xlink:title="parser.ListStartCase.recurse">
<polygon fill="white" stroke="black" points="262.5,-38.5 262.5,-57.5 415.5,-57.5 415.5,-38.5 262.5,-38.5"/>
<text text-anchor="middle" x="339" y="-45.5" font-family="Helvetica,sans-Serif" font-size="10.00">parser.ListStartCase.recurse</text>
</a>
</g>
</g>
<!-- Node1&#45;&gt;Node37 -->
<g id="edge37" class="edge"><title>Node1&#45;&gt;Node37</title>
<path fill="none" stroke="midnightblue" d="M109.456,-187.855C129.723,-157.421 174.995,-96.529 230,-67 239.98,-61.6421 251.156,-57.7485 262.431,-54.9278"/>
<polygon fill="midnightblue" stroke="midnightblue" points="106.511,-185.964 103.986,-196.253 112.376,-189.784 106.511,-185.964"/>
</g>
<!-- Node38 -->
<g id="node38" class="node"><title>Node38</title>
<g id="a_node38"><a xlink:href="../../d9/d14/classparser_1_1_constant_case.html#a84fdd34b3b0f33742f2d2acb9af23c9c" target="_top" xlink:title="parser.ConstantCase.recurse">
<polygon fill="white" stroke="black" points="261,-0.5 261,-19.5 417,-19.5 417,-0.5 261,-0.5"/>
<text text-anchor="middle" x="339" y="-7.5" font-family="Helvetica,sans-Serif" font-size="10.00">parser.ConstantCase.recurse</text>
</a>
</g>
</g>
<!-- Node1&#45;&gt;Node38 -->
<g id="edge38" class="edge"><title>Node1&#45;&gt;Node38</title>
<path fill="none" stroke="midnightblue" d="M106.151,-187.144C123.216,-150.124 166.454,-68.1421 230,-29 239.402,-23.2089 250.087,-19.0667 260.991,-16.1233"/>
<polygon fill="midnightblue" stroke="midnightblue" points="102.935,-185.764 102.037,-196.321 109.322,-188.628 102.935,-185.764"/>
</g>
<!-- Node4 -->
<g id="node4" class="node"><title>Node4</title>
<g id="a_node4"><a xlink:href="../../d9/df7/classcontroller_1_1_controller.html#a3d81fb1a57114f96fb6c319f4c5df370" target="_top" xlink:title="controller.Controller.parse\lCommand">
<polygon fill="white" stroke="black" points="955,-450 955,-480 1095,-480 1095,-450 955,-450"/>
<text text-anchor="start" x="963" y="-468" font-family="Helvetica,sans-Serif" font-size="10.00">controller.Controller.parse</text>
<text text-anchor="middle" x="1025" y="-457" font-family="Helvetica,sans-Serif" font-size="10.00">Command</text>
</a>
</g>
</g>
<!-- Node3&#45;&gt;Node4 -->
<g id="edge3" class="edge"><title>Node3&#45;&gt;Node4</title>
<path fill="none" stroke="midnightblue" d="M861.929,-455.814C892.286,-457.534 926.1,-459.451 954.954,-461.086"/>
<polygon fill="midnightblue" stroke="midnightblue" points="861.961,-452.31 851.778,-455.238 861.564,-459.299 861.961,-452.31"/>
</g>
<!-- Node5 -->
<g id="node5" class="node"><title>Node5</title>
<g id="a_node5"><a xlink:href="../../d5/d06/classui_1_1_scene_updater.html#ab77a04f8b0038429b09237aac18906e8" target="_top" xlink:title="ui.SceneUpdater.sendCommands">
<polygon fill="white" stroke="black" points="1182,-455.5 1182,-474.5 1360,-474.5 1360,-455.5 1182,-455.5"/>
<text text-anchor="middle" x="1271" y="-462.5" font-family="Helvetica,sans-Serif" font-size="10.00">ui.SceneUpdater.sendCommands</text>
</a>
</g>
</g>
<!-- Node4&#45;&gt;Node5 -->
<g id="edge4" class="edge"><title>Node4&#45;&gt;Node5</title>
<path fill="none" stroke="midnightblue" d="M1105.54,-465C1129.92,-465 1156.89,-465 1181.81,-465"/>
<polygon fill="midnightblue" stroke="midnightblue" points="1105.27,-461.5 1095.27,-465 1105.27,-468.5 1105.27,-461.5"/>
</g>
<!-- Node6 -->
<g id="node6" class="node"><title>Node6</title>
<g id="a_node6"><a xlink:href="../../dc/d3b/classui_1_1_g_u_i.html#ad8f08a79a20a498bcaafdc7e2e2ce0a9" target="_top" xlink:title="ui.GUI.parseCommand">
<polygon fill="white" stroke="black" points="1396.5,-455.5 1396.5,-474.5 1521.5,-474.5 1521.5,-455.5 1396.5,-455.5"/>
<text text-anchor="middle" x="1459" y="-462.5" font-family="Helvetica,sans-Serif" font-size="10.00">ui.GUI.parseCommand</text>
</a>
</g>
</g>
<!-- Node5&#45;&gt;Node6 -->
<g id="edge5" class="edge"><title>Node5&#45;&gt;Node6</title>
<path fill="none" stroke="midnightblue" d="M1370.2,-465C1379.13,-465 1388,-465 1396.48,-465"/>
<polygon fill="midnightblue" stroke="midnightblue" points="1370.1,-461.5 1360.1,-465 1370.1,-468.5 1370.1,-461.5"/>
</g>
<!-- Node7 -->
<g id="node7" class="node"><title>Node7</title>
<g id="a_node7"><a xlink:href="../../d8/d3c/classui_1_1elements_1_1_i_o_element.html#a139a046f0c771f86696f2eee04047c64" target="_top" xlink:title="ui.elements.IOElement.init">
<polygon fill="white" stroke="black" points="1574.5,-474.5 1574.5,-493.5 1717.5,-493.5 1717.5,-474.5 1574.5,-474.5"/>
<text text-anchor="middle" x="1646" y="-481.5" font-family="Helvetica,sans-Serif" font-size="10.00">ui.elements.IOElement.init</text>
</a>
</g>
</g>
<!-- Node6&#45;&gt;Node7 -->
<g id="edge6" class="edge"><title>Node6&#45;&gt;Node7</title>
<path fill="none" stroke="midnightblue" d="M1531.68,-472.361C1545.7,-473.802 1560.4,-475.312 1574.39,-476.749"/>
<polygon fill="midnightblue" stroke="midnightblue" points="1531.91,-468.867 1521.6,-471.327 1531.19,-475.83 1531.91,-468.867"/>
</g>
<!-- Node9 -->
<g id="node9" class="node"><title>Node9</title>
<g id="a_node9"><a xlink:href="../../dc/d3b/classui_1_1_g_u_i.html#ab8ec2a37b3d5bd9e8c2abbb3642fb965" target="_top" xlink:title="ui.GUI.setupKeyboardCommands">
<polygon fill="white" stroke="black" points="1558.5,-436.5 1558.5,-455.5 1733.5,-455.5 1733.5,-436.5 1558.5,-436.5"/>
<text text-anchor="middle" x="1646" y="-443.5" font-family="Helvetica,sans-Serif" font-size="10.00">ui.GUI.setupKeyboardCommands</text>
</a>
</g>
</g>
<!-- Node6&#45;&gt;Node9 -->
<g id="edge8" class="edge"><title>Node6&#45;&gt;Node9</title>
<path fill="none" stroke="midnightblue" d="M1531.69,-457.637C1540.41,-456.742 1549.39,-455.82 1558.29,-454.905"/>
<polygon fill="midnightblue" stroke="midnightblue" points="1531.19,-454.17 1521.6,-458.673 1531.91,-461.133 1531.19,-454.17"/>
</g>
<!-- Node8 -->
<g id="node8" class="node"><title>Node8</title>
<g id="a_node8"><a xlink:href="../../d8/d3c/classui_1_1elements_1_1_i_o_element.html#a556e1a3ad292fe3ab731065eef59b187" target="_top" xlink:title="ui.elements.IOElement.IOElement">
<polygon fill="white" stroke="black" points="1770,-474.5 1770,-493.5 1948,-493.5 1948,-474.5 1770,-474.5"/>
<text text-anchor="middle" x="1859" y="-481.5" font-family="Helvetica,sans-Serif" font-size="10.00">ui.elements.IOElement.IOElement</text>
</a>
</g>
</g>
<!-- Node7&#45;&gt;Node8 -->
<g id="edge7" class="edge"><title>Node7&#45;&gt;Node8</title>
<path fill="none" stroke="midnightblue" d="M1727.92,-484C1741.65,-484 1755.97,-484 1769.88,-484"/>
<polygon fill="midnightblue" stroke="midnightblue" points="1727.55,-480.5 1717.55,-484 1727.55,-487.5 1727.55,-480.5"/>
</g>
<!-- Node10 -->
<g id="node10" class="node"><title>Node10</title>
<g id="a_node10"><a xlink:href="../../dc/d3b/classui_1_1_g_u_i.html#a765d554102f38969231261686f2f8e27" target="_top" xlink:title="ui.GUI.initialize">
<polygon fill="white" stroke="black" points="1816,-436.5 1816,-455.5 1902,-455.5 1902,-436.5 1816,-436.5"/>
<text text-anchor="middle" x="1859" y="-443.5" font-family="Helvetica,sans-Serif" font-size="10.00">ui.GUI.initialize</text>
</a>
</g>
</g>
<!-- Node9&#45;&gt;Node10 -->
<g id="edge9" class="edge"><title>Node9&#45;&gt;Node10</title>
<path fill="none" stroke="midnightblue" d="M1743.75,-446C1769.02,-446 1794.96,-446 1815.72,-446"/>
<polygon fill="midnightblue" stroke="midnightblue" points="1743.74,-442.5 1733.74,-446 1743.74,-449.5 1743.74,-442.5"/>
</g>
<!-- Node11 -->
<g id="node11" class="node"><title>Node11</title>
<g id="a_node11"><a xlink:href="../../d5/d06/classui_1_1_scene_updater.html#aeef5dd7a8ec2ad6179e33fdd71ea90d6" target="_top" xlink:title="ui.SceneUpdater.initGUI">
<polygon fill="white" stroke="black" points="1984.5,-436.5 1984.5,-455.5 2115.5,-455.5 2115.5,-436.5 1984.5,-436.5"/>
<text text-anchor="middle" x="2050" y="-443.5" font-family="Helvetica,sans-Serif" font-size="10.00">ui.SceneUpdater.initGUI</text>
</a>
</g>
</g>
<!-- Node10&#45;&gt;Node11 -->
<g id="edge10" class="edge"><title>Node10&#45;&gt;Node11</title>
<path fill="none" stroke="midnightblue" d="M1912.67,-446C1934.92,-446 1961.05,-446 1984.45,-446"/>
<polygon fill="midnightblue" stroke="midnightblue" points="1912.42,-442.5 1902.42,-446 1912.42,-449.5 1912.42,-442.5"/>
</g>
<!-- Node12 -->
<g id="node12" class="node"><title>Node12</title>
<g id="a_node12"><a xlink:href="../../d9/df7/classcontroller_1_1_controller.html#a57e42ba83ee2145e6262cd72eac59570" target="_top" xlink:title="controller.Controller.init">
<polygon fill="white" stroke="black" points="2152.5,-436.5 2152.5,-455.5 2279.5,-455.5 2279.5,-436.5 2152.5,-436.5"/>
<text text-anchor="middle" x="2216" y="-443.5" font-family="Helvetica,sans-Serif" font-size="10.00">controller.Controller.init</text>
</a>
</g>
</g>
<!-- Node11&#45;&gt;Node12 -->
<g id="edge11" class="edge"><title>Node11&#45;&gt;Node12</title>
<path fill="none" stroke="midnightblue" d="M2126.04,-446C2134.81,-446 2143.68,-446 2152.26,-446"/>
<polygon fill="midnightblue" stroke="midnightblue" points="2125.82,-442.5 2115.82,-446 2125.82,-449.5 2125.82,-442.5"/>
</g>
<!-- Node13 -->
<g id="node13" class="node"><title>Node13</title>
<g id="a_node13"><a xlink:href="../../dd/df2/classmain_1_1_workspace_manager.html#abc818b59211f6e14940b86a42bb868d0" target="_top" xlink:title="main.WorkspaceManager.create\lWorkspace">
<polygon fill="white" stroke="black" points="2316,-431 2316,-461 2486,-461 2486,-431 2316,-431"/>
<text text-anchor="start" x="2324" y="-449" font-family="Helvetica,sans-Serif" font-size="10.00">main.WorkspaceManager.create</text>
<text text-anchor="middle" x="2401" y="-438" font-family="Helvetica,sans-Serif" font-size="10.00">Workspace</text>
</a>
</g>
</g>
<!-- Node12&#45;&gt;Node13 -->
<g id="edge12" class="edge"><title>Node12&#45;&gt;Node13</title>
<path fill="none" stroke="midnightblue" d="M2289.92,-446C2298.39,-446 2307.08,-446 2315.69,-446"/>
<polygon fill="midnightblue" stroke="midnightblue" points="2289.72,-442.5 2279.72,-446 2289.72,-449.5 2289.72,-442.5"/>
</g>
<!-- Node14 -->
<g id="node14" class="node"><title>Node14</title>
<g id="a_node14"><a xlink:href="../../d9/df7/classcontroller_1_1_controller.html#a3a9d672bb57047df70945ad1a9582c9a" target="_top" xlink:title="controller.Controller.create\lNewWorkspace">
<polygon fill="white" stroke="black" points="2522.5,-453 2522.5,-483 2665.5,-483 2665.5,-453 2522.5,-453"/>
<text text-anchor="start" x="2530.5" y="-471" font-family="Helvetica,sans-Serif" font-size="10.00">controller.Controller.create</text>
<text text-anchor="middle" x="2594" y="-460" font-family="Helvetica,sans-Serif" font-size="10.00">NewWorkspace</text>
</a>
</g>
</g>
<!-- Node13&#45;&gt;Node14 -->
<g id="edge13" class="edge"><title>Node13&#45;&gt;Node14</title>
<path fill="none" stroke="midnightblue" d="M2496.03,-456.83C2504.88,-457.85 2513.75,-458.872 2522.34,-459.861"/>
<polygon fill="midnightblue" stroke="midnightblue" points="2496.39,-453.349 2486.05,-455.682 2495.59,-460.303 2496.39,-453.349"/>
</g>
<!-- Node20 -->
<g id="node20" class="node"><title>Node20</title>
<g id="a_node20"><a xlink:href="../../d1/d0b/classmain_1_1_main.html#a9f1e5657b2f6f9bdd69a3b6412ceda74" target="_top" xlink:title="main.Main.start">
<polygon fill="white" stroke="black" points="2548,-414.5 2548,-433.5 2640,-433.5 2640,-414.5 2548,-414.5"/>
<text text-anchor="middle" x="2594" y="-421.5" font-family="Helvetica,sans-Serif" font-size="10.00">main.Main.start</text>
</a>
</g>
</g>
<!-- Node13&#45;&gt;Node20 -->
<g id="edge19" class="edge"><title>Node13&#45;&gt;Node20</title>
<path fill="none" stroke="midnightblue" d="M2496.09,-435.163C2514.19,-433.078 2532.36,-430.985 2547.99,-429.184"/>
<polygon fill="midnightblue" stroke="midnightblue" points="2495.59,-431.697 2486.05,-436.318 2496.39,-438.651 2495.59,-431.697"/>
</g>
<!-- Node15 -->
<g id="node15" class="node"><title>Node15</title>
<g id="a_node15"><a xlink:href="../../d5/d06/classui_1_1_scene_updater.html#a2858ad8edb0c0f59a21e2ae015f2fa1e" target="_top" xlink:title="ui.SceneUpdater.createNew\lWorkspace">
<polygon fill="white" stroke="black" points="2702,-453 2702,-483 2852,-483 2852,-453 2702,-453"/>
<text text-anchor="start" x="2710" y="-471" font-family="Helvetica,sans-Serif" font-size="10.00">ui.SceneUpdater.createNew</text>
<text text-anchor="middle" x="2777" y="-460" font-family="Helvetica,sans-Serif" font-size="10.00">Workspace</text>
</a>
</g>
</g>
<!-- Node14&#45;&gt;Node15 -->
<g id="edge14" class="edge"><title>Node14&#45;&gt;Node15</title>
<path fill="none" stroke="midnightblue" d="M2675.8,-468C2684.43,-468 2693.17,-468 2701.71,-468"/>
<polygon fill="midnightblue" stroke="midnightblue" points="2675.76,-464.5 2665.76,-468 2675.76,-471.5 2675.76,-464.5"/>
</g>
<!-- Node16 -->
<g id="node16" class="node"><title>Node16</title>
<g id="a_node16"><a xlink:href="../../dc/d3b/classui_1_1_g_u_i.html#a2edc294ba07311e6c4b85c9fe749d1bf" target="_top" xlink:title="ui.GUI.createNewWorkspace">
<polygon fill="white" stroke="black" points="2888,-458.5 2888,-477.5 3038,-477.5 3038,-458.5 2888,-458.5"/>
<text text-anchor="middle" x="2963" y="-465.5" font-family="Helvetica,sans-Serif" font-size="10.00">ui.GUI.createNewWorkspace</text>
</a>
</g>
</g>
<!-- Node15&#45;&gt;Node16 -->
<g id="edge15" class="edge"><title>Node15&#45;&gt;Node16</title>
<path fill="none" stroke="midnightblue" d="M2862.07,-468C2870.65,-468 2879.34,-468 2887.81,-468"/>
<polygon fill="midnightblue" stroke="midnightblue" points="2862.04,-464.5 2852.04,-468 2862.04,-471.5 2862.04,-464.5"/>
</g>
<!-- Node17 -->
<g id="node17" class="node"><title>Node17</title>
<g id="a_node17"><a xlink:href="../../d0/de6/classui_1_1elements_1_1_menu_bar_element.html#a98c13995a31d997aa10f2950583da6cc" target="_top" xlink:title="ui.elements.MenuBarElement.make\lMenuBar">
<polygon fill="white" stroke="black" points="3074,-453 3074,-483 3262,-483 3262,-453 3074,-453"/>
<text text-anchor="start" x="3082" y="-471" font-family="Helvetica,sans-Serif" font-size="10.00">ui.elements.MenuBarElement.make</text>
<text text-anchor="middle" x="3168" y="-460" font-family="Helvetica,sans-Serif" font-size="10.00">MenuBar</text>
</a>
</g>
</g>
<!-- Node16&#45;&gt;Node17 -->
<g id="edge16" class="edge"><title>Node16&#45;&gt;Node17</title>
<path fill="none" stroke="midnightblue" d="M3048.28,-468C3056.66,-468 3065.21,-468 3073.68,-468"/>
<polygon fill="midnightblue" stroke="midnightblue" points="3048.15,-464.5 3038.15,-468 3048.15,-471.5 3048.15,-464.5"/>
</g>
<!-- Node18 -->
<g id="node18" class="node"><title>Node18</title>
<g id="a_node18"><a xlink:href="../../d0/de6/classui_1_1elements_1_1_menu_bar_element.html#a7bdb58f78cf8b61ba28498c5c86ab682" target="_top" xlink:title="ui.elements.MenuBarElement.init">
<polygon fill="white" stroke="black" points="3298,-458.5 3298,-477.5 3474,-477.5 3474,-458.5 3298,-458.5"/>
<text text-anchor="middle" x="3386" y="-465.5" font-family="Helvetica,sans-Serif" font-size="10.00">ui.elements.MenuBarElement.init</text>
</a>
</g>
</g>
<!-- Node17&#45;&gt;Node18 -->
<g id="edge17" class="edge"><title>Node17&#45;&gt;Node18</title>
<path fill="none" stroke="midnightblue" d="M3272.23,-468C3280.83,-468 3289.48,-468 3297.94,-468"/>
<polygon fill="midnightblue" stroke="midnightblue" points="3272.17,-464.5 3262.17,-468 3272.17,-471.5 3272.17,-464.5"/>
</g>
<!-- Node19 -->
<g id="node19" class="node"><title>Node19</title>
<g id="a_node19"><a xlink:href="../../d0/de6/classui_1_1elements_1_1_menu_bar_element.html#ab4a4e6841c924a9d9c70b8073b56dffc" target="_top" xlink:title="ui.elements.MenuBarElement.\lMenuBarElement">
<polygon fill="white" stroke="black" points="3510.5,-453 3510.5,-483 3671.5,-483 3671.5,-453 3510.5,-453"/>
<text text-anchor="start" x="3518.5" y="-471" font-family="Helvetica,sans-Serif" font-size="10.00">ui.elements.MenuBarElement.</text>
<text text-anchor="middle" x="3591" y="-460" font-family="Helvetica,sans-Serif" font-size="10.00">MenuBarElement</text>
</a>
</g>
</g>
<!-- Node18&#45;&gt;Node19 -->
<g id="edge18" class="edge"><title>Node18&#45;&gt;Node19</title>
<path fill="none" stroke="midnightblue" d="M3484.47,-468C3493.19,-468 3501.95,-468 3510.5,-468"/>
<polygon fill="midnightblue" stroke="midnightblue" points="3484.27,-464.5 3474.27,-468 3484.27,-471.5 3484.27,-464.5"/>
</g>
<!-- Node21&#45;&gt;Node22 -->
<g id="edge21" class="edge"><title>Node21&#45;&gt;Node22</title>
<path fill="none" stroke="midnightblue" d="M426.977,-335.991C457.312,-330.059 490.261,-323.616 516.357,-318.512"/>
<polygon fill="midnightblue" stroke="midnightblue" points="425.945,-332.627 416.803,-337.981 427.289,-339.496 425.945,-332.627"/>
</g>
<!-- Node23 -->
<g id="node23" class="node"><title>Node23</title>
<g id="a_node23"><a xlink:href="../../d9/d88/classmodel_1_1_tree_interpreter.html#a501df6b8cfe1a8175a9da0ed96d30d6f" target="_top" xlink:title="model.TreeInterpreter.interpretTree">
<polygon fill="white" stroke="black" points="684.5,-272.5 684.5,-291.5 867.5,-291.5 867.5,-272.5 684.5,-272.5"/>
<text text-anchor="middle" x="776" y="-279.5" font-family="Helvetica,sans-Serif" font-size="10.00">model.TreeInterpreter.interpretTree</text>
</a>
</g>
</g>
<!-- Node22&#45;&gt;Node23 -->
<g id="edge22" class="edge"><title>Node22&#45;&gt;Node23</title>
<path fill="none" stroke="midnightblue" d="M650.714,-298.133C667.568,-295.946 685.16,-293.662 701.628,-291.524"/>
<polygon fill="midnightblue" stroke="midnightblue" points="649.799,-294.723 640.333,-299.481 650.7,-301.664 649.799,-294.723"/>
</g>
<!-- Node23&#45;&gt;Node4 -->
<g id="edge31" class="edge"><title>Node23&#45;&gt;Node4</title>
<path fill="none" stroke="midnightblue" d="M786.513,-300.959C804.502,-334.727 846.885,-405.016 904,-440 919.244,-449.337 937.403,-455.238 954.925,-458.953"/>
<polygon fill="midnightblue" stroke="midnightblue" points="789.436,-298.995 781.723,-291.732 783.223,-302.22 789.436,-298.995"/>
</g>
<!-- Node24 -->
<g id="node24" class="node"><title>Node24</title>
<g id="a_node24"><a xlink:href="../../d5/d1a/classcommand_1_1control_1_1_ask_with_command.html#a2a79128bce4d0ce305a2fe690675a70e" target="_top" xlink:title="command.control.AskWithCommand.calculate\lValue">
<polygon fill="white" stroke="black" points="906,-401 906,-431 1144,-431 1144,-401 906,-401"/>
<text text-anchor="start" x="914" y="-419" font-family="Helvetica,sans-Serif" font-size="10.00">command.control.AskWithCommand.calculate</text>
<text text-anchor="middle" x="1025" y="-408" font-family="Helvetica,sans-Serif" font-size="10.00">Value</text>
</a>
</g>
</g>
<!-- Node23&#45;&gt;Node24 -->
<g id="edge23" class="edge"><title>Node23&#45;&gt;Node24</title>
<path fill="none" stroke="midnightblue" d="M791.926,-299.457C813.882,-323.94 857.359,-368.047 904,-391 911.924,-394.9 920.432,-398.192 929.127,-400.971"/>
<polygon fill="midnightblue" stroke="midnightblue" points="794.32,-296.879 785.088,-291.682 789.064,-301.502 794.32,-296.879"/>
</g>
<!-- Node25 -->
<g id="node25" class="node"><title>Node25</title>
<g id="a_node25"><a xlink:href="../../d1/d18/classcommand_1_1control_1_1_execute_user_command.html#a1ce1cab877c9c9199aee9f8e687f74fb" target="_top" xlink:title="command.control.ExecuteUser\lCommand.calculateValue">
<polygon fill="white" stroke="black" points="942.5,-352 942.5,-382 1107.5,-382 1107.5,-352 942.5,-352"/>
<text text-anchor="start" x="950.5" y="-370" font-family="Helvetica,sans-Serif" font-size="10.00">command.control.ExecuteUser</text>
<text text-anchor="middle" x="1025" y="-359" font-family="Helvetica,sans-Serif" font-size="10.00">Command.calculateValue</text>
</a>
</g>
</g>
<!-- Node23&#45;&gt;Node25 -->
<g id="edge24" class="edge"><title>Node23&#45;&gt;Node25</title>
<path fill="none" stroke="midnightblue" d="M803.027,-296.534C828.183,-310.036 867.711,-329.838 904,-342 916.207,-346.091 929.347,-349.645 942.297,-352.687"/>
<polygon fill="midnightblue" stroke="midnightblue" points="804.584,-293.397 794.126,-291.696 801.241,-299.547 804.584,-293.397"/>
</g>
<!-- Node26 -->
<g id="node26" class="node"><title>Node26</title>
<g id="a_node26"><a xlink:href="../../d4/dea/classcommand_1_1control_1_1_ask_command.html#a0e92735076727a8f4ef8affeb592e8b4" target="_top" xlink:title="command.control.AskCommand.calculate\lValue">
<polygon fill="white" stroke="black" points="916,-303 916,-333 1134,-333 1134,-303 916,-303"/>
<text text-anchor="start" x="924" y="-321" font-family="Helvetica,sans-Serif" font-size="10.00">command.control.AskCommand.calculate</text>
<text text-anchor="middle" x="1025" y="-310" font-family="Helvetica,sans-Serif" font-size="10.00">Value</text>
</a>
</g>
</g>
<!-- Node23&#45;&gt;Node26 -->
<g id="edge25" class="edge"><title>Node23&#45;&gt;Node26</title>
<path fill="none" stroke="midnightblue" d="M852.33,-292.979C874.01,-296.139 898.038,-299.641 921.082,-303"/>
<polygon fill="midnightblue" stroke="midnightblue" points="852.62,-289.485 842.219,-291.506 851.61,-296.411 852.62,-289.485"/>
</g>
<!-- Node27 -->
<g id="node27" class="node"><title>Node27</title>
<g id="a_node27"><a xlink:href="../../d1/d0f/classcommand_1_1control_1_1_repeat_command.html#af9c3a3854b4eaabafc7c09bdbe83de0e" target="_top" xlink:title="command.control.RepeatCommand.calculate\lValue">
<polygon fill="white" stroke="black" points="908.5,-254 908.5,-284 1141.5,-284 1141.5,-254 908.5,-254"/>
<text text-anchor="start" x="916.5" y="-272" font-family="Helvetica,sans-Serif" font-size="10.00">command.control.RepeatCommand.calculate</text>
<text text-anchor="middle" x="1025" y="-261" font-family="Helvetica,sans-Serif" font-size="10.00">Value</text>
</a>
</g>
</g>
<!-- Node23&#45;&gt;Node27 -->
<g id="edge26" class="edge"><title>Node23&#45;&gt;Node27</title>
<path fill="none" stroke="midnightblue" d="M877.576,-276.707C887.661,-276.176 897.958,-275.634 908.184,-275.096"/>
<polygon fill="midnightblue" stroke="midnightblue" points="877.373,-273.212 867.571,-277.233 877.741,-280.203 877.373,-273.212"/>
</g>
<!-- Node28 -->
<g id="node28" class="node"><title>Node28</title>
<g id="a_node28"><a xlink:href="../../d6/d3b/classcommand_1_1control_1_1_if_command.html#acf428d2a9882866a2f00fbbee727f4f1" target="_top" xlink:title="command.control.IfCommand.calculate\lValue">
<polygon fill="white" stroke="black" points="922,-205 922,-235 1128,-235 1128,-205 922,-205"/>
<text text-anchor="start" x="930" y="-223" font-family="Helvetica,sans-Serif" font-size="10.00">command.control.IfCommand.calculate</text>
<text text-anchor="middle" x="1025" y="-212" font-family="Helvetica,sans-Serif" font-size="10.00">Value</text>
</a>
</g>
</g>
<!-- Node23&#45;&gt;Node28 -->
<g id="edge27" class="edge"><title>Node23&#45;&gt;Node28</title>
<path fill="none" stroke="midnightblue" d="M815.877,-269.341C840.883,-261.453 874.165,-251.43 904,-244 916.679,-240.843 930.192,-237.817 943.406,-235.042"/>
<polygon fill="midnightblue" stroke="midnightblue" points="814.513,-266.102 806.043,-272.467 816.633,-272.773 814.513,-266.102"/>
</g>
<!-- Node29 -->
<g id="node29" class="node"><title>Node29</title>
<g id="a_node29"><a xlink:href="../../d7/dae/classcommand_1_1control_1_1_do_times_command.html#a932eb0f99c5b2fecf8fd6939ef4b0c5b" target="_top" xlink:title="command.control.DoTimesCommand.calculate\lValue">
<polygon fill="white" stroke="black" points="904,-156 904,-186 1146,-186 1146,-156 904,-156"/>
<text text-anchor="start" x="912" y="-174" font-family="Helvetica,sans-Serif" font-size="10.00">command.control.DoTimesCommand.calculate</text>
<text text-anchor="middle" x="1025" y="-163" font-family="Helvetica,sans-Serif" font-size="10.00">Value</text>
</a>
</g>
</g>
<!-- Node23&#45;&gt;Node29 -->
<g id="edge28" class="edge"><title>Node23&#45;&gt;Node29</title>
<path fill="none" stroke="midnightblue" d="M795.411,-265.777C818.927,-245.951 861.669,-212.848 904,-195 912.222,-191.533 920.977,-188.558 929.867,-186.006"/>
<polygon fill="midnightblue" stroke="midnightblue" points="792.967,-263.262 787.653,-272.427 797.523,-268.576 792.967,-263.262"/>
</g>
<!-- Node30 -->
<g id="node30" class="node"><title>Node30</title>
<g id="a_node30"><a xlink:href="../../da/db2/classcommand_1_1control_1_1_for_command.html#ad494f107c7c0e97f862dcfddc476a064" target="_top" xlink:title="command.control.ForCommand.calculate\lValue">
<polygon fill="white" stroke="black" points="917.5,-107 917.5,-137 1132.5,-137 1132.5,-107 917.5,-107"/>
<text text-anchor="start" x="925.5" y="-125" font-family="Helvetica,sans-Serif" font-size="10.00">command.control.ForCommand.calculate</text>
<text text-anchor="middle" x="1025" y="-114" font-family="Helvetica,sans-Serif" font-size="10.00">Value</text>
</a>
</g>
</g>
<!-- Node23&#45;&gt;Node30 -->
<g id="edge29" class="edge"><title>Node23&#45;&gt;Node30</title>
<path fill="none" stroke="midnightblue" d="M788.558,-263.561C808.309,-233.718 851.548,-175.236 904,-146 910.217,-142.535 916.862,-139.565 923.716,-137.022"/>
<polygon fill="midnightblue" stroke="midnightblue" points="785.482,-261.873 782.989,-272.171 791.359,-265.675 785.482,-261.873"/>
</g>
<!-- Node31 -->
<g id="node31" class="node"><title>Node31</title>
<g id="a_node31"><a xlink:href="../../d3/dcf/classcommand_1_1control_1_1_if_else_command.html#ac1a2c320a23705da633419c13a18ff91" target="_top" xlink:title="command.control.IfElseCommand.calculate\lValue">
<polygon fill="white" stroke="black" points="912.5,-58 912.5,-88 1137.5,-88 1137.5,-58 912.5,-58"/>
<text text-anchor="start" x="920.5" y="-76" font-family="Helvetica,sans-Serif" font-size="10.00">command.control.IfElseCommand.calculate</text>
<text text-anchor="middle" x="1025" y="-65" font-family="Helvetica,sans-Serif" font-size="10.00">Value</text>
</a>
</g>
</g>
<!-- Node23&#45;&gt;Node31 -->
<g id="edge30" class="edge"><title>Node23&#45;&gt;Node31</title>
<path fill="none" stroke="midnightblue" d="M784.249,-262.979C799.843,-224.814 840.395,-138.972 904,-97 909.231,-93.548 914.85,-90.5728 920.698,-88.0105"/>
<polygon fill="midnightblue" stroke="midnightblue" points="780.945,-261.817 780.515,-272.403 787.453,-264.396 780.945,-261.817"/>
</g>
<!-- Node33&#45;&gt;Node34 -->
<g id="edge34" class="edge"><title>Node33&#45;&gt;Node34</title>
<path fill="none" stroke="midnightblue" d="M430.642,-197.137C448.419,-195.399 466.953,-193.587 484.375,-191.883"/>
<polygon fill="midnightblue" stroke="midnightblue" points="429.889,-193.694 420.277,-198.151 430.57,-200.661 429.889,-193.694"/>
</g>
</g>
</svg>
        <g id="navigator" transform="translate(0 0)" fill="#404254">
                <rect fill="#f2f5e9" fill-opacity="0.5" stroke="#606060" stroke-width=".5" x="0" y="0" width="60" height="60"/>
                <use id="zoomplus" xlink:href="#zoomPlus" x="17" y="9" onmousedown="handleZoom(evt,'in')"/>
                <use id="zoomminus" xlink:href="#zoomMin" x="42" y="9" onmousedown="handleZoom(evt,'out')"/>
                <use id="reset" xlink:href="#resetDef" x="30" y="36" onmousedown="handleReset()"/>
                <g id="arrowUp" xlink:href="#dirArrow" transform="translate(30 24)" onmousedown="handlePan(0,-1)">
                  <use xlink:href="#rim" fill="#404040">
                        <set attributeName="fill" to="#808080" begin="arrowUp.mouseover" end="arrowUp.mouseout"/>
                  </use>
                  <path fill="none" stroke="white" stroke-width="1.5" d="M0,-3.0v7 M-2.5,-0.5L0,-3.0L2.5,-0.5"/>
                </g>
                <g id="arrowRight" xlink:href="#dirArrow" transform="rotate(90) translate(36 -43)" onmousedown="handlePan(1,0)">
                  <use xlink:href="#rim" fill="#404040">
                        <set attributeName="fill" to="#808080" begin="arrowRight.mouseover" end="arrowRight.mouseout"/>
                  </use>
                  <path fill="none" stroke="white" stroke-width="1.5" d="M0,-3.0v7 M-2.5,-0.5L0,-3.0L2.5,-0.5"/>
                </g>
                <g id="arrowDown" xlink:href="#dirArrow" transform="rotate(180) translate(-30 -48)" onmousedown="handlePan(0,1)">
                  <use xlink:href="#rim" fill="#404040">
                        <set attributeName="fill" to="#808080" begin="arrowDown.mouseover" end="arrowDown.mouseout"/>
                  </use>
                  <path fill="none" stroke="white" stroke-width="1.5" d="M0,-3.0v7 M-2.5,-0.5L0,-3.0L2.5,-0.5"/>
                </g>
                <g id="arrowLeft" xlink:href="#dirArrow" transform="rotate(270) translate(-36 17)" onmousedown="handlePan(-1,0)">
                  <use xlink:href="#rim" fill="#404040">
                        <set attributeName="fill" to="#808080" begin="arrowLeft.mouseover" end="arrowLeft.mouseout"/>
                  </use>
                  <path fill="none" stroke="white" stroke-width="1.5" d="M0,-3.0v7 M-2.5,-0.5L0,-3.0L2.5,-0.5"/>
                </g>
        </g>
        <svg viewBox="0 0 15 15" width="100%" height="30px" preserveAspectRatio="xMaxYMin meet">
         <g id="arrow_out" transform="scale(0.3 0.3)">
          <a xlink:href="classparser_1_1_command_tree_node_a73e4ab6ebca47d41b993f0e66ee4c8d2_icgraph_org.svg" target="_base">
           <rect id="button" ry="5" rx="5" y="6" x="6" height="38" width="38"
                fill="#f2f5e9" fill-opacity="0.5" stroke="#606060" stroke-width="1.0"/>
           <path id="arrow"
             d="M 11.500037,31.436501 C 11.940474,20.09759 22.043105,11.32322 32.158766,21.979434 L 37.068811,17.246167 C 37.068811,17.246167 37.088388,32 37.088388,32 L 22.160133,31.978069 C 22.160133,31.978069 26.997745,27.140456 26.997745,27.140456 C 18.528582,18.264221 13.291696,25.230495 11.500037,31.436501 z"
             style="fill:#404040;"/>
          </a>
         </g>
        </svg>
</svg>
