<?xml version="1.0" encoding="UTF-8" standalone="no"?>
<!DOCTYPE svg PUBLIC "-//W3C//DTD SVG 1.1//EN"
 "http://www.w3.org/Graphics/SVG/1.1/DTD/svg11.dtd">
<!-- Generated by graphviz version 2.36.0 (20140111.2315)
 -->
<!-- Title: parser.CommandTreeNode.setValue Pages: 1 -->
<!--zoomable 466 -->
<svg id="main" version="1.1" xmlns="http://www.w3.org/2000/svg" xmlns:xlink="http://www.w3.org/1999/xlink" xml:space="preserve" onload="init(evt)">
<style type="text/css"><![CDATA[
.edge:hover path { stroke: red; }
.edge:hover polygon { stroke: red; fill: red; }
]]></style>
<script type="text/javascript"><![CDATA[
var edges = document.getElementsByTagName('g');
if (edges && edges.length) {
  for (var i=0;i<edges.length;i++) {
    if (edges[i].id.substr(0,4)=='edge') {
      edges[i].setAttribute('class','edge');
    }
  }
}
]]></script>
        <defs>
                <circle id="rim" cx="0" cy="0" r="7"/>
                <circle id="rim2" cx="0" cy="0" r="3.5"/>
                <g id="zoomPlus">
                        <use xlink:href="#rim" fill="#404040">
                                <set attributeName="fill" to="#808080" begin="zoomplus.mouseover" end="zoomplus.mouseout"/>
                        </use>
                        <path d="M-4,0h8M0,-4v8" fill="none" stroke="white" stroke-width="1.5" pointer-events="none"/>
                </g>
                <g id="zoomMin">
                        <use xlink:href="#rim" fill="#404040">
                                <set attributeName="fill" to="#808080" begin="zoomminus.mouseover" end="zoomminus.mouseout"/>
                        </use>
                        <path d="M-4,0h8" fill="none" stroke="white" stroke-width="1.5" pointer-events="none"/>
                </g>
                <g id="dirArrow">
                        <path fill="none" stroke="white" stroke-width="1.5" d="M0,-3.0v7 M-2.5,-0.5L0,-3.0L2.5,-0.5"/>
                </g>
               <g id="resetDef">
                       <use xlink:href="#rim2" fill="#404040">
                               <set attributeName="fill" to="#808080" begin="reset.mouseover" end="reset.mouseout"/>
                       </use>
               </g>
        </defs>

<script type="text/javascript">
var viewWidth = 3586;
var viewHeight = 466;
var sectionId = 'dynsection-6';
</script>
<script xlink:href="../../svgpan.js"/>
<svg id="graph" class="graph">
<g id="viewport">
<title>parser.CommandTreeNode.setValue</title>
<polygon fill="white" stroke="none" points="-4,4 -4,-462 3582,-462 3582,4 -4,4"/>
<!-- Node1 -->
<g id="node1" class="node"><title>Node1</title>
<polygon fill="#bfbfbf" stroke="black" points="0.5,-232 0.5,-262 163.5,-262 163.5,-232 0.5,-232"/>
<text text-anchor="start" x="8.5" y="-250" font-family="Helvetica,sans-Serif" font-size="10.00">parser.CommandTreeNode.set</text>
<text text-anchor="middle" x="82" y="-239" font-family="Helvetica,sans-Serif" font-size="10.00">Value</text>
</g>
<!-- Node2 -->
<g id="node2" class="node"><title>Node2</title>
<g id="a_node2"><a xlink:href="../../d9/d88/classmodel_1_1_tree_interpreter.html#af4d24e7867eb3a4a53f79f4a9288f9fd" target="_top" xlink:title="model.TreeInterpreter.execute\lCommand">
<polygon fill="white" stroke="black" points="200.5,-254 200.5,-284 361.5,-284 361.5,-254 200.5,-254"/>
<text text-anchor="start" x="208.5" y="-272" font-family="Helvetica,sans-Serif" font-size="10.00">model.TreeInterpreter.execute</text>
<text text-anchor="middle" x="281" y="-261" font-family="Helvetica,sans-Serif" font-size="10.00">Command</text>
</a>
</g>
</g>
<!-- Node1&#45;&gt;Node2 -->
<g id="edge1" class="edge"><title>Node1&#45;&gt;Node2</title>
<path fill="none" stroke="midnightblue" d="M173.7,-257.129C182.608,-258.124 191.6,-259.128 200.385,-260.109"/>
<polygon fill="midnightblue" stroke="midnightblue" points="174.023,-253.643 163.696,-256.012 173.246,-260.6 174.023,-253.643"/>
</g>
<!-- Node3 -->
<g id="node3" class="node"><title>Node3</title>
<g id="a_node3"><a xlink:href="../../d9/d88/classmodel_1_1_tree_interpreter.html#a3e460e5ebe66f781afb480f0f0ec2ce7" target="_top" xlink:title="model.TreeInterpreter.update">
<polygon fill="white" stroke="black" points="398,-237.5 398,-256.5 554,-256.5 554,-237.5 398,-237.5"/>
<text text-anchor="middle" x="476" y="-244.5" font-family="Helvetica,sans-Serif" font-size="10.00">model.TreeInterpreter.update</text>
</a>
</g>
</g>
<!-- Node1&#45;&gt;Node3 -->
<g id="edge29" class="edge"><title>Node1&#45;&gt;Node3</title>
<path fill="none" stroke="midnightblue" d="M173.607,-244.447C182.525,-244.265 191.438,-244.11 200,-244 271.994,-243.077 290.006,-243.045 362,-244 373.578,-244.154 385.821,-244.396 397.808,-244.678"/>
<polygon fill="midnightblue" stroke="midnightblue" points="173.479,-240.949 163.556,-244.663 173.629,-247.947 173.479,-240.949"/>
</g>
<!-- Node2&#45;&gt;Node3 -->
<g id="edge2" class="edge"><title>Node2&#45;&gt;Node3</title>
<path fill="none" stroke="midnightblue" d="M371.758,-258.769C380.441,-257.779 389.197,-256.781 397.744,-255.806"/>
<polygon fill="midnightblue" stroke="midnightblue" points="371.154,-255.315 361.615,-259.925 371.947,-262.27 371.154,-255.315"/>
</g>
<!-- Node4 -->
<g id="node4" class="node"><title>Node4</title>
<g id="a_node4"><a xlink:href="../../d9/d88/classmodel_1_1_tree_interpreter.html#a501df6b8cfe1a8175a9da0ed96d30d6f" target="_top" xlink:title="model.TreeInterpreter.interpretTree">
<polygon fill="white" stroke="black" points="590.5,-237.5 590.5,-256.5 773.5,-256.5 773.5,-237.5 590.5,-237.5"/>
<text text-anchor="middle" x="682" y="-244.5" font-family="Helvetica,sans-Serif" font-size="10.00">model.TreeInterpreter.interpretTree</text>
</a>
</g>
</g>
<!-- Node3&#45;&gt;Node4 -->
<g id="edge3" class="edge"><title>Node3&#45;&gt;Node4</title>
<path fill="none" stroke="midnightblue" d="M564.217,-247C572.886,-247 581.7,-247 590.402,-247"/>
<polygon fill="midnightblue" stroke="midnightblue" points="564.124,-243.5 554.124,-247 564.124,-250.5 564.124,-243.5"/>
</g>
<!-- Node5 -->
<g id="node5" class="node"><title>Node5</title>
<g id="a_node5"><a xlink:href="../../d5/d1a/classcommand_1_1control_1_1_ask_with_command.html#a2a79128bce4d0ce305a2fe690675a70e" target="_top" xlink:title="command.control.AskWithCommand.calculate\lValue">
<polygon fill="white" stroke="black" points="812,-428 812,-458 1050,-458 1050,-428 812,-428"/>
<text text-anchor="start" x="820" y="-446" font-family="Helvetica,sans-Serif" font-size="10.00">command.control.AskWithCommand.calculate</text>
<text text-anchor="middle" x="931" y="-435" font-family="Helvetica,sans-Serif" font-size="10.00">Value</text>
</a>
</g>
</g>
<!-- Node4&#45;&gt;Node5 -->
<g id="edge4" class="edge"><title>Node4&#45;&gt;Node5</title>
<path fill="none" stroke="midnightblue" d="M691.375,-266.014C708.238,-301.928 749.877,-379.574 810,-418 816.097,-421.896 822.69,-425.199 829.542,-427.996"/>
<polygon fill="midnightblue" stroke="midnightblue" points="694.449,-264.319 687.111,-256.677 688.081,-267.227 694.449,-264.319"/>
</g>
<!-- Node6 -->
<g id="node6" class="node"><title>Node6</title>
<g id="a_node6"><a xlink:href="../../d1/d18/classcommand_1_1control_1_1_execute_user_command.html#a1ce1cab877c9c9199aee9f8e687f74fb" target="_top" xlink:title="command.control.ExecuteUser\lCommand.calculateValue">
<polygon fill="white" stroke="black" points="848.5,-379 848.5,-409 1013.5,-409 1013.5,-379 848.5,-379"/>
<text text-anchor="start" x="856.5" y="-397" font-family="Helvetica,sans-Serif" font-size="10.00">command.control.ExecuteUser</text>
<text text-anchor="middle" x="931" y="-386" font-family="Helvetica,sans-Serif" font-size="10.00">Command.calculateValue</text>
</a>
</g>
</g>
<!-- Node4&#45;&gt;Node6 -->
<g id="edge5" class="edge"><title>Node4&#45;&gt;Node6</title>
<path fill="none" stroke="midnightblue" d="M696.231,-265.01C717.173,-292.116 760.679,-342.986 810,-369 821.858,-375.255 835.148,-379.945 848.446,-383.462"/>
<polygon fill="midnightblue" stroke="midnightblue" points="698.843,-262.662 690.018,-256.799 693.261,-266.885 698.843,-262.662"/>
</g>
<!-- Node7 -->
<g id="node7" class="node"><title>Node7</title>
<g id="a_node7"><a xlink:href="../../d4/dea/classcommand_1_1control_1_1_ask_command.html#a0e92735076727a8f4ef8affeb592e8b4" target="_top" xlink:title="command.control.AskCommand.calculate\lValue">
<polygon fill="white" stroke="black" points="822,-330 822,-360 1040,-360 1040,-330 822,-330"/>
<text text-anchor="start" x="830" y="-348" font-family="Helvetica,sans-Serif" font-size="10.00">command.control.AskCommand.calculate</text>
<text text-anchor="middle" x="931" y="-337" font-family="Helvetica,sans-Serif" font-size="10.00">Value</text>
</a>
</g>
</g>
<!-- Node4&#45;&gt;Node7 -->
<g id="edge6" class="edge"><title>Node4&#45;&gt;Node7</title>
<path fill="none" stroke="midnightblue" d="M704.898,-262.48C729.394,-279.089 770.797,-305.085 810,-320 820.044,-323.821 830.796,-327.108 841.584,-329.922"/>
<polygon fill="midnightblue" stroke="midnightblue" points="706.599,-259.402 696.377,-256.616 702.631,-265.169 706.599,-259.402"/>
</g>
<!-- Node8 -->
<g id="node8" class="node"><title>Node8</title>
<g id="a_node8"><a xlink:href="../../d1/d0f/classcommand_1_1control_1_1_repeat_command.html#af9c3a3854b4eaabafc7c09bdbe83de0e" target="_top" xlink:title="command.control.RepeatCommand.calculate\lValue">
<polygon fill="white" stroke="black" points="814.5,-281 814.5,-311 1047.5,-311 1047.5,-281 814.5,-281"/>
<text text-anchor="start" x="822.5" y="-299" font-family="Helvetica,sans-Serif" font-size="10.00">command.control.RepeatCommand.calculate</text>
<text text-anchor="middle" x="931" y="-288" font-family="Helvetica,sans-Serif" font-size="10.00">Value</text>
</a>
</g>
</g>
<!-- Node4&#45;&gt;Node8 -->
<g id="edge7" class="edge"><title>Node4&#45;&gt;Node8</title>
<path fill="none" stroke="midnightblue" d="M741.07,-258.52C774.788,-265.209 817.654,-273.713 854.028,-280.929"/>
<polygon fill="midnightblue" stroke="midnightblue" points="741.407,-255.019 730.917,-256.506 740.045,-261.885 741.407,-255.019"/>
</g>
<!-- Node9 -->
<g id="node9" class="node"><title>Node9</title>
<g id="a_node9"><a xlink:href="../../d6/d3b/classcommand_1_1control_1_1_if_command.html#acf428d2a9882866a2f00fbbee727f4f1" target="_top" xlink:title="command.control.IfCommand.calculate\lValue">
<polygon fill="white" stroke="black" points="828,-232 828,-262 1034,-262 1034,-232 828,-232"/>
<text text-anchor="start" x="836" y="-250" font-family="Helvetica,sans-Serif" font-size="10.00">command.control.IfCommand.calculate</text>
<text text-anchor="middle" x="931" y="-239" font-family="Helvetica,sans-Serif" font-size="10.00">Value</text>
</a>
</g>
</g>
<!-- Node4&#45;&gt;Node9 -->
<g id="edge8" class="edge"><title>Node4&#45;&gt;Node9</title>
<path fill="none" stroke="midnightblue" d="M783.576,-247C798.144,-247 813.152,-247 827.753,-247"/>
<polygon fill="midnightblue" stroke="midnightblue" points="783.571,-243.5 773.571,-247 783.571,-250.5 783.571,-243.5"/>
</g>
<!-- Node10 -->
<g id="node10" class="node"><title>Node10</title>
<g id="a_node10"><a xlink:href="../../d7/dae/classcommand_1_1control_1_1_do_times_command.html#a932eb0f99c5b2fecf8fd6939ef4b0c5b" target="_top" xlink:title="command.control.DoTimesCommand.calculate\lValue">
<polygon fill="white" stroke="black" points="810,-183 810,-213 1052,-213 1052,-183 810,-183"/>
<text text-anchor="start" x="818" y="-201" font-family="Helvetica,sans-Serif" font-size="10.00">command.control.DoTimesCommand.calculate</text>
<text text-anchor="middle" x="931" y="-190" font-family="Helvetica,sans-Serif" font-size="10.00">Value</text>
</a>
</g>
</g>
<!-- Node4&#45;&gt;Node10 -->
<g id="edge9" class="edge"><title>Node4&#45;&gt;Node10</title>
<path fill="none" stroke="midnightblue" d="M741.07,-235.48C774.788,-228.791 817.654,-220.287 854.028,-213.071"/>
<polygon fill="midnightblue" stroke="midnightblue" points="740.045,-232.115 730.917,-237.494 741.407,-238.981 740.045,-232.115"/>
</g>
<!-- Node11 -->
<g id="node11" class="node"><title>Node11</title>
<g id="a_node11"><a xlink:href="../../da/db2/classcommand_1_1control_1_1_for_command.html#ad494f107c7c0e97f862dcfddc476a064" target="_top" xlink:title="command.control.ForCommand.calculate\lValue">
<polygon fill="white" stroke="black" points="823.5,-134 823.5,-164 1038.5,-164 1038.5,-134 823.5,-134"/>
<text text-anchor="start" x="831.5" y="-152" font-family="Helvetica,sans-Serif" font-size="10.00">command.control.ForCommand.calculate</text>
<text text-anchor="middle" x="931" y="-141" font-family="Helvetica,sans-Serif" font-size="10.00">Value</text>
</a>
</g>
</g>
<!-- Node4&#45;&gt;Node11 -->
<g id="edge10" class="edge"><title>Node4&#45;&gt;Node11</title>
<path fill="none" stroke="midnightblue" d="M704.448,-231.506C728.843,-214.618 770.436,-188.005 810,-173 819.039,-169.572 828.655,-166.605 838.359,-164.042"/>
<polygon fill="midnightblue" stroke="midnightblue" points="702.149,-228.844 695.981,-237.458 706.175,-234.571 702.149,-228.844"/>
</g>
<!-- Node12 -->
<g id="node12" class="node"><title>Node12</title>
<g id="a_node12"><a xlink:href="../../d3/dcf/classcommand_1_1control_1_1_if_else_command.html#ac1a2c320a23705da633419c13a18ff91" target="_top" xlink:title="command.control.IfElseCommand.calculate\lValue">
<polygon fill="white" stroke="black" points="818.5,-85 818.5,-115 1043.5,-115 1043.5,-85 818.5,-85"/>
<text text-anchor="start" x="826.5" y="-103" font-family="Helvetica,sans-Serif" font-size="10.00">command.control.IfElseCommand.calculate</text>
<text text-anchor="middle" x="931" y="-92" font-family="Helvetica,sans-Serif" font-size="10.00">Value</text>
</a>
</g>
</g>
<!-- Node4&#45;&gt;Node12 -->
<g id="edge11" class="edge"><title>Node4&#45;&gt;Node12</title>
<path fill="none" stroke="midnightblue" d="M695.863,-229.194C716.605,-201.901 760.189,-150.148 810,-124 816.584,-120.544 823.611,-117.584 830.836,-115.05"/>
<polygon fill="midnightblue" stroke="midnightblue" points="692.89,-227.327 689.729,-237.439 698.506,-231.505 692.89,-227.327"/>
</g>
<!-- Node13 -->
<g id="node13" class="node"><title>Node13</title>
<g id="a_node13"><a xlink:href="../../d9/df7/classcontroller_1_1_controller.html#a3d81fb1a57114f96fb6c319f4c5df370" target="_top" xlink:title="controller.Controller.parse\lCommand">
<polygon fill="white" stroke="black" points="861,-36 861,-66 1001,-66 1001,-36 861,-36"/>
<text text-anchor="start" x="869" y="-54" font-family="Helvetica,sans-Serif" font-size="10.00">controller.Controller.parse</text>
<text text-anchor="middle" x="931" y="-43" font-family="Helvetica,sans-Serif" font-size="10.00">Command</text>
</a>
</g>
</g>
<!-- Node4&#45;&gt;Node13 -->
<g id="edge12" class="edge"><title>Node4&#45;&gt;Node13</title>
<path fill="none" stroke="midnightblue" d="M691.315,-227.831C708.077,-191.634 749.55,-113.414 810,-75 825.152,-65.3713 843.376,-59.4842 860.992,-55.9178"/>
<polygon fill="midnightblue" stroke="midnightblue" points="687.992,-226.688 687.079,-237.244 694.375,-229.561 687.992,-226.688"/>
</g>
<!-- Node14 -->
<g id="node14" class="node"><title>Node14</title>
<g id="a_node14"><a xlink:href="../../d5/d06/classui_1_1_scene_updater.html#ab77a04f8b0038429b09237aac18906e8" target="_top" xlink:title="ui.SceneUpdater.sendCommands">
<polygon fill="white" stroke="black" points="1088,-41.5 1088,-60.5 1266,-60.5 1266,-41.5 1088,-41.5"/>
<text text-anchor="middle" x="1177" y="-48.5" font-family="Helvetica,sans-Serif" font-size="10.00">ui.SceneUpdater.sendCommands</text>
</a>
</g>
</g>
<!-- Node13&#45;&gt;Node14 -->
<g id="edge13" class="edge"><title>Node13&#45;&gt;Node14</title>
<path fill="none" stroke="midnightblue" d="M1011.54,-51C1035.92,-51 1062.89,-51 1087.81,-51"/>
<polygon fill="midnightblue" stroke="midnightblue" points="1011.27,-47.5001 1001.27,-51 1011.27,-54.5001 1011.27,-47.5001"/>
</g>
<!-- Node15 -->
<g id="node15" class="node"><title>Node15</title>
<g id="a_node15"><a xlink:href="../../dc/d3b/classui_1_1_g_u_i.html#ad8f08a79a20a498bcaafdc7e2e2ce0a9" target="_top" xlink:title="ui.GUI.parseCommand">
<polygon fill="white" stroke="black" points="1302.5,-41.5 1302.5,-60.5 1427.5,-60.5 1427.5,-41.5 1302.5,-41.5"/>
<text text-anchor="middle" x="1365" y="-48.5" font-family="Helvetica,sans-Serif" font-size="10.00">ui.GUI.parseCommand</text>
</a>
</g>
</g>
<!-- Node14&#45;&gt;Node15 -->
<g id="edge14" class="edge"><title>Node14&#45;&gt;Node15</title>
<path fill="none" stroke="midnightblue" d="M1276.2,-51C1285.13,-51 1294,-51 1302.48,-51"/>
<polygon fill="midnightblue" stroke="midnightblue" points="1276.1,-47.5001 1266.1,-51 1276.1,-54.5001 1276.1,-47.5001"/>
</g>
<!-- Node16 -->
<g id="node16" class="node"><title>Node16</title>
<g id="a_node16"><a xlink:href="../../d8/d3c/classui_1_1elements_1_1_i_o_element.html#a139a046f0c771f86696f2eee04047c64" target="_top" xlink:title="ui.elements.IOElement.init">
<polygon fill="white" stroke="black" points="1480.5,-60.5 1480.5,-79.5 1623.5,-79.5 1623.5,-60.5 1480.5,-60.5"/>
<text text-anchor="middle" x="1552" y="-67.5" font-family="Helvetica,sans-Serif" font-size="10.00">ui.elements.IOElement.init</text>
</a>
</g>
</g>
<!-- Node15&#45;&gt;Node16 -->
<g id="edge15" class="edge"><title>Node15&#45;&gt;Node16</title>
<path fill="none" stroke="midnightblue" d="M1437.68,-58.3614C1451.7,-59.8019 1466.4,-61.3116 1480.39,-62.7485"/>
<polygon fill="midnightblue" stroke="midnightblue" points="1437.91,-54.8668 1427.6,-57.3267 1437.19,-61.8302 1437.91,-54.8668"/>
</g>
<!-- Node18 -->
<g id="node18" class="node"><title>Node18</title>
<g id="a_node18"><a xlink:href="../../dc/d3b/classui_1_1_g_u_i.html#ab8ec2a37b3d5bd9e8c2abbb3642fb965" target="_top" xlink:title="ui.GUI.setupKeyboardCommands">
<polygon fill="white" stroke="black" points="1464.5,-22.5 1464.5,-41.5 1639.5,-41.5 1639.5,-22.5 1464.5,-22.5"/>
<text text-anchor="middle" x="1552" y="-29.5" font-family="Helvetica,sans-Serif" font-size="10.00">ui.GUI.setupKeyboardCommands</text>
</a>
</g>
</g>
<!-- Node15&#45;&gt;Node18 -->
<g id="edge17" class="edge"><title>Node15&#45;&gt;Node18</title>
<path fill="none" stroke="midnightblue" d="M1437.69,-43.6368C1446.41,-42.7417 1455.39,-41.8199 1464.29,-40.9054"/>
<polygon fill="midnightblue" stroke="midnightblue" points="1437.19,-40.1698 1427.6,-44.6733 1437.91,-47.1332 1437.19,-40.1698"/>
</g>
<!-- Node17 -->
<g id="node17" class="node"><title>Node17</title>
<g id="a_node17"><a xlink:href="../../d8/d3c/classui_1_1elements_1_1_i_o_element.html#a556e1a3ad292fe3ab731065eef59b187" target="_top" xlink:title="ui.elements.IOElement.IOElement">
<polygon fill="white" stroke="black" points="1676,-60.5 1676,-79.5 1854,-79.5 1854,-60.5 1676,-60.5"/>
<text text-anchor="middle" x="1765" y="-67.5" font-family="Helvetica,sans-Serif" font-size="10.00">ui.elements.IOElement.IOElement</text>
</a>
</g>
</g>
<!-- Node16&#45;&gt;Node17 -->
<g id="edge16" class="edge"><title>Node16&#45;&gt;Node17</title>
<path fill="none" stroke="midnightblue" d="M1633.92,-70C1647.65,-70 1661.97,-70 1675.88,-70"/>
<polygon fill="midnightblue" stroke="midnightblue" points="1633.55,-66.5001 1623.55,-70 1633.55,-73.5001 1633.55,-66.5001"/>
</g>
<!-- Node19 -->
<g id="node19" class="node"><title>Node19</title>
<g id="a_node19"><a xlink:href="../../dc/d3b/classui_1_1_g_u_i.html#a765d554102f38969231261686f2f8e27" target="_top" xlink:title="ui.GUI.initialize">
<polygon fill="white" stroke="black" points="1722,-22.5 1722,-41.5 1808,-41.5 1808,-22.5 1722,-22.5"/>
<text text-anchor="middle" x="1765" y="-29.5" font-family="Helvetica,sans-Serif" font-size="10.00">ui.GUI.initialize</text>
</a>
</g>
</g>
<!-- Node18&#45;&gt;Node19 -->
<g id="edge18" class="edge"><title>Node18&#45;&gt;Node19</title>
<path fill="none" stroke="midnightblue" d="M1649.75,-32C1675.02,-32 1700.96,-32 1721.72,-32"/>
<polygon fill="midnightblue" stroke="midnightblue" points="1649.74,-28.5001 1639.74,-32 1649.74,-35.5001 1649.74,-28.5001"/>
</g>
<!-- Node20 -->
<g id="node20" class="node"><title>Node20</title>
<g id="a_node20"><a xlink:href="../../d5/d06/classui_1_1_scene_updater.html#aeef5dd7a8ec2ad6179e33fdd71ea90d6" target="_top" xlink:title="ui.SceneUpdater.initGUI">
<polygon fill="white" stroke="black" points="1890.5,-22.5 1890.5,-41.5 2021.5,-41.5 2021.5,-22.5 1890.5,-22.5"/>
<text text-anchor="middle" x="1956" y="-29.5" font-family="Helvetica,sans-Serif" font-size="10.00">ui.SceneUpdater.initGUI</text>
</a>
</g>
</g>
<!-- Node19&#45;&gt;Node20 -->
<g id="edge19" class="edge"><title>Node19&#45;&gt;Node20</title>
<path fill="none" stroke="midnightblue" d="M1818.67,-32C1840.92,-32 1867.05,-32 1890.45,-32"/>
<polygon fill="midnightblue" stroke="midnightblue" points="1818.42,-28.5001 1808.42,-32 1818.42,-35.5001 1818.42,-28.5001"/>
</g>
<!-- Node21 -->
<g id="node21" class="node"><title>Node21</title>
<g id="a_node21"><a xlink:href="../../d9/df7/classcontroller_1_1_controller.html#a57e42ba83ee2145e6262cd72eac59570" target="_top" xlink:title="controller.Controller.init">
<polygon fill="white" stroke="black" points="2058.5,-22.5 2058.5,-41.5 2185.5,-41.5 2185.5,-22.5 2058.5,-22.5"/>
<text text-anchor="middle" x="2122" y="-29.5" font-family="Helvetica,sans-Serif" font-size="10.00">controller.Controller.init</text>
</a>
</g>
</g>
<!-- Node20&#45;&gt;Node21 -->
<g id="edge20" class="edge"><title>Node20&#45;&gt;Node21</title>
<path fill="none" stroke="midnightblue" d="M2032.04,-32C2040.81,-32 2049.68,-32 2058.26,-32"/>
<polygon fill="midnightblue" stroke="midnightblue" points="2031.82,-28.5001 2021.82,-32 2031.82,-35.5001 2031.82,-28.5001"/>
</g>
<!-- Node22 -->
<g id="node22" class="node"><title>Node22</title>
<g id="a_node22"><a xlink:href="../../dd/df2/classmain_1_1_workspace_manager.html#abc818b59211f6e14940b86a42bb868d0" target="_top" xlink:title="main.WorkspaceManager.create\lWorkspace">
<polygon fill="white" stroke="black" points="2222,-17 2222,-47 2392,-47 2392,-17 2222,-17"/>
<text text-anchor="start" x="2230" y="-35" font-family="Helvetica,sans-Serif" font-size="10.00">main.WorkspaceManager.create</text>
<text text-anchor="middle" x="2307" y="-24" font-family="Helvetica,sans-Serif" font-size="10.00">Workspace</text>
</a>
</g>
</g>
<!-- Node21&#45;&gt;Node22 -->
<g id="edge21" class="edge"><title>Node21&#45;&gt;Node22</title>
<path fill="none" stroke="midnightblue" d="M2195.92,-32C2204.39,-32 2213.08,-32 2221.69,-32"/>
<polygon fill="midnightblue" stroke="midnightblue" points="2195.72,-28.5001 2185.72,-32 2195.72,-35.5001 2195.72,-28.5001"/>
</g>
<!-- Node23 -->
<g id="node23" class="node"><title>Node23</title>
<g id="a_node23"><a xlink:href="../../d9/df7/classcontroller_1_1_controller.html#a3a9d672bb57047df70945ad1a9582c9a" target="_top" xlink:title="controller.Controller.create\lNewWorkspace">
<polygon fill="white" stroke="black" points="2428.5,-39 2428.5,-69 2571.5,-69 2571.5,-39 2428.5,-39"/>
<text text-anchor="start" x="2436.5" y="-57" font-family="Helvetica,sans-Serif" font-size="10.00">controller.Controller.create</text>
<text text-anchor="middle" x="2500" y="-46" font-family="Helvetica,sans-Serif" font-size="10.00">NewWorkspace</text>
</a>
</g>
</g>
<!-- Node22&#45;&gt;Node23 -->
<g id="edge22" class="edge"><title>Node22&#45;&gt;Node23</title>
<path fill="none" stroke="midnightblue" d="M2402.03,-42.8303C2410.88,-43.8503 2419.75,-44.8721 2428.34,-45.8608"/>
<polygon fill="midnightblue" stroke="midnightblue" points="2402.39,-39.3489 2392.05,-41.6815 2401.59,-46.3029 2402.39,-39.3489"/>
</g>
<!-- Node29 -->
<g id="node29" class="node"><title>Node29</title>
<g id="a_node29"><a xlink:href="../../d1/d0b/classmain_1_1_main.html#a9f1e5657b2f6f9bdd69a3b6412ceda74" target="_top" xlink:title="main.Main.start">
<polygon fill="white" stroke="black" points="2454,-0.5 2454,-19.5 2546,-19.5 2546,-0.5 2454,-0.5"/>
<text text-anchor="middle" x="2500" y="-7.5" font-family="Helvetica,sans-Serif" font-size="10.00">main.Main.start</text>
</a>
</g>
</g>
<!-- Node22&#45;&gt;Node29 -->
<g id="edge28" class="edge"><title>Node22&#45;&gt;Node29</title>
<path fill="none" stroke="midnightblue" d="M2402.09,-21.1629C2420.19,-19.0779 2438.36,-16.9851 2453.99,-15.1843"/>
<polygon fill="midnightblue" stroke="midnightblue" points="2401.59,-17.6971 2392.05,-22.3185 2402.39,-24.6511 2401.59,-17.6971"/>
</g>
<!-- Node24 -->
<g id="node24" class="node"><title>Node24</title>
<g id="a_node24"><a xlink:href="../../d5/d06/classui_1_1_scene_updater.html#a2858ad8edb0c0f59a21e2ae015f2fa1e" target="_top" xlink:title="ui.SceneUpdater.createNew\lWorkspace">
<polygon fill="white" stroke="black" points="2608,-39 2608,-69 2758,-69 2758,-39 2608,-39"/>
<text text-anchor="start" x="2616" y="-57" font-family="Helvetica,sans-Serif" font-size="10.00">ui.SceneUpdater.createNew</text>
<text text-anchor="middle" x="2683" y="-46" font-family="Helvetica,sans-Serif" font-size="10.00">Workspace</text>
</a>
</g>
</g>
<!-- Node23&#45;&gt;Node24 -->
<g id="edge23" class="edge"><title>Node23&#45;&gt;Node24</title>
<path fill="none" stroke="midnightblue" d="M2581.8,-54C2590.43,-54 2599.17,-54 2607.71,-54"/>
<polygon fill="midnightblue" stroke="midnightblue" points="2581.76,-50.5001 2571.76,-54 2581.76,-57.5001 2581.76,-50.5001"/>
</g>
<!-- Node25 -->
<g id="node25" class="node"><title>Node25</title>
<g id="a_node25"><a xlink:href="../../dc/d3b/classui_1_1_g_u_i.html#a2edc294ba07311e6c4b85c9fe749d1bf" target="_top" xlink:title="ui.GUI.createNewWorkspace">
<polygon fill="white" stroke="black" points="2794,-44.5 2794,-63.5 2944,-63.5 2944,-44.5 2794,-44.5"/>
<text text-anchor="middle" x="2869" y="-51.5" font-family="Helvetica,sans-Serif" font-size="10.00">ui.GUI.createNewWorkspace</text>
</a>
</g>
</g>
<!-- Node24&#45;&gt;Node25 -->
<g id="edge24" class="edge"><title>Node24&#45;&gt;Node25</title>
<path fill="none" stroke="midnightblue" d="M2768.07,-54C2776.65,-54 2785.34,-54 2793.81,-54"/>
<polygon fill="midnightblue" stroke="midnightblue" points="2768.04,-50.5001 2758.04,-54 2768.04,-57.5001 2768.04,-50.5001"/>
</g>
<!-- Node26 -->
<g id="node26" class="node"><title>Node26</title>
<g id="a_node26"><a xlink:href="../../d0/de6/classui_1_1elements_1_1_menu_bar_element.html#a98c13995a31d997aa10f2950583da6cc" target="_top" xlink:title="ui.elements.MenuBarElement.make\lMenuBar">
<polygon fill="white" stroke="black" points="2980,-39 2980,-69 3168,-69 3168,-39 2980,-39"/>
<text text-anchor="start" x="2988" y="-57" font-family="Helvetica,sans-Serif" font-size="10.00">ui.elements.MenuBarElement.make</text>
<text text-anchor="middle" x="3074" y="-46" font-family="Helvetica,sans-Serif" font-size="10.00">MenuBar</text>
</a>
</g>
</g>
<!-- Node25&#45;&gt;Node26 -->
<g id="edge25" class="edge"><title>Node25&#45;&gt;Node26</title>
<path fill="none" stroke="midnightblue" d="M2954.28,-54C2962.66,-54 2971.21,-54 2979.68,-54"/>
<polygon fill="midnightblue" stroke="midnightblue" points="2954.15,-50.5001 2944.15,-54 2954.15,-57.5001 2954.15,-50.5001"/>
</g>
<!-- Node27 -->
<g id="node27" class="node"><title>Node27</title>
<g id="a_node27"><a xlink:href="../../d0/de6/classui_1_1elements_1_1_menu_bar_element.html#a7bdb58f78cf8b61ba28498c5c86ab682" target="_top" xlink:title="ui.elements.MenuBarElement.init">
<polygon fill="white" stroke="black" points="3204,-44.5 3204,-63.5 3380,-63.5 3380,-44.5 3204,-44.5"/>
<text text-anchor="middle" x="3292" y="-51.5" font-family="Helvetica,sans-Serif" font-size="10.00">ui.elements.MenuBarElement.init</text>
</a>
</g>
</g>
<!-- Node26&#45;&gt;Node27 -->
<g id="edge26" class="edge"><title>Node26&#45;&gt;Node27</title>
<path fill="none" stroke="midnightblue" d="M3178.23,-54C3186.83,-54 3195.48,-54 3203.94,-54"/>
<polygon fill="midnightblue" stroke="midnightblue" points="3178.17,-50.5001 3168.17,-54 3178.17,-57.5001 3178.17,-50.5001"/>
</g>
<!-- Node28 -->
<g id="node28" class="node"><title>Node28</title>
<g id="a_node28"><a xlink:href="../../d0/de6/classui_1_1elements_1_1_menu_bar_element.html#ab4a4e6841c924a9d9c70b8073b56dffc" target="_top" xlink:title="ui.elements.MenuBarElement.\lMenuBarElement">
<polygon fill="white" stroke="black" points="3416.5,-39 3416.5,-69 3577.5,-69 3577.5,-39 3416.5,-39"/>
<text text-anchor="start" x="3424.5" y="-57" font-family="Helvetica,sans-Serif" font-size="10.00">ui.elements.MenuBarElement.</text>
<text text-anchor="middle" x="3497" y="-46" font-family="Helvetica,sans-Serif" font-size="10.00">MenuBarElement</text>
</a>
</g>
</g>
<!-- Node27&#45;&gt;Node28 -->
<g id="edge27" class="edge"><title>Node27&#45;&gt;Node28</title>
<path fill="none" stroke="midnightblue" d="M3390.47,-54C3399.19,-54 3407.95,-54 3416.5,-54"/>
<polygon fill="midnightblue" stroke="midnightblue" points="3390.27,-50.5001 3380.27,-54 3390.27,-57.5001 3390.27,-50.5001"/>
</g>
</g>
</svg>
        <g id="navigator" transform="translate(0 0)" fill="#404254">
                <rect fill="#f2f5e9" fill-opacity="0.5" stroke="#606060" stroke-width=".5" x="0" y="0" width="60" height="60"/>
                <use id="zoomplus" xlink:href="#zoomPlus" x="17" y="9" onmousedown="handleZoom(evt,'in')"/>
                <use id="zoomminus" xlink:href="#zoomMin" x="42" y="9" onmousedown="handleZoom(evt,'out')"/>
                <use id="reset" xlink:href="#resetDef" x="30" y="36" onmousedown="handleReset()"/>
                <g id="arrowUp" xlink:href="#dirArrow" transform="translate(30 24)" onmousedown="handlePan(0,-1)">
                  <use xlink:href="#rim" fill="#404040">
                        <set attributeName="fill" to="#808080" begin="arrowUp.mouseover" end="arrowUp.mouseout"/>
                  </use>
                  <path fill="none" stroke="white" stroke-width="1.5" d="M0,-3.0v7 M-2.5,-0.5L0,-3.0L2.5,-0.5"/>
                </g>
                <g id="arrowRight" xlink:href="#dirArrow" transform="rotate(90) translate(36 -43)" onmousedown="handlePan(1,0)">
                  <use xlink:href="#rim" fill="#404040">
                        <set attributeName="fill" to="#808080" begin="arrowRight.mouseover" end="arrowRight.mouseout"/>
                  </use>
                  <path fill="none" stroke="white" stroke-width="1.5" d="M0,-3.0v7 M-2.5,-0.5L0,-3.0L2.5,-0.5"/>
                </g>
                <g id="arrowDown" xlink:href="#dirArrow" transform="rotate(180) translate(-30 -48)" onmousedown="handlePan(0,1)">
                  <use xlink:href="#rim" fill="#404040">
                        <set attributeName="fill" to="#808080" begin="arrowDown.mouseover" end="arrowDown.mouseout"/>
                  </use>
                  <path fill="none" stroke="white" stroke-width="1.5" d="M0,-3.0v7 M-2.5,-0.5L0,-3.0L2.5,-0.5"/>
                </g>
                <g id="arrowLeft" xlink:href="#dirArrow" transform="rotate(270) translate(-36 17)" onmousedown="handlePan(-1,0)">
                  <use xlink:href="#rim" fill="#404040">
                        <set attributeName="fill" to="#808080" begin="arrowLeft.mouseover" end="arrowLeft.mouseout"/>
                  </use>
                  <path fill="none" stroke="white" stroke-width="1.5" d="M0,-3.0v7 M-2.5,-0.5L0,-3.0L2.5,-0.5"/>
                </g>
        </g>
        <svg viewBox="0 0 15 15" width="100%" height="30px" preserveAspectRatio="xMaxYMin meet">
         <g id="arrow_out" transform="scale(0.3 0.3)">
          <a xlink:href="classparser_1_1_command_tree_node_a3d691b68da13689c03ebd9de665c379c_icgraph_org.svg" target="_base">
           <rect id="button" ry="5" rx="5" y="6" x="6" height="38" width="38"
                fill="#f2f5e9" fill-opacity="0.5" stroke="#606060" stroke-width="1.0"/>
           <path id="arrow"
             d="M 11.500037,31.436501 C 11.940474,20.09759 22.043105,11.32322 32.158766,21.979434 L 37.068811,17.246167 C 37.068811,17.246167 37.088388,32 37.088388,32 L 22.160133,31.978069 C 22.160133,31.978069 26.997745,27.140456 26.997745,27.140456 C 18.528582,18.264221 13.291696,25.230495 11.500037,31.436501 z"
             style="fill:#404040;"/>
          </a>
         </g>
        </svg>
</svg>
