<?xml version="1.0" encoding="UTF-8" standalone="no"?>
<!DOCTYPE svg PUBLIC "-//W3C//DTD SVG 1.1//EN"
 "http://www.w3.org/Graphics/SVG/1.1/DTD/svg11.dtd">
<!-- Generated by graphviz version 2.36.0 (20140111.2315)
 -->
<!-- Title: parser.CommandTreeNode.getValue Pages: 1 -->
<!--zoomable 319 -->
<svg id="main" version="1.1" xmlns="http://www.w3.org/2000/svg" xmlns:xlink="http://www.w3.org/1999/xlink" xml:space="preserve" onload="init(evt)">
<style type="text/css"><![CDATA[
.edge:hover path { stroke: red; }
.edge:hover polygon { stroke: red; fill: red; }
]]></style>
<script type="text/javascript"><![CDATA[
var edges = document.getElementsByTagName('g');
if (edges && edges.length) {
  for (var i=0;i<edges.length;i++) {
    if (edges[i].id.substr(0,4)=='edge') {
      edges[i].setAttribute('class','edge');
    }
  }
}
]]></script>
        <defs>
                <circle id="rim" cx="0" cy="0" r="7"/>
                <circle id="rim2" cx="0" cy="0" r="3.5"/>
                <g id="zoomPlus">
                        <use xlink:href="#rim" fill="#404040">
                                <set attributeName="fill" to="#808080" begin="zoomplus.mouseover" end="zoomplus.mouseout"/>
                        </use>
                        <path d="M-4,0h8M0,-4v8" fill="none" stroke="white" stroke-width="1.5" pointer-events="none"/>
                </g>
                <g id="zoomMin">
                        <use xlink:href="#rim" fill="#404040">
                                <set attributeName="fill" to="#808080" begin="zoomminus.mouseover" end="zoomminus.mouseout"/>
                        </use>
                        <path d="M-4,0h8" fill="none" stroke="white" stroke-width="1.5" pointer-events="none"/>
                </g>
                <g id="dirArrow">
                        <path fill="none" stroke="white" stroke-width="1.5" d="M0,-3.0v7 M-2.5,-0.5L0,-3.0L2.5,-0.5"/>
                </g>
               <g id="resetDef">
                       <use xlink:href="#rim2" fill="#404040">
                               <set attributeName="fill" to="#808080" begin="reset.mouseover" end="reset.mouseout"/>
                       </use>
               </g>
        </defs>

<script type="text/javascript">
var viewWidth = 2972;
var viewHeight = 319;
var sectionId = 'dynsection-5';
</script>
<script xlink:href="../../svgpan.js"/>
<svg id="graph" class="graph">
<g id="viewport">
<title>parser.CommandTreeNode.getValue</title>
<polygon fill="white" stroke="none" points="-4,4 -4,-315 2968,-315 2968,4 -4,4"/>
<!-- Node1 -->
<g id="node1" class="node"><title>Node1</title>
<polygon fill="#bfbfbf" stroke="black" points="0,-158 0,-188 164,-188 164,-158 0,-158"/>
<text text-anchor="start" x="8" y="-176" font-family="Helvetica,sans-Serif" font-size="10.00">parser.CommandTreeNode.get</text>
<text text-anchor="middle" x="82" y="-165" font-family="Helvetica,sans-Serif" font-size="10.00">Value</text>
</g>
<!-- Node2 -->
<g id="node2" class="node"><title>Node2</title>
<g id="a_node2"><a xlink:href="../../d5/d1a/classcommand_1_1control_1_1_ask_with_command.html#a2a79128bce4d0ce305a2fe690675a70e" target="_top" xlink:title="command.control.AskWithCommand.calculate\lValue">
<polygon fill="white" stroke="black" points="200,-281 200,-311 438,-311 438,-281 200,-281"/>
<text text-anchor="start" x="208" y="-299" font-family="Helvetica,sans-Serif" font-size="10.00">command.control.AskWithCommand.calculate</text>
<text text-anchor="middle" x="319" y="-288" font-family="Helvetica,sans-Serif" font-size="10.00">Value</text>
</a>
</g>
</g>
<!-- Node1&#45;&gt;Node2 -->
<g id="edge1" class="edge"><title>Node1&#45;&gt;Node2</title>
<path fill="none" stroke="midnightblue" d="M103.526,-195.75C125.249,-218.375 161.64,-252.327 200,-271 208.002,-274.895 216.6,-278.186 225.374,-280.966"/>
<polygon fill="midnightblue" stroke="midnightblue" points="105.878,-193.144 96.4742,-188.264 100.783,-197.943 105.878,-193.144"/>
</g>
<!-- Node3 -->
<g id="node3" class="node"><title>Node3</title>
<g id="a_node3"><a xlink:href="../../d5/d8e/classcommand_1_1control_1_1_make_variable_command.html#a8f9ffb360b0bc51047bf673464598c90" target="_top" xlink:title="command.control.MakeVariable\lCommand.calculateValue">
<polygon fill="white" stroke="black" points="235,-232 235,-262 403,-262 403,-232 235,-232"/>
<text text-anchor="start" x="243" y="-250" font-family="Helvetica,sans-Serif" font-size="10.00">command.control.MakeVariable</text>
<text text-anchor="middle" x="319" y="-239" font-family="Helvetica,sans-Serif" font-size="10.00">Command.calculateValue</text>
</a>
</g>
</g>
<!-- Node1&#45;&gt;Node3 -->
<g id="edge2" class="edge"><title>Node1&#45;&gt;Node3</title>
<path fill="none" stroke="midnightblue" d="M123.787,-192.306C145.954,-202.228 174.066,-213.901 200,-222 211.893,-225.714 224.632,-229.052 237.182,-231.989"/>
<polygon fill="midnightblue" stroke="midnightblue" points="125.228,-189.116 114.675,-188.177 122.339,-195.492 125.228,-189.116"/>
</g>
<!-- Node4 -->
<g id="node4" class="node"><title>Node4</title>
<g id="a_node4"><a xlink:href="../../d1/d0f/classcommand_1_1control_1_1_repeat_command.html#af9c3a3854b4eaabafc7c09bdbe83de0e" target="_top" xlink:title="command.control.RepeatCommand.calculate\lValue">
<polygon fill="white" stroke="black" points="202.5,-183 202.5,-213 435.5,-213 435.5,-183 202.5,-183"/>
<text text-anchor="start" x="210.5" y="-201" font-family="Helvetica,sans-Serif" font-size="10.00">command.control.RepeatCommand.calculate</text>
<text text-anchor="middle" x="319" y="-190" font-family="Helvetica,sans-Serif" font-size="10.00">Value</text>
</a>
</g>
</g>
<!-- Node1&#45;&gt;Node4 -->
<g id="edge3" class="edge"><title>Node1&#45;&gt;Node4</title>
<path fill="none" stroke="midnightblue" d="M174.148,-182.697C183.408,-183.682 192.898,-184.691 202.371,-185.699"/>
<polygon fill="midnightblue" stroke="midnightblue" points="174.517,-179.216 164.203,-181.639 173.776,-186.177 174.517,-179.216"/>
</g>
<!-- Node5 -->
<g id="node5" class="node"><title>Node5</title>
<g id="a_node5"><a xlink:href="../../d6/d3b/classcommand_1_1control_1_1_if_command.html#acf428d2a9882866a2f00fbbee727f4f1" target="_top" xlink:title="command.control.IfCommand.calculate\lValue">
<polygon fill="white" stroke="black" points="216,-134 216,-164 422,-164 422,-134 216,-134"/>
<text text-anchor="start" x="224" y="-152" font-family="Helvetica,sans-Serif" font-size="10.00">command.control.IfCommand.calculate</text>
<text text-anchor="middle" x="319" y="-141" font-family="Helvetica,sans-Serif" font-size="10.00">Value</text>
</a>
</g>
</g>
<!-- Node1&#45;&gt;Node5 -->
<g id="edge4" class="edge"><title>Node1&#45;&gt;Node5</title>
<path fill="none" stroke="midnightblue" d="M174.428,-163.663C187.94,-162.283 201.935,-160.853 215.651,-159.453"/>
<polygon fill="midnightblue" stroke="midnightblue" points="173.795,-160.209 164.203,-164.707 174.507,-167.173 173.795,-160.209"/>
</g>
<!-- Node6 -->
<g id="node6" class="node"><title>Node6</title>
<g id="a_node6"><a xlink:href="../../d3/dcf/classcommand_1_1control_1_1_if_else_command.html#ac1a2c320a23705da633419c13a18ff91" target="_top" xlink:title="command.control.IfElseCommand.calculate\lValue">
<polygon fill="white" stroke="black" points="206.5,-85 206.5,-115 431.5,-115 431.5,-85 206.5,-85"/>
<text text-anchor="start" x="214.5" y="-103" font-family="Helvetica,sans-Serif" font-size="10.00">command.control.IfElseCommand.calculate</text>
<text text-anchor="middle" x="319" y="-92" font-family="Helvetica,sans-Serif" font-size="10.00">Value</text>
</a>
</g>
</g>
<!-- Node1&#45;&gt;Node6 -->
<g id="edge5" class="edge"><title>Node1&#45;&gt;Node6</title>
<path fill="none" stroke="midnightblue" d="M124.596,-153.789C146.653,-144.154 174.413,-132.888 200,-125 212.007,-121.298 224.867,-117.959 237.522,-115.014"/>
<polygon fill="midnightblue" stroke="midnightblue" points="122.934,-150.697 115.204,-157.943 125.766,-157.099 122.934,-150.697"/>
</g>
<!-- Node7 -->
<g id="node7" class="node"><title>Node7</title>
<g id="a_node7"><a xlink:href="../../d9/df7/classcontroller_1_1_controller.html#a3d81fb1a57114f96fb6c319f4c5df370" target="_top" xlink:title="controller.Controller.parse\lCommand">
<polygon fill="white" stroke="black" points="249,-36 249,-66 389,-66 389,-36 249,-36"/>
<text text-anchor="start" x="257" y="-54" font-family="Helvetica,sans-Serif" font-size="10.00">controller.Controller.parse</text>
<text text-anchor="middle" x="319" y="-43" font-family="Helvetica,sans-Serif" font-size="10.00">Command</text>
</a>
</g>
</g>
<!-- Node1&#45;&gt;Node7 -->
<g id="edge6" class="edge"><title>Node1&#45;&gt;Node7</title>
<path fill="none" stroke="midnightblue" d="M103.573,-150.488C125.334,-128.1 161.754,-94.4983 200,-76 215.081,-68.7057 232.26,-63.5289 248.753,-59.8586"/>
<polygon fill="midnightblue" stroke="midnightblue" points="100.876,-148.244 96.508,-157.896 105.942,-153.075 100.876,-148.244"/>
</g>
<!-- Node8 -->
<g id="node8" class="node"><title>Node8</title>
<g id="a_node8"><a xlink:href="../../d5/d06/classui_1_1_scene_updater.html#ab77a04f8b0038429b09237aac18906e8" target="_top" xlink:title="ui.SceneUpdater.sendCommands">
<polygon fill="white" stroke="black" points="474,-41.5 474,-60.5 652,-60.5 652,-41.5 474,-41.5"/>
<text text-anchor="middle" x="563" y="-48.5" font-family="Helvetica,sans-Serif" font-size="10.00">ui.SceneUpdater.sendCommands</text>
</a>
</g>
</g>
<!-- Node7&#45;&gt;Node8 -->
<g id="edge7" class="edge"><title>Node7&#45;&gt;Node8</title>
<path fill="none" stroke="midnightblue" d="M399.103,-51C423.008,-51 449.403,-51 473.859,-51"/>
<polygon fill="midnightblue" stroke="midnightblue" points="399.024,-47.5001 389.024,-51 399.024,-54.5001 399.024,-47.5001"/>
</g>
<!-- Node9 -->
<g id="node9" class="node"><title>Node9</title>
<g id="a_node9"><a xlink:href="../../dc/d3b/classui_1_1_g_u_i.html#ad8f08a79a20a498bcaafdc7e2e2ce0a9" target="_top" xlink:title="ui.GUI.parseCommand">
<polygon fill="white" stroke="black" points="688.5,-41.5 688.5,-60.5 813.5,-60.5 813.5,-41.5 688.5,-41.5"/>
<text text-anchor="middle" x="751" y="-48.5" font-family="Helvetica,sans-Serif" font-size="10.00">ui.GUI.parseCommand</text>
</a>
</g>
</g>
<!-- Node8&#45;&gt;Node9 -->
<g id="edge8" class="edge"><title>Node8&#45;&gt;Node9</title>
<path fill="none" stroke="midnightblue" d="M662.196,-51C671.132,-51 680.003,-51 688.479,-51"/>
<polygon fill="midnightblue" stroke="midnightblue" points="662.098,-47.5001 652.098,-51 662.098,-54.5001 662.098,-47.5001"/>
</g>
<!-- Node10 -->
<g id="node10" class="node"><title>Node10</title>
<g id="a_node10"><a xlink:href="../../d8/d3c/classui_1_1elements_1_1_i_o_element.html#a139a046f0c771f86696f2eee04047c64" target="_top" xlink:title="ui.elements.IOElement.init">
<polygon fill="white" stroke="black" points="866.5,-60.5 866.5,-79.5 1009.5,-79.5 1009.5,-60.5 866.5,-60.5"/>
<text text-anchor="middle" x="938" y="-67.5" font-family="Helvetica,sans-Serif" font-size="10.00">ui.elements.IOElement.init</text>
</a>
</g>
</g>
<!-- Node9&#45;&gt;Node10 -->
<g id="edge9" class="edge"><title>Node9&#45;&gt;Node10</title>
<path fill="none" stroke="midnightblue" d="M823.677,-58.3614C837.703,-59.8019 852.403,-61.3116 866.393,-62.7485"/>
<polygon fill="midnightblue" stroke="midnightblue" points="823.908,-54.8668 813.602,-57.3267 823.192,-61.8302 823.908,-54.8668"/>
</g>
<!-- Node12 -->
<g id="node12" class="node"><title>Node12</title>
<g id="a_node12"><a xlink:href="../../dc/d3b/classui_1_1_g_u_i.html#ab8ec2a37b3d5bd9e8c2abbb3642fb965" target="_top" xlink:title="ui.GUI.setupKeyboardCommands">
<polygon fill="white" stroke="black" points="850.5,-22.5 850.5,-41.5 1025.5,-41.5 1025.5,-22.5 850.5,-22.5"/>
<text text-anchor="middle" x="938" y="-29.5" font-family="Helvetica,sans-Serif" font-size="10.00">ui.GUI.setupKeyboardCommands</text>
</a>
</g>
</g>
<!-- Node9&#45;&gt;Node12 -->
<g id="edge11" class="edge"><title>Node9&#45;&gt;Node12</title>
<path fill="none" stroke="midnightblue" d="M823.694,-43.6368C832.41,-42.7417 841.385,-41.8199 850.289,-40.9054"/>
<polygon fill="midnightblue" stroke="midnightblue" points="823.192,-40.1698 813.602,-44.6733 823.908,-47.1332 823.192,-40.1698"/>
</g>
<!-- Node11 -->
<g id="node11" class="node"><title>Node11</title>
<g id="a_node11"><a xlink:href="../../d8/d3c/classui_1_1elements_1_1_i_o_element.html#a556e1a3ad292fe3ab731065eef59b187" target="_top" xlink:title="ui.elements.IOElement.IOElement">
<polygon fill="white" stroke="black" points="1062,-60.5 1062,-79.5 1240,-79.5 1240,-60.5 1062,-60.5"/>
<text text-anchor="middle" x="1151" y="-67.5" font-family="Helvetica,sans-Serif" font-size="10.00">ui.elements.IOElement.IOElement</text>
</a>
</g>
</g>
<!-- Node10&#45;&gt;Node11 -->
<g id="edge10" class="edge"><title>Node10&#45;&gt;Node11</title>
<path fill="none" stroke="midnightblue" d="M1019.92,-70C1033.65,-70 1047.97,-70 1061.88,-70"/>
<polygon fill="midnightblue" stroke="midnightblue" points="1019.55,-66.5001 1009.55,-70 1019.55,-73.5001 1019.55,-66.5001"/>
</g>
<!-- Node13 -->
<g id="node13" class="node"><title>Node13</title>
<g id="a_node13"><a xlink:href="../../dc/d3b/classui_1_1_g_u_i.html#a765d554102f38969231261686f2f8e27" target="_top" xlink:title="ui.GUI.initialize">
<polygon fill="white" stroke="black" points="1108,-22.5 1108,-41.5 1194,-41.5 1194,-22.5 1108,-22.5"/>
<text text-anchor="middle" x="1151" y="-29.5" font-family="Helvetica,sans-Serif" font-size="10.00">ui.GUI.initialize</text>
</a>
</g>
</g>
<!-- Node12&#45;&gt;Node13 -->
<g id="edge12" class="edge"><title>Node12&#45;&gt;Node13</title>
<path fill="none" stroke="midnightblue" d="M1035.75,-32C1061.02,-32 1086.96,-32 1107.72,-32"/>
<polygon fill="midnightblue" stroke="midnightblue" points="1035.74,-28.5001 1025.74,-32 1035.74,-35.5001 1035.74,-28.5001"/>
</g>
<!-- Node14 -->
<g id="node14" class="node"><title>Node14</title>
<g id="a_node14"><a xlink:href="../../d5/d06/classui_1_1_scene_updater.html#aeef5dd7a8ec2ad6179e33fdd71ea90d6" target="_top" xlink:title="ui.SceneUpdater.initGUI">
<polygon fill="white" stroke="black" points="1276.5,-22.5 1276.5,-41.5 1407.5,-41.5 1407.5,-22.5 1276.5,-22.5"/>
<text text-anchor="middle" x="1342" y="-29.5" font-family="Helvetica,sans-Serif" font-size="10.00">ui.SceneUpdater.initGUI</text>
</a>
</g>
</g>
<!-- Node13&#45;&gt;Node14 -->
<g id="edge13" class="edge"><title>Node13&#45;&gt;Node14</title>
<path fill="none" stroke="midnightblue" d="M1204.67,-32C1226.92,-32 1253.05,-32 1276.45,-32"/>
<polygon fill="midnightblue" stroke="midnightblue" points="1204.42,-28.5001 1194.42,-32 1204.42,-35.5001 1204.42,-28.5001"/>
</g>
<!-- Node15 -->
<g id="node15" class="node"><title>Node15</title>
<g id="a_node15"><a xlink:href="../../d9/df7/classcontroller_1_1_controller.html#a57e42ba83ee2145e6262cd72eac59570" target="_top" xlink:title="controller.Controller.init">
<polygon fill="white" stroke="black" points="1444.5,-22.5 1444.5,-41.5 1571.5,-41.5 1571.5,-22.5 1444.5,-22.5"/>
<text text-anchor="middle" x="1508" y="-29.5" font-family="Helvetica,sans-Serif" font-size="10.00">controller.Controller.init</text>
</a>
</g>
</g>
<!-- Node14&#45;&gt;Node15 -->
<g id="edge14" class="edge"><title>Node14&#45;&gt;Node15</title>
<path fill="none" stroke="midnightblue" d="M1418.04,-32C1426.81,-32 1435.68,-32 1444.26,-32"/>
<polygon fill="midnightblue" stroke="midnightblue" points="1417.82,-28.5001 1407.82,-32 1417.82,-35.5001 1417.82,-28.5001"/>
</g>
<!-- Node16 -->
<g id="node16" class="node"><title>Node16</title>
<g id="a_node16"><a xlink:href="../../dd/df2/classmain_1_1_workspace_manager.html#abc818b59211f6e14940b86a42bb868d0" target="_top" xlink:title="main.WorkspaceManager.create\lWorkspace">
<polygon fill="white" stroke="black" points="1608,-17 1608,-47 1778,-47 1778,-17 1608,-17"/>
<text text-anchor="start" x="1616" y="-35" font-family="Helvetica,sans-Serif" font-size="10.00">main.WorkspaceManager.create</text>
<text text-anchor="middle" x="1693" y="-24" font-family="Helvetica,sans-Serif" font-size="10.00">Workspace</text>
</a>
</g>
</g>
<!-- Node15&#45;&gt;Node16 -->
<g id="edge15" class="edge"><title>Node15&#45;&gt;Node16</title>
<path fill="none" stroke="midnightblue" d="M1581.92,-32C1590.39,-32 1599.08,-32 1607.69,-32"/>
<polygon fill="midnightblue" stroke="midnightblue" points="1581.72,-28.5001 1571.72,-32 1581.72,-35.5001 1581.72,-28.5001"/>
</g>
<!-- Node17 -->
<g id="node17" class="node"><title>Node17</title>
<g id="a_node17"><a xlink:href="../../d9/df7/classcontroller_1_1_controller.html#a3a9d672bb57047df70945ad1a9582c9a" target="_top" xlink:title="controller.Controller.create\lNewWorkspace">
<polygon fill="white" stroke="black" points="1814.5,-39 1814.5,-69 1957.5,-69 1957.5,-39 1814.5,-39"/>
<text text-anchor="start" x="1822.5" y="-57" font-family="Helvetica,sans-Serif" font-size="10.00">controller.Controller.create</text>
<text text-anchor="middle" x="1886" y="-46" font-family="Helvetica,sans-Serif" font-size="10.00">NewWorkspace</text>
</a>
</g>
</g>
<!-- Node16&#45;&gt;Node17 -->
<g id="edge16" class="edge"><title>Node16&#45;&gt;Node17</title>
<path fill="none" stroke="midnightblue" d="M1788.03,-42.8303C1796.88,-43.8503 1805.75,-44.8721 1814.34,-45.8608"/>
<polygon fill="midnightblue" stroke="midnightblue" points="1788.39,-39.3489 1778.05,-41.6815 1787.59,-46.3029 1788.39,-39.3489"/>
</g>
<!-- Node23 -->
<g id="node23" class="node"><title>Node23</title>
<g id="a_node23"><a xlink:href="../../d1/d0b/classmain_1_1_main.html#a9f1e5657b2f6f9bdd69a3b6412ceda74" target="_top" xlink:title="main.Main.start">
<polygon fill="white" stroke="black" points="1840,-0.5 1840,-19.5 1932,-19.5 1932,-0.5 1840,-0.5"/>
<text text-anchor="middle" x="1886" y="-7.5" font-family="Helvetica,sans-Serif" font-size="10.00">main.Main.start</text>
</a>
</g>
</g>
<!-- Node16&#45;&gt;Node23 -->
<g id="edge22" class="edge"><title>Node16&#45;&gt;Node23</title>
<path fill="none" stroke="midnightblue" d="M1788.09,-21.1629C1806.19,-19.0779 1824.36,-16.9851 1839.99,-15.1843"/>
<polygon fill="midnightblue" stroke="midnightblue" points="1787.59,-17.6971 1778.05,-22.3185 1788.39,-24.6511 1787.59,-17.6971"/>
</g>
<!-- Node18 -->
<g id="node18" class="node"><title>Node18</title>
<g id="a_node18"><a xlink:href="../../d5/d06/classui_1_1_scene_updater.html#a2858ad8edb0c0f59a21e2ae015f2fa1e" target="_top" xlink:title="ui.SceneUpdater.createNew\lWorkspace">
<polygon fill="white" stroke="black" points="1994,-39 1994,-69 2144,-69 2144,-39 1994,-39"/>
<text text-anchor="start" x="2002" y="-57" font-family="Helvetica,sans-Serif" font-size="10.00">ui.SceneUpdater.createNew</text>
<text text-anchor="middle" x="2069" y="-46" font-family="Helvetica,sans-Serif" font-size="10.00">Workspace</text>
</a>
</g>
</g>
<!-- Node17&#45;&gt;Node18 -->
<g id="edge17" class="edge"><title>Node17&#45;&gt;Node18</title>
<path fill="none" stroke="midnightblue" d="M1967.8,-54C1976.43,-54 1985.17,-54 1993.71,-54"/>
<polygon fill="midnightblue" stroke="midnightblue" points="1967.76,-50.5001 1957.76,-54 1967.76,-57.5001 1967.76,-50.5001"/>
</g>
<!-- Node19 -->
<g id="node19" class="node"><title>Node19</title>
<g id="a_node19"><a xlink:href="../../dc/d3b/classui_1_1_g_u_i.html#a2edc294ba07311e6c4b85c9fe749d1bf" target="_top" xlink:title="ui.GUI.createNewWorkspace">
<polygon fill="white" stroke="black" points="2180,-44.5 2180,-63.5 2330,-63.5 2330,-44.5 2180,-44.5"/>
<text text-anchor="middle" x="2255" y="-51.5" font-family="Helvetica,sans-Serif" font-size="10.00">ui.GUI.createNewWorkspace</text>
</a>
</g>
</g>
<!-- Node18&#45;&gt;Node19 -->
<g id="edge18" class="edge"><title>Node18&#45;&gt;Node19</title>
<path fill="none" stroke="midnightblue" d="M2154.07,-54C2162.65,-54 2171.34,-54 2179.81,-54"/>
<polygon fill="midnightblue" stroke="midnightblue" points="2154.04,-50.5001 2144.04,-54 2154.04,-57.5001 2154.04,-50.5001"/>
</g>
<!-- Node20 -->
<g id="node20" class="node"><title>Node20</title>
<g id="a_node20"><a xlink:href="../../d0/de6/classui_1_1elements_1_1_menu_bar_element.html#a98c13995a31d997aa10f2950583da6cc" target="_top" xlink:title="ui.elements.MenuBarElement.make\lMenuBar">
<polygon fill="white" stroke="black" points="2366,-39 2366,-69 2554,-69 2554,-39 2366,-39"/>
<text text-anchor="start" x="2374" y="-57" font-family="Helvetica,sans-Serif" font-size="10.00">ui.elements.MenuBarElement.make</text>
<text text-anchor="middle" x="2460" y="-46" font-family="Helvetica,sans-Serif" font-size="10.00">MenuBar</text>
</a>
</g>
</g>
<!-- Node19&#45;&gt;Node20 -->
<g id="edge19" class="edge"><title>Node19&#45;&gt;Node20</title>
<path fill="none" stroke="midnightblue" d="M2340.28,-54C2348.66,-54 2357.21,-54 2365.68,-54"/>
<polygon fill="midnightblue" stroke="midnightblue" points="2340.15,-50.5001 2330.15,-54 2340.15,-57.5001 2340.15,-50.5001"/>
</g>
<!-- Node21 -->
<g id="node21" class="node"><title>Node21</title>
<g id="a_node21"><a xlink:href="../../d0/de6/classui_1_1elements_1_1_menu_bar_element.html#a7bdb58f78cf8b61ba28498c5c86ab682" target="_top" xlink:title="ui.elements.MenuBarElement.init">
<polygon fill="white" stroke="black" points="2590,-44.5 2590,-63.5 2766,-63.5 2766,-44.5 2590,-44.5"/>
<text text-anchor="middle" x="2678" y="-51.5" font-family="Helvetica,sans-Serif" font-size="10.00">ui.elements.MenuBarElement.init</text>
</a>
</g>
</g>
<!-- Node20&#45;&gt;Node21 -->
<g id="edge20" class="edge"><title>Node20&#45;&gt;Node21</title>
<path fill="none" stroke="midnightblue" d="M2564.23,-54C2572.83,-54 2581.48,-54 2589.94,-54"/>
<polygon fill="midnightblue" stroke="midnightblue" points="2564.17,-50.5001 2554.17,-54 2564.17,-57.5001 2564.17,-50.5001"/>
</g>
<!-- Node22 -->
<g id="node22" class="node"><title>Node22</title>
<g id="a_node22"><a xlink:href="../../d0/de6/classui_1_1elements_1_1_menu_bar_element.html#ab4a4e6841c924a9d9c70b8073b56dffc" target="_top" xlink:title="ui.elements.MenuBarElement.\lMenuBarElement">
<polygon fill="white" stroke="black" points="2802.5,-39 2802.5,-69 2963.5,-69 2963.5,-39 2802.5,-39"/>
<text text-anchor="start" x="2810.5" y="-57" font-family="Helvetica,sans-Serif" font-size="10.00">ui.elements.MenuBarElement.</text>
<text text-anchor="middle" x="2883" y="-46" font-family="Helvetica,sans-Serif" font-size="10.00">MenuBarElement</text>
</a>
</g>
</g>
<!-- Node21&#45;&gt;Node22 -->
<g id="edge21" class="edge"><title>Node21&#45;&gt;Node22</title>
<path fill="none" stroke="midnightblue" d="M2776.47,-54C2785.19,-54 2793.95,-54 2802.5,-54"/>
<polygon fill="midnightblue" stroke="midnightblue" points="2776.27,-50.5001 2766.27,-54 2776.27,-57.5001 2776.27,-50.5001"/>
</g>
</g>
</svg>
        <g id="navigator" transform="translate(0 0)" fill="#404254">
                <rect fill="#f2f5e9" fill-opacity="0.5" stroke="#606060" stroke-width=".5" x="0" y="0" width="60" height="60"/>
                <use id="zoomplus" xlink:href="#zoomPlus" x="17" y="9" onmousedown="handleZoom(evt,'in')"/>
                <use id="zoomminus" xlink:href="#zoomMin" x="42" y="9" onmousedown="handleZoom(evt,'out')"/>
                <use id="reset" xlink:href="#resetDef" x="30" y="36" onmousedown="handleReset()"/>
                <g id="arrowUp" xlink:href="#dirArrow" transform="translate(30 24)" onmousedown="handlePan(0,-1)">
                  <use xlink:href="#rim" fill="#404040">
                        <set attributeName="fill" to="#808080" begin="arrowUp.mouseover" end="arrowUp.mouseout"/>
                  </use>
                  <path fill="none" stroke="white" stroke-width="1.5" d="M0,-3.0v7 M-2.5,-0.5L0,-3.0L2.5,-0.5"/>
                </g>
                <g id="arrowRight" xlink:href="#dirArrow" transform="rotate(90) translate(36 -43)" onmousedown="handlePan(1,0)">
                  <use xlink:href="#rim" fill="#404040">
                        <set attributeName="fill" to="#808080" begin="arrowRight.mouseover" end="arrowRight.mouseout"/>
                  </use>
                  <path fill="none" stroke="white" stroke-width="1.5" d="M0,-3.0v7 M-2.5,-0.5L0,-3.0L2.5,-0.5"/>
                </g>
                <g id="arrowDown" xlink:href="#dirArrow" transform="rotate(180) translate(-30 -48)" onmousedown="handlePan(0,1)">
                  <use xlink:href="#rim" fill="#404040">
                        <set attributeName="fill" to="#808080" begin="arrowDown.mouseover" end="arrowDown.mouseout"/>
                  </use>
                  <path fill="none" stroke="white" stroke-width="1.5" d="M0,-3.0v7 M-2.5,-0.5L0,-3.0L2.5,-0.5"/>
                </g>
                <g id="arrowLeft" xlink:href="#dirArrow" transform="rotate(270) translate(-36 17)" onmousedown="handlePan(-1,0)">
                  <use xlink:href="#rim" fill="#404040">
                        <set attributeName="fill" to="#808080" begin="arrowLeft.mouseover" end="arrowLeft.mouseout"/>
                  </use>
                  <path fill="none" stroke="white" stroke-width="1.5" d="M0,-3.0v7 M-2.5,-0.5L0,-3.0L2.5,-0.5"/>
                </g>
        </g>
        <svg viewBox="0 0 15 15" width="100%" height="30px" preserveAspectRatio="xMaxYMin meet">
         <g id="arrow_out" transform="scale(0.3 0.3)">
          <a xlink:href="classparser_1_1_command_tree_node_aea6176c10780becfc79a23924bb6fdc2_icgraph_org.svg" target="_base">
           <rect id="button" ry="5" rx="5" y="6" x="6" height="38" width="38"
                fill="#f2f5e9" fill-opacity="0.5" stroke="#606060" stroke-width="1.0"/>
           <path id="arrow"
             d="M 11.500037,31.436501 C 11.940474,20.09759 22.043105,11.32322 32.158766,21.979434 L 37.068811,17.246167 C 37.068811,17.246167 37.088388,32 37.088388,32 L 22.160133,31.978069 C 22.160133,31.978069 26.997745,27.140456 26.997745,27.140456 C 18.528582,18.264221 13.291696,25.230495 11.500037,31.436501 z"
             style="fill:#404040;"/>
          </a>
         </g>
        </svg>
</svg>
