<?xml version="1.0" encoding="UTF-8" standalone="no"?>
<!DOCTYPE svg PUBLIC "-//W3C//DTD SVG 1.1//EN"
 "http://www.w3.org/Graphics/SVG/1.1/DTD/svg11.dtd">
<!-- Generated by graphviz version 2.36.0 (20140111.2315)
 -->
<!-- Title: parser.CommandTreeNode.add Pages: 1 -->
<svg width="576pt" height="229pt"
 viewBox="0.00 0.00 576.00 229.00" xmlns="http://www.w3.org/2000/svg" xmlns:xlink="http://www.w3.org/1999/xlink">
<g id="graph0" class="graph" transform="scale(1 1) rotate(0) translate(4 225)">
<title>parser.CommandTreeNode.add</title>
<polygon fill="white" stroke="none" points="-4,4 -4,-225 572,-225 572,4 -4,4"/>
<!-- Node1 -->
<g id="node1" class="node"><title>Node1</title>
<polygon fill="#bfbfbf" stroke="black" points="0,-95.5 0,-114.5 166,-114.5 166,-95.5 0,-95.5"/>
<text text-anchor="middle" x="83" y="-102.5" font-family="Helvetica,sans-Serif" font-size="10.00">parser.CommandTreeNode.add</text>
</g>
<!-- Node2 -->
<g id="node2" class="node"><title>Node2</title>
<g id="a_node2"><a xlink:href="../../d5/d30/classparser_1_1_command_case.html#a02f0603f41bb9fa479d9608a195f203d" target="_top" xlink:title="parser.CommandCase.making\lInstructionsCase">
<polygon fill="white" stroke="black" points="204,-191 204,-221 366,-221 366,-191 204,-191"/>
<text text-anchor="start" x="212" y="-209" font-family="Helvetica,sans-Serif" font-size="10.00">parser.CommandCase.making</text>
<text text-anchor="middle" x="285" y="-198" font-family="Helvetica,sans-Serif" font-size="10.00">InstructionsCase</text>
</a>
</g>
</g>
<!-- Node1&#45;&gt;Node2 -->
<g id="edge1" class="edge"><title>Node1&#45;&gt;Node2</title>
<path fill="none" stroke="midnightblue" d="M106.486,-120.307C129.71,-135.686 167.347,-159.423 202,-176 213.35,-181.43 225.96,-186.492 237.82,-190.854"/>
<polygon fill="midnightblue" stroke="midnightblue" points="108.298,-117.309 98.0393,-114.661 104.408,-123.128 108.298,-117.309"/>
</g>
<!-- Node3 -->
<g id="node3" class="node"><title>Node3</title>
<g id="a_node3"><a xlink:href="../../d5/d30/classparser_1_1_command_case.html#a65e1e45269c10f4611f02192244755c3" target="_top" xlink:title="parser.CommandCase.recurse">
<polygon fill="white" stroke="black" points="404.5,-174.5 404.5,-193.5 567.5,-193.5 567.5,-174.5 404.5,-174.5"/>
<text text-anchor="middle" x="486" y="-181.5" font-family="Helvetica,sans-Serif" font-size="10.00">parser.CommandCase.recurse</text>
</a>
</g>
</g>
<!-- Node1&#45;&gt;Node3 -->
<g id="edge7" class="edge"><title>Node1&#45;&gt;Node3</title>
<path fill="none" stroke="midnightblue" d="M118.873,-117.933C142.139,-126.138 173.564,-136.411 202,-143 269.467,-158.634 347.439,-169.404 404.434,-175.969"/>
<polygon fill="midnightblue" stroke="midnightblue" points="120.028,-114.63 109.433,-114.561 117.673,-121.221 120.028,-114.63"/>
</g>
<!-- Node4 -->
<g id="node4" class="node"><title>Node4</title>
<g id="a_node4"><a xlink:href="../../df/d5d/classparser_1_1_variable_case.html#a20ff8b5f80ef27bdf7ff62f9ee5c08a8" target="_top" xlink:title="parser.VariableCase.recurse">
<polygon fill="white" stroke="black" points="209.5,-114.5 209.5,-133.5 360.5,-133.5 360.5,-114.5 209.5,-114.5"/>
<text text-anchor="middle" x="285" y="-121.5" font-family="Helvetica,sans-Serif" font-size="10.00">parser.VariableCase.recurse</text>
</a>
</g>
</g>
<!-- Node1&#45;&gt;Node4 -->
<g id="edge3" class="edge"><title>Node1&#45;&gt;Node4</title>
<path fill="none" stroke="midnightblue" d="M176.356,-113.774C187.456,-114.828 198.682,-115.895 209.484,-116.921"/>
<polygon fill="midnightblue" stroke="midnightblue" points="176.5,-110.272 166.213,-112.81 175.838,-117.24 176.5,-110.272"/>
</g>
<!-- Node5 -->
<g id="node5" class="node"><title>Node5</title>
<g id="a_node5"><a xlink:href="../../da/db7/classparser_1_1_list_start_case.html#a497e0fc6331cd969a3398c3f895afa92" target="_top" xlink:title="parser.ListStartCase.recurse">
<polygon fill="white" stroke="black" points="208.5,-76.5 208.5,-95.5 361.5,-95.5 361.5,-76.5 208.5,-76.5"/>
<text text-anchor="middle" x="285" y="-83.5" font-family="Helvetica,sans-Serif" font-size="10.00">parser.ListStartCase.recurse</text>
</a>
</g>
</g>
<!-- Node1&#45;&gt;Node5 -->
<g id="edge4" class="edge"><title>Node1&#45;&gt;Node5</title>
<path fill="none" stroke="midnightblue" d="M176.379,-96.224C187.035,-95.2116 197.808,-94.1882 208.209,-93.2002"/>
<polygon fill="midnightblue" stroke="midnightblue" points="175.838,-92.7596 166.213,-97.1897 176.5,-99.7282 175.838,-92.7596"/>
</g>
<!-- Node6 -->
<g id="node6" class="node"><title>Node6</title>
<g id="a_node6"><a xlink:href="../../df/d34/classparser_1_1_group_start_case.html#a605643dc0d07e20e571714c2200e1259" target="_top" xlink:title="parser.GroupStartCase.recurse">
<polygon fill="white" stroke="black" points="202,-38.5 202,-57.5 368,-57.5 368,-38.5 202,-38.5"/>
<text text-anchor="middle" x="285" y="-45.5" font-family="Helvetica,sans-Serif" font-size="10.00">parser.GroupStartCase.recurse</text>
</a>
</g>
</g>
<!-- Node1&#45;&gt;Node6 -->
<g id="edge5" class="edge"><title>Node1&#45;&gt;Node6</title>
<path fill="none" stroke="midnightblue" d="M121.206,-92.1343C144.315,-84.3643 174.714,-74.5405 202,-67 214.113,-63.6525 227.342,-60.4099 239.57,-57.5794"/>
<polygon fill="midnightblue" stroke="midnightblue" points="119.809,-88.9122 111.46,-95.4347 122.054,-95.5423 119.809,-88.9122"/>
</g>
<!-- Node7 -->
<g id="node7" class="node"><title>Node7</title>
<g id="a_node7"><a xlink:href="../../d9/d14/classparser_1_1_constant_case.html#a84fdd34b3b0f33742f2d2acb9af23c9c" target="_top" xlink:title="parser.ConstantCase.recurse">
<polygon fill="white" stroke="black" points="207,-0.5 207,-19.5 363,-19.5 363,-0.5 207,-0.5"/>
<text text-anchor="middle" x="285" y="-7.5" font-family="Helvetica,sans-Serif" font-size="10.00">parser.ConstantCase.recurse</text>
</a>
</g>
</g>
<!-- Node1&#45;&gt;Node7 -->
<g id="edge6" class="edge"><title>Node1&#45;&gt;Node7</title>
<path fill="none" stroke="midnightblue" d="M104.057,-88.979C126.612,-71.7298 164.947,-44.6631 202,-29 211.018,-25.1878 220.933,-22.0696 230.657,-19.5432"/>
<polygon fill="midnightblue" stroke="midnightblue" points="101.697,-86.3798 95.9488,-95.2795 105.993,-91.9072 101.697,-86.3798"/>
</g>
<!-- Node2&#45;&gt;Node3 -->
<g id="edge2" class="edge"><title>Node2&#45;&gt;Node3</title>
<path fill="none" stroke="midnightblue" d="M376.226,-196.025C385.631,-194.986 395.147,-193.933 404.435,-192.907"/>
<polygon fill="midnightblue" stroke="midnightblue" points="375.636,-192.569 366.081,-197.147 376.405,-199.527 375.636,-192.569"/>
</g>
</g>
</svg>
