<?xml version="1.0" encoding="UTF-8" standalone="no"?>
<!DOCTYPE svg PUBLIC "-//W3C//DTD SVG 1.1//EN"
 "http://www.w3.org/Graphics/SVG/1.1/DTD/svg11.dtd">
<!-- Generated by graphviz version 2.36.0 (20140111.2315)
 -->
<!-- Title: parser.CommandTreeNode.getChildren Pages: 1 -->
<!--zoomable 559 -->
<svg id="main" version="1.1" xmlns="http://www.w3.org/2000/svg" xmlns:xlink="http://www.w3.org/1999/xlink" xml:space="preserve" onload="init(evt)">
<style type="text/css"><![CDATA[
.edge:hover path { stroke: red; }
.edge:hover polygon { stroke: red; fill: red; }
]]></style>
<script type="text/javascript"><![CDATA[
var edges = document.getElementsByTagName('g');
if (edges && edges.length) {
  for (var i=0;i<edges.length;i++) {
    if (edges[i].id.substr(0,4)=='edge') {
      edges[i].setAttribute('class','edge');
    }
  }
}
]]></script>
        <defs>
                <circle id="rim" cx="0" cy="0" r="7"/>
                <circle id="rim2" cx="0" cy="0" r="3.5"/>
                <g id="zoomPlus">
                        <use xlink:href="#rim" fill="#404040">
                                <set attributeName="fill" to="#808080" begin="zoomplus.mouseover" end="zoomplus.mouseout"/>
                        </use>
                        <path d="M-4,0h8M0,-4v8" fill="none" stroke="white" stroke-width="1.5" pointer-events="none"/>
                </g>
                <g id="zoomMin">
                        <use xlink:href="#rim" fill="#404040">
                                <set attributeName="fill" to="#808080" begin="zoomminus.mouseover" end="zoomminus.mouseout"/>
                        </use>
                        <path d="M-4,0h8" fill="none" stroke="white" stroke-width="1.5" pointer-events="none"/>
                </g>
                <g id="dirArrow">
                        <path fill="none" stroke="white" stroke-width="1.5" d="M0,-3.0v7 M-2.5,-0.5L0,-3.0L2.5,-0.5"/>
                </g>
               <g id="resetDef">
                       <use xlink:href="#rim2" fill="#404040">
                               <set attributeName="fill" to="#808080" begin="reset.mouseover" end="reset.mouseout"/>
                       </use>
               </g>
        </defs>

<script type="text/javascript">
var viewWidth = 3212;
var viewHeight = 559;
var sectionId = 'dynsection-2';
</script>
<script xlink:href="../../svgpan.js"/>
<svg id="graph" class="graph">
<g id="viewport">
<title>parser.CommandTreeNode.getChildren</title>
<polygon fill="white" stroke="none" points="-4,4 -4,-555 3208,-555 3208,4 -4,4"/>
<!-- Node1 -->
<g id="node1" class="node"><title>Node1</title>
<polygon fill="#bfbfbf" stroke="black" points="0,-325 0,-355 164,-355 164,-325 0,-325"/>
<text text-anchor="start" x="8" y="-343" font-family="Helvetica,sans-Serif" font-size="10.00">parser.CommandTreeNode.get</text>
<text text-anchor="middle" x="82" y="-332" font-family="Helvetica,sans-Serif" font-size="10.00">Children</text>
</g>
<!-- Node2 -->
<g id="node2" class="node"><title>Node2</title>
<g id="a_node2"><a xlink:href="../../d4/dea/classcommand_1_1control_1_1_ask_command.html#ad2187e28677f3338cd838308e24b2144" target="_top" xlink:title="command.control.AskCommand.\lAskCommand">
<polygon fill="white" stroke="black" points="212.5,-521 212.5,-551 387.5,-551 387.5,-521 212.5,-521"/>
<text text-anchor="start" x="220.5" y="-539" font-family="Helvetica,sans-Serif" font-size="10.00">command.control.AskCommand.</text>
<text text-anchor="middle" x="300" y="-528" font-family="Helvetica,sans-Serif" font-size="10.00">AskCommand</text>
</a>
</g>
</g>
<!-- Node1&#45;&gt;Node2 -->
<g id="edge1" class="edge"><title>Node1&#45;&gt;Node2</title>
<path fill="none" stroke="midnightblue" d="M92.9954,-364.713C109.496,-402.287 146.064,-473.379 200,-511 205.525,-514.854 211.591,-518.114 217.916,-520.873"/>
<polygon fill="midnightblue" stroke="midnightblue" points="96.02,-362.883 88.8758,-355.06 89.5818,-365.631 96.02,-362.883"/>
</g>
<!-- Node3 -->
<g id="node3" class="node"><title>Node3</title>
<g id="a_node3"><a xlink:href="../../d5/d1a/classcommand_1_1control_1_1_ask_with_command.html#a3b21b6a076056bdf8ca6191bbf95dc03" target="_top" xlink:title="command.control.AskWithCommand.\lAskWithCommand">
<polygon fill="white" stroke="black" points="202.5,-472 202.5,-502 397.5,-502 397.5,-472 202.5,-472"/>
<text text-anchor="start" x="210.5" y="-490" font-family="Helvetica,sans-Serif" font-size="10.00">command.control.AskWithCommand.</text>
<text text-anchor="middle" x="300" y="-479" font-family="Helvetica,sans-Serif" font-size="10.00">AskWithCommand</text>
</a>
</g>
</g>
<!-- Node1&#45;&gt;Node3 -->
<g id="edge2" class="edge"><title>Node1&#45;&gt;Node3</title>
<path fill="none" stroke="midnightblue" d="M99.2691,-363.738C119.59,-391.54 156.967,-436.969 200,-462 206.666,-465.877 213.924,-469.159 221.382,-471.935"/>
<polygon fill="midnightblue" stroke="midnightblue" points="101.952,-361.473 93.2853,-355.379 96.2602,-365.548 101.952,-361.473"/>
</g>
<!-- Node4 -->
<g id="node4" class="node"><title>Node4</title>
<g id="a_node4"><a xlink:href="../../d7/dae/classcommand_1_1control_1_1_do_times_command.html#a5913ebb84267e7a4676dfbdb315e2bae" target="_top" xlink:title="command.control.DoTimesCommand.\lDoTimesCommand">
<polygon fill="white" stroke="black" points="200,-423 200,-453 400,-453 400,-423 200,-423"/>
<text text-anchor="start" x="208" y="-441" font-family="Helvetica,sans-Serif" font-size="10.00">command.control.DoTimesCommand.</text>
<text text-anchor="middle" x="300" y="-430" font-family="Helvetica,sans-Serif" font-size="10.00">DoTimesCommand</text>
</a>
</g>
</g>
<!-- Node1&#45;&gt;Node4 -->
<g id="edge3" class="edge"><title>Node1&#45;&gt;Node4</title>
<path fill="none" stroke="midnightblue" d="M111.283,-361.163C134.165,-377.394 167.771,-399.275 200,-413 208.889,-416.785 218.48,-420.092 228.071,-422.952"/>
<polygon fill="midnightblue" stroke="midnightblue" points="113.225,-358.248 103.063,-355.247 109.136,-363.93 113.225,-358.248"/>
</g>
<!-- Node5 -->
<g id="node5" class="node"><title>Node5</title>
<g id="a_node5"><a xlink:href="../../da/db2/classcommand_1_1control_1_1_for_command.html#a79ae2a9c4126a8e1f1f3b2a4f9226291" target="_top" xlink:title="command.control.ForCommand.\lForCommand">
<polygon fill="white" stroke="black" points="213.5,-374 213.5,-404 386.5,-404 386.5,-374 213.5,-374"/>
<text text-anchor="start" x="221.5" y="-392" font-family="Helvetica,sans-Serif" font-size="10.00">command.control.ForCommand.</text>
<text text-anchor="middle" x="300" y="-381" font-family="Helvetica,sans-Serif" font-size="10.00">ForCommand</text>
</a>
</g>
</g>
<!-- Node1&#45;&gt;Node5 -->
<g id="edge4" class="edge"><title>Node1&#45;&gt;Node5</title>
<path fill="none" stroke="midnightblue" d="M159.077,-357.258C183.144,-362.718 209.536,-368.705 232.85,-373.994"/>
<polygon fill="midnightblue" stroke="midnightblue" points="159.802,-353.834 149.275,-355.035 158.253,-360.66 159.802,-353.834"/>
</g>
<!-- Node6 -->
<g id="node6" class="node"><title>Node6</title>
<g id="a_node6"><a xlink:href="../../d6/d3b/classcommand_1_1control_1_1_if_command.html#a78c027342a36b61a0408923a04860d9f" target="_top" xlink:title="command.control.IfCommand.\lIfCommand">
<polygon fill="white" stroke="black" points="218.5,-325 218.5,-355 381.5,-355 381.5,-325 218.5,-325"/>
<text text-anchor="start" x="226.5" y="-343" font-family="Helvetica,sans-Serif" font-size="10.00">command.control.IfCommand.</text>
<text text-anchor="middle" x="300" y="-332" font-family="Helvetica,sans-Serif" font-size="10.00">IfCommand</text>
</a>
</g>
</g>
<!-- Node1&#45;&gt;Node6 -->
<g id="edge5" class="edge"><title>Node1&#45;&gt;Node6</title>
<path fill="none" stroke="midnightblue" d="M174.106,-340C188.757,-340 203.833,-340 218.219,-340"/>
<polygon fill="midnightblue" stroke="midnightblue" points="174.045,-336.5 164.045,-340 174.045,-343.5 174.045,-336.5"/>
</g>
<!-- Node7 -->
<g id="node7" class="node"><title>Node7</title>
<g id="a_node7"><a xlink:href="../../d3/dcf/classcommand_1_1control_1_1_if_else_command.html#ae3d85ed98f961348908223152c4cdd19" target="_top" xlink:title="command.control.IfElseCommand.\lIfElseCommand">
<polygon fill="white" stroke="black" points="209,-276 209,-306 391,-306 391,-276 209,-276"/>
<text text-anchor="start" x="217" y="-294" font-family="Helvetica,sans-Serif" font-size="10.00">command.control.IfElseCommand.</text>
<text text-anchor="middle" x="300" y="-283" font-family="Helvetica,sans-Serif" font-size="10.00">IfElseCommand</text>
</a>
</g>
</g>
<!-- Node1&#45;&gt;Node7 -->
<g id="edge6" class="edge"><title>Node1&#45;&gt;Node7</title>
<path fill="none" stroke="midnightblue" d="M159.077,-322.742C183.144,-317.282 209.536,-311.295 232.85,-306.006"/>
<polygon fill="midnightblue" stroke="midnightblue" points="158.253,-319.34 149.275,-324.965 159.802,-326.166 158.253,-319.34"/>
</g>
<!-- Node8 -->
<g id="node8" class="node"><title>Node8</title>
<g id="a_node8"><a xlink:href="../../d9/d88/classmodel_1_1_tree_interpreter.html#a501df6b8cfe1a8175a9da0ed96d30d6f" target="_top" xlink:title="model.TreeInterpreter.interpretTree">
<polygon fill="white" stroke="black" points="208.5,-237.5 208.5,-256.5 391.5,-256.5 391.5,-237.5 208.5,-237.5"/>
<text text-anchor="middle" x="300" y="-244.5" font-family="Helvetica,sans-Serif" font-size="10.00">model.TreeInterpreter.interpretTree</text>
</a>
</g>
</g>
<!-- Node1&#45;&gt;Node8 -->
<g id="edge7" class="edge"><title>Node1&#45;&gt;Node8</title>
<path fill="none" stroke="midnightblue" d="M110.203,-318.617C132.95,-301.801 166.906,-279.095 200,-266 209.845,-262.104 220.567,-258.989 231.2,-256.502"/>
<polygon fill="midnightblue" stroke="midnightblue" points="107.947,-315.934 102.058,-324.742 112.154,-321.529 107.947,-315.934"/>
</g>
<!-- Node34 -->
<g id="node34" class="node"><title>Node34</title>
<g id="a_node34"><a xlink:href="../../d1/d0f/classcommand_1_1control_1_1_repeat_command.html#aa71acf48b916bba734564d4668bb4412" target="_top" xlink:title="command.control.RepeatCommand.\lRepeatCommand">
<polygon fill="white" stroke="black" points="204.5,-188 204.5,-218 395.5,-218 395.5,-188 204.5,-188"/>
<text text-anchor="start" x="212.5" y="-206" font-family="Helvetica,sans-Serif" font-size="10.00">command.control.RepeatCommand.</text>
<text text-anchor="middle" x="300" y="-195" font-family="Helvetica,sans-Serif" font-size="10.00">RepeatCommand</text>
</a>
</g>
</g>
<!-- Node1&#45;&gt;Node34 -->
<g id="edge33" class="edge"><title>Node1&#45;&gt;Node34</title>
<path fill="none" stroke="midnightblue" d="M100.991,-316.683C121.995,-291.087 159.107,-250.631 200,-228 206.98,-224.137 214.565,-220.86 222.326,-218.082"/>
<polygon fill="midnightblue" stroke="midnightblue" points="98.0455,-314.761 94.5038,-324.746 103.499,-319.149 98.0455,-314.761"/>
</g>
<!-- Node35 -->
<g id="node35" class="node"><title>Node35</title>
<g id="a_node35"><a xlink:href="../../d9/d9b/classcommand_1_1control_1_1_tell_command.html#a09c136f2ea04846c9b34194065ce78ee" target="_top" xlink:title="command.control.TellCommand.\lTellCommand">
<polygon fill="white" stroke="black" points="214,-139 214,-169 386,-169 386,-139 214,-139"/>
<text text-anchor="start" x="222" y="-157" font-family="Helvetica,sans-Serif" font-size="10.00">command.control.TellCommand.</text>
<text text-anchor="middle" x="300" y="-146" font-family="Helvetica,sans-Serif" font-size="10.00">TellCommand</text>
</a>
</g>
</g>
<!-- Node1&#45;&gt;Node35 -->
<g id="edge34" class="edge"><title>Node1&#45;&gt;Node35</title>
<path fill="none" stroke="midnightblue" d="M93.8255,-315.441C110.978,-279.49 147.881,-213.015 200,-178 205.138,-174.548 210.722,-171.591 216.533,-169.059"/>
<polygon fill="midnightblue" stroke="midnightblue" points="90.5538,-314.177 89.5152,-324.72 96.9023,-317.126 90.5538,-314.177"/>
</g>
<!-- Node9 -->
<g id="node9" class="node"><title>Node9</title>
<g id="a_node9"><a xlink:href="../../d5/d1a/classcommand_1_1control_1_1_ask_with_command.html#a2a79128bce4d0ce305a2fe690675a70e" target="_top" xlink:title="command.control.AskWithCommand.calculate\lValue">
<polygon fill="white" stroke="black" points="438,-428 438,-458 676,-458 676,-428 438,-428"/>
<text text-anchor="start" x="446" y="-446" font-family="Helvetica,sans-Serif" font-size="10.00">command.control.AskWithCommand.calculate</text>
<text text-anchor="middle" x="557" y="-435" font-family="Helvetica,sans-Serif" font-size="10.00">Value</text>
</a>
</g>
</g>
<!-- Node8&#45;&gt;Node9 -->
<g id="edge8" class="edge"><title>Node8&#45;&gt;Node9</title>
<path fill="none" stroke="midnightblue" d="M395.39,-262.039C396.991,-263.274 398.531,-264.593 400,-266 450.133,-314.025 386.247,-369.581 436,-418 439.889,-421.785 444.194,-425.063 448.793,-427.9"/>
<polygon fill="midnightblue" stroke="midnightblue" points="397.21,-259.047 386.917,-256.534 393.396,-264.917 397.21,-259.047"/>
</g>
<!-- Node10 -->
<g id="node10" class="node"><title>Node10</title>
<g id="a_node10"><a xlink:href="../../d1/d18/classcommand_1_1control_1_1_execute_user_command.html#a1ce1cab877c9c9199aee9f8e687f74fb" target="_top" xlink:title="command.control.ExecuteUser\lCommand.calculateValue">
<polygon fill="white" stroke="black" points="474.5,-379 474.5,-409 639.5,-409 639.5,-379 474.5,-379"/>
<text text-anchor="start" x="482.5" y="-397" font-family="Helvetica,sans-Serif" font-size="10.00">command.control.ExecuteUser</text>
<text text-anchor="middle" x="557" y="-386" font-family="Helvetica,sans-Serif" font-size="10.00">Command.calculateValue</text>
</a>
</g>
</g>
<!-- Node8&#45;&gt;Node10 -->
<g id="edge9" class="edge"><title>Node8&#45;&gt;Node10</title>
<path fill="none" stroke="midnightblue" d="M394.429,-261.719C396.362,-263.042 398.224,-264.467 400,-266 436.71,-297.686 399.542,-337.025 436,-369 446.8,-378.471 460.247,-384.686 474.195,-388.703"/>
<polygon fill="midnightblue" stroke="midnightblue" points="395.94,-258.549 385.536,-256.544 392.419,-264.599 395.94,-258.549"/>
</g>
<!-- Node11 -->
<g id="node11" class="node"><title>Node11</title>
<g id="a_node11"><a xlink:href="../../d4/dea/classcommand_1_1control_1_1_ask_command.html#a0e92735076727a8f4ef8affeb592e8b4" target="_top" xlink:title="command.control.AskCommand.calculate\lValue">
<polygon fill="white" stroke="black" points="448,-330 448,-360 666,-360 666,-330 448,-330"/>
<text text-anchor="start" x="456" y="-348" font-family="Helvetica,sans-Serif" font-size="10.00">command.control.AskCommand.calculate</text>
<text text-anchor="middle" x="557" y="-337" font-family="Helvetica,sans-Serif" font-size="10.00">Value</text>
</a>
</g>
</g>
<!-- Node8&#45;&gt;Node11 -->
<g id="edge10" class="edge"><title>Node8&#45;&gt;Node11</title>
<path fill="none" stroke="midnightblue" d="M390.673,-260.647C393.907,-262.25 397.031,-264.028 400,-266 424.029,-281.957 412.098,-303.854 436,-320 441.731,-323.871 447.941,-327.163 454.416,-329.959"/>
<polygon fill="midnightblue" stroke="midnightblue" points="391.867,-257.349 381.3,-256.577 389.079,-263.77 391.867,-257.349"/>
</g>
<!-- Node12 -->
<g id="node12" class="node"><title>Node12</title>
<g id="a_node12"><a xlink:href="../../d1/d0f/classcommand_1_1control_1_1_repeat_command.html#af9c3a3854b4eaabafc7c09bdbe83de0e" target="_top" xlink:title="command.control.RepeatCommand.calculate\lValue">
<polygon fill="white" stroke="black" points="440.5,-281 440.5,-311 673.5,-311 673.5,-281 440.5,-281"/>
<text text-anchor="start" x="448.5" y="-299" font-family="Helvetica,sans-Serif" font-size="10.00">command.control.RepeatCommand.calculate</text>
<text text-anchor="middle" x="557" y="-288" font-family="Helvetica,sans-Serif" font-size="10.00">Value</text>
</a>
</g>
</g>
<!-- Node8&#45;&gt;Node12 -->
<g id="edge11" class="edge"><title>Node8&#45;&gt;Node12</title>
<path fill="none" stroke="midnightblue" d="M360.798,-258.473C373.726,-260.954 387.32,-263.564 400,-266 425.324,-270.865 452.959,-276.178 477.839,-280.963"/>
<polygon fill="midnightblue" stroke="midnightblue" points="361.084,-254.964 350.603,-256.516 359.764,-261.838 361.084,-254.964"/>
</g>
<!-- Node13 -->
<g id="node13" class="node"><title>Node13</title>
<g id="a_node13"><a xlink:href="../../d6/d3b/classcommand_1_1control_1_1_if_command.html#acf428d2a9882866a2f00fbbee727f4f1" target="_top" xlink:title="command.control.IfCommand.calculate\lValue">
<polygon fill="white" stroke="black" points="454,-232 454,-262 660,-262 660,-232 454,-232"/>
<text text-anchor="start" x="462" y="-250" font-family="Helvetica,sans-Serif" font-size="10.00">command.control.IfCommand.calculate</text>
<text text-anchor="middle" x="557" y="-239" font-family="Helvetica,sans-Serif" font-size="10.00">Value</text>
</a>
</g>
</g>
<!-- Node8&#45;&gt;Node13 -->
<g id="edge12" class="edge"><title>Node8&#45;&gt;Node13</title>
<path fill="none" stroke="midnightblue" d="M401.655,-247C418.847,-247 436.721,-247 453.949,-247"/>
<polygon fill="midnightblue" stroke="midnightblue" points="401.621,-243.5 391.621,-247 401.621,-250.5 401.621,-243.5"/>
</g>
<!-- Node14 -->
<g id="node14" class="node"><title>Node14</title>
<g id="a_node14"><a xlink:href="../../d7/dae/classcommand_1_1control_1_1_do_times_command.html#a932eb0f99c5b2fecf8fd6939ef4b0c5b" target="_top" xlink:title="command.control.DoTimesCommand.calculate\lValue">
<polygon fill="white" stroke="black" points="436,-183 436,-213 678,-213 678,-183 436,-183"/>
<text text-anchor="start" x="444" y="-201" font-family="Helvetica,sans-Serif" font-size="10.00">command.control.DoTimesCommand.calculate</text>
<text text-anchor="middle" x="557" y="-190" font-family="Helvetica,sans-Serif" font-size="10.00">Value</text>
</a>
</g>
</g>
<!-- Node8&#45;&gt;Node14 -->
<g id="edge13" class="edge"><title>Node8&#45;&gt;Node14</title>
<path fill="none" stroke="midnightblue" d="M360.501,-235.566C395.379,-228.864 439.853,-220.318 477.568,-213.071"/>
<polygon fill="midnightblue" stroke="midnightblue" points="359.629,-232.17 350.469,-237.494 360.95,-239.044 359.629,-232.17"/>
</g>
<!-- Node15 -->
<g id="node15" class="node"><title>Node15</title>
<g id="a_node15"><a xlink:href="../../da/db2/classcommand_1_1control_1_1_for_command.html#ad494f107c7c0e97f862dcfddc476a064" target="_top" xlink:title="command.control.ForCommand.calculate\lValue">
<polygon fill="white" stroke="black" points="449.5,-134 449.5,-164 664.5,-164 664.5,-134 449.5,-134"/>
<text text-anchor="start" x="457.5" y="-152" font-family="Helvetica,sans-Serif" font-size="10.00">command.control.ForCommand.calculate</text>
<text text-anchor="middle" x="557" y="-141" font-family="Helvetica,sans-Serif" font-size="10.00">Value</text>
</a>
</g>
</g>
<!-- Node8&#45;&gt;Node15 -->
<g id="edge14" class="edge"><title>Node8&#45;&gt;Node15</title>
<path fill="none" stroke="midnightblue" d="M388.581,-233.445C392.564,-231.556 396.396,-229.418 400,-227 423.951,-210.927 412.034,-189.05 436,-173 441.119,-169.572 446.619,-166.612 452.346,-164.059"/>
<polygon fill="midnightblue" stroke="midnightblue" points="386.937,-230.338 379.051,-237.415 389.628,-236.8 386.937,-230.338"/>
</g>
<!-- Node16 -->
<g id="node16" class="node"><title>Node16</title>
<g id="a_node16"><a xlink:href="../../d3/dcf/classcommand_1_1control_1_1_if_else_command.html#ac1a2c320a23705da633419c13a18ff91" target="_top" xlink:title="command.control.IfElseCommand.calculate\lValue">
<polygon fill="white" stroke="black" points="444.5,-85 444.5,-115 669.5,-115 669.5,-85 444.5,-85"/>
<text text-anchor="start" x="452.5" y="-103" font-family="Helvetica,sans-Serif" font-size="10.00">command.control.IfElseCommand.calculate</text>
<text text-anchor="middle" x="557" y="-92" font-family="Helvetica,sans-Serif" font-size="10.00">Value</text>
</a>
</g>
</g>
<!-- Node8&#45;&gt;Node16 -->
<g id="edge15" class="edge"><title>Node8&#45;&gt;Node16</title>
<path fill="none" stroke="midnightblue" d="M392.466,-232.638C395.109,-230.939 397.631,-229.065 400,-227 436.555,-195.136 399.414,-155.829 436,-124 439.927,-120.584 444.202,-117.601 448.721,-115.001"/>
<polygon fill="midnightblue" stroke="midnightblue" points="390.726,-229.601 383.656,-237.492 394.104,-235.732 390.726,-229.601"/>
</g>
<!-- Node17 -->
<g id="node17" class="node"><title>Node17</title>
<g id="a_node17"><a xlink:href="../../d9/df7/classcontroller_1_1_controller.html#a3d81fb1a57114f96fb6c319f4c5df370" target="_top" xlink:title="controller.Controller.parse\lCommand">
<polygon fill="white" stroke="black" points="487,-36 487,-66 627,-66 627,-36 487,-36"/>
<text text-anchor="start" x="495" y="-54" font-family="Helvetica,sans-Serif" font-size="10.00">controller.Controller.parse</text>
<text text-anchor="middle" x="557" y="-43" font-family="Helvetica,sans-Serif" font-size="10.00">Command</text>
</a>
</g>
</g>
<!-- Node8&#45;&gt;Node17 -->
<g id="edge16" class="edge"><title>Node8&#45;&gt;Node17</title>
<path fill="none" stroke="midnightblue" d="M394.047,-232.021C396.134,-230.484 398.125,-228.813 400,-227 449.899,-178.732 386.054,-123.22 436,-75 449.604,-61.8665 468.252,-54.9642 486.794,-51.5477"/>
<polygon fill="midnightblue" stroke="midnightblue" points="392.19,-229.054 385.558,-237.316 395.895,-234.993 392.19,-229.054"/>
</g>
<!-- Node18 -->
<g id="node18" class="node"><title>Node18</title>
<g id="a_node18"><a xlink:href="../../d5/d06/classui_1_1_scene_updater.html#ab77a04f8b0038429b09237aac18906e8" target="_top" xlink:title="ui.SceneUpdater.sendCommands">
<polygon fill="white" stroke="black" points="714,-41.5 714,-60.5 892,-60.5 892,-41.5 714,-41.5"/>
<text text-anchor="middle" x="803" y="-48.5" font-family="Helvetica,sans-Serif" font-size="10.00">ui.SceneUpdater.sendCommands</text>
</a>
</g>
</g>
<!-- Node17&#45;&gt;Node18 -->
<g id="edge17" class="edge"><title>Node17&#45;&gt;Node18</title>
<path fill="none" stroke="midnightblue" d="M637.545,-51C661.924,-51 688.888,-51 713.808,-51"/>
<polygon fill="midnightblue" stroke="midnightblue" points="637.268,-47.5001 627.268,-51 637.268,-54.5001 637.268,-47.5001"/>
</g>
<!-- Node19 -->
<g id="node19" class="node"><title>Node19</title>
<g id="a_node19"><a xlink:href="../../dc/d3b/classui_1_1_g_u_i.html#ad8f08a79a20a498bcaafdc7e2e2ce0a9" target="_top" xlink:title="ui.GUI.parseCommand">
<polygon fill="white" stroke="black" points="928.5,-41.5 928.5,-60.5 1053.5,-60.5 1053.5,-41.5 928.5,-41.5"/>
<text text-anchor="middle" x="991" y="-48.5" font-family="Helvetica,sans-Serif" font-size="10.00">ui.GUI.parseCommand</text>
</a>
</g>
</g>
<!-- Node18&#45;&gt;Node19 -->
<g id="edge18" class="edge"><title>Node18&#45;&gt;Node19</title>
<path fill="none" stroke="midnightblue" d="M902.196,-51C911.132,-51 920.003,-51 928.479,-51"/>
<polygon fill="midnightblue" stroke="midnightblue" points="902.098,-47.5001 892.098,-51 902.098,-54.5001 902.098,-47.5001"/>
</g>
<!-- Node20 -->
<g id="node20" class="node"><title>Node20</title>
<g id="a_node20"><a xlink:href="../../d8/d3c/classui_1_1elements_1_1_i_o_element.html#a139a046f0c771f86696f2eee04047c64" target="_top" xlink:title="ui.elements.IOElement.init">
<polygon fill="white" stroke="black" points="1106.5,-60.5 1106.5,-79.5 1249.5,-79.5 1249.5,-60.5 1106.5,-60.5"/>
<text text-anchor="middle" x="1178" y="-67.5" font-family="Helvetica,sans-Serif" font-size="10.00">ui.elements.IOElement.init</text>
</a>
</g>
</g>
<!-- Node19&#45;&gt;Node20 -->
<g id="edge19" class="edge"><title>Node19&#45;&gt;Node20</title>
<path fill="none" stroke="midnightblue" d="M1063.68,-58.3614C1077.7,-59.8019 1092.4,-61.3116 1106.39,-62.7485"/>
<polygon fill="midnightblue" stroke="midnightblue" points="1063.91,-54.8668 1053.6,-57.3267 1063.19,-61.8302 1063.91,-54.8668"/>
</g>
<!-- Node22 -->
<g id="node22" class="node"><title>Node22</title>
<g id="a_node22"><a xlink:href="../../dc/d3b/classui_1_1_g_u_i.html#ab8ec2a37b3d5bd9e8c2abbb3642fb965" target="_top" xlink:title="ui.GUI.setupKeyboardCommands">
<polygon fill="white" stroke="black" points="1090.5,-22.5 1090.5,-41.5 1265.5,-41.5 1265.5,-22.5 1090.5,-22.5"/>
<text text-anchor="middle" x="1178" y="-29.5" font-family="Helvetica,sans-Serif" font-size="10.00">ui.GUI.setupKeyboardCommands</text>
</a>
</g>
</g>
<!-- Node19&#45;&gt;Node22 -->
<g id="edge21" class="edge"><title>Node19&#45;&gt;Node22</title>
<path fill="none" stroke="midnightblue" d="M1063.69,-43.6368C1072.41,-42.7417 1081.39,-41.8199 1090.29,-40.9054"/>
<polygon fill="midnightblue" stroke="midnightblue" points="1063.19,-40.1698 1053.6,-44.6733 1063.91,-47.1332 1063.19,-40.1698"/>
</g>
<!-- Node21 -->
<g id="node21" class="node"><title>Node21</title>
<g id="a_node21"><a xlink:href="../../d8/d3c/classui_1_1elements_1_1_i_o_element.html#a556e1a3ad292fe3ab731065eef59b187" target="_top" xlink:title="ui.elements.IOElement.IOElement">
<polygon fill="white" stroke="black" points="1302,-60.5 1302,-79.5 1480,-79.5 1480,-60.5 1302,-60.5"/>
<text text-anchor="middle" x="1391" y="-67.5" font-family="Helvetica,sans-Serif" font-size="10.00">ui.elements.IOElement.IOElement</text>
</a>
</g>
</g>
<!-- Node20&#45;&gt;Node21 -->
<g id="edge20" class="edge"><title>Node20&#45;&gt;Node21</title>
<path fill="none" stroke="midnightblue" d="M1259.92,-70C1273.65,-70 1287.97,-70 1301.88,-70"/>
<polygon fill="midnightblue" stroke="midnightblue" points="1259.55,-66.5001 1249.55,-70 1259.55,-73.5001 1259.55,-66.5001"/>
</g>
<!-- Node23 -->
<g id="node23" class="node"><title>Node23</title>
<g id="a_node23"><a xlink:href="../../dc/d3b/classui_1_1_g_u_i.html#a765d554102f38969231261686f2f8e27" target="_top" xlink:title="ui.GUI.initialize">
<polygon fill="white" stroke="black" points="1348,-22.5 1348,-41.5 1434,-41.5 1434,-22.5 1348,-22.5"/>
<text text-anchor="middle" x="1391" y="-29.5" font-family="Helvetica,sans-Serif" font-size="10.00">ui.GUI.initialize</text>
</a>
</g>
</g>
<!-- Node22&#45;&gt;Node23 -->
<g id="edge22" class="edge"><title>Node22&#45;&gt;Node23</title>
<path fill="none" stroke="midnightblue" d="M1275.75,-32C1301.02,-32 1326.96,-32 1347.72,-32"/>
<polygon fill="midnightblue" stroke="midnightblue" points="1275.74,-28.5001 1265.74,-32 1275.74,-35.5001 1275.74,-28.5001"/>
</g>
<!-- Node24 -->
<g id="node24" class="node"><title>Node24</title>
<g id="a_node24"><a xlink:href="../../d5/d06/classui_1_1_scene_updater.html#aeef5dd7a8ec2ad6179e33fdd71ea90d6" target="_top" xlink:title="ui.SceneUpdater.initGUI">
<polygon fill="white" stroke="black" points="1516.5,-22.5 1516.5,-41.5 1647.5,-41.5 1647.5,-22.5 1516.5,-22.5"/>
<text text-anchor="middle" x="1582" y="-29.5" font-family="Helvetica,sans-Serif" font-size="10.00">ui.SceneUpdater.initGUI</text>
</a>
</g>
</g>
<!-- Node23&#45;&gt;Node24 -->
<g id="edge23" class="edge"><title>Node23&#45;&gt;Node24</title>
<path fill="none" stroke="midnightblue" d="M1444.67,-32C1466.92,-32 1493.05,-32 1516.45,-32"/>
<polygon fill="midnightblue" stroke="midnightblue" points="1444.42,-28.5001 1434.42,-32 1444.42,-35.5001 1444.42,-28.5001"/>
</g>
<!-- Node25 -->
<g id="node25" class="node"><title>Node25</title>
<g id="a_node25"><a xlink:href="../../d9/df7/classcontroller_1_1_controller.html#a57e42ba83ee2145e6262cd72eac59570" target="_top" xlink:title="controller.Controller.init">
<polygon fill="white" stroke="black" points="1684.5,-22.5 1684.5,-41.5 1811.5,-41.5 1811.5,-22.5 1684.5,-22.5"/>
<text text-anchor="middle" x="1748" y="-29.5" font-family="Helvetica,sans-Serif" font-size="10.00">controller.Controller.init</text>
</a>
</g>
</g>
<!-- Node24&#45;&gt;Node25 -->
<g id="edge24" class="edge"><title>Node24&#45;&gt;Node25</title>
<path fill="none" stroke="midnightblue" d="M1658.04,-32C1666.81,-32 1675.68,-32 1684.26,-32"/>
<polygon fill="midnightblue" stroke="midnightblue" points="1657.82,-28.5001 1647.82,-32 1657.82,-35.5001 1657.82,-28.5001"/>
</g>
<!-- Node26 -->
<g id="node26" class="node"><title>Node26</title>
<g id="a_node26"><a xlink:href="../../dd/df2/classmain_1_1_workspace_manager.html#abc818b59211f6e14940b86a42bb868d0" target="_top" xlink:title="main.WorkspaceManager.create\lWorkspace">
<polygon fill="white" stroke="black" points="1848,-17 1848,-47 2018,-47 2018,-17 1848,-17"/>
<text text-anchor="start" x="1856" y="-35" font-family="Helvetica,sans-Serif" font-size="10.00">main.WorkspaceManager.create</text>
<text text-anchor="middle" x="1933" y="-24" font-family="Helvetica,sans-Serif" font-size="10.00">Workspace</text>
</a>
</g>
</g>
<!-- Node25&#45;&gt;Node26 -->
<g id="edge25" class="edge"><title>Node25&#45;&gt;Node26</title>
<path fill="none" stroke="midnightblue" d="M1821.92,-32C1830.39,-32 1839.08,-32 1847.69,-32"/>
<polygon fill="midnightblue" stroke="midnightblue" points="1821.72,-28.5001 1811.72,-32 1821.72,-35.5001 1821.72,-28.5001"/>
</g>
<!-- Node27 -->
<g id="node27" class="node"><title>Node27</title>
<g id="a_node27"><a xlink:href="../../d9/df7/classcontroller_1_1_controller.html#a3a9d672bb57047df70945ad1a9582c9a" target="_top" xlink:title="controller.Controller.create\lNewWorkspace">
<polygon fill="white" stroke="black" points="2054.5,-39 2054.5,-69 2197.5,-69 2197.5,-39 2054.5,-39"/>
<text text-anchor="start" x="2062.5" y="-57" font-family="Helvetica,sans-Serif" font-size="10.00">controller.Controller.create</text>
<text text-anchor="middle" x="2126" y="-46" font-family="Helvetica,sans-Serif" font-size="10.00">NewWorkspace</text>
</a>
</g>
</g>
<!-- Node26&#45;&gt;Node27 -->
<g id="edge26" class="edge"><title>Node26&#45;&gt;Node27</title>
<path fill="none" stroke="midnightblue" d="M2028.03,-42.8303C2036.88,-43.8503 2045.75,-44.8721 2054.34,-45.8608"/>
<polygon fill="midnightblue" stroke="midnightblue" points="2028.39,-39.3489 2018.05,-41.6815 2027.59,-46.3029 2028.39,-39.3489"/>
</g>
<!-- Node33 -->
<g id="node33" class="node"><title>Node33</title>
<g id="a_node33"><a xlink:href="../../d1/d0b/classmain_1_1_main.html#a9f1e5657b2f6f9bdd69a3b6412ceda74" target="_top" xlink:title="main.Main.start">
<polygon fill="white" stroke="black" points="2080,-0.5 2080,-19.5 2172,-19.5 2172,-0.5 2080,-0.5"/>
<text text-anchor="middle" x="2126" y="-7.5" font-family="Helvetica,sans-Serif" font-size="10.00">main.Main.start</text>
</a>
</g>
</g>
<!-- Node26&#45;&gt;Node33 -->
<g id="edge32" class="edge"><title>Node26&#45;&gt;Node33</title>
<path fill="none" stroke="midnightblue" d="M2028.09,-21.1629C2046.19,-19.0779 2064.36,-16.9851 2079.99,-15.1843"/>
<polygon fill="midnightblue" stroke="midnightblue" points="2027.59,-17.6971 2018.05,-22.3185 2028.39,-24.6511 2027.59,-17.6971"/>
</g>
<!-- Node28 -->
<g id="node28" class="node"><title>Node28</title>
<g id="a_node28"><a xlink:href="../../d5/d06/classui_1_1_scene_updater.html#a2858ad8edb0c0f59a21e2ae015f2fa1e" target="_top" xlink:title="ui.SceneUpdater.createNew\lWorkspace">
<polygon fill="white" stroke="black" points="2234,-39 2234,-69 2384,-69 2384,-39 2234,-39"/>
<text text-anchor="start" x="2242" y="-57" font-family="Helvetica,sans-Serif" font-size="10.00">ui.SceneUpdater.createNew</text>
<text text-anchor="middle" x="2309" y="-46" font-family="Helvetica,sans-Serif" font-size="10.00">Workspace</text>
</a>
</g>
</g>
<!-- Node27&#45;&gt;Node28 -->
<g id="edge27" class="edge"><title>Node27&#45;&gt;Node28</title>
<path fill="none" stroke="midnightblue" d="M2207.8,-54C2216.43,-54 2225.17,-54 2233.71,-54"/>
<polygon fill="midnightblue" stroke="midnightblue" points="2207.76,-50.5001 2197.76,-54 2207.76,-57.5001 2207.76,-50.5001"/>
</g>
<!-- Node29 -->
<g id="node29" class="node"><title>Node29</title>
<g id="a_node29"><a xlink:href="../../dc/d3b/classui_1_1_g_u_i.html#a2edc294ba07311e6c4b85c9fe749d1bf" target="_top" xlink:title="ui.GUI.createNewWorkspace">
<polygon fill="white" stroke="black" points="2420,-44.5 2420,-63.5 2570,-63.5 2570,-44.5 2420,-44.5"/>
<text text-anchor="middle" x="2495" y="-51.5" font-family="Helvetica,sans-Serif" font-size="10.00">ui.GUI.createNewWorkspace</text>
</a>
</g>
</g>
<!-- Node28&#45;&gt;Node29 -->
<g id="edge28" class="edge"><title>Node28&#45;&gt;Node29</title>
<path fill="none" stroke="midnightblue" d="M2394.07,-54C2402.65,-54 2411.34,-54 2419.81,-54"/>
<polygon fill="midnightblue" stroke="midnightblue" points="2394.04,-50.5001 2384.04,-54 2394.04,-57.5001 2394.04,-50.5001"/>
</g>
<!-- Node30 -->
<g id="node30" class="node"><title>Node30</title>
<g id="a_node30"><a xlink:href="../../d0/de6/classui_1_1elements_1_1_menu_bar_element.html#a98c13995a31d997aa10f2950583da6cc" target="_top" xlink:title="ui.elements.MenuBarElement.make\lMenuBar">
<polygon fill="white" stroke="black" points="2606,-39 2606,-69 2794,-69 2794,-39 2606,-39"/>
<text text-anchor="start" x="2614" y="-57" font-family="Helvetica,sans-Serif" font-size="10.00">ui.elements.MenuBarElement.make</text>
<text text-anchor="middle" x="2700" y="-46" font-family="Helvetica,sans-Serif" font-size="10.00">MenuBar</text>
</a>
</g>
</g>
<!-- Node29&#45;&gt;Node30 -->
<g id="edge29" class="edge"><title>Node29&#45;&gt;Node30</title>
<path fill="none" stroke="midnightblue" d="M2580.28,-54C2588.66,-54 2597.21,-54 2605.68,-54"/>
<polygon fill="midnightblue" stroke="midnightblue" points="2580.15,-50.5001 2570.15,-54 2580.15,-57.5001 2580.15,-50.5001"/>
</g>
<!-- Node31 -->
<g id="node31" class="node"><title>Node31</title>
<g id="a_node31"><a xlink:href="../../d0/de6/classui_1_1elements_1_1_menu_bar_element.html#a7bdb58f78cf8b61ba28498c5c86ab682" target="_top" xlink:title="ui.elements.MenuBarElement.init">
<polygon fill="white" stroke="black" points="2830,-44.5 2830,-63.5 3006,-63.5 3006,-44.5 2830,-44.5"/>
<text text-anchor="middle" x="2918" y="-51.5" font-family="Helvetica,sans-Serif" font-size="10.00">ui.elements.MenuBarElement.init</text>
</a>
</g>
</g>
<!-- Node30&#45;&gt;Node31 -->
<g id="edge30" class="edge"><title>Node30&#45;&gt;Node31</title>
<path fill="none" stroke="midnightblue" d="M2804.23,-54C2812.83,-54 2821.48,-54 2829.94,-54"/>
<polygon fill="midnightblue" stroke="midnightblue" points="2804.17,-50.5001 2794.17,-54 2804.17,-57.5001 2804.17,-50.5001"/>
</g>
<!-- Node32 -->
<g id="node32" class="node"><title>Node32</title>
<g id="a_node32"><a xlink:href="../../d0/de6/classui_1_1elements_1_1_menu_bar_element.html#ab4a4e6841c924a9d9c70b8073b56dffc" target="_top" xlink:title="ui.elements.MenuBarElement.\lMenuBarElement">
<polygon fill="white" stroke="black" points="3042.5,-39 3042.5,-69 3203.5,-69 3203.5,-39 3042.5,-39"/>
<text text-anchor="start" x="3050.5" y="-57" font-family="Helvetica,sans-Serif" font-size="10.00">ui.elements.MenuBarElement.</text>
<text text-anchor="middle" x="3123" y="-46" font-family="Helvetica,sans-Serif" font-size="10.00">MenuBarElement</text>
</a>
</g>
</g>
<!-- Node31&#45;&gt;Node32 -->
<g id="edge31" class="edge"><title>Node31&#45;&gt;Node32</title>
<path fill="none" stroke="midnightblue" d="M3016.47,-54C3025.19,-54 3033.95,-54 3042.5,-54"/>
<polygon fill="midnightblue" stroke="midnightblue" points="3016.27,-50.5001 3006.27,-54 3016.27,-57.5001 3016.27,-50.5001"/>
</g>
</g>
</svg>
        <g id="navigator" transform="translate(0 0)" fill="#404254">
                <rect fill="#f2f5e9" fill-opacity="0.5" stroke="#606060" stroke-width=".5" x="0" y="0" width="60" height="60"/>
                <use id="zoomplus" xlink:href="#zoomPlus" x="17" y="9" onmousedown="handleZoom(evt,'in')"/>
                <use id="zoomminus" xlink:href="#zoomMin" x="42" y="9" onmousedown="handleZoom(evt,'out')"/>
                <use id="reset" xlink:href="#resetDef" x="30" y="36" onmousedown="handleReset()"/>
                <g id="arrowUp" xlink:href="#dirArrow" transform="translate(30 24)" onmousedown="handlePan(0,-1)">
                  <use xlink:href="#rim" fill="#404040">
                        <set attributeName="fill" to="#808080" begin="arrowUp.mouseover" end="arrowUp.mouseout"/>
                  </use>
                  <path fill="none" stroke="white" stroke-width="1.5" d="M0,-3.0v7 M-2.5,-0.5L0,-3.0L2.5,-0.5"/>
                </g>
                <g id="arrowRight" xlink:href="#dirArrow" transform="rotate(90) translate(36 -43)" onmousedown="handlePan(1,0)">
                  <use xlink:href="#rim" fill="#404040">
                        <set attributeName="fill" to="#808080" begin="arrowRight.mouseover" end="arrowRight.mouseout"/>
                  </use>
                  <path fill="none" stroke="white" stroke-width="1.5" d="M0,-3.0v7 M-2.5,-0.5L0,-3.0L2.5,-0.5"/>
                </g>
                <g id="arrowDown" xlink:href="#dirArrow" transform="rotate(180) translate(-30 -48)" onmousedown="handlePan(0,1)">
                  <use xlink:href="#rim" fill="#404040">
                        <set attributeName="fill" to="#808080" begin="arrowDown.mouseover" end="arrowDown.mouseout"/>
                  </use>
                  <path fill="none" stroke="white" stroke-width="1.5" d="M0,-3.0v7 M-2.5,-0.5L0,-3.0L2.5,-0.5"/>
                </g>
                <g id="arrowLeft" xlink:href="#dirArrow" transform="rotate(270) translate(-36 17)" onmousedown="handlePan(-1,0)">
                  <use xlink:href="#rim" fill="#404040">
                        <set attributeName="fill" to="#808080" begin="arrowLeft.mouseover" end="arrowLeft.mouseout"/>
                  </use>
                  <path fill="none" stroke="white" stroke-width="1.5" d="M0,-3.0v7 M-2.5,-0.5L0,-3.0L2.5,-0.5"/>
                </g>
        </g>
        <svg viewBox="0 0 15 15" width="100%" height="30px" preserveAspectRatio="xMaxYMin meet">
         <g id="arrow_out" transform="scale(0.3 0.3)">
          <a xlink:href="classparser_1_1_command_tree_node_a2700486f6a49c0a080114bee6e51f271_icgraph_org.svg" target="_base">
           <rect id="button" ry="5" rx="5" y="6" x="6" height="38" width="38"
                fill="#f2f5e9" fill-opacity="0.5" stroke="#606060" stroke-width="1.0"/>
           <path id="arrow"
             d="M 11.500037,31.436501 C 11.940474,20.09759 22.043105,11.32322 32.158766,21.979434 L 37.068811,17.246167 C 37.068811,17.246167 37.088388,32 37.088388,32 L 22.160133,31.978069 C 22.160133,31.978069 26.997745,27.140456 26.997745,27.140456 C 18.528582,18.264221 13.291696,25.230495 11.500037,31.436501 z"
             style="fill:#404040;"/>
          </a>
         </g>
        </svg>
</svg>
