<?xml version="1.0" encoding="UTF-8" standalone="no"?>
<!DOCTYPE svg PUBLIC "-//W3C//DTD SVG 1.1//EN"
 "http://www.w3.org/Graphics/SVG/1.1/DTD/svg11.dtd">
<!-- Generated by graphviz version 2.36.0 (20140111.2315)
 -->
<!-- Title: parser.CommandTreeNode.getType Pages: 1 -->
<!--zoomable 488 -->
<svg id="main" version="1.1" xmlns="http://www.w3.org/2000/svg" xmlns:xlink="http://www.w3.org/1999/xlink" xml:space="preserve" onload="init(evt)">
<style type="text/css"><![CDATA[
.edge:hover path { stroke: red; }
.edge:hover polygon { stroke: red; fill: red; }
]]></style>
<script type="text/javascript"><![CDATA[
var edges = document.getElementsByTagName('g');
if (edges && edges.length) {
  for (var i=0;i<edges.length;i++) {
    if (edges[i].id.substr(0,4)=='edge') {
      edges[i].setAttribute('class','edge');
    }
  }
}
]]></script>
        <defs>
                <circle id="rim" cx="0" cy="0" r="7"/>
                <circle id="rim2" cx="0" cy="0" r="3.5"/>
                <g id="zoomPlus">
                        <use xlink:href="#rim" fill="#404040">
                                <set attributeName="fill" to="#808080" begin="zoomplus.mouseover" end="zoomplus.mouseout"/>
                        </use>
                        <path d="M-4,0h8M0,-4v8" fill="none" stroke="white" stroke-width="1.5" pointer-events="none"/>
                </g>
                <g id="zoomMin">
                        <use xlink:href="#rim" fill="#404040">
                                <set attributeName="fill" to="#808080" begin="zoomminus.mouseover" end="zoomminus.mouseout"/>
                        </use>
                        <path d="M-4,0h8" fill="none" stroke="white" stroke-width="1.5" pointer-events="none"/>
                </g>
                <g id="dirArrow">
                        <path fill="none" stroke="white" stroke-width="1.5" d="M0,-3.0v7 M-2.5,-0.5L0,-3.0L2.5,-0.5"/>
                </g>
               <g id="resetDef">
                       <use xlink:href="#rim2" fill="#404040">
                               <set attributeName="fill" to="#808080" begin="reset.mouseover" end="reset.mouseout"/>
                       </use>
               </g>
        </defs>

<script type="text/javascript">
var viewWidth = 3620;
var viewHeight = 488;
var sectionId = 'dynsection-4';
</script>
<script xlink:href="../../svgpan.js"/>
<svg id="graph" class="graph">
<g id="viewport">
<title>parser.CommandTreeNode.getType</title>
<polygon fill="white" stroke="none" points="-4,4 -4,-484 3616,-484 3616,4 -4,4"/>
<!-- Node1 -->
<g id="node1" class="node"><title>Node1</title>
<polygon fill="#bfbfbf" stroke="black" points="0.5,-152.5 0.5,-171.5 185.5,-171.5 185.5,-152.5 0.5,-152.5"/>
<text text-anchor="middle" x="93" y="-159.5" font-family="Helvetica,sans-Serif" font-size="10.00">parser.CommandTreeNode.getType</text>
</g>
<!-- Node2 -->
<g id="node2" class="node"><title>Node2</title>
<g id="a_node2"><a xlink:href="../../d9/d88/classmodel_1_1_tree_interpreter.html#af4d24e7867eb3a4a53f79f4a9288f9fd" target="_top" xlink:title="model.TreeInterpreter.execute\lCommand">
<polygon fill="white" stroke="black" points="224.5,-317 224.5,-347 385.5,-347 385.5,-317 224.5,-317"/>
<text text-anchor="start" x="232.5" y="-335" font-family="Helvetica,sans-Serif" font-size="10.00">model.TreeInterpreter.execute</text>
<text text-anchor="middle" x="305" y="-324" font-family="Helvetica,sans-Serif" font-size="10.00">Command</text>
</a>
</g>
</g>
<!-- Node1&#45;&gt;Node2 -->
<g id="edge1" class="edge"><title>Node1&#45;&gt;Node2</title>
<path fill="none" stroke="midnightblue" d="M106.102,-180.084C126.658,-209.519 171.147,-267.919 222,-302 230.815,-307.908 240.94,-312.827 251,-316.858"/>
<polygon fill="midnightblue" stroke="midnightblue" points="108.834,-177.88 100.292,-171.613 103.062,-181.839 108.834,-177.88"/>
</g>
<!-- Node3 -->
<g id="node3" class="node"><title>Node3</title>
<g id="a_node3"><a xlink:href="../../d9/d88/classmodel_1_1_tree_interpreter.html#a3e460e5ebe66f781afb480f0f0ec2ce7" target="_top" xlink:title="model.TreeInterpreter.update">
<polygon fill="white" stroke="black" points="428,-278.5 428,-297.5 584,-297.5 584,-278.5 428,-278.5"/>
<text text-anchor="middle" x="506" y="-285.5" font-family="Helvetica,sans-Serif" font-size="10.00">model.TreeInterpreter.update</text>
</a>
</g>
</g>
<!-- Node1&#45;&gt;Node3 -->
<g id="edge37" class="edge"><title>Node1&#45;&gt;Node3</title>
<path fill="none" stroke="midnightblue" d="M109.315,-179.424C131.474,-203.286 175.002,-245.298 222,-264 287.973,-290.252 369.269,-294.564 427.776,-293.313"/>
<polygon fill="midnightblue" stroke="midnightblue" points="111.712,-176.858 102.397,-171.809 106.53,-181.564 111.712,-176.858"/>
</g>
<!-- Node4 -->
<g id="node4" class="node"><title>Node4</title>
<g id="a_node4"><a xlink:href="../../d9/d88/classmodel_1_1_tree_interpreter.html#a501df6b8cfe1a8175a9da0ed96d30d6f" target="_top" xlink:title="model.TreeInterpreter.interpretTree">
<polygon fill="white" stroke="black" points="624.5,-259.5 624.5,-278.5 807.5,-278.5 807.5,-259.5 624.5,-259.5"/>
<text text-anchor="middle" x="716" y="-266.5" font-family="Helvetica,sans-Serif" font-size="10.00">model.TreeInterpreter.interpretTree</text>
</a>
</g>
</g>
<!-- Node1&#45;&gt;Node4 -->
<g id="edge29" class="edge"><title>Node1&#45;&gt;Node4</title>
<path fill="none" stroke="midnightblue" d="M115.944,-177.285C140.523,-193.512 182.156,-218.386 222,-230 295.051,-251.294 503.285,-261.797 624.485,-266.244"/>
<polygon fill="midnightblue" stroke="midnightblue" points="117.649,-174.213 107.398,-171.534 113.741,-180.021 117.649,-174.213"/>
</g>
<!-- Node30 -->
<g id="node30" class="node"><title>Node30</title>
<g id="a_node30"><a xlink:href="../../d5/d30/classparser_1_1_command_case.html#a02f0603f41bb9fa479d9608a195f203d" target="_top" xlink:title="parser.CommandCase.making\lInstructionsCase">
<polygon fill="white" stroke="black" points="224,-191 224,-221 386,-221 386,-191 224,-191"/>
<text text-anchor="start" x="232" y="-209" font-family="Helvetica,sans-Serif" font-size="10.00">parser.CommandCase.making</text>
<text text-anchor="middle" x="305" y="-198" font-family="Helvetica,sans-Serif" font-size="10.00">InstructionsCase</text>
</a>
</g>
</g>
<!-- Node1&#45;&gt;Node30 -->
<g id="edge30" class="edge"><title>Node1&#45;&gt;Node30</title>
<path fill="none" stroke="midnightblue" d="M149.37,-173.601C174.699,-178.908 205.032,-185.264 232.097,-190.935"/>
<polygon fill="midnightblue" stroke="midnightblue" points="150.072,-170.173 139.567,-171.547 148.637,-177.024 150.072,-170.173"/>
</g>
<!-- Node31 -->
<g id="node31" class="node"><title>Node31</title>
<g id="a_node31"><a xlink:href="../../d5/d30/classparser_1_1_command_case.html#a65e1e45269c10f4611f02192244755c3" target="_top" xlink:title="parser.CommandCase.recurse">
<polygon fill="white" stroke="black" points="424.5,-174.5 424.5,-193.5 587.5,-193.5 587.5,-174.5 424.5,-174.5"/>
<text text-anchor="middle" x="506" y="-181.5" font-family="Helvetica,sans-Serif" font-size="10.00">parser.CommandCase.recurse</text>
</a>
</g>
</g>
<!-- Node1&#45;&gt;Node31 -->
<g id="edge36" class="edge"><title>Node1&#45;&gt;Node31</title>
<path fill="none" stroke="midnightblue" d="M195.96,-167.458C266.456,-171.231 358.956,-176.183 424.326,-179.682"/>
<polygon fill="midnightblue" stroke="midnightblue" points="195.898,-163.949 185.725,-166.91 195.523,-170.939 195.898,-163.949"/>
</g>
<!-- Node32 -->
<g id="node32" class="node"><title>Node32</title>
<g id="a_node32"><a xlink:href="../../df/d5d/classparser_1_1_variable_case.html#a20ff8b5f80ef27bdf7ff62f9ee5c08a8" target="_top" xlink:title="parser.VariableCase.recurse">
<polygon fill="white" stroke="black" points="229.5,-114.5 229.5,-133.5 380.5,-133.5 380.5,-114.5 229.5,-114.5"/>
<text text-anchor="middle" x="305" y="-121.5" font-family="Helvetica,sans-Serif" font-size="10.00">parser.VariableCase.recurse</text>
</a>
</g>
</g>
<!-- Node1&#45;&gt;Node32 -->
<g id="edge32" class="edge"><title>Node1&#45;&gt;Node32</title>
<path fill="none" stroke="midnightblue" d="M156.707,-150.653C186.837,-145.201 222.546,-138.739 251.258,-133.544"/>
<polygon fill="midnightblue" stroke="midnightblue" points="155.938,-147.235 146.721,-152.46 157.184,-154.123 155.938,-147.235"/>
</g>
<!-- Node33 -->
<g id="node33" class="node"><title>Node33</title>
<g id="a_node33"><a xlink:href="../../df/d34/classparser_1_1_group_start_case.html#a605643dc0d07e20e571714c2200e1259" target="_top" xlink:title="parser.GroupStartCase.recurse">
<polygon fill="white" stroke="black" points="222,-76.5 222,-95.5 388,-95.5 388,-76.5 222,-76.5"/>
<text text-anchor="middle" x="305" y="-83.5" font-family="Helvetica,sans-Serif" font-size="10.00">parser.GroupStartCase.recurse</text>
</a>
</g>
</g>
<!-- Node1&#45;&gt;Node33 -->
<g id="edge33" class="edge"><title>Node1&#45;&gt;Node33</title>
<path fill="none" stroke="midnightblue" d="M121.707,-147.804C147.227,-135.18 186.412,-116.925 222,-105 232.808,-101.379 244.642,-98.2001 255.874,-95.5308"/>
<polygon fill="midnightblue" stroke="midnightblue" points="120.011,-144.739 112.632,-152.341 123.142,-151 120.011,-144.739"/>
</g>
<!-- Node34 -->
<g id="node34" class="node"><title>Node34</title>
<g id="a_node34"><a xlink:href="../../da/db7/classparser_1_1_list_start_case.html#a497e0fc6331cd969a3398c3f895afa92" target="_top" xlink:title="parser.ListStartCase.recurse">
<polygon fill="white" stroke="black" points="228.5,-38.5 228.5,-57.5 381.5,-57.5 381.5,-38.5 228.5,-38.5"/>
<text text-anchor="middle" x="305" y="-45.5" font-family="Helvetica,sans-Serif" font-size="10.00">parser.ListStartCase.recurse</text>
</a>
</g>
</g>
<!-- Node1&#45;&gt;Node34 -->
<g id="edge34" class="edge"><title>Node1&#45;&gt;Node34</title>
<path fill="none" stroke="midnightblue" d="M111.358,-145.383C134.651,-124.016 178.184,-87.2588 222,-67 230.356,-63.1363 239.566,-60.0236 248.703,-57.5263"/>
<polygon fill="midnightblue" stroke="midnightblue" points="108.924,-142.867 103.996,-152.246 113.697,-147.987 108.924,-142.867"/>
</g>
<!-- Node35 -->
<g id="node35" class="node"><title>Node35</title>
<g id="a_node35"><a xlink:href="../../d9/d14/classparser_1_1_constant_case.html#a84fdd34b3b0f33742f2d2acb9af23c9c" target="_top" xlink:title="parser.ConstantCase.recurse">
<polygon fill="white" stroke="black" points="227,-0.5 227,-19.5 383,-19.5 383,-0.5 227,-0.5"/>
<text text-anchor="middle" x="305" y="-7.5" font-family="Helvetica,sans-Serif" font-size="10.00">parser.ConstantCase.recurse</text>
</a>
</g>
</g>
<!-- Node1&#45;&gt;Node35 -->
<g id="edge35" class="edge"><title>Node1&#45;&gt;Node35</title>
<path fill="none" stroke="midnightblue" d="M105.887,-144.149C126.134,-115.225 170.19,-58.398 222,-29 228.863,-25.1056 236.48,-22.0088 244.226,-19.5463"/>
<polygon fill="midnightblue" stroke="midnightblue" points="102.937,-142.262 100.17,-152.49 108.711,-146.22 102.937,-142.262"/>
</g>
<!-- Node2&#45;&gt;Node3 -->
<g id="edge2" class="edge"><title>Node2&#45;&gt;Node3</title>
<path fill="none" stroke="midnightblue" d="M383.977,-314.759C410.515,-308.891 439.199,-302.549 461.978,-297.512"/>
<polygon fill="midnightblue" stroke="midnightblue" points="382.936,-311.404 373.928,-316.981 384.448,-318.239 382.936,-311.404"/>
</g>
<!-- Node3&#45;&gt;Node4 -->
<g id="edge3" class="edge"><title>Node3&#45;&gt;Node4</title>
<path fill="none" stroke="midnightblue" d="M594.366,-280.019C604.25,-279.117 614.339,-278.195 624.265,-277.288"/>
<polygon fill="midnightblue" stroke="midnightblue" points="593.796,-276.557 584.156,-280.952 594.433,-283.528 593.796,-276.557"/>
</g>
<!-- Node5 -->
<g id="node5" class="node"><title>Node5</title>
<g id="a_node5"><a xlink:href="../../d5/d1a/classcommand_1_1control_1_1_ask_with_command.html#a2a79128bce4d0ce305a2fe690675a70e" target="_top" xlink:title="command.control.AskWithCommand.calculate\lValue">
<polygon fill="white" stroke="black" points="846,-450 846,-480 1084,-480 1084,-450 846,-450"/>
<text text-anchor="start" x="854" y="-468" font-family="Helvetica,sans-Serif" font-size="10.00">command.control.AskWithCommand.calculate</text>
<text text-anchor="middle" x="965" y="-457" font-family="Helvetica,sans-Serif" font-size="10.00">Value</text>
</a>
</g>
</g>
<!-- Node4&#45;&gt;Node5 -->
<g id="edge4" class="edge"><title>Node4&#45;&gt;Node5</title>
<path fill="none" stroke="midnightblue" d="M725.375,-288.014C742.238,-323.928 783.877,-401.574 844,-440 850.097,-443.896 856.69,-447.199 863.542,-449.996"/>
<polygon fill="midnightblue" stroke="midnightblue" points="728.449,-286.319 721.111,-278.677 722.081,-289.227 728.449,-286.319"/>
</g>
<!-- Node6 -->
<g id="node6" class="node"><title>Node6</title>
<g id="a_node6"><a xlink:href="../../d1/d18/classcommand_1_1control_1_1_execute_user_command.html#a1ce1cab877c9c9199aee9f8e687f74fb" target="_top" xlink:title="command.control.ExecuteUser\lCommand.calculateValue">
<polygon fill="white" stroke="black" points="882.5,-401 882.5,-431 1047.5,-431 1047.5,-401 882.5,-401"/>
<text text-anchor="start" x="890.5" y="-419" font-family="Helvetica,sans-Serif" font-size="10.00">command.control.ExecuteUser</text>
<text text-anchor="middle" x="965" y="-408" font-family="Helvetica,sans-Serif" font-size="10.00">Command.calculateValue</text>
</a>
</g>
</g>
<!-- Node4&#45;&gt;Node6 -->
<g id="edge5" class="edge"><title>Node4&#45;&gt;Node6</title>
<path fill="none" stroke="midnightblue" d="M730.231,-287.01C751.173,-314.116 794.679,-364.986 844,-391 855.858,-397.255 869.148,-401.945 882.446,-405.462"/>
<polygon fill="midnightblue" stroke="midnightblue" points="732.843,-284.662 724.018,-278.799 727.261,-288.885 732.843,-284.662"/>
</g>
<!-- Node7 -->
<g id="node7" class="node"><title>Node7</title>
<g id="a_node7"><a xlink:href="../../d4/dea/classcommand_1_1control_1_1_ask_command.html#a0e92735076727a8f4ef8affeb592e8b4" target="_top" xlink:title="command.control.AskCommand.calculate\lValue">
<polygon fill="white" stroke="black" points="856,-352 856,-382 1074,-382 1074,-352 856,-352"/>
<text text-anchor="start" x="864" y="-370" font-family="Helvetica,sans-Serif" font-size="10.00">command.control.AskCommand.calculate</text>
<text text-anchor="middle" x="965" y="-359" font-family="Helvetica,sans-Serif" font-size="10.00">Value</text>
</a>
</g>
</g>
<!-- Node4&#45;&gt;Node7 -->
<g id="edge6" class="edge"><title>Node4&#45;&gt;Node7</title>
<path fill="none" stroke="midnightblue" d="M738.898,-284.48C763.394,-301.089 804.797,-327.085 844,-342 854.044,-345.821 864.796,-349.108 875.584,-351.922"/>
<polygon fill="midnightblue" stroke="midnightblue" points="740.599,-281.402 730.377,-278.616 736.631,-287.169 740.599,-281.402"/>
</g>
<!-- Node8 -->
<g id="node8" class="node"><title>Node8</title>
<g id="a_node8"><a xlink:href="../../d1/d0f/classcommand_1_1control_1_1_repeat_command.html#af9c3a3854b4eaabafc7c09bdbe83de0e" target="_top" xlink:title="command.control.RepeatCommand.calculate\lValue">
<polygon fill="white" stroke="black" points="848.5,-303 848.5,-333 1081.5,-333 1081.5,-303 848.5,-303"/>
<text text-anchor="start" x="856.5" y="-321" font-family="Helvetica,sans-Serif" font-size="10.00">command.control.RepeatCommand.calculate</text>
<text text-anchor="middle" x="965" y="-310" font-family="Helvetica,sans-Serif" font-size="10.00">Value</text>
</a>
</g>
</g>
<!-- Node4&#45;&gt;Node8 -->
<g id="edge7" class="edge"><title>Node4&#45;&gt;Node8</title>
<path fill="none" stroke="midnightblue" d="M775.07,-280.52C808.788,-287.209 851.654,-295.713 888.028,-302.929"/>
<polygon fill="midnightblue" stroke="midnightblue" points="775.407,-277.019 764.917,-278.506 774.045,-283.885 775.407,-277.019"/>
</g>
<!-- Node9 -->
<g id="node9" class="node"><title>Node9</title>
<g id="a_node9"><a xlink:href="../../d6/d3b/classcommand_1_1control_1_1_if_command.html#acf428d2a9882866a2f00fbbee727f4f1" target="_top" xlink:title="command.control.IfCommand.calculate\lValue">
<polygon fill="white" stroke="black" points="862,-254 862,-284 1068,-284 1068,-254 862,-254"/>
<text text-anchor="start" x="870" y="-272" font-family="Helvetica,sans-Serif" font-size="10.00">command.control.IfCommand.calculate</text>
<text text-anchor="middle" x="965" y="-261" font-family="Helvetica,sans-Serif" font-size="10.00">Value</text>
</a>
</g>
</g>
<!-- Node4&#45;&gt;Node9 -->
<g id="edge8" class="edge"><title>Node4&#45;&gt;Node9</title>
<path fill="none" stroke="midnightblue" d="M817.576,-269C832.144,-269 847.152,-269 861.753,-269"/>
<polygon fill="midnightblue" stroke="midnightblue" points="817.571,-265.5 807.571,-269 817.571,-272.5 817.571,-265.5"/>
</g>
<!-- Node10 -->
<g id="node10" class="node"><title>Node10</title>
<g id="a_node10"><a xlink:href="../../d7/dae/classcommand_1_1control_1_1_do_times_command.html#a932eb0f99c5b2fecf8fd6939ef4b0c5b" target="_top" xlink:title="command.control.DoTimesCommand.calculate\lValue">
<polygon fill="white" stroke="black" points="844,-205 844,-235 1086,-235 1086,-205 844,-205"/>
<text text-anchor="start" x="852" y="-223" font-family="Helvetica,sans-Serif" font-size="10.00">command.control.DoTimesCommand.calculate</text>
<text text-anchor="middle" x="965" y="-212" font-family="Helvetica,sans-Serif" font-size="10.00">Value</text>
</a>
</g>
</g>
<!-- Node4&#45;&gt;Node10 -->
<g id="edge9" class="edge"><title>Node4&#45;&gt;Node10</title>
<path fill="none" stroke="midnightblue" d="M775.07,-257.48C808.788,-250.791 851.654,-242.287 888.028,-235.071"/>
<polygon fill="midnightblue" stroke="midnightblue" points="774.045,-254.115 764.917,-259.494 775.407,-260.981 774.045,-254.115"/>
</g>
<!-- Node11 -->
<g id="node11" class="node"><title>Node11</title>
<g id="a_node11"><a xlink:href="../../da/db2/classcommand_1_1control_1_1_for_command.html#ad494f107c7c0e97f862dcfddc476a064" target="_top" xlink:title="command.control.ForCommand.calculate\lValue">
<polygon fill="white" stroke="black" points="857.5,-156 857.5,-186 1072.5,-186 1072.5,-156 857.5,-156"/>
<text text-anchor="start" x="865.5" y="-174" font-family="Helvetica,sans-Serif" font-size="10.00">command.control.ForCommand.calculate</text>
<text text-anchor="middle" x="965" y="-163" font-family="Helvetica,sans-Serif" font-size="10.00">Value</text>
</a>
</g>
</g>
<!-- Node4&#45;&gt;Node11 -->
<g id="edge10" class="edge"><title>Node4&#45;&gt;Node11</title>
<path fill="none" stroke="midnightblue" d="M738.898,-253.52C763.394,-236.911 804.797,-210.915 844,-196 854.044,-192.179 864.796,-188.892 875.584,-186.078"/>
<polygon fill="midnightblue" stroke="midnightblue" points="736.631,-250.831 730.377,-259.384 740.599,-256.598 736.631,-250.831"/>
</g>
<!-- Node12 -->
<g id="node12" class="node"><title>Node12</title>
<g id="a_node12"><a xlink:href="../../d3/dcf/classcommand_1_1control_1_1_if_else_command.html#ac1a2c320a23705da633419c13a18ff91" target="_top" xlink:title="command.control.IfElseCommand.calculate\lValue">
<polygon fill="white" stroke="black" points="852.5,-107 852.5,-137 1077.5,-137 1077.5,-107 852.5,-107"/>
<text text-anchor="start" x="860.5" y="-125" font-family="Helvetica,sans-Serif" font-size="10.00">command.control.IfElseCommand.calculate</text>
<text text-anchor="middle" x="965" y="-114" font-family="Helvetica,sans-Serif" font-size="10.00">Value</text>
</a>
</g>
</g>
<!-- Node4&#45;&gt;Node12 -->
<g id="edge11" class="edge"><title>Node4&#45;&gt;Node12</title>
<path fill="none" stroke="midnightblue" d="M730.231,-250.99C751.173,-223.884 794.679,-173.014 844,-147 851.341,-143.128 859.23,-139.856 867.33,-137.09"/>
<polygon fill="midnightblue" stroke="midnightblue" points="727.261,-249.115 724.018,-259.201 732.843,-253.338 727.261,-249.115"/>
</g>
<!-- Node13 -->
<g id="node13" class="node"><title>Node13</title>
<g id="a_node13"><a xlink:href="../../d9/df7/classcontroller_1_1_controller.html#a3d81fb1a57114f96fb6c319f4c5df370" target="_top" xlink:title="controller.Controller.parse\lCommand">
<polygon fill="white" stroke="black" points="895,-58 895,-88 1035,-88 1035,-58 895,-58"/>
<text text-anchor="start" x="903" y="-76" font-family="Helvetica,sans-Serif" font-size="10.00">controller.Controller.parse</text>
<text text-anchor="middle" x="965" y="-65" font-family="Helvetica,sans-Serif" font-size="10.00">Command</text>
</a>
</g>
</g>
<!-- Node4&#45;&gt;Node13 -->
<g id="edge12" class="edge"><title>Node4&#45;&gt;Node13</title>
<path fill="none" stroke="midnightblue" d="M725.375,-249.986C742.238,-214.072 783.877,-136.426 844,-98 859.152,-88.3161 877.375,-82.3012 894.992,-78.5884"/>
<polygon fill="midnightblue" stroke="midnightblue" points="722.081,-248.773 721.111,-259.323 728.449,-251.681 722.081,-248.773"/>
</g>
<!-- Node14 -->
<g id="node14" class="node"><title>Node14</title>
<g id="a_node14"><a xlink:href="../../d5/d06/classui_1_1_scene_updater.html#ab77a04f8b0038429b09237aac18906e8" target="_top" xlink:title="ui.SceneUpdater.sendCommands">
<polygon fill="white" stroke="black" points="1122,-63.5 1122,-82.5 1300,-82.5 1300,-63.5 1122,-63.5"/>
<text text-anchor="middle" x="1211" y="-70.5" font-family="Helvetica,sans-Serif" font-size="10.00">ui.SceneUpdater.sendCommands</text>
</a>
</g>
</g>
<!-- Node13&#45;&gt;Node14 -->
<g id="edge13" class="edge"><title>Node13&#45;&gt;Node14</title>
<path fill="none" stroke="midnightblue" d="M1045.54,-73C1069.92,-73 1096.89,-73 1121.81,-73"/>
<polygon fill="midnightblue" stroke="midnightblue" points="1045.27,-69.5001 1035.27,-73 1045.27,-76.5001 1045.27,-69.5001"/>
</g>
<!-- Node15 -->
<g id="node15" class="node"><title>Node15</title>
<g id="a_node15"><a xlink:href="../../dc/d3b/classui_1_1_g_u_i.html#ad8f08a79a20a498bcaafdc7e2e2ce0a9" target="_top" xlink:title="ui.GUI.parseCommand">
<polygon fill="white" stroke="black" points="1336.5,-63.5 1336.5,-82.5 1461.5,-82.5 1461.5,-63.5 1336.5,-63.5"/>
<text text-anchor="middle" x="1399" y="-70.5" font-family="Helvetica,sans-Serif" font-size="10.00">ui.GUI.parseCommand</text>
</a>
</g>
</g>
<!-- Node14&#45;&gt;Node15 -->
<g id="edge14" class="edge"><title>Node14&#45;&gt;Node15</title>
<path fill="none" stroke="midnightblue" d="M1310.2,-73C1319.13,-73 1328,-73 1336.48,-73"/>
<polygon fill="midnightblue" stroke="midnightblue" points="1310.1,-69.5001 1300.1,-73 1310.1,-76.5001 1310.1,-69.5001"/>
</g>
<!-- Node16 -->
<g id="node16" class="node"><title>Node16</title>
<g id="a_node16"><a xlink:href="../../d8/d3c/classui_1_1elements_1_1_i_o_element.html#a139a046f0c771f86696f2eee04047c64" target="_top" xlink:title="ui.elements.IOElement.init">
<polygon fill="white" stroke="black" points="1514.5,-82.5 1514.5,-101.5 1657.5,-101.5 1657.5,-82.5 1514.5,-82.5"/>
<text text-anchor="middle" x="1586" y="-89.5" font-family="Helvetica,sans-Serif" font-size="10.00">ui.elements.IOElement.init</text>
</a>
</g>
</g>
<!-- Node15&#45;&gt;Node16 -->
<g id="edge15" class="edge"><title>Node15&#45;&gt;Node16</title>
<path fill="none" stroke="midnightblue" d="M1471.68,-80.3614C1485.7,-81.8019 1500.4,-83.3116 1514.39,-84.7485"/>
<polygon fill="midnightblue" stroke="midnightblue" points="1471.91,-76.8668 1461.6,-79.3267 1471.19,-83.8302 1471.91,-76.8668"/>
</g>
<!-- Node18 -->
<g id="node18" class="node"><title>Node18</title>
<g id="a_node18"><a xlink:href="../../dc/d3b/classui_1_1_g_u_i.html#ab8ec2a37b3d5bd9e8c2abbb3642fb965" target="_top" xlink:title="ui.GUI.setupKeyboardCommands">
<polygon fill="white" stroke="black" points="1498.5,-44.5 1498.5,-63.5 1673.5,-63.5 1673.5,-44.5 1498.5,-44.5"/>
<text text-anchor="middle" x="1586" y="-51.5" font-family="Helvetica,sans-Serif" font-size="10.00">ui.GUI.setupKeyboardCommands</text>
</a>
</g>
</g>
<!-- Node15&#45;&gt;Node18 -->
<g id="edge17" class="edge"><title>Node15&#45;&gt;Node18</title>
<path fill="none" stroke="midnightblue" d="M1471.69,-65.6368C1480.41,-64.7417 1489.39,-63.8199 1498.29,-62.9054"/>
<polygon fill="midnightblue" stroke="midnightblue" points="1471.19,-62.1698 1461.6,-66.6733 1471.91,-69.1332 1471.19,-62.1698"/>
</g>
<!-- Node17 -->
<g id="node17" class="node"><title>Node17</title>
<g id="a_node17"><a xlink:href="../../d8/d3c/classui_1_1elements_1_1_i_o_element.html#a556e1a3ad292fe3ab731065eef59b187" target="_top" xlink:title="ui.elements.IOElement.IOElement">
<polygon fill="white" stroke="black" points="1710,-82.5 1710,-101.5 1888,-101.5 1888,-82.5 1710,-82.5"/>
<text text-anchor="middle" x="1799" y="-89.5" font-family="Helvetica,sans-Serif" font-size="10.00">ui.elements.IOElement.IOElement</text>
</a>
</g>
</g>
<!-- Node16&#45;&gt;Node17 -->
<g id="edge16" class="edge"><title>Node16&#45;&gt;Node17</title>
<path fill="none" stroke="midnightblue" d="M1667.92,-92C1681.65,-92 1695.97,-92 1709.88,-92"/>
<polygon fill="midnightblue" stroke="midnightblue" points="1667.55,-88.5001 1657.55,-92 1667.55,-95.5001 1667.55,-88.5001"/>
</g>
<!-- Node19 -->
<g id="node19" class="node"><title>Node19</title>
<g id="a_node19"><a xlink:href="../../dc/d3b/classui_1_1_g_u_i.html#a765d554102f38969231261686f2f8e27" target="_top" xlink:title="ui.GUI.initialize">
<polygon fill="white" stroke="black" points="1756,-44.5 1756,-63.5 1842,-63.5 1842,-44.5 1756,-44.5"/>
<text text-anchor="middle" x="1799" y="-51.5" font-family="Helvetica,sans-Serif" font-size="10.00">ui.GUI.initialize</text>
</a>
</g>
</g>
<!-- Node18&#45;&gt;Node19 -->
<g id="edge18" class="edge"><title>Node18&#45;&gt;Node19</title>
<path fill="none" stroke="midnightblue" d="M1683.75,-54C1709.02,-54 1734.96,-54 1755.72,-54"/>
<polygon fill="midnightblue" stroke="midnightblue" points="1683.74,-50.5001 1673.74,-54 1683.74,-57.5001 1683.74,-50.5001"/>
</g>
<!-- Node20 -->
<g id="node20" class="node"><title>Node20</title>
<g id="a_node20"><a xlink:href="../../d5/d06/classui_1_1_scene_updater.html#aeef5dd7a8ec2ad6179e33fdd71ea90d6" target="_top" xlink:title="ui.SceneUpdater.initGUI">
<polygon fill="white" stroke="black" points="1924.5,-44.5 1924.5,-63.5 2055.5,-63.5 2055.5,-44.5 1924.5,-44.5"/>
<text text-anchor="middle" x="1990" y="-51.5" font-family="Helvetica,sans-Serif" font-size="10.00">ui.SceneUpdater.initGUI</text>
</a>
</g>
</g>
<!-- Node19&#45;&gt;Node20 -->
<g id="edge19" class="edge"><title>Node19&#45;&gt;Node20</title>
<path fill="none" stroke="midnightblue" d="M1852.67,-54C1874.92,-54 1901.05,-54 1924.45,-54"/>
<polygon fill="midnightblue" stroke="midnightblue" points="1852.42,-50.5001 1842.42,-54 1852.42,-57.5001 1852.42,-50.5001"/>
</g>
<!-- Node21 -->
<g id="node21" class="node"><title>Node21</title>
<g id="a_node21"><a xlink:href="../../d9/df7/classcontroller_1_1_controller.html#a57e42ba83ee2145e6262cd72eac59570" target="_top" xlink:title="controller.Controller.init">
<polygon fill="white" stroke="black" points="2092.5,-44.5 2092.5,-63.5 2219.5,-63.5 2219.5,-44.5 2092.5,-44.5"/>
<text text-anchor="middle" x="2156" y="-51.5" font-family="Helvetica,sans-Serif" font-size="10.00">controller.Controller.init</text>
</a>
</g>
</g>
<!-- Node20&#45;&gt;Node21 -->
<g id="edge20" class="edge"><title>Node20&#45;&gt;Node21</title>
<path fill="none" stroke="midnightblue" d="M2066.04,-54C2074.81,-54 2083.68,-54 2092.26,-54"/>
<polygon fill="midnightblue" stroke="midnightblue" points="2065.82,-50.5001 2055.82,-54 2065.82,-57.5001 2065.82,-50.5001"/>
</g>
<!-- Node22 -->
<g id="node22" class="node"><title>Node22</title>
<g id="a_node22"><a xlink:href="../../dd/df2/classmain_1_1_workspace_manager.html#abc818b59211f6e14940b86a42bb868d0" target="_top" xlink:title="main.WorkspaceManager.create\lWorkspace">
<polygon fill="white" stroke="black" points="2256,-39 2256,-69 2426,-69 2426,-39 2256,-39"/>
<text text-anchor="start" x="2264" y="-57" font-family="Helvetica,sans-Serif" font-size="10.00">main.WorkspaceManager.create</text>
<text text-anchor="middle" x="2341" y="-46" font-family="Helvetica,sans-Serif" font-size="10.00">Workspace</text>
</a>
</g>
</g>
<!-- Node21&#45;&gt;Node22 -->
<g id="edge21" class="edge"><title>Node21&#45;&gt;Node22</title>
<path fill="none" stroke="midnightblue" d="M2229.92,-54C2238.39,-54 2247.08,-54 2255.69,-54"/>
<polygon fill="midnightblue" stroke="midnightblue" points="2229.72,-50.5001 2219.72,-54 2229.72,-57.5001 2229.72,-50.5001"/>
</g>
<!-- Node23 -->
<g id="node23" class="node"><title>Node23</title>
<g id="a_node23"><a xlink:href="../../d9/df7/classcontroller_1_1_controller.html#a3a9d672bb57047df70945ad1a9582c9a" target="_top" xlink:title="controller.Controller.create\lNewWorkspace">
<polygon fill="white" stroke="black" points="2462.5,-61 2462.5,-91 2605.5,-91 2605.5,-61 2462.5,-61"/>
<text text-anchor="start" x="2470.5" y="-79" font-family="Helvetica,sans-Serif" font-size="10.00">controller.Controller.create</text>
<text text-anchor="middle" x="2534" y="-68" font-family="Helvetica,sans-Serif" font-size="10.00">NewWorkspace</text>
</a>
</g>
</g>
<!-- Node22&#45;&gt;Node23 -->
<g id="edge22" class="edge"><title>Node22&#45;&gt;Node23</title>
<path fill="none" stroke="midnightblue" d="M2436.03,-64.8303C2444.88,-65.8503 2453.75,-66.8721 2462.34,-67.8608"/>
<polygon fill="midnightblue" stroke="midnightblue" points="2436.39,-61.3489 2426.05,-63.6815 2435.59,-68.3029 2436.39,-61.3489"/>
</g>
<!-- Node29 -->
<g id="node29" class="node"><title>Node29</title>
<g id="a_node29"><a xlink:href="../../d1/d0b/classmain_1_1_main.html#a9f1e5657b2f6f9bdd69a3b6412ceda74" target="_top" xlink:title="main.Main.start">
<polygon fill="white" stroke="black" points="2488,-22.5 2488,-41.5 2580,-41.5 2580,-22.5 2488,-22.5"/>
<text text-anchor="middle" x="2534" y="-29.5" font-family="Helvetica,sans-Serif" font-size="10.00">main.Main.start</text>
</a>
</g>
</g>
<!-- Node22&#45;&gt;Node29 -->
<g id="edge28" class="edge"><title>Node22&#45;&gt;Node29</title>
<path fill="none" stroke="midnightblue" d="M2436.09,-43.1629C2454.19,-41.0779 2472.36,-38.9851 2487.99,-37.1843"/>
<polygon fill="midnightblue" stroke="midnightblue" points="2435.59,-39.6971 2426.05,-44.3185 2436.39,-46.6511 2435.59,-39.6971"/>
</g>
<!-- Node24 -->
<g id="node24" class="node"><title>Node24</title>
<g id="a_node24"><a xlink:href="../../d5/d06/classui_1_1_scene_updater.html#a2858ad8edb0c0f59a21e2ae015f2fa1e" target="_top" xlink:title="ui.SceneUpdater.createNew\lWorkspace">
<polygon fill="white" stroke="black" points="2642,-61 2642,-91 2792,-91 2792,-61 2642,-61"/>
<text text-anchor="start" x="2650" y="-79" font-family="Helvetica,sans-Serif" font-size="10.00">ui.SceneUpdater.createNew</text>
<text text-anchor="middle" x="2717" y="-68" font-family="Helvetica,sans-Serif" font-size="10.00">Workspace</text>
</a>
</g>
</g>
<!-- Node23&#45;&gt;Node24 -->
<g id="edge23" class="edge"><title>Node23&#45;&gt;Node24</title>
<path fill="none" stroke="midnightblue" d="M2615.8,-76C2624.43,-76 2633.17,-76 2641.71,-76"/>
<polygon fill="midnightblue" stroke="midnightblue" points="2615.76,-72.5001 2605.76,-76 2615.76,-79.5001 2615.76,-72.5001"/>
</g>
<!-- Node25 -->
<g id="node25" class="node"><title>Node25</title>
<g id="a_node25"><a xlink:href="../../dc/d3b/classui_1_1_g_u_i.html#a2edc294ba07311e6c4b85c9fe749d1bf" target="_top" xlink:title="ui.GUI.createNewWorkspace">
<polygon fill="white" stroke="black" points="2828,-66.5 2828,-85.5 2978,-85.5 2978,-66.5 2828,-66.5"/>
<text text-anchor="middle" x="2903" y="-73.5" font-family="Helvetica,sans-Serif" font-size="10.00">ui.GUI.createNewWorkspace</text>
</a>
</g>
</g>
<!-- Node24&#45;&gt;Node25 -->
<g id="edge24" class="edge"><title>Node24&#45;&gt;Node25</title>
<path fill="none" stroke="midnightblue" d="M2802.07,-76C2810.65,-76 2819.34,-76 2827.81,-76"/>
<polygon fill="midnightblue" stroke="midnightblue" points="2802.04,-72.5001 2792.04,-76 2802.04,-79.5001 2802.04,-72.5001"/>
</g>
<!-- Node26 -->
<g id="node26" class="node"><title>Node26</title>
<g id="a_node26"><a xlink:href="../../d0/de6/classui_1_1elements_1_1_menu_bar_element.html#a98c13995a31d997aa10f2950583da6cc" target="_top" xlink:title="ui.elements.MenuBarElement.make\lMenuBar">
<polygon fill="white" stroke="black" points="3014,-61 3014,-91 3202,-91 3202,-61 3014,-61"/>
<text text-anchor="start" x="3022" y="-79" font-family="Helvetica,sans-Serif" font-size="10.00">ui.elements.MenuBarElement.make</text>
<text text-anchor="middle" x="3108" y="-68" font-family="Helvetica,sans-Serif" font-size="10.00">MenuBar</text>
</a>
</g>
</g>
<!-- Node25&#45;&gt;Node26 -->
<g id="edge25" class="edge"><title>Node25&#45;&gt;Node26</title>
<path fill="none" stroke="midnightblue" d="M2988.28,-76C2996.66,-76 3005.21,-76 3013.68,-76"/>
<polygon fill="midnightblue" stroke="midnightblue" points="2988.15,-72.5001 2978.15,-76 2988.15,-79.5001 2988.15,-72.5001"/>
</g>
<!-- Node27 -->
<g id="node27" class="node"><title>Node27</title>
<g id="a_node27"><a xlink:href="../../d0/de6/classui_1_1elements_1_1_menu_bar_element.html#a7bdb58f78cf8b61ba28498c5c86ab682" target="_top" xlink:title="ui.elements.MenuBarElement.init">
<polygon fill="white" stroke="black" points="3238,-66.5 3238,-85.5 3414,-85.5 3414,-66.5 3238,-66.5"/>
<text text-anchor="middle" x="3326" y="-73.5" font-family="Helvetica,sans-Serif" font-size="10.00">ui.elements.MenuBarElement.init</text>
</a>
</g>
</g>
<!-- Node26&#45;&gt;Node27 -->
<g id="edge26" class="edge"><title>Node26&#45;&gt;Node27</title>
<path fill="none" stroke="midnightblue" d="M3212.23,-76C3220.83,-76 3229.48,-76 3237.94,-76"/>
<polygon fill="midnightblue" stroke="midnightblue" points="3212.17,-72.5001 3202.17,-76 3212.17,-79.5001 3212.17,-72.5001"/>
</g>
<!-- Node28 -->
<g id="node28" class="node"><title>Node28</title>
<g id="a_node28"><a xlink:href="../../d0/de6/classui_1_1elements_1_1_menu_bar_element.html#ab4a4e6841c924a9d9c70b8073b56dffc" target="_top" xlink:title="ui.elements.MenuBarElement.\lMenuBarElement">
<polygon fill="white" stroke="black" points="3450.5,-61 3450.5,-91 3611.5,-91 3611.5,-61 3450.5,-61"/>
<text text-anchor="start" x="3458.5" y="-79" font-family="Helvetica,sans-Serif" font-size="10.00">ui.elements.MenuBarElement.</text>
<text text-anchor="middle" x="3531" y="-68" font-family="Helvetica,sans-Serif" font-size="10.00">MenuBarElement</text>
</a>
</g>
</g>
<!-- Node27&#45;&gt;Node28 -->
<g id="edge27" class="edge"><title>Node27&#45;&gt;Node28</title>
<path fill="none" stroke="midnightblue" d="M3424.47,-76C3433.19,-76 3441.95,-76 3450.5,-76"/>
<polygon fill="midnightblue" stroke="midnightblue" points="3424.27,-72.5001 3414.27,-76 3424.27,-79.5001 3424.27,-72.5001"/>
</g>
<!-- Node30&#45;&gt;Node31 -->
<g id="edge31" class="edge"><title>Node30&#45;&gt;Node31</title>
<path fill="none" stroke="midnightblue" d="M396.226,-196.025C405.631,-194.986 415.147,-193.933 424.435,-192.907"/>
<polygon fill="midnightblue" stroke="midnightblue" points="395.636,-192.569 386.081,-197.147 396.405,-199.527 395.636,-192.569"/>
</g>
</g>
</svg>
        <g id="navigator" transform="translate(0 0)" fill="#404254">
                <rect fill="#f2f5e9" fill-opacity="0.5" stroke="#606060" stroke-width=".5" x="0" y="0" width="60" height="60"/>
                <use id="zoomplus" xlink:href="#zoomPlus" x="17" y="9" onmousedown="handleZoom(evt,'in')"/>
                <use id="zoomminus" xlink:href="#zoomMin" x="42" y="9" onmousedown="handleZoom(evt,'out')"/>
                <use id="reset" xlink:href="#resetDef" x="30" y="36" onmousedown="handleReset()"/>
                <g id="arrowUp" xlink:href="#dirArrow" transform="translate(30 24)" onmousedown="handlePan(0,-1)">
                  <use xlink:href="#rim" fill="#404040">
                        <set attributeName="fill" to="#808080" begin="arrowUp.mouseover" end="arrowUp.mouseout"/>
                  </use>
                  <path fill="none" stroke="white" stroke-width="1.5" d="M0,-3.0v7 M-2.5,-0.5L0,-3.0L2.5,-0.5"/>
                </g>
                <g id="arrowRight" xlink:href="#dirArrow" transform="rotate(90) translate(36 -43)" onmousedown="handlePan(1,0)">
                  <use xlink:href="#rim" fill="#404040">
                        <set attributeName="fill" to="#808080" begin="arrowRight.mouseover" end="arrowRight.mouseout"/>
                  </use>
                  <path fill="none" stroke="white" stroke-width="1.5" d="M0,-3.0v7 M-2.5,-0.5L0,-3.0L2.5,-0.5"/>
                </g>
                <g id="arrowDown" xlink:href="#dirArrow" transform="rotate(180) translate(-30 -48)" onmousedown="handlePan(0,1)">
                  <use xlink:href="#rim" fill="#404040">
                        <set attributeName="fill" to="#808080" begin="arrowDown.mouseover" end="arrowDown.mouseout"/>
                  </use>
                  <path fill="none" stroke="white" stroke-width="1.5" d="M0,-3.0v7 M-2.5,-0.5L0,-3.0L2.5,-0.5"/>
                </g>
                <g id="arrowLeft" xlink:href="#dirArrow" transform="rotate(270) translate(-36 17)" onmousedown="handlePan(-1,0)">
                  <use xlink:href="#rim" fill="#404040">
                        <set attributeName="fill" to="#808080" begin="arrowLeft.mouseover" end="arrowLeft.mouseout"/>
                  </use>
                  <path fill="none" stroke="white" stroke-width="1.5" d="M0,-3.0v7 M-2.5,-0.5L0,-3.0L2.5,-0.5"/>
                </g>
        </g>
        <svg viewBox="0 0 15 15" width="100%" height="30px" preserveAspectRatio="xMaxYMin meet">
         <g id="arrow_out" transform="scale(0.3 0.3)">
          <a xlink:href="classparser_1_1_command_tree_node_a8bb8a112395f78809b0be06f1c3f5282_icgraph_org.svg" target="_base">
           <rect id="button" ry="5" rx="5" y="6" x="6" height="38" width="38"
                fill="#f2f5e9" fill-opacity="0.5" stroke="#606060" stroke-width="1.0"/>
           <path id="arrow"
             d="M 11.500037,31.436501 C 11.940474,20.09759 22.043105,11.32322 32.158766,21.979434 L 37.068811,17.246167 C 37.068811,17.246167 37.088388,32 37.088388,32 L 22.160133,31.978069 C 22.160133,31.978069 26.997745,27.140456 26.997745,27.140456 C 18.528582,18.264221 13.291696,25.230495 11.500037,31.436501 z"
             style="fill:#404040;"/>
          </a>
         </g>
        </svg>
</svg>
