<?xml version="1.0" encoding="UTF-8" standalone="no"?>
<!DOCTYPE svg PUBLIC "-//W3C//DTD SVG 1.1//EN"
 "http://www.w3.org/Graphics/SVG/1.1/DTD/svg11.dtd">
<!-- Generated by graphviz version 2.36.0 (20140111.2315)
 -->
<!-- Title: ui_table.Variable Pages: 1 -->
<svg width="238pt" height="106pt"
 viewBox="0.00 0.00 238.00 106.00" xmlns="http://www.w3.org/2000/svg" xmlns:xlink="http://www.w3.org/1999/xlink">
<g id="graph0" class="graph" transform="scale(1 1) rotate(0) translate(4 102)">
<title>ui_table.Variable</title>
<polygon fill="white" stroke="none" points="-4,4 -4,-102 234,-102 234,4 -4,4"/>
<!-- Node1 -->
<g id="node1" class="node"><title>Node1</title>
<polygon fill="#bfbfbf" stroke="black" points="77.5,-0.5 77.5,-19.5 172.5,-19.5 172.5,-0.5 77.5,-0.5"/>
<text text-anchor="middle" x="125" y="-7.5" font-family="Helvetica,sans-Serif" font-size="10.00">ui_table.Variable</text>
</g>
<!-- Node2 -->
<g id="node2" class="node"><title>Node2</title>
<g id="a_node2"><a xlink:href="../../d1/d82/interfaceui__table_1_1_table_elements.html" target="_top" xlink:title="ui_table.TableElements">
<polygon fill="white" stroke="black" points="0,-78.5 0,-97.5 126,-97.5 126,-78.5 0,-78.5"/>
<text text-anchor="middle" x="63" y="-85.5" font-family="Helvetica,sans-Serif" font-size="10.00">ui_table.TableElements</text>
</a>
</g>
</g>
<!-- Node2&#45;&gt;Node1 -->
<g id="edge1" class="edge"><title>Node2&#45;&gt;Node1</title>
<path fill="none" stroke="midnightblue" d="M76.5077,-70.4421C89.2751,-54.7918 107.927,-31.9282 117.971,-19.6165"/>
<polygon fill="midnightblue" stroke="midnightblue" points="73.7215,-68.3207 70.1122,-78.2818 79.1455,-72.7456 73.7215,-68.3207"/>
</g>
<!-- Node3 -->
<g id="node3" class="node"><title>Node3</title>
<polygon fill="white" stroke="#bfbfbf" points="144,-78.5 144,-97.5 230,-97.5 230,-78.5 144,-78.5"/>
<text text-anchor="middle" x="187" y="-85.5" font-family="Helvetica,sans-Serif" font-size="10.00">StringProperty</text>
</g>
<!-- Node3&#45;&gt;Node1 -->
<g id="edge2" class="edge"><title>Node3&#45;&gt;Node1</title>
<path fill="none" stroke="#9a32cd" stroke-dasharray="5,2" d="M173.492,-70.4421C160.725,-54.7918 142.073,-31.9282 132.029,-19.6165"/>
<polygon fill="#9a32cd" stroke="#9a32cd" points="170.854,-72.7456 179.888,-78.2818 176.279,-68.3207 170.854,-72.7456"/>
<text text-anchor="middle" x="177.5" y="-52" font-family="Helvetica,sans-Serif" font-size="10.00"> value</text>
<text text-anchor="middle" x="177.5" y="-41" font-family="Helvetica,sans-Serif" font-size="10.00">name</text>
</g>
</g>
</svg>
