<?xml version="1.0" encoding="UTF-8" standalone="no"?>
<!DOCTYPE svg PUBLIC "-//W3C//DTD SVG 1.1//EN"
 "http://www.w3.org/Graphics/SVG/1.1/DTD/svg11.dtd">
<!-- Generated by graphviz version 2.36.0 (20140111.2315)
 -->
<!-- Title: ui_table.SLogoCellFactory Pages: 1 -->
<svg width="352pt" height="108pt"
 viewBox="0.00 0.00 352.00 108.00" xmlns="http://www.w3.org/2000/svg" xmlns:xlink="http://www.w3.org/1999/xlink">
<g id="graph0" class="graph" transform="scale(1 1) rotate(0) translate(4 104)">
<title>ui_table.SLogoCellFactory</title>
<polygon fill="white" stroke="none" points="-4,4 -4,-104 348,-104 348,4 -4,4"/>
<!-- Node1 -->
<g id="node1" class="node"><title>Node1</title>
<polygon fill="#bfbfbf" stroke="black" points="135.5,-0.5 135.5,-19.5 274.5,-19.5 274.5,-0.5 135.5,-0.5"/>
<text text-anchor="middle" x="205" y="-7.5" font-family="Helvetica,sans-Serif" font-size="10.00">ui_table.SLogoCellFactory</text>
</g>
<!-- Node2 -->
<g id="node2" class="node"><title>Node2</title>
<polygon fill="white" stroke="#bfbfbf" points="-0.5,-69 -0.5,-99 146.5,-99 146.5,-69 -0.5,-69"/>
<text text-anchor="start" x="7.5" y="-87" font-family="Helvetica,sans-Serif" font-size="10.00">javafx::util::Callback</text>
<text text-anchor="middle" x="73" y="-76" font-family="Helvetica,sans-Serif" font-size="10.00">&lt; TableColumn, TableCell &gt;</text>
</g>
<!-- Node2&#45;&gt;Node1 -->
<g id="edge1" class="edge"><title>Node2&#45;&gt;Node1</title>
<path fill="none" stroke="midnightblue" d="M107.704,-64.0707C134.113,-49.6656 169.222,-30.5154 189.238,-19.5972"/>
<polygon fill="midnightblue" stroke="midnightblue" points="105.867,-61.0855 98.7643,-68.9468 109.219,-67.2308 105.867,-61.0855"/>
</g>
<!-- Node3 -->
<g id="node3" class="node"><title>Node3</title>
<polygon fill="white" stroke="#bfbfbf" points="165,-74.5 165,-93.5 245,-93.5 245,-74.5 165,-74.5"/>
<text text-anchor="middle" x="205" y="-81.5" font-family="Helvetica,sans-Serif" font-size="10.00">ContextMenu</text>
</g>
<!-- Node3&#45;&gt;Node1 -->
<g id="edge2" class="edge"><title>Node3&#45;&gt;Node1</title>
<path fill="none" stroke="#9a32cd" stroke-dasharray="5,2" d="M205,-64.1562C205,-49.7123 205,-30.4594 205,-19.531"/>
<polygon fill="#9a32cd" stroke="#9a32cd" points="201.5,-64.4579 205,-74.4579 208.5,-64.4579 201.5,-64.4579"/>
<text text-anchor="middle" x="220.5" y="-41.5" font-family="Helvetica,sans-Serif" font-size="10.00"> menu</text>
</g>
<!-- Node4 -->
<g id="node4" class="node"><title>Node4</title>
<polygon fill="white" stroke="#bfbfbf" points="263.5,-74.5 263.5,-93.5 344.5,-93.5 344.5,-74.5 263.5,-74.5"/>
<text text-anchor="middle" x="304" y="-81.5" font-family="Helvetica,sans-Serif" font-size="10.00">EventHandler</text>
</g>
<!-- Node4&#45;&gt;Node1 -->
<g id="edge3" class="edge"><title>Node4&#45;&gt;Node1</title>
<path fill="none" stroke="#9a32cd" stroke-dasharray="5,2" d="M284.049,-68.4903C263.857,-53.8054 233.319,-31.5955 216.73,-19.531"/>
<polygon fill="#9a32cd" stroke="#9a32cd" points="282.109,-71.4067 292.255,-74.4579 286.226,-65.7456 282.109,-71.4067"/>
<text text-anchor="middle" x="270" y="-41.5" font-family="Helvetica,sans-Serif" font-size="10.00"> click</text>
</g>
</g>
</svg>
