<?xml version="1.0" encoding="UTF-8" standalone="no"?>
<!DOCTYPE svg PUBLIC "-//W3C//DTD SVG 1.1//EN"
 "http://www.w3.org/Graphics/SVG/1.1/DTD/svg11.dtd">
<!-- Generated by graphviz version 2.36.0 (20140111.2315)
 -->
<!-- Title: parser.TreeWrapper.recurse Pages: 1 -->
<!--zoomable 211 -->
<svg id="main" version="1.1" xmlns="http://www.w3.org/2000/svg" xmlns:xlink="http://www.w3.org/1999/xlink" xml:space="preserve" onload="init(evt)">
<style type="text/css"><![CDATA[
.edge:hover path { stroke: red; }
.edge:hover polygon { stroke: red; fill: red; }
]]></style>
<script type="text/javascript"><![CDATA[
var edges = document.getElementsByTagName('g');
if (edges && edges.length) {
  for (var i=0;i<edges.length;i++) {
    if (edges[i].id.substr(0,4)=='edge') {
      edges[i].setAttribute('class','edge');
    }
  }
}
]]></script>
        <defs>
                <circle id="rim" cx="0" cy="0" r="7"/>
                <circle id="rim2" cx="0" cy="0" r="3.5"/>
                <g id="zoomPlus">
                        <use xlink:href="#rim" fill="#404040">
                                <set attributeName="fill" to="#808080" begin="zoomplus.mouseover" end="zoomplus.mouseout"/>
                        </use>
                        <path d="M-4,0h8M0,-4v8" fill="none" stroke="white" stroke-width="1.5" pointer-events="none"/>
                </g>
                <g id="zoomMin">
                        <use xlink:href="#rim" fill="#404040">
                                <set attributeName="fill" to="#808080" begin="zoomminus.mouseover" end="zoomminus.mouseout"/>
                        </use>
                        <path d="M-4,0h8" fill="none" stroke="white" stroke-width="1.5" pointer-events="none"/>
                </g>
                <g id="dirArrow">
                        <path fill="none" stroke="white" stroke-width="1.5" d="M0,-3.0v7 M-2.5,-0.5L0,-3.0L2.5,-0.5"/>
                </g>
               <g id="resetDef">
                       <use xlink:href="#rim2" fill="#404040">
                               <set attributeName="fill" to="#808080" begin="reset.mouseover" end="reset.mouseout"/>
                       </use>
               </g>
        </defs>

<script type="text/javascript">
var viewWidth = 3258;
var viewHeight = 211;
var sectionId = 'dynsection-6';
</script>
<script xlink:href="../../svgpan.js"/>
<svg id="graph" class="graph">
<g id="viewport">
<title>parser.TreeWrapper.recurse</title>
<polygon fill="white" stroke="none" points="-4,4 -4,-207 3254,-207 3254,4 -4,4"/>
<!-- Node1 -->
<g id="node1" class="node"><title>Node1</title>
<polygon fill="#bfbfbf" stroke="black" points="0,-76.5 0,-95.5 146,-95.5 146,-76.5 0,-76.5"/>
<text text-anchor="middle" x="73" y="-83.5" font-family="Helvetica,sans-Serif" font-size="10.00">parser.TreeWrapper.recurse</text>
</g>
<!-- Node2 -->
<g id="node2" class="node"><title>Node2</title>
<g id="a_node2"><a xlink:href="../../d5/d30/classparser_1_1_command_case.html#a309ba0623929f8d96219c98de00023b0" target="_top" xlink:title="parser.CommandCase.initialize">
<polygon fill="white" stroke="black" points="182.5,-164.5 182.5,-183.5 347.5,-183.5 347.5,-164.5 182.5,-164.5"/>
<text text-anchor="middle" x="265" y="-171.5" font-family="Helvetica,sans-Serif" font-size="10.00">parser.CommandCase.initialize</text>
</a>
</g>
</g>
<!-- Node1&#45;&gt;Node2 -->
<g id="edge1" class="edge"><title>Node1&#45;&gt;Node2</title>
<path fill="none" stroke="midnightblue" d="M94.3508,-101.648C115.276,-117.033 149.33,-140.165 182,-154 191.985,-158.228 203.049,-161.683 213.734,-164.459"/>
<polygon fill="midnightblue" stroke="midnightblue" points="96.3345,-98.7606 86.2291,-95.5775 92.1439,-104.368 96.3345,-98.7606"/>
</g>
<!-- Node21 -->
<g id="node21" class="node"><title>Node21</title>
<g id="a_node21"><a xlink:href="../../d5/d30/classparser_1_1_command_case.html#a02f0603f41bb9fa479d9608a195f203d" target="_top" xlink:title="parser.CommandCase.making\lInstructionsCase">
<polygon fill="white" stroke="black" points="184,-115 184,-145 346,-145 346,-115 184,-115"/>
<text text-anchor="start" x="192" y="-133" font-family="Helvetica,sans-Serif" font-size="10.00">parser.CommandCase.making</text>
<text text-anchor="middle" x="265" y="-122" font-family="Helvetica,sans-Serif" font-size="10.00">InstructionsCase</text>
</a>
</g>
</g>
<!-- Node1&#45;&gt;Node21 -->
<g id="edge20" class="edge"><title>Node1&#45;&gt;Node21</title>
<path fill="none" stroke="midnightblue" d="M125.011,-97.8132C147.741,-103.077 174.783,-109.339 198.945,-114.935"/>
<polygon fill="midnightblue" stroke="midnightblue" points="125.759,-94.3937 115.227,-95.5473 124.18,-101.213 125.759,-94.3937"/>
</g>
<!-- Node22 -->
<g id="node22" class="node"><title>Node22</title>
<g id="a_node22"><a xlink:href="../../d5/d30/classparser_1_1_command_case.html#a65e1e45269c10f4611f02192244755c3" target="_top" xlink:title="parser.CommandCase.recurse">
<polygon fill="white" stroke="black" points="384.5,-98.5 384.5,-117.5 547.5,-117.5 547.5,-98.5 384.5,-98.5"/>
<text text-anchor="middle" x="466" y="-105.5" font-family="Helvetica,sans-Serif" font-size="10.00">parser.CommandCase.recurse</text>
</a>
</g>
</g>
<!-- Node1&#45;&gt;Node22 -->
<g id="edge24" class="edge"><title>Node1&#45;&gt;Node22</title>
<path fill="none" stroke="midnightblue" d="M156.292,-90.6302C223.453,-94.4091 317.811,-99.7183 384.486,-103.47"/>
<polygon fill="midnightblue" stroke="midnightblue" points="156.352,-87.1282 146.171,-90.0608 155.959,-94.1171 156.352,-87.1282"/>
</g>
<!-- Node23 -->
<g id="node23" class="node"><title>Node23</title>
<g id="a_node23"><a xlink:href="../../df/d34/classparser_1_1_group_start_case.html#a605643dc0d07e20e571714c2200e1259" target="_top" xlink:title="parser.GroupStartCase.recurse">
<polygon fill="white" stroke="black" points="182,-38.5 182,-57.5 348,-57.5 348,-38.5 182,-38.5"/>
<text text-anchor="middle" x="265" y="-45.5" font-family="Helvetica,sans-Serif" font-size="10.00">parser.GroupStartCase.recurse</text>
</a>
</g>
</g>
<!-- Node1&#45;&gt;Node23 -->
<g id="edge22" class="edge"><title>Node1&#45;&gt;Node23</title>
<path fill="none" stroke="midnightblue" d="M132.048,-74.3905C159.07,-68.986 190.818,-62.6365 216.4,-57.5201"/>
<polygon fill="midnightblue" stroke="midnightblue" points="131.064,-71.0177 121.945,-76.411 132.437,-77.8818 131.064,-71.0177"/>
</g>
<!-- Node24 -->
<g id="node24" class="node"><title>Node24</title>
<g id="a_node24"><a xlink:href="../../da/db7/classparser_1_1_list_start_case.html#a497e0fc6331cd969a3398c3f895afa92" target="_top" xlink:title="parser.ListStartCase.recurse">
<polygon fill="white" stroke="black" points="188.5,-0.5 188.5,-19.5 341.5,-19.5 341.5,-0.5 188.5,-0.5"/>
<text text-anchor="middle" x="265" y="-7.5" font-family="Helvetica,sans-Serif" font-size="10.00">parser.ListStartCase.recurse</text>
</a>
</g>
</g>
<!-- Node1&#45;&gt;Node24 -->
<g id="edge23" class="edge"><title>Node1&#45;&gt;Node24</title>
<path fill="none" stroke="midnightblue" d="M97.8533,-71.1034C119.202,-58.341 151.714,-40.2841 182,-29 191.996,-25.2755 202.959,-22.1301 213.525,-19.5365"/>
<polygon fill="midnightblue" stroke="midnightblue" points="95.8865,-68.2028 89.1525,-76.3824 99.5176,-74.1875 95.8865,-68.2028"/>
</g>
<!-- Node3 -->
<g id="node3" class="node"><title>Node3</title>
<g id="a_node3"><a xlink:href="../../d0/d05/classparser_1_1_tree_generator.html#acf44e3a80bec76756c2bb09124dc4c8d" target="_top" xlink:title="parser.TreeGenerator.create\lCommands">
<polygon fill="white" stroke="black" points="390.5,-159 390.5,-189 541.5,-189 541.5,-159 390.5,-159"/>
<text text-anchor="start" x="398.5" y="-177" font-family="Helvetica,sans-Serif" font-size="10.00">parser.TreeGenerator.create</text>
<text text-anchor="middle" x="466" y="-166" font-family="Helvetica,sans-Serif" font-size="10.00">Commands</text>
</a>
</g>
</g>
<!-- Node2&#45;&gt;Node3 -->
<g id="edge2" class="edge"><title>Node2&#45;&gt;Node3</title>
<path fill="none" stroke="midnightblue" d="M357.545,-174C368.523,-174 379.63,-174 390.329,-174"/>
<polygon fill="midnightblue" stroke="midnightblue" points="357.515,-170.5 347.515,-174 357.515,-177.5 357.515,-170.5"/>
</g>
<!-- Node4 -->
<g id="node4" class="node"><title>Node4</title>
<g id="a_node4"><a xlink:href="../../d9/df7/classcontroller_1_1_controller.html#a3d81fb1a57114f96fb6c319f4c5df370" target="_top" xlink:title="controller.Controller.parse\lCommand">
<polygon fill="white" stroke="black" points="584,-159 584,-189 724,-189 724,-159 584,-159"/>
<text text-anchor="start" x="592" y="-177" font-family="Helvetica,sans-Serif" font-size="10.00">controller.Controller.parse</text>
<text text-anchor="middle" x="654" y="-166" font-family="Helvetica,sans-Serif" font-size="10.00">Command</text>
</a>
</g>
</g>
<!-- Node3&#45;&gt;Node4 -->
<g id="edge3" class="edge"><title>Node3&#45;&gt;Node4</title>
<path fill="none" stroke="midnightblue" d="M551.798,-174C562.52,-174 573.388,-174 583.827,-174"/>
<polygon fill="midnightblue" stroke="midnightblue" points="551.582,-170.5 541.582,-174 551.582,-177.5 551.582,-170.5"/>
</g>
<!-- Node5 -->
<g id="node5" class="node"><title>Node5</title>
<g id="a_node5"><a xlink:href="../../d5/d06/classui_1_1_scene_updater.html#ab77a04f8b0038429b09237aac18906e8" target="_top" xlink:title="ui.SceneUpdater.sendCommands">
<polygon fill="white" stroke="black" points="760,-164.5 760,-183.5 938,-183.5 938,-164.5 760,-164.5"/>
<text text-anchor="middle" x="849" y="-171.5" font-family="Helvetica,sans-Serif" font-size="10.00">ui.SceneUpdater.sendCommands</text>
</a>
</g>
</g>
<!-- Node4&#45;&gt;Node5 -->
<g id="edge4" class="edge"><title>Node4&#45;&gt;Node5</title>
<path fill="none" stroke="midnightblue" d="M734.294,-174C742.713,-174 751.313,-174 759.825,-174"/>
<polygon fill="midnightblue" stroke="midnightblue" points="734.132,-170.5 724.132,-174 734.132,-177.5 734.132,-170.5"/>
</g>
<!-- Node6 -->
<g id="node6" class="node"><title>Node6</title>
<g id="a_node6"><a xlink:href="../../dc/d3b/classui_1_1_g_u_i.html#ad8f08a79a20a498bcaafdc7e2e2ce0a9" target="_top" xlink:title="ui.GUI.parseCommand">
<polygon fill="white" stroke="black" points="974.5,-164.5 974.5,-183.5 1099.5,-183.5 1099.5,-164.5 974.5,-164.5"/>
<text text-anchor="middle" x="1037" y="-171.5" font-family="Helvetica,sans-Serif" font-size="10.00">ui.GUI.parseCommand</text>
</a>
</g>
</g>
<!-- Node5&#45;&gt;Node6 -->
<g id="edge5" class="edge"><title>Node5&#45;&gt;Node6</title>
<path fill="none" stroke="midnightblue" d="M948.196,-174C957.132,-174 966.003,-174 974.479,-174"/>
<polygon fill="midnightblue" stroke="midnightblue" points="948.098,-170.5 938.098,-174 948.098,-177.5 948.098,-170.5"/>
</g>
<!-- Node7 -->
<g id="node7" class="node"><title>Node7</title>
<g id="a_node7"><a xlink:href="../../d8/d3c/classui_1_1elements_1_1_i_o_element.html#a139a046f0c771f86696f2eee04047c64" target="_top" xlink:title="ui.elements.IOElement.init">
<polygon fill="white" stroke="black" points="1152.5,-183.5 1152.5,-202.5 1295.5,-202.5 1295.5,-183.5 1152.5,-183.5"/>
<text text-anchor="middle" x="1224" y="-190.5" font-family="Helvetica,sans-Serif" font-size="10.00">ui.elements.IOElement.init</text>
</a>
</g>
</g>
<!-- Node6&#45;&gt;Node7 -->
<g id="edge6" class="edge"><title>Node6&#45;&gt;Node7</title>
<path fill="none" stroke="midnightblue" d="M1109.68,-181.361C1123.7,-182.802 1138.4,-184.312 1152.39,-185.749"/>
<polygon fill="midnightblue" stroke="midnightblue" points="1109.91,-177.867 1099.6,-180.327 1109.19,-184.83 1109.91,-177.867"/>
</g>
<!-- Node9 -->
<g id="node9" class="node"><title>Node9</title>
<g id="a_node9"><a xlink:href="../../dc/d3b/classui_1_1_g_u_i.html#ab8ec2a37b3d5bd9e8c2abbb3642fb965" target="_top" xlink:title="ui.GUI.setupKeyboardCommands">
<polygon fill="white" stroke="black" points="1136.5,-145.5 1136.5,-164.5 1311.5,-164.5 1311.5,-145.5 1136.5,-145.5"/>
<text text-anchor="middle" x="1224" y="-152.5" font-family="Helvetica,sans-Serif" font-size="10.00">ui.GUI.setupKeyboardCommands</text>
</a>
</g>
</g>
<!-- Node6&#45;&gt;Node9 -->
<g id="edge8" class="edge"><title>Node6&#45;&gt;Node9</title>
<path fill="none" stroke="midnightblue" d="M1109.69,-166.637C1118.41,-165.742 1127.39,-164.82 1136.29,-163.905"/>
<polygon fill="midnightblue" stroke="midnightblue" points="1109.19,-163.17 1099.6,-167.673 1109.91,-170.133 1109.19,-163.17"/>
</g>
<!-- Node8 -->
<g id="node8" class="node"><title>Node8</title>
<g id="a_node8"><a xlink:href="../../d8/d3c/classui_1_1elements_1_1_i_o_element.html#a556e1a3ad292fe3ab731065eef59b187" target="_top" xlink:title="ui.elements.IOElement.IOElement">
<polygon fill="white" stroke="black" points="1348,-183.5 1348,-202.5 1526,-202.5 1526,-183.5 1348,-183.5"/>
<text text-anchor="middle" x="1437" y="-190.5" font-family="Helvetica,sans-Serif" font-size="10.00">ui.elements.IOElement.IOElement</text>
</a>
</g>
</g>
<!-- Node7&#45;&gt;Node8 -->
<g id="edge7" class="edge"><title>Node7&#45;&gt;Node8</title>
<path fill="none" stroke="midnightblue" d="M1305.92,-193C1319.65,-193 1333.97,-193 1347.88,-193"/>
<polygon fill="midnightblue" stroke="midnightblue" points="1305.55,-189.5 1295.55,-193 1305.55,-196.5 1305.55,-189.5"/>
</g>
<!-- Node10 -->
<g id="node10" class="node"><title>Node10</title>
<g id="a_node10"><a xlink:href="../../dc/d3b/classui_1_1_g_u_i.html#a765d554102f38969231261686f2f8e27" target="_top" xlink:title="ui.GUI.initialize">
<polygon fill="white" stroke="black" points="1394,-145.5 1394,-164.5 1480,-164.5 1480,-145.5 1394,-145.5"/>
<text text-anchor="middle" x="1437" y="-152.5" font-family="Helvetica,sans-Serif" font-size="10.00">ui.GUI.initialize</text>
</a>
</g>
</g>
<!-- Node9&#45;&gt;Node10 -->
<g id="edge9" class="edge"><title>Node9&#45;&gt;Node10</title>
<path fill="none" stroke="midnightblue" d="M1321.75,-155C1347.02,-155 1372.96,-155 1393.72,-155"/>
<polygon fill="midnightblue" stroke="midnightblue" points="1321.74,-151.5 1311.74,-155 1321.74,-158.5 1321.74,-151.5"/>
</g>
<!-- Node11 -->
<g id="node11" class="node"><title>Node11</title>
<g id="a_node11"><a xlink:href="../../d5/d06/classui_1_1_scene_updater.html#aeef5dd7a8ec2ad6179e33fdd71ea90d6" target="_top" xlink:title="ui.SceneUpdater.initGUI">
<polygon fill="white" stroke="black" points="1562.5,-145.5 1562.5,-164.5 1693.5,-164.5 1693.5,-145.5 1562.5,-145.5"/>
<text text-anchor="middle" x="1628" y="-152.5" font-family="Helvetica,sans-Serif" font-size="10.00">ui.SceneUpdater.initGUI</text>
</a>
</g>
</g>
<!-- Node10&#45;&gt;Node11 -->
<g id="edge10" class="edge"><title>Node10&#45;&gt;Node11</title>
<path fill="none" stroke="midnightblue" d="M1490.67,-155C1512.92,-155 1539.05,-155 1562.45,-155"/>
<polygon fill="midnightblue" stroke="midnightblue" points="1490.42,-151.5 1480.42,-155 1490.42,-158.5 1490.42,-151.5"/>
</g>
<!-- Node12 -->
<g id="node12" class="node"><title>Node12</title>
<g id="a_node12"><a xlink:href="../../d9/df7/classcontroller_1_1_controller.html#a57e42ba83ee2145e6262cd72eac59570" target="_top" xlink:title="controller.Controller.init">
<polygon fill="white" stroke="black" points="1730.5,-145.5 1730.5,-164.5 1857.5,-164.5 1857.5,-145.5 1730.5,-145.5"/>
<text text-anchor="middle" x="1794" y="-152.5" font-family="Helvetica,sans-Serif" font-size="10.00">controller.Controller.init</text>
</a>
</g>
</g>
<!-- Node11&#45;&gt;Node12 -->
<g id="edge11" class="edge"><title>Node11&#45;&gt;Node12</title>
<path fill="none" stroke="midnightblue" d="M1704.04,-155C1712.81,-155 1721.68,-155 1730.26,-155"/>
<polygon fill="midnightblue" stroke="midnightblue" points="1703.82,-151.5 1693.82,-155 1703.82,-158.5 1703.82,-151.5"/>
</g>
<!-- Node13 -->
<g id="node13" class="node"><title>Node13</title>
<g id="a_node13"><a xlink:href="../../dd/df2/classmain_1_1_workspace_manager.html#abc818b59211f6e14940b86a42bb868d0" target="_top" xlink:title="main.WorkspaceManager.create\lWorkspace">
<polygon fill="white" stroke="black" points="1894,-140 1894,-170 2064,-170 2064,-140 1894,-140"/>
<text text-anchor="start" x="1902" y="-158" font-family="Helvetica,sans-Serif" font-size="10.00">main.WorkspaceManager.create</text>
<text text-anchor="middle" x="1979" y="-147" font-family="Helvetica,sans-Serif" font-size="10.00">Workspace</text>
</a>
</g>
</g>
<!-- Node12&#45;&gt;Node13 -->
<g id="edge12" class="edge"><title>Node12&#45;&gt;Node13</title>
<path fill="none" stroke="midnightblue" d="M1867.92,-155C1876.39,-155 1885.08,-155 1893.69,-155"/>
<polygon fill="midnightblue" stroke="midnightblue" points="1867.72,-151.5 1857.72,-155 1867.72,-158.5 1867.72,-151.5"/>
</g>
<!-- Node14 -->
<g id="node14" class="node"><title>Node14</title>
<g id="a_node14"><a xlink:href="../../d9/df7/classcontroller_1_1_controller.html#a3a9d672bb57047df70945ad1a9582c9a" target="_top" xlink:title="controller.Controller.create\lNewWorkspace">
<polygon fill="white" stroke="black" points="2100.5,-162 2100.5,-192 2243.5,-192 2243.5,-162 2100.5,-162"/>
<text text-anchor="start" x="2108.5" y="-180" font-family="Helvetica,sans-Serif" font-size="10.00">controller.Controller.create</text>
<text text-anchor="middle" x="2172" y="-169" font-family="Helvetica,sans-Serif" font-size="10.00">NewWorkspace</text>
</a>
</g>
</g>
<!-- Node13&#45;&gt;Node14 -->
<g id="edge13" class="edge"><title>Node13&#45;&gt;Node14</title>
<path fill="none" stroke="midnightblue" d="M2074.03,-165.83C2082.88,-166.85 2091.75,-167.872 2100.34,-168.861"/>
<polygon fill="midnightblue" stroke="midnightblue" points="2074.39,-162.349 2064.05,-164.682 2073.59,-169.303 2074.39,-162.349"/>
</g>
<!-- Node20 -->
<g id="node20" class="node"><title>Node20</title>
<g id="a_node20"><a xlink:href="../../d1/d0b/classmain_1_1_main.html#a9f1e5657b2f6f9bdd69a3b6412ceda74" target="_top" xlink:title="main.Main.start">
<polygon fill="white" stroke="black" points="2126,-123.5 2126,-142.5 2218,-142.5 2218,-123.5 2126,-123.5"/>
<text text-anchor="middle" x="2172" y="-130.5" font-family="Helvetica,sans-Serif" font-size="10.00">main.Main.start</text>
</a>
</g>
</g>
<!-- Node13&#45;&gt;Node20 -->
<g id="edge19" class="edge"><title>Node13&#45;&gt;Node20</title>
<path fill="none" stroke="midnightblue" d="M2074.09,-144.163C2092.19,-142.078 2110.36,-139.985 2125.99,-138.184"/>
<polygon fill="midnightblue" stroke="midnightblue" points="2073.59,-140.697 2064.05,-145.318 2074.39,-147.651 2073.59,-140.697"/>
</g>
<!-- Node15 -->
<g id="node15" class="node"><title>Node15</title>
<g id="a_node15"><a xlink:href="../../d5/d06/classui_1_1_scene_updater.html#a2858ad8edb0c0f59a21e2ae015f2fa1e" target="_top" xlink:title="ui.SceneUpdater.createNew\lWorkspace">
<polygon fill="white" stroke="black" points="2280,-162 2280,-192 2430,-192 2430,-162 2280,-162"/>
<text text-anchor="start" x="2288" y="-180" font-family="Helvetica,sans-Serif" font-size="10.00">ui.SceneUpdater.createNew</text>
<text text-anchor="middle" x="2355" y="-169" font-family="Helvetica,sans-Serif" font-size="10.00">Workspace</text>
</a>
</g>
</g>
<!-- Node14&#45;&gt;Node15 -->
<g id="edge14" class="edge"><title>Node14&#45;&gt;Node15</title>
<path fill="none" stroke="midnightblue" d="M2253.8,-177C2262.43,-177 2271.17,-177 2279.71,-177"/>
<polygon fill="midnightblue" stroke="midnightblue" points="2253.76,-173.5 2243.76,-177 2253.76,-180.5 2253.76,-173.5"/>
</g>
<!-- Node16 -->
<g id="node16" class="node"><title>Node16</title>
<g id="a_node16"><a xlink:href="../../dc/d3b/classui_1_1_g_u_i.html#a2edc294ba07311e6c4b85c9fe749d1bf" target="_top" xlink:title="ui.GUI.createNewWorkspace">
<polygon fill="white" stroke="black" points="2466,-167.5 2466,-186.5 2616,-186.5 2616,-167.5 2466,-167.5"/>
<text text-anchor="middle" x="2541" y="-174.5" font-family="Helvetica,sans-Serif" font-size="10.00">ui.GUI.createNewWorkspace</text>
</a>
</g>
</g>
<!-- Node15&#45;&gt;Node16 -->
<g id="edge15" class="edge"><title>Node15&#45;&gt;Node16</title>
<path fill="none" stroke="midnightblue" d="M2440.07,-177C2448.65,-177 2457.34,-177 2465.81,-177"/>
<polygon fill="midnightblue" stroke="midnightblue" points="2440.04,-173.5 2430.04,-177 2440.04,-180.5 2440.04,-173.5"/>
</g>
<!-- Node17 -->
<g id="node17" class="node"><title>Node17</title>
<g id="a_node17"><a xlink:href="../../d0/de6/classui_1_1elements_1_1_menu_bar_element.html#a98c13995a31d997aa10f2950583da6cc" target="_top" xlink:title="ui.elements.MenuBarElement.make\lMenuBar">
<polygon fill="white" stroke="black" points="2652,-162 2652,-192 2840,-192 2840,-162 2652,-162"/>
<text text-anchor="start" x="2660" y="-180" font-family="Helvetica,sans-Serif" font-size="10.00">ui.elements.MenuBarElement.make</text>
<text text-anchor="middle" x="2746" y="-169" font-family="Helvetica,sans-Serif" font-size="10.00">MenuBar</text>
</a>
</g>
</g>
<!-- Node16&#45;&gt;Node17 -->
<g id="edge16" class="edge"><title>Node16&#45;&gt;Node17</title>
<path fill="none" stroke="midnightblue" d="M2626.28,-177C2634.66,-177 2643.21,-177 2651.68,-177"/>
<polygon fill="midnightblue" stroke="midnightblue" points="2626.15,-173.5 2616.15,-177 2626.15,-180.5 2626.15,-173.5"/>
</g>
<!-- Node18 -->
<g id="node18" class="node"><title>Node18</title>
<g id="a_node18"><a xlink:href="../../d0/de6/classui_1_1elements_1_1_menu_bar_element.html#a7bdb58f78cf8b61ba28498c5c86ab682" target="_top" xlink:title="ui.elements.MenuBarElement.init">
<polygon fill="white" stroke="black" points="2876,-167.5 2876,-186.5 3052,-186.5 3052,-167.5 2876,-167.5"/>
<text text-anchor="middle" x="2964" y="-174.5" font-family="Helvetica,sans-Serif" font-size="10.00">ui.elements.MenuBarElement.init</text>
</a>
</g>
</g>
<!-- Node17&#45;&gt;Node18 -->
<g id="edge17" class="edge"><title>Node17&#45;&gt;Node18</title>
<path fill="none" stroke="midnightblue" d="M2850.23,-177C2858.83,-177 2867.48,-177 2875.94,-177"/>
<polygon fill="midnightblue" stroke="midnightblue" points="2850.17,-173.5 2840.17,-177 2850.17,-180.5 2850.17,-173.5"/>
</g>
<!-- Node19 -->
<g id="node19" class="node"><title>Node19</title>
<g id="a_node19"><a xlink:href="../../d0/de6/classui_1_1elements_1_1_menu_bar_element.html#ab4a4e6841c924a9d9c70b8073b56dffc" target="_top" xlink:title="ui.elements.MenuBarElement.\lMenuBarElement">
<polygon fill="white" stroke="black" points="3088.5,-162 3088.5,-192 3249.5,-192 3249.5,-162 3088.5,-162"/>
<text text-anchor="start" x="3096.5" y="-180" font-family="Helvetica,sans-Serif" font-size="10.00">ui.elements.MenuBarElement.</text>
<text text-anchor="middle" x="3169" y="-169" font-family="Helvetica,sans-Serif" font-size="10.00">MenuBarElement</text>
</a>
</g>
</g>
<!-- Node18&#45;&gt;Node19 -->
<g id="edge18" class="edge"><title>Node18&#45;&gt;Node19</title>
<path fill="none" stroke="midnightblue" d="M3062.47,-177C3071.19,-177 3079.95,-177 3088.5,-177"/>
<polygon fill="midnightblue" stroke="midnightblue" points="3062.27,-173.5 3052.27,-177 3062.27,-180.5 3062.27,-173.5"/>
</g>
<!-- Node21&#45;&gt;Node22 -->
<g id="edge21" class="edge"><title>Node21&#45;&gt;Node22</title>
<path fill="none" stroke="midnightblue" d="M356.226,-120.025C365.631,-118.986 375.147,-117.933 384.435,-116.907"/>
<polygon fill="midnightblue" stroke="midnightblue" points="355.636,-116.569 346.081,-121.147 356.405,-123.527 355.636,-116.569"/>
</g>
</g>
</svg>
        <g id="navigator" transform="translate(0 0)" fill="#404254">
                <rect fill="#f2f5e9" fill-opacity="0.5" stroke="#606060" stroke-width=".5" x="0" y="0" width="60" height="60"/>
                <use id="zoomplus" xlink:href="#zoomPlus" x="17" y="9" onmousedown="handleZoom(evt,'in')"/>
                <use id="zoomminus" xlink:href="#zoomMin" x="42" y="9" onmousedown="handleZoom(evt,'out')"/>
                <use id="reset" xlink:href="#resetDef" x="30" y="36" onmousedown="handleReset()"/>
                <g id="arrowUp" xlink:href="#dirArrow" transform="translate(30 24)" onmousedown="handlePan(0,-1)">
                  <use xlink:href="#rim" fill="#404040">
                        <set attributeName="fill" to="#808080" begin="arrowUp.mouseover" end="arrowUp.mouseout"/>
                  </use>
                  <path fill="none" stroke="white" stroke-width="1.5" d="M0,-3.0v7 M-2.5,-0.5L0,-3.0L2.5,-0.5"/>
                </g>
                <g id="arrowRight" xlink:href="#dirArrow" transform="rotate(90) translate(36 -43)" onmousedown="handlePan(1,0)">
                  <use xlink:href="#rim" fill="#404040">
                        <set attributeName="fill" to="#808080" begin="arrowRight.mouseover" end="arrowRight.mouseout"/>
                  </use>
                  <path fill="none" stroke="white" stroke-width="1.5" d="M0,-3.0v7 M-2.5,-0.5L0,-3.0L2.5,-0.5"/>
                </g>
                <g id="arrowDown" xlink:href="#dirArrow" transform="rotate(180) translate(-30 -48)" onmousedown="handlePan(0,1)">
                  <use xlink:href="#rim" fill="#404040">
                        <set attributeName="fill" to="#808080" begin="arrowDown.mouseover" end="arrowDown.mouseout"/>
                  </use>
                  <path fill="none" stroke="white" stroke-width="1.5" d="M0,-3.0v7 M-2.5,-0.5L0,-3.0L2.5,-0.5"/>
                </g>
                <g id="arrowLeft" xlink:href="#dirArrow" transform="rotate(270) translate(-36 17)" onmousedown="handlePan(-1,0)">
                  <use xlink:href="#rim" fill="#404040">
                        <set attributeName="fill" to="#808080" begin="arrowLeft.mouseover" end="arrowLeft.mouseout"/>
                  </use>
                  <path fill="none" stroke="white" stroke-width="1.5" d="M0,-3.0v7 M-2.5,-0.5L0,-3.0L2.5,-0.5"/>
                </g>
        </g>
        <svg viewBox="0 0 15 15" width="100%" height="30px" preserveAspectRatio="xMaxYMin meet">
         <g id="arrow_out" transform="scale(0.3 0.3)">
          <a xlink:href="interfaceparser_1_1_tree_wrapper_a48f9f037c84b1fecfdefcb3268640f88_icgraph_org.svg" target="_base">
           <rect id="button" ry="5" rx="5" y="6" x="6" height="38" width="38"
                fill="#f2f5e9" fill-opacity="0.5" stroke="#606060" stroke-width="1.0"/>
           <path id="arrow"
             d="M 11.500037,31.436501 C 11.940474,20.09759 22.043105,11.32322 32.158766,21.979434 L 37.068811,17.246167 C 37.068811,17.246167 37.088388,32 37.088388,32 L 22.160133,31.978069 C 22.160133,31.978069 26.997745,27.140456 26.997745,27.140456 C 18.528582,18.264221 13.291696,25.230495 11.500037,31.436501 z"
             style="fill:#404040;"/>
          </a>
         </g>
        </svg>
</svg>
