<?xml version="1.0" encoding="UTF-8" standalone="no"?>
<!DOCTYPE svg PUBLIC "-//W3C//DTD SVG 1.1//EN"
 "http://www.w3.org/Graphics/SVG/1.1/DTD/svg11.dtd">
<!-- Generated by graphviz version 2.36.0 (20140111.2315)
 -->
<!-- Title: parser.TreeWrapper.printTestStatements Pages: 1 -->
<svg width="3244pt" height="287pt"
 viewBox="0.00 0.00 3244.00 287.00" xmlns="http://www.w3.org/2000/svg" xmlns:xlink="http://www.w3.org/1999/xlink">
<g id="graph0" class="graph" transform="scale(1 1) rotate(0) translate(4 283)">
<title>parser.TreeWrapper.printTestStatements</title>
<polygon fill="white" stroke="none" points="-4,4 -4,-283 3240,-283 3240,4 -4,4"/>
<!-- Node1 -->
<g id="node1" class="node"><title>Node1</title>
<polygon fill="#bfbfbf" stroke="black" points="0,-109 0,-139 132,-139 132,-109 0,-109"/>
<text text-anchor="start" x="8" y="-127" font-family="Helvetica,sans-Serif" font-size="10.00">parser.TreeWrapper.print</text>
<text text-anchor="middle" x="66" y="-116" font-family="Helvetica,sans-Serif" font-size="10.00">TestStatements</text>
</g>
<!-- Node2 -->
<g id="node2" class="node"><title>Node2</title>
<g id="a_node2"><a xlink:href="../../d5/d30/classparser_1_1_command_case.html#a309ba0623929f8d96219c98de00023b0" target="_top" xlink:title="parser.CommandCase.initialize">
<polygon fill="white" stroke="black" points="168.5,-240.5 168.5,-259.5 333.5,-259.5 333.5,-240.5 168.5,-240.5"/>
<text text-anchor="middle" x="251" y="-247.5" font-family="Helvetica,sans-Serif" font-size="10.00">parser.CommandCase.initialize</text>
</a>
</g>
</g>
<!-- Node1&#45;&gt;Node2 -->
<g id="edge1" class="edge"><title>Node1&#45;&gt;Node2</title>
<path fill="none" stroke="midnightblue" d="M83.1085,-147.597C101.001,-171.961 132.138,-209.257 168,-230 175.484,-234.329 183.874,-237.724 192.354,-240.387"/>
<polygon fill="midnightblue" stroke="midnightblue" points="85.8029,-145.348 77.1317,-139.261 80.114,-149.427 85.8029,-145.348"/>
</g>
<!-- Node21 -->
<g id="node21" class="node"><title>Node21</title>
<g id="a_node21"><a xlink:href="../../d5/d30/classparser_1_1_command_case.html#a02f0603f41bb9fa479d9608a195f203d" target="_top" xlink:title="parser.CommandCase.making\lInstructionsCase">
<polygon fill="white" stroke="black" points="170,-191 170,-221 332,-221 332,-191 170,-191"/>
<text text-anchor="start" x="178" y="-209" font-family="Helvetica,sans-Serif" font-size="10.00">parser.CommandCase.making</text>
<text text-anchor="middle" x="251" y="-198" font-family="Helvetica,sans-Serif" font-size="10.00">InstructionsCase</text>
</a>
</g>
</g>
<!-- Node1&#45;&gt;Node21 -->
<g id="edge20" class="edge"><title>Node1&#45;&gt;Node21</title>
<path fill="none" stroke="midnightblue" d="M102.92,-143.879C121.979,-154.072 145.957,-166.338 168,-176 180.079,-181.294 193.418,-186.455 205.767,-190.961"/>
<polygon fill="midnightblue" stroke="midnightblue" points="104.452,-140.729 93.9885,-139.063 101.129,-146.89 104.452,-140.729"/>
</g>
<!-- Node22 -->
<g id="node22" class="node"><title>Node22</title>
<g id="a_node22"><a xlink:href="../../d5/d30/classparser_1_1_command_case.html#a65e1e45269c10f4611f02192244755c3" target="_top" xlink:title="parser.CommandCase.recurse">
<polygon fill="white" stroke="black" points="370.5,-174.5 370.5,-193.5 533.5,-193.5 533.5,-174.5 370.5,-174.5"/>
<text text-anchor="middle" x="452" y="-181.5" font-family="Helvetica,sans-Serif" font-size="10.00">parser.CommandCase.recurse</text>
</a>
</g>
</g>
<!-- Node1&#45;&gt;Node22 -->
<g id="edge26" class="edge"><title>Node1&#45;&gt;Node22</title>
<path fill="none" stroke="midnightblue" d="M141.974,-138.467C150.738,-140.05 159.56,-141.595 168,-143 239.743,-154.94 322.053,-166.641 379.341,-174.467"/>
<polygon fill="midnightblue" stroke="midnightblue" points="142.592,-135.022 132.126,-136.668 141.334,-141.908 142.592,-135.022"/>
</g>
<!-- Node23 -->
<g id="node23" class="node"><title>Node23</title>
<g id="a_node23"><a xlink:href="../../df/d5d/classparser_1_1_variable_case.html#a20ff8b5f80ef27bdf7ff62f9ee5c08a8" target="_top" xlink:title="parser.VariableCase.recurse">
<polygon fill="white" stroke="black" points="175.5,-114.5 175.5,-133.5 326.5,-133.5 326.5,-114.5 175.5,-114.5"/>
<text text-anchor="middle" x="251" y="-121.5" font-family="Helvetica,sans-Serif" font-size="10.00">parser.VariableCase.recurse</text>
</a>
</g>
</g>
<!-- Node1&#45;&gt;Node23 -->
<g id="edge22" class="edge"><title>Node1&#45;&gt;Node23</title>
<path fill="none" stroke="midnightblue" d="M142.323,-124C153.177,-124 164.344,-124 175.187,-124"/>
<polygon fill="midnightblue" stroke="midnightblue" points="142.034,-120.5 132.034,-124 142.034,-127.5 142.034,-120.5"/>
</g>
<!-- Node24 -->
<g id="node24" class="node"><title>Node24</title>
<g id="a_node24"><a xlink:href="../../df/d34/classparser_1_1_group_start_case.html#a605643dc0d07e20e571714c2200e1259" target="_top" xlink:title="parser.GroupStartCase.recurse">
<polygon fill="white" stroke="black" points="168,-76.5 168,-95.5 334,-95.5 334,-76.5 168,-76.5"/>
<text text-anchor="middle" x="251" y="-83.5" font-family="Helvetica,sans-Serif" font-size="10.00">parser.GroupStartCase.recurse</text>
</a>
</g>
</g>
<!-- Node1&#45;&gt;Node24 -->
<g id="edge23" class="edge"><title>Node1&#45;&gt;Node24</title>
<path fill="none" stroke="midnightblue" d="M141.938,-108.439C163.015,-104.062 185.305,-99.4339 204.131,-95.5246"/>
<polygon fill="midnightblue" stroke="midnightblue" points="141.114,-105.036 132.034,-110.496 142.537,-111.889 141.114,-105.036"/>
</g>
<!-- Node25 -->
<g id="node25" class="node"><title>Node25</title>
<g id="a_node25"><a xlink:href="../../d9/d14/classparser_1_1_constant_case.html#a84fdd34b3b0f33742f2d2acb9af23c9c" target="_top" xlink:title="parser.ConstantCase.recurse">
<polygon fill="white" stroke="black" points="173,-38.5 173,-57.5 329,-57.5 329,-38.5 173,-38.5"/>
<text text-anchor="middle" x="251" y="-45.5" font-family="Helvetica,sans-Serif" font-size="10.00">parser.ConstantCase.recurse</text>
</a>
</g>
</g>
<!-- Node1&#45;&gt;Node25 -->
<g id="edge24" class="edge"><title>Node1&#45;&gt;Node25</title>
<path fill="none" stroke="midnightblue" d="M98.0439,-103.397C117.458,-91.3072 143.375,-76.5722 168,-67 177.67,-63.2409 188.284,-60.1054 198.574,-57.5369"/>
<polygon fill="midnightblue" stroke="midnightblue" points="95.9144,-100.603 89.3401,-108.912 99.6607,-106.516 95.9144,-100.603"/>
</g>
<!-- Node26 -->
<g id="node26" class="node"><title>Node26</title>
<g id="a_node26"><a xlink:href="../../da/db7/classparser_1_1_list_start_case.html#a497e0fc6331cd969a3398c3f895afa92" target="_top" xlink:title="parser.ListStartCase.recurse">
<polygon fill="white" stroke="black" points="174.5,-0.5 174.5,-19.5 327.5,-19.5 327.5,-0.5 174.5,-0.5"/>
<text text-anchor="middle" x="251" y="-7.5" font-family="Helvetica,sans-Serif" font-size="10.00">parser.ListStartCase.recurse</text>
</a>
</g>
</g>
<!-- Node1&#45;&gt;Node26 -->
<g id="edge25" class="edge"><title>Node1&#45;&gt;Node26</title>
<path fill="none" stroke="midnightblue" d="M85.0737,-101.081C103.57,-79.2169 134.31,-47.0238 168,-29 175.216,-25.1397 183.198,-22.0591 191.267,-19.6018"/>
<polygon fill="midnightblue" stroke="midnightblue" points="82.2801,-98.9667 78.6035,-108.903 87.6741,-103.428 82.2801,-98.9667"/>
</g>
<!-- Node3 -->
<g id="node3" class="node"><title>Node3</title>
<g id="a_node3"><a xlink:href="../../d0/d05/classparser_1_1_tree_generator.html#acf44e3a80bec76756c2bb09124dc4c8d" target="_top" xlink:title="parser.TreeGenerator.create\lCommands">
<polygon fill="white" stroke="black" points="376.5,-235 376.5,-265 527.5,-265 527.5,-235 376.5,-235"/>
<text text-anchor="start" x="384.5" y="-253" font-family="Helvetica,sans-Serif" font-size="10.00">parser.TreeGenerator.create</text>
<text text-anchor="middle" x="452" y="-242" font-family="Helvetica,sans-Serif" font-size="10.00">Commands</text>
</a>
</g>
</g>
<!-- Node2&#45;&gt;Node3 -->
<g id="edge2" class="edge"><title>Node2&#45;&gt;Node3</title>
<path fill="none" stroke="midnightblue" d="M343.545,-250C354.523,-250 365.63,-250 376.329,-250"/>
<polygon fill="midnightblue" stroke="midnightblue" points="343.515,-246.5 333.515,-250 343.515,-253.5 343.515,-246.5"/>
</g>
<!-- Node4 -->
<g id="node4" class="node"><title>Node4</title>
<g id="a_node4"><a xlink:href="../../d9/df7/classcontroller_1_1_controller.html#a3d81fb1a57114f96fb6c319f4c5df370" target="_top" xlink:title="controller.Controller.parse\lCommand">
<polygon fill="white" stroke="black" points="570,-235 570,-265 710,-265 710,-235 570,-235"/>
<text text-anchor="start" x="578" y="-253" font-family="Helvetica,sans-Serif" font-size="10.00">controller.Controller.parse</text>
<text text-anchor="middle" x="640" y="-242" font-family="Helvetica,sans-Serif" font-size="10.00">Command</text>
</a>
</g>
</g>
<!-- Node3&#45;&gt;Node4 -->
<g id="edge3" class="edge"><title>Node3&#45;&gt;Node4</title>
<path fill="none" stroke="midnightblue" d="M537.798,-250C548.52,-250 559.388,-250 569.827,-250"/>
<polygon fill="midnightblue" stroke="midnightblue" points="537.582,-246.5 527.582,-250 537.582,-253.5 537.582,-246.5"/>
</g>
<!-- Node5 -->
<g id="node5" class="node"><title>Node5</title>
<g id="a_node5"><a xlink:href="../../d5/d06/classui_1_1_scene_updater.html#ab77a04f8b0038429b09237aac18906e8" target="_top" xlink:title="ui.SceneUpdater.sendCommands">
<polygon fill="white" stroke="black" points="746,-240.5 746,-259.5 924,-259.5 924,-240.5 746,-240.5"/>
<text text-anchor="middle" x="835" y="-247.5" font-family="Helvetica,sans-Serif" font-size="10.00">ui.SceneUpdater.sendCommands</text>
</a>
</g>
</g>
<!-- Node4&#45;&gt;Node5 -->
<g id="edge4" class="edge"><title>Node4&#45;&gt;Node5</title>
<path fill="none" stroke="midnightblue" d="M720.294,-250C728.713,-250 737.313,-250 745.825,-250"/>
<polygon fill="midnightblue" stroke="midnightblue" points="720.132,-246.5 710.132,-250 720.132,-253.5 720.132,-246.5"/>
</g>
<!-- Node6 -->
<g id="node6" class="node"><title>Node6</title>
<g id="a_node6"><a xlink:href="../../dc/d3b/classui_1_1_g_u_i.html#ad8f08a79a20a498bcaafdc7e2e2ce0a9" target="_top" xlink:title="ui.GUI.parseCommand">
<polygon fill="white" stroke="black" points="960.5,-240.5 960.5,-259.5 1085.5,-259.5 1085.5,-240.5 960.5,-240.5"/>
<text text-anchor="middle" x="1023" y="-247.5" font-family="Helvetica,sans-Serif" font-size="10.00">ui.GUI.parseCommand</text>
</a>
</g>
</g>
<!-- Node5&#45;&gt;Node6 -->
<g id="edge5" class="edge"><title>Node5&#45;&gt;Node6</title>
<path fill="none" stroke="midnightblue" d="M934.196,-250C943.132,-250 952.003,-250 960.479,-250"/>
<polygon fill="midnightblue" stroke="midnightblue" points="934.098,-246.5 924.098,-250 934.098,-253.5 934.098,-246.5"/>
</g>
<!-- Node7 -->
<g id="node7" class="node"><title>Node7</title>
<g id="a_node7"><a xlink:href="../../d8/d3c/classui_1_1elements_1_1_i_o_element.html#a139a046f0c771f86696f2eee04047c64" target="_top" xlink:title="ui.elements.IOElement.init">
<polygon fill="white" stroke="black" points="1138.5,-259.5 1138.5,-278.5 1281.5,-278.5 1281.5,-259.5 1138.5,-259.5"/>
<text text-anchor="middle" x="1210" y="-266.5" font-family="Helvetica,sans-Serif" font-size="10.00">ui.elements.IOElement.init</text>
</a>
</g>
</g>
<!-- Node6&#45;&gt;Node7 -->
<g id="edge6" class="edge"><title>Node6&#45;&gt;Node7</title>
<path fill="none" stroke="midnightblue" d="M1095.68,-257.361C1109.7,-258.802 1124.4,-260.312 1138.39,-261.749"/>
<polygon fill="midnightblue" stroke="midnightblue" points="1095.91,-253.867 1085.6,-256.327 1095.19,-260.83 1095.91,-253.867"/>
</g>
<!-- Node9 -->
<g id="node9" class="node"><title>Node9</title>
<g id="a_node9"><a xlink:href="../../dc/d3b/classui_1_1_g_u_i.html#ab8ec2a37b3d5bd9e8c2abbb3642fb965" target="_top" xlink:title="ui.GUI.setupKeyboardCommands">
<polygon fill="white" stroke="black" points="1122.5,-221.5 1122.5,-240.5 1297.5,-240.5 1297.5,-221.5 1122.5,-221.5"/>
<text text-anchor="middle" x="1210" y="-228.5" font-family="Helvetica,sans-Serif" font-size="10.00">ui.GUI.setupKeyboardCommands</text>
</a>
</g>
</g>
<!-- Node6&#45;&gt;Node9 -->
<g id="edge8" class="edge"><title>Node6&#45;&gt;Node9</title>
<path fill="none" stroke="midnightblue" d="M1095.69,-242.637C1104.41,-241.742 1113.39,-240.82 1122.29,-239.905"/>
<polygon fill="midnightblue" stroke="midnightblue" points="1095.19,-239.17 1085.6,-243.673 1095.91,-246.133 1095.19,-239.17"/>
</g>
<!-- Node8 -->
<g id="node8" class="node"><title>Node8</title>
<g id="a_node8"><a xlink:href="../../d8/d3c/classui_1_1elements_1_1_i_o_element.html#a556e1a3ad292fe3ab731065eef59b187" target="_top" xlink:title="ui.elements.IOElement.IOElement">
<polygon fill="white" stroke="black" points="1334,-259.5 1334,-278.5 1512,-278.5 1512,-259.5 1334,-259.5"/>
<text text-anchor="middle" x="1423" y="-266.5" font-family="Helvetica,sans-Serif" font-size="10.00">ui.elements.IOElement.IOElement</text>
</a>
</g>
</g>
<!-- Node7&#45;&gt;Node8 -->
<g id="edge7" class="edge"><title>Node7&#45;&gt;Node8</title>
<path fill="none" stroke="midnightblue" d="M1291.92,-269C1305.65,-269 1319.97,-269 1333.88,-269"/>
<polygon fill="midnightblue" stroke="midnightblue" points="1291.55,-265.5 1281.55,-269 1291.55,-272.5 1291.55,-265.5"/>
</g>
<!-- Node10 -->
<g id="node10" class="node"><title>Node10</title>
<g id="a_node10"><a xlink:href="../../dc/d3b/classui_1_1_g_u_i.html#a765d554102f38969231261686f2f8e27" target="_top" xlink:title="ui.GUI.initialize">
<polygon fill="white" stroke="black" points="1380,-221.5 1380,-240.5 1466,-240.5 1466,-221.5 1380,-221.5"/>
<text text-anchor="middle" x="1423" y="-228.5" font-family="Helvetica,sans-Serif" font-size="10.00">ui.GUI.initialize</text>
</a>
</g>
</g>
<!-- Node9&#45;&gt;Node10 -->
<g id="edge9" class="edge"><title>Node9&#45;&gt;Node10</title>
<path fill="none" stroke="midnightblue" d="M1307.75,-231C1333.02,-231 1358.96,-231 1379.72,-231"/>
<polygon fill="midnightblue" stroke="midnightblue" points="1307.74,-227.5 1297.74,-231 1307.74,-234.5 1307.74,-227.5"/>
</g>
<!-- Node11 -->
<g id="node11" class="node"><title>Node11</title>
<g id="a_node11"><a xlink:href="../../d5/d06/classui_1_1_scene_updater.html#aeef5dd7a8ec2ad6179e33fdd71ea90d6" target="_top" xlink:title="ui.SceneUpdater.initGUI">
<polygon fill="white" stroke="black" points="1548.5,-221.5 1548.5,-240.5 1679.5,-240.5 1679.5,-221.5 1548.5,-221.5"/>
<text text-anchor="middle" x="1614" y="-228.5" font-family="Helvetica,sans-Serif" font-size="10.00">ui.SceneUpdater.initGUI</text>
</a>
</g>
</g>
<!-- Node10&#45;&gt;Node11 -->
<g id="edge10" class="edge"><title>Node10&#45;&gt;Node11</title>
<path fill="none" stroke="midnightblue" d="M1476.67,-231C1498.92,-231 1525.05,-231 1548.45,-231"/>
<polygon fill="midnightblue" stroke="midnightblue" points="1476.42,-227.5 1466.42,-231 1476.42,-234.5 1476.42,-227.5"/>
</g>
<!-- Node12 -->
<g id="node12" class="node"><title>Node12</title>
<g id="a_node12"><a xlink:href="../../d9/df7/classcontroller_1_1_controller.html#a57e42ba83ee2145e6262cd72eac59570" target="_top" xlink:title="controller.Controller.init">
<polygon fill="white" stroke="black" points="1716.5,-221.5 1716.5,-240.5 1843.5,-240.5 1843.5,-221.5 1716.5,-221.5"/>
<text text-anchor="middle" x="1780" y="-228.5" font-family="Helvetica,sans-Serif" font-size="10.00">controller.Controller.init</text>
</a>
</g>
</g>
<!-- Node11&#45;&gt;Node12 -->
<g id="edge11" class="edge"><title>Node11&#45;&gt;Node12</title>
<path fill="none" stroke="midnightblue" d="M1690.04,-231C1698.81,-231 1707.68,-231 1716.26,-231"/>
<polygon fill="midnightblue" stroke="midnightblue" points="1689.82,-227.5 1679.82,-231 1689.82,-234.5 1689.82,-227.5"/>
</g>
<!-- Node13 -->
<g id="node13" class="node"><title>Node13</title>
<g id="a_node13"><a xlink:href="../../dd/df2/classmain_1_1_workspace_manager.html#abc818b59211f6e14940b86a42bb868d0" target="_top" xlink:title="main.WorkspaceManager.create\lWorkspace">
<polygon fill="white" stroke="black" points="1880,-216 1880,-246 2050,-246 2050,-216 1880,-216"/>
<text text-anchor="start" x="1888" y="-234" font-family="Helvetica,sans-Serif" font-size="10.00">main.WorkspaceManager.create</text>
<text text-anchor="middle" x="1965" y="-223" font-family="Helvetica,sans-Serif" font-size="10.00">Workspace</text>
</a>
</g>
</g>
<!-- Node12&#45;&gt;Node13 -->
<g id="edge12" class="edge"><title>Node12&#45;&gt;Node13</title>
<path fill="none" stroke="midnightblue" d="M1853.92,-231C1862.39,-231 1871.08,-231 1879.69,-231"/>
<polygon fill="midnightblue" stroke="midnightblue" points="1853.72,-227.5 1843.72,-231 1853.72,-234.5 1853.72,-227.5"/>
</g>
<!-- Node14 -->
<g id="node14" class="node"><title>Node14</title>
<g id="a_node14"><a xlink:href="../../d9/df7/classcontroller_1_1_controller.html#a3a9d672bb57047df70945ad1a9582c9a" target="_top" xlink:title="controller.Controller.create\lNewWorkspace">
<polygon fill="white" stroke="black" points="2086.5,-238 2086.5,-268 2229.5,-268 2229.5,-238 2086.5,-238"/>
<text text-anchor="start" x="2094.5" y="-256" font-family="Helvetica,sans-Serif" font-size="10.00">controller.Controller.create</text>
<text text-anchor="middle" x="2158" y="-245" font-family="Helvetica,sans-Serif" font-size="10.00">NewWorkspace</text>
</a>
</g>
</g>
<!-- Node13&#45;&gt;Node14 -->
<g id="edge13" class="edge"><title>Node13&#45;&gt;Node14</title>
<path fill="none" stroke="midnightblue" d="M2060.03,-241.83C2068.88,-242.85 2077.75,-243.872 2086.34,-244.861"/>
<polygon fill="midnightblue" stroke="midnightblue" points="2060.39,-238.349 2050.05,-240.682 2059.59,-245.303 2060.39,-238.349"/>
</g>
<!-- Node20 -->
<g id="node20" class="node"><title>Node20</title>
<g id="a_node20"><a xlink:href="../../d1/d0b/classmain_1_1_main.html#a9f1e5657b2f6f9bdd69a3b6412ceda74" target="_top" xlink:title="main.Main.start">
<polygon fill="white" stroke="black" points="2112,-199.5 2112,-218.5 2204,-218.5 2204,-199.5 2112,-199.5"/>
<text text-anchor="middle" x="2158" y="-206.5" font-family="Helvetica,sans-Serif" font-size="10.00">main.Main.start</text>
</a>
</g>
</g>
<!-- Node13&#45;&gt;Node20 -->
<g id="edge19" class="edge"><title>Node13&#45;&gt;Node20</title>
<path fill="none" stroke="midnightblue" d="M2060.09,-220.163C2078.19,-218.078 2096.36,-215.985 2111.99,-214.184"/>
<polygon fill="midnightblue" stroke="midnightblue" points="2059.59,-216.697 2050.05,-221.318 2060.39,-223.651 2059.59,-216.697"/>
</g>
<!-- Node15 -->
<g id="node15" class="node"><title>Node15</title>
<g id="a_node15"><a xlink:href="../../d5/d06/classui_1_1_scene_updater.html#a2858ad8edb0c0f59a21e2ae015f2fa1e" target="_top" xlink:title="ui.SceneUpdater.createNew\lWorkspace">
<polygon fill="white" stroke="black" points="2266,-238 2266,-268 2416,-268 2416,-238 2266,-238"/>
<text text-anchor="start" x="2274" y="-256" font-family="Helvetica,sans-Serif" font-size="10.00">ui.SceneUpdater.createNew</text>
<text text-anchor="middle" x="2341" y="-245" font-family="Helvetica,sans-Serif" font-size="10.00">Workspace</text>
</a>
</g>
</g>
<!-- Node14&#45;&gt;Node15 -->
<g id="edge14" class="edge"><title>Node14&#45;&gt;Node15</title>
<path fill="none" stroke="midnightblue" d="M2239.8,-253C2248.43,-253 2257.17,-253 2265.71,-253"/>
<polygon fill="midnightblue" stroke="midnightblue" points="2239.76,-249.5 2229.76,-253 2239.76,-256.5 2239.76,-249.5"/>
</g>
<!-- Node16 -->
<g id="node16" class="node"><title>Node16</title>
<g id="a_node16"><a xlink:href="../../dc/d3b/classui_1_1_g_u_i.html#a2edc294ba07311e6c4b85c9fe749d1bf" target="_top" xlink:title="ui.GUI.createNewWorkspace">
<polygon fill="white" stroke="black" points="2452,-243.5 2452,-262.5 2602,-262.5 2602,-243.5 2452,-243.5"/>
<text text-anchor="middle" x="2527" y="-250.5" font-family="Helvetica,sans-Serif" font-size="10.00">ui.GUI.createNewWorkspace</text>
</a>
</g>
</g>
<!-- Node15&#45;&gt;Node16 -->
<g id="edge15" class="edge"><title>Node15&#45;&gt;Node16</title>
<path fill="none" stroke="midnightblue" d="M2426.07,-253C2434.65,-253 2443.34,-253 2451.81,-253"/>
<polygon fill="midnightblue" stroke="midnightblue" points="2426.04,-249.5 2416.04,-253 2426.04,-256.5 2426.04,-249.5"/>
</g>
<!-- Node17 -->
<g id="node17" class="node"><title>Node17</title>
<g id="a_node17"><a xlink:href="../../d0/de6/classui_1_1elements_1_1_menu_bar_element.html#a98c13995a31d997aa10f2950583da6cc" target="_top" xlink:title="ui.elements.MenuBarElement.make\lMenuBar">
<polygon fill="white" stroke="black" points="2638,-238 2638,-268 2826,-268 2826,-238 2638,-238"/>
<text text-anchor="start" x="2646" y="-256" font-family="Helvetica,sans-Serif" font-size="10.00">ui.elements.MenuBarElement.make</text>
<text text-anchor="middle" x="2732" y="-245" font-family="Helvetica,sans-Serif" font-size="10.00">MenuBar</text>
</a>
</g>
</g>
<!-- Node16&#45;&gt;Node17 -->
<g id="edge16" class="edge"><title>Node16&#45;&gt;Node17</title>
<path fill="none" stroke="midnightblue" d="M2612.28,-253C2620.66,-253 2629.21,-253 2637.68,-253"/>
<polygon fill="midnightblue" stroke="midnightblue" points="2612.15,-249.5 2602.15,-253 2612.15,-256.5 2612.15,-249.5"/>
</g>
<!-- Node18 -->
<g id="node18" class="node"><title>Node18</title>
<g id="a_node18"><a xlink:href="../../d0/de6/classui_1_1elements_1_1_menu_bar_element.html#a7bdb58f78cf8b61ba28498c5c86ab682" target="_top" xlink:title="ui.elements.MenuBarElement.init">
<polygon fill="white" stroke="black" points="2862,-243.5 2862,-262.5 3038,-262.5 3038,-243.5 2862,-243.5"/>
<text text-anchor="middle" x="2950" y="-250.5" font-family="Helvetica,sans-Serif" font-size="10.00">ui.elements.MenuBarElement.init</text>
</a>
</g>
</g>
<!-- Node17&#45;&gt;Node18 -->
<g id="edge17" class="edge"><title>Node17&#45;&gt;Node18</title>
<path fill="none" stroke="midnightblue" d="M2836.23,-253C2844.83,-253 2853.48,-253 2861.94,-253"/>
<polygon fill="midnightblue" stroke="midnightblue" points="2836.17,-249.5 2826.17,-253 2836.17,-256.5 2836.17,-249.5"/>
</g>
<!-- Node19 -->
<g id="node19" class="node"><title>Node19</title>
<g id="a_node19"><a xlink:href="../../d0/de6/classui_1_1elements_1_1_menu_bar_element.html#ab4a4e6841c924a9d9c70b8073b56dffc" target="_top" xlink:title="ui.elements.MenuBarElement.\lMenuBarElement">
<polygon fill="white" stroke="black" points="3074.5,-238 3074.5,-268 3235.5,-268 3235.5,-238 3074.5,-238"/>
<text text-anchor="start" x="3082.5" y="-256" font-family="Helvetica,sans-Serif" font-size="10.00">ui.elements.MenuBarElement.</text>
<text text-anchor="middle" x="3155" y="-245" font-family="Helvetica,sans-Serif" font-size="10.00">MenuBarElement</text>
</a>
</g>
</g>
<!-- Node18&#45;&gt;Node19 -->
<g id="edge18" class="edge"><title>Node18&#45;&gt;Node19</title>
<path fill="none" stroke="midnightblue" d="M3048.47,-253C3057.19,-253 3065.95,-253 3074.5,-253"/>
<polygon fill="midnightblue" stroke="midnightblue" points="3048.27,-249.5 3038.27,-253 3048.27,-256.5 3048.27,-249.5"/>
</g>
<!-- Node21&#45;&gt;Node22 -->
<g id="edge21" class="edge"><title>Node21&#45;&gt;Node22</title>
<path fill="none" stroke="midnightblue" d="M342.226,-196.025C351.631,-194.986 361.147,-193.933 370.435,-192.907"/>
<polygon fill="midnightblue" stroke="midnightblue" points="341.636,-192.569 332.081,-197.147 342.405,-199.527 341.636,-192.569"/>
</g>
</g>
</svg>
