<?xml version="1.0" encoding="UTF-8" standalone="no"?>
<!DOCTYPE svg PUBLIC "-//W3C//DTD SVG 1.1//EN"
 "http://www.w3.org/Graphics/SVG/1.1/DTD/svg11.dtd">
<!-- Generated by graphviz version 2.36.0 (20140111.2315)
 -->
<!-- Title: parser.TreeWrapper.getIndex Pages: 1 -->
<!--zoomable 237 -->
<svg id="main" version="1.1" xmlns="http://www.w3.org/2000/svg" xmlns:xlink="http://www.w3.org/1999/xlink" xml:space="preserve" onload="init(evt)">
<style type="text/css"><![CDATA[
.edge:hover path { stroke: red; }
.edge:hover polygon { stroke: red; fill: red; }
]]></style>
<script type="text/javascript"><![CDATA[
var edges = document.getElementsByTagName('g');
if (edges && edges.length) {
  for (var i=0;i<edges.length;i++) {
    if (edges[i].id.substr(0,4)=='edge') {
      edges[i].setAttribute('class','edge');
    }
  }
}
]]></script>
        <defs>
                <circle id="rim" cx="0" cy="0" r="7"/>
                <circle id="rim2" cx="0" cy="0" r="3.5"/>
                <g id="zoomPlus">
                        <use xlink:href="#rim" fill="#404040">
                                <set attributeName="fill" to="#808080" begin="zoomplus.mouseover" end="zoomplus.mouseout"/>
                        </use>
                        <path d="M-4,0h8M0,-4v8" fill="none" stroke="white" stroke-width="1.5" pointer-events="none"/>
                </g>
                <g id="zoomMin">
                        <use xlink:href="#rim" fill="#404040">
                                <set attributeName="fill" to="#808080" begin="zoomminus.mouseover" end="zoomminus.mouseout"/>
                        </use>
                        <path d="M-4,0h8" fill="none" stroke="white" stroke-width="1.5" pointer-events="none"/>
                </g>
                <g id="dirArrow">
                        <path fill="none" stroke="white" stroke-width="1.5" d="M0,-3.0v7 M-2.5,-0.5L0,-3.0L2.5,-0.5"/>
                </g>
               <g id="resetDef">
                       <use xlink:href="#rim2" fill="#404040">
                               <set attributeName="fill" to="#808080" begin="reset.mouseover" end="reset.mouseout"/>
                       </use>
               </g>
        </defs>

<script type="text/javascript">
var viewWidth = 3252;
var viewHeight = 237;
var sectionId = 'dynsection-1';
</script>
<script xlink:href="../../svgpan.js"/>
<svg id="graph" class="graph">
<g id="viewport">
<title>parser.TreeWrapper.getIndex</title>
<polygon fill="white" stroke="none" points="-4,4 -4,-233 3248,-233 3248,4 -4,4"/>
<!-- Node1 -->
<g id="node1" class="node"><title>Node1</title>
<polygon fill="#bfbfbf" stroke="black" points="0,-95.5 0,-114.5 152,-114.5 152,-95.5 0,-95.5"/>
<text text-anchor="middle" x="76" y="-102.5" font-family="Helvetica,sans-Serif" font-size="10.00">parser.TreeWrapper.getIndex</text>
</g>
<!-- Node2 -->
<g id="node2" class="node"><title>Node2</title>
<g id="a_node2"><a xlink:href="../../d5/d30/classparser_1_1_command_case.html#a309ba0623929f8d96219c98de00023b0" target="_top" xlink:title="parser.CommandCase.initialize">
<polygon fill="white" stroke="black" points="188.5,-190.5 188.5,-209.5 353.5,-209.5 353.5,-190.5 188.5,-190.5"/>
<text text-anchor="middle" x="271" y="-197.5" font-family="Helvetica,sans-Serif" font-size="10.00">parser.CommandCase.initialize</text>
</a>
</g>
</g>
<!-- Node1&#45;&gt;Node2 -->
<g id="edge1" class="edge"><title>Node1&#45;&gt;Node2</title>
<path fill="none" stroke="midnightblue" d="M95.9798,-121.309C117.087,-138.618 152.858,-165.557 188,-181 196.696,-184.821 206.263,-187.927 215.697,-190.434"/>
<polygon fill="midnightblue" stroke="midnightblue" points="98.0507,-118.478 88.1305,-114.758 93.5655,-123.853 98.0507,-118.478"/>
</g>
<!-- Node21 -->
<g id="node21" class="node"><title>Node21</title>
<g id="a_node21"><a xlink:href="../../df/d5d/classparser_1_1_variable_case.html#a20ff8b5f80ef27bdf7ff62f9ee5c08a8" target="_top" xlink:title="parser.VariableCase.recurse">
<polygon fill="white" stroke="black" points="195.5,-152.5 195.5,-171.5 346.5,-171.5 346.5,-152.5 195.5,-152.5"/>
<text text-anchor="middle" x="271" y="-159.5" font-family="Helvetica,sans-Serif" font-size="10.00">parser.VariableCase.recurse</text>
</a>
</g>
</g>
<!-- Node1&#45;&gt;Node21 -->
<g id="edge20" class="edge"><title>Node1&#45;&gt;Node21</title>
<path fill="none" stroke="midnightblue" d="M111.798,-117.936C133.529,-125.758 162.188,-135.612 188,-143 199.942,-146.418 212.994,-149.661 225.102,-152.468"/>
<polygon fill="midnightblue" stroke="midnightblue" points="112.93,-114.623 102.336,-114.501 110.542,-121.203 112.93,-114.623"/>
</g>
<!-- Node22 -->
<g id="node22" class="node"><title>Node22</title>
<g id="a_node22"><a xlink:href="../../da/db7/classparser_1_1_list_start_case.html#a497e0fc6331cd969a3398c3f895afa92" target="_top" xlink:title="parser.ListStartCase.recurse">
<polygon fill="white" stroke="black" points="194.5,-114.5 194.5,-133.5 347.5,-133.5 347.5,-114.5 194.5,-114.5"/>
<text text-anchor="middle" x="271" y="-121.5" font-family="Helvetica,sans-Serif" font-size="10.00">parser.ListStartCase.recurse</text>
</a>
</g>
</g>
<!-- Node1&#45;&gt;Node22 -->
<g id="edge21" class="edge"><title>Node1&#45;&gt;Node22</title>
<path fill="none" stroke="midnightblue" d="M162.337,-113.401C173.017,-114.452 183.882,-115.522 194.398,-116.557"/>
<polygon fill="midnightblue" stroke="midnightblue" points="162.466,-109.897 152.171,-112.4 161.78,-116.863 162.466,-109.897"/>
</g>
<!-- Node23 -->
<g id="node23" class="node"><title>Node23</title>
<g id="a_node23"><a xlink:href="../../df/d34/classparser_1_1_group_start_case.html#a605643dc0d07e20e571714c2200e1259" target="_top" xlink:title="parser.GroupStartCase.recurse">
<polygon fill="white" stroke="black" points="188,-76.5 188,-95.5 354,-95.5 354,-76.5 188,-76.5"/>
<text text-anchor="middle" x="271" y="-83.5" font-family="Helvetica,sans-Serif" font-size="10.00">parser.GroupStartCase.recurse</text>
</a>
</g>
</g>
<!-- Node1&#45;&gt;Node23 -->
<g id="edge22" class="edge"><title>Node1&#45;&gt;Node23</title>
<path fill="none" stroke="midnightblue" d="M162.36,-96.5967C170.773,-95.7685 179.301,-94.9289 187.683,-94.1038"/>
<polygon fill="midnightblue" stroke="midnightblue" points="161.78,-93.1367 152.171,-97.5997 162.466,-100.103 161.78,-93.1367"/>
</g>
<!-- Node24 -->
<g id="node24" class="node"><title>Node24</title>
<g id="a_node24"><a xlink:href="../../d9/d14/classparser_1_1_constant_case.html#a84fdd34b3b0f33742f2d2acb9af23c9c" target="_top" xlink:title="parser.ConstantCase.recurse">
<polygon fill="white" stroke="black" points="193,-38.5 193,-57.5 349,-57.5 349,-38.5 193,-38.5"/>
<text text-anchor="middle" x="271" y="-45.5" font-family="Helvetica,sans-Serif" font-size="10.00">parser.ConstantCase.recurse</text>
</a>
</g>
</g>
<!-- Node1&#45;&gt;Node24 -->
<g id="edge23" class="edge"><title>Node1&#45;&gt;Node24</title>
<path fill="none" stroke="midnightblue" d="M111.798,-92.0644C133.529,-84.2421 162.188,-74.3878 188,-67 199.942,-63.5821 212.994,-60.3392 225.102,-57.532"/>
<polygon fill="midnightblue" stroke="midnightblue" points="110.542,-88.7969 102.336,-95.4992 112.93,-95.3767 110.542,-88.7969"/>
</g>
<!-- Node25 -->
<g id="node25" class="node"><title>Node25</title>
<g id="a_node25"><a xlink:href="../../d5/d30/classparser_1_1_command_case.html#a65e1e45269c10f4611f02192244755c3" target="_top" xlink:title="parser.CommandCase.recurse">
<polygon fill="white" stroke="black" points="189.5,-0.5 189.5,-19.5 352.5,-19.5 352.5,-0.5 189.5,-0.5"/>
<text text-anchor="middle" x="271" y="-7.5" font-family="Helvetica,sans-Serif" font-size="10.00">parser.CommandCase.recurse</text>
</a>
</g>
</g>
<!-- Node1&#45;&gt;Node25 -->
<g id="edge24" class="edge"><title>Node1&#45;&gt;Node25</title>
<path fill="none" stroke="midnightblue" d="M95.9798,-88.6913C117.087,-71.3822 152.858,-44.4425 188,-29 196.696,-25.1787 206.263,-22.073 215.697,-19.5658"/>
<polygon fill="midnightblue" stroke="midnightblue" points="93.5655,-86.1474 88.1305,-95.242 98.0507,-91.5217 93.5655,-86.1474"/>
</g>
<!-- Node3 -->
<g id="node3" class="node"><title>Node3</title>
<g id="a_node3"><a xlink:href="../../d0/d05/classparser_1_1_tree_generator.html#acf44e3a80bec76756c2bb09124dc4c8d" target="_top" xlink:title="parser.TreeGenerator.create\lCommands">
<polygon fill="white" stroke="black" points="390.5,-185 390.5,-215 541.5,-215 541.5,-185 390.5,-185"/>
<text text-anchor="start" x="398.5" y="-203" font-family="Helvetica,sans-Serif" font-size="10.00">parser.TreeGenerator.create</text>
<text text-anchor="middle" x="466" y="-192" font-family="Helvetica,sans-Serif" font-size="10.00">Commands</text>
</a>
</g>
</g>
<!-- Node2&#45;&gt;Node3 -->
<g id="edge2" class="edge"><title>Node2&#45;&gt;Node3</title>
<path fill="none" stroke="midnightblue" d="M363.669,-200C372.651,-200 381.688,-200 390.469,-200"/>
<polygon fill="midnightblue" stroke="midnightblue" points="363.57,-196.5 353.57,-200 363.57,-203.5 363.57,-196.5"/>
</g>
<!-- Node4 -->
<g id="node4" class="node"><title>Node4</title>
<g id="a_node4"><a xlink:href="../../d9/df7/classcontroller_1_1_controller.html#a3d81fb1a57114f96fb6c319f4c5df370" target="_top" xlink:title="controller.Controller.parse\lCommand">
<polygon fill="white" stroke="black" points="578,-185 578,-215 718,-215 718,-185 578,-185"/>
<text text-anchor="start" x="586" y="-203" font-family="Helvetica,sans-Serif" font-size="10.00">controller.Controller.parse</text>
<text text-anchor="middle" x="648" y="-192" font-family="Helvetica,sans-Serif" font-size="10.00">Command</text>
</a>
</g>
</g>
<!-- Node3&#45;&gt;Node4 -->
<g id="edge3" class="edge"><title>Node3&#45;&gt;Node4</title>
<path fill="none" stroke="midnightblue" d="M551.701,-200C560.424,-200 569.213,-200 577.739,-200"/>
<polygon fill="midnightblue" stroke="midnightblue" points="551.512,-196.5 541.512,-200 551.512,-203.5 551.512,-196.5"/>
</g>
<!-- Node5 -->
<g id="node5" class="node"><title>Node5</title>
<g id="a_node5"><a xlink:href="../../d5/d06/classui_1_1_scene_updater.html#ab77a04f8b0038429b09237aac18906e8" target="_top" xlink:title="ui.SceneUpdater.sendCommands">
<polygon fill="white" stroke="black" points="754,-190.5 754,-209.5 932,-209.5 932,-190.5 754,-190.5"/>
<text text-anchor="middle" x="843" y="-197.5" font-family="Helvetica,sans-Serif" font-size="10.00">ui.SceneUpdater.sendCommands</text>
</a>
</g>
</g>
<!-- Node4&#45;&gt;Node5 -->
<g id="edge4" class="edge"><title>Node4&#45;&gt;Node5</title>
<path fill="none" stroke="midnightblue" d="M728.294,-200C736.713,-200 745.313,-200 753.825,-200"/>
<polygon fill="midnightblue" stroke="midnightblue" points="728.132,-196.5 718.132,-200 728.132,-203.5 728.132,-196.5"/>
</g>
<!-- Node6 -->
<g id="node6" class="node"><title>Node6</title>
<g id="a_node6"><a xlink:href="../../dc/d3b/classui_1_1_g_u_i.html#ad8f08a79a20a498bcaafdc7e2e2ce0a9" target="_top" xlink:title="ui.GUI.parseCommand">
<polygon fill="white" stroke="black" points="968.5,-190.5 968.5,-209.5 1093.5,-209.5 1093.5,-190.5 968.5,-190.5"/>
<text text-anchor="middle" x="1031" y="-197.5" font-family="Helvetica,sans-Serif" font-size="10.00">ui.GUI.parseCommand</text>
</a>
</g>
</g>
<!-- Node5&#45;&gt;Node6 -->
<g id="edge5" class="edge"><title>Node5&#45;&gt;Node6</title>
<path fill="none" stroke="midnightblue" d="M942.196,-200C951.132,-200 960.003,-200 968.479,-200"/>
<polygon fill="midnightblue" stroke="midnightblue" points="942.098,-196.5 932.098,-200 942.098,-203.5 942.098,-196.5"/>
</g>
<!-- Node7 -->
<g id="node7" class="node"><title>Node7</title>
<g id="a_node7"><a xlink:href="../../d8/d3c/classui_1_1elements_1_1_i_o_element.html#a139a046f0c771f86696f2eee04047c64" target="_top" xlink:title="ui.elements.IOElement.init">
<polygon fill="white" stroke="black" points="1146.5,-209.5 1146.5,-228.5 1289.5,-228.5 1289.5,-209.5 1146.5,-209.5"/>
<text text-anchor="middle" x="1218" y="-216.5" font-family="Helvetica,sans-Serif" font-size="10.00">ui.elements.IOElement.init</text>
</a>
</g>
</g>
<!-- Node6&#45;&gt;Node7 -->
<g id="edge6" class="edge"><title>Node6&#45;&gt;Node7</title>
<path fill="none" stroke="midnightblue" d="M1103.68,-207.361C1117.7,-208.802 1132.4,-210.312 1146.39,-211.749"/>
<polygon fill="midnightblue" stroke="midnightblue" points="1103.91,-203.867 1093.6,-206.327 1103.19,-210.83 1103.91,-203.867"/>
</g>
<!-- Node9 -->
<g id="node9" class="node"><title>Node9</title>
<g id="a_node9"><a xlink:href="../../dc/d3b/classui_1_1_g_u_i.html#ab8ec2a37b3d5bd9e8c2abbb3642fb965" target="_top" xlink:title="ui.GUI.setupKeyboardCommands">
<polygon fill="white" stroke="black" points="1130.5,-171.5 1130.5,-190.5 1305.5,-190.5 1305.5,-171.5 1130.5,-171.5"/>
<text text-anchor="middle" x="1218" y="-178.5" font-family="Helvetica,sans-Serif" font-size="10.00">ui.GUI.setupKeyboardCommands</text>
</a>
</g>
</g>
<!-- Node6&#45;&gt;Node9 -->
<g id="edge8" class="edge"><title>Node6&#45;&gt;Node9</title>
<path fill="none" stroke="midnightblue" d="M1103.69,-192.637C1112.41,-191.742 1121.39,-190.82 1130.29,-189.905"/>
<polygon fill="midnightblue" stroke="midnightblue" points="1103.19,-189.17 1093.6,-193.673 1103.91,-196.133 1103.19,-189.17"/>
</g>
<!-- Node8 -->
<g id="node8" class="node"><title>Node8</title>
<g id="a_node8"><a xlink:href="../../d8/d3c/classui_1_1elements_1_1_i_o_element.html#a556e1a3ad292fe3ab731065eef59b187" target="_top" xlink:title="ui.elements.IOElement.IOElement">
<polygon fill="white" stroke="black" points="1342,-209.5 1342,-228.5 1520,-228.5 1520,-209.5 1342,-209.5"/>
<text text-anchor="middle" x="1431" y="-216.5" font-family="Helvetica,sans-Serif" font-size="10.00">ui.elements.IOElement.IOElement</text>
</a>
</g>
</g>
<!-- Node7&#45;&gt;Node8 -->
<g id="edge7" class="edge"><title>Node7&#45;&gt;Node8</title>
<path fill="none" stroke="midnightblue" d="M1299.92,-219C1313.65,-219 1327.97,-219 1341.88,-219"/>
<polygon fill="midnightblue" stroke="midnightblue" points="1299.55,-215.5 1289.55,-219 1299.55,-222.5 1299.55,-215.5"/>
</g>
<!-- Node10 -->
<g id="node10" class="node"><title>Node10</title>
<g id="a_node10"><a xlink:href="../../dc/d3b/classui_1_1_g_u_i.html#a765d554102f38969231261686f2f8e27" target="_top" xlink:title="ui.GUI.initialize">
<polygon fill="white" stroke="black" points="1388,-171.5 1388,-190.5 1474,-190.5 1474,-171.5 1388,-171.5"/>
<text text-anchor="middle" x="1431" y="-178.5" font-family="Helvetica,sans-Serif" font-size="10.00">ui.GUI.initialize</text>
</a>
</g>
</g>
<!-- Node9&#45;&gt;Node10 -->
<g id="edge9" class="edge"><title>Node9&#45;&gt;Node10</title>
<path fill="none" stroke="midnightblue" d="M1315.75,-181C1341.02,-181 1366.96,-181 1387.72,-181"/>
<polygon fill="midnightblue" stroke="midnightblue" points="1315.74,-177.5 1305.74,-181 1315.74,-184.5 1315.74,-177.5"/>
</g>
<!-- Node11 -->
<g id="node11" class="node"><title>Node11</title>
<g id="a_node11"><a xlink:href="../../d5/d06/classui_1_1_scene_updater.html#aeef5dd7a8ec2ad6179e33fdd71ea90d6" target="_top" xlink:title="ui.SceneUpdater.initGUI">
<polygon fill="white" stroke="black" points="1556.5,-171.5 1556.5,-190.5 1687.5,-190.5 1687.5,-171.5 1556.5,-171.5"/>
<text text-anchor="middle" x="1622" y="-178.5" font-family="Helvetica,sans-Serif" font-size="10.00">ui.SceneUpdater.initGUI</text>
</a>
</g>
</g>
<!-- Node10&#45;&gt;Node11 -->
<g id="edge10" class="edge"><title>Node10&#45;&gt;Node11</title>
<path fill="none" stroke="midnightblue" d="M1484.67,-181C1506.92,-181 1533.05,-181 1556.45,-181"/>
<polygon fill="midnightblue" stroke="midnightblue" points="1484.42,-177.5 1474.42,-181 1484.42,-184.5 1484.42,-177.5"/>
</g>
<!-- Node12 -->
<g id="node12" class="node"><title>Node12</title>
<g id="a_node12"><a xlink:href="../../d9/df7/classcontroller_1_1_controller.html#a57e42ba83ee2145e6262cd72eac59570" target="_top" xlink:title="controller.Controller.init">
<polygon fill="white" stroke="black" points="1724.5,-171.5 1724.5,-190.5 1851.5,-190.5 1851.5,-171.5 1724.5,-171.5"/>
<text text-anchor="middle" x="1788" y="-178.5" font-family="Helvetica,sans-Serif" font-size="10.00">controller.Controller.init</text>
</a>
</g>
</g>
<!-- Node11&#45;&gt;Node12 -->
<g id="edge11" class="edge"><title>Node11&#45;&gt;Node12</title>
<path fill="none" stroke="midnightblue" d="M1698.04,-181C1706.81,-181 1715.68,-181 1724.26,-181"/>
<polygon fill="midnightblue" stroke="midnightblue" points="1697.82,-177.5 1687.82,-181 1697.82,-184.5 1697.82,-177.5"/>
</g>
<!-- Node13 -->
<g id="node13" class="node"><title>Node13</title>
<g id="a_node13"><a xlink:href="../../dd/df2/classmain_1_1_workspace_manager.html#abc818b59211f6e14940b86a42bb868d0" target="_top" xlink:title="main.WorkspaceManager.create\lWorkspace">
<polygon fill="white" stroke="black" points="1888,-166 1888,-196 2058,-196 2058,-166 1888,-166"/>
<text text-anchor="start" x="1896" y="-184" font-family="Helvetica,sans-Serif" font-size="10.00">main.WorkspaceManager.create</text>
<text text-anchor="middle" x="1973" y="-173" font-family="Helvetica,sans-Serif" font-size="10.00">Workspace</text>
</a>
</g>
</g>
<!-- Node12&#45;&gt;Node13 -->
<g id="edge12" class="edge"><title>Node12&#45;&gt;Node13</title>
<path fill="none" stroke="midnightblue" d="M1861.92,-181C1870.39,-181 1879.08,-181 1887.69,-181"/>
<polygon fill="midnightblue" stroke="midnightblue" points="1861.72,-177.5 1851.72,-181 1861.72,-184.5 1861.72,-177.5"/>
</g>
<!-- Node14 -->
<g id="node14" class="node"><title>Node14</title>
<g id="a_node14"><a xlink:href="../../d9/df7/classcontroller_1_1_controller.html#a3a9d672bb57047df70945ad1a9582c9a" target="_top" xlink:title="controller.Controller.create\lNewWorkspace">
<polygon fill="white" stroke="black" points="2094.5,-188 2094.5,-218 2237.5,-218 2237.5,-188 2094.5,-188"/>
<text text-anchor="start" x="2102.5" y="-206" font-family="Helvetica,sans-Serif" font-size="10.00">controller.Controller.create</text>
<text text-anchor="middle" x="2166" y="-195" font-family="Helvetica,sans-Serif" font-size="10.00">NewWorkspace</text>
</a>
</g>
</g>
<!-- Node13&#45;&gt;Node14 -->
<g id="edge13" class="edge"><title>Node13&#45;&gt;Node14</title>
<path fill="none" stroke="midnightblue" d="M2068.03,-191.83C2076.88,-192.85 2085.75,-193.872 2094.34,-194.861"/>
<polygon fill="midnightblue" stroke="midnightblue" points="2068.39,-188.349 2058.05,-190.682 2067.59,-195.303 2068.39,-188.349"/>
</g>
<!-- Node20 -->
<g id="node20" class="node"><title>Node20</title>
<g id="a_node20"><a xlink:href="../../d1/d0b/classmain_1_1_main.html#a9f1e5657b2f6f9bdd69a3b6412ceda74" target="_top" xlink:title="main.Main.start">
<polygon fill="white" stroke="black" points="2120,-149.5 2120,-168.5 2212,-168.5 2212,-149.5 2120,-149.5"/>
<text text-anchor="middle" x="2166" y="-156.5" font-family="Helvetica,sans-Serif" font-size="10.00">main.Main.start</text>
</a>
</g>
</g>
<!-- Node13&#45;&gt;Node20 -->
<g id="edge19" class="edge"><title>Node13&#45;&gt;Node20</title>
<path fill="none" stroke="midnightblue" d="M2068.09,-170.163C2086.19,-168.078 2104.36,-165.985 2119.99,-164.184"/>
<polygon fill="midnightblue" stroke="midnightblue" points="2067.59,-166.697 2058.05,-171.318 2068.39,-173.651 2067.59,-166.697"/>
</g>
<!-- Node15 -->
<g id="node15" class="node"><title>Node15</title>
<g id="a_node15"><a xlink:href="../../d5/d06/classui_1_1_scene_updater.html#a2858ad8edb0c0f59a21e2ae015f2fa1e" target="_top" xlink:title="ui.SceneUpdater.createNew\lWorkspace">
<polygon fill="white" stroke="black" points="2274,-188 2274,-218 2424,-218 2424,-188 2274,-188"/>
<text text-anchor="start" x="2282" y="-206" font-family="Helvetica,sans-Serif" font-size="10.00">ui.SceneUpdater.createNew</text>
<text text-anchor="middle" x="2349" y="-195" font-family="Helvetica,sans-Serif" font-size="10.00">Workspace</text>
</a>
</g>
</g>
<!-- Node14&#45;&gt;Node15 -->
<g id="edge14" class="edge"><title>Node14&#45;&gt;Node15</title>
<path fill="none" stroke="midnightblue" d="M2247.8,-203C2256.43,-203 2265.17,-203 2273.71,-203"/>
<polygon fill="midnightblue" stroke="midnightblue" points="2247.76,-199.5 2237.76,-203 2247.76,-206.5 2247.76,-199.5"/>
</g>
<!-- Node16 -->
<g id="node16" class="node"><title>Node16</title>
<g id="a_node16"><a xlink:href="../../dc/d3b/classui_1_1_g_u_i.html#a2edc294ba07311e6c4b85c9fe749d1bf" target="_top" xlink:title="ui.GUI.createNewWorkspace">
<polygon fill="white" stroke="black" points="2460,-193.5 2460,-212.5 2610,-212.5 2610,-193.5 2460,-193.5"/>
<text text-anchor="middle" x="2535" y="-200.5" font-family="Helvetica,sans-Serif" font-size="10.00">ui.GUI.createNewWorkspace</text>
</a>
</g>
</g>
<!-- Node15&#45;&gt;Node16 -->
<g id="edge15" class="edge"><title>Node15&#45;&gt;Node16</title>
<path fill="none" stroke="midnightblue" d="M2434.07,-203C2442.65,-203 2451.34,-203 2459.81,-203"/>
<polygon fill="midnightblue" stroke="midnightblue" points="2434.04,-199.5 2424.04,-203 2434.04,-206.5 2434.04,-199.5"/>
</g>
<!-- Node17 -->
<g id="node17" class="node"><title>Node17</title>
<g id="a_node17"><a xlink:href="../../d0/de6/classui_1_1elements_1_1_menu_bar_element.html#a98c13995a31d997aa10f2950583da6cc" target="_top" xlink:title="ui.elements.MenuBarElement.make\lMenuBar">
<polygon fill="white" stroke="black" points="2646,-188 2646,-218 2834,-218 2834,-188 2646,-188"/>
<text text-anchor="start" x="2654" y="-206" font-family="Helvetica,sans-Serif" font-size="10.00">ui.elements.MenuBarElement.make</text>
<text text-anchor="middle" x="2740" y="-195" font-family="Helvetica,sans-Serif" font-size="10.00">MenuBar</text>
</a>
</g>
</g>
<!-- Node16&#45;&gt;Node17 -->
<g id="edge16" class="edge"><title>Node16&#45;&gt;Node17</title>
<path fill="none" stroke="midnightblue" d="M2620.28,-203C2628.66,-203 2637.21,-203 2645.68,-203"/>
<polygon fill="midnightblue" stroke="midnightblue" points="2620.15,-199.5 2610.15,-203 2620.15,-206.5 2620.15,-199.5"/>
</g>
<!-- Node18 -->
<g id="node18" class="node"><title>Node18</title>
<g id="a_node18"><a xlink:href="../../d0/de6/classui_1_1elements_1_1_menu_bar_element.html#a7bdb58f78cf8b61ba28498c5c86ab682" target="_top" xlink:title="ui.elements.MenuBarElement.init">
<polygon fill="white" stroke="black" points="2870,-193.5 2870,-212.5 3046,-212.5 3046,-193.5 2870,-193.5"/>
<text text-anchor="middle" x="2958" y="-200.5" font-family="Helvetica,sans-Serif" font-size="10.00">ui.elements.MenuBarElement.init</text>
</a>
</g>
</g>
<!-- Node17&#45;&gt;Node18 -->
<g id="edge17" class="edge"><title>Node17&#45;&gt;Node18</title>
<path fill="none" stroke="midnightblue" d="M2844.23,-203C2852.83,-203 2861.48,-203 2869.94,-203"/>
<polygon fill="midnightblue" stroke="midnightblue" points="2844.17,-199.5 2834.17,-203 2844.17,-206.5 2844.17,-199.5"/>
</g>
<!-- Node19 -->
<g id="node19" class="node"><title>Node19</title>
<g id="a_node19"><a xlink:href="../../d0/de6/classui_1_1elements_1_1_menu_bar_element.html#ab4a4e6841c924a9d9c70b8073b56dffc" target="_top" xlink:title="ui.elements.MenuBarElement.\lMenuBarElement">
<polygon fill="white" stroke="black" points="3082.5,-188 3082.5,-218 3243.5,-218 3243.5,-188 3082.5,-188"/>
<text text-anchor="start" x="3090.5" y="-206" font-family="Helvetica,sans-Serif" font-size="10.00">ui.elements.MenuBarElement.</text>
<text text-anchor="middle" x="3163" y="-195" font-family="Helvetica,sans-Serif" font-size="10.00">MenuBarElement</text>
</a>
</g>
</g>
<!-- Node18&#45;&gt;Node19 -->
<g id="edge18" class="edge"><title>Node18&#45;&gt;Node19</title>
<path fill="none" stroke="midnightblue" d="M3056.47,-203C3065.19,-203 3073.95,-203 3082.5,-203"/>
<polygon fill="midnightblue" stroke="midnightblue" points="3056.27,-199.5 3046.27,-203 3056.27,-206.5 3056.27,-199.5"/>
</g>
</g>
</svg>
        <g id="navigator" transform="translate(0 0)" fill="#404254">
                <rect fill="#f2f5e9" fill-opacity="0.5" stroke="#606060" stroke-width=".5" x="0" y="0" width="60" height="60"/>
                <use id="zoomplus" xlink:href="#zoomPlus" x="17" y="9" onmousedown="handleZoom(evt,'in')"/>
                <use id="zoomminus" xlink:href="#zoomMin" x="42" y="9" onmousedown="handleZoom(evt,'out')"/>
                <use id="reset" xlink:href="#resetDef" x="30" y="36" onmousedown="handleReset()"/>
                <g id="arrowUp" xlink:href="#dirArrow" transform="translate(30 24)" onmousedown="handlePan(0,-1)">
                  <use xlink:href="#rim" fill="#404040">
                        <set attributeName="fill" to="#808080" begin="arrowUp.mouseover" end="arrowUp.mouseout"/>
                  </use>
                  <path fill="none" stroke="white" stroke-width="1.5" d="M0,-3.0v7 M-2.5,-0.5L0,-3.0L2.5,-0.5"/>
                </g>
                <g id="arrowRight" xlink:href="#dirArrow" transform="rotate(90) translate(36 -43)" onmousedown="handlePan(1,0)">
                  <use xlink:href="#rim" fill="#404040">
                        <set attributeName="fill" to="#808080" begin="arrowRight.mouseover" end="arrowRight.mouseout"/>
                  </use>
                  <path fill="none" stroke="white" stroke-width="1.5" d="M0,-3.0v7 M-2.5,-0.5L0,-3.0L2.5,-0.5"/>
                </g>
                <g id="arrowDown" xlink:href="#dirArrow" transform="rotate(180) translate(-30 -48)" onmousedown="handlePan(0,1)">
                  <use xlink:href="#rim" fill="#404040">
                        <set attributeName="fill" to="#808080" begin="arrowDown.mouseover" end="arrowDown.mouseout"/>
                  </use>
                  <path fill="none" stroke="white" stroke-width="1.5" d="M0,-3.0v7 M-2.5,-0.5L0,-3.0L2.5,-0.5"/>
                </g>
                <g id="arrowLeft" xlink:href="#dirArrow" transform="rotate(270) translate(-36 17)" onmousedown="handlePan(-1,0)">
                  <use xlink:href="#rim" fill="#404040">
                        <set attributeName="fill" to="#808080" begin="arrowLeft.mouseover" end="arrowLeft.mouseout"/>
                  </use>
                  <path fill="none" stroke="white" stroke-width="1.5" d="M0,-3.0v7 M-2.5,-0.5L0,-3.0L2.5,-0.5"/>
                </g>
        </g>
        <svg viewBox="0 0 15 15" width="100%" height="30px" preserveAspectRatio="xMaxYMin meet">
         <g id="arrow_out" transform="scale(0.3 0.3)">
          <a xlink:href="interfaceparser_1_1_tree_wrapper_abf33b5a3ce13b389b9f69be49b18b998_icgraph_org.svg" target="_base">
           <rect id="button" ry="5" rx="5" y="6" x="6" height="38" width="38"
                fill="#f2f5e9" fill-opacity="0.5" stroke="#606060" stroke-width="1.0"/>
           <path id="arrow"
             d="M 11.500037,31.436501 C 11.940474,20.09759 22.043105,11.32322 32.158766,21.979434 L 37.068811,17.246167 C 37.068811,17.246167 37.088388,32 37.088388,32 L 22.160133,31.978069 C 22.160133,31.978069 26.997745,27.140456 26.997745,27.140456 C 18.528582,18.264221 13.291696,25.230495 11.500037,31.436501 z"
             style="fill:#404040;"/>
          </a>
         </g>
        </svg>
</svg>
