<?xml version="1.0" encoding="UTF-8" standalone="no"?>
<!DOCTYPE svg PUBLIC "-//W3C//DTD SVG 1.1//EN"
 "http://www.w3.org/Graphics/SVG/1.1/DTD/svg11.dtd">
<!-- Generated by graphviz version 2.36.0 (20140111.2315)
 -->
<!-- Title: command.turtle.XCoordinateCommand Pages: 1 -->
<svg width="249pt" height="176pt"
 viewBox="0.00 0.00 249.00 176.00" xmlns="http://www.w3.org/2000/svg" xmlns:xlink="http://www.w3.org/1999/xlink">
<g id="graph0" class="graph" transform="scale(1 1) rotate(0) translate(4 172)">
<title>command.turtle.XCoordinateCommand</title>
<polygon fill="white" stroke="none" points="-4,4 -4,-172 245,-172 245,4 -4,4"/>
<!-- Node1 -->
<g id="node1" class="node"><title>Node1</title>
<polygon fill="#bfbfbf" stroke="black" points="18.5,-1 18.5,-31 173.5,-31 173.5,-1 18.5,-1"/>
<text text-anchor="start" x="26.5" y="-19" font-family="Helvetica,sans-Serif" font-size="10.00">command.turtle.XCoordinate</text>
<text text-anchor="middle" x="96" y="-8" font-family="Helvetica,sans-Serif" font-size="10.00">Command</text>
</g>
<!-- Node2 -->
<g id="node2" class="node"><title>Node2</title>
<g id="a_node2"><a xlink:href="../../d7/d35/classcommand_1_1_command.html" target="_top" xlink:title="command.Command">
<polygon fill="white" stroke="black" points="-0.5,-80.5 -0.5,-99.5 118.5,-99.5 118.5,-80.5 -0.5,-80.5"/>
<text text-anchor="middle" x="59" y="-87.5" font-family="Helvetica,sans-Serif" font-size="10.00">command.Command</text>
</a>
</g>
</g>
<!-- Node2&#45;&gt;Node1 -->
<g id="edge1" class="edge"><title>Node2&#45;&gt;Node1</title>
<path fill="none" stroke="midnightblue" d="M68.1453,-71.2038C74.4775,-58.8816 82.7942,-42.6978 88.6865,-31.2316"/>
<polygon fill="midnightblue" stroke="midnightblue" points="64.8474,-69.9638 63.3897,-80.4579 71.0734,-73.1634 64.8474,-69.9638"/>
</g>
<!-- Node3 -->
<g id="node3" class="node"><title>Node3</title>
<g id="a_node3"><a xlink:href="../../d6/d34/classmodel_1_1_turtle.html" target="_top" xlink:title="model.Turtle">
<polygon fill="white" stroke="black" points="136.5,-80.5 136.5,-99.5 211.5,-99.5 211.5,-80.5 136.5,-80.5"/>
<text text-anchor="middle" x="174" y="-87.5" font-family="Helvetica,sans-Serif" font-size="10.00">model.Turtle</text>
</a>
</g>
</g>
<!-- Node3&#45;&gt;Node1 -->
<g id="edge2" class="edge"><title>Node3&#45;&gt;Node1</title>
<path fill="none" stroke="#9a32cd" stroke-dasharray="5,2" d="M157.076,-73.3783C143.494,-60.8406 124.585,-43.3858 111.418,-31.2316"/>
<polygon fill="#9a32cd" stroke="#9a32cd" points="155.024,-76.2469 164.746,-80.4579 159.772,-71.1033 155.024,-76.2469"/>
<text text-anchor="middle" x="166" y="-53.5" font-family="Helvetica,sans-Serif" font-size="10.00"> myTurtle</text>
</g>
<!-- Node4 -->
<g id="node4" class="node"><title>Node4</title>
<polygon fill="white" stroke="#bfbfbf" points="101.5,-148.5 101.5,-167.5 172.5,-167.5 172.5,-148.5 101.5,-148.5"/>
<text text-anchor="middle" x="137" y="-155.5" font-family="Helvetica,sans-Serif" font-size="10.00">Observable</text>
</g>
<!-- Node4&#45;&gt;Node3 -->
<g id="edge3" class="edge"><title>Node4&#45;&gt;Node3</title>
<path fill="none" stroke="midnightblue" d="M146.775,-139.563C153.941,-126.781 163.371,-109.96 169.044,-99.8411"/>
<polygon fill="midnightblue" stroke="midnightblue" points="143.674,-137.937 141.837,-148.372 149.78,-141.36 143.674,-137.937"/>
</g>
<!-- Node5 -->
<g id="node5" class="node"><title>Node5</title>
<polygon fill="white" stroke="#bfbfbf" points="190.5,-148.5 190.5,-167.5 231.5,-167.5 231.5,-148.5 190.5,-148.5"/>
<text text-anchor="middle" x="211" y="-155.5" font-family="Helvetica,sans-Serif" font-size="10.00">Color</text>
</g>
<!-- Node5&#45;&gt;Node3 -->
<g id="edge4" class="edge"><title>Node5&#45;&gt;Node3</title>
<path fill="none" stroke="#9a32cd" stroke-dasharray="5,2" d="M201.225,-139.563C194.059,-126.781 184.629,-109.96 178.956,-99.8411"/>
<polygon fill="#9a32cd" stroke="#9a32cd" points="198.22,-141.36 206.163,-148.372 204.326,-137.937 198.22,-141.36"/>
<text text-anchor="middle" x="218" y="-121.5" font-family="Helvetica,sans-Serif" font-size="10.00"> penColor</text>
</g>
</g>
</svg>
