<?xml version="1.0" encoding="UTF-8" standalone="no"?>
<!DOCTYPE svg PUBLIC "-//W3C//DTD SVG 1.1//EN"
 "http://www.w3.org/Graphics/SVG/1.1/DTD/svg11.dtd">
<!-- Generated by graphviz version 2.36.0 (20140111.2315)
 -->
<!-- Title: parser.CommandCase Pages: 1 -->
<svg width="656pt" height="236pt"
 viewBox="0.00 0.00 656.00 236.00" xmlns="http://www.w3.org/2000/svg" xmlns:xlink="http://www.w3.org/1999/xlink">
<g id="graph0" class="graph" transform="scale(1 1) rotate(0) translate(4 232)">
<title>parser.CommandCase</title>
<polygon fill="white" stroke="none" points="-4,4 -4,-232 652,-232 652,4 -4,4"/>
<!-- Node1 -->
<g id="node1" class="node"><title>Node1</title>
<polygon fill="#bfbfbf" stroke="black" points="524,-101.5 524,-120.5 648,-120.5 648,-101.5 524,-101.5"/>
<text text-anchor="middle" x="586" y="-108.5" font-family="Helvetica,sans-Serif" font-size="10.00">parser.CommandCase</text>
</g>
<!-- Node2 -->
<g id="node2" class="node"><title>Node2</title>
<g id="a_node2"><a xlink:href="../../d7/d32/interfaceparser_1_1_cases.html" target="_top" xlink:title="parser.Cases">
<polygon fill="white" stroke="black" points="275.5,-208.5 275.5,-227.5 354.5,-227.5 354.5,-208.5 275.5,-208.5"/>
<text text-anchor="middle" x="315" y="-215.5" font-family="Helvetica,sans-Serif" font-size="10.00">parser.Cases</text>
</a>
</g>
</g>
<!-- Node2&#45;&gt;Node1 -->
<g id="edge1" class="edge"><title>Node2&#45;&gt;Node1</title>
<path fill="none" stroke="midnightblue" d="M364.457,-213.624C404.133,-208.583 460.873,-197.967 506,-176 535.064,-161.852 562.732,-134.968 576.299,-120.607"/>
<polygon fill="midnightblue" stroke="midnightblue" points="364.015,-210.152 354.503,-214.818 364.849,-217.102 364.015,-210.152"/>
</g>
<!-- Node3 -->
<g id="node3" class="node"><title>Node3</title>
<polygon fill="white" stroke="#bfbfbf" points="259,-159 259,-189 371,-189 371,-159 259,-159"/>
<text text-anchor="start" x="267" y="-177" font-family="Helvetica,sans-Serif" font-size="10.00">List&lt; Entry&lt; String,</text>
<text text-anchor="middle" x="315" y="-166" font-family="Helvetica,sans-Serif" font-size="10.00"> Pattern &gt; &gt;</text>
</g>
<!-- Node3&#45;&gt;Node1 -->
<g id="edge2" class="edge"><title>Node3&#45;&gt;Node1</title>
<path fill="none" stroke="#9a32cd" stroke-dasharray="5,2" d="M381.519,-164.559C418.404,-158.59 465.128,-149.934 506,-139 524.836,-133.961 545.598,-126.526 561.109,-120.583"/>
<polygon fill="#9a32cd" stroke="#9a32cd" points="380.715,-161.143 371.389,-166.171 381.815,-168.056 380.715,-161.143"/>
<text text-anchor="middle" x="456" y="-164" font-family="Helvetica,sans-Serif" font-size="10.00"> languagePatternList</text>
</g>
<!-- Node4 -->
<g id="node4" class="node"><title>Node4</title>
<polygon fill="white" stroke="#bfbfbf" points="251.5,-120.5 251.5,-139.5 378.5,-139.5 378.5,-120.5 251.5,-120.5"/>
<text text-anchor="middle" x="315" y="-127.5" font-family="Helvetica,sans-Serif" font-size="10.00">Map&lt; String, String[]&gt;</text>
</g>
<!-- Node4&#45;&gt;Node1 -->
<g id="edge3" class="edge"><title>Node4&#45;&gt;Node1</title>
<path fill="none" stroke="#9a32cd" stroke-dasharray="5,2" d="M388.933,-124.849C431.086,-121.871 483.526,-118.167 523.565,-115.339"/>
<polygon fill="#9a32cd" stroke="#9a32cd" points="388.458,-121.373 378.729,-125.569 388.951,-128.356 388.458,-121.373"/>
<text text-anchor="middle" x="456" y="-127" font-family="Helvetica,sans-Serif" font-size="10.00"> parametersMap</text>
</g>
<!-- Node5 -->
<g id="node5" class="node"><title>Node5</title>
<polygon fill="white" stroke="#bfbfbf" points="273,-81.5 273,-100.5 357,-100.5 357,-81.5 273,-81.5"/>
<text text-anchor="middle" x="315" y="-88.5" font-family="Helvetica,sans-Serif" font-size="10.00">List&lt; String &gt;</text>
</g>
<!-- Node5&#45;&gt;Node1 -->
<g id="edge4" class="edge"><title>Node5&#45;&gt;Node1</title>
<path fill="none" stroke="#9a32cd" stroke-dasharray="5,2" d="M367.714,-87.5591C406.041,-85.8425 459.474,-85.2022 506,-91 522.286,-93.0295 540.033,-97.3262 554.573,-101.419"/>
<polygon fill="#9a32cd" stroke="#9a32cd" points="367.139,-84.0829 357.322,-88.0673 367.481,-91.0745 367.139,-84.0829"/>
<text text-anchor="middle" x="456" y="-105" font-family="Helvetica,sans-Serif" font-size="10.00"> myInput</text>
<text text-anchor="middle" x="456" y="-94" font-family="Helvetica,sans-Serif" font-size="10.00">methodList</text>
</g>
<!-- Node6 -->
<g id="node6" class="node"><title>Node6</title>
<g id="a_node6"><a xlink:href="../../d9/dc0/interfaceparser_1_1_tree_wrapper.html" target="_top" xlink:title="parser.TreeWrapper">
<polygon fill="white" stroke="black" points="261,-43.5 261,-62.5 369,-62.5 369,-43.5 261,-43.5"/>
<text text-anchor="middle" x="315" y="-50.5" font-family="Helvetica,sans-Serif" font-size="10.00">parser.TreeWrapper</text>
</a>
</g>
</g>
<!-- Node6&#45;&gt;Node1 -->
<g id="edge5" class="edge"><title>Node6&#45;&gt;Node1</title>
<path fill="none" stroke="#9a32cd" stroke-dasharray="5,2" d="M379.637,-53.6946C417.054,-55.4942 464.928,-60.2287 506,-72 529.379,-78.7004 554.191,-92.1222 569.638,-101.331"/>
<polygon fill="#9a32cd" stroke="#9a32cd" points="379.514,-50.1864 369.375,-53.2615 379.218,-57.1802 379.514,-50.1864"/>
<text text-anchor="middle" x="456" y="-75" font-family="Helvetica,sans-Serif" font-size="10.00"> wrapper</text>
</g>
<!-- Node7 -->
<g id="node7" class="node"><title>Node7</title>
<g id="a_node7"><a xlink:href="../../dc/d9e/classparser_1_1_command_tree_node.html" target="_top" xlink:title="parser.CommandTreeNode">
<polygon fill="white" stroke="black" points="242.5,-5.5 242.5,-24.5 387.5,-24.5 387.5,-5.5 242.5,-5.5"/>
<text text-anchor="middle" x="315" y="-12.5" font-family="Helvetica,sans-Serif" font-size="10.00">parser.CommandTreeNode</text>
</a>
</g>
</g>
<!-- Node7&#45;&gt;Node1 -->
<g id="edge6" class="edge"><title>Node7&#45;&gt;Node1</title>
<path fill="none" stroke="#9a32cd" stroke-dasharray="5,2" d="M397.883,-15.763C432.537,-18.6919 472.543,-25.6341 506,-41 536.974,-55.2252 564.642,-85.7319 577.458,-101.352"/>
<polygon fill="#9a32cd" stroke="#9a32cd" points="398.022,-12.2637 387.789,-15.0087 397.5,-19.2442 398.022,-12.2637"/>
<text text-anchor="middle" x="456" y="-44" font-family="Helvetica,sans-Serif" font-size="10.00"> myRoot</text>
</g>
<!-- Node8 -->
<g id="node8" class="node"><title>Node8</title>
<polygon fill="white" stroke="#bfbfbf" points="0.5,-0 0.5,-30 147.5,-30 147.5,-0 0.5,-0"/>
<text text-anchor="start" x="8.5" y="-18" font-family="Helvetica,sans-Serif" font-size="10.00">List&lt; parser.CommandTree</text>
<text text-anchor="middle" x="74" y="-7" font-family="Helvetica,sans-Serif" font-size="10.00">Node &gt;</text>
</g>
<!-- Node8&#45;&gt;Node7 -->
<g id="edge7" class="edge"><title>Node8&#45;&gt;Node7</title>
<path fill="none" stroke="#9a32cd" stroke-dasharray="5,2" d="M157.706,-15C185.307,-15 215.81,-15 242.486,-15"/>
<polygon fill="#9a32cd" stroke="#9a32cd" points="157.681,-11.5001 147.681,-15 157.681,-18.5001 157.681,-11.5001"/>
<text text-anchor="middle" x="195" y="-18" font-family="Helvetica,sans-Serif" font-size="10.00"> myChildren</text>
</g>
</g>
</svg>
