<?xml version="1.0" encoding="UTF-8" standalone="no"?>
<!DOCTYPE svg PUBLIC "-//W3C//DTD SVG 1.1//EN"
 "http://www.w3.org/Graphics/SVG/1.1/DTD/svg11.dtd">
<!-- Generated by graphviz version 2.36.0 (20140111.2315)
 -->
<!-- Title: ui.GUI.parseCommand Pages: 1 -->
<svg width="1434pt" height="729pt"
 viewBox="0.00 0.00 1434.00 729.00" xmlns="http://www.w3.org/2000/svg" xmlns:xlink="http://www.w3.org/1999/xlink">
<g id="graph0" class="graph" transform="scale(1 1) rotate(0) translate(4 725)">
<title>ui.GUI.parseCommand</title>
<polygon fill="white" stroke="none" points="-4,4 -4,-725 1430,-725 1430,4 -4,4"/>
<!-- Node1 -->
<g id="node1" class="node"><title>Node1</title>
<polygon fill="#bfbfbf" stroke="black" points="0.5,-274.5 0.5,-293.5 125.5,-293.5 125.5,-274.5 0.5,-274.5"/>
<text text-anchor="middle" x="63" y="-281.5" font-family="Helvetica,sans-Serif" font-size="10.00">ui.GUI.parseCommand</text>
</g>
<!-- Node2 -->
<g id="node2" class="node"><title>Node2</title>
<g id="a_node2"><a xlink:href="../../d8/d3c/classui_1_1elements_1_1_i_o_element.html#a3b1244fbac1fbbee1183143097b1e4ef" target="_top" xlink:title="ui.elements.IOElement.get\lInputField">
<polygon fill="white" stroke="black" points="179,-318 179,-348 323,-348 323,-318 179,-318"/>
<text text-anchor="start" x="187" y="-336" font-family="Helvetica,sans-Serif" font-size="10.00">ui.elements.IOElement.get</text>
<text text-anchor="middle" x="251" y="-325" font-family="Helvetica,sans-Serif" font-size="10.00">InputField</text>
</a>
</g>
</g>
<!-- Node1&#45;&gt;Node2 -->
<g id="edge1" class="edge"><title>Node1&#45;&gt;Node2</title>
<path fill="none" stroke="midnightblue" d="M100.304,-293.564C123.852,-299.768 155.243,-308.037 183.196,-315.401"/>
<polygon fill="midnightblue" stroke="midnightblue" points="182.359,-318.8 192.921,-317.963 184.142,-312.031 182.359,-318.8"/>
</g>
<!-- Node3 -->
<g id="node3" class="node"><title>Node3</title>
<g id="a_node3"><a xlink:href="../../d0/de6/classui_1_1elements_1_1_menu_bar_element.html#a28a30430354b4041a06e38088c201802" target="_top" xlink:title="ui.elements.MenuBarElement.get\lSelectedLanguage">
<polygon fill="white" stroke="black" points="162.5,-269 162.5,-299 339.5,-299 339.5,-269 162.5,-269"/>
<text text-anchor="start" x="170.5" y="-287" font-family="Helvetica,sans-Serif" font-size="10.00">ui.elements.MenuBarElement.get</text>
<text text-anchor="middle" x="251" y="-276" font-family="Helvetica,sans-Serif" font-size="10.00">SelectedLanguage</text>
</a>
</g>
</g>
<!-- Node1&#45;&gt;Node3 -->
<g id="edge2" class="edge"><title>Node1&#45;&gt;Node3</title>
<path fill="none" stroke="midnightblue" d="M125.677,-284C134.205,-284 143.132,-284 152.119,-284"/>
<polygon fill="midnightblue" stroke="midnightblue" points="152.274,-287.5 162.274,-284 152.274,-280.5 152.274,-287.5"/>
</g>
<!-- Node4 -->
<g id="node4" class="node"><title>Node4</title>
<g id="a_node4"><a xlink:href="../../d5/d06/classui_1_1_scene_updater.html#ab77a04f8b0038429b09237aac18906e8" target="_top" xlink:title="ui.SceneUpdater.sendCommands">
<polygon fill="white" stroke="black" points="162,-230.5 162,-249.5 340,-249.5 340,-230.5 162,-230.5"/>
<text text-anchor="middle" x="251" y="-237.5" font-family="Helvetica,sans-Serif" font-size="10.00">ui.SceneUpdater.sendCommands</text>
</a>
</g>
</g>
<!-- Node1&#45;&gt;Node4 -->
<g id="edge3" class="edge"><title>Node1&#45;&gt;Node4</title>
<path fill="none" stroke="midnightblue" d="M100.223,-274.418C118.675,-269.623 141.49,-263.828 162,-259 172.376,-256.557 183.47,-254.067 194.162,-251.729"/>
<polygon fill="midnightblue" stroke="midnightblue" points="195.223,-255.08 204.254,-249.54 193.739,-248.239 195.223,-255.08"/>
</g>
<!-- Node5 -->
<g id="node5" class="node"><title>Node5</title>
<g id="a_node5"><a xlink:href="../../d9/df7/classcontroller_1_1_controller.html#a3d81fb1a57114f96fb6c319f4c5df370" target="_top" xlink:title="controller.Controller.parse\lCommand">
<polygon fill="white" stroke="black" points="376,-225 376,-255 516,-255 516,-225 376,-225"/>
<text text-anchor="start" x="384" y="-243" font-family="Helvetica,sans-Serif" font-size="10.00">controller.Controller.parse</text>
<text text-anchor="middle" x="446" y="-232" font-family="Helvetica,sans-Serif" font-size="10.00">Command</text>
</a>
</g>
</g>
<!-- Node4&#45;&gt;Node5 -->
<g id="edge4" class="edge"><title>Node4&#45;&gt;Node5</title>
<path fill="none" stroke="midnightblue" d="M340.028,-240C348.581,-240 357.222,-240 365.682,-240"/>
<polygon fill="midnightblue" stroke="midnightblue" points="365.892,-243.5 375.892,-240 365.892,-236.5 365.892,-243.5"/>
</g>
<!-- Node6 -->
<g id="node6" class="node"><title>Node6</title>
<g id="a_node6"><a xlink:href="../../d5/d06/classui_1_1_scene_updater.html#ac93c2b014447efef3a09141521fb4d9e" target="_top" xlink:title="ui.SceneUpdater.addCommand\lHistory">
<polygon fill="white" stroke="black" points="560.5,-570 560.5,-600 727.5,-600 727.5,-570 560.5,-570"/>
<text text-anchor="start" x="568.5" y="-588" font-family="Helvetica,sans-Serif" font-size="10.00">ui.SceneUpdater.addCommand</text>
<text text-anchor="middle" x="644" y="-577" font-family="Helvetica,sans-Serif" font-size="10.00">History</text>
</a>
</g>
</g>
<!-- Node5&#45;&gt;Node6 -->
<g id="edge5" class="edge"><title>Node5&#45;&gt;Node6</title>
<path fill="none" stroke="midnightblue" d="M450.92,-255.106C462.05,-296.206 496.665,-412.493 552,-495 569.731,-521.438 596.115,-546.471 615.915,-563.392"/>
<polygon fill="midnightblue" stroke="midnightblue" points="613.773,-566.163 623.684,-569.906 618.27,-560.799 613.773,-566.163"/>
</g>
<!-- Node10 -->
<g id="node10" class="node"><title>Node10</title>
<g id="a_node10"><a xlink:href="../../d0/d05/classparser_1_1_tree_generator.html#acf44e3a80bec76756c2bb09124dc4c8d" target="_top" xlink:title="parser.TreeGenerator.create\lCommands">
<polygon fill="white" stroke="black" points="568.5,-456 568.5,-486 719.5,-486 719.5,-456 568.5,-456"/>
<text text-anchor="start" x="576.5" y="-474" font-family="Helvetica,sans-Serif" font-size="10.00">parser.TreeGenerator.create</text>
<text text-anchor="middle" x="644" y="-463" font-family="Helvetica,sans-Serif" font-size="10.00">Commands</text>
</a>
</g>
</g>
<!-- Node5&#45;&gt;Node10 -->
<g id="edge9" class="edge"><title>Node5&#45;&gt;Node10</title>
<path fill="none" stroke="midnightblue" d="M459.86,-255.157C493.363,-294.642 583.495,-400.869 623.46,-447.97"/>
<polygon fill="midnightblue" stroke="midnightblue" points="620.954,-450.427 630.093,-455.788 626.292,-445.898 620.954,-450.427"/>
</g>
<!-- Node23 -->
<g id="node23" class="node"><title>Node23</title>
<g id="a_node23"><a xlink:href="../../d0/d05/classparser_1_1_tree_generator.html#a6b0c994d90d372250a24f81f439de007" target="_top" xlink:title="parser.TreeGenerator.get\lMethodsList">
<polygon fill="white" stroke="black" points="576,-250 576,-280 712,-280 712,-250 576,-250"/>
<text text-anchor="start" x="584" y="-268" font-family="Helvetica,sans-Serif" font-size="10.00">parser.TreeGenerator.get</text>
<text text-anchor="middle" x="644" y="-257" font-family="Helvetica,sans-Serif" font-size="10.00">MethodsList</text>
</a>
</g>
</g>
<!-- Node5&#45;&gt;Node23 -->
<g id="edge23" class="edge"><title>Node5&#45;&gt;Node23</title>
<path fill="none" stroke="midnightblue" d="M516.102,-248.814C532.166,-250.863 549.367,-253.057 565.757,-255.148"/>
<polygon fill="midnightblue" stroke="midnightblue" points="565.477,-258.64 575.839,-256.434 566.363,-251.696 565.477,-258.64"/>
</g>
<!-- Node25 -->
<g id="node25" class="node"><title>Node25</title>
<g id="a_node25"><a xlink:href="../../dc/d9e/classparser_1_1_command_tree_node.html#aea6176c10780becfc79a23924bb6fdc2" target="_top" xlink:title="parser.CommandTreeNode.get\lValue">
<polygon fill="white" stroke="black" points="562,-201 562,-231 726,-231 726,-201 562,-201"/>
<text text-anchor="start" x="570" y="-219" font-family="Helvetica,sans-Serif" font-size="10.00">parser.CommandTreeNode.get</text>
<text text-anchor="middle" x="644" y="-208" font-family="Helvetica,sans-Serif" font-size="10.00">Value</text>
</a>
</g>
</g>
<!-- Node5&#45;&gt;Node25 -->
<g id="edge25" class="edge"><title>Node5&#45;&gt;Node25</title>
<path fill="none" stroke="midnightblue" d="M516.102,-231.538C527.64,-230.126 539.765,-228.641 551.755,-227.173"/>
<polygon fill="midnightblue" stroke="midnightblue" points="552.278,-230.635 561.778,-225.946 551.427,-223.687 552.278,-230.635"/>
</g>
<!-- Node26 -->
<g id="node26" class="node"><title>Node26</title>
<g id="a_node26"><a xlink:href="../../d9/d88/classmodel_1_1_tree_interpreter.html#a501df6b8cfe1a8175a9da0ed96d30d6f" target="_top" xlink:title="model.TreeInterpreter.interpretTree">
<polygon fill="white" stroke="black" points="552.5,-162.5 552.5,-181.5 735.5,-181.5 735.5,-162.5 552.5,-162.5"/>
<text text-anchor="middle" x="644" y="-169.5" font-family="Helvetica,sans-Serif" font-size="10.00">model.TreeInterpreter.interpretTree</text>
</a>
</g>
</g>
<!-- Node5&#45;&gt;Node26 -->
<g id="edge26" class="edge"><title>Node5&#45;&gt;Node26</title>
<path fill="none" stroke="midnightblue" d="M474.797,-224.869C495.554,-214.109 524.896,-200.019 552,-191 560.035,-188.326 568.599,-185.951 577.137,-183.863"/>
<polygon fill="midnightblue" stroke="midnightblue" points="578.168,-187.217 587.116,-181.544 576.583,-180.398 578.168,-187.217"/>
</g>
<!-- Node36 -->
<g id="node36" class="node"><title>Node36</title>
<g id="a_node36"><a xlink:href="../../d5/d06/classui_1_1_scene_updater.html#ab8b88b95b646266ee4a8ef3d77e4c3e3" target="_top" xlink:title="ui.SceneUpdater.setOutputText">
<polygon fill="white" stroke="black" points="561,-77.5 561,-96.5 727,-96.5 727,-77.5 561,-77.5"/>
<text text-anchor="middle" x="644" y="-84.5" font-family="Helvetica,sans-Serif" font-size="10.00">ui.SceneUpdater.setOutputText</text>
</a>
</g>
</g>
<!-- Node5&#45;&gt;Node36 -->
<g id="edge41" class="edge"><title>Node5&#45;&gt;Node36</title>
<path fill="none" stroke="midnightblue" d="M464.551,-224.868C485.175,-207.226 520.574,-177.375 552,-153 575.06,-135.114 602.228,-115.605 620.838,-102.471"/>
<polygon fill="midnightblue" stroke="midnightblue" points="623.063,-105.185 629.231,-96.5706 619.037,-99.4587 623.063,-105.185"/>
</g>
<!-- Node7 -->
<g id="node7" class="node"><title>Node7</title>
<g id="a_node7"><a xlink:href="../../dc/d3b/classui_1_1_g_u_i.html#a3c16c78e8d953dbf8ef41113ca03621e" target="_top" xlink:title="ui.GUI.addCommandHistory">
<polygon fill="white" stroke="black" points="797,-641.5 797,-660.5 947,-660.5 947,-641.5 797,-641.5"/>
<text text-anchor="middle" x="872" y="-648.5" font-family="Helvetica,sans-Serif" font-size="10.00">ui.GUI.addCommandHistory</text>
</a>
</g>
</g>
<!-- Node6&#45;&gt;Node7 -->
<g id="edge6" class="edge"><title>Node6&#45;&gt;Node7</title>
<path fill="none" stroke="midnightblue" d="M696.566,-600.059C736.339,-611.674 790.701,-627.55 828.112,-638.475"/>
<polygon fill="midnightblue" stroke="midnightblue" points="827.607,-641.974 838.188,-641.418 829.57,-635.255 827.607,-641.974"/>
</g>
<!-- Node8 -->
<g id="node8" class="node"><title>Node8</title>
<g id="a_node8"><a xlink:href="../../d6/dd8/classui_1_1elements_1_1_info_element.html#aa14d00daf19b5c3d7cd792c2590f23b3" target="_top" xlink:title="ui.elements.InfoElement.set\lBindCommandList">
<polygon fill="white" stroke="black" points="1026.5,-691 1026.5,-721 1177.5,-721 1177.5,-691 1026.5,-691"/>
<text text-anchor="start" x="1034.5" y="-709" font-family="Helvetica,sans-Serif" font-size="10.00">ui.elements.InfoElement.set</text>
<text text-anchor="middle" x="1102" y="-698" font-family="Helvetica,sans-Serif" font-size="10.00">BindCommandList</text>
</a>
</g>
</g>
<!-- Node7&#45;&gt;Node8 -->
<g id="edge7" class="edge"><title>Node7&#45;&gt;Node8</title>
<path fill="none" stroke="midnightblue" d="M912.454,-660.517C944.278,-668.194 989.903,-679.2 1028.3,-688.463"/>
<polygon fill="midnightblue" stroke="midnightblue" points="1027.86,-691.958 1038.41,-690.901 1029.51,-685.153 1027.86,-691.958"/>
</g>
<!-- Node9 -->
<g id="node9" class="node"><title>Node9</title>
<g id="a_node9"><a xlink:href="../../d6/dd8/classui_1_1elements_1_1_info_element.html#a54dbeca14ae734678154142637d3c4ab" target="_top" xlink:title="ui.elements.InfoElement.update">
<polygon fill="white" stroke="black" points="1244,-696.5 1244,-715.5 1414,-715.5 1414,-696.5 1244,-696.5"/>
<text text-anchor="middle" x="1329" y="-703.5" font-family="Helvetica,sans-Serif" font-size="10.00">ui.elements.InfoElement.update</text>
</a>
</g>
</g>
<!-- Node8&#45;&gt;Node9 -->
<g id="edge8" class="edge"><title>Node8&#45;&gt;Node9</title>
<path fill="none" stroke="midnightblue" d="M1177.61,-706C1195.61,-706 1215.07,-706 1233.84,-706"/>
<polygon fill="midnightblue" stroke="midnightblue" points="1233.88,-709.5 1243.88,-706 1233.88,-702.5 1233.88,-709.5"/>
</g>
<!-- Node11 -->
<g id="node11" class="node"><title>Node11</title>
<g id="a_node11"><a xlink:href="../../d0/d05/classparser_1_1_tree_generator.html#a6c5a626cea851fb68c59f83a27ab56a5" target="_top" xlink:title="parser.TreeGenerator.create\lHandlerMap">
<polygon fill="white" stroke="black" points="796.5,-500 796.5,-530 947.5,-530 947.5,-500 796.5,-500"/>
<text text-anchor="start" x="804.5" y="-518" font-family="Helvetica,sans-Serif" font-size="10.00">parser.TreeGenerator.create</text>
<text text-anchor="middle" x="872" y="-507" font-family="Helvetica,sans-Serif" font-size="10.00">HandlerMap</text>
</a>
</g>
</g>
<!-- Node10&#45;&gt;Node11 -->
<g id="edge10" class="edge"><title>Node10&#45;&gt;Node11</title>
<path fill="none" stroke="midnightblue" d="M719.627,-485.529C741.034,-489.697 764.527,-494.271 786.484,-498.546"/>
<polygon fill="midnightblue" stroke="midnightblue" points="785.967,-502.01 796.451,-500.486 787.304,-495.139 785.967,-502.01"/>
</g>
<!-- Node13 -->
<g id="node13" class="node"><title>Node13</title>
<g id="a_node13"><a xlink:href="../../dc/d9e/classparser_1_1_command_tree_node.html#a73e4ab6ebca47d41b993f0e66ee4c8d2" target="_top" xlink:title="parser.CommandTreeNode.getName">
<polygon fill="white" stroke="black" points="1232.5,-295.5 1232.5,-314.5 1425.5,-314.5 1425.5,-295.5 1232.5,-295.5"/>
<text text-anchor="middle" x="1329" y="-302.5" font-family="Helvetica,sans-Serif" font-size="10.00">parser.CommandTreeNode.getName</text>
</a>
</g>
</g>
<!-- Node10&#45;&gt;Node13 -->
<g id="edge12" class="edge"><title>Node10&#45;&gt;Node13</title>
<path fill="none" stroke="midnightblue" d="M672.148,-455.812C731.096,-423.724 876.126,-349.562 1008,-320 1078.17,-304.27 1159.09,-300.603 1222,-300.827"/>
<polygon fill="midnightblue" stroke="midnightblue" points="1222.31,-304.329 1232.34,-300.899 1222.36,-297.329 1222.31,-304.329"/>
</g>
<!-- Node14 -->
<g id="node14" class="node"><title>Node14</title>
<g id="a_node14"><a xlink:href="../../d5/d30/classparser_1_1_command_case.html#a416a33e71d0a91f9d167980ff9779119" target="_top" xlink:title="parser.CommandCase.getRoot">
<polygon fill="white" stroke="black" points="790,-549.5 790,-568.5 954,-568.5 954,-549.5 790,-549.5"/>
<text text-anchor="middle" x="872" y="-556.5" font-family="Helvetica,sans-Serif" font-size="10.00">parser.CommandCase.getRoot</text>
</a>
</g>
</g>
<!-- Node10&#45;&gt;Node14 -->
<g id="edge13" class="edge"><title>Node10&#45;&gt;Node14</title>
<path fill="none" stroke="midnightblue" d="M668.374,-486.222C693.146,-501.693 733.877,-525.28 772,-539 780.817,-542.173 790.266,-544.893 799.7,-547.21"/>
<polygon fill="midnightblue" stroke="midnightblue" points="798.966,-550.633 809.498,-549.482 800.547,-543.814 798.966,-550.633"/>
</g>
<!-- Node15 -->
<g id="node15" class="node"><title>Node15</title>
<g id="a_node15"><a xlink:href="../../d5/d30/classparser_1_1_command_case.html#a309ba0623929f8d96219c98de00023b0" target="_top" xlink:title="parser.CommandCase.initialize">
<polygon fill="white" stroke="black" points="789.5,-461.5 789.5,-480.5 954.5,-480.5 954.5,-461.5 789.5,-461.5"/>
<text text-anchor="middle" x="872" y="-468.5" font-family="Helvetica,sans-Serif" font-size="10.00">parser.CommandCase.initialize</text>
</a>
</g>
</g>
<!-- Node10&#45;&gt;Node15 -->
<g id="edge14" class="edge"><title>Node10&#45;&gt;Node15</title>
<path fill="none" stroke="midnightblue" d="M719.627,-471C738.678,-471 759.38,-471 779.182,-471"/>
<polygon fill="midnightblue" stroke="midnightblue" points="779.441,-474.5 789.441,-471 779.441,-467.5 779.441,-474.5"/>
</g>
<!-- Node12 -->
<g id="node12" class="node"><title>Node12</title>
<g id="a_node12"><a xlink:href="../../d0/d22/classutil_1_1_pattern_mapper.html#a257efa051dc3d89b728922a22901fb7d" target="_top" xlink:title="util.PatternMapper.makePatterns">
<polygon fill="white" stroke="black" points="1015.5,-652.5 1015.5,-671.5 1188.5,-671.5 1188.5,-652.5 1015.5,-652.5"/>
<text text-anchor="middle" x="1102" y="-659.5" font-family="Helvetica,sans-Serif" font-size="10.00">util.PatternMapper.makePatterns</text>
</a>
</g>
</g>
<!-- Node11&#45;&gt;Node12 -->
<g id="edge11" class="edge"><title>Node11&#45;&gt;Node12</title>
<path fill="none" stroke="midnightblue" d="M947.932,-525.286C956.747,-528.888 965.058,-533.669 972,-540 1007.52,-572.395 971.911,-610.241 1008,-642 1010.34,-644.061 1012.84,-645.927 1015.47,-647.615"/>
<polygon fill="midnightblue" stroke="midnightblue" points="1013.79,-650.684 1024.24,-652.423 1017.15,-644.546 1013.79,-650.684"/>
</g>
<!-- Node15&#45;&gt;Node12 -->
<g id="edge17" class="edge"><title>Node15&#45;&gt;Node12</title>
<path fill="none" stroke="midnightblue" d="M954.73,-479.281C961.07,-482.289 966.955,-486.127 972,-491 1021.62,-538.931 958.676,-593.76 1008,-642 1009.73,-643.689 1011.56,-645.25 1013.48,-646.692"/>
<polygon fill="midnightblue" stroke="midnightblue" points="1012.08,-649.947 1022.42,-652.286 1015.8,-644.013 1012.08,-649.947"/>
</g>
<!-- Node16 -->
<g id="node16" class="node"><title>Node16</title>
<g id="a_node16"><a xlink:href="../../d9/dc0/interfaceparser_1_1_tree_wrapper.html#abf33b5a3ce13b389b9f69be49b18b998" target="_top" xlink:title="parser.TreeWrapper.getIndex">
<polygon fill="white" stroke="black" points="1026,-329.5 1026,-348.5 1178,-348.5 1178,-329.5 1026,-329.5"/>
<text text-anchor="middle" x="1102" y="-336.5" font-family="Helvetica,sans-Serif" font-size="10.00">parser.TreeWrapper.getIndex</text>
</a>
</g>
</g>
<!-- Node15&#45;&gt;Node16 -->
<g id="edge15" class="edge"><title>Node15&#45;&gt;Node16</title>
<path fill="none" stroke="midnightblue" d="M881.353,-461.288C900.998,-439.125 952.661,-384.679 1008,-358 1013.01,-355.585 1018.32,-353.476 1023.75,-351.635"/>
<polygon fill="midnightblue" stroke="midnightblue" points="1025.11,-354.88 1033.64,-348.602 1023.05,-348.188 1025.11,-354.88"/>
</g>
<!-- Node17 -->
<g id="node17" class="node"><title>Node17</title>
<g id="a_node17"><a xlink:href="../../d9/dc0/interfaceparser_1_1_tree_wrapper.html#a251d9d9bb7c3ea34688bfa30cc465270" target="_top" xlink:title="parser.TreeWrapper.increment\lIndex">
<polygon fill="white" stroke="black" points="1022.5,-603 1022.5,-633 1181.5,-633 1181.5,-603 1022.5,-603"/>
<text text-anchor="start" x="1030.5" y="-621" font-family="Helvetica,sans-Serif" font-size="10.00">parser.TreeWrapper.increment</text>
<text text-anchor="middle" x="1102" y="-610" font-family="Helvetica,sans-Serif" font-size="10.00">Index</text>
</a>
</g>
</g>
<!-- Node15&#45;&gt;Node17 -->
<g id="edge16" class="edge"><title>Node15&#45;&gt;Node17</title>
<path fill="none" stroke="midnightblue" d="M954.68,-480.08C960.951,-482.931 966.838,-486.514 972,-491 1008.29,-522.533 972.728,-560.335 1008,-593 1009.74,-594.615 1011.58,-596.128 1013.5,-597.545"/>
<polygon fill="midnightblue" stroke="midnightblue" points="1012.02,-600.755 1022.34,-603.164 1015.78,-594.847 1012.02,-600.755"/>
</g>
<!-- Node18 -->
<g id="node18" class="node"><title>Node18</title>
<g id="a_node18"><a xlink:href="../../d5/d30/classparser_1_1_command_case.html#a7c49338f11e46369db6a009f6a07a837" target="_top" xlink:title="parser.CommandCase.obtain\lNumParams">
<polygon fill="white" stroke="black" points="1023.5,-554 1023.5,-584 1180.5,-584 1180.5,-554 1023.5,-554"/>
<text text-anchor="start" x="1031.5" y="-572" font-family="Helvetica,sans-Serif" font-size="10.00">parser.CommandCase.obtain</text>
<text text-anchor="middle" x="1102" y="-561" font-family="Helvetica,sans-Serif" font-size="10.00">NumParams</text>
</a>
</g>
</g>
<!-- Node15&#45;&gt;Node18 -->
<g id="edge18" class="edge"><title>Node15&#45;&gt;Node18</title>
<path fill="none" stroke="midnightblue" d="M950.76,-480.551C958.272,-483.257 965.502,-486.68 972,-491 995.713,-506.765 984.797,-527.492 1008,-544 1010.72,-545.938 1013.59,-547.727 1016.56,-549.376"/>
<polygon fill="midnightblue" stroke="midnightblue" points="1015.23,-552.62 1025.74,-553.92 1018.33,-546.347 1015.23,-552.62"/>
</g>
<!-- Node19 -->
<g id="node19" class="node"><title>Node19</title>
<g id="a_node19"><a xlink:href="../../d5/d30/classparser_1_1_command_case.html#a37b719ff1e44b8c2539ec8a3d3dec65e" target="_top" xlink:title="parser.CommandCase.obtain\lSubCommand">
<polygon fill="white" stroke="black" points="1023.5,-505 1023.5,-535 1180.5,-535 1180.5,-505 1023.5,-505"/>
<text text-anchor="start" x="1031.5" y="-523" font-family="Helvetica,sans-Serif" font-size="10.00">parser.CommandCase.obtain</text>
<text text-anchor="middle" x="1102" y="-512" font-family="Helvetica,sans-Serif" font-size="10.00">SubCommand</text>
</a>
</g>
</g>
<!-- Node15&#45;&gt;Node19 -->
<g id="edge19" class="edge"><title>Node15&#45;&gt;Node19</title>
<path fill="none" stroke="midnightblue" d="M921.132,-480.505C937.312,-483.758 955.452,-487.469 972,-491 989.265,-494.684 1007.8,-498.772 1025.28,-502.688"/>
<polygon fill="midnightblue" stroke="midnightblue" points="1024.91,-506.192 1035.44,-504.97 1026.45,-499.363 1024.91,-506.192"/>
</g>
<!-- Node20 -->
<g id="node20" class="node"><title>Node20</title>
<g id="a_node20"><a xlink:href="../../d9/dc0/interfaceparser_1_1_tree_wrapper.html#a593548eb4ae82f686022f08f45908a1d" target="_top" xlink:title="parser.TreeWrapper.print\lTestStatements">
<polygon fill="white" stroke="black" points="1036,-456 1036,-486 1168,-486 1168,-456 1036,-456"/>
<text text-anchor="start" x="1044" y="-474" font-family="Helvetica,sans-Serif" font-size="10.00">parser.TreeWrapper.print</text>
<text text-anchor="middle" x="1102" y="-463" font-family="Helvetica,sans-Serif" font-size="10.00">TestStatements</text>
</a>
</g>
</g>
<!-- Node15&#45;&gt;Node20 -->
<g id="edge20" class="edge"><title>Node15&#45;&gt;Node20</title>
<path fill="none" stroke="midnightblue" d="M954.669,-471C977.828,-471 1002.93,-471 1025.69,-471"/>
<polygon fill="midnightblue" stroke="midnightblue" points="1025.97,-474.5 1035.97,-471 1025.97,-467.5 1025.97,-474.5"/>
</g>
<!-- Node21 -->
<g id="node21" class="node"><title>Node21</title>
<g id="a_node21"><a xlink:href="../../d9/dc0/interfaceparser_1_1_tree_wrapper.html#a48f9f037c84b1fecfdefcb3268640f88" target="_top" xlink:title="parser.TreeWrapper.recurse">
<polygon fill="white" stroke="black" points="1029,-417.5 1029,-436.5 1175,-436.5 1175,-417.5 1029,-417.5"/>
<text text-anchor="middle" x="1102" y="-424.5" font-family="Helvetica,sans-Serif" font-size="10.00">parser.TreeWrapper.recurse</text>
</a>
</g>
</g>
<!-- Node15&#45;&gt;Node21 -->
<g id="edge21" class="edge"><title>Node15&#45;&gt;Node21</title>
<path fill="none" stroke="midnightblue" d="M922.473,-461.453C957.429,-454.707 1004.46,-445.631 1041.47,-438.489"/>
<polygon fill="midnightblue" stroke="midnightblue" points="1042.47,-441.86 1051.62,-436.529 1041.14,-434.987 1042.47,-441.86"/>
</g>
<!-- Node22 -->
<g id="node22" class="node"><title>Node22</title>
<g id="a_node22"><a xlink:href="../../d5/d30/classparser_1_1_command_case.html#a9afa1f06d36261ade7169970904fabee" target="_top" xlink:title="parser.CommandCase.useResource\lBundle">
<polygon fill="white" stroke="black" points="1008,-368 1008,-398 1196,-398 1196,-368 1008,-368"/>
<text text-anchor="start" x="1016" y="-386" font-family="Helvetica,sans-Serif" font-size="10.00">parser.CommandCase.useResource</text>
<text text-anchor="middle" x="1102" y="-375" font-family="Helvetica,sans-Serif" font-size="10.00">Bundle</text>
</a>
</g>
</g>
<!-- Node15&#45;&gt;Node22 -->
<g id="edge22" class="edge"><title>Node15&#45;&gt;Node22</title>
<path fill="none" stroke="midnightblue" d="M890.915,-461.41C916.376,-448.068 964.747,-423.77 1008,-408 1014.8,-405.52 1021.97,-403.163 1029.17,-400.959"/>
<polygon fill="midnightblue" stroke="midnightblue" points="1030.4,-404.245 1039,-398.051 1028.42,-397.533 1030.4,-404.245"/>
</g>
<!-- Node24 -->
<g id="node24" class="node"><title>Node24</title>
<g id="a_node24"><a xlink:href="../../d5/d30/classparser_1_1_command_case.html#a0a36df1183543407fec197f435a5ba2c" target="_top" xlink:title="parser.CommandCase.getMethodsList">
<polygon fill="white" stroke="black" points="772,-253.5 772,-272.5 972,-272.5 972,-253.5 772,-253.5"/>
<text text-anchor="middle" x="872" y="-260.5" font-family="Helvetica,sans-Serif" font-size="10.00">parser.CommandCase.getMethodsList</text>
</a>
</g>
</g>
<!-- Node23&#45;&gt;Node24 -->
<g id="edge24" class="edge"><title>Node23&#45;&gt;Node24</title>
<path fill="none" stroke="midnightblue" d="M712.196,-264.405C727.712,-264.268 744.615,-264.118 761.417,-263.97"/>
<polygon fill="midnightblue" stroke="midnightblue" points="761.884,-267.466 771.853,-263.877 761.822,-260.466 761.884,-267.466"/>
</g>
<!-- Node27 -->
<g id="node27" class="node"><title>Node27</title>
<g id="a_node27"><a xlink:href="../../dc/d9e/classparser_1_1_command_tree_node.html#a2700486f6a49c0a080114bee6e51f271" target="_top" xlink:title="parser.CommandTreeNode.get\lChildren">
<polygon fill="white" stroke="black" points="790,-201 790,-231 954,-231 954,-201 790,-201"/>
<text text-anchor="start" x="798" y="-219" font-family="Helvetica,sans-Serif" font-size="10.00">parser.CommandTreeNode.get</text>
<text text-anchor="middle" x="872" y="-208" font-family="Helvetica,sans-Serif" font-size="10.00">Children</text>
</a>
</g>
</g>
<!-- Node26&#45;&gt;Node27 -->
<g id="edge27" class="edge"><title>Node26&#45;&gt;Node27</title>
<path fill="none" stroke="midnightblue" d="M694.039,-181.547C720.165,-186.634 753.093,-193.045 783.44,-198.953"/>
<polygon fill="midnightblue" stroke="midnightblue" points="783.134,-202.459 793.619,-200.935 784.472,-195.588 783.134,-202.459"/>
</g>
<!-- Node28 -->
<g id="node28" class="node"><title>Node28</title>
<g id="a_node28"><a xlink:href="../../dc/d9e/classparser_1_1_command_tree_node.html#a8bb8a112395f78809b0be06f1c3f5282" target="_top" xlink:title="parser.CommandTreeNode.getType">
<polygon fill="white" stroke="black" points="1236.5,-109.5 1236.5,-128.5 1421.5,-128.5 1421.5,-109.5 1236.5,-109.5"/>
<text text-anchor="middle" x="1329" y="-116.5" font-family="Helvetica,sans-Serif" font-size="10.00">parser.CommandTreeNode.getType</text>
</a>
</g>
</g>
<!-- Node26&#45;&gt;Node28 -->
<g id="edge28" class="edge"><title>Node26&#45;&gt;Node28</title>
<path fill="none" stroke="midnightblue" d="M704.029,-162.472C725.406,-159.206 749.758,-155.698 772,-153 876.577,-140.313 902.88,-137.865 1008,-131 1080.78,-126.247 1163.01,-123.214 1225.89,-121.386"/>
<polygon fill="midnightblue" stroke="midnightblue" points="1226.31,-124.876 1236.2,-121.092 1226.11,-117.878 1226.31,-124.876"/>
</g>
<!-- Node29 -->
<g id="node29" class="node"><title>Node29</title>
<g id="a_node29"><a xlink:href="../../d9/d88/classmodel_1_1_tree_interpreter.html#a3e460e5ebe66f781afb480f0f0ec2ce7" target="_top" xlink:title="model.TreeInterpreter.update">
<polygon fill="white" stroke="black" points="794,-162.5 794,-181.5 950,-181.5 950,-162.5 794,-162.5"/>
<text text-anchor="middle" x="872" y="-169.5" font-family="Helvetica,sans-Serif" font-size="10.00">model.TreeInterpreter.update</text>
</a>
</g>
</g>
<!-- Node26&#45;&gt;Node29 -->
<g id="edge29" class="edge"><title>Node26&#45;&gt;Node29</title>
<path fill="none" stroke="midnightblue" d="M735.621,-172C751.436,-172 767.861,-172 783.588,-172"/>
<polygon fill="midnightblue" stroke="midnightblue" points="783.809,-175.5 793.809,-172 783.809,-168.5 783.809,-175.5"/>
</g>
<!-- Node29&#45;&gt;Node13 -->
<g id="edge38" class="edge"><title>Node29&#45;&gt;Node13</title>
<path fill="none" stroke="midnightblue" d="M950.116,-180.721C957.835,-183.353 965.288,-186.715 972,-191 995.08,-205.735 984.977,-226.175 1008,-241 1028.84,-254.42 1170.73,-279.401 1258.43,-293.865"/>
<polygon fill="midnightblue" stroke="midnightblue" points="1257.88,-297.322 1268.32,-295.489 1259.02,-290.414 1257.88,-297.322"/>
</g>
<!-- Node29&#45;&gt;Node28 -->
<g id="edge39" class="edge"><title>Node29&#45;&gt;Node28</title>
<path fill="none" stroke="midnightblue" d="M950.185,-163.009C1029.25,-153.8 1152.14,-139.484 1236.16,-129.698"/>
<polygon fill="midnightblue" stroke="midnightblue" points="1236.68,-133.161 1246.21,-128.528 1235.87,-126.208 1236.68,-133.161"/>
</g>
<!-- Node30 -->
<g id="node30" class="node"><title>Node30</title>
<g id="a_node30"><a xlink:href="../../d9/d88/classmodel_1_1_tree_interpreter.html#af4d24e7867eb3a4a53f79f4a9288f9fd" target="_top" xlink:title="model.TreeInterpreter.execute\lCommand">
<polygon fill="white" stroke="black" points="1021.5,-202 1021.5,-232 1182.5,-232 1182.5,-202 1021.5,-202"/>
<text text-anchor="start" x="1029.5" y="-220" font-family="Helvetica,sans-Serif" font-size="10.00">model.TreeInterpreter.execute</text>
<text text-anchor="middle" x="1102" y="-209" font-family="Helvetica,sans-Serif" font-size="10.00">Command</text>
</a>
</g>
</g>
<!-- Node29&#45;&gt;Node30 -->
<g id="edge30" class="edge"><title>Node29&#45;&gt;Node30</title>
<path fill="none" stroke="midnightblue" d="M923.127,-181.527C938.785,-184.528 956.116,-187.875 972,-191 986.48,-193.849 1001.87,-196.915 1016.78,-199.908"/>
<polygon fill="midnightblue" stroke="midnightblue" points="1016.52,-203.425 1027.01,-201.965 1017.89,-196.562 1016.52,-203.425"/>
</g>
<!-- Node33 -->
<g id="node33" class="node"><title>Node33</title>
<g id="a_node33"><a xlink:href="../../dc/d9e/classparser_1_1_command_tree_node.html#a3d691b68da13689c03ebd9de665c379c" target="_top" xlink:title="parser.CommandTreeNode.set\lValue">
<polygon fill="white" stroke="black" points="1247.5,-148 1247.5,-178 1410.5,-178 1410.5,-148 1247.5,-148"/>
<text text-anchor="start" x="1255.5" y="-166" font-family="Helvetica,sans-Serif" font-size="10.00">parser.CommandTreeNode.set</text>
<text text-anchor="middle" x="1329" y="-155" font-family="Helvetica,sans-Serif" font-size="10.00">Value</text>
</a>
</g>
</g>
<!-- Node29&#45;&gt;Node33 -->
<g id="edge40" class="edge"><title>Node29&#45;&gt;Node33</title>
<path fill="none" stroke="midnightblue" d="M950.185,-170.473C1029.61,-168.902 1153.28,-166.456 1237.32,-164.794"/>
<polygon fill="midnightblue" stroke="midnightblue" points="1237.44,-168.292 1247.37,-164.595 1237.3,-161.293 1237.44,-168.292"/>
</g>
<!-- Node34 -->
<g id="node34" class="node"><title>Node34</title>
<g id="a_node34"><a xlink:href="../../db/d55/classmodel_1_1_variable_list.html#a09697cca38c12cf837ee40e71d02f78b" target="_top" xlink:title="model.VariableList.get">
<polygon fill="white" stroke="black" points="1040.5,-49.5 1040.5,-68.5 1163.5,-68.5 1163.5,-49.5 1040.5,-49.5"/>
<text text-anchor="middle" x="1102" y="-56.5" font-family="Helvetica,sans-Serif" font-size="10.00">model.VariableList.get</text>
</a>
</g>
</g>
<!-- Node29&#45;&gt;Node34 -->
<g id="edge36" class="edge"><title>Node29&#45;&gt;Node34</title>
<path fill="none" stroke="midnightblue" d="M892.439,-162.366C932.738,-142.393 1025.54,-96.3972 1072.57,-73.0884"/>
<polygon fill="midnightblue" stroke="midnightblue" points="1074.2,-76.1866 1081.61,-68.6099 1071.1,-69.9147 1074.2,-76.1866"/>
</g>
<!-- Node30&#45;&gt;Node13 -->
<g id="edge33" class="edge"><title>Node30&#45;&gt;Node13</title>
<path fill="none" stroke="midnightblue" d="M1162.47,-232.106C1174.05,-236.332 1185.76,-241.577 1196,-248 1215.43,-260.196 1211.89,-273.955 1232,-285 1237.11,-287.809 1242.58,-290.224 1248.21,-292.301"/>
<polygon fill="midnightblue" stroke="midnightblue" points="1247.22,-295.659 1257.81,-295.486 1249.42,-289.015 1247.22,-295.659"/>
</g>
<!-- Node30&#45;&gt;Node28 -->
<g id="edge34" class="edge"><title>Node30&#45;&gt;Node28</title>
<path fill="none" stroke="midnightblue" d="M1122.81,-201.744C1147.17,-183.753 1190.42,-154.246 1232,-138 1238.8,-135.343 1246.02,-133.043 1253.33,-131.055"/>
<polygon fill="midnightblue" stroke="midnightblue" points="1254.49,-134.374 1263.32,-128.533 1252.77,-127.587 1254.49,-134.374"/>
</g>
<!-- Node31 -->
<g id="node31" class="node"><title>Node31</title>
<g id="a_node31"><a xlink:href="../../db/d10/classmodel_1_1_command_factory.html#a3982ff8b4387b7e50c9ec4350ee01733" target="_top" xlink:title="model.CommandFactory.create\lCommand">
<polygon fill="white" stroke="black" points="1245.5,-246 1245.5,-276 1412.5,-276 1412.5,-246 1245.5,-246"/>
<text text-anchor="start" x="1253.5" y="-264" font-family="Helvetica,sans-Serif" font-size="10.00">model.CommandFactory.create</text>
<text text-anchor="middle" x="1329" y="-253" font-family="Helvetica,sans-Serif" font-size="10.00">Command</text>
</a>
</g>
</g>
<!-- Node30&#45;&gt;Node31 -->
<g id="edge31" class="edge"><title>Node30&#45;&gt;Node31</title>
<path fill="none" stroke="midnightblue" d="M1179.8,-232.019C1199.61,-235.892 1221.05,-240.086 1241.32,-244.049"/>
<polygon fill="midnightblue" stroke="midnightblue" points="1240.68,-247.489 1251.16,-245.974 1242.02,-240.62 1240.68,-247.489"/>
</g>
<!-- Node32 -->
<g id="node32" class="node"><title>Node32</title>
<g id="a_node32"><a xlink:href="../../d9/d88/classmodel_1_1_tree_interpreter.html#adc0cf2c5819ec7f42db4e37db51b1893" target="_top" xlink:title="model.TreeInterpreter.get\lConstructors">
<polygon fill="white" stroke="black" points="1260,-197 1260,-227 1398,-227 1398,-197 1260,-197"/>
<text text-anchor="start" x="1268" y="-215" font-family="Helvetica,sans-Serif" font-size="10.00">model.TreeInterpreter.get</text>
<text text-anchor="middle" x="1329" y="-204" font-family="Helvetica,sans-Serif" font-size="10.00">Constructors</text>
</a>
</g>
</g>
<!-- Node30&#45;&gt;Node32 -->
<g id="edge32" class="edge"><title>Node30&#45;&gt;Node32</title>
<path fill="none" stroke="midnightblue" d="M1182.64,-215.23C1204.36,-214.748 1227.87,-214.225 1249.52,-213.744"/>
<polygon fill="midnightblue" stroke="midnightblue" points="1249.73,-217.24 1259.65,-213.519 1249.58,-210.242 1249.73,-217.24"/>
</g>
<!-- Node30&#45;&gt;Node33 -->
<g id="edge35" class="edge"><title>Node30&#45;&gt;Node33</title>
<path fill="none" stroke="midnightblue" d="M1165.68,-201.958C1193.47,-195.286 1226.36,-187.393 1255.24,-180.463"/>
<polygon fill="midnightblue" stroke="midnightblue" points="1256.36,-183.792 1265.27,-178.055 1254.73,-176.985 1256.36,-183.792"/>
</g>
<!-- Node35 -->
<g id="node35" class="node"><title>Node35</title>
<g id="a_node35"><a xlink:href="../../db/d55/classmodel_1_1_variable_list.html#a0adb554303c7191db1da43ddb5fa2c45" target="_top" xlink:title="model.VariableList.add">
<polygon fill="white" stroke="black" points="1266.5,-49.5 1266.5,-68.5 1391.5,-68.5 1391.5,-49.5 1266.5,-49.5"/>
<text text-anchor="middle" x="1329" y="-56.5" font-family="Helvetica,sans-Serif" font-size="10.00">model.VariableList.add</text>
</a>
</g>
</g>
<!-- Node34&#45;&gt;Node35 -->
<g id="edge37" class="edge"><title>Node34&#45;&gt;Node35</title>
<path fill="none" stroke="midnightblue" d="M1163.59,-59C1192,-59 1226.07,-59 1255.8,-59"/>
<polygon fill="midnightblue" stroke="midnightblue" points="1256.12,-62.5001 1266.12,-59 1256.12,-55.5001 1256.12,-62.5001"/>
</g>
<!-- Node37 -->
<g id="node37" class="node"><title>Node37</title>
<g id="a_node37"><a xlink:href="../../dc/d3b/classui_1_1_g_u_i.html#a203fbe4e50ca1066c5c0ea8cc182adc4" target="_top" xlink:title="ui.GUI.setOutputText">
<polygon fill="white" stroke="black" points="814.5,-27.5 814.5,-46.5 929.5,-46.5 929.5,-27.5 814.5,-27.5"/>
<text text-anchor="middle" x="872" y="-34.5" font-family="Helvetica,sans-Serif" font-size="10.00">ui.GUI.setOutputText</text>
</a>
</g>
</g>
<!-- Node36&#45;&gt;Node37 -->
<g id="edge42" class="edge"><title>Node36&#45;&gt;Node37</title>
<path fill="none" stroke="midnightblue" d="M688.041,-77.4777C724.917,-69.3193 778.18,-57.5354 817.737,-48.784"/>
<polygon fill="midnightblue" stroke="midnightblue" points="818.727,-52.1495 827.735,-46.5719 817.215,-45.3147 818.727,-52.1495"/>
</g>
<!-- Node38 -->
<g id="node38" class="node"><title>Node38</title>
<g id="a_node38"><a xlink:href="../../d8/d3c/classui_1_1elements_1_1_i_o_element.html#a39ffe51bb8b4ef8ad25dd48e65c92ac6" target="_top" xlink:title="ui.elements.IOElement.get\lOutputField">
<polygon fill="white" stroke="black" points="1030,-0 1030,-30 1174,-30 1174,-0 1030,-0"/>
<text text-anchor="start" x="1038" y="-18" font-family="Helvetica,sans-Serif" font-size="10.00">ui.elements.IOElement.get</text>
<text text-anchor="middle" x="1102" y="-7" font-family="Helvetica,sans-Serif" font-size="10.00">OutputField</text>
</a>
</g>
</g>
<!-- Node37&#45;&gt;Node38 -->
<g id="edge43" class="edge"><title>Node37&#45;&gt;Node38</title>
<path fill="none" stroke="midnightblue" d="M929.652,-31.5335C956.905,-28.9039 990.071,-25.7037 1019.94,-22.8219"/>
<polygon fill="midnightblue" stroke="midnightblue" points="1020.31,-26.3025 1029.93,-21.8581 1019.64,-19.3348 1020.31,-26.3025"/>
</g>
</g>
</svg>
