<?xml version="1.0" encoding="UTF-8" standalone="no"?>
<!DOCTYPE svg PUBLIC "-//W3C//DTD SVG 1.1//EN"
 "http://www.w3.org/Graphics/SVG/1.1/DTD/svg11.dtd">
<!-- Generated by graphviz version 2.36.0 (20140111.2315)
 -->
<!-- Title: ui.GUI.initialize Pages: 1 -->
<svg width="1818pt" height="77pt"
 viewBox="0.00 0.00 1818.00 77.00" xmlns="http://www.w3.org/2000/svg" xmlns:xlink="http://www.w3.org/1999/xlink">
<g id="graph0" class="graph" transform="scale(1 1) rotate(0) translate(4 73)">
<title>ui.GUI.initialize</title>
<polygon fill="white" stroke="none" points="-4,4 -4,-73 1814,-73 1814,4 -4,4"/>
<!-- Node1 -->
<g id="node1" class="node"><title>Node1</title>
<polygon fill="#bfbfbf" stroke="black" points="0,-22.5 0,-41.5 86,-41.5 86,-22.5 0,-22.5"/>
<text text-anchor="middle" x="43" y="-29.5" font-family="Helvetica,sans-Serif" font-size="10.00">ui.GUI.initialize</text>
</g>
<!-- Node2 -->
<g id="node2" class="node"><title>Node2</title>
<g id="a_node2"><a xlink:href="../../d5/d06/classui_1_1_scene_updater.html#aeef5dd7a8ec2ad6179e33fdd71ea90d6" target="_top" xlink:title="ui.SceneUpdater.initGUI">
<polygon fill="white" stroke="black" points="122.5,-22.5 122.5,-41.5 253.5,-41.5 253.5,-22.5 122.5,-22.5"/>
<text text-anchor="middle" x="188" y="-29.5" font-family="Helvetica,sans-Serif" font-size="10.00">ui.SceneUpdater.initGUI</text>
</a>
</g>
</g>
<!-- Node1&#45;&gt;Node2 -->
<g id="edge1" class="edge"><title>Node1&#45;&gt;Node2</title>
<path fill="none" stroke="midnightblue" d="M96.2555,-32C104.744,-32 113.623,-32 122.364,-32"/>
<polygon fill="midnightblue" stroke="midnightblue" points="96.1313,-28.5001 86.1313,-32 96.1312,-35.5001 96.1313,-28.5001"/>
</g>
<!-- Node3 -->
<g id="node3" class="node"><title>Node3</title>
<g id="a_node3"><a xlink:href="../../d9/df7/classcontroller_1_1_controller.html#a57e42ba83ee2145e6262cd72eac59570" target="_top" xlink:title="controller.Controller.init">
<polygon fill="white" stroke="black" points="290.5,-22.5 290.5,-41.5 417.5,-41.5 417.5,-22.5 290.5,-22.5"/>
<text text-anchor="middle" x="354" y="-29.5" font-family="Helvetica,sans-Serif" font-size="10.00">controller.Controller.init</text>
</a>
</g>
</g>
<!-- Node2&#45;&gt;Node3 -->
<g id="edge2" class="edge"><title>Node2&#45;&gt;Node3</title>
<path fill="none" stroke="midnightblue" d="M264.038,-32C272.806,-32 281.682,-32 290.26,-32"/>
<polygon fill="midnightblue" stroke="midnightblue" points="263.817,-28.5001 253.817,-32 263.817,-35.5001 263.817,-28.5001"/>
</g>
<!-- Node4 -->
<g id="node4" class="node"><title>Node4</title>
<g id="a_node4"><a xlink:href="../../dd/df2/classmain_1_1_workspace_manager.html#abc818b59211f6e14940b86a42bb868d0" target="_top" xlink:title="main.WorkspaceManager.create\lWorkspace">
<polygon fill="white" stroke="black" points="454,-17 454,-47 624,-47 624,-17 454,-17"/>
<text text-anchor="start" x="462" y="-35" font-family="Helvetica,sans-Serif" font-size="10.00">main.WorkspaceManager.create</text>
<text text-anchor="middle" x="539" y="-24" font-family="Helvetica,sans-Serif" font-size="10.00">Workspace</text>
</a>
</g>
</g>
<!-- Node3&#45;&gt;Node4 -->
<g id="edge3" class="edge"><title>Node3&#45;&gt;Node4</title>
<path fill="none" stroke="midnightblue" d="M427.923,-32C436.392,-32 445.083,-32 453.689,-32"/>
<polygon fill="midnightblue" stroke="midnightblue" points="427.722,-28.5001 417.722,-32 427.722,-35.5001 427.722,-28.5001"/>
</g>
<!-- Node5 -->
<g id="node5" class="node"><title>Node5</title>
<g id="a_node5"><a xlink:href="../../d9/df7/classcontroller_1_1_controller.html#a3a9d672bb57047df70945ad1a9582c9a" target="_top" xlink:title="controller.Controller.create\lNewWorkspace">
<polygon fill="white" stroke="black" points="660.5,-39 660.5,-69 803.5,-69 803.5,-39 660.5,-39"/>
<text text-anchor="start" x="668.5" y="-57" font-family="Helvetica,sans-Serif" font-size="10.00">controller.Controller.create</text>
<text text-anchor="middle" x="732" y="-46" font-family="Helvetica,sans-Serif" font-size="10.00">NewWorkspace</text>
</a>
</g>
</g>
<!-- Node4&#45;&gt;Node5 -->
<g id="edge4" class="edge"><title>Node4&#45;&gt;Node5</title>
<path fill="none" stroke="midnightblue" d="M634.027,-42.8303C642.882,-43.8503 651.753,-44.8721 660.337,-45.8608"/>
<polygon fill="midnightblue" stroke="midnightblue" points="634.388,-39.3489 624.053,-41.6815 633.587,-46.3029 634.388,-39.3489"/>
</g>
<!-- Node11 -->
<g id="node11" class="node"><title>Node11</title>
<g id="a_node11"><a xlink:href="../../d1/d0b/classmain_1_1_main.html#a9f1e5657b2f6f9bdd69a3b6412ceda74" target="_top" xlink:title="main.Main.start">
<polygon fill="white" stroke="black" points="686,-0.5 686,-19.5 778,-19.5 778,-0.5 686,-0.5"/>
<text text-anchor="middle" x="732" y="-7.5" font-family="Helvetica,sans-Serif" font-size="10.00">main.Main.start</text>
</a>
</g>
</g>
<!-- Node4&#45;&gt;Node11 -->
<g id="edge10" class="edge"><title>Node4&#45;&gt;Node11</title>
<path fill="none" stroke="midnightblue" d="M634.086,-21.1629C652.187,-19.0779 670.356,-16.9851 685.991,-15.1843"/>
<polygon fill="midnightblue" stroke="midnightblue" points="633.587,-17.6971 624.053,-22.3185 634.388,-24.6511 633.587,-17.6971"/>
</g>
<!-- Node6 -->
<g id="node6" class="node"><title>Node6</title>
<g id="a_node6"><a xlink:href="../../d5/d06/classui_1_1_scene_updater.html#a2858ad8edb0c0f59a21e2ae015f2fa1e" target="_top" xlink:title="ui.SceneUpdater.createNew\lWorkspace">
<polygon fill="white" stroke="black" points="840,-39 840,-69 990,-69 990,-39 840,-39"/>
<text text-anchor="start" x="848" y="-57" font-family="Helvetica,sans-Serif" font-size="10.00">ui.SceneUpdater.createNew</text>
<text text-anchor="middle" x="915" y="-46" font-family="Helvetica,sans-Serif" font-size="10.00">Workspace</text>
</a>
</g>
</g>
<!-- Node5&#45;&gt;Node6 -->
<g id="edge5" class="edge"><title>Node5&#45;&gt;Node6</title>
<path fill="none" stroke="midnightblue" d="M813.805,-54C822.427,-54 831.168,-54 839.71,-54"/>
<polygon fill="midnightblue" stroke="midnightblue" points="813.757,-50.5001 803.757,-54 813.757,-57.5001 813.757,-50.5001"/>
</g>
<!-- Node7 -->
<g id="node7" class="node"><title>Node7</title>
<g id="a_node7"><a xlink:href="../../dc/d3b/classui_1_1_g_u_i.html#a2edc294ba07311e6c4b85c9fe749d1bf" target="_top" xlink:title="ui.GUI.createNewWorkspace">
<polygon fill="white" stroke="black" points="1026,-44.5 1026,-63.5 1176,-63.5 1176,-44.5 1026,-44.5"/>
<text text-anchor="middle" x="1101" y="-51.5" font-family="Helvetica,sans-Serif" font-size="10.00">ui.GUI.createNewWorkspace</text>
</a>
</g>
</g>
<!-- Node6&#45;&gt;Node7 -->
<g id="edge6" class="edge"><title>Node6&#45;&gt;Node7</title>
<path fill="none" stroke="midnightblue" d="M1000.07,-54C1008.65,-54 1017.34,-54 1025.81,-54"/>
<polygon fill="midnightblue" stroke="midnightblue" points="1000.04,-50.5001 990.044,-54 1000.04,-57.5001 1000.04,-50.5001"/>
</g>
<!-- Node8 -->
<g id="node8" class="node"><title>Node8</title>
<g id="a_node8"><a xlink:href="../../d0/de6/classui_1_1elements_1_1_menu_bar_element.html#a98c13995a31d997aa10f2950583da6cc" target="_top" xlink:title="ui.elements.MenuBarElement.make\lMenuBar">
<polygon fill="white" stroke="black" points="1212,-39 1212,-69 1400,-69 1400,-39 1212,-39"/>
<text text-anchor="start" x="1220" y="-57" font-family="Helvetica,sans-Serif" font-size="10.00">ui.elements.MenuBarElement.make</text>
<text text-anchor="middle" x="1306" y="-46" font-family="Helvetica,sans-Serif" font-size="10.00">MenuBar</text>
</a>
</g>
</g>
<!-- Node7&#45;&gt;Node8 -->
<g id="edge7" class="edge"><title>Node7&#45;&gt;Node8</title>
<path fill="none" stroke="midnightblue" d="M1186.28,-54C1194.66,-54 1203.21,-54 1211.68,-54"/>
<polygon fill="midnightblue" stroke="midnightblue" points="1186.15,-50.5001 1176.15,-54 1186.15,-57.5001 1186.15,-50.5001"/>
</g>
<!-- Node9 -->
<g id="node9" class="node"><title>Node9</title>
<g id="a_node9"><a xlink:href="../../d0/de6/classui_1_1elements_1_1_menu_bar_element.html#a7bdb58f78cf8b61ba28498c5c86ab682" target="_top" xlink:title="ui.elements.MenuBarElement.init">
<polygon fill="white" stroke="black" points="1436,-44.5 1436,-63.5 1612,-63.5 1612,-44.5 1436,-44.5"/>
<text text-anchor="middle" x="1524" y="-51.5" font-family="Helvetica,sans-Serif" font-size="10.00">ui.elements.MenuBarElement.init</text>
</a>
</g>
</g>
<!-- Node8&#45;&gt;Node9 -->
<g id="edge8" class="edge"><title>Node8&#45;&gt;Node9</title>
<path fill="none" stroke="midnightblue" d="M1410.23,-54C1418.83,-54 1427.48,-54 1435.94,-54"/>
<polygon fill="midnightblue" stroke="midnightblue" points="1410.17,-50.5001 1400.17,-54 1410.17,-57.5001 1410.17,-50.5001"/>
</g>
<!-- Node10 -->
<g id="node10" class="node"><title>Node10</title>
<g id="a_node10"><a xlink:href="../../d0/de6/classui_1_1elements_1_1_menu_bar_element.html#ab4a4e6841c924a9d9c70b8073b56dffc" target="_top" xlink:title="ui.elements.MenuBarElement.\lMenuBarElement">
<polygon fill="white" stroke="black" points="1648.5,-39 1648.5,-69 1809.5,-69 1809.5,-39 1648.5,-39"/>
<text text-anchor="start" x="1656.5" y="-57" font-family="Helvetica,sans-Serif" font-size="10.00">ui.elements.MenuBarElement.</text>
<text text-anchor="middle" x="1729" y="-46" font-family="Helvetica,sans-Serif" font-size="10.00">MenuBarElement</text>
</a>
</g>
</g>
<!-- Node9&#45;&gt;Node10 -->
<g id="edge9" class="edge"><title>Node9&#45;&gt;Node10</title>
<path fill="none" stroke="midnightblue" d="M1622.47,-54C1631.19,-54 1639.95,-54 1648.5,-54"/>
<polygon fill="midnightblue" stroke="midnightblue" points="1622.27,-50.5001 1612.27,-54 1622.27,-57.5001 1622.27,-50.5001"/>
</g>
</g>
</svg>
