<?xml version="1.0" encoding="UTF-8" standalone="no"?>
<!DOCTYPE svg PUBLIC "-//W3C//DTD SVG 1.1//EN"
 "http://www.w3.org/Graphics/SVG/1.1/DTD/svg11.dtd">
<!-- Generated by graphviz version 2.36.0 (20140111.2315)
 -->
<!-- Title: ui.GUI.makeTurtleView Pages: 1 -->
<svg width="2120pt" height="99pt"
 viewBox="0.00 0.00 2120.00 99.00" xmlns="http://www.w3.org/2000/svg" xmlns:xlink="http://www.w3.org/1999/xlink">
<g id="graph0" class="graph" transform="scale(1 1) rotate(0) translate(4 95)">
<title>ui.GUI.makeTurtleView</title>
<polygon fill="white" stroke="none" points="-4,4 -4,-95 2116,-95 2116,4 -4,4"/>
<!-- Node1 -->
<g id="node1" class="node"><title>Node1</title>
<polygon fill="#bfbfbf" stroke="black" points="0,-44.5 0,-63.5 122,-63.5 122,-44.5 0,-44.5"/>
<text text-anchor="middle" x="61" y="-51.5" font-family="Helvetica,sans-Serif" font-size="10.00">ui.GUI.makeTurtleView</text>
</g>
<!-- Node2 -->
<g id="node2" class="node"><title>Node2</title>
<g id="a_node2"><a xlink:href="../../df/d9f/classui_1_1elements_1_1_t_properties_element.html#aa9783f0d27dd4082e08b8a23d60883fe" target="_top" xlink:title="ui.elements.TPropertiesElement.init">
<polygon fill="white" stroke="black" points="158.5,-64.5 158.5,-83.5 345.5,-83.5 345.5,-64.5 158.5,-64.5"/>
<text text-anchor="middle" x="252" y="-71.5" font-family="Helvetica,sans-Serif" font-size="10.00">ui.elements.TPropertiesElement.init</text>
</a>
</g>
</g>
<!-- Node1&#45;&gt;Node2 -->
<g id="edge1" class="edge"><title>Node1&#45;&gt;Node2</title>
<path fill="none" stroke="midnightblue" d="M132.141,-61.4224C141.575,-62.4207 151.357,-63.4557 161.074,-64.484"/>
<polygon fill="midnightblue" stroke="midnightblue" points="132.373,-57.9275 122.06,-60.3556 131.637,-64.8886 132.373,-57.9275"/>
</g>
<!-- Node4 -->
<g id="node4" class="node"><title>Node4</title>
<g id="a_node4"><a xlink:href="../../dc/d3b/classui_1_1_g_u_i.html#a765d554102f38969231261686f2f8e27" target="_top" xlink:title="ui.GUI.initialize">
<polygon fill="white" stroke="black" points="209,-25.5 209,-44.5 295,-44.5 295,-25.5 209,-25.5"/>
<text text-anchor="middle" x="252" y="-32.5" font-family="Helvetica,sans-Serif" font-size="10.00">ui.GUI.initialize</text>
</a>
</g>
</g>
<!-- Node1&#45;&gt;Node4 -->
<g id="edge3" class="edge"><title>Node1&#45;&gt;Node4</title>
<path fill="none" stroke="midnightblue" d="M132.154,-46.9474C157.894,-44.3599 186.219,-41.5124 208.759,-39.2465"/>
<polygon fill="midnightblue" stroke="midnightblue" points="131.66,-43.4794 122.06,-47.9622 132.36,-50.4443 131.66,-43.4794"/>
</g>
<!-- Node3 -->
<g id="node3" class="node"><title>Node3</title>
<g id="a_node3"><a xlink:href="../../df/d9f/classui_1_1elements_1_1_t_properties_element.html#a6c665abf2d1d12f6cc29c03f0b428efb" target="_top" xlink:title="ui.elements.TPropertiesElement.\lTPropertiesElement">
<polygon fill="white" stroke="black" points="382.5,-61 382.5,-91 555.5,-91 555.5,-61 382.5,-61"/>
<text text-anchor="start" x="390.5" y="-79" font-family="Helvetica,sans-Serif" font-size="10.00">ui.elements.TPropertiesElement.</text>
<text text-anchor="middle" x="469" y="-68" font-family="Helvetica,sans-Serif" font-size="10.00">TPropertiesElement</text>
</a>
</g>
</g>
<!-- Node2&#45;&gt;Node3 -->
<g id="edge2" class="edge"><title>Node2&#45;&gt;Node3</title>
<path fill="none" stroke="midnightblue" d="M355.759,-74.9559C364.662,-75.0387 373.609,-75.1219 382.354,-75.2033"/>
<polygon fill="midnightblue" stroke="midnightblue" points="355.771,-71.456 345.739,-74.8627 355.706,-78.4557 355.771,-71.456"/>
</g>
<!-- Node5 -->
<g id="node5" class="node"><title>Node5</title>
<g id="a_node5"><a xlink:href="../../d5/d06/classui_1_1_scene_updater.html#aeef5dd7a8ec2ad6179e33fdd71ea90d6" target="_top" xlink:title="ui.SceneUpdater.initGUI">
<polygon fill="white" stroke="black" points="403.5,-22.5 403.5,-41.5 534.5,-41.5 534.5,-22.5 403.5,-22.5"/>
<text text-anchor="middle" x="469" y="-29.5" font-family="Helvetica,sans-Serif" font-size="10.00">ui.SceneUpdater.initGUI</text>
</a>
</g>
</g>
<!-- Node4&#45;&gt;Node5 -->
<g id="edge4" class="edge"><title>Node4&#45;&gt;Node5</title>
<path fill="none" stroke="midnightblue" d="M305.334,-34.2698C334.888,-33.8574 372.072,-33.3385 403.427,-32.901"/>
<polygon fill="midnightblue" stroke="midnightblue" points="305.171,-30.7716 295.221,-34.4109 305.268,-37.7709 305.171,-30.7716"/>
</g>
<!-- Node6 -->
<g id="node6" class="node"><title>Node6</title>
<g id="a_node6"><a xlink:href="../../d9/df7/classcontroller_1_1_controller.html#a57e42ba83ee2145e6262cd72eac59570" target="_top" xlink:title="controller.Controller.init">
<polygon fill="white" stroke="black" points="592.5,-22.5 592.5,-41.5 719.5,-41.5 719.5,-22.5 592.5,-22.5"/>
<text text-anchor="middle" x="656" y="-29.5" font-family="Helvetica,sans-Serif" font-size="10.00">controller.Controller.init</text>
</a>
</g>
</g>
<!-- Node5&#45;&gt;Node6 -->
<g id="edge5" class="edge"><title>Node5&#45;&gt;Node6</title>
<path fill="none" stroke="midnightblue" d="M544.899,-32C560.598,-32 576.999,-32 592.202,-32"/>
<polygon fill="midnightblue" stroke="midnightblue" points="544.704,-28.5001 534.704,-32 544.704,-35.5001 544.704,-28.5001"/>
</g>
<!-- Node7 -->
<g id="node7" class="node"><title>Node7</title>
<g id="a_node7"><a xlink:href="../../dd/df2/classmain_1_1_workspace_manager.html#abc818b59211f6e14940b86a42bb868d0" target="_top" xlink:title="main.WorkspaceManager.create\lWorkspace">
<polygon fill="white" stroke="black" points="756,-17 756,-47 926,-47 926,-17 756,-17"/>
<text text-anchor="start" x="764" y="-35" font-family="Helvetica,sans-Serif" font-size="10.00">main.WorkspaceManager.create</text>
<text text-anchor="middle" x="841" y="-24" font-family="Helvetica,sans-Serif" font-size="10.00">Workspace</text>
</a>
</g>
</g>
<!-- Node6&#45;&gt;Node7 -->
<g id="edge6" class="edge"><title>Node6&#45;&gt;Node7</title>
<path fill="none" stroke="midnightblue" d="M729.923,-32C738.392,-32 747.083,-32 755.689,-32"/>
<polygon fill="midnightblue" stroke="midnightblue" points="729.722,-28.5001 719.722,-32 729.722,-35.5001 729.722,-28.5001"/>
</g>
<!-- Node8 -->
<g id="node8" class="node"><title>Node8</title>
<g id="a_node8"><a xlink:href="../../d9/df7/classcontroller_1_1_controller.html#a3a9d672bb57047df70945ad1a9582c9a" target="_top" xlink:title="controller.Controller.create\lNewWorkspace">
<polygon fill="white" stroke="black" points="962.5,-39 962.5,-69 1105.5,-69 1105.5,-39 962.5,-39"/>
<text text-anchor="start" x="970.5" y="-57" font-family="Helvetica,sans-Serif" font-size="10.00">controller.Controller.create</text>
<text text-anchor="middle" x="1034" y="-46" font-family="Helvetica,sans-Serif" font-size="10.00">NewWorkspace</text>
</a>
</g>
</g>
<!-- Node7&#45;&gt;Node8 -->
<g id="edge7" class="edge"><title>Node7&#45;&gt;Node8</title>
<path fill="none" stroke="midnightblue" d="M936.027,-42.8303C944.882,-43.8503 953.753,-44.8721 962.337,-45.8608"/>
<polygon fill="midnightblue" stroke="midnightblue" points="936.388,-39.3489 926.053,-41.6815 935.587,-46.3029 936.388,-39.3489"/>
</g>
<!-- Node14 -->
<g id="node14" class="node"><title>Node14</title>
<g id="a_node14"><a xlink:href="../../d1/d0b/classmain_1_1_main.html#a9f1e5657b2f6f9bdd69a3b6412ceda74" target="_top" xlink:title="main.Main.start">
<polygon fill="white" stroke="black" points="988,-0.5 988,-19.5 1080,-19.5 1080,-0.5 988,-0.5"/>
<text text-anchor="middle" x="1034" y="-7.5" font-family="Helvetica,sans-Serif" font-size="10.00">main.Main.start</text>
</a>
</g>
</g>
<!-- Node7&#45;&gt;Node14 -->
<g id="edge13" class="edge"><title>Node7&#45;&gt;Node14</title>
<path fill="none" stroke="midnightblue" d="M936.086,-21.1629C954.187,-19.0779 972.356,-16.9851 987.991,-15.1843"/>
<polygon fill="midnightblue" stroke="midnightblue" points="935.587,-17.6971 926.053,-22.3185 936.388,-24.6511 935.587,-17.6971"/>
</g>
<!-- Node9 -->
<g id="node9" class="node"><title>Node9</title>
<g id="a_node9"><a xlink:href="../../d5/d06/classui_1_1_scene_updater.html#a2858ad8edb0c0f59a21e2ae015f2fa1e" target="_top" xlink:title="ui.SceneUpdater.createNew\lWorkspace">
<polygon fill="white" stroke="black" points="1142,-39 1142,-69 1292,-69 1292,-39 1142,-39"/>
<text text-anchor="start" x="1150" y="-57" font-family="Helvetica,sans-Serif" font-size="10.00">ui.SceneUpdater.createNew</text>
<text text-anchor="middle" x="1217" y="-46" font-family="Helvetica,sans-Serif" font-size="10.00">Workspace</text>
</a>
</g>
</g>
<!-- Node8&#45;&gt;Node9 -->
<g id="edge8" class="edge"><title>Node8&#45;&gt;Node9</title>
<path fill="none" stroke="midnightblue" d="M1115.8,-54C1124.43,-54 1133.17,-54 1141.71,-54"/>
<polygon fill="midnightblue" stroke="midnightblue" points="1115.76,-50.5001 1105.76,-54 1115.76,-57.5001 1115.76,-50.5001"/>
</g>
<!-- Node10 -->
<g id="node10" class="node"><title>Node10</title>
<g id="a_node10"><a xlink:href="../../dc/d3b/classui_1_1_g_u_i.html#a2edc294ba07311e6c4b85c9fe749d1bf" target="_top" xlink:title="ui.GUI.createNewWorkspace">
<polygon fill="white" stroke="black" points="1328,-44.5 1328,-63.5 1478,-63.5 1478,-44.5 1328,-44.5"/>
<text text-anchor="middle" x="1403" y="-51.5" font-family="Helvetica,sans-Serif" font-size="10.00">ui.GUI.createNewWorkspace</text>
</a>
</g>
</g>
<!-- Node9&#45;&gt;Node10 -->
<g id="edge9" class="edge"><title>Node9&#45;&gt;Node10</title>
<path fill="none" stroke="midnightblue" d="M1302.07,-54C1310.65,-54 1319.34,-54 1327.81,-54"/>
<polygon fill="midnightblue" stroke="midnightblue" points="1302.04,-50.5001 1292.04,-54 1302.04,-57.5001 1302.04,-50.5001"/>
</g>
<!-- Node11 -->
<g id="node11" class="node"><title>Node11</title>
<g id="a_node11"><a xlink:href="../../d0/de6/classui_1_1elements_1_1_menu_bar_element.html#a98c13995a31d997aa10f2950583da6cc" target="_top" xlink:title="ui.elements.MenuBarElement.make\lMenuBar">
<polygon fill="white" stroke="black" points="1514,-39 1514,-69 1702,-69 1702,-39 1514,-39"/>
<text text-anchor="start" x="1522" y="-57" font-family="Helvetica,sans-Serif" font-size="10.00">ui.elements.MenuBarElement.make</text>
<text text-anchor="middle" x="1608" y="-46" font-family="Helvetica,sans-Serif" font-size="10.00">MenuBar</text>
</a>
</g>
</g>
<!-- Node10&#45;&gt;Node11 -->
<g id="edge10" class="edge"><title>Node10&#45;&gt;Node11</title>
<path fill="none" stroke="midnightblue" d="M1488.28,-54C1496.66,-54 1505.21,-54 1513.68,-54"/>
<polygon fill="midnightblue" stroke="midnightblue" points="1488.15,-50.5001 1478.15,-54 1488.15,-57.5001 1488.15,-50.5001"/>
</g>
<!-- Node12 -->
<g id="node12" class="node"><title>Node12</title>
<g id="a_node12"><a xlink:href="../../d0/de6/classui_1_1elements_1_1_menu_bar_element.html#a7bdb58f78cf8b61ba28498c5c86ab682" target="_top" xlink:title="ui.elements.MenuBarElement.init">
<polygon fill="white" stroke="black" points="1738,-44.5 1738,-63.5 1914,-63.5 1914,-44.5 1738,-44.5"/>
<text text-anchor="middle" x="1826" y="-51.5" font-family="Helvetica,sans-Serif" font-size="10.00">ui.elements.MenuBarElement.init</text>
</a>
</g>
</g>
<!-- Node11&#45;&gt;Node12 -->
<g id="edge11" class="edge"><title>Node11&#45;&gt;Node12</title>
<path fill="none" stroke="midnightblue" d="M1712.23,-54C1720.83,-54 1729.48,-54 1737.94,-54"/>
<polygon fill="midnightblue" stroke="midnightblue" points="1712.17,-50.5001 1702.17,-54 1712.17,-57.5001 1712.17,-50.5001"/>
</g>
<!-- Node13 -->
<g id="node13" class="node"><title>Node13</title>
<g id="a_node13"><a xlink:href="../../d0/de6/classui_1_1elements_1_1_menu_bar_element.html#ab4a4e6841c924a9d9c70b8073b56dffc" target="_top" xlink:title="ui.elements.MenuBarElement.\lMenuBarElement">
<polygon fill="white" stroke="black" points="1950.5,-39 1950.5,-69 2111.5,-69 2111.5,-39 1950.5,-39"/>
<text text-anchor="start" x="1958.5" y="-57" font-family="Helvetica,sans-Serif" font-size="10.00">ui.elements.MenuBarElement.</text>
<text text-anchor="middle" x="2031" y="-46" font-family="Helvetica,sans-Serif" font-size="10.00">MenuBarElement</text>
</a>
</g>
</g>
<!-- Node12&#45;&gt;Node13 -->
<g id="edge12" class="edge"><title>Node12&#45;&gt;Node13</title>
<path fill="none" stroke="midnightblue" d="M1924.47,-54C1933.19,-54 1941.95,-54 1950.5,-54"/>
<polygon fill="midnightblue" stroke="midnightblue" points="1924.27,-50.5001 1914.27,-54 1924.27,-57.5001 1924.27,-50.5001"/>
</g>
</g>
</svg>
