<?xml version="1.0" encoding="UTF-8" standalone="no"?>
<!DOCTYPE svg PUBLIC "-//W3C//DTD SVG 1.1//EN"
 "http://www.w3.org/Graphics/SVG/1.1/DTD/svg11.dtd">
<!-- Generated by graphviz version 2.36.0 (20140111.2315)
 -->
<!-- Title: ui.GUI.setOutputText Pages: 1 -->
<svg width="3028pt" height="88pt"
 viewBox="0.00 0.00 3028.00 88.00" xmlns="http://www.w3.org/2000/svg" xmlns:xlink="http://www.w3.org/1999/xlink">
<g id="graph0" class="graph" transform="scale(1 1) rotate(0) translate(4 84)">
<title>ui.GUI.setOutputText</title>
<polygon fill="white" stroke="none" points="-4,4 -4,-84 3024,-84 3024,4 -4,4"/>
<!-- Node1 -->
<g id="node1" class="node"><title>Node1</title>
<polygon fill="#bfbfbf" stroke="black" points="0.5,-41.5 0.5,-60.5 115.5,-60.5 115.5,-41.5 0.5,-41.5"/>
<text text-anchor="middle" x="58" y="-48.5" font-family="Helvetica,sans-Serif" font-size="10.00">ui.GUI.setOutputText</text>
</g>
<!-- Node2 -->
<g id="node2" class="node"><title>Node2</title>
<g id="a_node2"><a xlink:href="../../d5/d06/classui_1_1_scene_updater.html#ab8b88b95b646266ee4a8ef3d77e4c3e3" target="_top" xlink:title="ui.SceneUpdater.setOutputText">
<polygon fill="white" stroke="black" points="152,-41.5 152,-60.5 318,-60.5 318,-41.5 152,-41.5"/>
<text text-anchor="middle" x="235" y="-48.5" font-family="Helvetica,sans-Serif" font-size="10.00">ui.SceneUpdater.setOutputText</text>
</a>
</g>
</g>
<!-- Node1&#45;&gt;Node2 -->
<g id="edge1" class="edge"><title>Node1&#45;&gt;Node2</title>
<path fill="none" stroke="midnightblue" d="M125.95,-51C134.385,-51 143.09,-51 151.727,-51"/>
<polygon fill="midnightblue" stroke="midnightblue" points="125.818,-47.5001 115.817,-51 125.817,-54.5001 125.818,-47.5001"/>
</g>
<!-- Node3 -->
<g id="node3" class="node"><title>Node3</title>
<g id="a_node3"><a xlink:href="../../d9/df7/classcontroller_1_1_controller.html#a3d81fb1a57114f96fb6c319f4c5df370" target="_top" xlink:title="controller.Controller.parse\lCommand">
<polygon fill="white" stroke="black" points="354,-36 354,-66 494,-66 494,-36 354,-36"/>
<text text-anchor="start" x="362" y="-54" font-family="Helvetica,sans-Serif" font-size="10.00">controller.Controller.parse</text>
<text text-anchor="middle" x="424" y="-43" font-family="Helvetica,sans-Serif" font-size="10.00">Command</text>
</a>
</g>
</g>
<!-- Node2&#45;&gt;Node3 -->
<g id="edge2" class="edge"><title>Node2&#45;&gt;Node3</title>
<path fill="none" stroke="midnightblue" d="M328.165,-51C336.828,-51 345.506,-51 353.901,-51"/>
<polygon fill="midnightblue" stroke="midnightblue" points="328.021,-47.5001 318.021,-51 328.021,-54.5001 328.021,-47.5001"/>
</g>
<!-- Node4 -->
<g id="node4" class="node"><title>Node4</title>
<g id="a_node4"><a xlink:href="../../d5/d06/classui_1_1_scene_updater.html#ab77a04f8b0038429b09237aac18906e8" target="_top" xlink:title="ui.SceneUpdater.sendCommands">
<polygon fill="white" stroke="black" points="530,-41.5 530,-60.5 708,-60.5 708,-41.5 530,-41.5"/>
<text text-anchor="middle" x="619" y="-48.5" font-family="Helvetica,sans-Serif" font-size="10.00">ui.SceneUpdater.sendCommands</text>
</a>
</g>
</g>
<!-- Node3&#45;&gt;Node4 -->
<g id="edge3" class="edge"><title>Node3&#45;&gt;Node4</title>
<path fill="none" stroke="midnightblue" d="M504.294,-51C512.713,-51 521.313,-51 529.825,-51"/>
<polygon fill="midnightblue" stroke="midnightblue" points="504.132,-47.5001 494.132,-51 504.132,-54.5001 504.132,-47.5001"/>
</g>
<!-- Node5 -->
<g id="node5" class="node"><title>Node5</title>
<g id="a_node5"><a xlink:href="../../dc/d3b/classui_1_1_g_u_i.html#ad8f08a79a20a498bcaafdc7e2e2ce0a9" target="_top" xlink:title="ui.GUI.parseCommand">
<polygon fill="white" stroke="black" points="744.5,-41.5 744.5,-60.5 869.5,-60.5 869.5,-41.5 744.5,-41.5"/>
<text text-anchor="middle" x="807" y="-48.5" font-family="Helvetica,sans-Serif" font-size="10.00">ui.GUI.parseCommand</text>
</a>
</g>
</g>
<!-- Node4&#45;&gt;Node5 -->
<g id="edge4" class="edge"><title>Node4&#45;&gt;Node5</title>
<path fill="none" stroke="midnightblue" d="M718.196,-51C727.132,-51 736.003,-51 744.479,-51"/>
<polygon fill="midnightblue" stroke="midnightblue" points="718.098,-47.5001 708.098,-51 718.098,-54.5001 718.098,-47.5001"/>
</g>
<!-- Node6 -->
<g id="node6" class="node"><title>Node6</title>
<g id="a_node6"><a xlink:href="../../d8/d3c/classui_1_1elements_1_1_i_o_element.html#a139a046f0c771f86696f2eee04047c64" target="_top" xlink:title="ui.elements.IOElement.init">
<polygon fill="white" stroke="black" points="922.5,-60.5 922.5,-79.5 1065.5,-79.5 1065.5,-60.5 922.5,-60.5"/>
<text text-anchor="middle" x="994" y="-67.5" font-family="Helvetica,sans-Serif" font-size="10.00">ui.elements.IOElement.init</text>
</a>
</g>
</g>
<!-- Node5&#45;&gt;Node6 -->
<g id="edge5" class="edge"><title>Node5&#45;&gt;Node6</title>
<path fill="none" stroke="midnightblue" d="M879.677,-58.3614C893.703,-59.8019 908.403,-61.3116 922.393,-62.7485"/>
<polygon fill="midnightblue" stroke="midnightblue" points="879.908,-54.8668 869.602,-57.3267 879.192,-61.8302 879.908,-54.8668"/>
</g>
<!-- Node8 -->
<g id="node8" class="node"><title>Node8</title>
<g id="a_node8"><a xlink:href="../../dc/d3b/classui_1_1_g_u_i.html#ab8ec2a37b3d5bd9e8c2abbb3642fb965" target="_top" xlink:title="ui.GUI.setupKeyboardCommands">
<polygon fill="white" stroke="black" points="906.5,-22.5 906.5,-41.5 1081.5,-41.5 1081.5,-22.5 906.5,-22.5"/>
<text text-anchor="middle" x="994" y="-29.5" font-family="Helvetica,sans-Serif" font-size="10.00">ui.GUI.setupKeyboardCommands</text>
</a>
</g>
</g>
<!-- Node5&#45;&gt;Node8 -->
<g id="edge7" class="edge"><title>Node5&#45;&gt;Node8</title>
<path fill="none" stroke="midnightblue" d="M879.694,-43.6368C888.41,-42.7417 897.385,-41.8199 906.289,-40.9054"/>
<polygon fill="midnightblue" stroke="midnightblue" points="879.192,-40.1698 869.602,-44.6733 879.908,-47.1332 879.192,-40.1698"/>
</g>
<!-- Node7 -->
<g id="node7" class="node"><title>Node7</title>
<g id="a_node7"><a xlink:href="../../d8/d3c/classui_1_1elements_1_1_i_o_element.html#a556e1a3ad292fe3ab731065eef59b187" target="_top" xlink:title="ui.elements.IOElement.IOElement">
<polygon fill="white" stroke="black" points="1118,-60.5 1118,-79.5 1296,-79.5 1296,-60.5 1118,-60.5"/>
<text text-anchor="middle" x="1207" y="-67.5" font-family="Helvetica,sans-Serif" font-size="10.00">ui.elements.IOElement.IOElement</text>
</a>
</g>
</g>
<!-- Node6&#45;&gt;Node7 -->
<g id="edge6" class="edge"><title>Node6&#45;&gt;Node7</title>
<path fill="none" stroke="midnightblue" d="M1075.92,-70C1089.65,-70 1103.97,-70 1117.88,-70"/>
<polygon fill="midnightblue" stroke="midnightblue" points="1075.55,-66.5001 1065.55,-70 1075.55,-73.5001 1075.55,-66.5001"/>
</g>
<!-- Node9 -->
<g id="node9" class="node"><title>Node9</title>
<g id="a_node9"><a xlink:href="../../dc/d3b/classui_1_1_g_u_i.html#a765d554102f38969231261686f2f8e27" target="_top" xlink:title="ui.GUI.initialize">
<polygon fill="white" stroke="black" points="1164,-22.5 1164,-41.5 1250,-41.5 1250,-22.5 1164,-22.5"/>
<text text-anchor="middle" x="1207" y="-29.5" font-family="Helvetica,sans-Serif" font-size="10.00">ui.GUI.initialize</text>
</a>
</g>
</g>
<!-- Node8&#45;&gt;Node9 -->
<g id="edge8" class="edge"><title>Node8&#45;&gt;Node9</title>
<path fill="none" stroke="midnightblue" d="M1091.75,-32C1117.02,-32 1142.96,-32 1163.72,-32"/>
<polygon fill="midnightblue" stroke="midnightblue" points="1091.74,-28.5001 1081.74,-32 1091.74,-35.5001 1091.74,-28.5001"/>
</g>
<!-- Node10 -->
<g id="node10" class="node"><title>Node10</title>
<g id="a_node10"><a xlink:href="../../d5/d06/classui_1_1_scene_updater.html#aeef5dd7a8ec2ad6179e33fdd71ea90d6" target="_top" xlink:title="ui.SceneUpdater.initGUI">
<polygon fill="white" stroke="black" points="1332.5,-22.5 1332.5,-41.5 1463.5,-41.5 1463.5,-22.5 1332.5,-22.5"/>
<text text-anchor="middle" x="1398" y="-29.5" font-family="Helvetica,sans-Serif" font-size="10.00">ui.SceneUpdater.initGUI</text>
</a>
</g>
</g>
<!-- Node9&#45;&gt;Node10 -->
<g id="edge9" class="edge"><title>Node9&#45;&gt;Node10</title>
<path fill="none" stroke="midnightblue" d="M1260.67,-32C1282.92,-32 1309.05,-32 1332.45,-32"/>
<polygon fill="midnightblue" stroke="midnightblue" points="1260.42,-28.5001 1250.42,-32 1260.42,-35.5001 1260.42,-28.5001"/>
</g>
<!-- Node11 -->
<g id="node11" class="node"><title>Node11</title>
<g id="a_node11"><a xlink:href="../../d9/df7/classcontroller_1_1_controller.html#a57e42ba83ee2145e6262cd72eac59570" target="_top" xlink:title="controller.Controller.init">
<polygon fill="white" stroke="black" points="1500.5,-22.5 1500.5,-41.5 1627.5,-41.5 1627.5,-22.5 1500.5,-22.5"/>
<text text-anchor="middle" x="1564" y="-29.5" font-family="Helvetica,sans-Serif" font-size="10.00">controller.Controller.init</text>
</a>
</g>
</g>
<!-- Node10&#45;&gt;Node11 -->
<g id="edge10" class="edge"><title>Node10&#45;&gt;Node11</title>
<path fill="none" stroke="midnightblue" d="M1474.04,-32C1482.81,-32 1491.68,-32 1500.26,-32"/>
<polygon fill="midnightblue" stroke="midnightblue" points="1473.82,-28.5001 1463.82,-32 1473.82,-35.5001 1473.82,-28.5001"/>
</g>
<!-- Node12 -->
<g id="node12" class="node"><title>Node12</title>
<g id="a_node12"><a xlink:href="../../dd/df2/classmain_1_1_workspace_manager.html#abc818b59211f6e14940b86a42bb868d0" target="_top" xlink:title="main.WorkspaceManager.create\lWorkspace">
<polygon fill="white" stroke="black" points="1664,-17 1664,-47 1834,-47 1834,-17 1664,-17"/>
<text text-anchor="start" x="1672" y="-35" font-family="Helvetica,sans-Serif" font-size="10.00">main.WorkspaceManager.create</text>
<text text-anchor="middle" x="1749" y="-24" font-family="Helvetica,sans-Serif" font-size="10.00">Workspace</text>
</a>
</g>
</g>
<!-- Node11&#45;&gt;Node12 -->
<g id="edge11" class="edge"><title>Node11&#45;&gt;Node12</title>
<path fill="none" stroke="midnightblue" d="M1637.92,-32C1646.39,-32 1655.08,-32 1663.69,-32"/>
<polygon fill="midnightblue" stroke="midnightblue" points="1637.72,-28.5001 1627.72,-32 1637.72,-35.5001 1637.72,-28.5001"/>
</g>
<!-- Node13 -->
<g id="node13" class="node"><title>Node13</title>
<g id="a_node13"><a xlink:href="../../d9/df7/classcontroller_1_1_controller.html#a3a9d672bb57047df70945ad1a9582c9a" target="_top" xlink:title="controller.Controller.create\lNewWorkspace">
<polygon fill="white" stroke="black" points="1870.5,-39 1870.5,-69 2013.5,-69 2013.5,-39 1870.5,-39"/>
<text text-anchor="start" x="1878.5" y="-57" font-family="Helvetica,sans-Serif" font-size="10.00">controller.Controller.create</text>
<text text-anchor="middle" x="1942" y="-46" font-family="Helvetica,sans-Serif" font-size="10.00">NewWorkspace</text>
</a>
</g>
</g>
<!-- Node12&#45;&gt;Node13 -->
<g id="edge12" class="edge"><title>Node12&#45;&gt;Node13</title>
<path fill="none" stroke="midnightblue" d="M1844.03,-42.8303C1852.88,-43.8503 1861.75,-44.8721 1870.34,-45.8608"/>
<polygon fill="midnightblue" stroke="midnightblue" points="1844.39,-39.3489 1834.05,-41.6815 1843.59,-46.3029 1844.39,-39.3489"/>
</g>
<!-- Node19 -->
<g id="node19" class="node"><title>Node19</title>
<g id="a_node19"><a xlink:href="../../d1/d0b/classmain_1_1_main.html#a9f1e5657b2f6f9bdd69a3b6412ceda74" target="_top" xlink:title="main.Main.start">
<polygon fill="white" stroke="black" points="1896,-0.5 1896,-19.5 1988,-19.5 1988,-0.5 1896,-0.5"/>
<text text-anchor="middle" x="1942" y="-7.5" font-family="Helvetica,sans-Serif" font-size="10.00">main.Main.start</text>
</a>
</g>
</g>
<!-- Node12&#45;&gt;Node19 -->
<g id="edge18" class="edge"><title>Node12&#45;&gt;Node19</title>
<path fill="none" stroke="midnightblue" d="M1844.09,-21.1629C1862.19,-19.0779 1880.36,-16.9851 1895.99,-15.1843"/>
<polygon fill="midnightblue" stroke="midnightblue" points="1843.59,-17.6971 1834.05,-22.3185 1844.39,-24.6511 1843.59,-17.6971"/>
</g>
<!-- Node14 -->
<g id="node14" class="node"><title>Node14</title>
<g id="a_node14"><a xlink:href="../../d5/d06/classui_1_1_scene_updater.html#a2858ad8edb0c0f59a21e2ae015f2fa1e" target="_top" xlink:title="ui.SceneUpdater.createNew\lWorkspace">
<polygon fill="white" stroke="black" points="2050,-39 2050,-69 2200,-69 2200,-39 2050,-39"/>
<text text-anchor="start" x="2058" y="-57" font-family="Helvetica,sans-Serif" font-size="10.00">ui.SceneUpdater.createNew</text>
<text text-anchor="middle" x="2125" y="-46" font-family="Helvetica,sans-Serif" font-size="10.00">Workspace</text>
</a>
</g>
</g>
<!-- Node13&#45;&gt;Node14 -->
<g id="edge13" class="edge"><title>Node13&#45;&gt;Node14</title>
<path fill="none" stroke="midnightblue" d="M2023.8,-54C2032.43,-54 2041.17,-54 2049.71,-54"/>
<polygon fill="midnightblue" stroke="midnightblue" points="2023.76,-50.5001 2013.76,-54 2023.76,-57.5001 2023.76,-50.5001"/>
</g>
<!-- Node15 -->
<g id="node15" class="node"><title>Node15</title>
<g id="a_node15"><a xlink:href="../../dc/d3b/classui_1_1_g_u_i.html#a2edc294ba07311e6c4b85c9fe749d1bf" target="_top" xlink:title="ui.GUI.createNewWorkspace">
<polygon fill="white" stroke="black" points="2236,-44.5 2236,-63.5 2386,-63.5 2386,-44.5 2236,-44.5"/>
<text text-anchor="middle" x="2311" y="-51.5" font-family="Helvetica,sans-Serif" font-size="10.00">ui.GUI.createNewWorkspace</text>
</a>
</g>
</g>
<!-- Node14&#45;&gt;Node15 -->
<g id="edge14" class="edge"><title>Node14&#45;&gt;Node15</title>
<path fill="none" stroke="midnightblue" d="M2210.07,-54C2218.65,-54 2227.34,-54 2235.81,-54"/>
<polygon fill="midnightblue" stroke="midnightblue" points="2210.04,-50.5001 2200.04,-54 2210.04,-57.5001 2210.04,-50.5001"/>
</g>
<!-- Node16 -->
<g id="node16" class="node"><title>Node16</title>
<g id="a_node16"><a xlink:href="../../d0/de6/classui_1_1elements_1_1_menu_bar_element.html#a98c13995a31d997aa10f2950583da6cc" target="_top" xlink:title="ui.elements.MenuBarElement.make\lMenuBar">
<polygon fill="white" stroke="black" points="2422,-39 2422,-69 2610,-69 2610,-39 2422,-39"/>
<text text-anchor="start" x="2430" y="-57" font-family="Helvetica,sans-Serif" font-size="10.00">ui.elements.MenuBarElement.make</text>
<text text-anchor="middle" x="2516" y="-46" font-family="Helvetica,sans-Serif" font-size="10.00">MenuBar</text>
</a>
</g>
</g>
<!-- Node15&#45;&gt;Node16 -->
<g id="edge15" class="edge"><title>Node15&#45;&gt;Node16</title>
<path fill="none" stroke="midnightblue" d="M2396.28,-54C2404.66,-54 2413.21,-54 2421.68,-54"/>
<polygon fill="midnightblue" stroke="midnightblue" points="2396.15,-50.5001 2386.15,-54 2396.15,-57.5001 2396.15,-50.5001"/>
</g>
<!-- Node17 -->
<g id="node17" class="node"><title>Node17</title>
<g id="a_node17"><a xlink:href="../../d0/de6/classui_1_1elements_1_1_menu_bar_element.html#a7bdb58f78cf8b61ba28498c5c86ab682" target="_top" xlink:title="ui.elements.MenuBarElement.init">
<polygon fill="white" stroke="black" points="2646,-44.5 2646,-63.5 2822,-63.5 2822,-44.5 2646,-44.5"/>
<text text-anchor="middle" x="2734" y="-51.5" font-family="Helvetica,sans-Serif" font-size="10.00">ui.elements.MenuBarElement.init</text>
</a>
</g>
</g>
<!-- Node16&#45;&gt;Node17 -->
<g id="edge16" class="edge"><title>Node16&#45;&gt;Node17</title>
<path fill="none" stroke="midnightblue" d="M2620.23,-54C2628.83,-54 2637.48,-54 2645.94,-54"/>
<polygon fill="midnightblue" stroke="midnightblue" points="2620.17,-50.5001 2610.17,-54 2620.17,-57.5001 2620.17,-50.5001"/>
</g>
<!-- Node18 -->
<g id="node18" class="node"><title>Node18</title>
<g id="a_node18"><a xlink:href="../../d0/de6/classui_1_1elements_1_1_menu_bar_element.html#ab4a4e6841c924a9d9c70b8073b56dffc" target="_top" xlink:title="ui.elements.MenuBarElement.\lMenuBarElement">
<polygon fill="white" stroke="black" points="2858.5,-39 2858.5,-69 3019.5,-69 3019.5,-39 2858.5,-39"/>
<text text-anchor="start" x="2866.5" y="-57" font-family="Helvetica,sans-Serif" font-size="10.00">ui.elements.MenuBarElement.</text>
<text text-anchor="middle" x="2939" y="-46" font-family="Helvetica,sans-Serif" font-size="10.00">MenuBarElement</text>
</a>
</g>
</g>
<!-- Node17&#45;&gt;Node18 -->
<g id="edge17" class="edge"><title>Node17&#45;&gt;Node18</title>
<path fill="none" stroke="midnightblue" d="M2832.47,-54C2841.19,-54 2849.95,-54 2858.5,-54"/>
<polygon fill="midnightblue" stroke="midnightblue" points="2832.27,-50.5001 2822.27,-54 2832.27,-57.5001 2832.27,-50.5001"/>
</g>
</g>
</svg>
