<?xml version="1.0" encoding="UTF-8" standalone="no"?>
<!DOCTYPE svg PUBLIC "-//W3C//DTD SVG 1.1//EN"
 "http://www.w3.org/Graphics/SVG/1.1/DTD/svg11.dtd">
<!-- Generated by graphviz version 2.36.0 (20140111.2315)
 -->
<!-- Title: ui.GUI.addCommandHistory Pages: 1 -->
<svg width="3064pt" height="102pt"
 viewBox="0.00 0.00 3064.00 102.00" xmlns="http://www.w3.org/2000/svg" xmlns:xlink="http://www.w3.org/1999/xlink">
<g id="graph0" class="graph" transform="scale(1 1) rotate(0) translate(4 98)">
<title>ui.GUI.addCommandHistory</title>
<polygon fill="white" stroke="none" points="-4,4 -4,-98 3060,-98 3060,4 -4,4"/>
<!-- Node1 -->
<g id="node1" class="node"><title>Node1</title>
<polygon fill="#bfbfbf" stroke="black" points="0,-30.5 0,-49.5 150,-49.5 150,-30.5 0,-30.5"/>
<text text-anchor="middle" x="75" y="-37.5" font-family="Helvetica,sans-Serif" font-size="10.00">ui.GUI.addCommandHistory</text>
</g>
<!-- Node2 -->
<g id="node2" class="node"><title>Node2</title>
<g id="a_node2"><a xlink:href="../../d5/d06/classui_1_1_scene_updater.html#ac93c2b014447efef3a09141521fb4d9e" target="_top" xlink:title="ui.SceneUpdater.addCommand\lHistory">
<polygon fill="white" stroke="black" points="186.5,-25 186.5,-55 353.5,-55 353.5,-25 186.5,-25"/>
<text text-anchor="start" x="194.5" y="-43" font-family="Helvetica,sans-Serif" font-size="10.00">ui.SceneUpdater.addCommand</text>
<text text-anchor="middle" x="270" y="-32" font-family="Helvetica,sans-Serif" font-size="10.00">History</text>
</a>
</g>
</g>
<!-- Node1&#45;&gt;Node2 -->
<g id="edge1" class="edge"><title>Node1&#45;&gt;Node2</title>
<path fill="none" stroke="midnightblue" d="M160.21,-40C168.918,-40 177.761,-40 186.451,-40"/>
<polygon fill="midnightblue" stroke="midnightblue" points="160.067,-36.5001 150.067,-40 160.067,-43.5001 160.067,-36.5001"/>
</g>
<!-- Node3 -->
<g id="node3" class="node"><title>Node3</title>
<g id="a_node3"><a xlink:href="../../d9/df7/classcontroller_1_1_controller.html#a3d81fb1a57114f96fb6c319f4c5df370" target="_top" xlink:title="controller.Controller.parse\lCommand">
<polygon fill="white" stroke="black" points="390,-50 390,-80 530,-80 530,-50 390,-50"/>
<text text-anchor="start" x="398" y="-68" font-family="Helvetica,sans-Serif" font-size="10.00">controller.Controller.parse</text>
<text text-anchor="middle" x="460" y="-57" font-family="Helvetica,sans-Serif" font-size="10.00">Command</text>
</a>
</g>
</g>
<!-- Node2&#45;&gt;Node3 -->
<g id="edge2" class="edge"><title>Node2&#45;&gt;Node3</title>
<path fill="none" stroke="midnightblue" d="M363.915,-52.3557C372.609,-53.5118 381.314,-54.6695 389.735,-55.7893"/>
<polygon fill="midnightblue" stroke="midnightblue" points="364.107,-48.8506 353.733,-51.0017 363.184,-55.7895 364.107,-48.8506"/>
</g>
<!-- Node20 -->
<g id="node20" class="node"><title>Node20</title>
<g id="a_node20"><a xlink:href="../../d9/df7/classcontroller_1_1_controller.html#a2dc441a48a86dce731d5bb2dd76b3381" target="_top" xlink:title="controller.Controller.add\lCommandHistory">
<polygon fill="white" stroke="black" points="394.5,-1 394.5,-31 525.5,-31 525.5,-1 394.5,-1"/>
<text text-anchor="start" x="402.5" y="-19" font-family="Helvetica,sans-Serif" font-size="10.00">controller.Controller.add</text>
<text text-anchor="middle" x="460" y="-8" font-family="Helvetica,sans-Serif" font-size="10.00">CommandHistory</text>
</a>
</g>
</g>
<!-- Node2&#45;&gt;Node20 -->
<g id="edge19" class="edge"><title>Node2&#45;&gt;Node20</title>
<path fill="none" stroke="midnightblue" d="M363.971,-28.1314C374.232,-26.8214 384.51,-25.5094 394.314,-24.2577"/>
<polygon fill="midnightblue" stroke="midnightblue" points="363.209,-24.7001 353.733,-29.4383 364.096,-31.6437 363.209,-24.7001"/>
</g>
<!-- Node4 -->
<g id="node4" class="node"><title>Node4</title>
<g id="a_node4"><a xlink:href="../../d5/d06/classui_1_1_scene_updater.html#ab77a04f8b0038429b09237aac18906e8" target="_top" xlink:title="ui.SceneUpdater.sendCommands">
<polygon fill="white" stroke="black" points="566,-55.5 566,-74.5 744,-74.5 744,-55.5 566,-55.5"/>
<text text-anchor="middle" x="655" y="-62.5" font-family="Helvetica,sans-Serif" font-size="10.00">ui.SceneUpdater.sendCommands</text>
</a>
</g>
</g>
<!-- Node3&#45;&gt;Node4 -->
<g id="edge3" class="edge"><title>Node3&#45;&gt;Node4</title>
<path fill="none" stroke="midnightblue" d="M540.294,-65C548.713,-65 557.313,-65 565.825,-65"/>
<polygon fill="midnightblue" stroke="midnightblue" points="540.132,-61.5001 530.132,-65 540.132,-68.5001 540.132,-61.5001"/>
</g>
<!-- Node5 -->
<g id="node5" class="node"><title>Node5</title>
<g id="a_node5"><a xlink:href="../../dc/d3b/classui_1_1_g_u_i.html#ad8f08a79a20a498bcaafdc7e2e2ce0a9" target="_top" xlink:title="ui.GUI.parseCommand">
<polygon fill="white" stroke="black" points="780.5,-55.5 780.5,-74.5 905.5,-74.5 905.5,-55.5 780.5,-55.5"/>
<text text-anchor="middle" x="843" y="-62.5" font-family="Helvetica,sans-Serif" font-size="10.00">ui.GUI.parseCommand</text>
</a>
</g>
</g>
<!-- Node4&#45;&gt;Node5 -->
<g id="edge4" class="edge"><title>Node4&#45;&gt;Node5</title>
<path fill="none" stroke="midnightblue" d="M754.196,-65C763.132,-65 772.003,-65 780.479,-65"/>
<polygon fill="midnightblue" stroke="midnightblue" points="754.098,-61.5001 744.098,-65 754.098,-68.5001 754.098,-61.5001"/>
</g>
<!-- Node6 -->
<g id="node6" class="node"><title>Node6</title>
<g id="a_node6"><a xlink:href="../../d8/d3c/classui_1_1elements_1_1_i_o_element.html#a139a046f0c771f86696f2eee04047c64" target="_top" xlink:title="ui.elements.IOElement.init">
<polygon fill="white" stroke="black" points="958.5,-74.5 958.5,-93.5 1101.5,-93.5 1101.5,-74.5 958.5,-74.5"/>
<text text-anchor="middle" x="1030" y="-81.5" font-family="Helvetica,sans-Serif" font-size="10.00">ui.elements.IOElement.init</text>
</a>
</g>
</g>
<!-- Node5&#45;&gt;Node6 -->
<g id="edge5" class="edge"><title>Node5&#45;&gt;Node6</title>
<path fill="none" stroke="midnightblue" d="M915.677,-72.3614C929.703,-73.8019 944.403,-75.3116 958.393,-76.7485"/>
<polygon fill="midnightblue" stroke="midnightblue" points="915.908,-68.8668 905.602,-71.3267 915.192,-75.8302 915.908,-68.8668"/>
</g>
<!-- Node8 -->
<g id="node8" class="node"><title>Node8</title>
<g id="a_node8"><a xlink:href="../../dc/d3b/classui_1_1_g_u_i.html#ab8ec2a37b3d5bd9e8c2abbb3642fb965" target="_top" xlink:title="ui.GUI.setupKeyboardCommands">
<polygon fill="white" stroke="black" points="942.5,-36.5 942.5,-55.5 1117.5,-55.5 1117.5,-36.5 942.5,-36.5"/>
<text text-anchor="middle" x="1030" y="-43.5" font-family="Helvetica,sans-Serif" font-size="10.00">ui.GUI.setupKeyboardCommands</text>
</a>
</g>
</g>
<!-- Node5&#45;&gt;Node8 -->
<g id="edge7" class="edge"><title>Node5&#45;&gt;Node8</title>
<path fill="none" stroke="midnightblue" d="M915.694,-57.6368C924.41,-56.7417 933.385,-55.8199 942.289,-54.9054"/>
<polygon fill="midnightblue" stroke="midnightblue" points="915.192,-54.1698 905.602,-58.6733 915.908,-61.1332 915.192,-54.1698"/>
</g>
<!-- Node7 -->
<g id="node7" class="node"><title>Node7</title>
<g id="a_node7"><a xlink:href="../../d8/d3c/classui_1_1elements_1_1_i_o_element.html#a556e1a3ad292fe3ab731065eef59b187" target="_top" xlink:title="ui.elements.IOElement.IOElement">
<polygon fill="white" stroke="black" points="1154,-74.5 1154,-93.5 1332,-93.5 1332,-74.5 1154,-74.5"/>
<text text-anchor="middle" x="1243" y="-81.5" font-family="Helvetica,sans-Serif" font-size="10.00">ui.elements.IOElement.IOElement</text>
</a>
</g>
</g>
<!-- Node6&#45;&gt;Node7 -->
<g id="edge6" class="edge"><title>Node6&#45;&gt;Node7</title>
<path fill="none" stroke="midnightblue" d="M1111.92,-84C1125.65,-84 1139.97,-84 1153.88,-84"/>
<polygon fill="midnightblue" stroke="midnightblue" points="1111.55,-80.5001 1101.55,-84 1111.55,-87.5001 1111.55,-80.5001"/>
</g>
<!-- Node9 -->
<g id="node9" class="node"><title>Node9</title>
<g id="a_node9"><a xlink:href="../../dc/d3b/classui_1_1_g_u_i.html#a765d554102f38969231261686f2f8e27" target="_top" xlink:title="ui.GUI.initialize">
<polygon fill="white" stroke="black" points="1200,-36.5 1200,-55.5 1286,-55.5 1286,-36.5 1200,-36.5"/>
<text text-anchor="middle" x="1243" y="-43.5" font-family="Helvetica,sans-Serif" font-size="10.00">ui.GUI.initialize</text>
</a>
</g>
</g>
<!-- Node8&#45;&gt;Node9 -->
<g id="edge8" class="edge"><title>Node8&#45;&gt;Node9</title>
<path fill="none" stroke="midnightblue" d="M1127.75,-46C1153.02,-46 1178.96,-46 1199.72,-46"/>
<polygon fill="midnightblue" stroke="midnightblue" points="1127.74,-42.5001 1117.74,-46 1127.74,-49.5001 1127.74,-42.5001"/>
</g>
<!-- Node10 -->
<g id="node10" class="node"><title>Node10</title>
<g id="a_node10"><a xlink:href="../../d5/d06/classui_1_1_scene_updater.html#aeef5dd7a8ec2ad6179e33fdd71ea90d6" target="_top" xlink:title="ui.SceneUpdater.initGUI">
<polygon fill="white" stroke="black" points="1368.5,-36.5 1368.5,-55.5 1499.5,-55.5 1499.5,-36.5 1368.5,-36.5"/>
<text text-anchor="middle" x="1434" y="-43.5" font-family="Helvetica,sans-Serif" font-size="10.00">ui.SceneUpdater.initGUI</text>
</a>
</g>
</g>
<!-- Node9&#45;&gt;Node10 -->
<g id="edge9" class="edge"><title>Node9&#45;&gt;Node10</title>
<path fill="none" stroke="midnightblue" d="M1296.67,-46C1318.92,-46 1345.05,-46 1368.45,-46"/>
<polygon fill="midnightblue" stroke="midnightblue" points="1296.42,-42.5001 1286.42,-46 1296.42,-49.5001 1296.42,-42.5001"/>
</g>
<!-- Node11 -->
<g id="node11" class="node"><title>Node11</title>
<g id="a_node11"><a xlink:href="../../d9/df7/classcontroller_1_1_controller.html#a57e42ba83ee2145e6262cd72eac59570" target="_top" xlink:title="controller.Controller.init">
<polygon fill="white" stroke="black" points="1536.5,-36.5 1536.5,-55.5 1663.5,-55.5 1663.5,-36.5 1536.5,-36.5"/>
<text text-anchor="middle" x="1600" y="-43.5" font-family="Helvetica,sans-Serif" font-size="10.00">controller.Controller.init</text>
</a>
</g>
</g>
<!-- Node10&#45;&gt;Node11 -->
<g id="edge10" class="edge"><title>Node10&#45;&gt;Node11</title>
<path fill="none" stroke="midnightblue" d="M1510.04,-46C1518.81,-46 1527.68,-46 1536.26,-46"/>
<polygon fill="midnightblue" stroke="midnightblue" points="1509.82,-42.5001 1499.82,-46 1509.82,-49.5001 1509.82,-42.5001"/>
</g>
<!-- Node12 -->
<g id="node12" class="node"><title>Node12</title>
<g id="a_node12"><a xlink:href="../../dd/df2/classmain_1_1_workspace_manager.html#abc818b59211f6e14940b86a42bb868d0" target="_top" xlink:title="main.WorkspaceManager.create\lWorkspace">
<polygon fill="white" stroke="black" points="1700,-31 1700,-61 1870,-61 1870,-31 1700,-31"/>
<text text-anchor="start" x="1708" y="-49" font-family="Helvetica,sans-Serif" font-size="10.00">main.WorkspaceManager.create</text>
<text text-anchor="middle" x="1785" y="-38" font-family="Helvetica,sans-Serif" font-size="10.00">Workspace</text>
</a>
</g>
</g>
<!-- Node11&#45;&gt;Node12 -->
<g id="edge11" class="edge"><title>Node11&#45;&gt;Node12</title>
<path fill="none" stroke="midnightblue" d="M1673.92,-46C1682.39,-46 1691.08,-46 1699.69,-46"/>
<polygon fill="midnightblue" stroke="midnightblue" points="1673.72,-42.5001 1663.72,-46 1673.72,-49.5001 1673.72,-42.5001"/>
</g>
<!-- Node13 -->
<g id="node13" class="node"><title>Node13</title>
<g id="a_node13"><a xlink:href="../../d9/df7/classcontroller_1_1_controller.html#a3a9d672bb57047df70945ad1a9582c9a" target="_top" xlink:title="controller.Controller.create\lNewWorkspace">
<polygon fill="white" stroke="black" points="1906.5,-53 1906.5,-83 2049.5,-83 2049.5,-53 1906.5,-53"/>
<text text-anchor="start" x="1914.5" y="-71" font-family="Helvetica,sans-Serif" font-size="10.00">controller.Controller.create</text>
<text text-anchor="middle" x="1978" y="-60" font-family="Helvetica,sans-Serif" font-size="10.00">NewWorkspace</text>
</a>
</g>
</g>
<!-- Node12&#45;&gt;Node13 -->
<g id="edge12" class="edge"><title>Node12&#45;&gt;Node13</title>
<path fill="none" stroke="midnightblue" d="M1880.03,-56.8303C1888.88,-57.8503 1897.75,-58.8721 1906.34,-59.8608"/>
<polygon fill="midnightblue" stroke="midnightblue" points="1880.39,-53.3489 1870.05,-55.6815 1879.59,-60.3029 1880.39,-53.3489"/>
</g>
<!-- Node19 -->
<g id="node19" class="node"><title>Node19</title>
<g id="a_node19"><a xlink:href="../../d1/d0b/classmain_1_1_main.html#a9f1e5657b2f6f9bdd69a3b6412ceda74" target="_top" xlink:title="main.Main.start">
<polygon fill="white" stroke="black" points="1932,-14.5 1932,-33.5 2024,-33.5 2024,-14.5 1932,-14.5"/>
<text text-anchor="middle" x="1978" y="-21.5" font-family="Helvetica,sans-Serif" font-size="10.00">main.Main.start</text>
</a>
</g>
</g>
<!-- Node12&#45;&gt;Node19 -->
<g id="edge18" class="edge"><title>Node12&#45;&gt;Node19</title>
<path fill="none" stroke="midnightblue" d="M1880.09,-35.1629C1898.19,-33.0779 1916.36,-30.9851 1931.99,-29.1843"/>
<polygon fill="midnightblue" stroke="midnightblue" points="1879.59,-31.6971 1870.05,-36.3185 1880.39,-38.6511 1879.59,-31.6971"/>
</g>
<!-- Node14 -->
<g id="node14" class="node"><title>Node14</title>
<g id="a_node14"><a xlink:href="../../d5/d06/classui_1_1_scene_updater.html#a2858ad8edb0c0f59a21e2ae015f2fa1e" target="_top" xlink:title="ui.SceneUpdater.createNew\lWorkspace">
<polygon fill="white" stroke="black" points="2086,-53 2086,-83 2236,-83 2236,-53 2086,-53"/>
<text text-anchor="start" x="2094" y="-71" font-family="Helvetica,sans-Serif" font-size="10.00">ui.SceneUpdater.createNew</text>
<text text-anchor="middle" x="2161" y="-60" font-family="Helvetica,sans-Serif" font-size="10.00">Workspace</text>
</a>
</g>
</g>
<!-- Node13&#45;&gt;Node14 -->
<g id="edge13" class="edge"><title>Node13&#45;&gt;Node14</title>
<path fill="none" stroke="midnightblue" d="M2059.8,-68C2068.43,-68 2077.17,-68 2085.71,-68"/>
<polygon fill="midnightblue" stroke="midnightblue" points="2059.76,-64.5001 2049.76,-68 2059.76,-71.5001 2059.76,-64.5001"/>
</g>
<!-- Node15 -->
<g id="node15" class="node"><title>Node15</title>
<g id="a_node15"><a xlink:href="../../dc/d3b/classui_1_1_g_u_i.html#a2edc294ba07311e6c4b85c9fe749d1bf" target="_top" xlink:title="ui.GUI.createNewWorkspace">
<polygon fill="white" stroke="black" points="2272,-58.5 2272,-77.5 2422,-77.5 2422,-58.5 2272,-58.5"/>
<text text-anchor="middle" x="2347" y="-65.5" font-family="Helvetica,sans-Serif" font-size="10.00">ui.GUI.createNewWorkspace</text>
</a>
</g>
</g>
<!-- Node14&#45;&gt;Node15 -->
<g id="edge14" class="edge"><title>Node14&#45;&gt;Node15</title>
<path fill="none" stroke="midnightblue" d="M2246.07,-68C2254.65,-68 2263.34,-68 2271.81,-68"/>
<polygon fill="midnightblue" stroke="midnightblue" points="2246.04,-64.5001 2236.04,-68 2246.04,-71.5001 2246.04,-64.5001"/>
</g>
<!-- Node16 -->
<g id="node16" class="node"><title>Node16</title>
<g id="a_node16"><a xlink:href="../../d0/de6/classui_1_1elements_1_1_menu_bar_element.html#a98c13995a31d997aa10f2950583da6cc" target="_top" xlink:title="ui.elements.MenuBarElement.make\lMenuBar">
<polygon fill="white" stroke="black" points="2458,-53 2458,-83 2646,-83 2646,-53 2458,-53"/>
<text text-anchor="start" x="2466" y="-71" font-family="Helvetica,sans-Serif" font-size="10.00">ui.elements.MenuBarElement.make</text>
<text text-anchor="middle" x="2552" y="-60" font-family="Helvetica,sans-Serif" font-size="10.00">MenuBar</text>
</a>
</g>
</g>
<!-- Node15&#45;&gt;Node16 -->
<g id="edge15" class="edge"><title>Node15&#45;&gt;Node16</title>
<path fill="none" stroke="midnightblue" d="M2432.28,-68C2440.66,-68 2449.21,-68 2457.68,-68"/>
<polygon fill="midnightblue" stroke="midnightblue" points="2432.15,-64.5001 2422.15,-68 2432.15,-71.5001 2432.15,-64.5001"/>
</g>
<!-- Node17 -->
<g id="node17" class="node"><title>Node17</title>
<g id="a_node17"><a xlink:href="../../d0/de6/classui_1_1elements_1_1_menu_bar_element.html#a7bdb58f78cf8b61ba28498c5c86ab682" target="_top" xlink:title="ui.elements.MenuBarElement.init">
<polygon fill="white" stroke="black" points="2682,-58.5 2682,-77.5 2858,-77.5 2858,-58.5 2682,-58.5"/>
<text text-anchor="middle" x="2770" y="-65.5" font-family="Helvetica,sans-Serif" font-size="10.00">ui.elements.MenuBarElement.init</text>
</a>
</g>
</g>
<!-- Node16&#45;&gt;Node17 -->
<g id="edge16" class="edge"><title>Node16&#45;&gt;Node17</title>
<path fill="none" stroke="midnightblue" d="M2656.23,-68C2664.83,-68 2673.48,-68 2681.94,-68"/>
<polygon fill="midnightblue" stroke="midnightblue" points="2656.17,-64.5001 2646.17,-68 2656.17,-71.5001 2656.17,-64.5001"/>
</g>
<!-- Node18 -->
<g id="node18" class="node"><title>Node18</title>
<g id="a_node18"><a xlink:href="../../d0/de6/classui_1_1elements_1_1_menu_bar_element.html#ab4a4e6841c924a9d9c70b8073b56dffc" target="_top" xlink:title="ui.elements.MenuBarElement.\lMenuBarElement">
<polygon fill="white" stroke="black" points="2894.5,-53 2894.5,-83 3055.5,-83 3055.5,-53 2894.5,-53"/>
<text text-anchor="start" x="2902.5" y="-71" font-family="Helvetica,sans-Serif" font-size="10.00">ui.elements.MenuBarElement.</text>
<text text-anchor="middle" x="2975" y="-60" font-family="Helvetica,sans-Serif" font-size="10.00">MenuBarElement</text>
</a>
</g>
</g>
<!-- Node17&#45;&gt;Node18 -->
<g id="edge17" class="edge"><title>Node17&#45;&gt;Node18</title>
<path fill="none" stroke="midnightblue" d="M2868.47,-68C2877.19,-68 2885.95,-68 2894.5,-68"/>
<polygon fill="midnightblue" stroke="midnightblue" points="2868.27,-64.5001 2858.27,-68 2868.27,-71.5001 2868.27,-64.5001"/>
</g>
</g>
</svg>
