<?xml version="1.0" encoding="UTF-8" standalone="no"?>
<!DOCTYPE svg PUBLIC "-//W3C//DTD SVG 1.1//EN"
 "http://www.w3.org/Graphics/SVG/1.1/DTD/svg11.dtd">
<!-- Generated by graphviz version 2.36.0 (20140111.2315)
 -->
<!-- Title: ui.GUI.setInputText Pages: 1 -->
<svg width="672pt" height="38pt"
 viewBox="0.00 0.00 672.00 38.00" xmlns="http://www.w3.org/2000/svg" xmlns:xlink="http://www.w3.org/1999/xlink">
<g id="graph0" class="graph" transform="scale(1 1) rotate(0) translate(4 34)">
<title>ui.GUI.setInputText</title>
<polygon fill="white" stroke="none" points="-4,4 -4,-34 668,-34 668,4 -4,4"/>
<!-- Node1 -->
<g id="node1" class="node"><title>Node1</title>
<polygon fill="#bfbfbf" stroke="black" points="0,-5.5 0,-24.5 106,-24.5 106,-5.5 0,-5.5"/>
<text text-anchor="middle" x="53" y="-12.5" font-family="Helvetica,sans-Serif" font-size="10.00">ui.GUI.setInputText</text>
</g>
<!-- Node2 -->
<g id="node2" class="node"><title>Node2</title>
<g id="a_node2"><a xlink:href="../../d6/dd8/classui_1_1elements_1_1_info_element.html#a0751ba2956cfc8eb22668ac7dd5b1e88" target="_top" xlink:title="ui.elements.InfoElement.make\lTable">
<polygon fill="white" stroke="black" points="142.5,-0 142.5,-30 305.5,-30 305.5,-0 142.5,-0"/>
<text text-anchor="start" x="150.5" y="-18" font-family="Helvetica,sans-Serif" font-size="10.00">ui.elements.InfoElement.make</text>
<text text-anchor="middle" x="224" y="-7" font-family="Helvetica,sans-Serif" font-size="10.00">Table</text>
</a>
</g>
</g>
<!-- Node1&#45;&gt;Node2 -->
<g id="edge1" class="edge"><title>Node1&#45;&gt;Node2</title>
<path fill="none" stroke="midnightblue" d="M116.306,-15C124.838,-15 133.696,-15 142.495,-15"/>
<polygon fill="midnightblue" stroke="midnightblue" points="116.085,-11.5001 106.085,-15 116.085,-18.5001 116.085,-11.5001"/>
</g>
<!-- Node3 -->
<g id="node3" class="node"><title>Node3</title>
<g id="a_node3"><a xlink:href="../../d6/dd8/classui_1_1elements_1_1_info_element.html#a903c163f8db1ff4a909d837c202c25ba" target="_top" xlink:title="ui.elements.InfoElement.init">
<polygon fill="white" stroke="black" points="342,-5.5 342,-24.5 492,-24.5 492,-5.5 342,-5.5"/>
<text text-anchor="middle" x="417" y="-12.5" font-family="Helvetica,sans-Serif" font-size="10.00">ui.elements.InfoElement.init</text>
</a>
</g>
</g>
<!-- Node2&#45;&gt;Node3 -->
<g id="edge2" class="edge"><title>Node2&#45;&gt;Node3</title>
<path fill="none" stroke="midnightblue" d="M315.92,-15C324.639,-15 333.41,-15 341.94,-15"/>
<polygon fill="midnightblue" stroke="midnightblue" points="315.724,-11.5001 305.724,-15 315.724,-18.5001 315.724,-11.5001"/>
</g>
<!-- Node4 -->
<g id="node4" class="node"><title>Node4</title>
<g id="a_node4"><a xlink:href="../../d6/dd8/classui_1_1elements_1_1_info_element.html#a74e5d4ca26d93950429bd7e287ac12e3" target="_top" xlink:title="ui.elements.InfoElement.\lInfoElement">
<polygon fill="white" stroke="black" points="528,-0 528,-30 664,-30 664,-0 528,-0"/>
<text text-anchor="start" x="536" y="-18" font-family="Helvetica,sans-Serif" font-size="10.00">ui.elements.InfoElement.</text>
<text text-anchor="middle" x="596" y="-7" font-family="Helvetica,sans-Serif" font-size="10.00">InfoElement</text>
</a>
</g>
</g>
<!-- Node3&#45;&gt;Node4 -->
<g id="edge3" class="edge"><title>Node3&#45;&gt;Node4</title>
<path fill="none" stroke="midnightblue" d="M502.094,-15C510.699,-15 519.359,-15 527.749,-15"/>
<polygon fill="midnightblue" stroke="midnightblue" points="502.038,-11.5001 492.038,-15 502.038,-18.5001 502.038,-11.5001"/>
</g>
</g>
</svg>
