<?xml version="1.0" encoding="UTF-8" standalone="no"?>
<!DOCTYPE svg PUBLIC "-//W3C//DTD SVG 1.1//EN"
 "http://www.w3.org/Graphics/SVG/1.1/DTD/svg11.dtd">
<!-- Generated by graphviz version 2.36.0 (20140111.2315)
 -->
<!-- Title: ui.GUI.initialize Pages: 1 -->
<svg width="1824pt" height="729pt"
 viewBox="0.00 0.00 1824.00 729.00" xmlns="http://www.w3.org/2000/svg" xmlns:xlink="http://www.w3.org/1999/xlink">
<g id="graph0" class="graph" transform="scale(1 1) rotate(0) translate(4 725)">
<title>ui.GUI.initialize</title>
<polygon fill="white" stroke="none" points="-4,4 -4,-725 1820,-725 1820,4 -4,4"/>
<!-- Node1 -->
<g id="node1" class="node"><title>Node1</title>
<polygon fill="#bfbfbf" stroke="black" points="0,-378.5 0,-397.5 86,-397.5 86,-378.5 0,-378.5"/>
<text text-anchor="middle" x="43" y="-385.5" font-family="Helvetica,sans-Serif" font-size="10.00">ui.GUI.initialize</text>
</g>
<!-- Node2 -->
<g id="node2" class="node"><title>Node2</title>
<g id="a_node2"><a xlink:href="../../d8/d6d/classui_1_1elements_1_1_canvas_element.html#a2e31f129014b25b8f6e3e6d76f977f99" target="_top" xlink:title="ui.elements.CanvasElement.get\lBaseNode">
<polygon fill="white" stroke="black" points="346,-496 346,-526 516,-526 516,-496 346,-496"/>
<text text-anchor="start" x="354" y="-514" font-family="Helvetica,sans-Serif" font-size="10.00">ui.elements.CanvasElement.get</text>
<text text-anchor="middle" x="431" y="-503" font-family="Helvetica,sans-Serif" font-size="10.00">BaseNode</text>
</a>
</g>
</g>
<!-- Node1&#45;&gt;Node2 -->
<g id="edge1" class="edge"><title>Node1&#45;&gt;Node2</title>
<path fill="none" stroke="midnightblue" d="M46.1698,-397.796C52.5101,-423.755 73.6953,-494.225 122,-522 201.417,-567.664 312.37,-547.328 377.155,-528.848"/>
<polygon fill="midnightblue" stroke="midnightblue" points="378.15,-532.204 386.757,-526.026 376.176,-525.488 378.15,-532.204"/>
</g>
<!-- Node3 -->
<g id="node3" class="node"><title>Node3</title>
<g id="a_node3"><a xlink:href="../../d8/d3c/classui_1_1elements_1_1_i_o_element.html#ab855338d8044358da57654cf11331daf" target="_top" xlink:title="ui.elements.IOElement.get\lBaseNode">
<polygon fill="white" stroke="black" points="144,-483 144,-513 288,-513 288,-483 144,-483"/>
<text text-anchor="start" x="152" y="-501" font-family="Helvetica,sans-Serif" font-size="10.00">ui.elements.IOElement.get</text>
<text text-anchor="middle" x="216" y="-490" font-family="Helvetica,sans-Serif" font-size="10.00">BaseNode</text>
</a>
</g>
</g>
<!-- Node1&#45;&gt;Node3 -->
<g id="edge2" class="edge"><title>Node1&#45;&gt;Node3</title>
<path fill="none" stroke="midnightblue" d="M50.829,-397.601C63.1761,-414.282 90.8419,-448.68 122,-468 128.868,-472.259 136.4,-475.971 144.11,-479.193"/>
<polygon fill="midnightblue" stroke="midnightblue" points="142.984,-482.51 153.572,-482.884 145.528,-475.989 142.984,-482.51"/>
</g>
<!-- Node4 -->
<g id="node4" class="node"><title>Node4</title>
<g id="a_node4"><a xlink:href="../../d6/dd8/classui_1_1elements_1_1_info_element.html#ac831e7ac05bb270f9b916f7471d0e9bb" target="_top" xlink:title="ui.elements.InfoElement.get\lBaseNode">
<polygon fill="white" stroke="black" points="355,-417 355,-447 507,-447 507,-417 355,-417"/>
<text text-anchor="start" x="363" y="-435" font-family="Helvetica,sans-Serif" font-size="10.00">ui.elements.InfoElement.get</text>
<text text-anchor="middle" x="431" y="-424" font-family="Helvetica,sans-Serif" font-size="10.00">BaseNode</text>
</a>
</g>
</g>
<!-- Node1&#45;&gt;Node4 -->
<g id="edge3" class="edge"><title>Node1&#45;&gt;Node4</title>
<path fill="none" stroke="midnightblue" d="M55.5094,-397.505C69.9755,-408.775 96.0653,-426.922 122,-434 195.177,-453.971 281.826,-451.195 344.549,-444.75"/>
<polygon fill="midnightblue" stroke="midnightblue" points="345.229,-448.197 354.795,-443.642 344.477,-441.237 345.229,-448.197"/>
</g>
<!-- Node5 -->
<g id="node5" class="node"><title>Node5</title>
<g id="a_node5"><a xlink:href="../../d0/de6/classui_1_1elements_1_1_menu_bar_element.html#a86dbba3f5d52841893537e0a42dd3d75" target="_top" xlink:title="ui.elements.MenuBarElement.get\lBaseNode">
<polygon fill="white" stroke="black" points="127.5,-395 127.5,-425 304.5,-425 304.5,-395 127.5,-395"/>
<text text-anchor="start" x="135.5" y="-413" font-family="Helvetica,sans-Serif" font-size="10.00">ui.elements.MenuBarElement.get</text>
<text text-anchor="middle" x="216" y="-402" font-family="Helvetica,sans-Serif" font-size="10.00">BaseNode</text>
</a>
</g>
</g>
<!-- Node1&#45;&gt;Node5 -->
<g id="edge4" class="edge"><title>Node1&#45;&gt;Node5</title>
<path fill="none" stroke="midnightblue" d="M86.2697,-393.438C95.8864,-394.675 106.493,-396.04 117.367,-397.439"/>
<polygon fill="midnightblue" stroke="midnightblue" points="117.043,-400.926 127.408,-398.731 117.937,-393.983 117.043,-400.926"/>
</g>
<!-- Node6 -->
<g id="node6" class="node"><title>Node6</title>
<g id="a_node6"><a xlink:href="../../d8/d6d/classui_1_1elements_1_1_canvas_element.html#a0bd90830736ace544582f1fe98dc929f" target="_top" xlink:title="ui.elements.CanvasElement.get\lCanvas">
<polygon fill="white" stroke="black" points="346,-288 346,-318 516,-318 516,-288 346,-288"/>
<text text-anchor="start" x="354" y="-306" font-family="Helvetica,sans-Serif" font-size="10.00">ui.elements.CanvasElement.get</text>
<text text-anchor="middle" x="431" y="-295" font-family="Helvetica,sans-Serif" font-size="10.00">Canvas</text>
</a>
</g>
</g>
<!-- Node1&#45;&gt;Node6 -->
<g id="edge5" class="edge"><title>Node1&#45;&gt;Node6</title>
<path fill="none" stroke="midnightblue" d="M48.7705,-378.26C58.9976,-358.647 85.1355,-314.833 122,-298 198.769,-262.945 297.93,-273.008 362.704,-285.885"/>
<polygon fill="midnightblue" stroke="midnightblue" points="362.295,-289.375 372.796,-287.97 363.711,-282.519 362.295,-289.375"/>
</g>
<!-- Node7 -->
<g id="node7" class="node"><title>Node7</title>
<g id="a_node7"><a xlink:href="../../df/d9f/classui_1_1elements_1_1_t_properties_element.html#ad1126c650a2ce8174487932a3779f821" target="_top" xlink:title="ui.elements.TPropertiesElement.get\lMyBaseNode">
<polygon fill="white" stroke="black" points="122,-307 122,-337 310,-337 310,-307 122,-307"/>
<text text-anchor="start" x="130" y="-325" font-family="Helvetica,sans-Serif" font-size="10.00">ui.elements.TPropertiesElement.get</text>
<text text-anchor="middle" x="216" y="-314" font-family="Helvetica,sans-Serif" font-size="10.00">MyBaseNode</text>
</a>
</g>
</g>
<!-- Node1&#45;&gt;Node7 -->
<g id="edge6" class="edge"><title>Node1&#45;&gt;Node7</title>
<path fill="none" stroke="midnightblue" d="M59.6452,-378.45C75.0562,-369.366 99.4929,-355.815 122,-347 128.276,-344.542 134.881,-342.238 141.557,-340.101"/>
<polygon fill="midnightblue" stroke="midnightblue" points="142.826,-343.373 151.357,-337.091 140.77,-336.682 142.826,-343.373"/>
</g>
<!-- Node8 -->
<g id="node8" class="node"><title>Node8</title>
<g id="a_node8"><a xlink:href="../../dc/d3b/classui_1_1_g_u_i.html#a0337dd1c0a04ce5b2475037e66b5e3a7" target="_top" xlink:title="ui.GUI.makeTurtleView">
<polygon fill="white" stroke="black" points="155,-356.5 155,-375.5 277,-375.5 277,-356.5 155,-356.5"/>
<text text-anchor="middle" x="216" y="-363.5" font-family="Helvetica,sans-Serif" font-size="10.00">ui.GUI.makeTurtleView</text>
</a>
</g>
</g>
<!-- Node1&#45;&gt;Node8 -->
<g id="edge7" class="edge"><title>Node1&#45;&gt;Node8</title>
<path fill="none" stroke="midnightblue" d="M86.2697,-382.562C103.953,-380.287 124.984,-377.581 144.868,-375.023"/>
<polygon fill="midnightblue" stroke="midnightblue" points="145.355,-378.489 154.826,-373.742 144.462,-371.546 145.355,-378.489"/>
</g>
<!-- Node12 -->
<g id="node12" class="node"><title>Node12</title>
<g id="a_node12"><a xlink:href="../../dc/d3b/classui_1_1_g_u_i.html#ab8ec2a37b3d5bd9e8c2abbb3642fb965" target="_top" xlink:title="ui.GUI.setupKeyboardCommands">
<polygon fill="white" stroke="black" points="128.5,-230.5 128.5,-249.5 303.5,-249.5 303.5,-230.5 128.5,-230.5"/>
<text text-anchor="middle" x="216" y="-237.5" font-family="Helvetica,sans-Serif" font-size="10.00">ui.GUI.setupKeyboardCommands</text>
</a>
</g>
</g>
<!-- Node1&#45;&gt;Node12 -->
<g id="edge14" class="edge"><title>Node1&#45;&gt;Node12</title>
<path fill="none" stroke="midnightblue" d="M47.2848,-378.172C55.6918,-354.582 80.3111,-294.455 122,-264 127.924,-259.672 134.56,-256.123 141.486,-253.212"/>
<polygon fill="midnightblue" stroke="midnightblue" points="142.933,-256.408 151.073,-249.627 140.481,-249.852 142.933,-256.408"/>
</g>
<!-- Node8&#45;&gt;Node2 -->
<g id="edge9" class="edge"><title>Node8&#45;&gt;Node2</title>
<path fill="none" stroke="midnightblue" d="M277.441,-370.935C289.076,-374.022 300.561,-378.768 310,-386 337.77,-407.278 322.591,-430.002 346,-456 358.48,-469.861 375.203,-481.743 390.44,-490.879"/>
<polygon fill="midnightblue" stroke="midnightblue" points="388.787,-493.966 399.197,-495.936 392.287,-487.904 388.787,-493.966"/>
</g>
<!-- Node8&#45;&gt;Node4 -->
<g id="edge13" class="edge"><title>Node8&#45;&gt;Node4</title>
<path fill="none" stroke="midnightblue" d="M268.524,-375.6C282.119,-378.535 296.703,-382.047 310,-386 335.43,-393.559 363.125,-404.02 385.494,-413.056"/>
<polygon fill="midnightblue" stroke="midnightblue" points="384.47,-416.419 395.051,-416.96 387.117,-409.938 384.47,-416.419"/>
</g>
<!-- Node8&#45;&gt;Node6 -->
<g id="edge8" class="edge"><title>Node8&#45;&gt;Node6</title>
<path fill="none" stroke="midnightblue" d="M267.497,-356.41C281.365,-353.433 296.342,-349.897 310,-346 334.285,-339.071 360.763,-329.775 382.654,-321.599"/>
<polygon fill="midnightblue" stroke="midnightblue" points="383.928,-324.859 392.049,-318.055 381.457,-318.31 383.928,-324.859"/>
</g>
<!-- Node9 -->
<g id="node9" class="node"><title>Node9</title>
<g id="a_node9"><a xlink:href="../../d5/d06/classui_1_1_scene_updater.html#a794d87263c7d233591c42f2bb7e16675" target="_top" xlink:title="ui.SceneUpdater.createTurtle">
<polygon fill="white" stroke="black" points="353.5,-356.5 353.5,-375.5 508.5,-375.5 508.5,-356.5 353.5,-356.5"/>
<text text-anchor="middle" x="431" y="-363.5" font-family="Helvetica,sans-Serif" font-size="10.00">ui.SceneUpdater.createTurtle</text>
</a>
</g>
</g>
<!-- Node8&#45;&gt;Node9 -->
<g id="edge10" class="edge"><title>Node8&#45;&gt;Node9</title>
<path fill="none" stroke="midnightblue" d="M277.183,-366C297.666,-366 320.988,-366 343.136,-366"/>
<polygon fill="midnightblue" stroke="midnightblue" points="343.215,-369.5 353.215,-366 343.215,-362.5 343.215,-369.5"/>
</g>
<!-- Node10 -->
<g id="node10" class="node"><title>Node10</title>
<g id="a_node10"><a xlink:href="../../d9/df7/classcontroller_1_1_controller.html#a5ff29de29dce4cc460b69294c764adc8" target="_top" xlink:title="controller.Controller.create\lTurtle">
<polygon fill="white" stroke="black" points="569.5,-351 569.5,-381 712.5,-381 712.5,-351 569.5,-351"/>
<text text-anchor="start" x="577.5" y="-369" font-family="Helvetica,sans-Serif" font-size="10.00">controller.Controller.create</text>
<text text-anchor="middle" x="641" y="-358" font-family="Helvetica,sans-Serif" font-size="10.00">Turtle</text>
</a>
</g>
</g>
<!-- Node9&#45;&gt;Node10 -->
<g id="edge11" class="edge"><title>Node9&#45;&gt;Node10</title>
<path fill="none" stroke="midnightblue" d="M508.565,-366C525.065,-366 542.556,-366 559.211,-366"/>
<polygon fill="midnightblue" stroke="midnightblue" points="559.456,-369.5 569.456,-366 559.456,-362.5 559.456,-369.5"/>
</g>
<!-- Node11 -->
<g id="node11" class="node"><title>Node11</title>
<g id="a_node11"><a xlink:href="../../d9/d88/classmodel_1_1_tree_interpreter.html#a3a8c43b61bf2582fe495cae3f27c2c06" target="_top" xlink:title="model.TreeInterpreter.get\lTurtleList">
<polygon fill="white" stroke="black" points="767,-351 767,-381 905,-381 905,-351 767,-351"/>
<text text-anchor="start" x="775" y="-369" font-family="Helvetica,sans-Serif" font-size="10.00">model.TreeInterpreter.get</text>
<text text-anchor="middle" x="836" y="-358" font-family="Helvetica,sans-Serif" font-size="10.00">TurtleList</text>
</a>
</g>
</g>
<!-- Node10&#45;&gt;Node11 -->
<g id="edge12" class="edge"><title>Node10&#45;&gt;Node11</title>
<path fill="none" stroke="midnightblue" d="M712.77,-366C726.968,-366 741.967,-366 756.411,-366"/>
<polygon fill="midnightblue" stroke="midnightblue" points="756.811,-369.5 766.811,-366 756.811,-362.5 756.811,-369.5"/>
</g>
<!-- Node13 -->
<g id="node13" class="node"><title>Node13</title>
<g id="a_node13"><a xlink:href="../../dc/d3b/classui_1_1_g_u_i.html#ad8f08a79a20a498bcaafdc7e2e2ce0a9" target="_top" xlink:title="ui.GUI.parseCommand">
<polygon fill="white" stroke="black" points="368.5,-230.5 368.5,-249.5 493.5,-249.5 493.5,-230.5 368.5,-230.5"/>
<text text-anchor="middle" x="431" y="-237.5" font-family="Helvetica,sans-Serif" font-size="10.00">ui.GUI.parseCommand</text>
</a>
</g>
</g>
<!-- Node12&#45;&gt;Node13 -->
<g id="edge15" class="edge"><title>Node12&#45;&gt;Node13</title>
<path fill="none" stroke="midnightblue" d="M303.635,-240C321.736,-240 340.63,-240 358.126,-240"/>
<polygon fill="midnightblue" stroke="midnightblue" points="358.249,-243.5 368.249,-240 358.249,-236.5 358.249,-243.5"/>
</g>
<!-- Node14 -->
<g id="node14" class="node"><title>Node14</title>
<g id="a_node14"><a xlink:href="../../d8/d3c/classui_1_1elements_1_1_i_o_element.html#a3b1244fbac1fbbee1183143097b1e4ef" target="_top" xlink:title="ui.elements.IOElement.get\lInputField">
<polygon fill="white" stroke="black" points="569,-269 569,-299 713,-299 713,-269 569,-269"/>
<text text-anchor="start" x="577" y="-287" font-family="Helvetica,sans-Serif" font-size="10.00">ui.elements.IOElement.get</text>
<text text-anchor="middle" x="641" y="-276" font-family="Helvetica,sans-Serif" font-size="10.00">InputField</text>
</a>
</g>
</g>
<!-- Node13&#45;&gt;Node14 -->
<g id="edge16" class="edge"><title>Node13&#45;&gt;Node14</title>
<path fill="none" stroke="midnightblue" d="M477.133,-249.547C500.969,-254.59 530.958,-260.933 558.685,-266.799"/>
<polygon fill="midnightblue" stroke="midnightblue" points="558.274,-270.289 568.782,-268.935 559.723,-263.441 558.274,-270.289"/>
</g>
<!-- Node15 -->
<g id="node15" class="node"><title>Node15</title>
<g id="a_node15"><a xlink:href="../../d5/d06/classui_1_1_scene_updater.html#ab77a04f8b0038429b09237aac18906e8" target="_top" xlink:title="ui.SceneUpdater.sendCommands">
<polygon fill="white" stroke="black" points="552,-230.5 552,-249.5 730,-249.5 730,-230.5 552,-230.5"/>
<text text-anchor="middle" x="641" y="-237.5" font-family="Helvetica,sans-Serif" font-size="10.00">ui.SceneUpdater.sendCommands</text>
</a>
</g>
</g>
<!-- Node13&#45;&gt;Node15 -->
<g id="edge17" class="edge"><title>Node13&#45;&gt;Node15</title>
<path fill="none" stroke="midnightblue" d="M493.563,-240C508.642,-240 525.157,-240 541.492,-240"/>
<polygon fill="midnightblue" stroke="midnightblue" points="541.624,-243.5 551.624,-240 541.624,-236.5 541.624,-243.5"/>
</g>
<!-- Node50 -->
<g id="node50" class="node"><title>Node50</title>
<g id="a_node50"><a xlink:href="../../d0/de6/classui_1_1elements_1_1_menu_bar_element.html#a28a30430354b4041a06e38088c201802" target="_top" xlink:title="ui.elements.MenuBarElement.get\lSelectedLanguage">
<polygon fill="white" stroke="black" points="552.5,-181 552.5,-211 729.5,-211 729.5,-181 552.5,-181"/>
<text text-anchor="start" x="560.5" y="-199" font-family="Helvetica,sans-Serif" font-size="10.00">ui.elements.MenuBarElement.get</text>
<text text-anchor="middle" x="641" y="-188" font-family="Helvetica,sans-Serif" font-size="10.00">SelectedLanguage</text>
</a>
</g>
</g>
<!-- Node13&#45;&gt;Node50 -->
<g id="edge58" class="edge"><title>Node13&#45;&gt;Node50</title>
<path fill="none" stroke="midnightblue" d="M477.133,-230.453C500.969,-225.41 530.958,-219.067 558.685,-213.201"/>
<polygon fill="midnightblue" stroke="midnightblue" points="559.723,-216.559 568.782,-211.065 558.274,-209.711 559.723,-216.559"/>
</g>
<!-- Node16 -->
<g id="node16" class="node"><title>Node16</title>
<g id="a_node16"><a xlink:href="../../d9/df7/classcontroller_1_1_controller.html#a3d81fb1a57114f96fb6c319f4c5df370" target="_top" xlink:title="controller.Controller.parse\lCommand">
<polygon fill="white" stroke="black" points="766,-225 766,-255 906,-255 906,-225 766,-225"/>
<text text-anchor="start" x="774" y="-243" font-family="Helvetica,sans-Serif" font-size="10.00">controller.Controller.parse</text>
<text text-anchor="middle" x="836" y="-232" font-family="Helvetica,sans-Serif" font-size="10.00">Command</text>
</a>
</g>
</g>
<!-- Node15&#45;&gt;Node16 -->
<g id="edge18" class="edge"><title>Node15&#45;&gt;Node16</title>
<path fill="none" stroke="midnightblue" d="M730.028,-240C738.581,-240 747.222,-240 755.682,-240"/>
<polygon fill="midnightblue" stroke="midnightblue" points="755.892,-243.5 765.892,-240 755.892,-236.5 755.892,-243.5"/>
</g>
<!-- Node17 -->
<g id="node17" class="node"><title>Node17</title>
<g id="a_node17"><a xlink:href="../../d5/d06/classui_1_1_scene_updater.html#ac93c2b014447efef3a09141521fb4d9e" target="_top" xlink:title="ui.SceneUpdater.addCommand\lHistory">
<polygon fill="white" stroke="black" points="950.5,-570 950.5,-600 1117.5,-600 1117.5,-570 950.5,-570"/>
<text text-anchor="start" x="958.5" y="-588" font-family="Helvetica,sans-Serif" font-size="10.00">ui.SceneUpdater.addCommand</text>
<text text-anchor="middle" x="1034" y="-577" font-family="Helvetica,sans-Serif" font-size="10.00">History</text>
</a>
</g>
</g>
<!-- Node16&#45;&gt;Node17 -->
<g id="edge19" class="edge"><title>Node16&#45;&gt;Node17</title>
<path fill="none" stroke="midnightblue" d="M849.917,-255.192C865.471,-274.252 891.329,-308.514 906,-342 934.033,-405.986 907.836,-434.067 942,-495 957.377,-522.426 983.558,-547.03 1003.9,-563.553"/>
<polygon fill="midnightblue" stroke="midnightblue" points="1001.92,-566.448 1011.93,-569.908 1006.26,-560.959 1001.92,-566.448"/>
</g>
<!-- Node21 -->
<g id="node21" class="node"><title>Node21</title>
<g id="a_node21"><a xlink:href="../../d0/d05/classparser_1_1_tree_generator.html#acf44e3a80bec76756c2bb09124dc4c8d" target="_top" xlink:title="parser.TreeGenerator.create\lCommands">
<polygon fill="white" stroke="black" points="958.5,-456 958.5,-486 1109.5,-486 1109.5,-456 958.5,-456"/>
<text text-anchor="start" x="966.5" y="-474" font-family="Helvetica,sans-Serif" font-size="10.00">parser.TreeGenerator.create</text>
<text text-anchor="middle" x="1034" y="-463" font-family="Helvetica,sans-Serif" font-size="10.00">Commands</text>
</a>
</g>
</g>
<!-- Node16&#45;&gt;Node21 -->
<g id="edge23" class="edge"><title>Node16&#45;&gt;Node21</title>
<path fill="none" stroke="midnightblue" d="M849.86,-255.157C883.363,-294.642 973.495,-400.869 1013.46,-447.97"/>
<polygon fill="midnightblue" stroke="midnightblue" points="1010.95,-450.427 1020.09,-455.788 1016.29,-445.898 1010.95,-450.427"/>
</g>
<!-- Node34 -->
<g id="node34" class="node"><title>Node34</title>
<g id="a_node34"><a xlink:href="../../d0/d05/classparser_1_1_tree_generator.html#a6b0c994d90d372250a24f81f439de007" target="_top" xlink:title="parser.TreeGenerator.get\lMethodsList">
<polygon fill="white" stroke="black" points="966,-250 966,-280 1102,-280 1102,-250 966,-250"/>
<text text-anchor="start" x="974" y="-268" font-family="Helvetica,sans-Serif" font-size="10.00">parser.TreeGenerator.get</text>
<text text-anchor="middle" x="1034" y="-257" font-family="Helvetica,sans-Serif" font-size="10.00">MethodsList</text>
</a>
</g>
</g>
<!-- Node16&#45;&gt;Node34 -->
<g id="edge37" class="edge"><title>Node16&#45;&gt;Node34</title>
<path fill="none" stroke="midnightblue" d="M906.102,-248.814C922.166,-250.863 939.367,-253.057 955.757,-255.148"/>
<polygon fill="midnightblue" stroke="midnightblue" points="955.477,-258.64 965.839,-256.434 956.363,-251.696 955.477,-258.64"/>
</g>
<!-- Node36 -->
<g id="node36" class="node"><title>Node36</title>
<g id="a_node36"><a xlink:href="../../dc/d9e/classparser_1_1_command_tree_node.html#aea6176c10780becfc79a23924bb6fdc2" target="_top" xlink:title="parser.CommandTreeNode.get\lValue">
<polygon fill="white" stroke="black" points="952,-201 952,-231 1116,-231 1116,-201 952,-201"/>
<text text-anchor="start" x="960" y="-219" font-family="Helvetica,sans-Serif" font-size="10.00">parser.CommandTreeNode.get</text>
<text text-anchor="middle" x="1034" y="-208" font-family="Helvetica,sans-Serif" font-size="10.00">Value</text>
</a>
</g>
</g>
<!-- Node16&#45;&gt;Node36 -->
<g id="edge39" class="edge"><title>Node16&#45;&gt;Node36</title>
<path fill="none" stroke="midnightblue" d="M906.102,-231.538C917.64,-230.126 929.765,-228.641 941.755,-227.173"/>
<polygon fill="midnightblue" stroke="midnightblue" points="942.278,-230.635 951.778,-225.946 941.427,-223.687 942.278,-230.635"/>
</g>
<!-- Node37 -->
<g id="node37" class="node"><title>Node37</title>
<g id="a_node37"><a xlink:href="../../d9/d88/classmodel_1_1_tree_interpreter.html#a501df6b8cfe1a8175a9da0ed96d30d6f" target="_top" xlink:title="model.TreeInterpreter.interpretTree">
<polygon fill="white" stroke="black" points="942.5,-162.5 942.5,-181.5 1125.5,-181.5 1125.5,-162.5 942.5,-162.5"/>
<text text-anchor="middle" x="1034" y="-169.5" font-family="Helvetica,sans-Serif" font-size="10.00">model.TreeInterpreter.interpretTree</text>
</a>
</g>
</g>
<!-- Node16&#45;&gt;Node37 -->
<g id="edge40" class="edge"><title>Node16&#45;&gt;Node37</title>
<path fill="none" stroke="midnightblue" d="M865.746,-224.844C886.479,-214.417 915.386,-200.895 942,-192 951.109,-188.955 960.888,-186.247 970.536,-183.883"/>
<polygon fill="midnightblue" stroke="midnightblue" points="971.572,-187.235 980.509,-181.545 969.974,-180.42 971.572,-187.235"/>
</g>
<!-- Node47 -->
<g id="node47" class="node"><title>Node47</title>
<g id="a_node47"><a xlink:href="../../d5/d06/classui_1_1_scene_updater.html#ab8b88b95b646266ee4a8ef3d77e4c3e3" target="_top" xlink:title="ui.SceneUpdater.setOutputText">
<polygon fill="white" stroke="black" points="951,-77.5 951,-96.5 1117,-96.5 1117,-77.5 951,-77.5"/>
<text text-anchor="middle" x="1034" y="-84.5" font-family="Helvetica,sans-Serif" font-size="10.00">ui.SceneUpdater.setOutputText</text>
</a>
</g>
</g>
<!-- Node16&#45;&gt;Node47 -->
<g id="edge55" class="edge"><title>Node16&#45;&gt;Node47</title>
<path fill="none" stroke="midnightblue" d="M854.551,-224.868C875.175,-207.226 910.574,-177.375 942,-153 965.06,-135.114 992.228,-115.605 1010.84,-102.471"/>
<polygon fill="midnightblue" stroke="midnightblue" points="1013.06,-105.185 1019.23,-96.5706 1009.04,-99.4587 1013.06,-105.185"/>
</g>
<!-- Node18 -->
<g id="node18" class="node"><title>Node18</title>
<g id="a_node18"><a xlink:href="../../dc/d3b/classui_1_1_g_u_i.html#a3c16c78e8d953dbf8ef41113ca03621e" target="_top" xlink:title="ui.GUI.addCommandHistory">
<polygon fill="white" stroke="black" points="1187,-641.5 1187,-660.5 1337,-660.5 1337,-641.5 1187,-641.5"/>
<text text-anchor="middle" x="1262" y="-648.5" font-family="Helvetica,sans-Serif" font-size="10.00">ui.GUI.addCommandHistory</text>
</a>
</g>
</g>
<!-- Node17&#45;&gt;Node18 -->
<g id="edge20" class="edge"><title>Node17&#45;&gt;Node18</title>
<path fill="none" stroke="midnightblue" d="M1086.57,-600.059C1126.34,-611.674 1180.7,-627.55 1218.11,-638.475"/>
<polygon fill="midnightblue" stroke="midnightblue" points="1217.61,-641.974 1228.19,-641.418 1219.57,-635.255 1217.61,-641.974"/>
</g>
<!-- Node19 -->
<g id="node19" class="node"><title>Node19</title>
<g id="a_node19"><a xlink:href="../../d6/dd8/classui_1_1elements_1_1_info_element.html#aa14d00daf19b5c3d7cd792c2590f23b3" target="_top" xlink:title="ui.elements.InfoElement.set\lBindCommandList">
<polygon fill="white" stroke="black" points="1416.5,-691 1416.5,-721 1567.5,-721 1567.5,-691 1416.5,-691"/>
<text text-anchor="start" x="1424.5" y="-709" font-family="Helvetica,sans-Serif" font-size="10.00">ui.elements.InfoElement.set</text>
<text text-anchor="middle" x="1492" y="-698" font-family="Helvetica,sans-Serif" font-size="10.00">BindCommandList</text>
</a>
</g>
</g>
<!-- Node18&#45;&gt;Node19 -->
<g id="edge21" class="edge"><title>Node18&#45;&gt;Node19</title>
<path fill="none" stroke="midnightblue" d="M1302.45,-660.517C1334.28,-668.194 1379.9,-679.2 1418.3,-688.463"/>
<polygon fill="midnightblue" stroke="midnightblue" points="1417.86,-691.958 1428.41,-690.901 1419.51,-685.153 1417.86,-691.958"/>
</g>
<!-- Node20 -->
<g id="node20" class="node"><title>Node20</title>
<g id="a_node20"><a xlink:href="../../d6/dd8/classui_1_1elements_1_1_info_element.html#a54dbeca14ae734678154142637d3c4ab" target="_top" xlink:title="ui.elements.InfoElement.update">
<polygon fill="white" stroke="black" points="1634,-696.5 1634,-715.5 1804,-715.5 1804,-696.5 1634,-696.5"/>
<text text-anchor="middle" x="1719" y="-703.5" font-family="Helvetica,sans-Serif" font-size="10.00">ui.elements.InfoElement.update</text>
</a>
</g>
</g>
<!-- Node19&#45;&gt;Node20 -->
<g id="edge22" class="edge"><title>Node19&#45;&gt;Node20</title>
<path fill="none" stroke="midnightblue" d="M1567.61,-706C1585.61,-706 1605.07,-706 1623.84,-706"/>
<polygon fill="midnightblue" stroke="midnightblue" points="1623.88,-709.5 1633.88,-706 1623.88,-702.5 1623.88,-709.5"/>
</g>
<!-- Node22 -->
<g id="node22" class="node"><title>Node22</title>
<g id="a_node22"><a xlink:href="../../d0/d05/classparser_1_1_tree_generator.html#a6c5a626cea851fb68c59f83a27ab56a5" target="_top" xlink:title="parser.TreeGenerator.create\lHandlerMap">
<polygon fill="white" stroke="black" points="1186.5,-500 1186.5,-530 1337.5,-530 1337.5,-500 1186.5,-500"/>
<text text-anchor="start" x="1194.5" y="-518" font-family="Helvetica,sans-Serif" font-size="10.00">parser.TreeGenerator.create</text>
<text text-anchor="middle" x="1262" y="-507" font-family="Helvetica,sans-Serif" font-size="10.00">HandlerMap</text>
</a>
</g>
</g>
<!-- Node21&#45;&gt;Node22 -->
<g id="edge24" class="edge"><title>Node21&#45;&gt;Node22</title>
<path fill="none" stroke="midnightblue" d="M1109.63,-485.529C1131.03,-489.697 1154.53,-494.271 1176.48,-498.546"/>
<polygon fill="midnightblue" stroke="midnightblue" points="1175.97,-502.01 1186.45,-500.486 1177.3,-495.139 1175.97,-502.01"/>
</g>
<!-- Node24 -->
<g id="node24" class="node"><title>Node24</title>
<g id="a_node24"><a xlink:href="../../dc/d9e/classparser_1_1_command_tree_node.html#a73e4ab6ebca47d41b993f0e66ee4c8d2" target="_top" xlink:title="parser.CommandTreeNode.getName">
<polygon fill="white" stroke="black" points="1622.5,-295.5 1622.5,-314.5 1815.5,-314.5 1815.5,-295.5 1622.5,-295.5"/>
<text text-anchor="middle" x="1719" y="-302.5" font-family="Helvetica,sans-Serif" font-size="10.00">parser.CommandTreeNode.getName</text>
</a>
</g>
</g>
<!-- Node21&#45;&gt;Node24 -->
<g id="edge26" class="edge"><title>Node21&#45;&gt;Node24</title>
<path fill="none" stroke="midnightblue" d="M1062.15,-455.812C1121.1,-423.724 1266.13,-349.562 1398,-320 1468.17,-304.27 1549.09,-300.603 1612,-300.827"/>
<polygon fill="midnightblue" stroke="midnightblue" points="1612.31,-304.329 1622.34,-300.899 1612.36,-297.329 1612.31,-304.329"/>
</g>
<!-- Node25 -->
<g id="node25" class="node"><title>Node25</title>
<g id="a_node25"><a xlink:href="../../d5/d30/classparser_1_1_command_case.html#a416a33e71d0a91f9d167980ff9779119" target="_top" xlink:title="parser.CommandCase.getRoot">
<polygon fill="white" stroke="black" points="1180,-549.5 1180,-568.5 1344,-568.5 1344,-549.5 1180,-549.5"/>
<text text-anchor="middle" x="1262" y="-556.5" font-family="Helvetica,sans-Serif" font-size="10.00">parser.CommandCase.getRoot</text>
</a>
</g>
</g>
<!-- Node21&#45;&gt;Node25 -->
<g id="edge27" class="edge"><title>Node21&#45;&gt;Node25</title>
<path fill="none" stroke="midnightblue" d="M1058.37,-486.222C1083.15,-501.693 1123.88,-525.28 1162,-539 1170.82,-542.173 1180.27,-544.893 1189.7,-547.21"/>
<polygon fill="midnightblue" stroke="midnightblue" points="1188.97,-550.633 1199.5,-549.482 1190.55,-543.814 1188.97,-550.633"/>
</g>
<!-- Node26 -->
<g id="node26" class="node"><title>Node26</title>
<g id="a_node26"><a xlink:href="../../d5/d30/classparser_1_1_command_case.html#a309ba0623929f8d96219c98de00023b0" target="_top" xlink:title="parser.CommandCase.initialize">
<polygon fill="white" stroke="black" points="1179.5,-461.5 1179.5,-480.5 1344.5,-480.5 1344.5,-461.5 1179.5,-461.5"/>
<text text-anchor="middle" x="1262" y="-468.5" font-family="Helvetica,sans-Serif" font-size="10.00">parser.CommandCase.initialize</text>
</a>
</g>
</g>
<!-- Node21&#45;&gt;Node26 -->
<g id="edge28" class="edge"><title>Node21&#45;&gt;Node26</title>
<path fill="none" stroke="midnightblue" d="M1109.63,-471C1128.68,-471 1149.38,-471 1169.18,-471"/>
<polygon fill="midnightblue" stroke="midnightblue" points="1169.44,-474.5 1179.44,-471 1169.44,-467.5 1169.44,-474.5"/>
</g>
<!-- Node23 -->
<g id="node23" class="node"><title>Node23</title>
<g id="a_node23"><a xlink:href="../../d0/d22/classutil_1_1_pattern_mapper.html#a257efa051dc3d89b728922a22901fb7d" target="_top" xlink:title="util.PatternMapper.makePatterns">
<polygon fill="white" stroke="black" points="1405.5,-652.5 1405.5,-671.5 1578.5,-671.5 1578.5,-652.5 1405.5,-652.5"/>
<text text-anchor="middle" x="1492" y="-659.5" font-family="Helvetica,sans-Serif" font-size="10.00">util.PatternMapper.makePatterns</text>
</a>
</g>
</g>
<!-- Node22&#45;&gt;Node23 -->
<g id="edge25" class="edge"><title>Node22&#45;&gt;Node23</title>
<path fill="none" stroke="midnightblue" d="M1337.93,-525.286C1346.75,-528.888 1355.06,-533.669 1362,-540 1397.52,-572.395 1361.91,-610.241 1398,-642 1400.34,-644.061 1402.84,-645.927 1405.47,-647.615"/>
<polygon fill="midnightblue" stroke="midnightblue" points="1403.79,-650.684 1414.24,-652.423 1407.15,-644.546 1403.79,-650.684"/>
</g>
<!-- Node26&#45;&gt;Node23 -->
<g id="edge31" class="edge"><title>Node26&#45;&gt;Node23</title>
<path fill="none" stroke="midnightblue" d="M1344.73,-479.281C1351.07,-482.289 1356.96,-486.127 1362,-491 1411.62,-538.931 1348.68,-593.76 1398,-642 1399.73,-643.689 1401.56,-645.25 1403.48,-646.692"/>
<polygon fill="midnightblue" stroke="midnightblue" points="1402.08,-649.947 1412.42,-652.286 1405.8,-644.013 1402.08,-649.947"/>
</g>
<!-- Node27 -->
<g id="node27" class="node"><title>Node27</title>
<g id="a_node27"><a xlink:href="../../d9/dc0/interfaceparser_1_1_tree_wrapper.html#abf33b5a3ce13b389b9f69be49b18b998" target="_top" xlink:title="parser.TreeWrapper.getIndex">
<polygon fill="white" stroke="black" points="1416,-329.5 1416,-348.5 1568,-348.5 1568,-329.5 1416,-329.5"/>
<text text-anchor="middle" x="1492" y="-336.5" font-family="Helvetica,sans-Serif" font-size="10.00">parser.TreeWrapper.getIndex</text>
</a>
</g>
</g>
<!-- Node26&#45;&gt;Node27 -->
<g id="edge29" class="edge"><title>Node26&#45;&gt;Node27</title>
<path fill="none" stroke="midnightblue" d="M1271.39,-461.416C1291.12,-439.537 1342.94,-385.745 1398,-359 1403.99,-356.091 1410.4,-353.602 1416.94,-351.474"/>
<polygon fill="midnightblue" stroke="midnightblue" points="1418.02,-354.807 1426.61,-348.605 1416.02,-348.096 1418.02,-354.807"/>
</g>
<!-- Node28 -->
<g id="node28" class="node"><title>Node28</title>
<g id="a_node28"><a xlink:href="../../d9/dc0/interfaceparser_1_1_tree_wrapper.html#a251d9d9bb7c3ea34688bfa30cc465270" target="_top" xlink:title="parser.TreeWrapper.increment\lIndex">
<polygon fill="white" stroke="black" points="1412.5,-603 1412.5,-633 1571.5,-633 1571.5,-603 1412.5,-603"/>
<text text-anchor="start" x="1420.5" y="-621" font-family="Helvetica,sans-Serif" font-size="10.00">parser.TreeWrapper.increment</text>
<text text-anchor="middle" x="1492" y="-610" font-family="Helvetica,sans-Serif" font-size="10.00">Index</text>
</a>
</g>
</g>
<!-- Node26&#45;&gt;Node28 -->
<g id="edge30" class="edge"><title>Node26&#45;&gt;Node28</title>
<path fill="none" stroke="midnightblue" d="M1344.68,-480.08C1350.95,-482.931 1356.84,-486.514 1362,-491 1398.29,-522.533 1362.73,-560.335 1398,-593 1399.74,-594.615 1401.58,-596.128 1403.5,-597.545"/>
<polygon fill="midnightblue" stroke="midnightblue" points="1402.02,-600.755 1412.34,-603.164 1405.78,-594.847 1402.02,-600.755"/>
</g>
<!-- Node29 -->
<g id="node29" class="node"><title>Node29</title>
<g id="a_node29"><a xlink:href="../../d5/d30/classparser_1_1_command_case.html#a7c49338f11e46369db6a009f6a07a837" target="_top" xlink:title="parser.CommandCase.obtain\lNumParams">
<polygon fill="white" stroke="black" points="1413.5,-554 1413.5,-584 1570.5,-584 1570.5,-554 1413.5,-554"/>
<text text-anchor="start" x="1421.5" y="-572" font-family="Helvetica,sans-Serif" font-size="10.00">parser.CommandCase.obtain</text>
<text text-anchor="middle" x="1492" y="-561" font-family="Helvetica,sans-Serif" font-size="10.00">NumParams</text>
</a>
</g>
</g>
<!-- Node26&#45;&gt;Node29 -->
<g id="edge32" class="edge"><title>Node26&#45;&gt;Node29</title>
<path fill="none" stroke="midnightblue" d="M1340.76,-480.551C1348.27,-483.257 1355.5,-486.68 1362,-491 1385.71,-506.765 1374.8,-527.492 1398,-544 1400.72,-545.938 1403.59,-547.727 1406.56,-549.376"/>
<polygon fill="midnightblue" stroke="midnightblue" points="1405.23,-552.62 1415.74,-553.92 1408.33,-546.347 1405.23,-552.62"/>
</g>
<!-- Node30 -->
<g id="node30" class="node"><title>Node30</title>
<g id="a_node30"><a xlink:href="../../d5/d30/classparser_1_1_command_case.html#a37b719ff1e44b8c2539ec8a3d3dec65e" target="_top" xlink:title="parser.CommandCase.obtain\lSubCommand">
<polygon fill="white" stroke="black" points="1413.5,-505 1413.5,-535 1570.5,-535 1570.5,-505 1413.5,-505"/>
<text text-anchor="start" x="1421.5" y="-523" font-family="Helvetica,sans-Serif" font-size="10.00">parser.CommandCase.obtain</text>
<text text-anchor="middle" x="1492" y="-512" font-family="Helvetica,sans-Serif" font-size="10.00">SubCommand</text>
</a>
</g>
</g>
<!-- Node26&#45;&gt;Node30 -->
<g id="edge33" class="edge"><title>Node26&#45;&gt;Node30</title>
<path fill="none" stroke="midnightblue" d="M1311.13,-480.505C1327.31,-483.758 1345.45,-487.469 1362,-491 1379.26,-494.684 1397.8,-498.772 1415.28,-502.688"/>
<polygon fill="midnightblue" stroke="midnightblue" points="1414.91,-506.192 1425.44,-504.97 1416.45,-499.363 1414.91,-506.192"/>
</g>
<!-- Node31 -->
<g id="node31" class="node"><title>Node31</title>
<g id="a_node31"><a xlink:href="../../d9/dc0/interfaceparser_1_1_tree_wrapper.html#a593548eb4ae82f686022f08f45908a1d" target="_top" xlink:title="parser.TreeWrapper.print\lTestStatements">
<polygon fill="white" stroke="black" points="1426,-456 1426,-486 1558,-486 1558,-456 1426,-456"/>
<text text-anchor="start" x="1434" y="-474" font-family="Helvetica,sans-Serif" font-size="10.00">parser.TreeWrapper.print</text>
<text text-anchor="middle" x="1492" y="-463" font-family="Helvetica,sans-Serif" font-size="10.00">TestStatements</text>
</a>
</g>
</g>
<!-- Node26&#45;&gt;Node31 -->
<g id="edge34" class="edge"><title>Node26&#45;&gt;Node31</title>
<path fill="none" stroke="midnightblue" d="M1344.67,-471C1367.83,-471 1392.93,-471 1415.69,-471"/>
<polygon fill="midnightblue" stroke="midnightblue" points="1415.97,-474.5 1425.97,-471 1415.97,-467.5 1415.97,-474.5"/>
</g>
<!-- Node32 -->
<g id="node32" class="node"><title>Node32</title>
<g id="a_node32"><a xlink:href="../../d9/dc0/interfaceparser_1_1_tree_wrapper.html#a48f9f037c84b1fecfdefcb3268640f88" target="_top" xlink:title="parser.TreeWrapper.recurse">
<polygon fill="white" stroke="black" points="1419,-417.5 1419,-436.5 1565,-436.5 1565,-417.5 1419,-417.5"/>
<text text-anchor="middle" x="1492" y="-424.5" font-family="Helvetica,sans-Serif" font-size="10.00">parser.TreeWrapper.recurse</text>
</a>
</g>
</g>
<!-- Node26&#45;&gt;Node32 -->
<g id="edge35" class="edge"><title>Node26&#45;&gt;Node32</title>
<path fill="none" stroke="midnightblue" d="M1312.47,-461.453C1347.43,-454.707 1394.46,-445.631 1431.47,-438.489"/>
<polygon fill="midnightblue" stroke="midnightblue" points="1432.47,-441.86 1441.62,-436.529 1431.14,-434.987 1432.47,-441.86"/>
</g>
<!-- Node33 -->
<g id="node33" class="node"><title>Node33</title>
<g id="a_node33"><a xlink:href="../../d5/d30/classparser_1_1_command_case.html#a9afa1f06d36261ade7169970904fabee" target="_top" xlink:title="parser.CommandCase.useResource\lBundle">
<polygon fill="white" stroke="black" points="1398,-368 1398,-398 1586,-398 1586,-368 1398,-368"/>
<text text-anchor="start" x="1406" y="-386" font-family="Helvetica,sans-Serif" font-size="10.00">parser.CommandCase.useResource</text>
<text text-anchor="middle" x="1492" y="-375" font-family="Helvetica,sans-Serif" font-size="10.00">Bundle</text>
</a>
</g>
</g>
<!-- Node26&#45;&gt;Node33 -->
<g id="edge36" class="edge"><title>Node26&#45;&gt;Node33</title>
<path fill="none" stroke="midnightblue" d="M1280.91,-461.41C1306.38,-448.068 1354.75,-423.77 1398,-408 1404.8,-405.52 1411.97,-403.163 1419.17,-400.959"/>
<polygon fill="midnightblue" stroke="midnightblue" points="1420.4,-404.245 1429,-398.051 1418.42,-397.533 1420.4,-404.245"/>
</g>
<!-- Node35 -->
<g id="node35" class="node"><title>Node35</title>
<g id="a_node35"><a xlink:href="../../d5/d30/classparser_1_1_command_case.html#a0a36df1183543407fec197f435a5ba2c" target="_top" xlink:title="parser.CommandCase.getMethodsList">
<polygon fill="white" stroke="black" points="1162,-253.5 1162,-272.5 1362,-272.5 1362,-253.5 1162,-253.5"/>
<text text-anchor="middle" x="1262" y="-260.5" font-family="Helvetica,sans-Serif" font-size="10.00">parser.CommandCase.getMethodsList</text>
</a>
</g>
</g>
<!-- Node34&#45;&gt;Node35 -->
<g id="edge38" class="edge"><title>Node34&#45;&gt;Node35</title>
<path fill="none" stroke="midnightblue" d="M1102.2,-264.405C1117.71,-264.268 1134.61,-264.118 1151.42,-263.97"/>
<polygon fill="midnightblue" stroke="midnightblue" points="1151.88,-267.466 1161.85,-263.877 1151.82,-260.466 1151.88,-267.466"/>
</g>
<!-- Node38 -->
<g id="node38" class="node"><title>Node38</title>
<g id="a_node38"><a xlink:href="../../dc/d9e/classparser_1_1_command_tree_node.html#a2700486f6a49c0a080114bee6e51f271" target="_top" xlink:title="parser.CommandTreeNode.get\lChildren">
<polygon fill="white" stroke="black" points="1180,-201 1180,-231 1344,-231 1344,-201 1180,-201"/>
<text text-anchor="start" x="1188" y="-219" font-family="Helvetica,sans-Serif" font-size="10.00">parser.CommandTreeNode.get</text>
<text text-anchor="middle" x="1262" y="-208" font-family="Helvetica,sans-Serif" font-size="10.00">Children</text>
</a>
</g>
</g>
<!-- Node37&#45;&gt;Node38 -->
<g id="edge41" class="edge"><title>Node37&#45;&gt;Node38</title>
<path fill="none" stroke="midnightblue" d="M1084.04,-181.547C1110.17,-186.634 1143.09,-193.045 1173.44,-198.953"/>
<polygon fill="midnightblue" stroke="midnightblue" points="1173.13,-202.459 1183.62,-200.935 1174.47,-195.588 1173.13,-202.459"/>
</g>
<!-- Node39 -->
<g id="node39" class="node"><title>Node39</title>
<g id="a_node39"><a xlink:href="../../dc/d9e/classparser_1_1_command_tree_node.html#a8bb8a112395f78809b0be06f1c3f5282" target="_top" xlink:title="parser.CommandTreeNode.getType">
<polygon fill="white" stroke="black" points="1626.5,-109.5 1626.5,-128.5 1811.5,-128.5 1811.5,-109.5 1626.5,-109.5"/>
<text text-anchor="middle" x="1719" y="-116.5" font-family="Helvetica,sans-Serif" font-size="10.00">parser.CommandTreeNode.getType</text>
</a>
</g>
</g>
<!-- Node37&#45;&gt;Node39 -->
<g id="edge42" class="edge"><title>Node37&#45;&gt;Node39</title>
<path fill="none" stroke="midnightblue" d="M1094.03,-162.472C1115.41,-159.206 1139.76,-155.698 1162,-153 1266.58,-140.313 1292.88,-137.865 1398,-131 1470.78,-126.247 1553.01,-123.214 1615.89,-121.386"/>
<polygon fill="midnightblue" stroke="midnightblue" points="1616.31,-124.876 1626.2,-121.092 1616.11,-117.878 1616.31,-124.876"/>
</g>
<!-- Node40 -->
<g id="node40" class="node"><title>Node40</title>
<g id="a_node40"><a xlink:href="../../d9/d88/classmodel_1_1_tree_interpreter.html#a3e460e5ebe66f781afb480f0f0ec2ce7" target="_top" xlink:title="model.TreeInterpreter.update">
<polygon fill="white" stroke="black" points="1184,-162.5 1184,-181.5 1340,-181.5 1340,-162.5 1184,-162.5"/>
<text text-anchor="middle" x="1262" y="-169.5" font-family="Helvetica,sans-Serif" font-size="10.00">model.TreeInterpreter.update</text>
</a>
</g>
</g>
<!-- Node37&#45;&gt;Node40 -->
<g id="edge43" class="edge"><title>Node37&#45;&gt;Node40</title>
<path fill="none" stroke="midnightblue" d="M1125.62,-172C1141.44,-172 1157.86,-172 1173.59,-172"/>
<polygon fill="midnightblue" stroke="midnightblue" points="1173.81,-175.5 1183.81,-172 1173.81,-168.5 1173.81,-175.5"/>
</g>
<!-- Node40&#45;&gt;Node24 -->
<g id="edge52" class="edge"><title>Node40&#45;&gt;Node24</title>
<path fill="none" stroke="midnightblue" d="M1339.84,-181.532C1347.65,-184.233 1355.2,-187.659 1362,-192 1384.78,-206.543 1375.21,-226.479 1398,-241 1418.91,-254.319 1560.77,-279.337 1648.45,-293.834"/>
<polygon fill="midnightblue" stroke="midnightblue" points="1647.9,-297.291 1658.34,-295.462 1649.04,-290.384 1647.9,-297.291"/>
</g>
<!-- Node40&#45;&gt;Node39 -->
<g id="edge53" class="edge"><title>Node40&#45;&gt;Node39</title>
<path fill="none" stroke="midnightblue" d="M1340.18,-163.009C1419.25,-153.8 1542.14,-139.484 1626.16,-129.698"/>
<polygon fill="midnightblue" stroke="midnightblue" points="1626.68,-133.161 1636.21,-128.528 1625.87,-126.208 1626.68,-133.161"/>
</g>
<!-- Node41 -->
<g id="node41" class="node"><title>Node41</title>
<g id="a_node41"><a xlink:href="../../d9/d88/classmodel_1_1_tree_interpreter.html#af4d24e7867eb3a4a53f79f4a9288f9fd" target="_top" xlink:title="model.TreeInterpreter.execute\lCommand">
<polygon fill="white" stroke="black" points="1411.5,-202 1411.5,-232 1572.5,-232 1572.5,-202 1411.5,-202"/>
<text text-anchor="start" x="1419.5" y="-220" font-family="Helvetica,sans-Serif" font-size="10.00">model.TreeInterpreter.execute</text>
<text text-anchor="middle" x="1492" y="-209" font-family="Helvetica,sans-Serif" font-size="10.00">Command</text>
</a>
</g>
</g>
<!-- Node40&#45;&gt;Node41 -->
<g id="edge44" class="edge"><title>Node40&#45;&gt;Node41</title>
<path fill="none" stroke="midnightblue" d="M1311.35,-181.543C1338.48,-186.898 1373.13,-193.737 1404.75,-199.978"/>
<polygon fill="midnightblue" stroke="midnightblue" points="1404.41,-203.478 1414.9,-201.98 1405.77,-196.61 1404.41,-203.478"/>
</g>
<!-- Node44 -->
<g id="node44" class="node"><title>Node44</title>
<g id="a_node44"><a xlink:href="../../dc/d9e/classparser_1_1_command_tree_node.html#a3d691b68da13689c03ebd9de665c379c" target="_top" xlink:title="parser.CommandTreeNode.set\lValue">
<polygon fill="white" stroke="black" points="1637.5,-148 1637.5,-178 1800.5,-178 1800.5,-148 1637.5,-148"/>
<text text-anchor="start" x="1645.5" y="-166" font-family="Helvetica,sans-Serif" font-size="10.00">parser.CommandTreeNode.set</text>
<text text-anchor="middle" x="1719" y="-155" font-family="Helvetica,sans-Serif" font-size="10.00">Value</text>
</a>
</g>
</g>
<!-- Node40&#45;&gt;Node44 -->
<g id="edge54" class="edge"><title>Node40&#45;&gt;Node44</title>
<path fill="none" stroke="midnightblue" d="M1340.18,-170.473C1419.61,-168.902 1543.28,-166.456 1627.32,-164.794"/>
<polygon fill="midnightblue" stroke="midnightblue" points="1627.44,-168.292 1637.37,-164.595 1627.3,-161.293 1627.44,-168.292"/>
</g>
<!-- Node45 -->
<g id="node45" class="node"><title>Node45</title>
<g id="a_node45"><a xlink:href="../../db/d55/classmodel_1_1_variable_list.html#a09697cca38c12cf837ee40e71d02f78b" target="_top" xlink:title="model.VariableList.get">
<polygon fill="white" stroke="black" points="1430.5,-49.5 1430.5,-68.5 1553.5,-68.5 1553.5,-49.5 1430.5,-49.5"/>
<text text-anchor="middle" x="1492" y="-56.5" font-family="Helvetica,sans-Serif" font-size="10.00">model.VariableList.get</text>
</a>
</g>
</g>
<!-- Node40&#45;&gt;Node45 -->
<g id="edge50" class="edge"><title>Node40&#45;&gt;Node45</title>
<path fill="none" stroke="midnightblue" d="M1282.44,-162.366C1322.74,-142.393 1415.54,-96.3972 1462.57,-73.0884"/>
<polygon fill="midnightblue" stroke="midnightblue" points="1464.2,-76.1866 1471.61,-68.6099 1461.1,-69.9147 1464.2,-76.1866"/>
</g>
<!-- Node41&#45;&gt;Node24 -->
<g id="edge47" class="edge"><title>Node41&#45;&gt;Node24</title>
<path fill="none" stroke="midnightblue" d="M1552.47,-232.106C1564.05,-236.332 1575.76,-241.577 1586,-248 1605.43,-260.196 1601.89,-273.955 1622,-285 1627.11,-287.809 1632.58,-290.224 1638.21,-292.301"/>
<polygon fill="midnightblue" stroke="midnightblue" points="1637.22,-295.659 1647.81,-295.486 1639.42,-289.015 1637.22,-295.659"/>
</g>
<!-- Node41&#45;&gt;Node39 -->
<g id="edge48" class="edge"><title>Node41&#45;&gt;Node39</title>
<path fill="none" stroke="midnightblue" d="M1513.31,-201.705C1537.8,-183.993 1580.84,-155.184 1622,-139 1629.86,-135.911 1638.27,-133.268 1646.74,-131.014"/>
<polygon fill="midnightblue" stroke="midnightblue" points="1647.8,-134.355 1656.66,-128.544 1646.11,-127.562 1647.8,-134.355"/>
</g>
<!-- Node42 -->
<g id="node42" class="node"><title>Node42</title>
<g id="a_node42"><a xlink:href="../../db/d10/classmodel_1_1_command_factory.html#a3982ff8b4387b7e50c9ec4350ee01733" target="_top" xlink:title="model.CommandFactory.create\lCommand">
<polygon fill="white" stroke="black" points="1635.5,-246 1635.5,-276 1802.5,-276 1802.5,-246 1635.5,-246"/>
<text text-anchor="start" x="1643.5" y="-264" font-family="Helvetica,sans-Serif" font-size="10.00">model.CommandFactory.create</text>
<text text-anchor="middle" x="1719" y="-253" font-family="Helvetica,sans-Serif" font-size="10.00">Command</text>
</a>
</g>
</g>
<!-- Node41&#45;&gt;Node42 -->
<g id="edge45" class="edge"><title>Node41&#45;&gt;Node42</title>
<path fill="none" stroke="midnightblue" d="M1569.8,-232.019C1589.61,-235.892 1611.05,-240.086 1631.32,-244.049"/>
<polygon fill="midnightblue" stroke="midnightblue" points="1630.68,-247.489 1641.16,-245.974 1632.02,-240.62 1630.68,-247.489"/>
</g>
<!-- Node43 -->
<g id="node43" class="node"><title>Node43</title>
<g id="a_node43"><a xlink:href="../../d9/d88/classmodel_1_1_tree_interpreter.html#adc0cf2c5819ec7f42db4e37db51b1893" target="_top" xlink:title="model.TreeInterpreter.get\lConstructors">
<polygon fill="white" stroke="black" points="1650,-197 1650,-227 1788,-227 1788,-197 1650,-197"/>
<text text-anchor="start" x="1658" y="-215" font-family="Helvetica,sans-Serif" font-size="10.00">model.TreeInterpreter.get</text>
<text text-anchor="middle" x="1719" y="-204" font-family="Helvetica,sans-Serif" font-size="10.00">Constructors</text>
</a>
</g>
</g>
<!-- Node41&#45;&gt;Node43 -->
<g id="edge46" class="edge"><title>Node41&#45;&gt;Node43</title>
<path fill="none" stroke="midnightblue" d="M1572.64,-215.23C1594.36,-214.748 1617.87,-214.225 1639.52,-213.744"/>
<polygon fill="midnightblue" stroke="midnightblue" points="1639.73,-217.24 1649.65,-213.519 1639.58,-210.242 1639.73,-217.24"/>
</g>
<!-- Node41&#45;&gt;Node44 -->
<g id="edge49" class="edge"><title>Node41&#45;&gt;Node44</title>
<path fill="none" stroke="midnightblue" d="M1555.68,-201.958C1583.47,-195.286 1616.36,-187.393 1645.24,-180.463"/>
<polygon fill="midnightblue" stroke="midnightblue" points="1646.36,-183.792 1655.27,-178.055 1644.73,-176.985 1646.36,-183.792"/>
</g>
<!-- Node46 -->
<g id="node46" class="node"><title>Node46</title>
<g id="a_node46"><a xlink:href="../../db/d55/classmodel_1_1_variable_list.html#a0adb554303c7191db1da43ddb5fa2c45" target="_top" xlink:title="model.VariableList.add">
<polygon fill="white" stroke="black" points="1656.5,-49.5 1656.5,-68.5 1781.5,-68.5 1781.5,-49.5 1656.5,-49.5"/>
<text text-anchor="middle" x="1719" y="-56.5" font-family="Helvetica,sans-Serif" font-size="10.00">model.VariableList.add</text>
</a>
</g>
</g>
<!-- Node45&#45;&gt;Node46 -->
<g id="edge51" class="edge"><title>Node45&#45;&gt;Node46</title>
<path fill="none" stroke="midnightblue" d="M1553.59,-59C1582,-59 1616.07,-59 1645.8,-59"/>
<polygon fill="midnightblue" stroke="midnightblue" points="1646.12,-62.5001 1656.12,-59 1646.12,-55.5001 1646.12,-62.5001"/>
</g>
<!-- Node48 -->
<g id="node48" class="node"><title>Node48</title>
<g id="a_node48"><a xlink:href="../../dc/d3b/classui_1_1_g_u_i.html#a203fbe4e50ca1066c5c0ea8cc182adc4" target="_top" xlink:title="ui.GUI.setOutputText">
<polygon fill="white" stroke="black" points="1204.5,-27.5 1204.5,-46.5 1319.5,-46.5 1319.5,-27.5 1204.5,-27.5"/>
<text text-anchor="middle" x="1262" y="-34.5" font-family="Helvetica,sans-Serif" font-size="10.00">ui.GUI.setOutputText</text>
</a>
</g>
</g>
<!-- Node47&#45;&gt;Node48 -->
<g id="edge56" class="edge"><title>Node47&#45;&gt;Node48</title>
<path fill="none" stroke="midnightblue" d="M1078.04,-77.4777C1114.92,-69.3193 1168.18,-57.5354 1207.74,-48.784"/>
<polygon fill="midnightblue" stroke="midnightblue" points="1208.73,-52.1495 1217.74,-46.5719 1207.22,-45.3147 1208.73,-52.1495"/>
</g>
<!-- Node49 -->
<g id="node49" class="node"><title>Node49</title>
<g id="a_node49"><a xlink:href="../../d8/d3c/classui_1_1elements_1_1_i_o_element.html#a39ffe51bb8b4ef8ad25dd48e65c92ac6" target="_top" xlink:title="ui.elements.IOElement.get\lOutputField">
<polygon fill="white" stroke="black" points="1420,-0 1420,-30 1564,-30 1564,-0 1420,-0"/>
<text text-anchor="start" x="1428" y="-18" font-family="Helvetica,sans-Serif" font-size="10.00">ui.elements.IOElement.get</text>
<text text-anchor="middle" x="1492" y="-7" font-family="Helvetica,sans-Serif" font-size="10.00">OutputField</text>
</a>
</g>
</g>
<!-- Node48&#45;&gt;Node49 -->
<g id="edge57" class="edge"><title>Node48&#45;&gt;Node49</title>
<path fill="none" stroke="midnightblue" d="M1319.65,-31.5335C1346.91,-28.9039 1380.07,-25.7037 1409.94,-22.8219"/>
<polygon fill="midnightblue" stroke="midnightblue" points="1410.31,-26.3025 1419.93,-21.8581 1409.64,-19.3348 1410.31,-26.3025"/>
</g>
</g>
</svg>
