<?xml version="1.0" encoding="UTF-8" standalone="no"?>
<!DOCTYPE svg PUBLIC "-//W3C//DTD SVG 1.1//EN"
 "http://www.w3.org/Graphics/SVG/1.1/DTD/svg11.dtd">
<!-- Generated by graphviz version 2.36.0 (20140111.2315)
 -->
<!-- Title: ui.GUI.parseCommand Pages: 1 -->
<svg width="2284pt" height="88pt"
 viewBox="0.00 0.00 2284.00 88.00" xmlns="http://www.w3.org/2000/svg" xmlns:xlink="http://www.w3.org/1999/xlink">
<g id="graph0" class="graph" transform="scale(1 1) rotate(0) translate(4 84)">
<title>ui.GUI.parseCommand</title>
<polygon fill="white" stroke="none" points="-4,4 -4,-84 2280,-84 2280,4 -4,4"/>
<!-- Node1 -->
<g id="node1" class="node"><title>Node1</title>
<polygon fill="#bfbfbf" stroke="black" points="0.5,-41.5 0.5,-60.5 125.5,-60.5 125.5,-41.5 0.5,-41.5"/>
<text text-anchor="middle" x="63" y="-48.5" font-family="Helvetica,sans-Serif" font-size="10.00">ui.GUI.parseCommand</text>
</g>
<!-- Node2 -->
<g id="node2" class="node"><title>Node2</title>
<g id="a_node2"><a xlink:href="../../d8/d3c/classui_1_1elements_1_1_i_o_element.html#a139a046f0c771f86696f2eee04047c64" target="_top" xlink:title="ui.elements.IOElement.init">
<polygon fill="white" stroke="black" points="178.5,-60.5 178.5,-79.5 321.5,-79.5 321.5,-60.5 178.5,-60.5"/>
<text text-anchor="middle" x="250" y="-67.5" font-family="Helvetica,sans-Serif" font-size="10.00">ui.elements.IOElement.init</text>
</a>
</g>
</g>
<!-- Node1&#45;&gt;Node2 -->
<g id="edge1" class="edge"><title>Node1&#45;&gt;Node2</title>
<path fill="none" stroke="midnightblue" d="M135.677,-58.3614C149.703,-59.8019 164.403,-61.3116 178.393,-62.7485"/>
<polygon fill="midnightblue" stroke="midnightblue" points="135.908,-54.8668 125.602,-57.3267 135.192,-61.8302 135.908,-54.8668"/>
</g>
<!-- Node4 -->
<g id="node4" class="node"><title>Node4</title>
<g id="a_node4"><a xlink:href="../../dc/d3b/classui_1_1_g_u_i.html#ab8ec2a37b3d5bd9e8c2abbb3642fb965" target="_top" xlink:title="ui.GUI.setupKeyboardCommands">
<polygon fill="white" stroke="black" points="162.5,-22.5 162.5,-41.5 337.5,-41.5 337.5,-22.5 162.5,-22.5"/>
<text text-anchor="middle" x="250" y="-29.5" font-family="Helvetica,sans-Serif" font-size="10.00">ui.GUI.setupKeyboardCommands</text>
</a>
</g>
</g>
<!-- Node1&#45;&gt;Node4 -->
<g id="edge3" class="edge"><title>Node1&#45;&gt;Node4</title>
<path fill="none" stroke="midnightblue" d="M135.694,-43.6368C144.41,-42.7417 153.385,-41.8199 162.289,-40.9054"/>
<polygon fill="midnightblue" stroke="midnightblue" points="135.192,-40.1698 125.602,-44.6733 135.908,-47.1332 135.192,-40.1698"/>
</g>
<!-- Node3 -->
<g id="node3" class="node"><title>Node3</title>
<g id="a_node3"><a xlink:href="../../d8/d3c/classui_1_1elements_1_1_i_o_element.html#a556e1a3ad292fe3ab731065eef59b187" target="_top" xlink:title="ui.elements.IOElement.IOElement">
<polygon fill="white" stroke="black" points="374,-60.5 374,-79.5 552,-79.5 552,-60.5 374,-60.5"/>
<text text-anchor="middle" x="463" y="-67.5" font-family="Helvetica,sans-Serif" font-size="10.00">ui.elements.IOElement.IOElement</text>
</a>
</g>
</g>
<!-- Node2&#45;&gt;Node3 -->
<g id="edge2" class="edge"><title>Node2&#45;&gt;Node3</title>
<path fill="none" stroke="midnightblue" d="M331.922,-70C345.652,-70 359.971,-70 373.876,-70"/>
<polygon fill="midnightblue" stroke="midnightblue" points="331.553,-66.5001 321.553,-70 331.553,-73.5001 331.553,-66.5001"/>
</g>
<!-- Node5 -->
<g id="node5" class="node"><title>Node5</title>
<g id="a_node5"><a xlink:href="../../dc/d3b/classui_1_1_g_u_i.html#a765d554102f38969231261686f2f8e27" target="_top" xlink:title="ui.GUI.initialize">
<polygon fill="white" stroke="black" points="420,-22.5 420,-41.5 506,-41.5 506,-22.5 420,-22.5"/>
<text text-anchor="middle" x="463" y="-29.5" font-family="Helvetica,sans-Serif" font-size="10.00">ui.GUI.initialize</text>
</a>
</g>
</g>
<!-- Node4&#45;&gt;Node5 -->
<g id="edge4" class="edge"><title>Node4&#45;&gt;Node5</title>
<path fill="none" stroke="midnightblue" d="M347.748,-32C373.016,-32 398.959,-32 419.724,-32"/>
<polygon fill="midnightblue" stroke="midnightblue" points="347.735,-28.5001 337.735,-32 347.735,-35.5001 347.735,-28.5001"/>
</g>
<!-- Node6 -->
<g id="node6" class="node"><title>Node6</title>
<g id="a_node6"><a xlink:href="../../d5/d06/classui_1_1_scene_updater.html#aeef5dd7a8ec2ad6179e33fdd71ea90d6" target="_top" xlink:title="ui.SceneUpdater.initGUI">
<polygon fill="white" stroke="black" points="588.5,-22.5 588.5,-41.5 719.5,-41.5 719.5,-22.5 588.5,-22.5"/>
<text text-anchor="middle" x="654" y="-29.5" font-family="Helvetica,sans-Serif" font-size="10.00">ui.SceneUpdater.initGUI</text>
</a>
</g>
</g>
<!-- Node5&#45;&gt;Node6 -->
<g id="edge5" class="edge"><title>Node5&#45;&gt;Node6</title>
<path fill="none" stroke="midnightblue" d="M516.669,-32C538.921,-32 565.049,-32 588.446,-32"/>
<polygon fill="midnightblue" stroke="midnightblue" points="516.415,-28.5001 506.415,-32 516.415,-35.5001 516.415,-28.5001"/>
</g>
<!-- Node7 -->
<g id="node7" class="node"><title>Node7</title>
<g id="a_node7"><a xlink:href="../../d9/df7/classcontroller_1_1_controller.html#a57e42ba83ee2145e6262cd72eac59570" target="_top" xlink:title="controller.Controller.init">
<polygon fill="white" stroke="black" points="756.5,-22.5 756.5,-41.5 883.5,-41.5 883.5,-22.5 756.5,-22.5"/>
<text text-anchor="middle" x="820" y="-29.5" font-family="Helvetica,sans-Serif" font-size="10.00">controller.Controller.init</text>
</a>
</g>
</g>
<!-- Node6&#45;&gt;Node7 -->
<g id="edge6" class="edge"><title>Node6&#45;&gt;Node7</title>
<path fill="none" stroke="midnightblue" d="M730.038,-32C738.806,-32 747.682,-32 756.26,-32"/>
<polygon fill="midnightblue" stroke="midnightblue" points="729.817,-28.5001 719.817,-32 729.817,-35.5001 729.817,-28.5001"/>
</g>
<!-- Node8 -->
<g id="node8" class="node"><title>Node8</title>
<g id="a_node8"><a xlink:href="../../dd/df2/classmain_1_1_workspace_manager.html#abc818b59211f6e14940b86a42bb868d0" target="_top" xlink:title="main.WorkspaceManager.create\lWorkspace">
<polygon fill="white" stroke="black" points="920,-17 920,-47 1090,-47 1090,-17 920,-17"/>
<text text-anchor="start" x="928" y="-35" font-family="Helvetica,sans-Serif" font-size="10.00">main.WorkspaceManager.create</text>
<text text-anchor="middle" x="1005" y="-24" font-family="Helvetica,sans-Serif" font-size="10.00">Workspace</text>
</a>
</g>
</g>
<!-- Node7&#45;&gt;Node8 -->
<g id="edge7" class="edge"><title>Node7&#45;&gt;Node8</title>
<path fill="none" stroke="midnightblue" d="M893.923,-32C902.392,-32 911.083,-32 919.689,-32"/>
<polygon fill="midnightblue" stroke="midnightblue" points="893.722,-28.5001 883.722,-32 893.722,-35.5001 893.722,-28.5001"/>
</g>
<!-- Node9 -->
<g id="node9" class="node"><title>Node9</title>
<g id="a_node9"><a xlink:href="../../d9/df7/classcontroller_1_1_controller.html#a3a9d672bb57047df70945ad1a9582c9a" target="_top" xlink:title="controller.Controller.create\lNewWorkspace">
<polygon fill="white" stroke="black" points="1126.5,-39 1126.5,-69 1269.5,-69 1269.5,-39 1126.5,-39"/>
<text text-anchor="start" x="1134.5" y="-57" font-family="Helvetica,sans-Serif" font-size="10.00">controller.Controller.create</text>
<text text-anchor="middle" x="1198" y="-46" font-family="Helvetica,sans-Serif" font-size="10.00">NewWorkspace</text>
</a>
</g>
</g>
<!-- Node8&#45;&gt;Node9 -->
<g id="edge8" class="edge"><title>Node8&#45;&gt;Node9</title>
<path fill="none" stroke="midnightblue" d="M1100.03,-42.8303C1108.88,-43.8503 1117.75,-44.8721 1126.34,-45.8608"/>
<polygon fill="midnightblue" stroke="midnightblue" points="1100.39,-39.3489 1090.05,-41.6815 1099.59,-46.3029 1100.39,-39.3489"/>
</g>
<!-- Node15 -->
<g id="node15" class="node"><title>Node15</title>
<g id="a_node15"><a xlink:href="../../d1/d0b/classmain_1_1_main.html#a9f1e5657b2f6f9bdd69a3b6412ceda74" target="_top" xlink:title="main.Main.start">
<polygon fill="white" stroke="black" points="1152,-0.5 1152,-19.5 1244,-19.5 1244,-0.5 1152,-0.5"/>
<text text-anchor="middle" x="1198" y="-7.5" font-family="Helvetica,sans-Serif" font-size="10.00">main.Main.start</text>
</a>
</g>
</g>
<!-- Node8&#45;&gt;Node15 -->
<g id="edge14" class="edge"><title>Node8&#45;&gt;Node15</title>
<path fill="none" stroke="midnightblue" d="M1100.09,-21.1629C1118.19,-19.0779 1136.36,-16.9851 1151.99,-15.1843"/>
<polygon fill="midnightblue" stroke="midnightblue" points="1099.59,-17.6971 1090.05,-22.3185 1100.39,-24.6511 1099.59,-17.6971"/>
</g>
<!-- Node10 -->
<g id="node10" class="node"><title>Node10</title>
<g id="a_node10"><a xlink:href="../../d5/d06/classui_1_1_scene_updater.html#a2858ad8edb0c0f59a21e2ae015f2fa1e" target="_top" xlink:title="ui.SceneUpdater.createNew\lWorkspace">
<polygon fill="white" stroke="black" points="1306,-39 1306,-69 1456,-69 1456,-39 1306,-39"/>
<text text-anchor="start" x="1314" y="-57" font-family="Helvetica,sans-Serif" font-size="10.00">ui.SceneUpdater.createNew</text>
<text text-anchor="middle" x="1381" y="-46" font-family="Helvetica,sans-Serif" font-size="10.00">Workspace</text>
</a>
</g>
</g>
<!-- Node9&#45;&gt;Node10 -->
<g id="edge9" class="edge"><title>Node9&#45;&gt;Node10</title>
<path fill="none" stroke="midnightblue" d="M1279.8,-54C1288.43,-54 1297.17,-54 1305.71,-54"/>
<polygon fill="midnightblue" stroke="midnightblue" points="1279.76,-50.5001 1269.76,-54 1279.76,-57.5001 1279.76,-50.5001"/>
</g>
<!-- Node11 -->
<g id="node11" class="node"><title>Node11</title>
<g id="a_node11"><a xlink:href="../../dc/d3b/classui_1_1_g_u_i.html#a2edc294ba07311e6c4b85c9fe749d1bf" target="_top" xlink:title="ui.GUI.createNewWorkspace">
<polygon fill="white" stroke="black" points="1492,-44.5 1492,-63.5 1642,-63.5 1642,-44.5 1492,-44.5"/>
<text text-anchor="middle" x="1567" y="-51.5" font-family="Helvetica,sans-Serif" font-size="10.00">ui.GUI.createNewWorkspace</text>
</a>
</g>
</g>
<!-- Node10&#45;&gt;Node11 -->
<g id="edge10" class="edge"><title>Node10&#45;&gt;Node11</title>
<path fill="none" stroke="midnightblue" d="M1466.07,-54C1474.65,-54 1483.34,-54 1491.81,-54"/>
<polygon fill="midnightblue" stroke="midnightblue" points="1466.04,-50.5001 1456.04,-54 1466.04,-57.5001 1466.04,-50.5001"/>
</g>
<!-- Node12 -->
<g id="node12" class="node"><title>Node12</title>
<g id="a_node12"><a xlink:href="../../d0/de6/classui_1_1elements_1_1_menu_bar_element.html#a98c13995a31d997aa10f2950583da6cc" target="_top" xlink:title="ui.elements.MenuBarElement.make\lMenuBar">
<polygon fill="white" stroke="black" points="1678,-39 1678,-69 1866,-69 1866,-39 1678,-39"/>
<text text-anchor="start" x="1686" y="-57" font-family="Helvetica,sans-Serif" font-size="10.00">ui.elements.MenuBarElement.make</text>
<text text-anchor="middle" x="1772" y="-46" font-family="Helvetica,sans-Serif" font-size="10.00">MenuBar</text>
</a>
</g>
</g>
<!-- Node11&#45;&gt;Node12 -->
<g id="edge11" class="edge"><title>Node11&#45;&gt;Node12</title>
<path fill="none" stroke="midnightblue" d="M1652.28,-54C1660.66,-54 1669.21,-54 1677.68,-54"/>
<polygon fill="midnightblue" stroke="midnightblue" points="1652.15,-50.5001 1642.15,-54 1652.15,-57.5001 1652.15,-50.5001"/>
</g>
<!-- Node13 -->
<g id="node13" class="node"><title>Node13</title>
<g id="a_node13"><a xlink:href="../../d0/de6/classui_1_1elements_1_1_menu_bar_element.html#a7bdb58f78cf8b61ba28498c5c86ab682" target="_top" xlink:title="ui.elements.MenuBarElement.init">
<polygon fill="white" stroke="black" points="1902,-44.5 1902,-63.5 2078,-63.5 2078,-44.5 1902,-44.5"/>
<text text-anchor="middle" x="1990" y="-51.5" font-family="Helvetica,sans-Serif" font-size="10.00">ui.elements.MenuBarElement.init</text>
</a>
</g>
</g>
<!-- Node12&#45;&gt;Node13 -->
<g id="edge12" class="edge"><title>Node12&#45;&gt;Node13</title>
<path fill="none" stroke="midnightblue" d="M1876.23,-54C1884.83,-54 1893.48,-54 1901.94,-54"/>
<polygon fill="midnightblue" stroke="midnightblue" points="1876.17,-50.5001 1866.17,-54 1876.17,-57.5001 1876.17,-50.5001"/>
</g>
<!-- Node14 -->
<g id="node14" class="node"><title>Node14</title>
<g id="a_node14"><a xlink:href="../../d0/de6/classui_1_1elements_1_1_menu_bar_element.html#ab4a4e6841c924a9d9c70b8073b56dffc" target="_top" xlink:title="ui.elements.MenuBarElement.\lMenuBarElement">
<polygon fill="white" stroke="black" points="2114.5,-39 2114.5,-69 2275.5,-69 2275.5,-39 2114.5,-39"/>
<text text-anchor="start" x="2122.5" y="-57" font-family="Helvetica,sans-Serif" font-size="10.00">ui.elements.MenuBarElement.</text>
<text text-anchor="middle" x="2195" y="-46" font-family="Helvetica,sans-Serif" font-size="10.00">MenuBarElement</text>
</a>
</g>
</g>
<!-- Node13&#45;&gt;Node14 -->
<g id="edge13" class="edge"><title>Node13&#45;&gt;Node14</title>
<path fill="none" stroke="midnightblue" d="M2088.47,-54C2097.19,-54 2105.95,-54 2114.5,-54"/>
<polygon fill="midnightblue" stroke="midnightblue" points="2088.27,-50.5001 2078.27,-54 2088.27,-57.5001 2088.27,-50.5001"/>
</g>
</g>
</svg>
