<?xml version="1.0" encoding="UTF-8" standalone="no"?>
<!DOCTYPE svg PUBLIC "-//W3C//DTD SVG 1.1//EN"
 "http://www.w3.org/Graphics/SVG/1.1/DTD/svg11.dtd">
<!-- Generated by graphviz version 2.36.0 (20140111.2315)
 -->
<!-- Title: ui.GUI.makeTurtleView Pages: 1 -->
<svg width="690pt" height="180pt"
 viewBox="0.00 0.00 690.00 180.00" xmlns="http://www.w3.org/2000/svg" xmlns:xlink="http://www.w3.org/1999/xlink">
<g id="graph0" class="graph" transform="scale(1 1) rotate(0) translate(4 176)">
<title>ui.GUI.makeTurtleView</title>
<polygon fill="white" stroke="none" points="-4,4 -4,-176 686,-176 686,4 -4,4"/>
<!-- Node1 -->
<g id="node1" class="node"><title>Node1</title>
<polygon fill="#bfbfbf" stroke="black" points="0,-78.5 0,-97.5 122,-97.5 122,-78.5 0,-78.5"/>
<text text-anchor="middle" x="61" y="-85.5" font-family="Helvetica,sans-Serif" font-size="10.00">ui.GUI.makeTurtleView</text>
</g>
<!-- Node2 -->
<g id="node2" class="node"><title>Node2</title>
<g id="a_node2"><a xlink:href="../../d5/d06/classui_1_1_scene_updater.html#a794d87263c7d233591c42f2bb7e16675" target="_top" xlink:title="ui.SceneUpdater.createTurtle">
<polygon fill="white" stroke="black" points="165.5,-147.5 165.5,-166.5 320.5,-166.5 320.5,-147.5 165.5,-147.5"/>
<text text-anchor="middle" x="243" y="-154.5" font-family="Helvetica,sans-Serif" font-size="10.00">ui.SceneUpdater.createTurtle</text>
</a>
</g>
</g>
<!-- Node1&#45;&gt;Node2 -->
<g id="edge1" class="edge"><title>Node1&#45;&gt;Node2</title>
<path fill="none" stroke="midnightblue" d="M77.775,-97.5385C96.3752,-108.429 128.5,-126.137 158,-137 165.988,-139.942 174.564,-142.562 183.076,-144.859"/>
<polygon fill="midnightblue" stroke="midnightblue" points="182.442,-148.31 192.999,-147.408 184.184,-141.53 182.442,-148.31"/>
</g>
<!-- Node5 -->
<g id="node5" class="node"><title>Node5</title>
<g id="a_node5"><a xlink:href="../../d8/d6d/classui_1_1elements_1_1_canvas_element.html#a2e31f129014b25b8f6e3e6d76f977f99" target="_top" xlink:title="ui.elements.CanvasElement.get\lBaseNode">
<polygon fill="white" stroke="black" points="158,-98 158,-128 328,-128 328,-98 158,-98"/>
<text text-anchor="start" x="166" y="-116" font-family="Helvetica,sans-Serif" font-size="10.00">ui.elements.CanvasElement.get</text>
<text text-anchor="middle" x="243" y="-105" font-family="Helvetica,sans-Serif" font-size="10.00">BaseNode</text>
</a>
</g>
</g>
<!-- Node1&#45;&gt;Node5 -->
<g id="edge4" class="edge"><title>Node1&#45;&gt;Node5</title>
<path fill="none" stroke="midnightblue" d="M122.188,-96.3594C130.415,-97.5021 139.017,-98.6968 147.672,-99.8989"/>
<polygon fill="midnightblue" stroke="midnightblue" points="147.452,-103.402 157.838,-101.311 148.415,-96.4684 147.452,-103.402"/>
</g>
<!-- Node6 -->
<g id="node6" class="node"><title>Node6</title>
<g id="a_node6"><a xlink:href="../../d6/dd8/classui_1_1elements_1_1_info_element.html#ac831e7ac05bb270f9b916f7471d0e9bb" target="_top" xlink:title="ui.elements.InfoElement.get\lBaseNode">
<polygon fill="white" stroke="black" points="167,-49 167,-79 319,-79 319,-49 167,-49"/>
<text text-anchor="start" x="175" y="-67" font-family="Helvetica,sans-Serif" font-size="10.00">ui.elements.InfoElement.get</text>
<text text-anchor="middle" x="243" y="-56" font-family="Helvetica,sans-Serif" font-size="10.00">BaseNode</text>
</a>
</g>
</g>
<!-- Node1&#45;&gt;Node6 -->
<g id="edge5" class="edge"><title>Node1&#45;&gt;Node6</title>
<path fill="none" stroke="midnightblue" d="M122.188,-79.975C133.254,-78.4994 144.999,-76.9335 156.639,-75.3814"/>
<polygon fill="midnightblue" stroke="midnightblue" points="157.373,-78.8147 166.823,-74.0236 156.448,-71.8761 157.373,-78.8147"/>
</g>
<!-- Node7 -->
<g id="node7" class="node"><title>Node7</title>
<g id="a_node7"><a xlink:href="../../d8/d6d/classui_1_1elements_1_1_canvas_element.html#a0bd90830736ace544582f1fe98dc929f" target="_top" xlink:title="ui.elements.CanvasElement.get\lCanvas">
<polygon fill="white" stroke="black" points="158,-0 158,-30 328,-30 328,-0 158,-0"/>
<text text-anchor="start" x="166" y="-18" font-family="Helvetica,sans-Serif" font-size="10.00">ui.elements.CanvasElement.get</text>
<text text-anchor="middle" x="243" y="-7" font-family="Helvetica,sans-Serif" font-size="10.00">Canvas</text>
</a>
</g>
</g>
<!-- Node1&#45;&gt;Node7 -->
<g id="edge6" class="edge"><title>Node1&#45;&gt;Node7</title>
<path fill="none" stroke="midnightblue" d="M78.9284,-78.4011C97.7919,-67.976 129.407,-51.3031 158,-40 163.943,-37.6507 170.197,-35.3993 176.5,-33.277"/>
<polygon fill="midnightblue" stroke="midnightblue" points="177.981,-36.4756 186.407,-30.0526 175.815,-29.8193 177.981,-36.4756"/>
</g>
<!-- Node3 -->
<g id="node3" class="node"><title>Node3</title>
<g id="a_node3"><a xlink:href="../../d9/df7/classcontroller_1_1_controller.html#a5ff29de29dce4cc460b69294c764adc8" target="_top" xlink:title="controller.Controller.create\lTurtle">
<polygon fill="white" stroke="black" points="364.5,-142 364.5,-172 507.5,-172 507.5,-142 364.5,-142"/>
<text text-anchor="start" x="372.5" y="-160" font-family="Helvetica,sans-Serif" font-size="10.00">controller.Controller.create</text>
<text text-anchor="middle" x="436" y="-149" font-family="Helvetica,sans-Serif" font-size="10.00">Turtle</text>
</a>
</g>
</g>
<!-- Node2&#45;&gt;Node3 -->
<g id="edge2" class="edge"><title>Node2&#45;&gt;Node3</title>
<path fill="none" stroke="midnightblue" d="M320.586,-157C331.631,-157 343.028,-157 354.153,-157"/>
<polygon fill="midnightblue" stroke="midnightblue" points="354.275,-160.5 364.275,-157 354.275,-153.5 354.275,-160.5"/>
</g>
<!-- Node4 -->
<g id="node4" class="node"><title>Node4</title>
<g id="a_node4"><a xlink:href="../../d9/d88/classmodel_1_1_tree_interpreter.html#a3a8c43b61bf2582fe495cae3f27c2c06" target="_top" xlink:title="model.TreeInterpreter.get\lTurtleList">
<polygon fill="white" stroke="black" points="544,-142 544,-172 682,-172 682,-142 544,-142"/>
<text text-anchor="start" x="552" y="-160" font-family="Helvetica,sans-Serif" font-size="10.00">model.TreeInterpreter.get</text>
<text text-anchor="middle" x="613" y="-149" font-family="Helvetica,sans-Serif" font-size="10.00">TurtleList</text>
</a>
</g>
</g>
<!-- Node3&#45;&gt;Node4 -->
<g id="edge3" class="edge"><title>Node3&#45;&gt;Node4</title>
<path fill="none" stroke="midnightblue" d="M507.675,-157C516.266,-157 525.081,-157 533.774,-157"/>
<polygon fill="midnightblue" stroke="midnightblue" points="533.9,-160.5 543.9,-157 533.9,-153.5 533.9,-160.5"/>
</g>
</g>
</svg>
