<?xml version="1.0" encoding="UTF-8" standalone="no"?>
<!DOCTYPE svg PUBLIC "-//W3C//DTD SVG 1.1//EN"
 "http://www.w3.org/Graphics/SVG/1.1/DTD/svg11.dtd">
<!-- Generated by graphviz version 2.36.0 (20140111.2315)
 -->
<!-- Title: parser.VariableCase.recurse Pages: 1 -->
<svg width="390pt" height="240pt"
 viewBox="0.00 0.00 390.00 240.00" xmlns="http://www.w3.org/2000/svg" xmlns:xlink="http://www.w3.org/1999/xlink">
<g id="graph0" class="graph" transform="scale(1 1) rotate(0) translate(4 236)">
<title>parser.VariableCase.recurse</title>
<polygon fill="white" stroke="none" points="-4,4 -4,-236 386,-236 386,4 -4,4"/>
<!-- Node1 -->
<g id="node1" class="node"><title>Node1</title>
<polygon fill="#bfbfbf" stroke="black" points="0.5,-117.5 0.5,-136.5 151.5,-136.5 151.5,-117.5 0.5,-117.5"/>
<text text-anchor="middle" x="76" y="-124.5" font-family="Helvetica,sans-Serif" font-size="10.00">parser.VariableCase.recurse</text>
</g>
<!-- Node2 -->
<g id="node2" class="node"><title>Node2</title>
<g id="a_node2"><a xlink:href="../../dc/d9e/classparser_1_1_command_tree_node.html#ad6cbb5376973ef15c1831187b297d071" target="_top" xlink:title="parser.CommandTreeNode.add">
<polygon fill="white" stroke="black" points="202,-212.5 202,-231.5 368,-231.5 368,-212.5 202,-212.5"/>
<text text-anchor="middle" x="285" y="-219.5" font-family="Helvetica,sans-Serif" font-size="10.00">parser.CommandTreeNode.add</text>
</a>
</g>
</g>
<!-- Node1&#45;&gt;Node2 -->
<g id="edge1" class="edge"><title>Node1&#45;&gt;Node2</title>
<path fill="none" stroke="midnightblue" d="M87.7668,-136.637C106.633,-152.975 147.522,-185.987 188,-203 194.209,-205.61 200.797,-207.867 207.497,-209.818"/>
<polygon fill="midnightblue" stroke="midnightblue" points="206.799,-213.254 217.364,-212.462 208.611,-206.493 206.799,-213.254"/>
</g>
<!-- Node3 -->
<g id="node3" class="node"><title>Node3</title>
<g id="a_node3"><a xlink:href="../../d9/dc0/interfaceparser_1_1_tree_wrapper.html#abf33b5a3ce13b389b9f69be49b18b998" target="_top" xlink:title="parser.TreeWrapper.getIndex">
<polygon fill="white" stroke="black" points="209,-174.5 209,-193.5 361,-193.5 361,-174.5 209,-174.5"/>
<text text-anchor="middle" x="285" y="-181.5" font-family="Helvetica,sans-Serif" font-size="10.00">parser.TreeWrapper.getIndex</text>
</a>
</g>
</g>
<!-- Node1&#45;&gt;Node3 -->
<g id="edge2" class="edge"><title>Node1&#45;&gt;Node3</title>
<path fill="none" stroke="midnightblue" d="M101.831,-136.575C124.134,-144.916 157.904,-156.91 188,-165 198.009,-167.691 208.699,-170.178 219.178,-172.406"/>
<polygon fill="midnightblue" stroke="midnightblue" points="218.629,-175.866 229.13,-174.461 220.044,-169.011 218.629,-175.866"/>
</g>
<!-- Node4 -->
<g id="node4" class="node"><title>Node4</title>
<g id="a_node4"><a xlink:href="../../dc/d9e/classparser_1_1_command_tree_node.html#a73e4ab6ebca47d41b993f0e66ee4c8d2" target="_top" xlink:title="parser.CommandTreeNode.getName">
<polygon fill="white" stroke="black" points="188.5,-136.5 188.5,-155.5 381.5,-155.5 381.5,-136.5 188.5,-136.5"/>
<text text-anchor="middle" x="285" y="-143.5" font-family="Helvetica,sans-Serif" font-size="10.00">parser.CommandTreeNode.getName</text>
</a>
</g>
</g>
<!-- Node1&#45;&gt;Node4 -->
<g id="edge3" class="edge"><title>Node1&#45;&gt;Node4</title>
<path fill="none" stroke="midnightblue" d="M151.732,-133.859C160.398,-134.655 169.357,-135.477 178.337,-136.302"/>
<polygon fill="midnightblue" stroke="midnightblue" points="178.193,-139.803 188.472,-137.232 178.833,-132.832 178.193,-139.803"/>
</g>
<!-- Node5 -->
<g id="node5" class="node"><title>Node5</title>
<g id="a_node5"><a xlink:href="../../dc/d9e/classparser_1_1_command_tree_node.html#a8bb8a112395f78809b0be06f1c3f5282" target="_top" xlink:title="parser.CommandTreeNode.getType">
<polygon fill="white" stroke="black" points="192.5,-98.5 192.5,-117.5 377.5,-117.5 377.5,-98.5 192.5,-98.5"/>
<text text-anchor="middle" x="285" y="-105.5" font-family="Helvetica,sans-Serif" font-size="10.00">parser.CommandTreeNode.getType</text>
</a>
</g>
</g>
<!-- Node1&#45;&gt;Node5 -->
<g id="edge4" class="edge"><title>Node1&#45;&gt;Node5</title>
<path fill="none" stroke="midnightblue" d="M151.732,-120.141C161.633,-119.232 171.916,-118.288 182.177,-117.346"/>
<polygon fill="midnightblue" stroke="midnightblue" points="182.778,-120.806 192.416,-116.406 182.138,-113.835 182.778,-120.806"/>
</g>
<!-- Node6 -->
<g id="node6" class="node"><title>Node6</title>
<g id="a_node6"><a xlink:href="../../d9/dc0/interfaceparser_1_1_tree_wrapper.html#a251d9d9bb7c3ea34688bfa30cc465270" target="_top" xlink:title="parser.TreeWrapper.increment\lIndex">
<polygon fill="white" stroke="black" points="205.5,-49 205.5,-79 364.5,-79 364.5,-49 205.5,-49"/>
<text text-anchor="start" x="213.5" y="-67" font-family="Helvetica,sans-Serif" font-size="10.00">parser.TreeWrapper.increment</text>
<text text-anchor="middle" x="285" y="-56" font-family="Helvetica,sans-Serif" font-size="10.00">Index</text>
</a>
</g>
</g>
<!-- Node1&#45;&gt;Node6 -->
<g id="edge5" class="edge"><title>Node1&#45;&gt;Node6</title>
<path fill="none" stroke="midnightblue" d="M103.284,-117.378C125.662,-109.337 158.743,-97.804 188,-89 196.268,-86.512 204.979,-84.0398 213.643,-81.6725"/>
<polygon fill="midnightblue" stroke="midnightblue" points="214.634,-85.0305 223.379,-79.0491 212.812,-78.2715 214.634,-85.0305"/>
</g>
<!-- Node7 -->
<g id="node7" class="node"><title>Node7</title>
<g id="a_node7"><a xlink:href="../../d9/dc0/interfaceparser_1_1_tree_wrapper.html#a593548eb4ae82f686022f08f45908a1d" target="_top" xlink:title="parser.TreeWrapper.print\lTestStatements">
<polygon fill="white" stroke="black" points="219,-0 219,-30 351,-30 351,-0 219,-0"/>
<text text-anchor="start" x="227" y="-18" font-family="Helvetica,sans-Serif" font-size="10.00">parser.TreeWrapper.print</text>
<text text-anchor="middle" x="285" y="-7" font-family="Helvetica,sans-Serif" font-size="10.00">TestStatements</text>
</a>
</g>
</g>
<!-- Node1&#45;&gt;Node7 -->
<g id="edge6" class="edge"><title>Node1&#45;&gt;Node7</title>
<path fill="none" stroke="midnightblue" d="M86.4446,-117.318C104.498,-99.3677 145.871,-60.8604 188,-40 194.632,-36.7162 201.742,-33.8304 208.983,-31.3016"/>
<polygon fill="midnightblue" stroke="midnightblue" points="210.481,-34.4949 218.906,-28.0706 208.313,-27.8388 210.481,-34.4949"/>
</g>
</g>
</svg>
